%TF.GenerationSoftware,KiCad,Pcbnew,9.0.9-9.0.9~ubuntu24.04.1*%
%TF.CreationDate,2026-10-01T19:38:51+00:00*%
%TF.ProjectId,PinaBio-v2.0-Cursor,50696e61-4269-46f2-9d76-322e302d4375,SPEC-0.9*%
%TF.SameCoordinates,Original*%
%TF.FileFunction,Drillmap*%
%TF.FilePolarity,Positive*%
%FSLAX45Y45*%
G04 Gerber Fmt 4.5, Leading zero omitted, Abs format (unit mm)*
G04 Created by KiCad (PCBNEW 9.0.9-9.0.9~ubuntu24.04.1) date 2026-10-01 19:38:51*
%MOMM*%
%LPD*%
G01*
G04 APERTURE LIST*
%ADD10C,0.050000*%
%ADD11C,0.200000*%
%ADD12C,0.100000*%
G04 APERTURE END LIST*
D10*
X0Y-39500D02*
X8099000Y-39500D01*
X0Y-5729000D02*
X0Y-39500D01*
X8099000Y-39500D02*
X8099000Y-5729000D01*
X8099000Y-5729000D02*
X0Y-5729000D01*
D11*
D12*
X3413000Y-3246500D02*
X3478000Y-3311500D01*
X3478000Y-3246500D02*
X3413000Y-3311500D01*
X3991000Y-3246500D02*
X4056000Y-3311500D01*
X4056000Y-3246500D02*
X3991000Y-3311500D01*
D11*
X258277Y-6042984D02*
X258277Y-5842984D01*
X258277Y-5842984D02*
X305896Y-5842984D01*
X305896Y-5842984D02*
X334467Y-5852508D01*
X334467Y-5852508D02*
X353515Y-5871555D01*
X353515Y-5871555D02*
X363039Y-5890603D01*
X363039Y-5890603D02*
X372562Y-5928698D01*
X372562Y-5928698D02*
X372562Y-5957269D01*
X372562Y-5957269D02*
X363039Y-5995365D01*
X363039Y-5995365D02*
X353515Y-6014412D01*
X353515Y-6014412D02*
X334467Y-6033460D01*
X334467Y-6033460D02*
X305896Y-6042984D01*
X305896Y-6042984D02*
X258277Y-6042984D01*
X458277Y-6042984D02*
X458277Y-5909650D01*
X458277Y-5947746D02*
X467801Y-5928698D01*
X467801Y-5928698D02*
X477324Y-5919174D01*
X477324Y-5919174D02*
X496372Y-5909650D01*
X496372Y-5909650D02*
X515420Y-5909650D01*
X582086Y-6042984D02*
X582086Y-5909650D01*
X582086Y-5842984D02*
X572563Y-5852508D01*
X572563Y-5852508D02*
X582086Y-5862031D01*
X582086Y-5862031D02*
X591610Y-5852508D01*
X591610Y-5852508D02*
X582086Y-5842984D01*
X582086Y-5842984D02*
X582086Y-5862031D01*
X705896Y-6042984D02*
X686848Y-6033460D01*
X686848Y-6033460D02*
X677324Y-6014412D01*
X677324Y-6014412D02*
X677324Y-5842984D01*
X810658Y-6042984D02*
X791610Y-6033460D01*
X791610Y-6033460D02*
X782086Y-6014412D01*
X782086Y-6014412D02*
X782086Y-5842984D01*
X1039229Y-6042984D02*
X1039229Y-5842984D01*
X1039229Y-5842984D02*
X1105896Y-5985841D01*
X1105896Y-5985841D02*
X1172563Y-5842984D01*
X1172563Y-5842984D02*
X1172563Y-6042984D01*
X1353515Y-6042984D02*
X1353515Y-5938222D01*
X1353515Y-5938222D02*
X1343991Y-5919174D01*
X1343991Y-5919174D02*
X1324944Y-5909650D01*
X1324944Y-5909650D02*
X1286848Y-5909650D01*
X1286848Y-5909650D02*
X1267801Y-5919174D01*
X1353515Y-6033460D02*
X1334467Y-6042984D01*
X1334467Y-6042984D02*
X1286848Y-6042984D01*
X1286848Y-6042984D02*
X1267801Y-6033460D01*
X1267801Y-6033460D02*
X1258277Y-6014412D01*
X1258277Y-6014412D02*
X1258277Y-5995365D01*
X1258277Y-5995365D02*
X1267801Y-5976317D01*
X1267801Y-5976317D02*
X1286848Y-5966793D01*
X1286848Y-5966793D02*
X1334467Y-5966793D01*
X1334467Y-5966793D02*
X1353515Y-5957269D01*
X1448753Y-5909650D02*
X1448753Y-6109650D01*
X1448753Y-5919174D02*
X1467801Y-5909650D01*
X1467801Y-5909650D02*
X1505896Y-5909650D01*
X1505896Y-5909650D02*
X1524943Y-5919174D01*
X1524943Y-5919174D02*
X1534467Y-5928698D01*
X1534467Y-5928698D02*
X1543991Y-5947746D01*
X1543991Y-5947746D02*
X1543991Y-6004888D01*
X1543991Y-6004888D02*
X1534467Y-6023936D01*
X1534467Y-6023936D02*
X1524943Y-6033460D01*
X1524943Y-6033460D02*
X1505896Y-6042984D01*
X1505896Y-6042984D02*
X1467801Y-6042984D01*
X1467801Y-6042984D02*
X1448753Y-6033460D01*
X1629705Y-6023936D02*
X1639229Y-6033460D01*
X1639229Y-6033460D02*
X1629705Y-6042984D01*
X1629705Y-6042984D02*
X1620182Y-6033460D01*
X1620182Y-6033460D02*
X1629705Y-6023936D01*
X1629705Y-6023936D02*
X1629705Y-6042984D01*
X1629705Y-5919174D02*
X1639229Y-5928698D01*
X1639229Y-5928698D02*
X1629705Y-5938222D01*
X1629705Y-5938222D02*
X1620182Y-5928698D01*
X1620182Y-5928698D02*
X1629705Y-5919174D01*
X1629705Y-5919174D02*
X1629705Y-5938222D01*
D12*
X-67500Y-6339000D02*
X-2500Y-6404000D01*
X-2500Y-6339000D02*
X-67500Y-6404000D01*
D11*
X296372Y-6262984D02*
X315420Y-6262984D01*
X315420Y-6262984D02*
X334467Y-6272508D01*
X334467Y-6272508D02*
X343991Y-6282031D01*
X343991Y-6282031D02*
X353515Y-6301079D01*
X353515Y-6301079D02*
X363039Y-6339174D01*
X363039Y-6339174D02*
X363039Y-6386793D01*
X363039Y-6386793D02*
X353515Y-6424888D01*
X353515Y-6424888D02*
X343991Y-6443936D01*
X343991Y-6443936D02*
X334467Y-6453460D01*
X334467Y-6453460D02*
X315420Y-6462984D01*
X315420Y-6462984D02*
X296372Y-6462984D01*
X296372Y-6462984D02*
X277324Y-6453460D01*
X277324Y-6453460D02*
X267801Y-6443936D01*
X267801Y-6443936D02*
X258277Y-6424888D01*
X258277Y-6424888D02*
X248753Y-6386793D01*
X248753Y-6386793D02*
X248753Y-6339174D01*
X248753Y-6339174D02*
X258277Y-6301079D01*
X258277Y-6301079D02*
X267801Y-6282031D01*
X267801Y-6282031D02*
X277324Y-6272508D01*
X277324Y-6272508D02*
X296372Y-6262984D01*
X448753Y-6443936D02*
X458277Y-6453460D01*
X458277Y-6453460D02*
X448753Y-6462984D01*
X448753Y-6462984D02*
X439229Y-6453460D01*
X439229Y-6453460D02*
X448753Y-6443936D01*
X448753Y-6443936D02*
X448753Y-6462984D01*
X629705Y-6262984D02*
X591610Y-6262984D01*
X591610Y-6262984D02*
X572563Y-6272508D01*
X572563Y-6272508D02*
X563039Y-6282031D01*
X563039Y-6282031D02*
X543991Y-6310603D01*
X543991Y-6310603D02*
X534467Y-6348698D01*
X534467Y-6348698D02*
X534467Y-6424888D01*
X534467Y-6424888D02*
X543991Y-6443936D01*
X543991Y-6443936D02*
X553515Y-6453460D01*
X553515Y-6453460D02*
X572563Y-6462984D01*
X572563Y-6462984D02*
X610658Y-6462984D01*
X610658Y-6462984D02*
X629705Y-6453460D01*
X629705Y-6453460D02*
X639229Y-6443936D01*
X639229Y-6443936D02*
X648753Y-6424888D01*
X648753Y-6424888D02*
X648753Y-6377269D01*
X648753Y-6377269D02*
X639229Y-6358222D01*
X639229Y-6358222D02*
X629705Y-6348698D01*
X629705Y-6348698D02*
X610658Y-6339174D01*
X610658Y-6339174D02*
X572563Y-6339174D01*
X572563Y-6339174D02*
X553515Y-6348698D01*
X553515Y-6348698D02*
X543991Y-6358222D01*
X543991Y-6358222D02*
X534467Y-6377269D01*
X829705Y-6262984D02*
X734467Y-6262984D01*
X734467Y-6262984D02*
X724943Y-6358222D01*
X724943Y-6358222D02*
X734467Y-6348698D01*
X734467Y-6348698D02*
X753515Y-6339174D01*
X753515Y-6339174D02*
X801134Y-6339174D01*
X801134Y-6339174D02*
X820182Y-6348698D01*
X820182Y-6348698D02*
X829705Y-6358222D01*
X829705Y-6358222D02*
X839229Y-6377269D01*
X839229Y-6377269D02*
X839229Y-6424888D01*
X839229Y-6424888D02*
X829705Y-6443936D01*
X829705Y-6443936D02*
X820182Y-6453460D01*
X820182Y-6453460D02*
X801134Y-6462984D01*
X801134Y-6462984D02*
X753515Y-6462984D01*
X753515Y-6462984D02*
X734467Y-6453460D01*
X734467Y-6453460D02*
X724943Y-6443936D01*
X963039Y-6262984D02*
X982086Y-6262984D01*
X982086Y-6262984D02*
X1001134Y-6272508D01*
X1001134Y-6272508D02*
X1010658Y-6282031D01*
X1010658Y-6282031D02*
X1020182Y-6301079D01*
X1020182Y-6301079D02*
X1029705Y-6339174D01*
X1029705Y-6339174D02*
X1029705Y-6386793D01*
X1029705Y-6386793D02*
X1020182Y-6424888D01*
X1020182Y-6424888D02*
X1010658Y-6443936D01*
X1010658Y-6443936D02*
X1001134Y-6453460D01*
X1001134Y-6453460D02*
X982086Y-6462984D01*
X982086Y-6462984D02*
X963039Y-6462984D01*
X963039Y-6462984D02*
X943991Y-6453460D01*
X943991Y-6453460D02*
X934467Y-6443936D01*
X934467Y-6443936D02*
X924943Y-6424888D01*
X924943Y-6424888D02*
X915420Y-6386793D01*
X915420Y-6386793D02*
X915420Y-6339174D01*
X915420Y-6339174D02*
X924943Y-6301079D01*
X924943Y-6301079D02*
X934467Y-6282031D01*
X934467Y-6282031D02*
X943991Y-6272508D01*
X943991Y-6272508D02*
X963039Y-6262984D01*
X1115420Y-6462984D02*
X1115420Y-6329650D01*
X1115420Y-6348698D02*
X1124944Y-6339174D01*
X1124944Y-6339174D02*
X1143991Y-6329650D01*
X1143991Y-6329650D02*
X1172563Y-6329650D01*
X1172563Y-6329650D02*
X1191610Y-6339174D01*
X1191610Y-6339174D02*
X1201134Y-6358222D01*
X1201134Y-6358222D02*
X1201134Y-6462984D01*
X1201134Y-6358222D02*
X1210658Y-6339174D01*
X1210658Y-6339174D02*
X1229705Y-6329650D01*
X1229705Y-6329650D02*
X1258277Y-6329650D01*
X1258277Y-6329650D02*
X1277325Y-6339174D01*
X1277325Y-6339174D02*
X1286848Y-6358222D01*
X1286848Y-6358222D02*
X1286848Y-6462984D01*
X1382086Y-6462984D02*
X1382086Y-6329650D01*
X1382086Y-6348698D02*
X1391610Y-6339174D01*
X1391610Y-6339174D02*
X1410658Y-6329650D01*
X1410658Y-6329650D02*
X1439229Y-6329650D01*
X1439229Y-6329650D02*
X1458277Y-6339174D01*
X1458277Y-6339174D02*
X1467801Y-6358222D01*
X1467801Y-6358222D02*
X1467801Y-6462984D01*
X1467801Y-6358222D02*
X1477324Y-6339174D01*
X1477324Y-6339174D02*
X1496372Y-6329650D01*
X1496372Y-6329650D02*
X1524943Y-6329650D01*
X1524943Y-6329650D02*
X1543991Y-6339174D01*
X1543991Y-6339174D02*
X1553515Y-6358222D01*
X1553515Y-6358222D02*
X1553515Y-6462984D01*
X1943991Y-6253460D02*
X1772563Y-6510603D01*
X2201134Y-6262984D02*
X2220182Y-6262984D01*
X2220182Y-6262984D02*
X2239229Y-6272508D01*
X2239229Y-6272508D02*
X2248753Y-6282031D01*
X2248753Y-6282031D02*
X2258277Y-6301079D01*
X2258277Y-6301079D02*
X2267801Y-6339174D01*
X2267801Y-6339174D02*
X2267801Y-6386793D01*
X2267801Y-6386793D02*
X2258277Y-6424888D01*
X2258277Y-6424888D02*
X2248753Y-6443936D01*
X2248753Y-6443936D02*
X2239229Y-6453460D01*
X2239229Y-6453460D02*
X2220182Y-6462984D01*
X2220182Y-6462984D02*
X2201134Y-6462984D01*
X2201134Y-6462984D02*
X2182087Y-6453460D01*
X2182087Y-6453460D02*
X2172563Y-6443936D01*
X2172563Y-6443936D02*
X2163039Y-6424888D01*
X2163039Y-6424888D02*
X2153515Y-6386793D01*
X2153515Y-6386793D02*
X2153515Y-6339174D01*
X2153515Y-6339174D02*
X2163039Y-6301079D01*
X2163039Y-6301079D02*
X2172563Y-6282031D01*
X2172563Y-6282031D02*
X2182087Y-6272508D01*
X2182087Y-6272508D02*
X2201134Y-6262984D01*
X2353515Y-6443936D02*
X2363039Y-6453460D01*
X2363039Y-6453460D02*
X2353515Y-6462984D01*
X2353515Y-6462984D02*
X2343991Y-6453460D01*
X2343991Y-6453460D02*
X2353515Y-6443936D01*
X2353515Y-6443936D02*
X2353515Y-6462984D01*
X2486848Y-6262984D02*
X2505896Y-6262984D01*
X2505896Y-6262984D02*
X2524944Y-6272508D01*
X2524944Y-6272508D02*
X2534468Y-6282031D01*
X2534468Y-6282031D02*
X2543991Y-6301079D01*
X2543991Y-6301079D02*
X2553515Y-6339174D01*
X2553515Y-6339174D02*
X2553515Y-6386793D01*
X2553515Y-6386793D02*
X2543991Y-6424888D01*
X2543991Y-6424888D02*
X2534468Y-6443936D01*
X2534468Y-6443936D02*
X2524944Y-6453460D01*
X2524944Y-6453460D02*
X2505896Y-6462984D01*
X2505896Y-6462984D02*
X2486848Y-6462984D01*
X2486848Y-6462984D02*
X2467801Y-6453460D01*
X2467801Y-6453460D02*
X2458277Y-6443936D01*
X2458277Y-6443936D02*
X2448753Y-6424888D01*
X2448753Y-6424888D02*
X2439229Y-6386793D01*
X2439229Y-6386793D02*
X2439229Y-6339174D01*
X2439229Y-6339174D02*
X2448753Y-6301079D01*
X2448753Y-6301079D02*
X2458277Y-6282031D01*
X2458277Y-6282031D02*
X2467801Y-6272508D01*
X2467801Y-6272508D02*
X2486848Y-6262984D01*
X2629706Y-6282031D02*
X2639229Y-6272508D01*
X2639229Y-6272508D02*
X2658277Y-6262984D01*
X2658277Y-6262984D02*
X2705896Y-6262984D01*
X2705896Y-6262984D02*
X2724944Y-6272508D01*
X2724944Y-6272508D02*
X2734468Y-6282031D01*
X2734468Y-6282031D02*
X2743991Y-6301079D01*
X2743991Y-6301079D02*
X2743991Y-6320127D01*
X2743991Y-6320127D02*
X2734468Y-6348698D01*
X2734468Y-6348698D02*
X2620182Y-6462984D01*
X2620182Y-6462984D02*
X2743991Y-6462984D01*
X2924944Y-6262984D02*
X2829706Y-6262984D01*
X2829706Y-6262984D02*
X2820182Y-6358222D01*
X2820182Y-6358222D02*
X2829706Y-6348698D01*
X2829706Y-6348698D02*
X2848753Y-6339174D01*
X2848753Y-6339174D02*
X2896372Y-6339174D01*
X2896372Y-6339174D02*
X2915420Y-6348698D01*
X2915420Y-6348698D02*
X2924944Y-6358222D01*
X2924944Y-6358222D02*
X2934467Y-6377269D01*
X2934467Y-6377269D02*
X2934467Y-6424888D01*
X2934467Y-6424888D02*
X2924944Y-6443936D01*
X2924944Y-6443936D02*
X2915420Y-6453460D01*
X2915420Y-6453460D02*
X2896372Y-6462984D01*
X2896372Y-6462984D02*
X2848753Y-6462984D01*
X2848753Y-6462984D02*
X2829706Y-6453460D01*
X2829706Y-6453460D02*
X2820182Y-6443936D01*
X3105896Y-6262984D02*
X3067801Y-6262984D01*
X3067801Y-6262984D02*
X3048753Y-6272508D01*
X3048753Y-6272508D02*
X3039229Y-6282031D01*
X3039229Y-6282031D02*
X3020182Y-6310603D01*
X3020182Y-6310603D02*
X3010658Y-6348698D01*
X3010658Y-6348698D02*
X3010658Y-6424888D01*
X3010658Y-6424888D02*
X3020182Y-6443936D01*
X3020182Y-6443936D02*
X3029706Y-6453460D01*
X3029706Y-6453460D02*
X3048753Y-6462984D01*
X3048753Y-6462984D02*
X3086848Y-6462984D01*
X3086848Y-6462984D02*
X3105896Y-6453460D01*
X3105896Y-6453460D02*
X3115420Y-6443936D01*
X3115420Y-6443936D02*
X3124944Y-6424888D01*
X3124944Y-6424888D02*
X3124944Y-6377269D01*
X3124944Y-6377269D02*
X3115420Y-6358222D01*
X3115420Y-6358222D02*
X3105896Y-6348698D01*
X3105896Y-6348698D02*
X3086848Y-6339174D01*
X3086848Y-6339174D02*
X3048753Y-6339174D01*
X3048753Y-6339174D02*
X3029706Y-6348698D01*
X3029706Y-6348698D02*
X3020182Y-6358222D01*
X3020182Y-6358222D02*
X3010658Y-6377269D01*
X3201134Y-6262984D02*
X3201134Y-6301079D01*
X3277325Y-6262984D02*
X3277325Y-6301079D01*
X3572563Y-6539174D02*
X3563039Y-6529650D01*
X3563039Y-6529650D02*
X3543991Y-6501079D01*
X3543991Y-6501079D02*
X3534468Y-6482031D01*
X3534468Y-6482031D02*
X3524944Y-6453460D01*
X3524944Y-6453460D02*
X3515420Y-6405841D01*
X3515420Y-6405841D02*
X3515420Y-6367746D01*
X3515420Y-6367746D02*
X3524944Y-6320127D01*
X3524944Y-6320127D02*
X3534468Y-6291555D01*
X3534468Y-6291555D02*
X3543991Y-6272508D01*
X3543991Y-6272508D02*
X3563039Y-6243936D01*
X3563039Y-6243936D02*
X3572563Y-6234412D01*
X3639229Y-6282031D02*
X3648753Y-6272508D01*
X3648753Y-6272508D02*
X3667801Y-6262984D01*
X3667801Y-6262984D02*
X3715420Y-6262984D01*
X3715420Y-6262984D02*
X3734468Y-6272508D01*
X3734468Y-6272508D02*
X3743991Y-6282031D01*
X3743991Y-6282031D02*
X3753515Y-6301079D01*
X3753515Y-6301079D02*
X3753515Y-6320127D01*
X3753515Y-6320127D02*
X3743991Y-6348698D01*
X3743991Y-6348698D02*
X3629706Y-6462984D01*
X3629706Y-6462984D02*
X3753515Y-6462984D01*
X3991610Y-6462984D02*
X3991610Y-6262984D01*
X4077325Y-6462984D02*
X4077325Y-6358222D01*
X4077325Y-6358222D02*
X4067801Y-6339174D01*
X4067801Y-6339174D02*
X4048753Y-6329650D01*
X4048753Y-6329650D02*
X4020182Y-6329650D01*
X4020182Y-6329650D02*
X4001134Y-6339174D01*
X4001134Y-6339174D02*
X3991610Y-6348698D01*
X4201134Y-6462984D02*
X4182087Y-6453460D01*
X4182087Y-6453460D02*
X4172563Y-6443936D01*
X4172563Y-6443936D02*
X4163039Y-6424888D01*
X4163039Y-6424888D02*
X4163039Y-6367746D01*
X4163039Y-6367746D02*
X4172563Y-6348698D01*
X4172563Y-6348698D02*
X4182087Y-6339174D01*
X4182087Y-6339174D02*
X4201134Y-6329650D01*
X4201134Y-6329650D02*
X4229706Y-6329650D01*
X4229706Y-6329650D02*
X4248753Y-6339174D01*
X4248753Y-6339174D02*
X4258277Y-6348698D01*
X4258277Y-6348698D02*
X4267801Y-6367746D01*
X4267801Y-6367746D02*
X4267801Y-6424888D01*
X4267801Y-6424888D02*
X4258277Y-6443936D01*
X4258277Y-6443936D02*
X4248753Y-6453460D01*
X4248753Y-6453460D02*
X4229706Y-6462984D01*
X4229706Y-6462984D02*
X4201134Y-6462984D01*
X4382087Y-6462984D02*
X4363039Y-6453460D01*
X4363039Y-6453460D02*
X4353515Y-6434412D01*
X4353515Y-6434412D02*
X4353515Y-6262984D01*
X4534468Y-6453460D02*
X4515420Y-6462984D01*
X4515420Y-6462984D02*
X4477325Y-6462984D01*
X4477325Y-6462984D02*
X4458277Y-6453460D01*
X4458277Y-6453460D02*
X4448753Y-6434412D01*
X4448753Y-6434412D02*
X4448753Y-6358222D01*
X4448753Y-6358222D02*
X4458277Y-6339174D01*
X4458277Y-6339174D02*
X4477325Y-6329650D01*
X4477325Y-6329650D02*
X4515420Y-6329650D01*
X4515420Y-6329650D02*
X4534468Y-6339174D01*
X4534468Y-6339174D02*
X4543992Y-6358222D01*
X4543992Y-6358222D02*
X4543992Y-6377269D01*
X4543992Y-6377269D02*
X4448753Y-6396317D01*
X4620182Y-6453460D02*
X4639230Y-6462984D01*
X4639230Y-6462984D02*
X4677325Y-6462984D01*
X4677325Y-6462984D02*
X4696373Y-6453460D01*
X4696373Y-6453460D02*
X4705896Y-6434412D01*
X4705896Y-6434412D02*
X4705896Y-6424888D01*
X4705896Y-6424888D02*
X4696373Y-6405841D01*
X4696373Y-6405841D02*
X4677325Y-6396317D01*
X4677325Y-6396317D02*
X4648753Y-6396317D01*
X4648753Y-6396317D02*
X4629706Y-6386793D01*
X4629706Y-6386793D02*
X4620182Y-6367746D01*
X4620182Y-6367746D02*
X4620182Y-6358222D01*
X4620182Y-6358222D02*
X4629706Y-6339174D01*
X4629706Y-6339174D02*
X4648753Y-6329650D01*
X4648753Y-6329650D02*
X4677325Y-6329650D01*
X4677325Y-6329650D02*
X4696373Y-6339174D01*
X4772563Y-6539174D02*
X4782087Y-6529650D01*
X4782087Y-6529650D02*
X4801134Y-6501079D01*
X4801134Y-6501079D02*
X4810658Y-6482031D01*
X4810658Y-6482031D02*
X4820182Y-6453460D01*
X4820182Y-6453460D02*
X4829706Y-6405841D01*
X4829706Y-6405841D02*
X4829706Y-6367746D01*
X4829706Y-6367746D02*
X4820182Y-6320127D01*
X4820182Y-6320127D02*
X4810658Y-6291555D01*
X4810658Y-6291555D02*
X4801134Y-6272508D01*
X4801134Y-6272508D02*
X4782087Y-6243936D01*
X4782087Y-6243936D02*
X4772563Y-6234412D01*
X5134468Y-6539174D02*
X5124944Y-6529650D01*
X5124944Y-6529650D02*
X5105896Y-6501079D01*
X5105896Y-6501079D02*
X5096373Y-6482031D01*
X5096373Y-6482031D02*
X5086849Y-6453460D01*
X5086849Y-6453460D02*
X5077325Y-6405841D01*
X5077325Y-6405841D02*
X5077325Y-6367746D01*
X5077325Y-6367746D02*
X5086849Y-6320127D01*
X5086849Y-6320127D02*
X5096373Y-6291555D01*
X5096373Y-6291555D02*
X5105896Y-6272508D01*
X5105896Y-6272508D02*
X5124944Y-6243936D01*
X5124944Y-6243936D02*
X5134468Y-6234412D01*
X5210658Y-6329650D02*
X5210658Y-6462984D01*
X5210658Y-6348698D02*
X5220182Y-6339174D01*
X5220182Y-6339174D02*
X5239230Y-6329650D01*
X5239230Y-6329650D02*
X5267801Y-6329650D01*
X5267801Y-6329650D02*
X5286849Y-6339174D01*
X5286849Y-6339174D02*
X5296373Y-6358222D01*
X5296373Y-6358222D02*
X5296373Y-6462984D01*
X5420182Y-6462984D02*
X5401134Y-6453460D01*
X5401134Y-6453460D02*
X5391611Y-6443936D01*
X5391611Y-6443936D02*
X5382087Y-6424888D01*
X5382087Y-6424888D02*
X5382087Y-6367746D01*
X5382087Y-6367746D02*
X5391611Y-6348698D01*
X5391611Y-6348698D02*
X5401134Y-6339174D01*
X5401134Y-6339174D02*
X5420182Y-6329650D01*
X5420182Y-6329650D02*
X5448754Y-6329650D01*
X5448754Y-6329650D02*
X5467801Y-6339174D01*
X5467801Y-6339174D02*
X5477325Y-6348698D01*
X5477325Y-6348698D02*
X5486849Y-6367746D01*
X5486849Y-6367746D02*
X5486849Y-6424888D01*
X5486849Y-6424888D02*
X5477325Y-6443936D01*
X5477325Y-6443936D02*
X5467801Y-6453460D01*
X5467801Y-6453460D02*
X5448754Y-6462984D01*
X5448754Y-6462984D02*
X5420182Y-6462984D01*
X5543992Y-6329650D02*
X5620182Y-6329650D01*
X5572563Y-6262984D02*
X5572563Y-6434412D01*
X5572563Y-6434412D02*
X5582087Y-6453460D01*
X5582087Y-6453460D02*
X5601134Y-6462984D01*
X5601134Y-6462984D02*
X5620182Y-6462984D01*
X5839230Y-6329650D02*
X5839230Y-6529650D01*
X5839230Y-6339174D02*
X5858277Y-6329650D01*
X5858277Y-6329650D02*
X5896373Y-6329650D01*
X5896373Y-6329650D02*
X5915420Y-6339174D01*
X5915420Y-6339174D02*
X5924944Y-6348698D01*
X5924944Y-6348698D02*
X5934468Y-6367746D01*
X5934468Y-6367746D02*
X5934468Y-6424888D01*
X5934468Y-6424888D02*
X5924944Y-6443936D01*
X5924944Y-6443936D02*
X5915420Y-6453460D01*
X5915420Y-6453460D02*
X5896373Y-6462984D01*
X5896373Y-6462984D02*
X5858277Y-6462984D01*
X5858277Y-6462984D02*
X5839230Y-6453460D01*
X6048753Y-6462984D02*
X6029706Y-6453460D01*
X6029706Y-6453460D02*
X6020182Y-6434412D01*
X6020182Y-6434412D02*
X6020182Y-6262984D01*
X6210658Y-6462984D02*
X6210658Y-6358222D01*
X6210658Y-6358222D02*
X6201134Y-6339174D01*
X6201134Y-6339174D02*
X6182087Y-6329650D01*
X6182087Y-6329650D02*
X6143992Y-6329650D01*
X6143992Y-6329650D02*
X6124944Y-6339174D01*
X6210658Y-6453460D02*
X6191611Y-6462984D01*
X6191611Y-6462984D02*
X6143992Y-6462984D01*
X6143992Y-6462984D02*
X6124944Y-6453460D01*
X6124944Y-6453460D02*
X6115420Y-6434412D01*
X6115420Y-6434412D02*
X6115420Y-6415365D01*
X6115420Y-6415365D02*
X6124944Y-6396317D01*
X6124944Y-6396317D02*
X6143992Y-6386793D01*
X6143992Y-6386793D02*
X6191611Y-6386793D01*
X6191611Y-6386793D02*
X6210658Y-6377269D01*
X6277325Y-6329650D02*
X6353515Y-6329650D01*
X6305896Y-6262984D02*
X6305896Y-6434412D01*
X6305896Y-6434412D02*
X6315420Y-6453460D01*
X6315420Y-6453460D02*
X6334468Y-6462984D01*
X6334468Y-6462984D02*
X6353515Y-6462984D01*
X6496373Y-6453460D02*
X6477325Y-6462984D01*
X6477325Y-6462984D02*
X6439230Y-6462984D01*
X6439230Y-6462984D02*
X6420182Y-6453460D01*
X6420182Y-6453460D02*
X6410658Y-6434412D01*
X6410658Y-6434412D02*
X6410658Y-6358222D01*
X6410658Y-6358222D02*
X6420182Y-6339174D01*
X6420182Y-6339174D02*
X6439230Y-6329650D01*
X6439230Y-6329650D02*
X6477325Y-6329650D01*
X6477325Y-6329650D02*
X6496373Y-6339174D01*
X6496373Y-6339174D02*
X6505896Y-6358222D01*
X6505896Y-6358222D02*
X6505896Y-6377269D01*
X6505896Y-6377269D02*
X6410658Y-6396317D01*
X6677325Y-6462984D02*
X6677325Y-6262984D01*
X6677325Y-6453460D02*
X6658277Y-6462984D01*
X6658277Y-6462984D02*
X6620182Y-6462984D01*
X6620182Y-6462984D02*
X6601134Y-6453460D01*
X6601134Y-6453460D02*
X6591611Y-6443936D01*
X6591611Y-6443936D02*
X6582087Y-6424888D01*
X6582087Y-6424888D02*
X6582087Y-6367746D01*
X6582087Y-6367746D02*
X6591611Y-6348698D01*
X6591611Y-6348698D02*
X6601134Y-6339174D01*
X6601134Y-6339174D02*
X6620182Y-6329650D01*
X6620182Y-6329650D02*
X6658277Y-6329650D01*
X6658277Y-6329650D02*
X6677325Y-6339174D01*
X6753515Y-6539174D02*
X6763039Y-6529650D01*
X6763039Y-6529650D02*
X6782087Y-6501079D01*
X6782087Y-6501079D02*
X6791611Y-6482031D01*
X6791611Y-6482031D02*
X6801134Y-6453460D01*
X6801134Y-6453460D02*
X6810658Y-6405841D01*
X6810658Y-6405841D02*
X6810658Y-6367746D01*
X6810658Y-6367746D02*
X6801134Y-6320127D01*
X6801134Y-6320127D02*
X6791611Y-6291555D01*
X6791611Y-6291555D02*
X6782087Y-6272508D01*
X6782087Y-6272508D02*
X6763039Y-6243936D01*
X6763039Y-6243936D02*
X6753515Y-6234412D01*
M02*
