%TF.GenerationSoftware,KiCad,Pcbnew,9.0.9-9.0.9~ubuntu24.04.1*%
%TF.CreationDate,2026-10-02T14:06:50+00:00*%
%TF.ProjectId,PinaBio-v2.0-Cursor,50696e61-4269-46f2-9d76-322e302d4375,SPEC-0.9*%
%TF.SameCoordinates,Original*%
%TF.FileFunction,Drillmap*%
%TF.FilePolarity,Positive*%
%FSLAX45Y45*%
G04 Gerber Fmt 4.5, Leading zero omitted, Abs format (unit mm)*
G04 Created by KiCad (PCBNEW 9.0.9-9.0.9~ubuntu24.04.1) date 2026-10-02 14:06:50*
%MOMM*%
%LPD*%
G01*
G04 APERTURE LIST*
%ADD10C,0.050000*%
%ADD11C,0.200000*%
%ADD12C,0.100000*%
G04 APERTURE END LIST*
D10*
X0Y-39500D02*
X8099000Y-39500D01*
X0Y-5729000D02*
X0Y-39500D01*
X8099000Y-39500D02*
X8099000Y-5729000D01*
X8099000Y-5729000D02*
X0Y-5729000D01*
D11*
D12*
X417500Y-1257000D02*
X442500Y-1282000D01*
X442500Y-1257000D02*
X417500Y-1282000D01*
X417500Y-2057000D02*
X442500Y-2082000D01*
X442500Y-2057000D02*
X417500Y-2082000D01*
X417500Y-3657000D02*
X442500Y-3682000D01*
X442500Y-3657000D02*
X417500Y-3682000D01*
X417500Y-4457000D02*
X442500Y-4482000D01*
X442500Y-4457000D02*
X417500Y-4482000D01*
X417500Y-5257000D02*
X442500Y-5282000D01*
X442500Y-5257000D02*
X417500Y-5282000D01*
X533038Y-1431705D02*
X558038Y-1456705D01*
X558038Y-1431705D02*
X533038Y-1456705D01*
X661217Y-2003583D02*
X686217Y-2028583D01*
X686217Y-2003583D02*
X661217Y-2028583D01*
X717747Y-2819435D02*
X742747Y-2844435D01*
X742747Y-2819435D02*
X717747Y-2844435D01*
X802500Y-1157000D02*
X827500Y-1182000D01*
X827500Y-1157000D02*
X802500Y-1182000D01*
X1037500Y-2267500D02*
X1062500Y-2292500D01*
X1062500Y-2267500D02*
X1037500Y-2292500D01*
X1037500Y-2452500D02*
X1062500Y-2477500D01*
X1062500Y-2452500D02*
X1037500Y-2477500D01*
X1047747Y-2034565D02*
X1072747Y-2059565D01*
X1072747Y-2034565D02*
X1047747Y-2059565D01*
X1047747Y-2819435D02*
X1072747Y-2844435D01*
X1072747Y-2819435D02*
X1047747Y-2844435D01*
X1048739Y-1278193D02*
X1073739Y-1303193D01*
X1073739Y-1278193D02*
X1048739Y-1303193D01*
X1090340Y-243950D02*
X1115340Y-268951D01*
X1115340Y-243950D02*
X1090340Y-268951D01*
X1124967Y-1071546D02*
X1149967Y-1096546D01*
X1149967Y-1071546D02*
X1124967Y-1096546D01*
X1217500Y-2057000D02*
X1242500Y-2082000D01*
X1242500Y-2057000D02*
X1217500Y-2082000D01*
X1217500Y-3657000D02*
X1242500Y-3682000D01*
X1242500Y-3657000D02*
X1217500Y-3682000D01*
X1217500Y-4457000D02*
X1242500Y-4482000D01*
X1242500Y-4457000D02*
X1217500Y-4482000D01*
X1217500Y-5257000D02*
X1242500Y-5282000D01*
X1242500Y-5257000D02*
X1217500Y-5282000D01*
X1219948Y-556154D02*
X1244948Y-581154D01*
X1244948Y-556154D02*
X1219948Y-581154D01*
X1227500Y-2737500D02*
X1252500Y-2762500D01*
X1252500Y-2737500D02*
X1227500Y-2762500D01*
X1297000Y-2939333D02*
X1322000Y-2964333D01*
X1322000Y-2939333D02*
X1297000Y-2964333D01*
X1309592Y-1308257D02*
X1334592Y-1333257D01*
X1334592Y-1308257D02*
X1309592Y-1333257D01*
X1367500Y-2172500D02*
X1392500Y-2197500D01*
X1392500Y-2172500D02*
X1367500Y-2197500D01*
X1377500Y-2457000D02*
X1402500Y-2482000D01*
X1402500Y-2457000D02*
X1377500Y-2482000D01*
X1395340Y-243950D02*
X1420340Y-268951D01*
X1420340Y-243950D02*
X1395340Y-268951D01*
X1402941Y-877691D02*
X1427941Y-902691D01*
X1427941Y-877691D02*
X1402941Y-902691D01*
X1417500Y-317000D02*
X1442500Y-342000D01*
X1442500Y-317000D02*
X1417500Y-342000D01*
X1417500Y-2117500D02*
X1442500Y-2142500D01*
X1442500Y-2117500D02*
X1417500Y-2142500D01*
X1437000Y-1664667D02*
X1462000Y-1689667D01*
X1462000Y-1664667D02*
X1437000Y-1689667D01*
X1452500Y-377000D02*
X1477500Y-402000D01*
X1477500Y-377000D02*
X1452500Y-402000D01*
X1477500Y-1997000D02*
X1502500Y-2022000D01*
X1502500Y-1997000D02*
X1477500Y-2022000D01*
X1482000Y-677000D02*
X1507000Y-702000D01*
X1507000Y-677000D02*
X1482000Y-702000D01*
X1492500Y-2352500D02*
X1517500Y-2377500D01*
X1517500Y-2352500D02*
X1492500Y-2377500D01*
X1502500Y-487500D02*
X1527500Y-512500D01*
X1527500Y-487500D02*
X1502500Y-512500D01*
X1517500Y-2507500D02*
X1542500Y-2532500D01*
X1542500Y-2507500D02*
X1517500Y-2532500D01*
X1535006Y-2070179D02*
X1560006Y-2095179D01*
X1560006Y-2070179D02*
X1535006Y-2095179D01*
X1558324Y-2869296D02*
X1583324Y-2894296D01*
X1583324Y-2869296D02*
X1558324Y-2894296D01*
X1572500Y-2762500D02*
X1597500Y-2787500D01*
X1597500Y-2762500D02*
X1572500Y-2787500D01*
X1597500Y-1862500D02*
X1622500Y-1887500D01*
X1622500Y-1862500D02*
X1597500Y-1887500D01*
X1597500Y-2012500D02*
X1622500Y-2037500D01*
X1622500Y-2012500D02*
X1597500Y-2037500D01*
X1628476Y-2699550D02*
X1653476Y-2724550D01*
X1653476Y-2699550D02*
X1628476Y-2724550D01*
X1632500Y-2507500D02*
X1657500Y-2532500D01*
X1657500Y-2507500D02*
X1632500Y-2532500D01*
X1663257Y-954591D02*
X1688257Y-979591D01*
X1688257Y-954591D02*
X1663257Y-979591D01*
X1667500Y-1372500D02*
X1692500Y-1397500D01*
X1692500Y-1372500D02*
X1667500Y-1397500D01*
X1672500Y-2547500D02*
X1697500Y-2572500D01*
X1697500Y-2547500D02*
X1672500Y-2572500D01*
X1689722Y-2106546D02*
X1714722Y-2131546D01*
X1714722Y-2106546D02*
X1689722Y-2131546D01*
X1697500Y-2457000D02*
X1722500Y-2482000D01*
X1722500Y-2457000D02*
X1697500Y-2482000D01*
X1702500Y-1492500D02*
X1727500Y-1517500D01*
X1727500Y-1492500D02*
X1702500Y-1517500D01*
X1724500Y-247000D02*
X1749500Y-272000D01*
X1749500Y-247000D02*
X1724500Y-272000D01*
X1726995Y-1039724D02*
X1751995Y-1064724D01*
X1751995Y-1039724D02*
X1726995Y-1064724D01*
X1729869Y-564500D02*
X1754869Y-589500D01*
X1754869Y-564500D02*
X1729869Y-589500D01*
X1732500Y-2287000D02*
X1757500Y-2312000D01*
X1757500Y-2287000D02*
X1732500Y-2312000D01*
X1762500Y-2887500D02*
X1787500Y-2912500D01*
X1787500Y-2887500D02*
X1762500Y-2912500D01*
X1780793Y-3671377D02*
X1805793Y-3696377D01*
X1805793Y-3671377D02*
X1780793Y-3696377D01*
X1802500Y-2297500D02*
X1827500Y-2322500D01*
X1827500Y-2297500D02*
X1802500Y-2322500D01*
X1820337Y-1841549D02*
X1845337Y-1866549D01*
X1845337Y-1841549D02*
X1820337Y-1866549D01*
X1822500Y-1602500D02*
X1847500Y-1627500D01*
X1847500Y-1602500D02*
X1822500Y-1627500D01*
X1873250Y-4167000D02*
X1898250Y-4192000D01*
X1898250Y-4167000D02*
X1873250Y-4192000D01*
X1902496Y-1249695D02*
X1927496Y-1274695D01*
X1927496Y-1249695D02*
X1902496Y-1274695D01*
X1924052Y-417846D02*
X1949052Y-442846D01*
X1949052Y-417846D02*
X1924052Y-442846D01*
X1952500Y-2567500D02*
X1977500Y-2592500D01*
X1977500Y-2567500D02*
X1952500Y-2592500D01*
X1983368Y-3992590D02*
X2008368Y-4017590D01*
X2008368Y-3992590D02*
X1983368Y-4017590D01*
X1983368Y-4341410D02*
X2008368Y-4366410D01*
X2008368Y-4341410D02*
X1983368Y-4366410D01*
X2002000Y-707000D02*
X2027000Y-732000D01*
X2027000Y-707000D02*
X2002000Y-732000D01*
X2017500Y-457000D02*
X2042500Y-482000D01*
X2042500Y-457000D02*
X2017500Y-482000D01*
X2017500Y-3657000D02*
X2042500Y-3682000D01*
X2042500Y-3657000D02*
X2017500Y-3682000D01*
X2017500Y-4457000D02*
X2042500Y-4482000D01*
X2042500Y-4457000D02*
X2017500Y-4482000D01*
X2110793Y-3951377D02*
X2135793Y-3976377D01*
X2135793Y-3951377D02*
X2110793Y-3976377D01*
X2117500Y-1677000D02*
X2142500Y-1702000D01*
X2142500Y-1677000D02*
X2117500Y-1702000D01*
X2131111Y-1490567D02*
X2156111Y-1515567D01*
X2156111Y-1490567D02*
X2131111Y-1515567D01*
X2150425Y-1871468D02*
X2175425Y-1896468D01*
X2175425Y-1871468D02*
X2150425Y-1896468D01*
X2184106Y-360966D02*
X2209106Y-385966D01*
X2209106Y-360966D02*
X2184106Y-385966D01*
X2212100Y-913987D02*
X2237100Y-938987D01*
X2237100Y-913987D02*
X2212100Y-938987D01*
X2240173Y-2905610D02*
X2265173Y-2930610D01*
X2265173Y-2905610D02*
X2240173Y-2930610D01*
X2277500Y-917000D02*
X2302500Y-942000D01*
X2302500Y-917000D02*
X2277500Y-942000D01*
X2297500Y-2077000D02*
X2322500Y-2102000D01*
X2322500Y-2077000D02*
X2297500Y-2102000D01*
X2297500Y-2937000D02*
X2322500Y-2962000D01*
X2322500Y-2937000D02*
X2297500Y-2962000D01*
X2297500Y-3097000D02*
X2322500Y-3122000D01*
X2322500Y-3097000D02*
X2297500Y-3122000D01*
X2317500Y-1877000D02*
X2342500Y-1902000D01*
X2342500Y-1877000D02*
X2317500Y-1902000D01*
X2352100Y-553987D02*
X2377100Y-578987D01*
X2377100Y-553987D02*
X2352100Y-578987D01*
X2357500Y-3420923D02*
X2382500Y-3445923D01*
X2382500Y-3420923D02*
X2357500Y-3445923D01*
X2357832Y-1001918D02*
X2382832Y-1026918D01*
X2382832Y-1001918D02*
X2357832Y-1026918D01*
X2357832Y-1306918D02*
X2382832Y-1331918D01*
X2382832Y-1306918D02*
X2357832Y-1331918D01*
X2363331Y-4221987D02*
X2388331Y-4246987D01*
X2388331Y-4221987D02*
X2363331Y-4246987D01*
X2379433Y-3673487D02*
X2404433Y-3698487D01*
X2404433Y-3673487D02*
X2379433Y-3698487D01*
X2397500Y-1817000D02*
X2422500Y-1842000D01*
X2422500Y-1817000D02*
X2397500Y-1842000D01*
X2410050Y-2079675D02*
X2435050Y-2104675D01*
X2435050Y-2079675D02*
X2410050Y-2104675D01*
X2413269Y-573445D02*
X2438269Y-598445D01*
X2438269Y-573445D02*
X2413269Y-598445D01*
X2431463Y-935876D02*
X2456463Y-960876D01*
X2456463Y-935876D02*
X2431463Y-960876D01*
X2457500Y-2577000D02*
X2482500Y-2602000D01*
X2482500Y-2577000D02*
X2457500Y-2602000D01*
X2484515Y-2304966D02*
X2509515Y-2329966D01*
X2509515Y-2304966D02*
X2484515Y-2329966D01*
X2489106Y-540966D02*
X2514106Y-565966D01*
X2514106Y-540966D02*
X2489106Y-565966D01*
X2503269Y-898445D02*
X2528269Y-923445D01*
X2528269Y-898445D02*
X2503269Y-923445D01*
X2511111Y-2650567D02*
X2536111Y-2675567D01*
X2536111Y-2650567D02*
X2511111Y-2675567D01*
X2511111Y-3003432D02*
X2536111Y-3028432D01*
X2536111Y-3003432D02*
X2511111Y-3028432D01*
X2511163Y-1627481D02*
X2536163Y-1652481D01*
X2536163Y-1627481D02*
X2511163Y-1652481D01*
X2526854Y-122429D02*
X2551854Y-147429D01*
X2551854Y-122429D02*
X2526854Y-147429D01*
X2527500Y-1977500D02*
X2552500Y-2002500D01*
X2552500Y-1977500D02*
X2527500Y-2002500D01*
X2552000Y-1294500D02*
X2577000Y-1319500D01*
X2577000Y-1294500D02*
X2552000Y-1319500D01*
X2563946Y-460138D02*
X2588946Y-485138D01*
X2588946Y-460138D02*
X2563946Y-485138D01*
X2564870Y-901526D02*
X2589870Y-926526D01*
X2589870Y-901526D02*
X2564870Y-926526D01*
X2597500Y-1617000D02*
X2622500Y-1642000D01*
X2622500Y-1617000D02*
X2597500Y-1642000D01*
X2597500Y-2317000D02*
X2622500Y-2342000D01*
X2622500Y-2317000D02*
X2597500Y-2342000D01*
X2643331Y-3891987D02*
X2668331Y-3916987D01*
X2668331Y-3891987D02*
X2643331Y-3916987D01*
X2646163Y-1962481D02*
X2671163Y-1987481D01*
X2671163Y-1962481D02*
X2646163Y-1987481D01*
X2667500Y-2277500D02*
X2692500Y-2302500D01*
X2692500Y-2277500D02*
X2667500Y-2302500D01*
X2711463Y-1230876D02*
X2736463Y-1255876D01*
X2736463Y-1230876D02*
X2711463Y-1255876D01*
X2714515Y-1999966D02*
X2739515Y-2024966D01*
X2739515Y-1999966D02*
X2714515Y-2024966D01*
X2743946Y-155138D02*
X2768946Y-180138D01*
X2768946Y-155138D02*
X2743946Y-180138D01*
X2785750Y-3717000D02*
X2810750Y-3742000D01*
X2810750Y-3717000D02*
X2785750Y-3742000D01*
X2785991Y-3060823D02*
X2810991Y-3085823D01*
X2810991Y-3060823D02*
X2785991Y-3085823D01*
X2817500Y-1077000D02*
X2842500Y-1102000D01*
X2842500Y-1077000D02*
X2817500Y-1102000D01*
X2817500Y-4457000D02*
X2842500Y-4482000D01*
X2842500Y-4457000D02*
X2817500Y-4482000D01*
X2837500Y-1357000D02*
X2862500Y-1382000D01*
X2862500Y-1357000D02*
X2837500Y-1382000D01*
X2837500Y-2417000D02*
X2862500Y-2442000D01*
X2862500Y-2417000D02*
X2837500Y-2442000D01*
X2850050Y-3329961D02*
X2875050Y-3354961D01*
X2875050Y-3329961D02*
X2850050Y-3354961D01*
X2857500Y-1122000D02*
X2882500Y-1147000D01*
X2882500Y-1122000D02*
X2857500Y-1147000D01*
X2873507Y-216497D02*
X2898507Y-241497D01*
X2898507Y-216497D02*
X2873507Y-241497D01*
X2873507Y-1517502D02*
X2898507Y-1542502D01*
X2898507Y-1517502D02*
X2873507Y-1542502D01*
X2886389Y-313875D02*
X2911389Y-338875D01*
X2911389Y-313875D02*
X2886389Y-338875D01*
X2895154Y-565792D02*
X2920154Y-590792D01*
X2920154Y-565792D02*
X2895154Y-590792D01*
X2917500Y-2057000D02*
X2942500Y-2082000D01*
X2942500Y-2057000D02*
X2917500Y-2082000D01*
X2922729Y-964054D02*
X2947729Y-989054D01*
X2947729Y-964054D02*
X2922729Y-989054D01*
X2923888Y-1439500D02*
X2948888Y-1464500D01*
X2948888Y-1439500D02*
X2923888Y-1464500D01*
X2924825Y-673400D02*
X2949825Y-698400D01*
X2949825Y-673400D02*
X2924825Y-698400D01*
X2924825Y-1060600D02*
X2949825Y-1085600D01*
X2949825Y-1060600D02*
X2924825Y-1085600D01*
X2936521Y-390102D02*
X2961521Y-415102D01*
X2961521Y-390102D02*
X2936521Y-415102D01*
X2938811Y-1289863D02*
X2963811Y-1314863D01*
X2963811Y-1289863D02*
X2938811Y-1314863D01*
X2939520Y-260952D02*
X2964520Y-285952D01*
X2964520Y-260952D02*
X2939520Y-285952D01*
X2977500Y-1792500D02*
X3002500Y-1817500D01*
X3002500Y-1792500D02*
X2977500Y-1817500D01*
X3072665Y-3439974D02*
X3097665Y-3464974D01*
X3097665Y-3439974D02*
X3072665Y-3464974D01*
X3072665Y-3744974D02*
X3097665Y-3769974D01*
X3097665Y-3744974D02*
X3072665Y-3769974D01*
X3077500Y-2177000D02*
X3102500Y-2202000D01*
X3102500Y-2177000D02*
X3077500Y-2202000D01*
X3117500Y-1767000D02*
X3142500Y-1792000D01*
X3142500Y-1767000D02*
X3117500Y-1792000D01*
X3117500Y-2057000D02*
X3142500Y-2082000D01*
X3142500Y-2057000D02*
X3117500Y-2082000D01*
X3177500Y-1717000D02*
X3202500Y-1742000D01*
X3202500Y-1717000D02*
X3177500Y-1742000D01*
X3177500Y-2177000D02*
X3202500Y-2202000D01*
X3202500Y-2177000D02*
X3177500Y-2202000D01*
X3185750Y-2674500D02*
X3210750Y-2699500D01*
X3210750Y-2674500D02*
X3185750Y-2699500D01*
X3192589Y-3199902D02*
X3217589Y-3224902D01*
X3217589Y-3199902D02*
X3192589Y-3224902D01*
X3277500Y-1477000D02*
X3302500Y-1502000D01*
X3302500Y-1477000D02*
X3277500Y-1502000D01*
X3277500Y-1977000D02*
X3302500Y-2002000D01*
X3302500Y-1977000D02*
X3277500Y-2002000D01*
X3314301Y-3049865D02*
X3339301Y-3074865D01*
X3339301Y-3049865D02*
X3314301Y-3074865D01*
X3412500Y-2957000D02*
X3437500Y-2982000D01*
X3437500Y-2957000D02*
X3412500Y-2982000D01*
X3414920Y-2690206D02*
X3439920Y-2715206D01*
X3439920Y-2690206D02*
X3414920Y-2715206D01*
X3457000Y-867000D02*
X3482000Y-892000D01*
X3482000Y-867000D02*
X3457000Y-892000D01*
X3457500Y-2517000D02*
X3482500Y-2542000D01*
X3482500Y-2517000D02*
X3457500Y-2542000D01*
X3482000Y-3032500D02*
X3507000Y-3057500D01*
X3507000Y-3032500D02*
X3482000Y-3057500D01*
X3517500Y-3277000D02*
X3542500Y-3302000D01*
X3542500Y-3277000D02*
X3517500Y-3302000D01*
X3571142Y-588863D02*
X3596142Y-613863D01*
X3596142Y-588863D02*
X3571142Y-613863D01*
X3571142Y-1145137D02*
X3596142Y-1170137D01*
X3596142Y-1145137D02*
X3571142Y-1170137D01*
X3577500Y-2697000D02*
X3602500Y-2722000D01*
X3602500Y-2697000D02*
X3577500Y-2722000D01*
X3617500Y-457000D02*
X3642500Y-482000D01*
X3642500Y-457000D02*
X3617500Y-482000D01*
X3617500Y-3657000D02*
X3642500Y-3682000D01*
X3642500Y-3657000D02*
X3617500Y-3682000D01*
X3617500Y-4457000D02*
X3642500Y-4482000D01*
X3642500Y-4457000D02*
X3617500Y-4482000D01*
X3617500Y-5257000D02*
X3642500Y-5282000D01*
X3642500Y-5257000D02*
X3617500Y-5282000D01*
X3682000Y-2945750D02*
X3707000Y-2970750D01*
X3707000Y-2945750D02*
X3682000Y-2970750D01*
X3722000Y-602000D02*
X3747000Y-627000D01*
X3747000Y-602000D02*
X3722000Y-627000D01*
X3722000Y-1132000D02*
X3747000Y-1157000D01*
X3747000Y-1132000D02*
X3722000Y-1157000D01*
X3819054Y-1666271D02*
X3844054Y-1691271D01*
X3844054Y-1666271D02*
X3819054Y-1691271D01*
X3872858Y-1145137D02*
X3897858Y-1170137D01*
X3897858Y-1145137D02*
X3872858Y-1170137D01*
X3897500Y-3277000D02*
X3922500Y-3302000D01*
X3922500Y-3277000D02*
X3897500Y-3302000D01*
X3917500Y-3037000D02*
X3942500Y-3062000D01*
X3942500Y-3037000D02*
X3917500Y-3062000D01*
X3967873Y-2655733D02*
X3992873Y-2680733D01*
X3992873Y-2655733D02*
X3967873Y-2680733D01*
X3987000Y-1057000D02*
X4012000Y-1082000D01*
X4012000Y-1057000D02*
X3987000Y-1082000D01*
X3992000Y-957000D02*
X4017000Y-982000D01*
X4017000Y-957000D02*
X3992000Y-982000D01*
X4000137Y-716142D02*
X4025137Y-741142D01*
X4025137Y-716142D02*
X4000137Y-741142D01*
X4003481Y-2972000D02*
X4028481Y-2997000D01*
X4028481Y-2972000D02*
X4003481Y-2997000D01*
X4072750Y-3047241D02*
X4097750Y-3072241D01*
X4097750Y-3047241D02*
X4072750Y-3072241D01*
X4110585Y-2139089D02*
X4135585Y-2164089D01*
X4135585Y-2139089D02*
X4110585Y-2164089D01*
X4337500Y-1237000D02*
X4362500Y-1262000D01*
X4362500Y-1237000D02*
X4337500Y-1262000D01*
X4417500Y-2057000D02*
X4442500Y-2082000D01*
X4442500Y-2057000D02*
X4417500Y-2082000D01*
X4417500Y-2857000D02*
X4442500Y-2882000D01*
X4442500Y-2857000D02*
X4417500Y-2882000D01*
X4417500Y-3657000D02*
X4442500Y-3682000D01*
X4442500Y-3657000D02*
X4417500Y-3682000D01*
X4417500Y-4457000D02*
X4442500Y-4482000D01*
X4442500Y-4457000D02*
X4417500Y-4482000D01*
X4439678Y-1648317D02*
X4464678Y-1673317D01*
X4464678Y-1648317D02*
X4439678Y-1673317D01*
X4504626Y-536895D02*
X4529626Y-561895D01*
X4529626Y-536895D02*
X4504626Y-561895D01*
X4505189Y-444137D02*
X4530189Y-469137D01*
X4530189Y-444137D02*
X4505189Y-469137D01*
X4507104Y-236717D02*
X4532104Y-261717D01*
X4532104Y-236717D02*
X4507104Y-261717D01*
X4852000Y-2079500D02*
X4877000Y-2104500D01*
X4877000Y-2079500D02*
X4852000Y-2104500D01*
X5086502Y-208647D02*
X5111502Y-233647D01*
X5111502Y-208647D02*
X5086502Y-233647D01*
X5089131Y-2056373D02*
X5114131Y-2081373D01*
X5114131Y-2056373D02*
X5089131Y-2081373D01*
X5111867Y-1469242D02*
X5136867Y-1494242D01*
X5136867Y-1469242D02*
X5111867Y-1494242D01*
X5111867Y-2279242D02*
X5136867Y-2304242D01*
X5136867Y-2279242D02*
X5111867Y-2304242D01*
X5143451Y-1318570D02*
X5168451Y-1343570D01*
X5168451Y-1318570D02*
X5143451Y-1343570D01*
X5143451Y-2128570D02*
X5168451Y-2153570D01*
X5168451Y-2128570D02*
X5143451Y-2153570D01*
X5146535Y-1413983D02*
X5171535Y-1438983D01*
X5171535Y-1413983D02*
X5146535Y-1438983D01*
X5146535Y-2223983D02*
X5171535Y-2248983D01*
X5171535Y-2223983D02*
X5146535Y-2248983D01*
X5151466Y-2007739D02*
X5176466Y-2032739D01*
X5176466Y-2007739D02*
X5151466Y-2032739D01*
X5258948Y-1110718D02*
X5283948Y-1135718D01*
X5283948Y-1110718D02*
X5258948Y-1135718D01*
X5264000Y-457000D02*
X5289000Y-482000D01*
X5289000Y-457000D02*
X5264000Y-482000D01*
X5264000Y-2857000D02*
X5289000Y-2882000D01*
X5289000Y-2857000D02*
X5264000Y-2882000D01*
X5264000Y-3657000D02*
X5289000Y-3682000D01*
X5289000Y-3657000D02*
X5264000Y-3682000D01*
X5264000Y-4457000D02*
X5289000Y-4482000D01*
X5289000Y-4457000D02*
X5264000Y-4482000D01*
X5318675Y-1054710D02*
X5343675Y-1079710D01*
X5343675Y-1054710D02*
X5318675Y-1079710D01*
X5377500Y-4937000D02*
X5402500Y-4962000D01*
X5402500Y-4937000D02*
X5377500Y-4962000D01*
X5397500Y-2097000D02*
X5422500Y-2122000D01*
X5422500Y-2097000D02*
X5397500Y-2122000D01*
X5497500Y-2377000D02*
X5522500Y-2402000D01*
X5522500Y-2377000D02*
X5497500Y-2402000D01*
X5537500Y-1742000D02*
X5562500Y-1767000D01*
X5562500Y-1742000D02*
X5537500Y-1767000D01*
X5734857Y-1742539D02*
X5759857Y-1767539D01*
X5759857Y-1742539D02*
X5734857Y-1767539D01*
X5737500Y-1497000D02*
X5762500Y-1522000D01*
X5762500Y-1497000D02*
X5737500Y-1522000D01*
X5737500Y-2137000D02*
X5762500Y-2162000D01*
X5762500Y-2137000D02*
X5737500Y-2162000D01*
X5797500Y-1717000D02*
X5822500Y-1742000D01*
X5822500Y-1717000D02*
X5797500Y-1742000D01*
X5825944Y-1036345D02*
X5850944Y-1061345D01*
X5850944Y-1036345D02*
X5825944Y-1061345D01*
X5837500Y-1917000D02*
X5862500Y-1942000D01*
X5862500Y-1917000D02*
X5837500Y-1942000D01*
X5850131Y-1852670D02*
X5875131Y-1877670D01*
X5875131Y-1852670D02*
X5850131Y-1877670D01*
X5878452Y-557954D02*
X5903452Y-582954D01*
X5903452Y-557954D02*
X5878452Y-582954D01*
X5977500Y-1037000D02*
X6002500Y-1062000D01*
X6002500Y-1037000D02*
X5977500Y-1062000D01*
X5978250Y-1254500D02*
X6003250Y-1279500D01*
X6003250Y-1254500D02*
X5978250Y-1279500D01*
X5989809Y-807457D02*
X6014809Y-832457D01*
X6014809Y-807457D02*
X5989809Y-832457D01*
X5992388Y-1369270D02*
X6017388Y-1394270D01*
X6017388Y-1369270D02*
X5992388Y-1394270D01*
X5997867Y-2417013D02*
X6022867Y-2442013D01*
X6022867Y-2417013D02*
X5997867Y-2442013D01*
X6000549Y-2325430D02*
X6025549Y-2350430D01*
X6025549Y-2325430D02*
X6000549Y-2350430D01*
X6064000Y-457000D02*
X6089000Y-482000D01*
X6089000Y-457000D02*
X6064000Y-482000D01*
X6064000Y-3657000D02*
X6089000Y-3682000D01*
X6089000Y-3657000D02*
X6064000Y-3682000D01*
X6064000Y-4457000D02*
X6089000Y-4482000D01*
X6089000Y-4457000D02*
X6064000Y-4482000D01*
X6117500Y-1097000D02*
X6142500Y-1122000D01*
X6142500Y-1097000D02*
X6117500Y-1122000D01*
X6120940Y-1639783D02*
X6145940Y-1664783D01*
X6145940Y-1639783D02*
X6120940Y-1664783D01*
X6120940Y-2744783D02*
X6145940Y-2769783D01*
X6145940Y-2744783D02*
X6120940Y-2769783D01*
X6153946Y-2950052D02*
X6178946Y-2975052D01*
X6178946Y-2950052D02*
X6153946Y-2975052D01*
X6157500Y-1157000D02*
X6182500Y-1182000D01*
X6182500Y-1157000D02*
X6157500Y-1182000D01*
X6165940Y-2084783D02*
X6190940Y-2109783D01*
X6190940Y-2084783D02*
X6165940Y-2109783D01*
X6183452Y-737954D02*
X6208452Y-762954D01*
X6208452Y-737954D02*
X6183452Y-762954D01*
X6284809Y-707457D02*
X6309809Y-732457D01*
X6309809Y-707457D02*
X6284809Y-732457D01*
X6303723Y-2533436D02*
X6328723Y-2558436D01*
X6328723Y-2533436D02*
X6303723Y-2558436D01*
X6346412Y-1974983D02*
X6371412Y-1999983D01*
X6371412Y-1974983D02*
X6346412Y-1999983D01*
X6379500Y-1239500D02*
X6404500Y-1264500D01*
X6404500Y-1239500D02*
X6379500Y-1264500D01*
X6400940Y-2419783D02*
X6425940Y-2444783D01*
X6425940Y-2419783D02*
X6400940Y-2444783D01*
X6441614Y-1875095D02*
X6466614Y-1900095D01*
X6466614Y-1875095D02*
X6441614Y-1900095D01*
X6445378Y-2033431D02*
X6470378Y-2058431D01*
X6470378Y-2033431D02*
X6445378Y-2058431D01*
X6473723Y-2533436D02*
X6498723Y-2558436D01*
X6498723Y-2533436D02*
X6473723Y-2558436D01*
X6594104Y-2291216D02*
X6619104Y-2316216D01*
X6619104Y-2291216D02*
X6594104Y-2316216D01*
X6623723Y-2443436D02*
X6648723Y-2468436D01*
X6648723Y-2443436D02*
X6623723Y-2468436D01*
X6688703Y-1010487D02*
X6713703Y-1035487D01*
X6713703Y-1010487D02*
X6688703Y-1035487D01*
X6697500Y-2517000D02*
X6722500Y-2542000D01*
X6722500Y-2517000D02*
X6697500Y-2542000D01*
X6732500Y-1457000D02*
X6757500Y-1482000D01*
X6757500Y-1457000D02*
X6732500Y-1482000D01*
X6741423Y-1737000D02*
X6766423Y-1762000D01*
X6766423Y-1737000D02*
X6741423Y-1762000D01*
X6797500Y-1777000D02*
X6822500Y-1802000D01*
X6822500Y-1777000D02*
X6797500Y-1802000D01*
X6845131Y-1304500D02*
X6870131Y-1329500D01*
X6870131Y-1304500D02*
X6845131Y-1329500D01*
X6864000Y-457000D02*
X6889000Y-482000D01*
X6889000Y-457000D02*
X6864000Y-482000D01*
X6864000Y-2057000D02*
X6889000Y-2082000D01*
X6889000Y-2057000D02*
X6864000Y-2082000D01*
X6864000Y-2857000D02*
X6889000Y-2882000D01*
X6889000Y-2857000D02*
X6864000Y-2882000D01*
X6864000Y-3657000D02*
X6889000Y-3682000D01*
X6889000Y-3657000D02*
X6864000Y-3682000D01*
X6864000Y-4457000D02*
X6889000Y-4482000D01*
X6889000Y-4457000D02*
X6864000Y-4482000D01*
X6865131Y-2464500D02*
X6890131Y-2489500D01*
X6890131Y-2464500D02*
X6865131Y-2489500D01*
X6937500Y-1737000D02*
X6962500Y-1762000D01*
X6962500Y-1737000D02*
X6937500Y-1762000D01*
X6937500Y-1937000D02*
X6962500Y-1962000D01*
X6962500Y-1937000D02*
X6937500Y-1962000D01*
X7077500Y-4937000D02*
X7102500Y-4962000D01*
X7102500Y-4937000D02*
X7077500Y-4962000D01*
X7089896Y-2291216D02*
X7114896Y-2316216D01*
X7114896Y-2291216D02*
X7089896Y-2316216D01*
X7237500Y-2137000D02*
X7262500Y-2162000D01*
X7262500Y-2137000D02*
X7237500Y-2162000D01*
X7238621Y-2033431D02*
X7263621Y-2058431D01*
X7263621Y-2033431D02*
X7238621Y-2058431D01*
X7397500Y-1757000D02*
X7422500Y-1782000D01*
X7422500Y-1757000D02*
X7397500Y-1782000D01*
X7397500Y-1957000D02*
X7422500Y-1982000D01*
X7422500Y-1957000D02*
X7397500Y-1982000D01*
X7427588Y-1694016D02*
X7452588Y-1719016D01*
X7452588Y-1694016D02*
X7427588Y-1719016D01*
X7427588Y-2129984D02*
X7452588Y-2154984D01*
X7452588Y-2129984D02*
X7427588Y-2154984D01*
X7477500Y-2357000D02*
X7502500Y-2382000D01*
X7502500Y-2357000D02*
X7477500Y-2382000D01*
X7664000Y-457000D02*
X7689000Y-482000D01*
X7689000Y-457000D02*
X7664000Y-482000D01*
X7664000Y-1257000D02*
X7689000Y-1282000D01*
X7689000Y-1257000D02*
X7664000Y-1282000D01*
X7664000Y-2057000D02*
X7689000Y-2082000D01*
X7689000Y-2057000D02*
X7664000Y-2082000D01*
X7664000Y-2857000D02*
X7689000Y-2882000D01*
X7689000Y-2857000D02*
X7664000Y-2882000D01*
X7664000Y-3657000D02*
X7689000Y-3682000D01*
X7689000Y-3657000D02*
X7664000Y-3682000D01*
X4734500Y-1579500D02*
G75*
G02*
X4694500Y-1579500I-20000J0D01*
G01*
X4694500Y-1579500D02*
G75*
G02*
X4734500Y-1579500I20000J0D01*
G01*
X4974500Y-1579500D02*
G75*
G02*
X4934500Y-1579500I-20000J0D01*
G01*
X4934500Y-1579500D02*
G75*
G02*
X4974500Y-1579500I20000J0D01*
G01*
X3302500Y-3199000D02*
X3302500Y-3259000D01*
X3272500Y-3229000D02*
X3332500Y-3229000D01*
X3272500Y-3174000D02*
X3272500Y-3284000D01*
X3332500Y-3284000D02*
G75*
G02*
X3272500Y-3284000I-30000J0D01*
G01*
X3332500Y-3284000D02*
X3332500Y-3174000D01*
X3332500Y-3174000D02*
G75*
G03*
X3272500Y-3174000I-30000J0D01*
G01*
X3302500Y-3617000D02*
X3302500Y-3677000D01*
X3272500Y-3647000D02*
X3332500Y-3647000D01*
X3272500Y-3617000D02*
X3272500Y-3677000D01*
X3332500Y-3677000D02*
G75*
G02*
X3272500Y-3677000I-30000J0D01*
G01*
X3332500Y-3677000D02*
X3332500Y-3617000D01*
X3332500Y-3617000D02*
G75*
G03*
X3272500Y-3617000I-30000J0D01*
G01*
X4166500Y-3199000D02*
X4166500Y-3259000D01*
X4136500Y-3229000D02*
X4196500Y-3229000D01*
X4136500Y-3174000D02*
X4136500Y-3284000D01*
X4196500Y-3284000D02*
G75*
G02*
X4136500Y-3284000I-30000J0D01*
G01*
X4196500Y-3284000D02*
X4196500Y-3174000D01*
X4196500Y-3174000D02*
G75*
G03*
X4136500Y-3174000I-30000J0D01*
G01*
X4166500Y-3617000D02*
X4166500Y-3677000D01*
X4136500Y-3647000D02*
X4196500Y-3647000D01*
X4136500Y-3617000D02*
X4136500Y-3677000D01*
X4196500Y-3677000D02*
G75*
G02*
X4136500Y-3677000I-30000J0D01*
G01*
X4196500Y-3677000D02*
X4196500Y-3617000D01*
X4196500Y-3617000D02*
G75*
G03*
X4136500Y-3617000I-30000J0D01*
G01*
X361017Y-426017D02*
X361017Y-372983D01*
X307983Y-372983D01*
X307983Y-426017D01*
X361017Y-426017D01*
X441017Y-2706017D02*
X441017Y-2652983D01*
X387983Y-2652983D01*
X387983Y-2706017D01*
X441017Y-2706017D01*
X441017Y-2906017D02*
X441017Y-2852983D01*
X387983Y-2852983D01*
X387983Y-2906017D01*
X441017Y-2906017D01*
X441017Y-3106017D02*
X441017Y-3052983D01*
X387983Y-3052983D01*
X387983Y-3106017D01*
X441017Y-3106017D01*
X441017Y-3306017D02*
X441017Y-3252983D01*
X387983Y-3252983D01*
X387983Y-3306017D01*
X441017Y-3306017D01*
X441017Y-3506017D02*
X441017Y-3452983D01*
X387983Y-3452983D01*
X387983Y-3506017D01*
X441017Y-3506017D01*
X561017Y-426017D02*
X561017Y-372983D01*
X507983Y-372983D01*
X507983Y-426017D01*
X561017Y-426017D01*
X761017Y-426017D02*
X761017Y-372983D01*
X707983Y-372983D01*
X707983Y-426017D01*
X761017Y-426017D01*
X1411017Y-5326017D02*
X1411017Y-5272983D01*
X1357983Y-5272983D01*
X1357983Y-5326017D01*
X1411017Y-5326017D01*
X1611017Y-5326017D02*
X1611017Y-5272983D01*
X1557983Y-5272983D01*
X1557983Y-5326017D01*
X1611017Y-5326017D01*
X1811017Y-5326017D02*
X1811017Y-5272983D01*
X1757983Y-5272983D01*
X1757983Y-5326017D01*
X1811017Y-5326017D01*
X2011017Y-5326017D02*
X2011017Y-5272983D01*
X1957983Y-5272983D01*
X1957983Y-5326017D01*
X2011017Y-5326017D01*
X5361017Y-5126017D02*
X5361017Y-5072983D01*
X5307983Y-5072983D01*
X5307983Y-5126017D01*
X5361017Y-5126017D01*
X5561017Y-5126017D02*
X5561017Y-5072983D01*
X5507983Y-5072983D01*
X5507983Y-5126017D01*
X5561017Y-5126017D01*
X6211017Y-5126017D02*
X6211017Y-5072983D01*
X6157983Y-5072983D01*
X6157983Y-5126017D01*
X6211017Y-5126017D01*
X6411017Y-5126017D02*
X6411017Y-5072983D01*
X6357983Y-5072983D01*
X6357983Y-5126017D01*
X6411017Y-5126017D01*
X7011017Y-5126017D02*
X7011017Y-5072983D01*
X6957983Y-5072983D01*
X6957983Y-5126017D01*
X7011017Y-5126017D01*
X7211017Y-5126017D02*
X7211017Y-5072983D01*
X7157983Y-5072983D01*
X7157983Y-5126017D01*
X7211017Y-5126017D01*
X7821017Y-4426017D02*
X7821017Y-4372983D01*
X7767983Y-4372983D01*
X7767983Y-4426017D01*
X7821017Y-4426017D01*
X7821017Y-4626017D02*
X7821017Y-4572983D01*
X7767983Y-4572983D01*
X7767983Y-4626017D01*
X7821017Y-4626017D01*
X7821017Y-4826017D02*
X7821017Y-4772983D01*
X7767983Y-4772983D01*
X7767983Y-4826017D01*
X7821017Y-4826017D01*
X7821017Y-5026017D02*
X7821017Y-4972983D01*
X7767983Y-4972983D01*
X7767983Y-5026017D01*
X7821017Y-5026017D01*
X7821017Y-5226017D02*
X7821017Y-5172983D01*
X7767983Y-5172983D01*
X7767983Y-5226017D01*
X7821017Y-5226017D01*
X7821017Y-5426017D02*
X7821017Y-5372983D01*
X7767983Y-5372983D01*
X7767983Y-5426017D01*
X7821017Y-5426017D01*
X1334500Y-429500D02*
X1384500Y-379500D01*
X1334500Y-329500D01*
X1284500Y-379500D01*
X1334500Y-429500D01*
X1334500Y-669500D02*
X1384500Y-619500D01*
X1334500Y-569500D01*
X1284500Y-619500D01*
X1334500Y-669500D01*
X1584500Y-429500D02*
X1634500Y-379500D01*
X1584500Y-329500D01*
X1534500Y-379500D01*
X1584500Y-429500D01*
X1584500Y-669500D02*
X1634500Y-619500D01*
X1584500Y-569500D01*
X1534500Y-619500D01*
X1584500Y-669500D01*
X1834500Y-429500D02*
X1884500Y-379500D01*
X1834500Y-329500D01*
X1784500Y-379500D01*
X1834500Y-429500D01*
X1834500Y-669500D02*
X1884500Y-619500D01*
X1834500Y-569500D01*
X1784500Y-619500D01*
X1834500Y-669500D01*
D11*
X258277Y-6042984D02*
X258277Y-5842984D01*
X258277Y-5842984D02*
X305896Y-5842984D01*
X305896Y-5842984D02*
X334467Y-5852508D01*
X334467Y-5852508D02*
X353515Y-5871555D01*
X353515Y-5871555D02*
X363039Y-5890603D01*
X363039Y-5890603D02*
X372562Y-5928698D01*
X372562Y-5928698D02*
X372562Y-5957269D01*
X372562Y-5957269D02*
X363039Y-5995365D01*
X363039Y-5995365D02*
X353515Y-6014412D01*
X353515Y-6014412D02*
X334467Y-6033460D01*
X334467Y-6033460D02*
X305896Y-6042984D01*
X305896Y-6042984D02*
X258277Y-6042984D01*
X458277Y-6042984D02*
X458277Y-5909650D01*
X458277Y-5947746D02*
X467801Y-5928698D01*
X467801Y-5928698D02*
X477324Y-5919174D01*
X477324Y-5919174D02*
X496372Y-5909650D01*
X496372Y-5909650D02*
X515420Y-5909650D01*
X582086Y-6042984D02*
X582086Y-5909650D01*
X582086Y-5842984D02*
X572563Y-5852508D01*
X572563Y-5852508D02*
X582086Y-5862031D01*
X582086Y-5862031D02*
X591610Y-5852508D01*
X591610Y-5852508D02*
X582086Y-5842984D01*
X582086Y-5842984D02*
X582086Y-5862031D01*
X705896Y-6042984D02*
X686848Y-6033460D01*
X686848Y-6033460D02*
X677324Y-6014412D01*
X677324Y-6014412D02*
X677324Y-5842984D01*
X810658Y-6042984D02*
X791610Y-6033460D01*
X791610Y-6033460D02*
X782086Y-6014412D01*
X782086Y-6014412D02*
X782086Y-5842984D01*
X1039229Y-6042984D02*
X1039229Y-5842984D01*
X1039229Y-5842984D02*
X1105896Y-5985841D01*
X1105896Y-5985841D02*
X1172563Y-5842984D01*
X1172563Y-5842984D02*
X1172563Y-6042984D01*
X1353515Y-6042984D02*
X1353515Y-5938222D01*
X1353515Y-5938222D02*
X1343991Y-5919174D01*
X1343991Y-5919174D02*
X1324944Y-5909650D01*
X1324944Y-5909650D02*
X1286848Y-5909650D01*
X1286848Y-5909650D02*
X1267801Y-5919174D01*
X1353515Y-6033460D02*
X1334467Y-6042984D01*
X1334467Y-6042984D02*
X1286848Y-6042984D01*
X1286848Y-6042984D02*
X1267801Y-6033460D01*
X1267801Y-6033460D02*
X1258277Y-6014412D01*
X1258277Y-6014412D02*
X1258277Y-5995365D01*
X1258277Y-5995365D02*
X1267801Y-5976317D01*
X1267801Y-5976317D02*
X1286848Y-5966793D01*
X1286848Y-5966793D02*
X1334467Y-5966793D01*
X1334467Y-5966793D02*
X1353515Y-5957269D01*
X1448753Y-5909650D02*
X1448753Y-6109650D01*
X1448753Y-5919174D02*
X1467801Y-5909650D01*
X1467801Y-5909650D02*
X1505896Y-5909650D01*
X1505896Y-5909650D02*
X1524943Y-5919174D01*
X1524943Y-5919174D02*
X1534467Y-5928698D01*
X1534467Y-5928698D02*
X1543991Y-5947746D01*
X1543991Y-5947746D02*
X1543991Y-6004888D01*
X1543991Y-6004888D02*
X1534467Y-6023936D01*
X1534467Y-6023936D02*
X1524943Y-6033460D01*
X1524943Y-6033460D02*
X1505896Y-6042984D01*
X1505896Y-6042984D02*
X1467801Y-6042984D01*
X1467801Y-6042984D02*
X1448753Y-6033460D01*
X1629705Y-6023936D02*
X1639229Y-6033460D01*
X1639229Y-6033460D02*
X1629705Y-6042984D01*
X1629705Y-6042984D02*
X1620182Y-6033460D01*
X1620182Y-6033460D02*
X1629705Y-6023936D01*
X1629705Y-6023936D02*
X1629705Y-6042984D01*
X1629705Y-5919174D02*
X1639229Y-5928698D01*
X1639229Y-5928698D02*
X1629705Y-5938222D01*
X1629705Y-5938222D02*
X1620182Y-5928698D01*
X1620182Y-5928698D02*
X1629705Y-5919174D01*
X1629705Y-5919174D02*
X1629705Y-5938222D01*
D12*
X-27500Y-6359000D02*
X-2500Y-6384000D01*
X-2500Y-6359000D02*
X-27500Y-6384000D01*
D11*
X296372Y-6262984D02*
X315420Y-6262984D01*
X315420Y-6262984D02*
X334467Y-6272508D01*
X334467Y-6272508D02*
X343991Y-6282031D01*
X343991Y-6282031D02*
X353515Y-6301079D01*
X353515Y-6301079D02*
X363039Y-6339174D01*
X363039Y-6339174D02*
X363039Y-6386793D01*
X363039Y-6386793D02*
X353515Y-6424888D01*
X353515Y-6424888D02*
X343991Y-6443936D01*
X343991Y-6443936D02*
X334467Y-6453460D01*
X334467Y-6453460D02*
X315420Y-6462984D01*
X315420Y-6462984D02*
X296372Y-6462984D01*
X296372Y-6462984D02*
X277324Y-6453460D01*
X277324Y-6453460D02*
X267801Y-6443936D01*
X267801Y-6443936D02*
X258277Y-6424888D01*
X258277Y-6424888D02*
X248753Y-6386793D01*
X248753Y-6386793D02*
X248753Y-6339174D01*
X248753Y-6339174D02*
X258277Y-6301079D01*
X258277Y-6301079D02*
X267801Y-6282031D01*
X267801Y-6282031D02*
X277324Y-6272508D01*
X277324Y-6272508D02*
X296372Y-6262984D01*
X448753Y-6443936D02*
X458277Y-6453460D01*
X458277Y-6453460D02*
X448753Y-6462984D01*
X448753Y-6462984D02*
X439229Y-6453460D01*
X439229Y-6453460D02*
X448753Y-6443936D01*
X448753Y-6443936D02*
X448753Y-6462984D01*
X534467Y-6282031D02*
X543991Y-6272508D01*
X543991Y-6272508D02*
X563039Y-6262984D01*
X563039Y-6262984D02*
X610658Y-6262984D01*
X610658Y-6262984D02*
X629705Y-6272508D01*
X629705Y-6272508D02*
X639229Y-6282031D01*
X639229Y-6282031D02*
X648753Y-6301079D01*
X648753Y-6301079D02*
X648753Y-6320127D01*
X648753Y-6320127D02*
X639229Y-6348698D01*
X639229Y-6348698D02*
X524944Y-6462984D01*
X524944Y-6462984D02*
X648753Y-6462984D01*
X829705Y-6262984D02*
X734467Y-6262984D01*
X734467Y-6262984D02*
X724943Y-6358222D01*
X724943Y-6358222D02*
X734467Y-6348698D01*
X734467Y-6348698D02*
X753515Y-6339174D01*
X753515Y-6339174D02*
X801134Y-6339174D01*
X801134Y-6339174D02*
X820182Y-6348698D01*
X820182Y-6348698D02*
X829705Y-6358222D01*
X829705Y-6358222D02*
X839229Y-6377269D01*
X839229Y-6377269D02*
X839229Y-6424888D01*
X839229Y-6424888D02*
X829705Y-6443936D01*
X829705Y-6443936D02*
X820182Y-6453460D01*
X820182Y-6453460D02*
X801134Y-6462984D01*
X801134Y-6462984D02*
X753515Y-6462984D01*
X753515Y-6462984D02*
X734467Y-6453460D01*
X734467Y-6453460D02*
X724943Y-6443936D01*
X963039Y-6262984D02*
X982086Y-6262984D01*
X982086Y-6262984D02*
X1001134Y-6272508D01*
X1001134Y-6272508D02*
X1010658Y-6282031D01*
X1010658Y-6282031D02*
X1020182Y-6301079D01*
X1020182Y-6301079D02*
X1029705Y-6339174D01*
X1029705Y-6339174D02*
X1029705Y-6386793D01*
X1029705Y-6386793D02*
X1020182Y-6424888D01*
X1020182Y-6424888D02*
X1010658Y-6443936D01*
X1010658Y-6443936D02*
X1001134Y-6453460D01*
X1001134Y-6453460D02*
X982086Y-6462984D01*
X982086Y-6462984D02*
X963039Y-6462984D01*
X963039Y-6462984D02*
X943991Y-6453460D01*
X943991Y-6453460D02*
X934467Y-6443936D01*
X934467Y-6443936D02*
X924943Y-6424888D01*
X924943Y-6424888D02*
X915420Y-6386793D01*
X915420Y-6386793D02*
X915420Y-6339174D01*
X915420Y-6339174D02*
X924943Y-6301079D01*
X924943Y-6301079D02*
X934467Y-6282031D01*
X934467Y-6282031D02*
X943991Y-6272508D01*
X943991Y-6272508D02*
X963039Y-6262984D01*
X1115420Y-6462984D02*
X1115420Y-6329650D01*
X1115420Y-6348698D02*
X1124944Y-6339174D01*
X1124944Y-6339174D02*
X1143991Y-6329650D01*
X1143991Y-6329650D02*
X1172563Y-6329650D01*
X1172563Y-6329650D02*
X1191610Y-6339174D01*
X1191610Y-6339174D02*
X1201134Y-6358222D01*
X1201134Y-6358222D02*
X1201134Y-6462984D01*
X1201134Y-6358222D02*
X1210658Y-6339174D01*
X1210658Y-6339174D02*
X1229705Y-6329650D01*
X1229705Y-6329650D02*
X1258277Y-6329650D01*
X1258277Y-6329650D02*
X1277325Y-6339174D01*
X1277325Y-6339174D02*
X1286848Y-6358222D01*
X1286848Y-6358222D02*
X1286848Y-6462984D01*
X1382086Y-6462984D02*
X1382086Y-6329650D01*
X1382086Y-6348698D02*
X1391610Y-6339174D01*
X1391610Y-6339174D02*
X1410658Y-6329650D01*
X1410658Y-6329650D02*
X1439229Y-6329650D01*
X1439229Y-6329650D02*
X1458277Y-6339174D01*
X1458277Y-6339174D02*
X1467801Y-6358222D01*
X1467801Y-6358222D02*
X1467801Y-6462984D01*
X1467801Y-6358222D02*
X1477324Y-6339174D01*
X1477324Y-6339174D02*
X1496372Y-6329650D01*
X1496372Y-6329650D02*
X1524943Y-6329650D01*
X1524943Y-6329650D02*
X1543991Y-6339174D01*
X1543991Y-6339174D02*
X1553515Y-6358222D01*
X1553515Y-6358222D02*
X1553515Y-6462984D01*
X1943991Y-6253460D02*
X1772563Y-6510603D01*
X2201134Y-6262984D02*
X2220182Y-6262984D01*
X2220182Y-6262984D02*
X2239229Y-6272508D01*
X2239229Y-6272508D02*
X2248753Y-6282031D01*
X2248753Y-6282031D02*
X2258277Y-6301079D01*
X2258277Y-6301079D02*
X2267801Y-6339174D01*
X2267801Y-6339174D02*
X2267801Y-6386793D01*
X2267801Y-6386793D02*
X2258277Y-6424888D01*
X2258277Y-6424888D02*
X2248753Y-6443936D01*
X2248753Y-6443936D02*
X2239229Y-6453460D01*
X2239229Y-6453460D02*
X2220182Y-6462984D01*
X2220182Y-6462984D02*
X2201134Y-6462984D01*
X2201134Y-6462984D02*
X2182087Y-6453460D01*
X2182087Y-6453460D02*
X2172563Y-6443936D01*
X2172563Y-6443936D02*
X2163039Y-6424888D01*
X2163039Y-6424888D02*
X2153515Y-6386793D01*
X2153515Y-6386793D02*
X2153515Y-6339174D01*
X2153515Y-6339174D02*
X2163039Y-6301079D01*
X2163039Y-6301079D02*
X2172563Y-6282031D01*
X2172563Y-6282031D02*
X2182087Y-6272508D01*
X2182087Y-6272508D02*
X2201134Y-6262984D01*
X2353515Y-6443936D02*
X2363039Y-6453460D01*
X2363039Y-6453460D02*
X2353515Y-6462984D01*
X2353515Y-6462984D02*
X2343991Y-6453460D01*
X2343991Y-6453460D02*
X2353515Y-6443936D01*
X2353515Y-6443936D02*
X2353515Y-6462984D01*
X2486848Y-6262984D02*
X2505896Y-6262984D01*
X2505896Y-6262984D02*
X2524944Y-6272508D01*
X2524944Y-6272508D02*
X2534468Y-6282031D01*
X2534468Y-6282031D02*
X2543991Y-6301079D01*
X2543991Y-6301079D02*
X2553515Y-6339174D01*
X2553515Y-6339174D02*
X2553515Y-6386793D01*
X2553515Y-6386793D02*
X2543991Y-6424888D01*
X2543991Y-6424888D02*
X2534468Y-6443936D01*
X2534468Y-6443936D02*
X2524944Y-6453460D01*
X2524944Y-6453460D02*
X2505896Y-6462984D01*
X2505896Y-6462984D02*
X2486848Y-6462984D01*
X2486848Y-6462984D02*
X2467801Y-6453460D01*
X2467801Y-6453460D02*
X2458277Y-6443936D01*
X2458277Y-6443936D02*
X2448753Y-6424888D01*
X2448753Y-6424888D02*
X2439229Y-6386793D01*
X2439229Y-6386793D02*
X2439229Y-6339174D01*
X2439229Y-6339174D02*
X2448753Y-6301079D01*
X2448753Y-6301079D02*
X2458277Y-6282031D01*
X2458277Y-6282031D02*
X2467801Y-6272508D01*
X2467801Y-6272508D02*
X2486848Y-6262984D01*
X2677325Y-6262984D02*
X2696372Y-6262984D01*
X2696372Y-6262984D02*
X2715420Y-6272508D01*
X2715420Y-6272508D02*
X2724944Y-6282031D01*
X2724944Y-6282031D02*
X2734468Y-6301079D01*
X2734468Y-6301079D02*
X2743991Y-6339174D01*
X2743991Y-6339174D02*
X2743991Y-6386793D01*
X2743991Y-6386793D02*
X2734468Y-6424888D01*
X2734468Y-6424888D02*
X2724944Y-6443936D01*
X2724944Y-6443936D02*
X2715420Y-6453460D01*
X2715420Y-6453460D02*
X2696372Y-6462984D01*
X2696372Y-6462984D02*
X2677325Y-6462984D01*
X2677325Y-6462984D02*
X2658277Y-6453460D01*
X2658277Y-6453460D02*
X2648753Y-6443936D01*
X2648753Y-6443936D02*
X2639229Y-6424888D01*
X2639229Y-6424888D02*
X2629706Y-6386793D01*
X2629706Y-6386793D02*
X2629706Y-6339174D01*
X2629706Y-6339174D02*
X2639229Y-6301079D01*
X2639229Y-6301079D02*
X2648753Y-6282031D01*
X2648753Y-6282031D02*
X2658277Y-6272508D01*
X2658277Y-6272508D02*
X2677325Y-6262984D01*
X2839229Y-6462984D02*
X2877325Y-6462984D01*
X2877325Y-6462984D02*
X2896372Y-6453460D01*
X2896372Y-6453460D02*
X2905896Y-6443936D01*
X2905896Y-6443936D02*
X2924944Y-6415365D01*
X2924944Y-6415365D02*
X2934467Y-6377269D01*
X2934467Y-6377269D02*
X2934467Y-6301079D01*
X2934467Y-6301079D02*
X2924944Y-6282031D01*
X2924944Y-6282031D02*
X2915420Y-6272508D01*
X2915420Y-6272508D02*
X2896372Y-6262984D01*
X2896372Y-6262984D02*
X2858277Y-6262984D01*
X2858277Y-6262984D02*
X2839229Y-6272508D01*
X2839229Y-6272508D02*
X2829706Y-6282031D01*
X2829706Y-6282031D02*
X2820182Y-6301079D01*
X2820182Y-6301079D02*
X2820182Y-6348698D01*
X2820182Y-6348698D02*
X2829706Y-6367746D01*
X2829706Y-6367746D02*
X2839229Y-6377269D01*
X2839229Y-6377269D02*
X2858277Y-6386793D01*
X2858277Y-6386793D02*
X2896372Y-6386793D01*
X2896372Y-6386793D02*
X2915420Y-6377269D01*
X2915420Y-6377269D02*
X2924944Y-6367746D01*
X2924944Y-6367746D02*
X2934467Y-6348698D01*
X3048753Y-6348698D02*
X3029706Y-6339174D01*
X3029706Y-6339174D02*
X3020182Y-6329650D01*
X3020182Y-6329650D02*
X3010658Y-6310603D01*
X3010658Y-6310603D02*
X3010658Y-6301079D01*
X3010658Y-6301079D02*
X3020182Y-6282031D01*
X3020182Y-6282031D02*
X3029706Y-6272508D01*
X3029706Y-6272508D02*
X3048753Y-6262984D01*
X3048753Y-6262984D02*
X3086848Y-6262984D01*
X3086848Y-6262984D02*
X3105896Y-6272508D01*
X3105896Y-6272508D02*
X3115420Y-6282031D01*
X3115420Y-6282031D02*
X3124944Y-6301079D01*
X3124944Y-6301079D02*
X3124944Y-6310603D01*
X3124944Y-6310603D02*
X3115420Y-6329650D01*
X3115420Y-6329650D02*
X3105896Y-6339174D01*
X3105896Y-6339174D02*
X3086848Y-6348698D01*
X3086848Y-6348698D02*
X3048753Y-6348698D01*
X3048753Y-6348698D02*
X3029706Y-6358222D01*
X3029706Y-6358222D02*
X3020182Y-6367746D01*
X3020182Y-6367746D02*
X3010658Y-6386793D01*
X3010658Y-6386793D02*
X3010658Y-6424888D01*
X3010658Y-6424888D02*
X3020182Y-6443936D01*
X3020182Y-6443936D02*
X3029706Y-6453460D01*
X3029706Y-6453460D02*
X3048753Y-6462984D01*
X3048753Y-6462984D02*
X3086848Y-6462984D01*
X3086848Y-6462984D02*
X3105896Y-6453460D01*
X3105896Y-6453460D02*
X3115420Y-6443936D01*
X3115420Y-6443936D02*
X3124944Y-6424888D01*
X3124944Y-6424888D02*
X3124944Y-6386793D01*
X3124944Y-6386793D02*
X3115420Y-6367746D01*
X3115420Y-6367746D02*
X3105896Y-6358222D01*
X3105896Y-6358222D02*
X3086848Y-6348698D01*
X3201134Y-6262984D02*
X3201134Y-6301079D01*
X3277325Y-6262984D02*
X3277325Y-6301079D01*
X3572563Y-6539174D02*
X3563039Y-6529650D01*
X3563039Y-6529650D02*
X3543991Y-6501079D01*
X3543991Y-6501079D02*
X3534468Y-6482031D01*
X3534468Y-6482031D02*
X3524944Y-6453460D01*
X3524944Y-6453460D02*
X3515420Y-6405841D01*
X3515420Y-6405841D02*
X3515420Y-6367746D01*
X3515420Y-6367746D02*
X3524944Y-6320127D01*
X3524944Y-6320127D02*
X3534468Y-6291555D01*
X3534468Y-6291555D02*
X3543991Y-6272508D01*
X3543991Y-6272508D02*
X3563039Y-6243936D01*
X3563039Y-6243936D02*
X3572563Y-6234412D01*
X3639229Y-6282031D02*
X3648753Y-6272508D01*
X3648753Y-6272508D02*
X3667801Y-6262984D01*
X3667801Y-6262984D02*
X3715420Y-6262984D01*
X3715420Y-6262984D02*
X3734468Y-6272508D01*
X3734468Y-6272508D02*
X3743991Y-6282031D01*
X3743991Y-6282031D02*
X3753515Y-6301079D01*
X3753515Y-6301079D02*
X3753515Y-6320127D01*
X3753515Y-6320127D02*
X3743991Y-6348698D01*
X3743991Y-6348698D02*
X3629706Y-6462984D01*
X3629706Y-6462984D02*
X3753515Y-6462984D01*
X3924944Y-6262984D02*
X3886848Y-6262984D01*
X3886848Y-6262984D02*
X3867801Y-6272508D01*
X3867801Y-6272508D02*
X3858277Y-6282031D01*
X3858277Y-6282031D02*
X3839229Y-6310603D01*
X3839229Y-6310603D02*
X3829706Y-6348698D01*
X3829706Y-6348698D02*
X3829706Y-6424888D01*
X3829706Y-6424888D02*
X3839229Y-6443936D01*
X3839229Y-6443936D02*
X3848753Y-6453460D01*
X3848753Y-6453460D02*
X3867801Y-6462984D01*
X3867801Y-6462984D02*
X3905896Y-6462984D01*
X3905896Y-6462984D02*
X3924944Y-6453460D01*
X3924944Y-6453460D02*
X3934468Y-6443936D01*
X3934468Y-6443936D02*
X3943991Y-6424888D01*
X3943991Y-6424888D02*
X3943991Y-6377269D01*
X3943991Y-6377269D02*
X3934468Y-6358222D01*
X3934468Y-6358222D02*
X3924944Y-6348698D01*
X3924944Y-6348698D02*
X3905896Y-6339174D01*
X3905896Y-6339174D02*
X3867801Y-6339174D01*
X3867801Y-6339174D02*
X3848753Y-6348698D01*
X3848753Y-6348698D02*
X3839229Y-6358222D01*
X3839229Y-6358222D02*
X3829706Y-6377269D01*
X4020182Y-6282031D02*
X4029706Y-6272508D01*
X4029706Y-6272508D02*
X4048753Y-6262984D01*
X4048753Y-6262984D02*
X4096372Y-6262984D01*
X4096372Y-6262984D02*
X4115420Y-6272508D01*
X4115420Y-6272508D02*
X4124944Y-6282031D01*
X4124944Y-6282031D02*
X4134468Y-6301079D01*
X4134468Y-6301079D02*
X4134468Y-6320127D01*
X4134468Y-6320127D02*
X4124944Y-6348698D01*
X4124944Y-6348698D02*
X4010658Y-6462984D01*
X4010658Y-6462984D02*
X4134468Y-6462984D01*
X4372563Y-6462984D02*
X4372563Y-6262984D01*
X4458277Y-6462984D02*
X4458277Y-6358222D01*
X4458277Y-6358222D02*
X4448753Y-6339174D01*
X4448753Y-6339174D02*
X4429706Y-6329650D01*
X4429706Y-6329650D02*
X4401134Y-6329650D01*
X4401134Y-6329650D02*
X4382087Y-6339174D01*
X4382087Y-6339174D02*
X4372563Y-6348698D01*
X4582087Y-6462984D02*
X4563039Y-6453460D01*
X4563039Y-6453460D02*
X4553515Y-6443936D01*
X4553515Y-6443936D02*
X4543992Y-6424888D01*
X4543992Y-6424888D02*
X4543992Y-6367746D01*
X4543992Y-6367746D02*
X4553515Y-6348698D01*
X4553515Y-6348698D02*
X4563039Y-6339174D01*
X4563039Y-6339174D02*
X4582087Y-6329650D01*
X4582087Y-6329650D02*
X4610658Y-6329650D01*
X4610658Y-6329650D02*
X4629706Y-6339174D01*
X4629706Y-6339174D02*
X4639230Y-6348698D01*
X4639230Y-6348698D02*
X4648753Y-6367746D01*
X4648753Y-6367746D02*
X4648753Y-6424888D01*
X4648753Y-6424888D02*
X4639230Y-6443936D01*
X4639230Y-6443936D02*
X4629706Y-6453460D01*
X4629706Y-6453460D02*
X4610658Y-6462984D01*
X4610658Y-6462984D02*
X4582087Y-6462984D01*
X4763039Y-6462984D02*
X4743992Y-6453460D01*
X4743992Y-6453460D02*
X4734468Y-6434412D01*
X4734468Y-6434412D02*
X4734468Y-6262984D01*
X4915420Y-6453460D02*
X4896373Y-6462984D01*
X4896373Y-6462984D02*
X4858277Y-6462984D01*
X4858277Y-6462984D02*
X4839230Y-6453460D01*
X4839230Y-6453460D02*
X4829706Y-6434412D01*
X4829706Y-6434412D02*
X4829706Y-6358222D01*
X4829706Y-6358222D02*
X4839230Y-6339174D01*
X4839230Y-6339174D02*
X4858277Y-6329650D01*
X4858277Y-6329650D02*
X4896373Y-6329650D01*
X4896373Y-6329650D02*
X4915420Y-6339174D01*
X4915420Y-6339174D02*
X4924944Y-6358222D01*
X4924944Y-6358222D02*
X4924944Y-6377269D01*
X4924944Y-6377269D02*
X4829706Y-6396317D01*
X5001134Y-6453460D02*
X5020182Y-6462984D01*
X5020182Y-6462984D02*
X5058277Y-6462984D01*
X5058277Y-6462984D02*
X5077325Y-6453460D01*
X5077325Y-6453460D02*
X5086849Y-6434412D01*
X5086849Y-6434412D02*
X5086849Y-6424888D01*
X5086849Y-6424888D02*
X5077325Y-6405841D01*
X5077325Y-6405841D02*
X5058277Y-6396317D01*
X5058277Y-6396317D02*
X5029706Y-6396317D01*
X5029706Y-6396317D02*
X5010658Y-6386793D01*
X5010658Y-6386793D02*
X5001134Y-6367746D01*
X5001134Y-6367746D02*
X5001134Y-6358222D01*
X5001134Y-6358222D02*
X5010658Y-6339174D01*
X5010658Y-6339174D02*
X5029706Y-6329650D01*
X5029706Y-6329650D02*
X5058277Y-6329650D01*
X5058277Y-6329650D02*
X5077325Y-6339174D01*
X5153515Y-6539174D02*
X5163039Y-6529650D01*
X5163039Y-6529650D02*
X5182087Y-6501079D01*
X5182087Y-6501079D02*
X5191611Y-6482031D01*
X5191611Y-6482031D02*
X5201134Y-6453460D01*
X5201134Y-6453460D02*
X5210658Y-6405841D01*
X5210658Y-6405841D02*
X5210658Y-6367746D01*
X5210658Y-6367746D02*
X5201134Y-6320127D01*
X5201134Y-6320127D02*
X5191611Y-6291555D01*
X5191611Y-6291555D02*
X5182087Y-6272508D01*
X5182087Y-6272508D02*
X5163039Y-6243936D01*
X5163039Y-6243936D02*
X5153515Y-6234412D01*
D12*
X-2500Y-6635500D02*
G75*
G02*
X-42500Y-6635500I-20000J0D01*
G01*
X-42500Y-6635500D02*
G75*
G02*
X-2500Y-6635500I20000J0D01*
G01*
D11*
X296372Y-6526984D02*
X315420Y-6526984D01*
X315420Y-6526984D02*
X334467Y-6536508D01*
X334467Y-6536508D02*
X343991Y-6546031D01*
X343991Y-6546031D02*
X353515Y-6565079D01*
X353515Y-6565079D02*
X363039Y-6603174D01*
X363039Y-6603174D02*
X363039Y-6650793D01*
X363039Y-6650793D02*
X353515Y-6688888D01*
X353515Y-6688888D02*
X343991Y-6707936D01*
X343991Y-6707936D02*
X334467Y-6717460D01*
X334467Y-6717460D02*
X315420Y-6726984D01*
X315420Y-6726984D02*
X296372Y-6726984D01*
X296372Y-6726984D02*
X277324Y-6717460D01*
X277324Y-6717460D02*
X267801Y-6707936D01*
X267801Y-6707936D02*
X258277Y-6688888D01*
X258277Y-6688888D02*
X248753Y-6650793D01*
X248753Y-6650793D02*
X248753Y-6603174D01*
X248753Y-6603174D02*
X258277Y-6565079D01*
X258277Y-6565079D02*
X267801Y-6546031D01*
X267801Y-6546031D02*
X277324Y-6536508D01*
X277324Y-6536508D02*
X296372Y-6526984D01*
X448753Y-6707936D02*
X458277Y-6717460D01*
X458277Y-6717460D02*
X448753Y-6726984D01*
X448753Y-6726984D02*
X439229Y-6717460D01*
X439229Y-6717460D02*
X448753Y-6707936D01*
X448753Y-6707936D02*
X448753Y-6726984D01*
X629705Y-6593650D02*
X629705Y-6726984D01*
X582086Y-6517460D02*
X534467Y-6660317D01*
X534467Y-6660317D02*
X658277Y-6660317D01*
X772562Y-6526984D02*
X791610Y-6526984D01*
X791610Y-6526984D02*
X810658Y-6536508D01*
X810658Y-6536508D02*
X820182Y-6546031D01*
X820182Y-6546031D02*
X829705Y-6565079D01*
X829705Y-6565079D02*
X839229Y-6603174D01*
X839229Y-6603174D02*
X839229Y-6650793D01*
X839229Y-6650793D02*
X829705Y-6688888D01*
X829705Y-6688888D02*
X820182Y-6707936D01*
X820182Y-6707936D02*
X810658Y-6717460D01*
X810658Y-6717460D02*
X791610Y-6726984D01*
X791610Y-6726984D02*
X772562Y-6726984D01*
X772562Y-6726984D02*
X753515Y-6717460D01*
X753515Y-6717460D02*
X743991Y-6707936D01*
X743991Y-6707936D02*
X734467Y-6688888D01*
X734467Y-6688888D02*
X724943Y-6650793D01*
X724943Y-6650793D02*
X724943Y-6603174D01*
X724943Y-6603174D02*
X734467Y-6565079D01*
X734467Y-6565079D02*
X743991Y-6546031D01*
X743991Y-6546031D02*
X753515Y-6536508D01*
X753515Y-6536508D02*
X772562Y-6526984D01*
X963039Y-6526984D02*
X982086Y-6526984D01*
X982086Y-6526984D02*
X1001134Y-6536508D01*
X1001134Y-6536508D02*
X1010658Y-6546031D01*
X1010658Y-6546031D02*
X1020182Y-6565079D01*
X1020182Y-6565079D02*
X1029705Y-6603174D01*
X1029705Y-6603174D02*
X1029705Y-6650793D01*
X1029705Y-6650793D02*
X1020182Y-6688888D01*
X1020182Y-6688888D02*
X1010658Y-6707936D01*
X1010658Y-6707936D02*
X1001134Y-6717460D01*
X1001134Y-6717460D02*
X982086Y-6726984D01*
X982086Y-6726984D02*
X963039Y-6726984D01*
X963039Y-6726984D02*
X943991Y-6717460D01*
X943991Y-6717460D02*
X934467Y-6707936D01*
X934467Y-6707936D02*
X924943Y-6688888D01*
X924943Y-6688888D02*
X915420Y-6650793D01*
X915420Y-6650793D02*
X915420Y-6603174D01*
X915420Y-6603174D02*
X924943Y-6565079D01*
X924943Y-6565079D02*
X934467Y-6546031D01*
X934467Y-6546031D02*
X943991Y-6536508D01*
X943991Y-6536508D02*
X963039Y-6526984D01*
X1115420Y-6726984D02*
X1115420Y-6593650D01*
X1115420Y-6612698D02*
X1124944Y-6603174D01*
X1124944Y-6603174D02*
X1143991Y-6593650D01*
X1143991Y-6593650D02*
X1172563Y-6593650D01*
X1172563Y-6593650D02*
X1191610Y-6603174D01*
X1191610Y-6603174D02*
X1201134Y-6622222D01*
X1201134Y-6622222D02*
X1201134Y-6726984D01*
X1201134Y-6622222D02*
X1210658Y-6603174D01*
X1210658Y-6603174D02*
X1229705Y-6593650D01*
X1229705Y-6593650D02*
X1258277Y-6593650D01*
X1258277Y-6593650D02*
X1277325Y-6603174D01*
X1277325Y-6603174D02*
X1286848Y-6622222D01*
X1286848Y-6622222D02*
X1286848Y-6726984D01*
X1382086Y-6726984D02*
X1382086Y-6593650D01*
X1382086Y-6612698D02*
X1391610Y-6603174D01*
X1391610Y-6603174D02*
X1410658Y-6593650D01*
X1410658Y-6593650D02*
X1439229Y-6593650D01*
X1439229Y-6593650D02*
X1458277Y-6603174D01*
X1458277Y-6603174D02*
X1467801Y-6622222D01*
X1467801Y-6622222D02*
X1467801Y-6726984D01*
X1467801Y-6622222D02*
X1477324Y-6603174D01*
X1477324Y-6603174D02*
X1496372Y-6593650D01*
X1496372Y-6593650D02*
X1524943Y-6593650D01*
X1524943Y-6593650D02*
X1543991Y-6603174D01*
X1543991Y-6603174D02*
X1553515Y-6622222D01*
X1553515Y-6622222D02*
X1553515Y-6726984D01*
X1943991Y-6517460D02*
X1772563Y-6774603D01*
X2201134Y-6526984D02*
X2220182Y-6526984D01*
X2220182Y-6526984D02*
X2239229Y-6536508D01*
X2239229Y-6536508D02*
X2248753Y-6546031D01*
X2248753Y-6546031D02*
X2258277Y-6565079D01*
X2258277Y-6565079D02*
X2267801Y-6603174D01*
X2267801Y-6603174D02*
X2267801Y-6650793D01*
X2267801Y-6650793D02*
X2258277Y-6688888D01*
X2258277Y-6688888D02*
X2248753Y-6707936D01*
X2248753Y-6707936D02*
X2239229Y-6717460D01*
X2239229Y-6717460D02*
X2220182Y-6726984D01*
X2220182Y-6726984D02*
X2201134Y-6726984D01*
X2201134Y-6726984D02*
X2182087Y-6717460D01*
X2182087Y-6717460D02*
X2172563Y-6707936D01*
X2172563Y-6707936D02*
X2163039Y-6688888D01*
X2163039Y-6688888D02*
X2153515Y-6650793D01*
X2153515Y-6650793D02*
X2153515Y-6603174D01*
X2153515Y-6603174D02*
X2163039Y-6565079D01*
X2163039Y-6565079D02*
X2172563Y-6546031D01*
X2172563Y-6546031D02*
X2182087Y-6536508D01*
X2182087Y-6536508D02*
X2201134Y-6526984D01*
X2353515Y-6707936D02*
X2363039Y-6717460D01*
X2363039Y-6717460D02*
X2353515Y-6726984D01*
X2353515Y-6726984D02*
X2343991Y-6717460D01*
X2343991Y-6717460D02*
X2353515Y-6707936D01*
X2353515Y-6707936D02*
X2353515Y-6726984D01*
X2486848Y-6526984D02*
X2505896Y-6526984D01*
X2505896Y-6526984D02*
X2524944Y-6536508D01*
X2524944Y-6536508D02*
X2534468Y-6546031D01*
X2534468Y-6546031D02*
X2543991Y-6565079D01*
X2543991Y-6565079D02*
X2553515Y-6603174D01*
X2553515Y-6603174D02*
X2553515Y-6650793D01*
X2553515Y-6650793D02*
X2543991Y-6688888D01*
X2543991Y-6688888D02*
X2534468Y-6707936D01*
X2534468Y-6707936D02*
X2524944Y-6717460D01*
X2524944Y-6717460D02*
X2505896Y-6726984D01*
X2505896Y-6726984D02*
X2486848Y-6726984D01*
X2486848Y-6726984D02*
X2467801Y-6717460D01*
X2467801Y-6717460D02*
X2458277Y-6707936D01*
X2458277Y-6707936D02*
X2448753Y-6688888D01*
X2448753Y-6688888D02*
X2439229Y-6650793D01*
X2439229Y-6650793D02*
X2439229Y-6603174D01*
X2439229Y-6603174D02*
X2448753Y-6565079D01*
X2448753Y-6565079D02*
X2458277Y-6546031D01*
X2458277Y-6546031D02*
X2467801Y-6536508D01*
X2467801Y-6536508D02*
X2486848Y-6526984D01*
X2743991Y-6726984D02*
X2629706Y-6726984D01*
X2686848Y-6726984D02*
X2686848Y-6526984D01*
X2686848Y-6526984D02*
X2667801Y-6555555D01*
X2667801Y-6555555D02*
X2648753Y-6574603D01*
X2648753Y-6574603D02*
X2629706Y-6584127D01*
X2924944Y-6526984D02*
X2829706Y-6526984D01*
X2829706Y-6526984D02*
X2820182Y-6622222D01*
X2820182Y-6622222D02*
X2829706Y-6612698D01*
X2829706Y-6612698D02*
X2848753Y-6603174D01*
X2848753Y-6603174D02*
X2896372Y-6603174D01*
X2896372Y-6603174D02*
X2915420Y-6612698D01*
X2915420Y-6612698D02*
X2924944Y-6622222D01*
X2924944Y-6622222D02*
X2934467Y-6641269D01*
X2934467Y-6641269D02*
X2934467Y-6688888D01*
X2934467Y-6688888D02*
X2924944Y-6707936D01*
X2924944Y-6707936D02*
X2915420Y-6717460D01*
X2915420Y-6717460D02*
X2896372Y-6726984D01*
X2896372Y-6726984D02*
X2848753Y-6726984D01*
X2848753Y-6726984D02*
X2829706Y-6717460D01*
X2829706Y-6717460D02*
X2820182Y-6707936D01*
X3001134Y-6526984D02*
X3134467Y-6526984D01*
X3134467Y-6526984D02*
X3048753Y-6726984D01*
X3201134Y-6526984D02*
X3201134Y-6565079D01*
X3277325Y-6526984D02*
X3277325Y-6565079D01*
X3572563Y-6803174D02*
X3563039Y-6793650D01*
X3563039Y-6793650D02*
X3543991Y-6765079D01*
X3543991Y-6765079D02*
X3534468Y-6746031D01*
X3534468Y-6746031D02*
X3524944Y-6717460D01*
X3524944Y-6717460D02*
X3515420Y-6669841D01*
X3515420Y-6669841D02*
X3515420Y-6631746D01*
X3515420Y-6631746D02*
X3524944Y-6584127D01*
X3524944Y-6584127D02*
X3534468Y-6555555D01*
X3534468Y-6555555D02*
X3543991Y-6536508D01*
X3543991Y-6536508D02*
X3563039Y-6507936D01*
X3563039Y-6507936D02*
X3572563Y-6498412D01*
X3639229Y-6546031D02*
X3648753Y-6536508D01*
X3648753Y-6536508D02*
X3667801Y-6526984D01*
X3667801Y-6526984D02*
X3715420Y-6526984D01*
X3715420Y-6526984D02*
X3734468Y-6536508D01*
X3734468Y-6536508D02*
X3743991Y-6546031D01*
X3743991Y-6546031D02*
X3753515Y-6565079D01*
X3753515Y-6565079D02*
X3753515Y-6584127D01*
X3753515Y-6584127D02*
X3743991Y-6612698D01*
X3743991Y-6612698D02*
X3629706Y-6726984D01*
X3629706Y-6726984D02*
X3753515Y-6726984D01*
X3991610Y-6726984D02*
X3991610Y-6526984D01*
X4077325Y-6726984D02*
X4077325Y-6622222D01*
X4077325Y-6622222D02*
X4067801Y-6603174D01*
X4067801Y-6603174D02*
X4048753Y-6593650D01*
X4048753Y-6593650D02*
X4020182Y-6593650D01*
X4020182Y-6593650D02*
X4001134Y-6603174D01*
X4001134Y-6603174D02*
X3991610Y-6612698D01*
X4201134Y-6726984D02*
X4182087Y-6717460D01*
X4182087Y-6717460D02*
X4172563Y-6707936D01*
X4172563Y-6707936D02*
X4163039Y-6688888D01*
X4163039Y-6688888D02*
X4163039Y-6631746D01*
X4163039Y-6631746D02*
X4172563Y-6612698D01*
X4172563Y-6612698D02*
X4182087Y-6603174D01*
X4182087Y-6603174D02*
X4201134Y-6593650D01*
X4201134Y-6593650D02*
X4229706Y-6593650D01*
X4229706Y-6593650D02*
X4248753Y-6603174D01*
X4248753Y-6603174D02*
X4258277Y-6612698D01*
X4258277Y-6612698D02*
X4267801Y-6631746D01*
X4267801Y-6631746D02*
X4267801Y-6688888D01*
X4267801Y-6688888D02*
X4258277Y-6707936D01*
X4258277Y-6707936D02*
X4248753Y-6717460D01*
X4248753Y-6717460D02*
X4229706Y-6726984D01*
X4229706Y-6726984D02*
X4201134Y-6726984D01*
X4382087Y-6726984D02*
X4363039Y-6717460D01*
X4363039Y-6717460D02*
X4353515Y-6698412D01*
X4353515Y-6698412D02*
X4353515Y-6526984D01*
X4534468Y-6717460D02*
X4515420Y-6726984D01*
X4515420Y-6726984D02*
X4477325Y-6726984D01*
X4477325Y-6726984D02*
X4458277Y-6717460D01*
X4458277Y-6717460D02*
X4448753Y-6698412D01*
X4448753Y-6698412D02*
X4448753Y-6622222D01*
X4448753Y-6622222D02*
X4458277Y-6603174D01*
X4458277Y-6603174D02*
X4477325Y-6593650D01*
X4477325Y-6593650D02*
X4515420Y-6593650D01*
X4515420Y-6593650D02*
X4534468Y-6603174D01*
X4534468Y-6603174D02*
X4543992Y-6622222D01*
X4543992Y-6622222D02*
X4543992Y-6641269D01*
X4543992Y-6641269D02*
X4448753Y-6660317D01*
X4620182Y-6717460D02*
X4639230Y-6726984D01*
X4639230Y-6726984D02*
X4677325Y-6726984D01*
X4677325Y-6726984D02*
X4696373Y-6717460D01*
X4696373Y-6717460D02*
X4705896Y-6698412D01*
X4705896Y-6698412D02*
X4705896Y-6688888D01*
X4705896Y-6688888D02*
X4696373Y-6669841D01*
X4696373Y-6669841D02*
X4677325Y-6660317D01*
X4677325Y-6660317D02*
X4648753Y-6660317D01*
X4648753Y-6660317D02*
X4629706Y-6650793D01*
X4629706Y-6650793D02*
X4620182Y-6631746D01*
X4620182Y-6631746D02*
X4620182Y-6622222D01*
X4620182Y-6622222D02*
X4629706Y-6603174D01*
X4629706Y-6603174D02*
X4648753Y-6593650D01*
X4648753Y-6593650D02*
X4677325Y-6593650D01*
X4677325Y-6593650D02*
X4696373Y-6603174D01*
X4772563Y-6803174D02*
X4782087Y-6793650D01*
X4782087Y-6793650D02*
X4801134Y-6765079D01*
X4801134Y-6765079D02*
X4810658Y-6746031D01*
X4810658Y-6746031D02*
X4820182Y-6717460D01*
X4820182Y-6717460D02*
X4829706Y-6669841D01*
X4829706Y-6669841D02*
X4829706Y-6631746D01*
X4829706Y-6631746D02*
X4820182Y-6584127D01*
X4820182Y-6584127D02*
X4810658Y-6555555D01*
X4810658Y-6555555D02*
X4801134Y-6536508D01*
X4801134Y-6536508D02*
X4782087Y-6507936D01*
X4782087Y-6507936D02*
X4772563Y-6498412D01*
D12*
X-32500Y-6869500D02*
X-32500Y-6929500D01*
X-62500Y-6899500D02*
X-2500Y-6899500D01*
D11*
X296372Y-6790984D02*
X315420Y-6790984D01*
X315420Y-6790984D02*
X334467Y-6800508D01*
X334467Y-6800508D02*
X343991Y-6810031D01*
X343991Y-6810031D02*
X353515Y-6829079D01*
X353515Y-6829079D02*
X363039Y-6867174D01*
X363039Y-6867174D02*
X363039Y-6914793D01*
X363039Y-6914793D02*
X353515Y-6952888D01*
X353515Y-6952888D02*
X343991Y-6971936D01*
X343991Y-6971936D02*
X334467Y-6981460D01*
X334467Y-6981460D02*
X315420Y-6990984D01*
X315420Y-6990984D02*
X296372Y-6990984D01*
X296372Y-6990984D02*
X277324Y-6981460D01*
X277324Y-6981460D02*
X267801Y-6971936D01*
X267801Y-6971936D02*
X258277Y-6952888D01*
X258277Y-6952888D02*
X248753Y-6914793D01*
X248753Y-6914793D02*
X248753Y-6867174D01*
X248753Y-6867174D02*
X258277Y-6829079D01*
X258277Y-6829079D02*
X267801Y-6810031D01*
X267801Y-6810031D02*
X277324Y-6800508D01*
X277324Y-6800508D02*
X296372Y-6790984D01*
X448753Y-6971936D02*
X458277Y-6981460D01*
X458277Y-6981460D02*
X448753Y-6990984D01*
X448753Y-6990984D02*
X439229Y-6981460D01*
X439229Y-6981460D02*
X448753Y-6971936D01*
X448753Y-6971936D02*
X448753Y-6990984D01*
X629705Y-6790984D02*
X591610Y-6790984D01*
X591610Y-6790984D02*
X572563Y-6800508D01*
X572563Y-6800508D02*
X563039Y-6810031D01*
X563039Y-6810031D02*
X543991Y-6838603D01*
X543991Y-6838603D02*
X534467Y-6876698D01*
X534467Y-6876698D02*
X534467Y-6952888D01*
X534467Y-6952888D02*
X543991Y-6971936D01*
X543991Y-6971936D02*
X553515Y-6981460D01*
X553515Y-6981460D02*
X572563Y-6990984D01*
X572563Y-6990984D02*
X610658Y-6990984D01*
X610658Y-6990984D02*
X629705Y-6981460D01*
X629705Y-6981460D02*
X639229Y-6971936D01*
X639229Y-6971936D02*
X648753Y-6952888D01*
X648753Y-6952888D02*
X648753Y-6905269D01*
X648753Y-6905269D02*
X639229Y-6886222D01*
X639229Y-6886222D02*
X629705Y-6876698D01*
X629705Y-6876698D02*
X610658Y-6867174D01*
X610658Y-6867174D02*
X572563Y-6867174D01*
X572563Y-6867174D02*
X553515Y-6876698D01*
X553515Y-6876698D02*
X543991Y-6886222D01*
X543991Y-6886222D02*
X534467Y-6905269D01*
X772562Y-6790984D02*
X791610Y-6790984D01*
X791610Y-6790984D02*
X810658Y-6800508D01*
X810658Y-6800508D02*
X820182Y-6810031D01*
X820182Y-6810031D02*
X829705Y-6829079D01*
X829705Y-6829079D02*
X839229Y-6867174D01*
X839229Y-6867174D02*
X839229Y-6914793D01*
X839229Y-6914793D02*
X829705Y-6952888D01*
X829705Y-6952888D02*
X820182Y-6971936D01*
X820182Y-6971936D02*
X810658Y-6981460D01*
X810658Y-6981460D02*
X791610Y-6990984D01*
X791610Y-6990984D02*
X772562Y-6990984D01*
X772562Y-6990984D02*
X753515Y-6981460D01*
X753515Y-6981460D02*
X743991Y-6971936D01*
X743991Y-6971936D02*
X734467Y-6952888D01*
X734467Y-6952888D02*
X724943Y-6914793D01*
X724943Y-6914793D02*
X724943Y-6867174D01*
X724943Y-6867174D02*
X734467Y-6829079D01*
X734467Y-6829079D02*
X743991Y-6810031D01*
X743991Y-6810031D02*
X753515Y-6800508D01*
X753515Y-6800508D02*
X772562Y-6790984D01*
X963039Y-6790984D02*
X982086Y-6790984D01*
X982086Y-6790984D02*
X1001134Y-6800508D01*
X1001134Y-6800508D02*
X1010658Y-6810031D01*
X1010658Y-6810031D02*
X1020182Y-6829079D01*
X1020182Y-6829079D02*
X1029705Y-6867174D01*
X1029705Y-6867174D02*
X1029705Y-6914793D01*
X1029705Y-6914793D02*
X1020182Y-6952888D01*
X1020182Y-6952888D02*
X1010658Y-6971936D01*
X1010658Y-6971936D02*
X1001134Y-6981460D01*
X1001134Y-6981460D02*
X982086Y-6990984D01*
X982086Y-6990984D02*
X963039Y-6990984D01*
X963039Y-6990984D02*
X943991Y-6981460D01*
X943991Y-6981460D02*
X934467Y-6971936D01*
X934467Y-6971936D02*
X924943Y-6952888D01*
X924943Y-6952888D02*
X915420Y-6914793D01*
X915420Y-6914793D02*
X915420Y-6867174D01*
X915420Y-6867174D02*
X924943Y-6829079D01*
X924943Y-6829079D02*
X934467Y-6810031D01*
X934467Y-6810031D02*
X943991Y-6800508D01*
X943991Y-6800508D02*
X963039Y-6790984D01*
X1115420Y-6990984D02*
X1115420Y-6857650D01*
X1115420Y-6876698D02*
X1124944Y-6867174D01*
X1124944Y-6867174D02*
X1143991Y-6857650D01*
X1143991Y-6857650D02*
X1172563Y-6857650D01*
X1172563Y-6857650D02*
X1191610Y-6867174D01*
X1191610Y-6867174D02*
X1201134Y-6886222D01*
X1201134Y-6886222D02*
X1201134Y-6990984D01*
X1201134Y-6886222D02*
X1210658Y-6867174D01*
X1210658Y-6867174D02*
X1229705Y-6857650D01*
X1229705Y-6857650D02*
X1258277Y-6857650D01*
X1258277Y-6857650D02*
X1277325Y-6867174D01*
X1277325Y-6867174D02*
X1286848Y-6886222D01*
X1286848Y-6886222D02*
X1286848Y-6990984D01*
X1382086Y-6990984D02*
X1382086Y-6857650D01*
X1382086Y-6876698D02*
X1391610Y-6867174D01*
X1391610Y-6867174D02*
X1410658Y-6857650D01*
X1410658Y-6857650D02*
X1439229Y-6857650D01*
X1439229Y-6857650D02*
X1458277Y-6867174D01*
X1458277Y-6867174D02*
X1467801Y-6886222D01*
X1467801Y-6886222D02*
X1467801Y-6990984D01*
X1467801Y-6886222D02*
X1477324Y-6867174D01*
X1477324Y-6867174D02*
X1496372Y-6857650D01*
X1496372Y-6857650D02*
X1524943Y-6857650D01*
X1524943Y-6857650D02*
X1543991Y-6867174D01*
X1543991Y-6867174D02*
X1553515Y-6886222D01*
X1553515Y-6886222D02*
X1553515Y-6990984D01*
X1943991Y-6781460D02*
X1772563Y-7038603D01*
X2201134Y-6790984D02*
X2220182Y-6790984D01*
X2220182Y-6790984D02*
X2239229Y-6800508D01*
X2239229Y-6800508D02*
X2248753Y-6810031D01*
X2248753Y-6810031D02*
X2258277Y-6829079D01*
X2258277Y-6829079D02*
X2267801Y-6867174D01*
X2267801Y-6867174D02*
X2267801Y-6914793D01*
X2267801Y-6914793D02*
X2258277Y-6952888D01*
X2258277Y-6952888D02*
X2248753Y-6971936D01*
X2248753Y-6971936D02*
X2239229Y-6981460D01*
X2239229Y-6981460D02*
X2220182Y-6990984D01*
X2220182Y-6990984D02*
X2201134Y-6990984D01*
X2201134Y-6990984D02*
X2182087Y-6981460D01*
X2182087Y-6981460D02*
X2172563Y-6971936D01*
X2172563Y-6971936D02*
X2163039Y-6952888D01*
X2163039Y-6952888D02*
X2153515Y-6914793D01*
X2153515Y-6914793D02*
X2153515Y-6867174D01*
X2153515Y-6867174D02*
X2163039Y-6829079D01*
X2163039Y-6829079D02*
X2172563Y-6810031D01*
X2172563Y-6810031D02*
X2182087Y-6800508D01*
X2182087Y-6800508D02*
X2201134Y-6790984D01*
X2353515Y-6971936D02*
X2363039Y-6981460D01*
X2363039Y-6981460D02*
X2353515Y-6990984D01*
X2353515Y-6990984D02*
X2343991Y-6981460D01*
X2343991Y-6981460D02*
X2353515Y-6971936D01*
X2353515Y-6971936D02*
X2353515Y-6990984D01*
X2486848Y-6790984D02*
X2505896Y-6790984D01*
X2505896Y-6790984D02*
X2524944Y-6800508D01*
X2524944Y-6800508D02*
X2534468Y-6810031D01*
X2534468Y-6810031D02*
X2543991Y-6829079D01*
X2543991Y-6829079D02*
X2553515Y-6867174D01*
X2553515Y-6867174D02*
X2553515Y-6914793D01*
X2553515Y-6914793D02*
X2543991Y-6952888D01*
X2543991Y-6952888D02*
X2534468Y-6971936D01*
X2534468Y-6971936D02*
X2524944Y-6981460D01*
X2524944Y-6981460D02*
X2505896Y-6990984D01*
X2505896Y-6990984D02*
X2486848Y-6990984D01*
X2486848Y-6990984D02*
X2467801Y-6981460D01*
X2467801Y-6981460D02*
X2458277Y-6971936D01*
X2458277Y-6971936D02*
X2448753Y-6952888D01*
X2448753Y-6952888D02*
X2439229Y-6914793D01*
X2439229Y-6914793D02*
X2439229Y-6867174D01*
X2439229Y-6867174D02*
X2448753Y-6829079D01*
X2448753Y-6829079D02*
X2458277Y-6810031D01*
X2458277Y-6810031D02*
X2467801Y-6800508D01*
X2467801Y-6800508D02*
X2486848Y-6790984D01*
X2629706Y-6810031D02*
X2639229Y-6800508D01*
X2639229Y-6800508D02*
X2658277Y-6790984D01*
X2658277Y-6790984D02*
X2705896Y-6790984D01*
X2705896Y-6790984D02*
X2724944Y-6800508D01*
X2724944Y-6800508D02*
X2734468Y-6810031D01*
X2734468Y-6810031D02*
X2743991Y-6829079D01*
X2743991Y-6829079D02*
X2743991Y-6848127D01*
X2743991Y-6848127D02*
X2734468Y-6876698D01*
X2734468Y-6876698D02*
X2620182Y-6990984D01*
X2620182Y-6990984D02*
X2743991Y-6990984D01*
X2810658Y-6790984D02*
X2934467Y-6790984D01*
X2934467Y-6790984D02*
X2867801Y-6867174D01*
X2867801Y-6867174D02*
X2896372Y-6867174D01*
X2896372Y-6867174D02*
X2915420Y-6876698D01*
X2915420Y-6876698D02*
X2924944Y-6886222D01*
X2924944Y-6886222D02*
X2934467Y-6905269D01*
X2934467Y-6905269D02*
X2934467Y-6952888D01*
X2934467Y-6952888D02*
X2924944Y-6971936D01*
X2924944Y-6971936D02*
X2915420Y-6981460D01*
X2915420Y-6981460D02*
X2896372Y-6990984D01*
X2896372Y-6990984D02*
X2839229Y-6990984D01*
X2839229Y-6990984D02*
X2820182Y-6981460D01*
X2820182Y-6981460D02*
X2810658Y-6971936D01*
X3105896Y-6790984D02*
X3067801Y-6790984D01*
X3067801Y-6790984D02*
X3048753Y-6800508D01*
X3048753Y-6800508D02*
X3039229Y-6810031D01*
X3039229Y-6810031D02*
X3020182Y-6838603D01*
X3020182Y-6838603D02*
X3010658Y-6876698D01*
X3010658Y-6876698D02*
X3010658Y-6952888D01*
X3010658Y-6952888D02*
X3020182Y-6971936D01*
X3020182Y-6971936D02*
X3029706Y-6981460D01*
X3029706Y-6981460D02*
X3048753Y-6990984D01*
X3048753Y-6990984D02*
X3086848Y-6990984D01*
X3086848Y-6990984D02*
X3105896Y-6981460D01*
X3105896Y-6981460D02*
X3115420Y-6971936D01*
X3115420Y-6971936D02*
X3124944Y-6952888D01*
X3124944Y-6952888D02*
X3124944Y-6905269D01*
X3124944Y-6905269D02*
X3115420Y-6886222D01*
X3115420Y-6886222D02*
X3105896Y-6876698D01*
X3105896Y-6876698D02*
X3086848Y-6867174D01*
X3086848Y-6867174D02*
X3048753Y-6867174D01*
X3048753Y-6867174D02*
X3029706Y-6876698D01*
X3029706Y-6876698D02*
X3020182Y-6886222D01*
X3020182Y-6886222D02*
X3010658Y-6905269D01*
X3201134Y-6790984D02*
X3201134Y-6829079D01*
X3277325Y-6790984D02*
X3277325Y-6829079D01*
X3572563Y-7067174D02*
X3563039Y-7057650D01*
X3563039Y-7057650D02*
X3543991Y-7029079D01*
X3543991Y-7029079D02*
X3534468Y-7010031D01*
X3534468Y-7010031D02*
X3524944Y-6981460D01*
X3524944Y-6981460D02*
X3515420Y-6933841D01*
X3515420Y-6933841D02*
X3515420Y-6895746D01*
X3515420Y-6895746D02*
X3524944Y-6848127D01*
X3524944Y-6848127D02*
X3534468Y-6819555D01*
X3534468Y-6819555D02*
X3543991Y-6800508D01*
X3543991Y-6800508D02*
X3563039Y-6771936D01*
X3563039Y-6771936D02*
X3572563Y-6762412D01*
X3686848Y-6790984D02*
X3705896Y-6790984D01*
X3705896Y-6790984D02*
X3724944Y-6800508D01*
X3724944Y-6800508D02*
X3734468Y-6810031D01*
X3734468Y-6810031D02*
X3743991Y-6829079D01*
X3743991Y-6829079D02*
X3753515Y-6867174D01*
X3753515Y-6867174D02*
X3753515Y-6914793D01*
X3753515Y-6914793D02*
X3743991Y-6952888D01*
X3743991Y-6952888D02*
X3734468Y-6971936D01*
X3734468Y-6971936D02*
X3724944Y-6981460D01*
X3724944Y-6981460D02*
X3705896Y-6990984D01*
X3705896Y-6990984D02*
X3686848Y-6990984D01*
X3686848Y-6990984D02*
X3667801Y-6981460D01*
X3667801Y-6981460D02*
X3658277Y-6971936D01*
X3658277Y-6971936D02*
X3648753Y-6952888D01*
X3648753Y-6952888D02*
X3639229Y-6914793D01*
X3639229Y-6914793D02*
X3639229Y-6867174D01*
X3639229Y-6867174D02*
X3648753Y-6829079D01*
X3648753Y-6829079D02*
X3658277Y-6810031D01*
X3658277Y-6810031D02*
X3667801Y-6800508D01*
X3667801Y-6800508D02*
X3686848Y-6790984D01*
X3991610Y-6990984D02*
X3991610Y-6790984D01*
X4077325Y-6990984D02*
X4077325Y-6886222D01*
X4077325Y-6886222D02*
X4067801Y-6867174D01*
X4067801Y-6867174D02*
X4048753Y-6857650D01*
X4048753Y-6857650D02*
X4020182Y-6857650D01*
X4020182Y-6857650D02*
X4001134Y-6867174D01*
X4001134Y-6867174D02*
X3991610Y-6876698D01*
X4201134Y-6990984D02*
X4182087Y-6981460D01*
X4182087Y-6981460D02*
X4172563Y-6971936D01*
X4172563Y-6971936D02*
X4163039Y-6952888D01*
X4163039Y-6952888D02*
X4163039Y-6895746D01*
X4163039Y-6895746D02*
X4172563Y-6876698D01*
X4172563Y-6876698D02*
X4182087Y-6867174D01*
X4182087Y-6867174D02*
X4201134Y-6857650D01*
X4201134Y-6857650D02*
X4229706Y-6857650D01*
X4229706Y-6857650D02*
X4248753Y-6867174D01*
X4248753Y-6867174D02*
X4258277Y-6876698D01*
X4258277Y-6876698D02*
X4267801Y-6895746D01*
X4267801Y-6895746D02*
X4267801Y-6952888D01*
X4267801Y-6952888D02*
X4258277Y-6971936D01*
X4258277Y-6971936D02*
X4248753Y-6981460D01*
X4248753Y-6981460D02*
X4229706Y-6990984D01*
X4229706Y-6990984D02*
X4201134Y-6990984D01*
X4382087Y-6990984D02*
X4363039Y-6981460D01*
X4363039Y-6981460D02*
X4353515Y-6962412D01*
X4353515Y-6962412D02*
X4353515Y-6790984D01*
X4534468Y-6981460D02*
X4515420Y-6990984D01*
X4515420Y-6990984D02*
X4477325Y-6990984D01*
X4477325Y-6990984D02*
X4458277Y-6981460D01*
X4458277Y-6981460D02*
X4448753Y-6962412D01*
X4448753Y-6962412D02*
X4448753Y-6886222D01*
X4448753Y-6886222D02*
X4458277Y-6867174D01*
X4458277Y-6867174D02*
X4477325Y-6857650D01*
X4477325Y-6857650D02*
X4515420Y-6857650D01*
X4515420Y-6857650D02*
X4534468Y-6867174D01*
X4534468Y-6867174D02*
X4543992Y-6886222D01*
X4543992Y-6886222D02*
X4543992Y-6905269D01*
X4543992Y-6905269D02*
X4448753Y-6924317D01*
X4620182Y-6981460D02*
X4639230Y-6990984D01*
X4639230Y-6990984D02*
X4677325Y-6990984D01*
X4677325Y-6990984D02*
X4696373Y-6981460D01*
X4696373Y-6981460D02*
X4705896Y-6962412D01*
X4705896Y-6962412D02*
X4705896Y-6952888D01*
X4705896Y-6952888D02*
X4696373Y-6933841D01*
X4696373Y-6933841D02*
X4677325Y-6924317D01*
X4677325Y-6924317D02*
X4648753Y-6924317D01*
X4648753Y-6924317D02*
X4629706Y-6914793D01*
X4629706Y-6914793D02*
X4620182Y-6895746D01*
X4620182Y-6895746D02*
X4620182Y-6886222D01*
X4620182Y-6886222D02*
X4629706Y-6867174D01*
X4629706Y-6867174D02*
X4648753Y-6857650D01*
X4648753Y-6857650D02*
X4677325Y-6857650D01*
X4677325Y-6857650D02*
X4696373Y-6867174D01*
X4943992Y-6914793D02*
X5096373Y-6914793D01*
X5020182Y-6990984D02*
X5020182Y-6838603D01*
X5429706Y-6857650D02*
X5429706Y-6990984D01*
X5382087Y-6781460D02*
X5334468Y-6924317D01*
X5334468Y-6924317D02*
X5458277Y-6924317D01*
X5677325Y-6981460D02*
X5696373Y-6990984D01*
X5696373Y-6990984D02*
X5734468Y-6990984D01*
X5734468Y-6990984D02*
X5753515Y-6981460D01*
X5753515Y-6981460D02*
X5763039Y-6962412D01*
X5763039Y-6962412D02*
X5763039Y-6952888D01*
X5763039Y-6952888D02*
X5753515Y-6933841D01*
X5753515Y-6933841D02*
X5734468Y-6924317D01*
X5734468Y-6924317D02*
X5705896Y-6924317D01*
X5705896Y-6924317D02*
X5686849Y-6914793D01*
X5686849Y-6914793D02*
X5677325Y-6895746D01*
X5677325Y-6895746D02*
X5677325Y-6886222D01*
X5677325Y-6886222D02*
X5686849Y-6867174D01*
X5686849Y-6867174D02*
X5705896Y-6857650D01*
X5705896Y-6857650D02*
X5734468Y-6857650D01*
X5734468Y-6857650D02*
X5753515Y-6867174D01*
X5877325Y-6990984D02*
X5858277Y-6981460D01*
X5858277Y-6981460D02*
X5848754Y-6962412D01*
X5848754Y-6962412D02*
X5848754Y-6790984D01*
X5982087Y-6990984D02*
X5963039Y-6981460D01*
X5963039Y-6981460D02*
X5953515Y-6971936D01*
X5953515Y-6971936D02*
X5943992Y-6952888D01*
X5943992Y-6952888D02*
X5943992Y-6895746D01*
X5943992Y-6895746D02*
X5953515Y-6876698D01*
X5953515Y-6876698D02*
X5963039Y-6867174D01*
X5963039Y-6867174D02*
X5982087Y-6857650D01*
X5982087Y-6857650D02*
X6010658Y-6857650D01*
X6010658Y-6857650D02*
X6029706Y-6867174D01*
X6029706Y-6867174D02*
X6039230Y-6876698D01*
X6039230Y-6876698D02*
X6048754Y-6895746D01*
X6048754Y-6895746D02*
X6048754Y-6952888D01*
X6048754Y-6952888D02*
X6039230Y-6971936D01*
X6039230Y-6971936D02*
X6029706Y-6981460D01*
X6029706Y-6981460D02*
X6010658Y-6990984D01*
X6010658Y-6990984D02*
X5982087Y-6990984D01*
X6105896Y-6857650D02*
X6182087Y-6857650D01*
X6134468Y-6790984D02*
X6134468Y-6962412D01*
X6134468Y-6962412D02*
X6143992Y-6981460D01*
X6143992Y-6981460D02*
X6163039Y-6990984D01*
X6163039Y-6990984D02*
X6182087Y-6990984D01*
X6239230Y-6981460D02*
X6258277Y-6990984D01*
X6258277Y-6990984D02*
X6296373Y-6990984D01*
X6296373Y-6990984D02*
X6315420Y-6981460D01*
X6315420Y-6981460D02*
X6324944Y-6962412D01*
X6324944Y-6962412D02*
X6324944Y-6952888D01*
X6324944Y-6952888D02*
X6315420Y-6933841D01*
X6315420Y-6933841D02*
X6296373Y-6924317D01*
X6296373Y-6924317D02*
X6267801Y-6924317D01*
X6267801Y-6924317D02*
X6248754Y-6914793D01*
X6248754Y-6914793D02*
X6239230Y-6895746D01*
X6239230Y-6895746D02*
X6239230Y-6886222D01*
X6239230Y-6886222D02*
X6248754Y-6867174D01*
X6248754Y-6867174D02*
X6267801Y-6857650D01*
X6267801Y-6857650D02*
X6296373Y-6857650D01*
X6296373Y-6857650D02*
X6315420Y-6867174D01*
X6391611Y-7067174D02*
X6401135Y-7057650D01*
X6401135Y-7057650D02*
X6420182Y-7029079D01*
X6420182Y-7029079D02*
X6429706Y-7010031D01*
X6429706Y-7010031D02*
X6439230Y-6981460D01*
X6439230Y-6981460D02*
X6448754Y-6933841D01*
X6448754Y-6933841D02*
X6448754Y-6895746D01*
X6448754Y-6895746D02*
X6439230Y-6848127D01*
X6439230Y-6848127D02*
X6429706Y-6819555D01*
X6429706Y-6819555D02*
X6420182Y-6800508D01*
X6420182Y-6800508D02*
X6401135Y-6771936D01*
X6401135Y-6771936D02*
X6391611Y-6762412D01*
D12*
X-13483Y-7190017D02*
X-13483Y-7136983D01*
X-66517Y-7136983D01*
X-66517Y-7190017D01*
X-13483Y-7190017D01*
D11*
X296372Y-7054984D02*
X315420Y-7054984D01*
X315420Y-7054984D02*
X334467Y-7064508D01*
X334467Y-7064508D02*
X343991Y-7074031D01*
X343991Y-7074031D02*
X353515Y-7093079D01*
X353515Y-7093079D02*
X363039Y-7131174D01*
X363039Y-7131174D02*
X363039Y-7178793D01*
X363039Y-7178793D02*
X353515Y-7216888D01*
X353515Y-7216888D02*
X343991Y-7235936D01*
X343991Y-7235936D02*
X334467Y-7245460D01*
X334467Y-7245460D02*
X315420Y-7254984D01*
X315420Y-7254984D02*
X296372Y-7254984D01*
X296372Y-7254984D02*
X277324Y-7245460D01*
X277324Y-7245460D02*
X267801Y-7235936D01*
X267801Y-7235936D02*
X258277Y-7216888D01*
X258277Y-7216888D02*
X248753Y-7178793D01*
X248753Y-7178793D02*
X248753Y-7131174D01*
X248753Y-7131174D02*
X258277Y-7093079D01*
X258277Y-7093079D02*
X267801Y-7074031D01*
X267801Y-7074031D02*
X277324Y-7064508D01*
X277324Y-7064508D02*
X296372Y-7054984D01*
X448753Y-7235936D02*
X458277Y-7245460D01*
X458277Y-7245460D02*
X448753Y-7254984D01*
X448753Y-7254984D02*
X439229Y-7245460D01*
X439229Y-7245460D02*
X448753Y-7235936D01*
X448753Y-7235936D02*
X448753Y-7254984D01*
X524944Y-7054984D02*
X658277Y-7054984D01*
X658277Y-7054984D02*
X572563Y-7254984D01*
X829705Y-7054984D02*
X734467Y-7054984D01*
X734467Y-7054984D02*
X724943Y-7150222D01*
X724943Y-7150222D02*
X734467Y-7140698D01*
X734467Y-7140698D02*
X753515Y-7131174D01*
X753515Y-7131174D02*
X801134Y-7131174D01*
X801134Y-7131174D02*
X820182Y-7140698D01*
X820182Y-7140698D02*
X829705Y-7150222D01*
X829705Y-7150222D02*
X839229Y-7169269D01*
X839229Y-7169269D02*
X839229Y-7216888D01*
X839229Y-7216888D02*
X829705Y-7235936D01*
X829705Y-7235936D02*
X820182Y-7245460D01*
X820182Y-7245460D02*
X801134Y-7254984D01*
X801134Y-7254984D02*
X753515Y-7254984D01*
X753515Y-7254984D02*
X734467Y-7245460D01*
X734467Y-7245460D02*
X724943Y-7235936D01*
X963039Y-7054984D02*
X982086Y-7054984D01*
X982086Y-7054984D02*
X1001134Y-7064508D01*
X1001134Y-7064508D02*
X1010658Y-7074031D01*
X1010658Y-7074031D02*
X1020182Y-7093079D01*
X1020182Y-7093079D02*
X1029705Y-7131174D01*
X1029705Y-7131174D02*
X1029705Y-7178793D01*
X1029705Y-7178793D02*
X1020182Y-7216888D01*
X1020182Y-7216888D02*
X1010658Y-7235936D01*
X1010658Y-7235936D02*
X1001134Y-7245460D01*
X1001134Y-7245460D02*
X982086Y-7254984D01*
X982086Y-7254984D02*
X963039Y-7254984D01*
X963039Y-7254984D02*
X943991Y-7245460D01*
X943991Y-7245460D02*
X934467Y-7235936D01*
X934467Y-7235936D02*
X924943Y-7216888D01*
X924943Y-7216888D02*
X915420Y-7178793D01*
X915420Y-7178793D02*
X915420Y-7131174D01*
X915420Y-7131174D02*
X924943Y-7093079D01*
X924943Y-7093079D02*
X934467Y-7074031D01*
X934467Y-7074031D02*
X943991Y-7064508D01*
X943991Y-7064508D02*
X963039Y-7054984D01*
X1115420Y-7254984D02*
X1115420Y-7121650D01*
X1115420Y-7140698D02*
X1124944Y-7131174D01*
X1124944Y-7131174D02*
X1143991Y-7121650D01*
X1143991Y-7121650D02*
X1172563Y-7121650D01*
X1172563Y-7121650D02*
X1191610Y-7131174D01*
X1191610Y-7131174D02*
X1201134Y-7150222D01*
X1201134Y-7150222D02*
X1201134Y-7254984D01*
X1201134Y-7150222D02*
X1210658Y-7131174D01*
X1210658Y-7131174D02*
X1229705Y-7121650D01*
X1229705Y-7121650D02*
X1258277Y-7121650D01*
X1258277Y-7121650D02*
X1277325Y-7131174D01*
X1277325Y-7131174D02*
X1286848Y-7150222D01*
X1286848Y-7150222D02*
X1286848Y-7254984D01*
X1382086Y-7254984D02*
X1382086Y-7121650D01*
X1382086Y-7140698D02*
X1391610Y-7131174D01*
X1391610Y-7131174D02*
X1410658Y-7121650D01*
X1410658Y-7121650D02*
X1439229Y-7121650D01*
X1439229Y-7121650D02*
X1458277Y-7131174D01*
X1458277Y-7131174D02*
X1467801Y-7150222D01*
X1467801Y-7150222D02*
X1467801Y-7254984D01*
X1467801Y-7150222D02*
X1477324Y-7131174D01*
X1477324Y-7131174D02*
X1496372Y-7121650D01*
X1496372Y-7121650D02*
X1524943Y-7121650D01*
X1524943Y-7121650D02*
X1543991Y-7131174D01*
X1543991Y-7131174D02*
X1553515Y-7150222D01*
X1553515Y-7150222D02*
X1553515Y-7254984D01*
X1943991Y-7045460D02*
X1772563Y-7302603D01*
X2201134Y-7054984D02*
X2220182Y-7054984D01*
X2220182Y-7054984D02*
X2239229Y-7064508D01*
X2239229Y-7064508D02*
X2248753Y-7074031D01*
X2248753Y-7074031D02*
X2258277Y-7093079D01*
X2258277Y-7093079D02*
X2267801Y-7131174D01*
X2267801Y-7131174D02*
X2267801Y-7178793D01*
X2267801Y-7178793D02*
X2258277Y-7216888D01*
X2258277Y-7216888D02*
X2248753Y-7235936D01*
X2248753Y-7235936D02*
X2239229Y-7245460D01*
X2239229Y-7245460D02*
X2220182Y-7254984D01*
X2220182Y-7254984D02*
X2201134Y-7254984D01*
X2201134Y-7254984D02*
X2182087Y-7245460D01*
X2182087Y-7245460D02*
X2172563Y-7235936D01*
X2172563Y-7235936D02*
X2163039Y-7216888D01*
X2163039Y-7216888D02*
X2153515Y-7178793D01*
X2153515Y-7178793D02*
X2153515Y-7131174D01*
X2153515Y-7131174D02*
X2163039Y-7093079D01*
X2163039Y-7093079D02*
X2172563Y-7074031D01*
X2172563Y-7074031D02*
X2182087Y-7064508D01*
X2182087Y-7064508D02*
X2201134Y-7054984D01*
X2353515Y-7235936D02*
X2363039Y-7245460D01*
X2363039Y-7245460D02*
X2353515Y-7254984D01*
X2353515Y-7254984D02*
X2343991Y-7245460D01*
X2343991Y-7245460D02*
X2353515Y-7235936D01*
X2353515Y-7235936D02*
X2353515Y-7254984D01*
X2486848Y-7054984D02*
X2505896Y-7054984D01*
X2505896Y-7054984D02*
X2524944Y-7064508D01*
X2524944Y-7064508D02*
X2534468Y-7074031D01*
X2534468Y-7074031D02*
X2543991Y-7093079D01*
X2543991Y-7093079D02*
X2553515Y-7131174D01*
X2553515Y-7131174D02*
X2553515Y-7178793D01*
X2553515Y-7178793D02*
X2543991Y-7216888D01*
X2543991Y-7216888D02*
X2534468Y-7235936D01*
X2534468Y-7235936D02*
X2524944Y-7245460D01*
X2524944Y-7245460D02*
X2505896Y-7254984D01*
X2505896Y-7254984D02*
X2486848Y-7254984D01*
X2486848Y-7254984D02*
X2467801Y-7245460D01*
X2467801Y-7245460D02*
X2458277Y-7235936D01*
X2458277Y-7235936D02*
X2448753Y-7216888D01*
X2448753Y-7216888D02*
X2439229Y-7178793D01*
X2439229Y-7178793D02*
X2439229Y-7131174D01*
X2439229Y-7131174D02*
X2448753Y-7093079D01*
X2448753Y-7093079D02*
X2458277Y-7074031D01*
X2458277Y-7074031D02*
X2467801Y-7064508D01*
X2467801Y-7064508D02*
X2486848Y-7054984D01*
X2629706Y-7074031D02*
X2639229Y-7064508D01*
X2639229Y-7064508D02*
X2658277Y-7054984D01*
X2658277Y-7054984D02*
X2705896Y-7054984D01*
X2705896Y-7054984D02*
X2724944Y-7064508D01*
X2724944Y-7064508D02*
X2734468Y-7074031D01*
X2734468Y-7074031D02*
X2743991Y-7093079D01*
X2743991Y-7093079D02*
X2743991Y-7112127D01*
X2743991Y-7112127D02*
X2734468Y-7140698D01*
X2734468Y-7140698D02*
X2620182Y-7254984D01*
X2620182Y-7254984D02*
X2743991Y-7254984D01*
X2839229Y-7254984D02*
X2877325Y-7254984D01*
X2877325Y-7254984D02*
X2896372Y-7245460D01*
X2896372Y-7245460D02*
X2905896Y-7235936D01*
X2905896Y-7235936D02*
X2924944Y-7207365D01*
X2924944Y-7207365D02*
X2934467Y-7169269D01*
X2934467Y-7169269D02*
X2934467Y-7093079D01*
X2934467Y-7093079D02*
X2924944Y-7074031D01*
X2924944Y-7074031D02*
X2915420Y-7064508D01*
X2915420Y-7064508D02*
X2896372Y-7054984D01*
X2896372Y-7054984D02*
X2858277Y-7054984D01*
X2858277Y-7054984D02*
X2839229Y-7064508D01*
X2839229Y-7064508D02*
X2829706Y-7074031D01*
X2829706Y-7074031D02*
X2820182Y-7093079D01*
X2820182Y-7093079D02*
X2820182Y-7140698D01*
X2820182Y-7140698D02*
X2829706Y-7159746D01*
X2829706Y-7159746D02*
X2839229Y-7169269D01*
X2839229Y-7169269D02*
X2858277Y-7178793D01*
X2858277Y-7178793D02*
X2896372Y-7178793D01*
X2896372Y-7178793D02*
X2915420Y-7169269D01*
X2915420Y-7169269D02*
X2924944Y-7159746D01*
X2924944Y-7159746D02*
X2934467Y-7140698D01*
X3115420Y-7054984D02*
X3020182Y-7054984D01*
X3020182Y-7054984D02*
X3010658Y-7150222D01*
X3010658Y-7150222D02*
X3020182Y-7140698D01*
X3020182Y-7140698D02*
X3039229Y-7131174D01*
X3039229Y-7131174D02*
X3086848Y-7131174D01*
X3086848Y-7131174D02*
X3105896Y-7140698D01*
X3105896Y-7140698D02*
X3115420Y-7150222D01*
X3115420Y-7150222D02*
X3124944Y-7169269D01*
X3124944Y-7169269D02*
X3124944Y-7216888D01*
X3124944Y-7216888D02*
X3115420Y-7235936D01*
X3115420Y-7235936D02*
X3105896Y-7245460D01*
X3105896Y-7245460D02*
X3086848Y-7254984D01*
X3086848Y-7254984D02*
X3039229Y-7254984D01*
X3039229Y-7254984D02*
X3020182Y-7245460D01*
X3020182Y-7245460D02*
X3010658Y-7235936D01*
X3201134Y-7054984D02*
X3201134Y-7093079D01*
X3277325Y-7054984D02*
X3277325Y-7093079D01*
X3572563Y-7331174D02*
X3563039Y-7321650D01*
X3563039Y-7321650D02*
X3543991Y-7293079D01*
X3543991Y-7293079D02*
X3534468Y-7274031D01*
X3534468Y-7274031D02*
X3524944Y-7245460D01*
X3524944Y-7245460D02*
X3515420Y-7197841D01*
X3515420Y-7197841D02*
X3515420Y-7159746D01*
X3515420Y-7159746D02*
X3524944Y-7112127D01*
X3524944Y-7112127D02*
X3534468Y-7083555D01*
X3534468Y-7083555D02*
X3543991Y-7064508D01*
X3543991Y-7064508D02*
X3563039Y-7035936D01*
X3563039Y-7035936D02*
X3572563Y-7026412D01*
X3639229Y-7074031D02*
X3648753Y-7064508D01*
X3648753Y-7064508D02*
X3667801Y-7054984D01*
X3667801Y-7054984D02*
X3715420Y-7054984D01*
X3715420Y-7054984D02*
X3734468Y-7064508D01*
X3734468Y-7064508D02*
X3743991Y-7074031D01*
X3743991Y-7074031D02*
X3753515Y-7093079D01*
X3753515Y-7093079D02*
X3753515Y-7112127D01*
X3753515Y-7112127D02*
X3743991Y-7140698D01*
X3743991Y-7140698D02*
X3629706Y-7254984D01*
X3629706Y-7254984D02*
X3753515Y-7254984D01*
X3924944Y-7121650D02*
X3924944Y-7254984D01*
X3877325Y-7045460D02*
X3829706Y-7188317D01*
X3829706Y-7188317D02*
X3953515Y-7188317D01*
X4182087Y-7254984D02*
X4182087Y-7054984D01*
X4267801Y-7254984D02*
X4267801Y-7150222D01*
X4267801Y-7150222D02*
X4258277Y-7131174D01*
X4258277Y-7131174D02*
X4239230Y-7121650D01*
X4239230Y-7121650D02*
X4210658Y-7121650D01*
X4210658Y-7121650D02*
X4191610Y-7131174D01*
X4191610Y-7131174D02*
X4182087Y-7140698D01*
X4391611Y-7254984D02*
X4372563Y-7245460D01*
X4372563Y-7245460D02*
X4363039Y-7235936D01*
X4363039Y-7235936D02*
X4353515Y-7216888D01*
X4353515Y-7216888D02*
X4353515Y-7159746D01*
X4353515Y-7159746D02*
X4363039Y-7140698D01*
X4363039Y-7140698D02*
X4372563Y-7131174D01*
X4372563Y-7131174D02*
X4391611Y-7121650D01*
X4391611Y-7121650D02*
X4420182Y-7121650D01*
X4420182Y-7121650D02*
X4439230Y-7131174D01*
X4439230Y-7131174D02*
X4448753Y-7140698D01*
X4448753Y-7140698D02*
X4458277Y-7159746D01*
X4458277Y-7159746D02*
X4458277Y-7216888D01*
X4458277Y-7216888D02*
X4448753Y-7235936D01*
X4448753Y-7235936D02*
X4439230Y-7245460D01*
X4439230Y-7245460D02*
X4420182Y-7254984D01*
X4420182Y-7254984D02*
X4391611Y-7254984D01*
X4572563Y-7254984D02*
X4553515Y-7245460D01*
X4553515Y-7245460D02*
X4543992Y-7226412D01*
X4543992Y-7226412D02*
X4543992Y-7054984D01*
X4724944Y-7245460D02*
X4705896Y-7254984D01*
X4705896Y-7254984D02*
X4667801Y-7254984D01*
X4667801Y-7254984D02*
X4648753Y-7245460D01*
X4648753Y-7245460D02*
X4639230Y-7226412D01*
X4639230Y-7226412D02*
X4639230Y-7150222D01*
X4639230Y-7150222D02*
X4648753Y-7131174D01*
X4648753Y-7131174D02*
X4667801Y-7121650D01*
X4667801Y-7121650D02*
X4705896Y-7121650D01*
X4705896Y-7121650D02*
X4724944Y-7131174D01*
X4724944Y-7131174D02*
X4734468Y-7150222D01*
X4734468Y-7150222D02*
X4734468Y-7169269D01*
X4734468Y-7169269D02*
X4639230Y-7188317D01*
X4810658Y-7245460D02*
X4829706Y-7254984D01*
X4829706Y-7254984D02*
X4867801Y-7254984D01*
X4867801Y-7254984D02*
X4886849Y-7245460D01*
X4886849Y-7245460D02*
X4896373Y-7226412D01*
X4896373Y-7226412D02*
X4896373Y-7216888D01*
X4896373Y-7216888D02*
X4886849Y-7197841D01*
X4886849Y-7197841D02*
X4867801Y-7188317D01*
X4867801Y-7188317D02*
X4839230Y-7188317D01*
X4839230Y-7188317D02*
X4820182Y-7178793D01*
X4820182Y-7178793D02*
X4810658Y-7159746D01*
X4810658Y-7159746D02*
X4810658Y-7150222D01*
X4810658Y-7150222D02*
X4820182Y-7131174D01*
X4820182Y-7131174D02*
X4839230Y-7121650D01*
X4839230Y-7121650D02*
X4867801Y-7121650D01*
X4867801Y-7121650D02*
X4886849Y-7131174D01*
X4963039Y-7331174D02*
X4972563Y-7321650D01*
X4972563Y-7321650D02*
X4991611Y-7293079D01*
X4991611Y-7293079D02*
X5001134Y-7274031D01*
X5001134Y-7274031D02*
X5010658Y-7245460D01*
X5010658Y-7245460D02*
X5020182Y-7197841D01*
X5020182Y-7197841D02*
X5020182Y-7159746D01*
X5020182Y-7159746D02*
X5010658Y-7112127D01*
X5010658Y-7112127D02*
X5001134Y-7083555D01*
X5001134Y-7083555D02*
X4991611Y-7064508D01*
X4991611Y-7064508D02*
X4972563Y-7035936D01*
X4972563Y-7035936D02*
X4963039Y-7026412D01*
D12*
X-52500Y-7477500D02*
X-2500Y-7427500D01*
X-52500Y-7377500D01*
X-102500Y-7427500D01*
X-52500Y-7477500D01*
D11*
X363039Y-7518984D02*
X248753Y-7518984D01*
X305896Y-7518984D02*
X305896Y-7318984D01*
X305896Y-7318984D02*
X286848Y-7347555D01*
X286848Y-7347555D02*
X267801Y-7366603D01*
X267801Y-7366603D02*
X248753Y-7376127D01*
X448753Y-7499936D02*
X458277Y-7509460D01*
X458277Y-7509460D02*
X448753Y-7518984D01*
X448753Y-7518984D02*
X439229Y-7509460D01*
X439229Y-7509460D02*
X448753Y-7499936D01*
X448753Y-7499936D02*
X448753Y-7518984D01*
X582086Y-7318984D02*
X601134Y-7318984D01*
X601134Y-7318984D02*
X620182Y-7328508D01*
X620182Y-7328508D02*
X629705Y-7338031D01*
X629705Y-7338031D02*
X639229Y-7357079D01*
X639229Y-7357079D02*
X648753Y-7395174D01*
X648753Y-7395174D02*
X648753Y-7442793D01*
X648753Y-7442793D02*
X639229Y-7480888D01*
X639229Y-7480888D02*
X629705Y-7499936D01*
X629705Y-7499936D02*
X620182Y-7509460D01*
X620182Y-7509460D02*
X601134Y-7518984D01*
X601134Y-7518984D02*
X582086Y-7518984D01*
X582086Y-7518984D02*
X563039Y-7509460D01*
X563039Y-7509460D02*
X553515Y-7499936D01*
X553515Y-7499936D02*
X543991Y-7480888D01*
X543991Y-7480888D02*
X534467Y-7442793D01*
X534467Y-7442793D02*
X534467Y-7395174D01*
X534467Y-7395174D02*
X543991Y-7357079D01*
X543991Y-7357079D02*
X553515Y-7338031D01*
X553515Y-7338031D02*
X563039Y-7328508D01*
X563039Y-7328508D02*
X582086Y-7318984D01*
X772562Y-7318984D02*
X791610Y-7318984D01*
X791610Y-7318984D02*
X810658Y-7328508D01*
X810658Y-7328508D02*
X820182Y-7338031D01*
X820182Y-7338031D02*
X829705Y-7357079D01*
X829705Y-7357079D02*
X839229Y-7395174D01*
X839229Y-7395174D02*
X839229Y-7442793D01*
X839229Y-7442793D02*
X829705Y-7480888D01*
X829705Y-7480888D02*
X820182Y-7499936D01*
X820182Y-7499936D02*
X810658Y-7509460D01*
X810658Y-7509460D02*
X791610Y-7518984D01*
X791610Y-7518984D02*
X772562Y-7518984D01*
X772562Y-7518984D02*
X753515Y-7509460D01*
X753515Y-7509460D02*
X743991Y-7499936D01*
X743991Y-7499936D02*
X734467Y-7480888D01*
X734467Y-7480888D02*
X724943Y-7442793D01*
X724943Y-7442793D02*
X724943Y-7395174D01*
X724943Y-7395174D02*
X734467Y-7357079D01*
X734467Y-7357079D02*
X743991Y-7338031D01*
X743991Y-7338031D02*
X753515Y-7328508D01*
X753515Y-7328508D02*
X772562Y-7318984D01*
X963039Y-7318984D02*
X982086Y-7318984D01*
X982086Y-7318984D02*
X1001134Y-7328508D01*
X1001134Y-7328508D02*
X1010658Y-7338031D01*
X1010658Y-7338031D02*
X1020182Y-7357079D01*
X1020182Y-7357079D02*
X1029705Y-7395174D01*
X1029705Y-7395174D02*
X1029705Y-7442793D01*
X1029705Y-7442793D02*
X1020182Y-7480888D01*
X1020182Y-7480888D02*
X1010658Y-7499936D01*
X1010658Y-7499936D02*
X1001134Y-7509460D01*
X1001134Y-7509460D02*
X982086Y-7518984D01*
X982086Y-7518984D02*
X963039Y-7518984D01*
X963039Y-7518984D02*
X943991Y-7509460D01*
X943991Y-7509460D02*
X934467Y-7499936D01*
X934467Y-7499936D02*
X924943Y-7480888D01*
X924943Y-7480888D02*
X915420Y-7442793D01*
X915420Y-7442793D02*
X915420Y-7395174D01*
X915420Y-7395174D02*
X924943Y-7357079D01*
X924943Y-7357079D02*
X934467Y-7338031D01*
X934467Y-7338031D02*
X943991Y-7328508D01*
X943991Y-7328508D02*
X963039Y-7318984D01*
X1115420Y-7518984D02*
X1115420Y-7385650D01*
X1115420Y-7404698D02*
X1124944Y-7395174D01*
X1124944Y-7395174D02*
X1143991Y-7385650D01*
X1143991Y-7385650D02*
X1172563Y-7385650D01*
X1172563Y-7385650D02*
X1191610Y-7395174D01*
X1191610Y-7395174D02*
X1201134Y-7414222D01*
X1201134Y-7414222D02*
X1201134Y-7518984D01*
X1201134Y-7414222D02*
X1210658Y-7395174D01*
X1210658Y-7395174D02*
X1229705Y-7385650D01*
X1229705Y-7385650D02*
X1258277Y-7385650D01*
X1258277Y-7385650D02*
X1277325Y-7395174D01*
X1277325Y-7395174D02*
X1286848Y-7414222D01*
X1286848Y-7414222D02*
X1286848Y-7518984D01*
X1382086Y-7518984D02*
X1382086Y-7385650D01*
X1382086Y-7404698D02*
X1391610Y-7395174D01*
X1391610Y-7395174D02*
X1410658Y-7385650D01*
X1410658Y-7385650D02*
X1439229Y-7385650D01*
X1439229Y-7385650D02*
X1458277Y-7395174D01*
X1458277Y-7395174D02*
X1467801Y-7414222D01*
X1467801Y-7414222D02*
X1467801Y-7518984D01*
X1467801Y-7414222D02*
X1477324Y-7395174D01*
X1477324Y-7395174D02*
X1496372Y-7385650D01*
X1496372Y-7385650D02*
X1524943Y-7385650D01*
X1524943Y-7385650D02*
X1543991Y-7395174D01*
X1543991Y-7395174D02*
X1553515Y-7414222D01*
X1553515Y-7414222D02*
X1553515Y-7518984D01*
X1943991Y-7309460D02*
X1772563Y-7566603D01*
X2201134Y-7318984D02*
X2220182Y-7318984D01*
X2220182Y-7318984D02*
X2239229Y-7328508D01*
X2239229Y-7328508D02*
X2248753Y-7338031D01*
X2248753Y-7338031D02*
X2258277Y-7357079D01*
X2258277Y-7357079D02*
X2267801Y-7395174D01*
X2267801Y-7395174D02*
X2267801Y-7442793D01*
X2267801Y-7442793D02*
X2258277Y-7480888D01*
X2258277Y-7480888D02*
X2248753Y-7499936D01*
X2248753Y-7499936D02*
X2239229Y-7509460D01*
X2239229Y-7509460D02*
X2220182Y-7518984D01*
X2220182Y-7518984D02*
X2201134Y-7518984D01*
X2201134Y-7518984D02*
X2182087Y-7509460D01*
X2182087Y-7509460D02*
X2172563Y-7499936D01*
X2172563Y-7499936D02*
X2163039Y-7480888D01*
X2163039Y-7480888D02*
X2153515Y-7442793D01*
X2153515Y-7442793D02*
X2153515Y-7395174D01*
X2153515Y-7395174D02*
X2163039Y-7357079D01*
X2163039Y-7357079D02*
X2172563Y-7338031D01*
X2172563Y-7338031D02*
X2182087Y-7328508D01*
X2182087Y-7328508D02*
X2201134Y-7318984D01*
X2353515Y-7499936D02*
X2363039Y-7509460D01*
X2363039Y-7509460D02*
X2353515Y-7518984D01*
X2353515Y-7518984D02*
X2343991Y-7509460D01*
X2343991Y-7509460D02*
X2353515Y-7499936D01*
X2353515Y-7499936D02*
X2353515Y-7518984D01*
X2486848Y-7318984D02*
X2505896Y-7318984D01*
X2505896Y-7318984D02*
X2524944Y-7328508D01*
X2524944Y-7328508D02*
X2534468Y-7338031D01*
X2534468Y-7338031D02*
X2543991Y-7357079D01*
X2543991Y-7357079D02*
X2553515Y-7395174D01*
X2553515Y-7395174D02*
X2553515Y-7442793D01*
X2553515Y-7442793D02*
X2543991Y-7480888D01*
X2543991Y-7480888D02*
X2534468Y-7499936D01*
X2534468Y-7499936D02*
X2524944Y-7509460D01*
X2524944Y-7509460D02*
X2505896Y-7518984D01*
X2505896Y-7518984D02*
X2486848Y-7518984D01*
X2486848Y-7518984D02*
X2467801Y-7509460D01*
X2467801Y-7509460D02*
X2458277Y-7499936D01*
X2458277Y-7499936D02*
X2448753Y-7480888D01*
X2448753Y-7480888D02*
X2439229Y-7442793D01*
X2439229Y-7442793D02*
X2439229Y-7395174D01*
X2439229Y-7395174D02*
X2448753Y-7357079D01*
X2448753Y-7357079D02*
X2458277Y-7338031D01*
X2458277Y-7338031D02*
X2467801Y-7328508D01*
X2467801Y-7328508D02*
X2486848Y-7318984D01*
X2620182Y-7318984D02*
X2743991Y-7318984D01*
X2743991Y-7318984D02*
X2677325Y-7395174D01*
X2677325Y-7395174D02*
X2705896Y-7395174D01*
X2705896Y-7395174D02*
X2724944Y-7404698D01*
X2724944Y-7404698D02*
X2734468Y-7414222D01*
X2734468Y-7414222D02*
X2743991Y-7433269D01*
X2743991Y-7433269D02*
X2743991Y-7480888D01*
X2743991Y-7480888D02*
X2734468Y-7499936D01*
X2734468Y-7499936D02*
X2724944Y-7509460D01*
X2724944Y-7509460D02*
X2705896Y-7518984D01*
X2705896Y-7518984D02*
X2648753Y-7518984D01*
X2648753Y-7518984D02*
X2629706Y-7509460D01*
X2629706Y-7509460D02*
X2620182Y-7499936D01*
X2839229Y-7518984D02*
X2877325Y-7518984D01*
X2877325Y-7518984D02*
X2896372Y-7509460D01*
X2896372Y-7509460D02*
X2905896Y-7499936D01*
X2905896Y-7499936D02*
X2924944Y-7471365D01*
X2924944Y-7471365D02*
X2934467Y-7433269D01*
X2934467Y-7433269D02*
X2934467Y-7357079D01*
X2934467Y-7357079D02*
X2924944Y-7338031D01*
X2924944Y-7338031D02*
X2915420Y-7328508D01*
X2915420Y-7328508D02*
X2896372Y-7318984D01*
X2896372Y-7318984D02*
X2858277Y-7318984D01*
X2858277Y-7318984D02*
X2839229Y-7328508D01*
X2839229Y-7328508D02*
X2829706Y-7338031D01*
X2829706Y-7338031D02*
X2820182Y-7357079D01*
X2820182Y-7357079D02*
X2820182Y-7404698D01*
X2820182Y-7404698D02*
X2829706Y-7423746D01*
X2829706Y-7423746D02*
X2839229Y-7433269D01*
X2839229Y-7433269D02*
X2858277Y-7442793D01*
X2858277Y-7442793D02*
X2896372Y-7442793D01*
X2896372Y-7442793D02*
X2915420Y-7433269D01*
X2915420Y-7433269D02*
X2924944Y-7423746D01*
X2924944Y-7423746D02*
X2934467Y-7404698D01*
X3105896Y-7385650D02*
X3105896Y-7518984D01*
X3058277Y-7309460D02*
X3010658Y-7452317D01*
X3010658Y-7452317D02*
X3134467Y-7452317D01*
X3201134Y-7318984D02*
X3201134Y-7357079D01*
X3277325Y-7318984D02*
X3277325Y-7357079D01*
X3572563Y-7595174D02*
X3563039Y-7585650D01*
X3563039Y-7585650D02*
X3543991Y-7557079D01*
X3543991Y-7557079D02*
X3534468Y-7538031D01*
X3534468Y-7538031D02*
X3524944Y-7509460D01*
X3524944Y-7509460D02*
X3515420Y-7461841D01*
X3515420Y-7461841D02*
X3515420Y-7423746D01*
X3515420Y-7423746D02*
X3524944Y-7376127D01*
X3524944Y-7376127D02*
X3534468Y-7347555D01*
X3534468Y-7347555D02*
X3543991Y-7328508D01*
X3543991Y-7328508D02*
X3563039Y-7299936D01*
X3563039Y-7299936D02*
X3572563Y-7290412D01*
X3734468Y-7318984D02*
X3696372Y-7318984D01*
X3696372Y-7318984D02*
X3677325Y-7328508D01*
X3677325Y-7328508D02*
X3667801Y-7338031D01*
X3667801Y-7338031D02*
X3648753Y-7366603D01*
X3648753Y-7366603D02*
X3639229Y-7404698D01*
X3639229Y-7404698D02*
X3639229Y-7480888D01*
X3639229Y-7480888D02*
X3648753Y-7499936D01*
X3648753Y-7499936D02*
X3658277Y-7509460D01*
X3658277Y-7509460D02*
X3677325Y-7518984D01*
X3677325Y-7518984D02*
X3715420Y-7518984D01*
X3715420Y-7518984D02*
X3734468Y-7509460D01*
X3734468Y-7509460D02*
X3743991Y-7499936D01*
X3743991Y-7499936D02*
X3753515Y-7480888D01*
X3753515Y-7480888D02*
X3753515Y-7433269D01*
X3753515Y-7433269D02*
X3743991Y-7414222D01*
X3743991Y-7414222D02*
X3734468Y-7404698D01*
X3734468Y-7404698D02*
X3715420Y-7395174D01*
X3715420Y-7395174D02*
X3677325Y-7395174D01*
X3677325Y-7395174D02*
X3658277Y-7404698D01*
X3658277Y-7404698D02*
X3648753Y-7414222D01*
X3648753Y-7414222D02*
X3639229Y-7433269D01*
X3991610Y-7518984D02*
X3991610Y-7318984D01*
X4077325Y-7518984D02*
X4077325Y-7414222D01*
X4077325Y-7414222D02*
X4067801Y-7395174D01*
X4067801Y-7395174D02*
X4048753Y-7385650D01*
X4048753Y-7385650D02*
X4020182Y-7385650D01*
X4020182Y-7385650D02*
X4001134Y-7395174D01*
X4001134Y-7395174D02*
X3991610Y-7404698D01*
X4201134Y-7518984D02*
X4182087Y-7509460D01*
X4182087Y-7509460D02*
X4172563Y-7499936D01*
X4172563Y-7499936D02*
X4163039Y-7480888D01*
X4163039Y-7480888D02*
X4163039Y-7423746D01*
X4163039Y-7423746D02*
X4172563Y-7404698D01*
X4172563Y-7404698D02*
X4182087Y-7395174D01*
X4182087Y-7395174D02*
X4201134Y-7385650D01*
X4201134Y-7385650D02*
X4229706Y-7385650D01*
X4229706Y-7385650D02*
X4248753Y-7395174D01*
X4248753Y-7395174D02*
X4258277Y-7404698D01*
X4258277Y-7404698D02*
X4267801Y-7423746D01*
X4267801Y-7423746D02*
X4267801Y-7480888D01*
X4267801Y-7480888D02*
X4258277Y-7499936D01*
X4258277Y-7499936D02*
X4248753Y-7509460D01*
X4248753Y-7509460D02*
X4229706Y-7518984D01*
X4229706Y-7518984D02*
X4201134Y-7518984D01*
X4382087Y-7518984D02*
X4363039Y-7509460D01*
X4363039Y-7509460D02*
X4353515Y-7490412D01*
X4353515Y-7490412D02*
X4353515Y-7318984D01*
X4534468Y-7509460D02*
X4515420Y-7518984D01*
X4515420Y-7518984D02*
X4477325Y-7518984D01*
X4477325Y-7518984D02*
X4458277Y-7509460D01*
X4458277Y-7509460D02*
X4448753Y-7490412D01*
X4448753Y-7490412D02*
X4448753Y-7414222D01*
X4448753Y-7414222D02*
X4458277Y-7395174D01*
X4458277Y-7395174D02*
X4477325Y-7385650D01*
X4477325Y-7385650D02*
X4515420Y-7385650D01*
X4515420Y-7385650D02*
X4534468Y-7395174D01*
X4534468Y-7395174D02*
X4543992Y-7414222D01*
X4543992Y-7414222D02*
X4543992Y-7433269D01*
X4543992Y-7433269D02*
X4448753Y-7452317D01*
X4620182Y-7509460D02*
X4639230Y-7518984D01*
X4639230Y-7518984D02*
X4677325Y-7518984D01*
X4677325Y-7518984D02*
X4696373Y-7509460D01*
X4696373Y-7509460D02*
X4705896Y-7490412D01*
X4705896Y-7490412D02*
X4705896Y-7480888D01*
X4705896Y-7480888D02*
X4696373Y-7461841D01*
X4696373Y-7461841D02*
X4677325Y-7452317D01*
X4677325Y-7452317D02*
X4648753Y-7452317D01*
X4648753Y-7452317D02*
X4629706Y-7442793D01*
X4629706Y-7442793D02*
X4620182Y-7423746D01*
X4620182Y-7423746D02*
X4620182Y-7414222D01*
X4620182Y-7414222D02*
X4629706Y-7395174D01*
X4629706Y-7395174D02*
X4648753Y-7385650D01*
X4648753Y-7385650D02*
X4677325Y-7385650D01*
X4677325Y-7385650D02*
X4696373Y-7395174D01*
X4772563Y-7595174D02*
X4782087Y-7585650D01*
X4782087Y-7585650D02*
X4801134Y-7557079D01*
X4801134Y-7557079D02*
X4810658Y-7538031D01*
X4810658Y-7538031D02*
X4820182Y-7509460D01*
X4820182Y-7509460D02*
X4829706Y-7461841D01*
X4829706Y-7461841D02*
X4829706Y-7423746D01*
X4829706Y-7423746D02*
X4820182Y-7376127D01*
X4820182Y-7376127D02*
X4810658Y-7347555D01*
X4810658Y-7347555D02*
X4801134Y-7328508D01*
X4801134Y-7328508D02*
X4782087Y-7299936D01*
X4782087Y-7299936D02*
X4772563Y-7290412D01*
M02*
