%TF.GenerationSoftware,KiCad,Pcbnew,9.0.9-9.0.9~ubuntu24.04.1*%
%TF.CreationDate,2026-10-01T19:38:50+00:00*%
%TF.ProjectId,PinaBio-v2.0-Cursor,50696e61-4269-46f2-9d76-322e302d4375,SPEC-0.9*%
%TF.SameCoordinates,Original*%
%TF.FileFunction,Legend,Top*%
%TF.FilePolarity,Positive*%
%FSLAX46Y46*%
G04 Gerber Fmt 4.6, Leading zero omitted, Abs format (unit mm)*
G04 Created by KiCad (PCBNEW 9.0.9-9.0.9~ubuntu24.04.1) date 2026-10-01 19:38:50*
%MOMM*%
%LPD*%
G01*
G04 APERTURE LIST*
G04 Aperture macros list*
%AMRoundRect*
0 Rectangle with rounded corners*
0 $1 Rounding radius*
0 $2 $3 $4 $5 $6 $7 $8 $9 X,Y pos of 4 corners*
0 Add a 4 corners polygon primitive as box body*
4,1,4,$2,$3,$4,$5,$6,$7,$8,$9,$2,$3,0*
0 Add four circle primitives for the rounded corners*
1,1,$1+$1,$2,$3*
1,1,$1+$1,$4,$5*
1,1,$1+$1,$6,$7*
1,1,$1+$1,$8,$9*
0 Add four rect primitives between the rounded corners*
20,1,$1+$1,$2,$3,$4,$5,0*
20,1,$1+$1,$4,$5,$6,$7,0*
20,1,$1+$1,$6,$7,$8,$9,0*
20,1,$1+$1,$8,$9,$2,$3,0*%
%AMOutline5P*
0 Free polygon, 5 corners , with rotation*
0 The origin of the aperture is its center*
0 number of corners: always 5*
0 $1 to $10 corner X, Y*
0 $11 Rotation angle, in degrees counterclockwise*
0 create outline with 5 corners*
4,1,5,$1,$2,$3,$4,$5,$6,$7,$8,$9,$10,$1,$2,$11*%
%AMOutline6P*
0 Free polygon, 6 corners , with rotation*
0 The origin of the aperture is its center*
0 number of corners: always 6*
0 $1 to $12 corner X, Y*
0 $13 Rotation angle, in degrees counterclockwise*
0 create outline with 6 corners*
4,1,6,$1,$2,$3,$4,$5,$6,$7,$8,$9,$10,$11,$12,$1,$2,$13*%
%AMOutline7P*
0 Free polygon, 7 corners , with rotation*
0 The origin of the aperture is its center*
0 number of corners: always 7*
0 $1 to $14 corner X, Y*
0 $15 Rotation angle, in degrees counterclockwise*
0 create outline with 7 corners*
4,1,7,$1,$2,$3,$4,$5,$6,$7,$8,$9,$10,$11,$12,$13,$14,$1,$2,$15*%
%AMOutline8P*
0 Free polygon, 8 corners , with rotation*
0 The origin of the aperture is its center*
0 number of corners: always 8*
0 $1 to $16 corner X, Y*
0 $17 Rotation angle, in degrees counterclockwise*
0 create outline with 8 corners*
4,1,8,$1,$2,$3,$4,$5,$6,$7,$8,$9,$10,$11,$12,$13,$14,$15,$16,$1,$2,$17*%
G04 Aperture macros list end*
%ADD10C,0.150000*%
%ADD11C,0.120000*%
%ADD12RoundRect,0.250000X0.475000X-0.250000X0.475000X0.250000X-0.475000X0.250000X-0.475000X-0.250000X0*%
%ADD13RoundRect,0.225000X-0.225000X-0.250000X0.225000X-0.250000X0.225000X0.250000X-0.225000X0.250000X0*%
%ADD14RoundRect,0.225000X0.250000X-0.225000X0.250000X0.225000X-0.250000X0.225000X-0.250000X-0.225000X0*%
%ADD15RoundRect,0.200000X-0.200000X-0.275000X0.200000X-0.275000X0.200000X0.275000X-0.200000X0.275000X0*%
%ADD16RoundRect,0.200000X0.275000X-0.200000X0.275000X0.200000X-0.275000X0.200000X-0.275000X-0.200000X0*%
%ADD17RoundRect,0.150000X-0.512500X-0.150000X0.512500X-0.150000X0.512500X0.150000X-0.512500X0.150000X0*%
%ADD18RoundRect,0.250000X-0.350000X-0.625000X0.350000X-0.625000X0.350000X0.625000X-0.350000X0.625000X0*%
%ADD19O,1.200000X1.750000*%
%ADD20RoundRect,0.250000X-0.625000X0.350000X-0.625000X-0.350000X0.625000X-0.350000X0.625000X0.350000X0*%
%ADD21O,1.750000X1.200000*%
%ADD22RoundRect,0.150000X-0.587500X-0.150000X0.587500X-0.150000X0.587500X0.150000X-0.587500X0.150000X0*%
%ADD23RoundRect,0.150000X-0.825000X-0.150000X0.825000X-0.150000X0.825000X0.150000X-0.825000X0.150000X0*%
%ADD24RoundRect,0.037500X0.262500X0.087500X-0.262500X0.087500X-0.262500X-0.087500X0.262500X-0.087500X0*%
%ADD25RoundRect,0.037500X0.087500X0.262500X-0.087500X0.262500X-0.087500X-0.262500X0.087500X-0.262500X0*%
%ADD26RoundRect,0.022500X0.052500X0.227500X-0.052500X0.227500X-0.052500X-0.227500X0.052500X-0.227500X0*%
%ADD27RoundRect,0.022500X0.552500X0.052500X-0.552500X0.052500X-0.552500X-0.052500X0.552500X-0.052500X0*%
%ADD28RoundRect,0.100000X-0.637500X-0.100000X0.637500X-0.100000X0.637500X0.100000X-0.637500X0.100000X0*%
%ADD29C,0.650000*%
%ADD30RoundRect,0.150000X-0.150000X-0.500000X0.150000X-0.500000X0.150000X0.500000X-0.150000X0.500000X0*%
%ADD31RoundRect,0.075000X-0.075000X-0.575000X0.075000X-0.575000X0.075000X0.575000X-0.075000X0.575000X0*%
%ADD32O,1.000000X2.100000*%
%ADD33O,1.000000X1.600000*%
%ADD34R,1.000000X1.600000*%
%ADD35RoundRect,0.150000X0.150000X-0.512500X0.150000X0.512500X-0.150000X0.512500X-0.150000X-0.512500X0*%
%ADD36RoundRect,0.250000X-0.250000X-0.475000X0.250000X-0.475000X0.250000X0.475000X-0.250000X0.475000X0*%
%ADD37R,1.700000X0.900000*%
%ADD38RoundRect,0.150000X0.587500X0.150000X-0.587500X0.150000X-0.587500X-0.150000X0.587500X-0.150000X0*%
%ADD39RoundRect,0.062500X-0.062500X0.375000X-0.062500X-0.375000X0.062500X-0.375000X0.062500X0.375000X0*%
%ADD40RoundRect,0.062500X-0.375000X0.062500X-0.375000X-0.062500X0.375000X-0.062500X0.375000X0.062500X0*%
%ADD41R,1.600000X1.600000*%
%ADD42RoundRect,0.245000X-1.455000X0.245000X-1.455000X-0.245000X1.455000X-0.245000X1.455000X0.245000X0*%
%ADD43C,1.500000*%
%ADD44R,0.800000X0.400000*%
%ADD45R,0.400000X0.800000*%
%ADD46Outline5P,-0.600000X0.204000X-0.204000X0.600000X0.600000X0.600000X0.600000X-0.600000X-0.600000X-0.600000X0.000000*%
%ADD47R,1.200000X1.200000*%
%ADD48R,0.800000X0.800000*%
G04 APERTURE END LIST*
D10*
X40950000Y-55298557D02*
X40950000Y-54398557D01*
X40950000Y-54398557D02*
X41292857Y-54398557D01*
X41292857Y-54398557D02*
X41378572Y-54441414D01*
X41378572Y-54441414D02*
X41421429Y-54484271D01*
X41421429Y-54484271D02*
X41464286Y-54569985D01*
X41464286Y-54569985D02*
X41464286Y-54698557D01*
X41464286Y-54698557D02*
X41421429Y-54784271D01*
X41421429Y-54784271D02*
X41378572Y-54827128D01*
X41378572Y-54827128D02*
X41292857Y-54869985D01*
X41292857Y-54869985D02*
X40950000Y-54869985D01*
X41850000Y-55298557D02*
X41850000Y-54698557D01*
X41850000Y-54398557D02*
X41807143Y-54441414D01*
X41807143Y-54441414D02*
X41850000Y-54484271D01*
X41850000Y-54484271D02*
X41892857Y-54441414D01*
X41892857Y-54441414D02*
X41850000Y-54398557D01*
X41850000Y-54398557D02*
X41850000Y-54484271D01*
X42278571Y-54698557D02*
X42278571Y-55298557D01*
X42278571Y-54784271D02*
X42321428Y-54741414D01*
X42321428Y-54741414D02*
X42407143Y-54698557D01*
X42407143Y-54698557D02*
X42535714Y-54698557D01*
X42535714Y-54698557D02*
X42621428Y-54741414D01*
X42621428Y-54741414D02*
X42664286Y-54827128D01*
X42664286Y-54827128D02*
X42664286Y-55298557D01*
X43478572Y-55298557D02*
X43478572Y-54827128D01*
X43478572Y-54827128D02*
X43435714Y-54741414D01*
X43435714Y-54741414D02*
X43350000Y-54698557D01*
X43350000Y-54698557D02*
X43178572Y-54698557D01*
X43178572Y-54698557D02*
X43092857Y-54741414D01*
X43478572Y-55255700D02*
X43392857Y-55298557D01*
X43392857Y-55298557D02*
X43178572Y-55298557D01*
X43178572Y-55298557D02*
X43092857Y-55255700D01*
X43092857Y-55255700D02*
X43050000Y-55169985D01*
X43050000Y-55169985D02*
X43050000Y-55084271D01*
X43050000Y-55084271D02*
X43092857Y-54998557D01*
X43092857Y-54998557D02*
X43178572Y-54955700D01*
X43178572Y-54955700D02*
X43392857Y-54955700D01*
X43392857Y-54955700D02*
X43478572Y-54912842D01*
X44207143Y-54827128D02*
X44335715Y-54869985D01*
X44335715Y-54869985D02*
X44378572Y-54912842D01*
X44378572Y-54912842D02*
X44421429Y-54998557D01*
X44421429Y-54998557D02*
X44421429Y-55127128D01*
X44421429Y-55127128D02*
X44378572Y-55212842D01*
X44378572Y-55212842D02*
X44335715Y-55255700D01*
X44335715Y-55255700D02*
X44250000Y-55298557D01*
X44250000Y-55298557D02*
X43907143Y-55298557D01*
X43907143Y-55298557D02*
X43907143Y-54398557D01*
X43907143Y-54398557D02*
X44207143Y-54398557D01*
X44207143Y-54398557D02*
X44292858Y-54441414D01*
X44292858Y-54441414D02*
X44335715Y-54484271D01*
X44335715Y-54484271D02*
X44378572Y-54569985D01*
X44378572Y-54569985D02*
X44378572Y-54655700D01*
X44378572Y-54655700D02*
X44335715Y-54741414D01*
X44335715Y-54741414D02*
X44292858Y-54784271D01*
X44292858Y-54784271D02*
X44207143Y-54827128D01*
X44207143Y-54827128D02*
X43907143Y-54827128D01*
X44807143Y-55298557D02*
X44807143Y-54698557D01*
X44807143Y-54398557D02*
X44764286Y-54441414D01*
X44764286Y-54441414D02*
X44807143Y-54484271D01*
X44807143Y-54484271D02*
X44850000Y-54441414D01*
X44850000Y-54441414D02*
X44807143Y-54398557D01*
X44807143Y-54398557D02*
X44807143Y-54484271D01*
X45364286Y-55298557D02*
X45278571Y-55255700D01*
X45278571Y-55255700D02*
X45235714Y-55212842D01*
X45235714Y-55212842D02*
X45192857Y-55127128D01*
X45192857Y-55127128D02*
X45192857Y-54869985D01*
X45192857Y-54869985D02*
X45235714Y-54784271D01*
X45235714Y-54784271D02*
X45278571Y-54741414D01*
X45278571Y-54741414D02*
X45364286Y-54698557D01*
X45364286Y-54698557D02*
X45492857Y-54698557D01*
X45492857Y-54698557D02*
X45578571Y-54741414D01*
X45578571Y-54741414D02*
X45621429Y-54784271D01*
X45621429Y-54784271D02*
X45664286Y-54869985D01*
X45664286Y-54869985D02*
X45664286Y-55127128D01*
X45664286Y-55127128D02*
X45621429Y-55212842D01*
X45621429Y-55212842D02*
X45578571Y-55255700D01*
X45578571Y-55255700D02*
X45492857Y-55298557D01*
X45492857Y-55298557D02*
X45364286Y-55298557D01*
X46650000Y-54698557D02*
X46864286Y-55298557D01*
X46864286Y-55298557D02*
X47078571Y-54698557D01*
X47421428Y-55212842D02*
X47464285Y-55255700D01*
X47464285Y-55255700D02*
X47421428Y-55298557D01*
X47421428Y-55298557D02*
X47378571Y-55255700D01*
X47378571Y-55255700D02*
X47421428Y-55212842D01*
X47421428Y-55212842D02*
X47421428Y-55298557D01*
X47807142Y-54484271D02*
X47849999Y-54441414D01*
X47849999Y-54441414D02*
X47935714Y-54398557D01*
X47935714Y-54398557D02*
X48149999Y-54398557D01*
X48149999Y-54398557D02*
X48235714Y-54441414D01*
X48235714Y-54441414D02*
X48278571Y-54484271D01*
X48278571Y-54484271D02*
X48321428Y-54569985D01*
X48321428Y-54569985D02*
X48321428Y-54655700D01*
X48321428Y-54655700D02*
X48278571Y-54784271D01*
X48278571Y-54784271D02*
X47764285Y-55298557D01*
X47764285Y-55298557D02*
X48321428Y-55298557D01*
X48707142Y-55212842D02*
X48749999Y-55255700D01*
X48749999Y-55255700D02*
X48707142Y-55298557D01*
X48707142Y-55298557D02*
X48664285Y-55255700D01*
X48664285Y-55255700D02*
X48707142Y-55212842D01*
X48707142Y-55212842D02*
X48707142Y-55298557D01*
X49307142Y-54398557D02*
X49392856Y-54398557D01*
X49392856Y-54398557D02*
X49478570Y-54441414D01*
X49478570Y-54441414D02*
X49521428Y-54484271D01*
X49521428Y-54484271D02*
X49564285Y-54569985D01*
X49564285Y-54569985D02*
X49607142Y-54741414D01*
X49607142Y-54741414D02*
X49607142Y-54955700D01*
X49607142Y-54955700D02*
X49564285Y-55127128D01*
X49564285Y-55127128D02*
X49521428Y-55212842D01*
X49521428Y-55212842D02*
X49478570Y-55255700D01*
X49478570Y-55255700D02*
X49392856Y-55298557D01*
X49392856Y-55298557D02*
X49307142Y-55298557D01*
X49307142Y-55298557D02*
X49221428Y-55255700D01*
X49221428Y-55255700D02*
X49178570Y-55212842D01*
X49178570Y-55212842D02*
X49135713Y-55127128D01*
X49135713Y-55127128D02*
X49092856Y-54955700D01*
X49092856Y-54955700D02*
X49092856Y-54741414D01*
X49092856Y-54741414D02*
X49135713Y-54569985D01*
X49135713Y-54569985D02*
X49178570Y-54484271D01*
X49178570Y-54484271D02*
X49221428Y-54441414D01*
X49221428Y-54441414D02*
X49307142Y-54398557D01*
X49992856Y-55212842D02*
X50035713Y-55255700D01*
X50035713Y-55255700D02*
X49992856Y-55298557D01*
X49992856Y-55298557D02*
X49949999Y-55255700D01*
X49949999Y-55255700D02*
X49992856Y-55212842D01*
X49992856Y-55212842D02*
X49992856Y-55298557D01*
X51621427Y-55212842D02*
X51578570Y-55255700D01*
X51578570Y-55255700D02*
X51449998Y-55298557D01*
X51449998Y-55298557D02*
X51364284Y-55298557D01*
X51364284Y-55298557D02*
X51235713Y-55255700D01*
X51235713Y-55255700D02*
X51149998Y-55169985D01*
X51149998Y-55169985D02*
X51107141Y-55084271D01*
X51107141Y-55084271D02*
X51064284Y-54912842D01*
X51064284Y-54912842D02*
X51064284Y-54784271D01*
X51064284Y-54784271D02*
X51107141Y-54612842D01*
X51107141Y-54612842D02*
X51149998Y-54527128D01*
X51149998Y-54527128D02*
X51235713Y-54441414D01*
X51235713Y-54441414D02*
X51364284Y-54398557D01*
X51364284Y-54398557D02*
X51449998Y-54398557D01*
X51449998Y-54398557D02*
X51578570Y-54441414D01*
X51578570Y-54441414D02*
X51621427Y-54484271D01*
X52392856Y-54698557D02*
X52392856Y-55298557D01*
X52007141Y-54698557D02*
X52007141Y-55169985D01*
X52007141Y-55169985D02*
X52049998Y-55255700D01*
X52049998Y-55255700D02*
X52135713Y-55298557D01*
X52135713Y-55298557D02*
X52264284Y-55298557D01*
X52264284Y-55298557D02*
X52349998Y-55255700D01*
X52349998Y-55255700D02*
X52392856Y-55212842D01*
X52821427Y-55298557D02*
X52821427Y-54698557D01*
X52821427Y-54869985D02*
X52864284Y-54784271D01*
X52864284Y-54784271D02*
X52907142Y-54741414D01*
X52907142Y-54741414D02*
X52992856Y-54698557D01*
X52992856Y-54698557D02*
X53078570Y-54698557D01*
X53335713Y-55255700D02*
X53421427Y-55298557D01*
X53421427Y-55298557D02*
X53592856Y-55298557D01*
X53592856Y-55298557D02*
X53678570Y-55255700D01*
X53678570Y-55255700D02*
X53721427Y-55169985D01*
X53721427Y-55169985D02*
X53721427Y-55127128D01*
X53721427Y-55127128D02*
X53678570Y-55041414D01*
X53678570Y-55041414D02*
X53592856Y-54998557D01*
X53592856Y-54998557D02*
X53464285Y-54998557D01*
X53464285Y-54998557D02*
X53378570Y-54955700D01*
X53378570Y-54955700D02*
X53335713Y-54869985D01*
X53335713Y-54869985D02*
X53335713Y-54827128D01*
X53335713Y-54827128D02*
X53378570Y-54741414D01*
X53378570Y-54741414D02*
X53464285Y-54698557D01*
X53464285Y-54698557D02*
X53592856Y-54698557D01*
X53592856Y-54698557D02*
X53678570Y-54741414D01*
X54235713Y-55298557D02*
X54149998Y-55255700D01*
X54149998Y-55255700D02*
X54107141Y-55212842D01*
X54107141Y-55212842D02*
X54064284Y-55127128D01*
X54064284Y-55127128D02*
X54064284Y-54869985D01*
X54064284Y-54869985D02*
X54107141Y-54784271D01*
X54107141Y-54784271D02*
X54149998Y-54741414D01*
X54149998Y-54741414D02*
X54235713Y-54698557D01*
X54235713Y-54698557D02*
X54364284Y-54698557D01*
X54364284Y-54698557D02*
X54449998Y-54741414D01*
X54449998Y-54741414D02*
X54492856Y-54784271D01*
X54492856Y-54784271D02*
X54535713Y-54869985D01*
X54535713Y-54869985D02*
X54535713Y-55127128D01*
X54535713Y-55127128D02*
X54492856Y-55212842D01*
X54492856Y-55212842D02*
X54449998Y-55255700D01*
X54449998Y-55255700D02*
X54364284Y-55298557D01*
X54364284Y-55298557D02*
X54235713Y-55298557D01*
X54921427Y-55298557D02*
X54921427Y-54698557D01*
X54921427Y-54869985D02*
X54964284Y-54784271D01*
X54964284Y-54784271D02*
X55007142Y-54741414D01*
X55007142Y-54741414D02*
X55092856Y-54698557D01*
X55092856Y-54698557D02*
X55178570Y-54698557D01*
D11*
%TO.C,C8*%
X12360003Y-27829580D02*
X12360003Y-27307076D01*
X13830003Y-27829580D02*
X13830003Y-27307076D01*
%TO.C,C20*%
X60048883Y-28215522D02*
X60330043Y-28215522D01*
X60048883Y-29235522D02*
X60330043Y-29235522D01*
%TO.C,C22*%
X62510000Y-14135580D02*
X62510000Y-13854420D01*
X63530000Y-14135580D02*
X63530000Y-13854420D01*
%TO.C,R12*%
X12316145Y-1142005D02*
X12790661Y-1142005D01*
X12316145Y-2187005D02*
X12790661Y-2187005D01*
%TO.C,C18*%
X61357507Y-8589572D02*
X61638667Y-8589572D01*
X61357507Y-9609572D02*
X61638667Y-9609572D01*
%TO.C,R30*%
X62166620Y-21637093D02*
X62166620Y-21162577D01*
X63211620Y-21637093D02*
X63211620Y-21162577D01*
%TO.C,U4*%
X20435000Y-40235000D02*
X22255000Y-40235000D01*
X20435000Y-40285000D02*
X20435000Y-40235000D01*
X20435000Y-43355000D02*
X20435000Y-43305000D01*
X22255000Y-40235000D02*
X22255000Y-40285000D01*
X22255000Y-41405000D02*
X22255000Y-42185000D01*
X22255000Y-43305000D02*
X22255000Y-43355000D01*
X22255000Y-43355000D02*
X20435000Y-43355000D01*
X19895000Y-40285000D02*
X19655000Y-39955000D01*
X20135000Y-39955000D01*
X19895000Y-40285000D01*
G36*
X19895000Y-40285000D02*
G01*
X19655000Y-39955000D01*
X20135000Y-39955000D01*
X19895000Y-40285000D01*
G37*
%TO.C,C15*%
X47416115Y-3878954D02*
X47416115Y-3597794D01*
X48436115Y-3878954D02*
X48436115Y-3597794D01*
%TO.C,R38*%
X23631283Y-1726791D02*
X24105799Y-1726791D01*
X23631283Y-2771791D02*
X24105799Y-2771791D01*
%TO.C,R21*%
X24080823Y-11906441D02*
X24080823Y-11431925D01*
X25125823Y-11906441D02*
X25125823Y-11431925D01*
%TO.C,J8*%
X67485000Y-48885000D02*
X67485000Y-50135000D01*
X67785000Y-50495000D02*
X68395000Y-50495000D01*
X67785000Y-51795000D02*
X68395000Y-51795000D01*
X68395000Y-49795000D02*
X68395000Y-53295000D01*
X68395000Y-53295000D02*
X73295000Y-53295000D01*
X68735000Y-48885000D02*
X67485000Y-48885000D01*
X69245000Y-48985000D02*
X69245000Y-49185000D01*
X69545000Y-48985000D02*
X69245000Y-48985000D01*
X69545000Y-49085000D02*
X69245000Y-49085000D01*
X69545000Y-49185000D02*
X69545000Y-48985000D01*
X70345000Y-49185000D02*
X70345000Y-49795000D01*
X70345000Y-49795000D02*
X68395000Y-49795000D01*
X70745000Y-52795000D02*
X70945000Y-52795000D01*
X70745000Y-53295000D02*
X70745000Y-52795000D01*
X70845000Y-53295000D02*
X70845000Y-52795000D01*
X70945000Y-52795000D02*
X70945000Y-53295000D01*
X71345000Y-49795000D02*
X71345000Y-49185000D01*
X73295000Y-49795000D02*
X71345000Y-49795000D01*
X73295000Y-53295000D02*
X73295000Y-49795000D01*
X73905000Y-50495000D02*
X73295000Y-50495000D01*
X73905000Y-51795000D02*
X73295000Y-51795000D01*
X67785000Y-49185000D02*
X73905000Y-49185000D01*
X73905000Y-53905000D01*
X67785000Y-53905000D01*
X67785000Y-49185000D01*
%TO.C,R25*%
X29627418Y-19166401D02*
X30101934Y-19166401D01*
X29627418Y-20211401D02*
X30101934Y-20211401D01*
%TO.C,J4*%
X1845000Y-25345000D02*
X1845000Y-36245000D01*
X1845000Y-27695000D02*
X2345000Y-27695000D01*
X1845000Y-27795000D02*
X2345000Y-27795000D01*
X1845000Y-29695000D02*
X2345000Y-29695000D01*
X1845000Y-29795000D02*
X2345000Y-29795000D01*
X1845000Y-31695000D02*
X2345000Y-31695000D01*
X1845000Y-31795000D02*
X2345000Y-31795000D01*
X1845000Y-33695000D02*
X2345000Y-33695000D01*
X1845000Y-33795000D02*
X2345000Y-33795000D01*
X1845000Y-36245000D02*
X5345000Y-36245000D01*
X2345000Y-27695000D02*
X2345000Y-27895000D01*
X2345000Y-27895000D02*
X1845000Y-27895000D01*
X2345000Y-29695000D02*
X2345000Y-29895000D01*
X2345000Y-29895000D02*
X1845000Y-29895000D01*
X2345000Y-31695000D02*
X2345000Y-31895000D01*
X2345000Y-31895000D02*
X1845000Y-31895000D01*
X2345000Y-33695000D02*
X2345000Y-33895000D01*
X2345000Y-33895000D02*
X1845000Y-33895000D01*
X3345000Y-24735000D02*
X3345000Y-25345000D01*
X3345000Y-36855000D02*
X3345000Y-36245000D01*
X4645000Y-24735000D02*
X4645000Y-25345000D01*
X4645000Y-36855000D02*
X4645000Y-36245000D01*
X5345000Y-25345000D02*
X1845000Y-25345000D01*
X5345000Y-27295000D02*
X5345000Y-25345000D01*
X5345000Y-34295000D02*
X5955000Y-34295000D01*
X5345000Y-36245000D02*
X5345000Y-34295000D01*
X5955000Y-26495000D02*
X6155000Y-26495000D01*
X5955000Y-27295000D02*
X5345000Y-27295000D01*
X6055000Y-26495000D02*
X6055000Y-26195000D01*
X6155000Y-26195000D02*
X5955000Y-26195000D01*
X6155000Y-26495000D02*
X6155000Y-26195000D01*
X6255000Y-24435000D02*
X5005000Y-24435000D01*
X6255000Y-25685000D02*
X6255000Y-24435000D01*
X5955000Y-24735000D02*
X1235000Y-24735000D01*
X1235000Y-36855000D01*
X5955000Y-36855000D01*
X5955000Y-24735000D01*
%TO.C,C1*%
X16712787Y-17130490D02*
X16993947Y-17130490D01*
X16712787Y-18150490D02*
X16993947Y-18150490D01*
%TO.C,J6*%
X50985000Y-48885000D02*
X50985000Y-50135000D01*
X51285000Y-50495000D02*
X51895000Y-50495000D01*
X51285000Y-51795000D02*
X51895000Y-51795000D01*
X51895000Y-49795000D02*
X51895000Y-53295000D01*
X51895000Y-53295000D02*
X56795000Y-53295000D01*
X52235000Y-48885000D02*
X50985000Y-48885000D01*
X52745000Y-48985000D02*
X52745000Y-49185000D01*
X53045000Y-48985000D02*
X52745000Y-48985000D01*
X53045000Y-49085000D02*
X52745000Y-49085000D01*
X53045000Y-49185000D02*
X53045000Y-48985000D01*
X53845000Y-49185000D02*
X53845000Y-49795000D01*
X53845000Y-49795000D02*
X51895000Y-49795000D01*
X54245000Y-52795000D02*
X54445000Y-52795000D01*
X54245000Y-53295000D02*
X54245000Y-52795000D01*
X54345000Y-53295000D02*
X54345000Y-52795000D01*
X54445000Y-52795000D02*
X54445000Y-53295000D01*
X54845000Y-49795000D02*
X54845000Y-49185000D01*
X56795000Y-49795000D02*
X54845000Y-49795000D01*
X56795000Y-53295000D02*
X56795000Y-49795000D01*
X57405000Y-50495000D02*
X56795000Y-50495000D01*
X57405000Y-51795000D02*
X56795000Y-51795000D01*
X51285000Y-49185000D02*
X57405000Y-49185000D01*
X57405000Y-53905000D01*
X51285000Y-53905000D01*
X51285000Y-49185000D01*
%TO.C,R15*%
X49022500Y-19632258D02*
X49022500Y-19157742D01*
X50067500Y-19632258D02*
X50067500Y-19157742D01*
%TO.C,Q1*%
X25585000Y-26835000D02*
X27105000Y-26835000D01*
X25585000Y-26885000D02*
X25585000Y-26835000D01*
X25585000Y-28785000D02*
X25585000Y-28005000D01*
X25585000Y-29955000D02*
X25585000Y-29905000D01*
X27105000Y-26835000D02*
X27105000Y-27835000D01*
X27105000Y-28955000D02*
X27105000Y-29955000D01*
X27105000Y-29955000D02*
X25585000Y-29955000D01*
X25285000Y-28345000D02*
X24805000Y-28345000D01*
X25045000Y-28015000D01*
X25285000Y-28345000D01*
G36*
X25285000Y-28345000D02*
G01*
X24805000Y-28345000D01*
X25045000Y-28015000D01*
X25285000Y-28345000D01*
G37*
%TO.C,R3*%
X36731332Y-23535723D02*
X37205848Y-23535723D01*
X36731332Y-24580723D02*
X37205848Y-24580723D01*
%TO.C,C14*%
X25829631Y-11099338D02*
X25829631Y-10818178D01*
X26849631Y-11099338D02*
X26849631Y-10818178D01*
%TO.C,R34*%
X68527311Y-24300268D02*
X69001827Y-24300268D01*
X68527311Y-25345268D02*
X69001827Y-25345268D01*
%TO.C,R37*%
X25164132Y-18462065D02*
X25164132Y-17987549D01*
X26209132Y-18462065D02*
X26209132Y-17987549D01*
%TO.C,C19*%
X61724404Y-18138414D02*
X61724404Y-17857254D01*
X62744404Y-18138414D02*
X62744404Y-17857254D01*
%TO.C,U8*%
X66485000Y-13960000D02*
X70605000Y-13960000D01*
X66485000Y-14025000D02*
X66485000Y-13960000D01*
X66485000Y-22830000D02*
X66485000Y-22765000D01*
X70605000Y-13960000D02*
X70605000Y-14025000D01*
X70605000Y-22765000D02*
X70605000Y-22830000D01*
X70605000Y-22830000D02*
X66485000Y-22830000D01*
X65945000Y-14025000D02*
X65705000Y-13695000D01*
X66185000Y-13695000D01*
X65945000Y-14025000D01*
G36*
X65945000Y-14025000D02*
G01*
X65705000Y-13695000D01*
X66185000Y-13695000D01*
X65945000Y-14025000D01*
G37*
%TO.C,J2*%
X985000Y-1885000D02*
X985000Y-3135000D01*
X1285000Y-3495000D02*
X1895000Y-3495000D01*
X1285000Y-4795000D02*
X1895000Y-4795000D01*
X1895000Y-2795000D02*
X1895000Y-6295000D01*
X1895000Y-6295000D02*
X8795000Y-6295000D01*
X2235000Y-1885000D02*
X985000Y-1885000D01*
X2745000Y-1985000D02*
X2745000Y-2185000D01*
X3045000Y-1985000D02*
X2745000Y-1985000D01*
X3045000Y-2085000D02*
X2745000Y-2085000D01*
X3045000Y-2185000D02*
X3045000Y-1985000D01*
X3845000Y-2185000D02*
X3845000Y-2795000D01*
X3845000Y-2795000D02*
X1895000Y-2795000D01*
X4245000Y-5795000D02*
X4445000Y-5795000D01*
X4245000Y-6295000D02*
X4245000Y-5795000D01*
X4345000Y-6295000D02*
X4345000Y-5795000D01*
X4445000Y-5795000D02*
X4445000Y-6295000D01*
X6245000Y-5795000D02*
X6445000Y-5795000D01*
X6245000Y-6295000D02*
X6245000Y-5795000D01*
X6345000Y-6295000D02*
X6345000Y-5795000D01*
X6445000Y-5795000D02*
X6445000Y-6295000D01*
X6845000Y-2795000D02*
X6845000Y-2185000D01*
X8795000Y-2795000D02*
X6845000Y-2795000D01*
X8795000Y-6295000D02*
X8795000Y-2795000D01*
X9405000Y-3495000D02*
X8795000Y-3495000D01*
X9405000Y-4795000D02*
X8795000Y-4795000D01*
X1285000Y-2185000D02*
X9405000Y-2185000D01*
X9405000Y-6905000D01*
X1285000Y-6905000D01*
X1285000Y-2185000D01*
%TO.C,R24*%
X23253802Y-4112160D02*
X23728318Y-4112160D01*
X23253802Y-5157160D02*
X23728318Y-5157160D01*
%TO.C,R13*%
X12739599Y-29961008D02*
X13214115Y-29961008D01*
X12739599Y-31006008D02*
X13214115Y-31006008D01*
%TO.C,U3*%
X17225000Y-22245000D02*
X17325000Y-22045000D01*
X17325000Y-22445000D02*
X17225000Y-22245000D01*
%TO.C,R7*%
X19213940Y-7824629D02*
X19688456Y-7824629D01*
X19213940Y-8869629D02*
X19688456Y-8869629D01*
%TO.C,U6*%
X53535000Y-11560000D02*
X58155000Y-11560000D01*
X58155000Y-17030000D02*
X53535000Y-17030000D01*
X51985000Y-12015000D02*
X51655000Y-12255000D01*
X51655000Y-11775000D01*
X51985000Y-12015000D01*
G36*
X51985000Y-12015000D02*
G01*
X51655000Y-12255000D01*
X51655000Y-11775000D01*
X51985000Y-12015000D01*
G37*
%TO.C,C13*%
X24423310Y-40956120D02*
X24423310Y-40433616D01*
X25893310Y-40956120D02*
X25893310Y-40433616D01*
%TO.C,J1*%
X32645000Y-33615000D02*
X32645000Y-35395000D01*
X34545000Y-30695000D02*
X33745000Y-30695000D01*
X42045000Y-33615000D02*
X42045000Y-35395000D01*
%TO.C,R22*%
X49567522Y-3973727D02*
X49567522Y-3499211D01*
X50612522Y-3973727D02*
X50612522Y-3499211D01*
%TO.C,R36*%
X39808352Y-23278146D02*
X39808352Y-22803630D01*
X40853352Y-23278146D02*
X40853352Y-22803630D01*
%TO.C,R19*%
X29429152Y-36286999D02*
X29429152Y-35812483D01*
X30474152Y-36286999D02*
X30474152Y-35812483D01*
%TO.C,R29*%
X55711313Y-17927891D02*
X56185829Y-17927891D01*
X55711313Y-18972891D02*
X56185829Y-18972891D01*
%TO.C,SW1*%
X11235000Y-3085000D02*
X11235000Y-6905000D01*
X11235000Y-6905000D02*
X12585000Y-6905000D01*
X12585000Y-3085000D02*
X11235000Y-3085000D01*
X15085000Y-3085000D02*
X14105000Y-3085000D01*
X15085000Y-6905000D02*
X14105000Y-6905000D01*
X17585000Y-3085000D02*
X16605000Y-3085000D01*
X17585000Y-6905000D02*
X16605000Y-6905000D01*
X20455000Y-3085000D02*
X19105000Y-3085000D01*
X20455000Y-3085000D02*
X20455000Y-6905000D01*
X20455000Y-6905000D02*
X19105000Y-6905000D01*
%TO.C,R27*%
X64599969Y-24936862D02*
X65074485Y-24936862D01*
X64599969Y-25981862D02*
X65074485Y-25981862D01*
%TO.C,R31*%
X73878380Y-21637093D02*
X73878380Y-21162577D01*
X74923380Y-21637093D02*
X74923380Y-21162577D01*
%TO.C,U7*%
X53535000Y-19660000D02*
X58155000Y-19660000D01*
X58155000Y-25130000D02*
X53535000Y-25130000D01*
X51985000Y-20115000D02*
X51655000Y-20355000D01*
X51655000Y-19875000D01*
X51985000Y-20115000D01*
G36*
X51985000Y-20115000D02*
G01*
X51655000Y-20355000D01*
X51655000Y-19875000D01*
X51985000Y-20115000D01*
G37*
%TO.C,C4*%
X12360003Y-18682924D02*
X12360003Y-18160420D01*
X13830003Y-18682924D02*
X13830003Y-18160420D01*
%TO.C,R32*%
X73878380Y-15627423D02*
X73878380Y-15152907D01*
X74923380Y-15627423D02*
X74923380Y-15152907D01*
%TO.C,R6*%
X22916987Y-19217178D02*
X23391503Y-19217178D01*
X22916987Y-20262178D02*
X23391503Y-20262178D01*
%TO.C,C2*%
X8477388Y-14818178D02*
X8477388Y-14295674D01*
X9947388Y-14818178D02*
X9947388Y-14295674D01*
%TO.C,R1*%
X32851700Y-28789315D02*
X32851700Y-28314799D01*
X33896700Y-28789315D02*
X33896700Y-28314799D01*
%TO.C,D1*%
X21785000Y-15235000D02*
X23305000Y-15235000D01*
X21785000Y-15285000D02*
X21785000Y-15235000D01*
X21785000Y-17185000D02*
X21785000Y-16405000D01*
X21785000Y-18355000D02*
X21785000Y-18305000D01*
X23305000Y-15235000D02*
X23305000Y-16235000D01*
X23305000Y-17355000D02*
X23305000Y-18355000D01*
X23305000Y-18355000D02*
X21785000Y-18355000D01*
X21485000Y-16745000D02*
X21005000Y-16745000D01*
X21245000Y-16415000D01*
X21485000Y-16745000D01*
G36*
X21485000Y-16745000D02*
G01*
X21005000Y-16745000D01*
X21245000Y-16415000D01*
X21485000Y-16745000D01*
G37*
%TO.C,U1*%
X35385000Y-26185000D02*
X35435000Y-26185000D01*
X35385000Y-28005000D02*
X35385000Y-26185000D01*
X35435000Y-28005000D02*
X35385000Y-28005000D01*
X38455000Y-26185000D02*
X38505000Y-26185000D01*
X38505000Y-26185000D02*
X38505000Y-28005000D01*
X38505000Y-28005000D02*
X38455000Y-28005000D01*
X35435000Y-28545000D02*
X35105000Y-28785000D01*
X35105000Y-28305000D01*
X35435000Y-28545000D01*
G36*
X35435000Y-28545000D02*
G01*
X35105000Y-28785000D01*
X35105000Y-28305000D01*
X35435000Y-28545000D01*
G37*
%TO.C,R28*%
X65099768Y-9707375D02*
X65574284Y-9707375D01*
X65099768Y-10752375D02*
X65574284Y-10752375D01*
%TO.C,R4*%
X6491475Y-10748602D02*
X6491475Y-10274086D01*
X7536475Y-10748602D02*
X7536475Y-10274086D01*
%TO.C,C10*%
X17396984Y-27632956D02*
X17919488Y-27632956D01*
X17396984Y-29102956D02*
X17919488Y-29102956D01*
%TO.C,R16*%
X25347654Y-21886919D02*
X25347654Y-21412403D01*
X26392654Y-21886919D02*
X26392654Y-21412403D01*
%TO.C,SW2*%
X18745000Y-10545000D02*
X19045000Y-10545000D01*
X18745000Y-13845000D02*
X18745000Y-10545000D01*
X19045000Y-13845000D02*
X18745000Y-13845000D01*
X21245000Y-13845000D02*
X21545000Y-13845000D01*
X21545000Y-10545000D02*
X21245000Y-10545000D01*
X21545000Y-13845000D02*
X21545000Y-10545000D01*
%TO.C,C16*%
X25488703Y-7451514D02*
X25488703Y-6929010D01*
X26958703Y-7451514D02*
X26958703Y-6929010D01*
%TO.C,Q2*%
X25585000Y-30835000D02*
X27105000Y-30835000D01*
X25585000Y-31835000D02*
X25585000Y-30835000D01*
X25585000Y-33955000D02*
X25585000Y-32955000D01*
X27105000Y-30835000D02*
X27105000Y-30885000D01*
X27105000Y-32005000D02*
X27105000Y-32785000D01*
X27105000Y-33905000D02*
X27105000Y-33955000D01*
X27105000Y-33955000D02*
X25585000Y-33955000D01*
X27645000Y-32775000D02*
X27405000Y-32445000D01*
X27885000Y-32445000D01*
X27645000Y-32775000D01*
G36*
X27645000Y-32775000D02*
G01*
X27405000Y-32445000D01*
X27885000Y-32445000D01*
X27645000Y-32775000D01*
G37*
%TO.C,R9*%
X4974916Y-18738332D02*
X5449432Y-18738332D01*
X4974916Y-19783332D02*
X5449432Y-19783332D01*
%TO.C,U2*%
X13935000Y-10385000D02*
X14410000Y-10385000D01*
X13935000Y-10860000D02*
X13935000Y-10385000D01*
X13935000Y-13605000D02*
X13935000Y-13130000D01*
X14410000Y-13605000D02*
X13935000Y-13605000D01*
X16680000Y-10385000D02*
X17155000Y-10385000D01*
X17155000Y-10385000D02*
X17155000Y-10860000D01*
X17155000Y-13130000D02*
X17155000Y-13605000D01*
X17155000Y-13605000D02*
X16680000Y-13605000D01*
X16295000Y-9855000D02*
X16055000Y-9525000D01*
X16535000Y-9525000D01*
X16295000Y-9855000D01*
G36*
X16295000Y-9855000D02*
G01*
X16055000Y-9525000D01*
X16535000Y-9525000D01*
X16295000Y-9855000D01*
G37*
%TO.C,C3*%
X21510995Y-7576120D02*
X21510995Y-7053616D01*
X22980995Y-7576120D02*
X22980995Y-7053616D01*
%TO.C,R5*%
X27460000Y-22832258D02*
X27460000Y-22357742D01*
X28505000Y-22832258D02*
X28505000Y-22357742D01*
%TO.C,C7*%
X19891730Y-27792357D02*
X19891730Y-27269853D01*
X21361730Y-27792357D02*
X21361730Y-27269853D01*
%TO.C,J7*%
X59485000Y-48885000D02*
X59485000Y-50135000D01*
X59785000Y-50495000D02*
X60395000Y-50495000D01*
X59785000Y-51795000D02*
X60395000Y-51795000D01*
X60395000Y-49795000D02*
X60395000Y-53295000D01*
X60395000Y-53295000D02*
X65295000Y-53295000D01*
X60735000Y-48885000D02*
X59485000Y-48885000D01*
X61245000Y-48985000D02*
X61245000Y-49185000D01*
X61545000Y-48985000D02*
X61245000Y-48985000D01*
X61545000Y-49085000D02*
X61245000Y-49085000D01*
X61545000Y-49185000D02*
X61545000Y-48985000D01*
X62345000Y-49185000D02*
X62345000Y-49795000D01*
X62345000Y-49795000D02*
X60395000Y-49795000D01*
X62745000Y-52795000D02*
X62945000Y-52795000D01*
X62745000Y-53295000D02*
X62745000Y-52795000D01*
X62845000Y-53295000D02*
X62845000Y-52795000D01*
X62945000Y-52795000D02*
X62945000Y-53295000D01*
X63345000Y-49795000D02*
X63345000Y-49185000D01*
X65295000Y-49795000D02*
X63345000Y-49795000D01*
X65295000Y-53295000D02*
X65295000Y-49795000D01*
X65905000Y-50495000D02*
X65295000Y-50495000D01*
X65905000Y-51795000D02*
X65295000Y-51795000D01*
X59785000Y-49185000D02*
X65905000Y-49185000D01*
X65905000Y-53905000D01*
X59785000Y-53905000D01*
X59785000Y-49185000D01*
%TO.C,C21*%
X61724404Y-26238414D02*
X61724404Y-25957254D01*
X62744404Y-26238414D02*
X62744404Y-25957254D01*
%TO.C,R20*%
X22215848Y-32977517D02*
X22215848Y-32503001D01*
X23260848Y-32977517D02*
X23260848Y-32503001D01*
%TO.C,C12*%
X19321682Y-37503774D02*
X19844186Y-37503774D01*
X19321682Y-38973774D02*
X19844186Y-38973774D01*
%TO.C,C17*%
X23747692Y-7775027D02*
X23747692Y-7493867D01*
X24767692Y-7775027D02*
X24767692Y-7493867D01*
%TO.C,R8*%
X22640937Y-21970990D02*
X23115453Y-21970990D01*
X22640937Y-23015990D02*
X23115453Y-23015990D01*
%TO.C,L1*%
X8685000Y-20735000D02*
X13205000Y-20735000D01*
X8685000Y-25255000D02*
X8685000Y-20735000D01*
X13205000Y-20735000D02*
X13205000Y-25255000D01*
X13205000Y-25255000D02*
X8685000Y-25255000D01*
%TO.C,R18*%
X26141963Y-3438634D02*
X26141963Y-2964118D01*
X27186963Y-3438634D02*
X27186963Y-2964118D01*
%TO.C,R11*%
X15607742Y-1172500D02*
X16082258Y-1172500D01*
X15607742Y-2217500D02*
X16082258Y-2217500D01*
%TO.C,J5*%
X11485000Y-50885000D02*
X11485000Y-52135000D01*
X11785000Y-52495000D02*
X12395000Y-52495000D01*
X11785000Y-53795000D02*
X12395000Y-53795000D01*
X12395000Y-51795000D02*
X12395000Y-55295000D01*
X12395000Y-55295000D02*
X29295000Y-55295000D01*
X12735000Y-50885000D02*
X11485000Y-50885000D01*
X13245000Y-50985000D02*
X13245000Y-51185000D01*
X13545000Y-50985000D02*
X13245000Y-50985000D01*
X13545000Y-51085000D02*
X13245000Y-51085000D01*
X13545000Y-51185000D02*
X13545000Y-50985000D01*
X14345000Y-51185000D02*
X14345000Y-51795000D01*
X14345000Y-51795000D02*
X12395000Y-51795000D01*
X14745000Y-54795000D02*
X14945000Y-54795000D01*
X14745000Y-55295000D02*
X14745000Y-54795000D01*
X14845000Y-55295000D02*
X14845000Y-54795000D01*
X14945000Y-54795000D02*
X14945000Y-55295000D01*
X16745000Y-54795000D02*
X16945000Y-54795000D01*
X16745000Y-55295000D02*
X16745000Y-54795000D01*
X16845000Y-55295000D02*
X16845000Y-54795000D01*
X16945000Y-54795000D02*
X16945000Y-55295000D01*
X18745000Y-54795000D02*
X18945000Y-54795000D01*
X18745000Y-55295000D02*
X18745000Y-54795000D01*
X18845000Y-55295000D02*
X18845000Y-54795000D01*
X18945000Y-54795000D02*
X18945000Y-55295000D01*
X20745000Y-54795000D02*
X20945000Y-54795000D01*
X20745000Y-55295000D02*
X20745000Y-54795000D01*
X20845000Y-55295000D02*
X20845000Y-54795000D01*
X20945000Y-54795000D02*
X20945000Y-55295000D01*
X22745000Y-54795000D02*
X22945000Y-54795000D01*
X22745000Y-55295000D02*
X22745000Y-54795000D01*
X22845000Y-55295000D02*
X22845000Y-54795000D01*
X22945000Y-54795000D02*
X22945000Y-55295000D01*
X24745000Y-54795000D02*
X24945000Y-54795000D01*
X24745000Y-55295000D02*
X24745000Y-54795000D01*
X24845000Y-55295000D02*
X24845000Y-54795000D01*
X24945000Y-54795000D02*
X24945000Y-55295000D01*
X26745000Y-54795000D02*
X26945000Y-54795000D01*
X26745000Y-55295000D02*
X26745000Y-54795000D01*
X26845000Y-55295000D02*
X26845000Y-54795000D01*
X26945000Y-54795000D02*
X26945000Y-55295000D01*
X27345000Y-51795000D02*
X27345000Y-51185000D01*
X29295000Y-51795000D02*
X27345000Y-51795000D01*
X29295000Y-55295000D02*
X29295000Y-51795000D01*
X29905000Y-52495000D02*
X29295000Y-52495000D01*
X29905000Y-53795000D02*
X29295000Y-53795000D01*
X11785000Y-51185000D02*
X29905000Y-51185000D01*
X29905000Y-55905000D01*
X11785000Y-55905000D01*
X11785000Y-51185000D01*
%TO.C,R23*%
X26022500Y-14832258D02*
X26022500Y-14357742D01*
X27067500Y-14832258D02*
X27067500Y-14357742D01*
%TO.C,C6*%
X6120384Y-16353298D02*
X6120384Y-15830794D01*
X7590384Y-16353298D02*
X7590384Y-15830794D01*
%TO.C,R35*%
X33036648Y-23278146D02*
X33036648Y-22803630D01*
X34081648Y-23278146D02*
X34081648Y-22803630D01*
%TO.C,R33*%
X68291694Y-11965582D02*
X68766210Y-11965582D01*
X68291694Y-13010582D02*
X68766210Y-13010582D01*
%TO.C,C11*%
X19848910Y-21055472D02*
X19848910Y-20774312D01*
X20868910Y-21055472D02*
X20868910Y-20774312D01*
%TO.C,C5*%
X8691222Y-18335647D02*
X9213726Y-18335647D01*
X8691222Y-19805647D02*
X9213726Y-19805647D01*
%TO.C,TP1*%
X30295000Y-47295000D02*
G75*
G02*
X28395000Y-47295000I-950000J0D01*
G01*
X28395000Y-47295000D02*
G75*
G02*
X30295000Y-47295000I950000J0D01*
G01*
%TO.C,Q3*%
X25585000Y-34835000D02*
X27105000Y-34835000D01*
X25585000Y-34885000D02*
X25585000Y-34835000D01*
X25585000Y-36785000D02*
X25585000Y-36005000D01*
X25585000Y-37955000D02*
X25585000Y-37905000D01*
X27105000Y-34835000D02*
X27105000Y-35835000D01*
X27105000Y-36955000D02*
X27105000Y-37955000D01*
X27105000Y-37955000D02*
X25585000Y-37955000D01*
X25285000Y-36345000D02*
X24805000Y-36345000D01*
X25045000Y-36015000D01*
X25285000Y-36345000D01*
G36*
X25285000Y-36345000D02*
G01*
X24805000Y-36345000D01*
X25045000Y-36015000D01*
X25285000Y-36345000D01*
G37*
%TO.C,R10*%
X9612413Y-9417961D02*
X10086929Y-9417961D01*
X9612413Y-10462961D02*
X10086929Y-10462961D01*
%TO.C,J3*%
X75645000Y-42545000D02*
X75645000Y-55445000D01*
X75645000Y-44895000D02*
X76145000Y-44895000D01*
X75645000Y-44995000D02*
X76145000Y-44995000D01*
X75645000Y-46895000D02*
X76145000Y-46895000D01*
X75645000Y-46995000D02*
X76145000Y-46995000D01*
X75645000Y-48895000D02*
X76145000Y-48895000D01*
X75645000Y-48995000D02*
X76145000Y-48995000D01*
X75645000Y-50895000D02*
X76145000Y-50895000D01*
X75645000Y-50995000D02*
X76145000Y-50995000D01*
X75645000Y-52895000D02*
X76145000Y-52895000D01*
X75645000Y-52995000D02*
X76145000Y-52995000D01*
X75645000Y-55445000D02*
X79145000Y-55445000D01*
X76145000Y-44895000D02*
X76145000Y-45095000D01*
X76145000Y-45095000D02*
X75645000Y-45095000D01*
X76145000Y-46895000D02*
X76145000Y-47095000D01*
X76145000Y-47095000D02*
X75645000Y-47095000D01*
X76145000Y-48895000D02*
X76145000Y-49095000D01*
X76145000Y-49095000D02*
X75645000Y-49095000D01*
X76145000Y-50895000D02*
X76145000Y-51095000D01*
X76145000Y-51095000D02*
X75645000Y-51095000D01*
X76145000Y-52895000D02*
X76145000Y-53095000D01*
X76145000Y-53095000D02*
X75645000Y-53095000D01*
X77145000Y-41935000D02*
X77145000Y-42545000D01*
X77145000Y-56055000D02*
X77145000Y-55445000D01*
X78445000Y-41935000D02*
X78445000Y-42545000D01*
X78445000Y-56055000D02*
X78445000Y-55445000D01*
X79145000Y-42545000D02*
X75645000Y-42545000D01*
X79145000Y-44495000D02*
X79145000Y-42545000D01*
X79145000Y-53495000D02*
X79755000Y-53495000D01*
X79145000Y-55445000D02*
X79145000Y-53495000D01*
X79755000Y-43695000D02*
X79955000Y-43695000D01*
X79755000Y-44495000D02*
X79145000Y-44495000D01*
X79855000Y-43695000D02*
X79855000Y-43395000D01*
X79955000Y-43395000D02*
X79755000Y-43395000D01*
X79955000Y-43695000D02*
X79955000Y-43395000D01*
X80055000Y-41635000D02*
X78805000Y-41635000D01*
X80055000Y-42885000D02*
X80055000Y-41635000D01*
X79755000Y-41935000D02*
X75035000Y-41935000D01*
X75035000Y-56055000D01*
X79755000Y-56055000D01*
X79755000Y-41935000D01*
%TO.C,R17*%
X30560000Y-28632258D02*
X30560000Y-28157742D01*
X31605000Y-28632258D02*
X31605000Y-28157742D01*
%TO.C,R14*%
X22679525Y-25242998D02*
X22679525Y-24768482D01*
X23724525Y-25242998D02*
X23724525Y-24768482D01*
%TO.C,C9*%
X8691222Y-26184353D02*
X9213726Y-26184353D01*
X8691222Y-27654353D02*
X9213726Y-27654353D01*
%TO.C,R26*%
X60197264Y-6082041D02*
X60671780Y-6082041D01*
X60197264Y-7127041D02*
X60671780Y-7127041D01*
%TO.C,R2*%
X40181226Y-28444584D02*
X40181226Y-27970068D01*
X41226226Y-28444584D02*
X41226226Y-27970068D01*
%TO.C,U5*%
X29545000Y-995000D02*
X45145000Y-995000D01*
X29545000Y-16595000D02*
X29545000Y-995000D01*
X45145000Y-995000D02*
X45145000Y-16595000D01*
X45145000Y-16595000D02*
X29545000Y-16595000D01*
X29370000Y-2845000D02*
X29034000Y-3085000D01*
X29034000Y-2605000D01*
X29370000Y-2845000D01*
G36*
X29370000Y-2845000D02*
G01*
X29034000Y-3085000D01*
X29034000Y-2605000D01*
X29370000Y-2845000D01*
G37*
%TD*%
%LPC*%
D12*
%TO.C,C8*%
X13095003Y-28518328D03*
X13095003Y-26618328D03*
%TD*%
D13*
%TO.C,C20*%
X59414463Y-28725522D03*
X60964463Y-28725522D03*
%TD*%
D14*
%TO.C,C22*%
X63020000Y-14770000D03*
X63020000Y-13220000D03*
%TD*%
D15*
%TO.C,R12*%
X11728403Y-1664505D03*
X13378403Y-1664505D03*
%TD*%
D13*
%TO.C,C18*%
X60723087Y-9099572D03*
X62273087Y-9099572D03*
%TD*%
D16*
%TO.C,R30*%
X62689120Y-22224835D03*
X62689120Y-20574835D03*
%TD*%
D17*
%TO.C,U4*%
X20207500Y-40845000D03*
X20207500Y-41795000D03*
X20207500Y-42745000D03*
X22482500Y-42745000D03*
X22482500Y-40845000D03*
%TD*%
D14*
%TO.C,C15*%
X47926115Y-4513374D03*
X47926115Y-2963374D03*
%TD*%
D15*
%TO.C,R38*%
X23043541Y-2249291D03*
X24693541Y-2249291D03*
%TD*%
D16*
%TO.C,R21*%
X24603323Y-12494183D03*
X24603323Y-10844183D03*
%TD*%
D18*
%TO.C,J8*%
X69845000Y-50995000D03*
D19*
X71845000Y-50995000D03*
%TD*%
D15*
%TO.C,R25*%
X29039676Y-19688901D03*
X30689676Y-19688901D03*
%TD*%
D20*
%TO.C,J4*%
X4145000Y-26795000D03*
D21*
X4145000Y-28795000D03*
X4145000Y-30795000D03*
X4145000Y-32795000D03*
X4145000Y-34795000D03*
%TD*%
D13*
%TO.C,C1*%
X16078367Y-17640490D03*
X17628367Y-17640490D03*
%TD*%
D18*
%TO.C,J6*%
X53345000Y-50995000D03*
D19*
X55345000Y-50995000D03*
%TD*%
D16*
%TO.C,R15*%
X49545000Y-20220000D03*
X49545000Y-18570000D03*
%TD*%
D22*
%TO.C,Q1*%
X25407500Y-27445000D03*
X25407500Y-29345000D03*
X27282500Y-28395000D03*
%TD*%
D15*
%TO.C,R3*%
X36143590Y-24058223D03*
X37793590Y-24058223D03*
%TD*%
D14*
%TO.C,C14*%
X26339631Y-11733758D03*
X26339631Y-10183758D03*
%TD*%
D15*
%TO.C,R34*%
X67939569Y-24822768D03*
X69589569Y-24822768D03*
%TD*%
D16*
%TO.C,R37*%
X25686632Y-19049807D03*
X25686632Y-17399807D03*
%TD*%
D14*
%TO.C,C19*%
X62234404Y-18772834D03*
X62234404Y-17222834D03*
%TD*%
D23*
%TO.C,U8*%
X66070000Y-14585000D03*
X66070000Y-15855000D03*
X66070000Y-17125000D03*
X66070000Y-18395000D03*
X66070000Y-19665000D03*
X66070000Y-20935000D03*
X66070000Y-22205000D03*
X71020000Y-22205000D03*
X71020000Y-20935000D03*
X71020000Y-19665000D03*
X71020000Y-18395000D03*
X71020000Y-17125000D03*
X71020000Y-15855000D03*
X71020000Y-14585000D03*
%TD*%
D18*
%TO.C,J2*%
X3345000Y-3995000D03*
D19*
X5345000Y-3995000D03*
X7345000Y-3995000D03*
%TD*%
D15*
%TO.C,R24*%
X22666060Y-4634660D03*
X24316060Y-4634660D03*
%TD*%
%TO.C,R13*%
X12151857Y-30483508D03*
X13801857Y-30483508D03*
%TD*%
D24*
%TO.C,U3*%
X16771000Y-22245000D03*
X16771000Y-22745000D03*
X16771000Y-23245000D03*
X16771000Y-23745000D03*
D25*
X16295000Y-24395000D03*
X15795000Y-24395000D03*
D26*
X15295000Y-24395000D03*
X14795000Y-24395000D03*
D27*
X14695000Y-23495000D03*
X14695000Y-22995000D03*
X14695000Y-22495000D03*
D26*
X14795000Y-21595000D03*
X15295000Y-21595000D03*
D25*
X15795000Y-21595000D03*
X16295000Y-21595000D03*
%TD*%
D15*
%TO.C,R7*%
X18626198Y-8347129D03*
X20276198Y-8347129D03*
%TD*%
D28*
%TO.C,U6*%
X52982500Y-12020000D03*
X52982500Y-12670000D03*
X52982500Y-13320000D03*
X52982500Y-13970000D03*
X52982500Y-14620000D03*
X52982500Y-15270000D03*
X52982500Y-15920000D03*
X52982500Y-16570000D03*
X58707500Y-16570000D03*
X58707500Y-15920000D03*
X58707500Y-15270000D03*
X58707500Y-14620000D03*
X58707500Y-13970000D03*
X58707500Y-13320000D03*
X58707500Y-12670000D03*
X58707500Y-12020000D03*
%TD*%
D12*
%TO.C,C13*%
X25158310Y-41644868D03*
X25158310Y-39744868D03*
%TD*%
D29*
%TO.C,J1*%
X34455000Y-32790000D03*
X40235000Y-32790000D03*
D30*
X34145000Y-31650000D03*
X34945000Y-31650000D03*
D31*
X36095000Y-31650000D03*
X37095000Y-31650000D03*
X37595000Y-31650000D03*
X38595000Y-31650000D03*
D30*
X39745000Y-31650000D03*
X40545000Y-31650000D03*
X40545000Y-31650000D03*
X39745000Y-31650000D03*
D31*
X39095000Y-31650000D03*
X38095000Y-31650000D03*
X36595000Y-31650000D03*
X35595000Y-31650000D03*
D30*
X34945000Y-31650000D03*
X34145000Y-31650000D03*
D32*
X33025000Y-32290000D03*
D33*
X33025000Y-36470000D03*
D32*
X41665000Y-32290000D03*
D33*
X41665000Y-36470000D03*
%TD*%
D16*
%TO.C,R22*%
X50090022Y-4561469D03*
X50090022Y-2911469D03*
%TD*%
%TO.C,R36*%
X40330852Y-23865888D03*
X40330852Y-22215888D03*
%TD*%
%TO.C,R19*%
X29951652Y-36874741D03*
X29951652Y-35224741D03*
%TD*%
D15*
%TO.C,R29*%
X55123571Y-18450391D03*
X56773571Y-18450391D03*
%TD*%
D34*
%TO.C,SW1*%
X13345000Y-3795000D03*
X15845000Y-3795000D03*
X18345000Y-3795000D03*
X13345000Y-6195000D03*
X15845000Y-6195000D03*
X18345000Y-6195000D03*
%TD*%
D15*
%TO.C,R27*%
X64012227Y-25459362D03*
X65662227Y-25459362D03*
%TD*%
D16*
%TO.C,R31*%
X74400880Y-22224835D03*
X74400880Y-20574835D03*
%TD*%
D28*
%TO.C,U7*%
X52982500Y-20120000D03*
X52982500Y-20770000D03*
X52982500Y-21420000D03*
X52982500Y-22070000D03*
X52982500Y-22720000D03*
X52982500Y-23370000D03*
X52982500Y-24020000D03*
X52982500Y-24670000D03*
X58707500Y-24670000D03*
X58707500Y-24020000D03*
X58707500Y-23370000D03*
X58707500Y-22720000D03*
X58707500Y-22070000D03*
X58707500Y-21420000D03*
X58707500Y-20770000D03*
X58707500Y-20120000D03*
%TD*%
D12*
%TO.C,C4*%
X13095003Y-19371672D03*
X13095003Y-17471672D03*
%TD*%
D16*
%TO.C,R32*%
X74400880Y-16215165D03*
X74400880Y-14565165D03*
%TD*%
D15*
%TO.C,R6*%
X22329245Y-19739678D03*
X23979245Y-19739678D03*
%TD*%
D12*
%TO.C,C2*%
X9212388Y-15506926D03*
X9212388Y-13606926D03*
%TD*%
D16*
%TO.C,R1*%
X33374200Y-29377057D03*
X33374200Y-27727057D03*
%TD*%
D22*
%TO.C,D1*%
X21607500Y-15845000D03*
X21607500Y-17745000D03*
X23482500Y-16795000D03*
%TD*%
D35*
%TO.C,U1*%
X35995000Y-28232500D03*
X36945000Y-28232500D03*
X37895000Y-28232500D03*
X37895000Y-25957500D03*
X36945000Y-25957500D03*
X35995000Y-25957500D03*
%TD*%
D15*
%TO.C,R28*%
X64512026Y-10229875D03*
X66162026Y-10229875D03*
%TD*%
D16*
%TO.C,R4*%
X7013975Y-11336344D03*
X7013975Y-9686344D03*
%TD*%
D36*
%TO.C,C10*%
X16708236Y-28367956D03*
X18608236Y-28367956D03*
%TD*%
D16*
%TO.C,R16*%
X25870154Y-22474661D03*
X25870154Y-20824661D03*
%TD*%
D37*
%TO.C,SW2*%
X20145000Y-13895000D03*
X20145000Y-10495000D03*
%TD*%
D12*
%TO.C,C16*%
X26223703Y-8140262D03*
X26223703Y-6240262D03*
%TD*%
D38*
%TO.C,Q2*%
X27282500Y-33345000D03*
X27282500Y-31445000D03*
X25407500Y-32395000D03*
%TD*%
D15*
%TO.C,R9*%
X4387174Y-19260832D03*
X6037174Y-19260832D03*
%TD*%
D39*
%TO.C,U2*%
X16295000Y-10557500D03*
X15795000Y-10557500D03*
X15295000Y-10557500D03*
X14795000Y-10557500D03*
D40*
X14107500Y-11245000D03*
X14107500Y-11745000D03*
X14107500Y-12245000D03*
X14107500Y-12745000D03*
D39*
X14795000Y-13432500D03*
X15295000Y-13432500D03*
X15795000Y-13432500D03*
X16295000Y-13432500D03*
D40*
X16982500Y-12745000D03*
X16982500Y-12245000D03*
X16982500Y-11745000D03*
X16982500Y-11245000D03*
D41*
X15545000Y-11995000D03*
%TD*%
D12*
%TO.C,C3*%
X22245995Y-8264868D03*
X22245995Y-6364868D03*
%TD*%
D16*
%TO.C,R5*%
X27982500Y-23420000D03*
X27982500Y-21770000D03*
%TD*%
D12*
%TO.C,C7*%
X20626730Y-28481105D03*
X20626730Y-26581105D03*
%TD*%
D18*
%TO.C,J7*%
X61845000Y-50995000D03*
D19*
X63845000Y-50995000D03*
%TD*%
D14*
%TO.C,C21*%
X62234404Y-26872834D03*
X62234404Y-25322834D03*
%TD*%
D16*
%TO.C,R20*%
X22738348Y-33565259D03*
X22738348Y-31915259D03*
%TD*%
D36*
%TO.C,C12*%
X18632934Y-38238774D03*
X20532934Y-38238774D03*
%TD*%
D14*
%TO.C,C17*%
X24257692Y-8409447D03*
X24257692Y-6859447D03*
%TD*%
D15*
%TO.C,R8*%
X22053195Y-22493490D03*
X23703195Y-22493490D03*
%TD*%
D42*
%TO.C,L1*%
X10945000Y-21810000D03*
X10945000Y-24180000D03*
%TD*%
D16*
%TO.C,R18*%
X26664463Y-4026376D03*
X26664463Y-2376376D03*
%TD*%
D15*
%TO.C,R11*%
X15020000Y-1695000D03*
X16670000Y-1695000D03*
%TD*%
D18*
%TO.C,J5*%
X13845000Y-52995000D03*
D19*
X15845000Y-52995000D03*
X17845000Y-52995000D03*
X19845000Y-52995000D03*
X21845000Y-52995000D03*
X23845000Y-52995000D03*
X25845000Y-52995000D03*
X27845000Y-52995000D03*
%TD*%
D16*
%TO.C,R23*%
X26545000Y-15420000D03*
X26545000Y-13770000D03*
%TD*%
D12*
%TO.C,C6*%
X6855384Y-17042046D03*
X6855384Y-15142046D03*
%TD*%
D16*
%TO.C,R35*%
X33559148Y-23865888D03*
X33559148Y-22215888D03*
%TD*%
D15*
%TO.C,R33*%
X67703952Y-12488082D03*
X69353952Y-12488082D03*
%TD*%
D14*
%TO.C,C11*%
X20358910Y-21689892D03*
X20358910Y-20139892D03*
%TD*%
D36*
%TO.C,C5*%
X8002474Y-19070647D03*
X9902474Y-19070647D03*
%TD*%
D43*
%TO.C,TP1*%
X29345000Y-47295000D03*
%TD*%
D22*
%TO.C,Q3*%
X25407500Y-35445000D03*
X25407500Y-37345000D03*
X27282500Y-36395000D03*
%TD*%
D15*
%TO.C,R10*%
X9024671Y-9940461D03*
X10674671Y-9940461D03*
%TD*%
D20*
%TO.C,J3*%
X77945000Y-43995000D03*
D21*
X77945000Y-45995000D03*
X77945000Y-47995000D03*
X77945000Y-49995000D03*
X77945000Y-51995000D03*
X77945000Y-53995000D03*
%TD*%
D16*
%TO.C,R17*%
X31082500Y-29220000D03*
X31082500Y-27570000D03*
%TD*%
%TO.C,R14*%
X23202025Y-25830740D03*
X23202025Y-24180740D03*
%TD*%
D36*
%TO.C,C9*%
X8002474Y-26919353D03*
X9902474Y-26919353D03*
%TD*%
D15*
%TO.C,R26*%
X59609522Y-6604541D03*
X61259522Y-6604541D03*
%TD*%
D16*
%TO.C,R2*%
X40703726Y-29032326D03*
X40703726Y-27382326D03*
%TD*%
D44*
%TO.C,U5*%
X30345000Y-2845000D03*
X30345000Y-3695000D03*
X30345000Y-4545000D03*
X30345000Y-5395000D03*
X30345000Y-6245000D03*
X30345000Y-7095000D03*
X30345000Y-7945000D03*
X30345000Y-8795000D03*
X30345000Y-9645000D03*
X30345000Y-10495000D03*
X30345000Y-11345000D03*
X30345000Y-12195000D03*
X30345000Y-13045000D03*
X30345000Y-13895000D03*
X30345000Y-14745000D03*
D45*
X31395000Y-15795000D03*
X32245000Y-15795000D03*
X33095000Y-15795000D03*
X33945000Y-15795000D03*
X34795000Y-15795000D03*
X35645000Y-15795000D03*
X36495000Y-15795000D03*
X37345000Y-15795000D03*
X38195000Y-15795000D03*
X39045000Y-15795000D03*
X39895000Y-15795000D03*
X40745000Y-15795000D03*
X41595000Y-15795000D03*
X42445000Y-15795000D03*
X43295000Y-15795000D03*
D44*
X44345000Y-14745000D03*
X44345000Y-13895000D03*
X44345000Y-13045000D03*
X44345000Y-12195000D03*
X44345000Y-11345000D03*
X44345000Y-10495000D03*
X44345000Y-9645000D03*
X44345000Y-8795000D03*
X44345000Y-7945000D03*
X44345000Y-7095000D03*
X44345000Y-6245000D03*
X44345000Y-5395000D03*
X44345000Y-4545000D03*
X44345000Y-3695000D03*
X44345000Y-2845000D03*
D45*
X43295000Y-1795000D03*
X42445000Y-1795000D03*
X41595000Y-1795000D03*
X40745000Y-1795000D03*
X39895000Y-1795000D03*
X39045000Y-1795000D03*
X38195000Y-1795000D03*
X37345000Y-1795000D03*
X36495000Y-1795000D03*
X35645000Y-1795000D03*
X34795000Y-1795000D03*
X33945000Y-1795000D03*
X33095000Y-1795000D03*
X32245000Y-1795000D03*
X31395000Y-1795000D03*
D46*
X35695000Y-7145000D03*
D47*
X35695000Y-8795000D03*
X35695000Y-10445000D03*
X37345000Y-7145000D03*
X37345000Y-8795000D03*
X37345000Y-10445000D03*
X38995000Y-7145000D03*
X38995000Y-8795000D03*
X38995000Y-10445000D03*
D48*
X30345000Y-1795000D03*
X30345000Y-15795000D03*
X44345000Y-15795000D03*
X44345000Y-1795000D03*
%TD*%
%LPD*%
M02*
