M48
; DRILL file {KiCad 9.0.9-9.0.9~ubuntu24.04.1} date 2026-10-01T00:07:43+0000
; FORMAT={-:-/ absolute / metric / decimal}
; #@! TF.CreationDate,2026-10-01T00:07:43+00:00
; #@! TF.GenerationSoftware,Kicad,Pcbnew,9.0.9-9.0.9~ubuntu24.04.1
; #@! TF.FileFunction,Plated,1,4,PTH
FMAT,2
METRIC
; #@! TA.AperFunction,Plated,PTH,ViaDrill
T1C0.250
; #@! TA.AperFunction,Plated,PTH,ComponentDrill
T2C0.600
; #@! TA.AperFunction,Plated,PTH,ComponentDrill
T3C0.750
%
G90
G05
T1
X6.0Y-18.0
X6.0Y-30.0
X6.0Y-42.0
X6.235Y-14.601
X7.639Y-29.926
X7.91Y-22.875
X8.435Y-14.409
X10.385Y-25.293
X11.485Y-16.209
X12.539Y-13.226
X12.675Y-4.183
X13.036Y-28.802
X13.472Y-11.454
X13.974Y-8.485
X14.0Y-7.35
X14.14Y-28.576
X14.411Y-21.48
X14.418Y-24.679
X14.5Y-9.0
X15.0Y-10.0
X15.2Y-6.15
X15.965Y-25.043
X16.086Y-28.802
X16.248Y-22.492
X16.8Y-10.1
X17.341Y-6.718
X17.537Y-10.003
X18.0Y-30.0
X18.0Y-42.0
X18.198Y-28.815
X18.851Y-7.276
X19.448Y-10.723
X19.715Y-5.566
X21.418Y-27.072
X22.188Y-34.145
X24.532Y-17.575
X24.747Y-6.043
X24.952Y-14.514
X25.127Y-21.971
X25.586Y-30.039
X26.097Y-22.341
X26.173Y-14.808
X26.475Y-24.318
X27.804Y-34.039
X28.72Y-20.125
X28.961Y-33.131
X29.114Y-12.603
X29.147Y-21.341
X29.34Y-19.339
X29.402Y-37.455
X29.702Y-17.145
X29.723Y-18.111
X29.864Y-21.323
X30.0Y-42.0
X30.532Y-26.75
X31.025Y-24.768
X31.559Y-14.231
X31.676Y-20.593
X31.77Y-13.175
X31.772Y-24.547
X31.841Y-19.491
X33.033Y-26.709
X33.258Y-19.027
X35.283Y-25.324
X35.675Y-30.455
X35.73Y-46.045
X37.745Y-24.487
X38.2Y-21.101
X38.22Y-46.026
X39.715Y-30.455
X40.444Y-30.151
X42.0Y-30.0
X42.0Y-42.0
X50.44Y-8.941
X51.909Y-13.191
X51.909Y-21.291
X52.193Y-24.054
X52.958Y-26.419
X53.967Y-18.077
X54.0Y-6.0
X54.0Y-42.0
X54.809Y-29.131
X54.809Y-32.619
X55.172Y-16.869
X57.267Y-20.113
X57.31Y-21.563
X57.526Y-13.508
X57.892Y-17.454
X57.9Y-11.9
X58.533Y-28.875
X58.55Y-15.15
X59.045Y-18.86
X59.1Y-23.9
X59.325Y-11.112
X59.4Y-9.1
X59.711Y-6.91
X60.215Y-17.079
X60.215Y-25.179
X60.279Y-14.416
X60.279Y-22.516
X60.294Y-16.217
X61.805Y-9.657
X62.119Y-14.514
X62.7Y-18.3
X62.761Y-8.71
X62.87Y-24.228
X63.3Y-18.4
X64.18Y-20.975
X64.44Y-19.505
X64.929Y-16.211
X65.132Y-19.017
X65.2Y-24.75
X66.0Y-6.0
X66.0Y-30.0
X66.0Y-42.0
X66.416Y-13.633
X66.5Y-24.75
X69.582Y-16.405
X70.179Y-13.307
X70.7Y-22.55
X73.12Y-15.372
X73.12Y-24.228
X74.195Y-17.691
X74.195Y-18.859
X74.92Y-12.322
X74.92Y-21.178
X74.932Y-28.584
X75.933Y-31.079
T3
X3.295Y-33.175
X3.295Y-39.875
X3.295Y-46.575
X3.695Y-3.875
X5.295Y-33.175
X5.295Y-39.875
X5.295Y-46.575
X5.695Y-3.875
X7.695Y-3.875
X78.295Y-7.875
X78.295Y-9.875
X78.295Y-11.875
X78.295Y-13.875
X78.295Y-15.875
X78.295Y-17.875
X78.295Y-19.875
X78.295Y-21.875
X78.295Y-28.275
X78.295Y-30.275
X78.295Y-32.275
X78.295Y-34.275
X78.295Y-36.275
X78.295Y-43.875
X78.295Y-45.875
X78.295Y-47.875
X78.295Y-49.875
X78.295Y-51.875
X78.295Y-53.875
T2
X33.375Y-31.62G85X33.375Y-32.72
G05
X33.375Y-36.05G85X33.375Y-36.65
G05
X42.015Y-31.62G85X42.015Y-32.72
G05
X42.015Y-36.05G85X42.015Y-36.65
G05
M30
