%TF.GenerationSoftware,KiCad,Pcbnew,9.0.9-9.0.9~ubuntu24.04.1*%
%TF.CreationDate,2026-10-01T00:07:43+00:00*%
%TF.ProjectId,PinaBio-v2.0-Cursor,50696e61-4269-46f2-9d76-322e302d4375,SPEC-0.8*%
%TF.SameCoordinates,Original*%
%TF.FileFunction,Drillmap*%
%TF.FilePolarity,Positive*%
%FSLAX45Y45*%
G04 Gerber Fmt 4.5, Leading zero omitted, Abs format (unit mm)*
G04 Created by KiCad (PCBNEW 9.0.9-9.0.9~ubuntu24.04.1) date 2026-10-01 00:07:43*
%MOMM*%
%LPD*%
G01*
G04 APERTURE LIST*
%ADD10C,0.050000*%
%ADD11C,0.200000*%
%ADD12C,0.100000*%
G04 APERTURE END LIST*
D10*
X0Y0D02*
X8134000Y0D01*
X0Y-5717000D02*
X0Y0D01*
X8134000Y0D02*
X8134000Y-5717000D01*
X8134000Y-5717000D02*
X0Y-5717000D01*
D11*
D12*
X587500Y-1787500D02*
X612500Y-1812500D01*
X612500Y-1787500D02*
X587500Y-1812500D01*
X587500Y-2987500D02*
X612500Y-3012500D01*
X612500Y-2987500D02*
X587500Y-3012500D01*
X587500Y-4187500D02*
X612500Y-4212500D01*
X612500Y-4187500D02*
X587500Y-4212500D01*
X610990Y-1447640D02*
X635990Y-1472640D01*
X635990Y-1447640D02*
X610990Y-1472640D01*
X751380Y-2980100D02*
X776380Y-3005100D01*
X776380Y-2980100D02*
X751380Y-3005100D01*
X778500Y-2275000D02*
X803500Y-2300000D01*
X803500Y-2275000D02*
X778500Y-2300000D01*
X830980Y-1428380D02*
X855980Y-1453380D01*
X855980Y-1428380D02*
X830980Y-1453380D01*
X1025960Y-2516780D02*
X1050960Y-2541780D01*
X1050960Y-2516780D02*
X1025960Y-2541780D01*
X1135980Y-1608380D02*
X1160980Y-1633380D01*
X1160980Y-1608380D02*
X1135980Y-1633380D01*
X1241370Y-1310110D02*
X1266370Y-1335110D01*
X1266370Y-1310110D02*
X1241370Y-1335110D01*
X1254950Y-405850D02*
X1279950Y-430850D01*
X1279950Y-405850D02*
X1254950Y-430850D01*
X1291090Y-2867740D02*
X1316090Y-2892740D01*
X1316090Y-2867740D02*
X1291090Y-2892740D01*
X1334730Y-1132870D02*
X1359730Y-1157870D01*
X1359730Y-1132870D02*
X1334730Y-1157870D01*
X1384910Y-836040D02*
X1409910Y-861040D01*
X1409910Y-836040D02*
X1384910Y-861040D01*
X1387500Y-722500D02*
X1412500Y-747500D01*
X1412500Y-722500D02*
X1387500Y-747500D01*
X1401510Y-2845070D02*
X1426510Y-2870070D01*
X1426510Y-2845070D02*
X1401510Y-2870070D01*
X1428620Y-2135510D02*
X1453620Y-2160510D01*
X1453620Y-2135510D02*
X1428620Y-2160510D01*
X1429280Y-2455450D02*
X1454280Y-2480450D01*
X1454280Y-2455450D02*
X1429280Y-2480450D01*
X1437500Y-887500D02*
X1462500Y-912500D01*
X1462500Y-887500D02*
X1437500Y-912500D01*
X1487500Y-987500D02*
X1512500Y-1012500D01*
X1512500Y-987500D02*
X1487500Y-1012500D01*
X1507500Y-602500D02*
X1532500Y-627500D01*
X1532500Y-602500D02*
X1507500Y-627500D01*
X1583990Y-2491820D02*
X1608990Y-2516820D01*
X1608990Y-2491820D02*
X1583990Y-2516820D01*
X1596090Y-2867740D02*
X1621090Y-2892740D01*
X1621090Y-2867740D02*
X1596090Y-2892740D01*
X1612320Y-2236680D02*
X1637320Y-2261680D01*
X1637320Y-2236680D02*
X1612320Y-2261680D01*
X1667500Y-997500D02*
X1692500Y-1022500D01*
X1692500Y-997500D02*
X1667500Y-1022500D01*
X1721620Y-659280D02*
X1746620Y-684280D01*
X1746620Y-659280D02*
X1721620Y-684280D01*
X1741180Y-987830D02*
X1766180Y-1012830D01*
X1766180Y-987830D02*
X1741180Y-1012830D01*
X1787500Y-2987500D02*
X1812500Y-3012500D01*
X1812500Y-2987500D02*
X1787500Y-3012500D01*
X1787500Y-4187500D02*
X1812500Y-4212500D01*
X1812500Y-4187500D02*
X1787500Y-4212500D01*
X1807350Y-2869000D02*
X1832350Y-2894000D01*
X1832350Y-2869000D02*
X1807350Y-2894000D01*
X1872580Y-715100D02*
X1897580Y-740100D01*
X1897580Y-715100D02*
X1872580Y-740100D01*
X1932330Y-1059820D02*
X1957330Y-1084820D01*
X1957330Y-1059820D02*
X1932330Y-1084820D01*
X1959050Y-544150D02*
X1984050Y-569150D01*
X1984050Y-544150D02*
X1959050Y-569150D01*
X2129300Y-2694680D02*
X2154300Y-2719680D01*
X2154300Y-2694680D02*
X2129300Y-2719680D01*
X2206330Y-3402030D02*
X2231330Y-3427030D01*
X2231330Y-3402030D02*
X2206330Y-3427030D01*
X2440750Y-1745000D02*
X2465750Y-1770000D01*
X2465750Y-1745000D02*
X2440750Y-1770000D01*
X2462160Y-591850D02*
X2487160Y-616850D01*
X2487160Y-591850D02*
X2462160Y-616850D01*
X2482710Y-1438930D02*
X2507710Y-1463930D01*
X2507710Y-1438930D02*
X2482710Y-1463930D01*
X2500220Y-2184640D02*
X2525220Y-2209640D01*
X2525220Y-2184640D02*
X2500220Y-2209640D01*
X2546110Y-2991430D02*
X2571110Y-3016430D01*
X2571110Y-2991430D02*
X2546110Y-3016430D01*
X2597190Y-2221580D02*
X2622190Y-2246580D01*
X2622190Y-2221580D02*
X2597190Y-2246580D01*
X2604800Y-1468290D02*
X2629800Y-1493290D01*
X2629800Y-1468290D02*
X2604800Y-1493290D01*
X2635010Y-2419300D02*
X2660010Y-2444300D01*
X2660010Y-2419300D02*
X2635010Y-2444300D01*
X2767890Y-3391430D02*
X2792890Y-3416430D01*
X2792890Y-3391430D02*
X2767890Y-3416430D01*
X2859500Y-2000000D02*
X2884500Y-2025000D01*
X2884500Y-2000000D02*
X2859500Y-2025000D01*
X2883630Y-3300580D02*
X2908630Y-3325580D01*
X2908630Y-3300580D02*
X2883630Y-3325580D01*
X2898860Y-1247770D02*
X2923860Y-1272770D01*
X2923860Y-1247770D02*
X2898860Y-1272770D01*
X2902190Y-2121580D02*
X2927190Y-2146580D01*
X2927190Y-2121580D02*
X2902190Y-2146580D01*
X2921490Y-1921420D02*
X2946490Y-1946420D01*
X2946490Y-1921420D02*
X2921490Y-1946420D01*
X2927670Y-3732970D02*
X2952670Y-3757970D01*
X2952670Y-3732970D02*
X2927670Y-3757970D01*
X2957730Y-1702050D02*
X2982730Y-1727050D01*
X2982730Y-1702050D02*
X2957730Y-1727050D01*
X2959820Y-1798600D02*
X2984820Y-1823600D01*
X2984820Y-1798600D02*
X2959820Y-1823600D01*
X2973920Y-2119850D02*
X2998920Y-2144850D01*
X2998920Y-2119850D02*
X2973920Y-2144850D01*
X2987500Y-4187500D02*
X3012500Y-4212500D01*
X3012500Y-4187500D02*
X2987500Y-4212500D01*
X3040750Y-2662500D02*
X3065750Y-2687500D01*
X3065750Y-2662500D02*
X3040750Y-2687500D01*
X3090010Y-2464300D02*
X3115010Y-2489300D01*
X3115010Y-2464300D02*
X3090010Y-2489300D01*
X3143400Y-1410610D02*
X3168400Y-1435610D01*
X3168400Y-1410610D02*
X3143400Y-1435610D01*
X3155130Y-2046850D02*
X3180130Y-2071850D01*
X3180130Y-2046850D02*
X3155130Y-2071850D01*
X3164530Y-1305010D02*
X3189530Y-1330010D01*
X3189530Y-1305010D02*
X3164530Y-1330010D01*
X3164680Y-2442160D02*
X3189680Y-2467160D01*
X3189680Y-2442160D02*
X3164680Y-2467160D01*
X3171600Y-1936550D02*
X3196600Y-1961550D01*
X3196600Y-1936550D02*
X3171600Y-1961550D01*
X3290850Y-2658360D02*
X3315850Y-2683360D01*
X3315850Y-2658360D02*
X3290850Y-2683360D01*
X3313350Y-1890200D02*
X3338350Y-1915200D01*
X3338350Y-1890200D02*
X3313350Y-1915200D01*
X3515850Y-2519880D02*
X3540850Y-2544880D01*
X3540850Y-2519880D02*
X3515850Y-2544880D01*
X3555010Y-3033000D02*
X3580010Y-3058000D01*
X3580010Y-3033000D02*
X3555010Y-3058000D01*
X3560450Y-4592020D02*
X3585450Y-4617020D01*
X3585450Y-4592020D02*
X3560450Y-4617020D01*
X3762000Y-2436250D02*
X3787000Y-2461250D01*
X3787000Y-2436250D02*
X3762000Y-2461250D01*
X3807550Y-2097620D02*
X3832550Y-2122620D01*
X3832550Y-2097620D02*
X3807550Y-2122620D01*
X3809460Y-4590110D02*
X3834460Y-4615110D01*
X3834460Y-4590110D02*
X3809460Y-4615110D01*
X3958990Y-3033000D02*
X3983990Y-3058000D01*
X3983990Y-3033000D02*
X3958990Y-3058000D01*
X4031950Y-3002560D02*
X4056950Y-3027560D01*
X4056950Y-3002560D02*
X4031950Y-3027560D01*
X4187500Y-2987500D02*
X4212500Y-3012500D01*
X4212500Y-2987500D02*
X4187500Y-3012500D01*
X4187500Y-4187500D02*
X4212500Y-4212500D01*
X4212500Y-4187500D02*
X4187500Y-4212500D01*
X5031500Y-881650D02*
X5056500Y-906650D01*
X5056500Y-881650D02*
X5031500Y-906650D01*
X5178450Y-1306570D02*
X5203450Y-1331570D01*
X5203450Y-1306570D02*
X5178450Y-1331570D01*
X5178450Y-2116570D02*
X5203450Y-2141570D01*
X5203450Y-2116570D02*
X5178450Y-2141570D01*
X5206780Y-2392900D02*
X5231780Y-2417900D01*
X5231780Y-2392900D02*
X5206780Y-2417900D01*
X5283290Y-2629380D02*
X5308290Y-2654380D01*
X5308290Y-2629380D02*
X5283290Y-2654380D01*
X5384170Y-1795200D02*
X5409170Y-1820200D01*
X5409170Y-1795200D02*
X5384170Y-1820200D01*
X5387500Y-587500D02*
X5412500Y-612500D01*
X5412500Y-587500D02*
X5387500Y-612500D01*
X5387500Y-4187500D02*
X5412500Y-4212500D01*
X5412500Y-4187500D02*
X5387500Y-4212500D01*
X5468370Y-2900590D02*
X5493370Y-2925590D01*
X5493370Y-2900590D02*
X5468370Y-2925590D01*
X5468370Y-3249410D02*
X5493370Y-3274410D01*
X5493370Y-3249410D02*
X5468370Y-3274410D01*
X5504730Y-1674350D02*
X5529730Y-1699350D01*
X5529730Y-1674350D02*
X5504730Y-1699350D01*
X5714150Y-1998850D02*
X5739150Y-2023850D01*
X5739150Y-1998850D02*
X5714150Y-2023850D01*
X5718520Y-2143780D02*
X5743520Y-2168780D01*
X5743520Y-2143780D02*
X5718520Y-2168780D01*
X5740130Y-1338330D02*
X5765130Y-1363330D01*
X5765130Y-1338330D02*
X5740130Y-1363330D01*
X5776650Y-1732910D02*
X5801650Y-1757910D01*
X5801650Y-1732910D02*
X5776650Y-1757910D01*
X5777500Y-1177500D02*
X5802500Y-1202500D01*
X5802500Y-1177500D02*
X5777500Y-1202500D01*
X5840830Y-2874990D02*
X5865830Y-2899990D01*
X5865830Y-2874990D02*
X5840830Y-2899990D01*
X5842500Y-1502500D02*
X5867500Y-1527500D01*
X5867500Y-1502500D02*
X5842500Y-1527500D01*
X5892050Y-1873490D02*
X5917050Y-1898490D01*
X5917050Y-1873490D02*
X5892050Y-1898490D01*
X5897500Y-2377500D02*
X5922500Y-2402500D01*
X5922500Y-2377500D02*
X5897500Y-2402500D01*
X5920050Y-1098720D02*
X5945050Y-1123720D01*
X5945050Y-1098720D02*
X5920050Y-1123720D01*
X5927500Y-897500D02*
X5952500Y-922500D01*
X5952500Y-897500D02*
X5927500Y-922500D01*
X5958590Y-678480D02*
X5983590Y-703480D01*
X5983590Y-678480D02*
X5958590Y-703480D01*
X6009010Y-1695440D02*
X6034010Y-1720440D01*
X6034010Y-1695440D02*
X6009010Y-1720440D01*
X6009010Y-2505440D02*
X6034010Y-2530440D01*
X6034010Y-2505440D02*
X6009010Y-2530440D01*
X6015410Y-1429080D02*
X6040410Y-1454080D01*
X6040410Y-1429080D02*
X6015410Y-1454080D01*
X6015410Y-2239080D02*
X6040410Y-2264080D01*
X6040410Y-2239080D02*
X6015410Y-2264080D01*
X6016880Y-1609250D02*
X6041880Y-1634250D01*
X6041880Y-1609250D02*
X6016880Y-1634250D01*
X6167960Y-953180D02*
X6192960Y-978180D01*
X6192960Y-953180D02*
X6167960Y-978180D01*
X6199420Y-1438860D02*
X6224420Y-1463860D01*
X6224420Y-1438860D02*
X6199420Y-1463860D01*
X6257500Y-1817500D02*
X6282500Y-1842500D01*
X6282500Y-1817500D02*
X6257500Y-1842500D01*
X6263590Y-858480D02*
X6288590Y-883480D01*
X6288590Y-858480D02*
X6263590Y-883480D01*
X6274460Y-2410340D02*
X6299460Y-2435340D01*
X6299460Y-2410340D02*
X6274460Y-2435340D01*
X6317500Y-1827500D02*
X6342500Y-1852500D01*
X6342500Y-1827500D02*
X6317500Y-1852500D01*
X6405460Y-2084980D02*
X6430460Y-2109980D01*
X6430460Y-2084980D02*
X6405460Y-2109980D01*
X6431540Y-1938020D02*
X6456540Y-1963020D01*
X6456540Y-1938020D02*
X6431540Y-1963020D01*
X6480380Y-1608570D02*
X6505380Y-1633570D01*
X6505380Y-1608570D02*
X6480380Y-1633570D01*
X6500700Y-1889220D02*
X6525700Y-1914220D01*
X6525700Y-1889220D02*
X6500700Y-1914220D01*
X6507500Y-2462500D02*
X6532500Y-2487500D01*
X6532500Y-2462500D02*
X6507500Y-2487500D01*
X6587500Y-587500D02*
X6612500Y-612500D01*
X6612500Y-587500D02*
X6587500Y-612500D01*
X6587500Y-2987500D02*
X6612500Y-3012500D01*
X6612500Y-2987500D02*
X6587500Y-3012500D01*
X6587500Y-4187500D02*
X6612500Y-4212500D01*
X6612500Y-4187500D02*
X6587500Y-4212500D01*
X6629100Y-1350780D02*
X6654100Y-1375780D01*
X6654100Y-1350780D02*
X6629100Y-1375780D01*
X6637500Y-2462500D02*
X6662500Y-2487500D01*
X6662500Y-2462500D02*
X6637500Y-2487500D01*
X6945690Y-1627980D02*
X6970690Y-1652980D01*
X6970690Y-1627980D02*
X6945690Y-1652980D01*
X7005400Y-1318220D02*
X7030400Y-1343220D01*
X7030400Y-1318220D02*
X7005400Y-1343220D01*
X7057500Y-2242500D02*
X7082500Y-2267500D01*
X7082500Y-2242500D02*
X7057500Y-2267500D01*
X7299540Y-1524660D02*
X7324540Y-1549660D01*
X7324540Y-1524660D02*
X7299540Y-1549660D01*
X7299540Y-2410340D02*
X7324540Y-2435340D01*
X7324540Y-2410340D02*
X7299540Y-2435340D01*
X7406980Y-1756610D02*
X7431980Y-1781610D01*
X7431980Y-1756610D02*
X7406980Y-1781610D01*
X7406980Y-1873390D02*
X7431980Y-1898390D01*
X7431980Y-1873390D02*
X7406980Y-1898390D01*
X7479540Y-1219660D02*
X7504540Y-1244660D01*
X7504540Y-1219660D02*
X7479540Y-1244660D01*
X7479540Y-2105340D02*
X7504540Y-2130340D01*
X7504540Y-2105340D02*
X7479540Y-2130340D01*
X7480670Y-2845940D02*
X7505670Y-2870940D01*
X7505670Y-2845940D02*
X7480670Y-2870940D01*
X7580830Y-3095380D02*
X7605830Y-3120380D01*
X7605830Y-3095380D02*
X7580830Y-3120380D01*
X3367500Y-3217000D02*
G75*
G02*
X3307500Y-3217000I-30000J0D01*
G01*
X3307500Y-3217000D02*
G75*
G02*
X3367500Y-3217000I30000J0D01*
G01*
X3307500Y-3162000D02*
X3307500Y-3272000D01*
X3367500Y-3272000D02*
G75*
G02*
X3307500Y-3272000I-30000J0D01*
G01*
X3367500Y-3272000D02*
X3367500Y-3162000D01*
X3367500Y-3162000D02*
G75*
G03*
X3307500Y-3162000I-30000J0D01*
G01*
X3367500Y-3635000D02*
G75*
G02*
X3307500Y-3635000I-30000J0D01*
G01*
X3307500Y-3635000D02*
G75*
G02*
X3367500Y-3635000I30000J0D01*
G01*
X3307500Y-3605000D02*
X3307500Y-3665000D01*
X3367500Y-3665000D02*
G75*
G02*
X3307500Y-3665000I-30000J0D01*
G01*
X3367500Y-3665000D02*
X3367500Y-3605000D01*
X3367500Y-3605000D02*
G75*
G03*
X3307500Y-3605000I-30000J0D01*
G01*
X4231500Y-3217000D02*
G75*
G02*
X4171500Y-3217000I-30000J0D01*
G01*
X4171500Y-3217000D02*
G75*
G02*
X4231500Y-3217000I30000J0D01*
G01*
X4171500Y-3162000D02*
X4171500Y-3272000D01*
X4231500Y-3272000D02*
G75*
G02*
X4171500Y-3272000I-30000J0D01*
G01*
X4231500Y-3272000D02*
X4231500Y-3162000D01*
X4231500Y-3162000D02*
G75*
G03*
X4171500Y-3162000I-30000J0D01*
G01*
X4231500Y-3635000D02*
G75*
G02*
X4171500Y-3635000I-30000J0D01*
G01*
X4171500Y-3635000D02*
G75*
G02*
X4231500Y-3635000I30000J0D01*
G01*
X4171500Y-3605000D02*
X4171500Y-3665000D01*
X4231500Y-3665000D02*
G75*
G02*
X4171500Y-3665000I-30000J0D01*
G01*
X4231500Y-3665000D02*
X4231500Y-3605000D01*
X4231500Y-3605000D02*
G75*
G03*
X4171500Y-3605000I-30000J0D01*
G01*
X329500Y-3280000D02*
X329500Y-3355000D01*
X292000Y-3317500D02*
X367000Y-3317500D01*
X329500Y-3950000D02*
X329500Y-4025000D01*
X292000Y-3987500D02*
X367000Y-3987500D01*
X329500Y-4620000D02*
X329500Y-4695000D01*
X292000Y-4657500D02*
X367000Y-4657500D01*
X369500Y-350000D02*
X369500Y-425000D01*
X332000Y-387500D02*
X407000Y-387500D01*
X529500Y-3280000D02*
X529500Y-3355000D01*
X492000Y-3317500D02*
X567000Y-3317500D01*
X529500Y-3950000D02*
X529500Y-4025000D01*
X492000Y-3987500D02*
X567000Y-3987500D01*
X529500Y-4620000D02*
X529500Y-4695000D01*
X492000Y-4657500D02*
X567000Y-4657500D01*
X569500Y-350000D02*
X569500Y-425000D01*
X532000Y-387500D02*
X607000Y-387500D01*
X769500Y-350000D02*
X769500Y-425000D01*
X732000Y-387500D02*
X807000Y-387500D01*
X7829500Y-750000D02*
X7829500Y-825000D01*
X7792000Y-787500D02*
X7867000Y-787500D01*
X7829500Y-950000D02*
X7829500Y-1025000D01*
X7792000Y-987500D02*
X7867000Y-987500D01*
X7829500Y-1150000D02*
X7829500Y-1225000D01*
X7792000Y-1187500D02*
X7867000Y-1187500D01*
X7829500Y-1350000D02*
X7829500Y-1425000D01*
X7792000Y-1387500D02*
X7867000Y-1387500D01*
X7829500Y-1550000D02*
X7829500Y-1625000D01*
X7792000Y-1587500D02*
X7867000Y-1587500D01*
X7829500Y-1750000D02*
X7829500Y-1825000D01*
X7792000Y-1787500D02*
X7867000Y-1787500D01*
X7829500Y-1950000D02*
X7829500Y-2025000D01*
X7792000Y-1987500D02*
X7867000Y-1987500D01*
X7829500Y-2150000D02*
X7829500Y-2225000D01*
X7792000Y-2187500D02*
X7867000Y-2187500D01*
X7829500Y-2790000D02*
X7829500Y-2865000D01*
X7792000Y-2827500D02*
X7867000Y-2827500D01*
X7829500Y-2990000D02*
X7829500Y-3065000D01*
X7792000Y-3027500D02*
X7867000Y-3027500D01*
X7829500Y-3190000D02*
X7829500Y-3265000D01*
X7792000Y-3227500D02*
X7867000Y-3227500D01*
X7829500Y-3390000D02*
X7829500Y-3465000D01*
X7792000Y-3427500D02*
X7867000Y-3427500D01*
X7829500Y-3590000D02*
X7829500Y-3665000D01*
X7792000Y-3627500D02*
X7867000Y-3627500D01*
X7829500Y-4350000D02*
X7829500Y-4425000D01*
X7792000Y-4387500D02*
X7867000Y-4387500D01*
X7829500Y-4550000D02*
X7829500Y-4625000D01*
X7792000Y-4587500D02*
X7867000Y-4587500D01*
X7829500Y-4750000D02*
X7829500Y-4825000D01*
X7792000Y-4787500D02*
X7867000Y-4787500D01*
X7829500Y-4950000D02*
X7829500Y-5025000D01*
X7792000Y-4987500D02*
X7867000Y-4987500D01*
X7829500Y-5150000D02*
X7829500Y-5225000D01*
X7792000Y-5187500D02*
X7867000Y-5187500D01*
X7829500Y-5350000D02*
X7829500Y-5425000D01*
X7792000Y-5387500D02*
X7867000Y-5387500D01*
D11*
X258277Y-6030984D02*
X258277Y-5830984D01*
X258277Y-5830984D02*
X305896Y-5830984D01*
X305896Y-5830984D02*
X334467Y-5840508D01*
X334467Y-5840508D02*
X353515Y-5859555D01*
X353515Y-5859555D02*
X363039Y-5878603D01*
X363039Y-5878603D02*
X372562Y-5916698D01*
X372562Y-5916698D02*
X372562Y-5945269D01*
X372562Y-5945269D02*
X363039Y-5983365D01*
X363039Y-5983365D02*
X353515Y-6002412D01*
X353515Y-6002412D02*
X334467Y-6021460D01*
X334467Y-6021460D02*
X305896Y-6030984D01*
X305896Y-6030984D02*
X258277Y-6030984D01*
X458277Y-6030984D02*
X458277Y-5897650D01*
X458277Y-5935746D02*
X467801Y-5916698D01*
X467801Y-5916698D02*
X477324Y-5907174D01*
X477324Y-5907174D02*
X496372Y-5897650D01*
X496372Y-5897650D02*
X515420Y-5897650D01*
X582086Y-6030984D02*
X582086Y-5897650D01*
X582086Y-5830984D02*
X572563Y-5840508D01*
X572563Y-5840508D02*
X582086Y-5850031D01*
X582086Y-5850031D02*
X591610Y-5840508D01*
X591610Y-5840508D02*
X582086Y-5830984D01*
X582086Y-5830984D02*
X582086Y-5850031D01*
X705896Y-6030984D02*
X686848Y-6021460D01*
X686848Y-6021460D02*
X677324Y-6002412D01*
X677324Y-6002412D02*
X677324Y-5830984D01*
X810658Y-6030984D02*
X791610Y-6021460D01*
X791610Y-6021460D02*
X782086Y-6002412D01*
X782086Y-6002412D02*
X782086Y-5830984D01*
X1039229Y-6030984D02*
X1039229Y-5830984D01*
X1039229Y-5830984D02*
X1105896Y-5973841D01*
X1105896Y-5973841D02*
X1172563Y-5830984D01*
X1172563Y-5830984D02*
X1172563Y-6030984D01*
X1353515Y-6030984D02*
X1353515Y-5926222D01*
X1353515Y-5926222D02*
X1343991Y-5907174D01*
X1343991Y-5907174D02*
X1324944Y-5897650D01*
X1324944Y-5897650D02*
X1286848Y-5897650D01*
X1286848Y-5897650D02*
X1267801Y-5907174D01*
X1353515Y-6021460D02*
X1334467Y-6030984D01*
X1334467Y-6030984D02*
X1286848Y-6030984D01*
X1286848Y-6030984D02*
X1267801Y-6021460D01*
X1267801Y-6021460D02*
X1258277Y-6002412D01*
X1258277Y-6002412D02*
X1258277Y-5983365D01*
X1258277Y-5983365D02*
X1267801Y-5964317D01*
X1267801Y-5964317D02*
X1286848Y-5954793D01*
X1286848Y-5954793D02*
X1334467Y-5954793D01*
X1334467Y-5954793D02*
X1353515Y-5945269D01*
X1448753Y-5897650D02*
X1448753Y-6097650D01*
X1448753Y-5907174D02*
X1467801Y-5897650D01*
X1467801Y-5897650D02*
X1505896Y-5897650D01*
X1505896Y-5897650D02*
X1524943Y-5907174D01*
X1524943Y-5907174D02*
X1534467Y-5916698D01*
X1534467Y-5916698D02*
X1543991Y-5935746D01*
X1543991Y-5935746D02*
X1543991Y-5992888D01*
X1543991Y-5992888D02*
X1534467Y-6011936D01*
X1534467Y-6011936D02*
X1524943Y-6021460D01*
X1524943Y-6021460D02*
X1505896Y-6030984D01*
X1505896Y-6030984D02*
X1467801Y-6030984D01*
X1467801Y-6030984D02*
X1448753Y-6021460D01*
X1629705Y-6011936D02*
X1639229Y-6021460D01*
X1639229Y-6021460D02*
X1629705Y-6030984D01*
X1629705Y-6030984D02*
X1620182Y-6021460D01*
X1620182Y-6021460D02*
X1629705Y-6011936D01*
X1629705Y-6011936D02*
X1629705Y-6030984D01*
X1629705Y-5907174D02*
X1639229Y-5916698D01*
X1639229Y-5916698D02*
X1629705Y-5926222D01*
X1629705Y-5926222D02*
X1620182Y-5916698D01*
X1620182Y-5916698D02*
X1629705Y-5907174D01*
X1629705Y-5907174D02*
X1629705Y-5926222D01*
D12*
X-27500Y-6347000D02*
X-2500Y-6372000D01*
X-2500Y-6347000D02*
X-27500Y-6372000D01*
D11*
X296372Y-6250984D02*
X315420Y-6250984D01*
X315420Y-6250984D02*
X334467Y-6260508D01*
X334467Y-6260508D02*
X343991Y-6270031D01*
X343991Y-6270031D02*
X353515Y-6289079D01*
X353515Y-6289079D02*
X363039Y-6327174D01*
X363039Y-6327174D02*
X363039Y-6374793D01*
X363039Y-6374793D02*
X353515Y-6412888D01*
X353515Y-6412888D02*
X343991Y-6431936D01*
X343991Y-6431936D02*
X334467Y-6441460D01*
X334467Y-6441460D02*
X315420Y-6450984D01*
X315420Y-6450984D02*
X296372Y-6450984D01*
X296372Y-6450984D02*
X277324Y-6441460D01*
X277324Y-6441460D02*
X267801Y-6431936D01*
X267801Y-6431936D02*
X258277Y-6412888D01*
X258277Y-6412888D02*
X248753Y-6374793D01*
X248753Y-6374793D02*
X248753Y-6327174D01*
X248753Y-6327174D02*
X258277Y-6289079D01*
X258277Y-6289079D02*
X267801Y-6270031D01*
X267801Y-6270031D02*
X277324Y-6260508D01*
X277324Y-6260508D02*
X296372Y-6250984D01*
X448753Y-6431936D02*
X458277Y-6441460D01*
X458277Y-6441460D02*
X448753Y-6450984D01*
X448753Y-6450984D02*
X439229Y-6441460D01*
X439229Y-6441460D02*
X448753Y-6431936D01*
X448753Y-6431936D02*
X448753Y-6450984D01*
X534467Y-6270031D02*
X543991Y-6260508D01*
X543991Y-6260508D02*
X563039Y-6250984D01*
X563039Y-6250984D02*
X610658Y-6250984D01*
X610658Y-6250984D02*
X629705Y-6260508D01*
X629705Y-6260508D02*
X639229Y-6270031D01*
X639229Y-6270031D02*
X648753Y-6289079D01*
X648753Y-6289079D02*
X648753Y-6308127D01*
X648753Y-6308127D02*
X639229Y-6336698D01*
X639229Y-6336698D02*
X524944Y-6450984D01*
X524944Y-6450984D02*
X648753Y-6450984D01*
X829705Y-6250984D02*
X734467Y-6250984D01*
X734467Y-6250984D02*
X724943Y-6346222D01*
X724943Y-6346222D02*
X734467Y-6336698D01*
X734467Y-6336698D02*
X753515Y-6327174D01*
X753515Y-6327174D02*
X801134Y-6327174D01*
X801134Y-6327174D02*
X820182Y-6336698D01*
X820182Y-6336698D02*
X829705Y-6346222D01*
X829705Y-6346222D02*
X839229Y-6365269D01*
X839229Y-6365269D02*
X839229Y-6412888D01*
X839229Y-6412888D02*
X829705Y-6431936D01*
X829705Y-6431936D02*
X820182Y-6441460D01*
X820182Y-6441460D02*
X801134Y-6450984D01*
X801134Y-6450984D02*
X753515Y-6450984D01*
X753515Y-6450984D02*
X734467Y-6441460D01*
X734467Y-6441460D02*
X724943Y-6431936D01*
X963039Y-6250984D02*
X982086Y-6250984D01*
X982086Y-6250984D02*
X1001134Y-6260508D01*
X1001134Y-6260508D02*
X1010658Y-6270031D01*
X1010658Y-6270031D02*
X1020182Y-6289079D01*
X1020182Y-6289079D02*
X1029705Y-6327174D01*
X1029705Y-6327174D02*
X1029705Y-6374793D01*
X1029705Y-6374793D02*
X1020182Y-6412888D01*
X1020182Y-6412888D02*
X1010658Y-6431936D01*
X1010658Y-6431936D02*
X1001134Y-6441460D01*
X1001134Y-6441460D02*
X982086Y-6450984D01*
X982086Y-6450984D02*
X963039Y-6450984D01*
X963039Y-6450984D02*
X943991Y-6441460D01*
X943991Y-6441460D02*
X934467Y-6431936D01*
X934467Y-6431936D02*
X924943Y-6412888D01*
X924943Y-6412888D02*
X915420Y-6374793D01*
X915420Y-6374793D02*
X915420Y-6327174D01*
X915420Y-6327174D02*
X924943Y-6289079D01*
X924943Y-6289079D02*
X934467Y-6270031D01*
X934467Y-6270031D02*
X943991Y-6260508D01*
X943991Y-6260508D02*
X963039Y-6250984D01*
X1115420Y-6450984D02*
X1115420Y-6317650D01*
X1115420Y-6336698D02*
X1124944Y-6327174D01*
X1124944Y-6327174D02*
X1143991Y-6317650D01*
X1143991Y-6317650D02*
X1172563Y-6317650D01*
X1172563Y-6317650D02*
X1191610Y-6327174D01*
X1191610Y-6327174D02*
X1201134Y-6346222D01*
X1201134Y-6346222D02*
X1201134Y-6450984D01*
X1201134Y-6346222D02*
X1210658Y-6327174D01*
X1210658Y-6327174D02*
X1229705Y-6317650D01*
X1229705Y-6317650D02*
X1258277Y-6317650D01*
X1258277Y-6317650D02*
X1277325Y-6327174D01*
X1277325Y-6327174D02*
X1286848Y-6346222D01*
X1286848Y-6346222D02*
X1286848Y-6450984D01*
X1382086Y-6450984D02*
X1382086Y-6317650D01*
X1382086Y-6336698D02*
X1391610Y-6327174D01*
X1391610Y-6327174D02*
X1410658Y-6317650D01*
X1410658Y-6317650D02*
X1439229Y-6317650D01*
X1439229Y-6317650D02*
X1458277Y-6327174D01*
X1458277Y-6327174D02*
X1467801Y-6346222D01*
X1467801Y-6346222D02*
X1467801Y-6450984D01*
X1467801Y-6346222D02*
X1477324Y-6327174D01*
X1477324Y-6327174D02*
X1496372Y-6317650D01*
X1496372Y-6317650D02*
X1524943Y-6317650D01*
X1524943Y-6317650D02*
X1543991Y-6327174D01*
X1543991Y-6327174D02*
X1553515Y-6346222D01*
X1553515Y-6346222D02*
X1553515Y-6450984D01*
X1943991Y-6241460D02*
X1772563Y-6498603D01*
X2201134Y-6250984D02*
X2220182Y-6250984D01*
X2220182Y-6250984D02*
X2239229Y-6260508D01*
X2239229Y-6260508D02*
X2248753Y-6270031D01*
X2248753Y-6270031D02*
X2258277Y-6289079D01*
X2258277Y-6289079D02*
X2267801Y-6327174D01*
X2267801Y-6327174D02*
X2267801Y-6374793D01*
X2267801Y-6374793D02*
X2258277Y-6412888D01*
X2258277Y-6412888D02*
X2248753Y-6431936D01*
X2248753Y-6431936D02*
X2239229Y-6441460D01*
X2239229Y-6441460D02*
X2220182Y-6450984D01*
X2220182Y-6450984D02*
X2201134Y-6450984D01*
X2201134Y-6450984D02*
X2182087Y-6441460D01*
X2182087Y-6441460D02*
X2172563Y-6431936D01*
X2172563Y-6431936D02*
X2163039Y-6412888D01*
X2163039Y-6412888D02*
X2153515Y-6374793D01*
X2153515Y-6374793D02*
X2153515Y-6327174D01*
X2153515Y-6327174D02*
X2163039Y-6289079D01*
X2163039Y-6289079D02*
X2172563Y-6270031D01*
X2172563Y-6270031D02*
X2182087Y-6260508D01*
X2182087Y-6260508D02*
X2201134Y-6250984D01*
X2353515Y-6431936D02*
X2363039Y-6441460D01*
X2363039Y-6441460D02*
X2353515Y-6450984D01*
X2353515Y-6450984D02*
X2343991Y-6441460D01*
X2343991Y-6441460D02*
X2353515Y-6431936D01*
X2353515Y-6431936D02*
X2353515Y-6450984D01*
X2486848Y-6250984D02*
X2505896Y-6250984D01*
X2505896Y-6250984D02*
X2524944Y-6260508D01*
X2524944Y-6260508D02*
X2534468Y-6270031D01*
X2534468Y-6270031D02*
X2543991Y-6289079D01*
X2543991Y-6289079D02*
X2553515Y-6327174D01*
X2553515Y-6327174D02*
X2553515Y-6374793D01*
X2553515Y-6374793D02*
X2543991Y-6412888D01*
X2543991Y-6412888D02*
X2534468Y-6431936D01*
X2534468Y-6431936D02*
X2524944Y-6441460D01*
X2524944Y-6441460D02*
X2505896Y-6450984D01*
X2505896Y-6450984D02*
X2486848Y-6450984D01*
X2486848Y-6450984D02*
X2467801Y-6441460D01*
X2467801Y-6441460D02*
X2458277Y-6431936D01*
X2458277Y-6431936D02*
X2448753Y-6412888D01*
X2448753Y-6412888D02*
X2439229Y-6374793D01*
X2439229Y-6374793D02*
X2439229Y-6327174D01*
X2439229Y-6327174D02*
X2448753Y-6289079D01*
X2448753Y-6289079D02*
X2458277Y-6270031D01*
X2458277Y-6270031D02*
X2467801Y-6260508D01*
X2467801Y-6260508D02*
X2486848Y-6250984D01*
X2677325Y-6250984D02*
X2696372Y-6250984D01*
X2696372Y-6250984D02*
X2715420Y-6260508D01*
X2715420Y-6260508D02*
X2724944Y-6270031D01*
X2724944Y-6270031D02*
X2734468Y-6289079D01*
X2734468Y-6289079D02*
X2743991Y-6327174D01*
X2743991Y-6327174D02*
X2743991Y-6374793D01*
X2743991Y-6374793D02*
X2734468Y-6412888D01*
X2734468Y-6412888D02*
X2724944Y-6431936D01*
X2724944Y-6431936D02*
X2715420Y-6441460D01*
X2715420Y-6441460D02*
X2696372Y-6450984D01*
X2696372Y-6450984D02*
X2677325Y-6450984D01*
X2677325Y-6450984D02*
X2658277Y-6441460D01*
X2658277Y-6441460D02*
X2648753Y-6431936D01*
X2648753Y-6431936D02*
X2639229Y-6412888D01*
X2639229Y-6412888D02*
X2629706Y-6374793D01*
X2629706Y-6374793D02*
X2629706Y-6327174D01*
X2629706Y-6327174D02*
X2639229Y-6289079D01*
X2639229Y-6289079D02*
X2648753Y-6270031D01*
X2648753Y-6270031D02*
X2658277Y-6260508D01*
X2658277Y-6260508D02*
X2677325Y-6250984D01*
X2839229Y-6450984D02*
X2877325Y-6450984D01*
X2877325Y-6450984D02*
X2896372Y-6441460D01*
X2896372Y-6441460D02*
X2905896Y-6431936D01*
X2905896Y-6431936D02*
X2924944Y-6403365D01*
X2924944Y-6403365D02*
X2934467Y-6365269D01*
X2934467Y-6365269D02*
X2934467Y-6289079D01*
X2934467Y-6289079D02*
X2924944Y-6270031D01*
X2924944Y-6270031D02*
X2915420Y-6260508D01*
X2915420Y-6260508D02*
X2896372Y-6250984D01*
X2896372Y-6250984D02*
X2858277Y-6250984D01*
X2858277Y-6250984D02*
X2839229Y-6260508D01*
X2839229Y-6260508D02*
X2829706Y-6270031D01*
X2829706Y-6270031D02*
X2820182Y-6289079D01*
X2820182Y-6289079D02*
X2820182Y-6336698D01*
X2820182Y-6336698D02*
X2829706Y-6355746D01*
X2829706Y-6355746D02*
X2839229Y-6365269D01*
X2839229Y-6365269D02*
X2858277Y-6374793D01*
X2858277Y-6374793D02*
X2896372Y-6374793D01*
X2896372Y-6374793D02*
X2915420Y-6365269D01*
X2915420Y-6365269D02*
X2924944Y-6355746D01*
X2924944Y-6355746D02*
X2934467Y-6336698D01*
X3048753Y-6336698D02*
X3029706Y-6327174D01*
X3029706Y-6327174D02*
X3020182Y-6317650D01*
X3020182Y-6317650D02*
X3010658Y-6298603D01*
X3010658Y-6298603D02*
X3010658Y-6289079D01*
X3010658Y-6289079D02*
X3020182Y-6270031D01*
X3020182Y-6270031D02*
X3029706Y-6260508D01*
X3029706Y-6260508D02*
X3048753Y-6250984D01*
X3048753Y-6250984D02*
X3086848Y-6250984D01*
X3086848Y-6250984D02*
X3105896Y-6260508D01*
X3105896Y-6260508D02*
X3115420Y-6270031D01*
X3115420Y-6270031D02*
X3124944Y-6289079D01*
X3124944Y-6289079D02*
X3124944Y-6298603D01*
X3124944Y-6298603D02*
X3115420Y-6317650D01*
X3115420Y-6317650D02*
X3105896Y-6327174D01*
X3105896Y-6327174D02*
X3086848Y-6336698D01*
X3086848Y-6336698D02*
X3048753Y-6336698D01*
X3048753Y-6336698D02*
X3029706Y-6346222D01*
X3029706Y-6346222D02*
X3020182Y-6355746D01*
X3020182Y-6355746D02*
X3010658Y-6374793D01*
X3010658Y-6374793D02*
X3010658Y-6412888D01*
X3010658Y-6412888D02*
X3020182Y-6431936D01*
X3020182Y-6431936D02*
X3029706Y-6441460D01*
X3029706Y-6441460D02*
X3048753Y-6450984D01*
X3048753Y-6450984D02*
X3086848Y-6450984D01*
X3086848Y-6450984D02*
X3105896Y-6441460D01*
X3105896Y-6441460D02*
X3115420Y-6431936D01*
X3115420Y-6431936D02*
X3124944Y-6412888D01*
X3124944Y-6412888D02*
X3124944Y-6374793D01*
X3124944Y-6374793D02*
X3115420Y-6355746D01*
X3115420Y-6355746D02*
X3105896Y-6346222D01*
X3105896Y-6346222D02*
X3086848Y-6336698D01*
X3201134Y-6250984D02*
X3201134Y-6289079D01*
X3277325Y-6250984D02*
X3277325Y-6289079D01*
X3572563Y-6527174D02*
X3563039Y-6517650D01*
X3563039Y-6517650D02*
X3543991Y-6489079D01*
X3543991Y-6489079D02*
X3534468Y-6470031D01*
X3534468Y-6470031D02*
X3524944Y-6441460D01*
X3524944Y-6441460D02*
X3515420Y-6393841D01*
X3515420Y-6393841D02*
X3515420Y-6355746D01*
X3515420Y-6355746D02*
X3524944Y-6308127D01*
X3524944Y-6308127D02*
X3534468Y-6279555D01*
X3534468Y-6279555D02*
X3543991Y-6260508D01*
X3543991Y-6260508D02*
X3563039Y-6231936D01*
X3563039Y-6231936D02*
X3572563Y-6222412D01*
X3753515Y-6450984D02*
X3639229Y-6450984D01*
X3696372Y-6450984D02*
X3696372Y-6250984D01*
X3696372Y-6250984D02*
X3677325Y-6279555D01*
X3677325Y-6279555D02*
X3658277Y-6298603D01*
X3658277Y-6298603D02*
X3639229Y-6308127D01*
X3829706Y-6270031D02*
X3839229Y-6260508D01*
X3839229Y-6260508D02*
X3858277Y-6250984D01*
X3858277Y-6250984D02*
X3905896Y-6250984D01*
X3905896Y-6250984D02*
X3924944Y-6260508D01*
X3924944Y-6260508D02*
X3934468Y-6270031D01*
X3934468Y-6270031D02*
X3943991Y-6289079D01*
X3943991Y-6289079D02*
X3943991Y-6308127D01*
X3943991Y-6308127D02*
X3934468Y-6336698D01*
X3934468Y-6336698D02*
X3820182Y-6450984D01*
X3820182Y-6450984D02*
X3943991Y-6450984D01*
X4058277Y-6336698D02*
X4039229Y-6327174D01*
X4039229Y-6327174D02*
X4029706Y-6317650D01*
X4029706Y-6317650D02*
X4020182Y-6298603D01*
X4020182Y-6298603D02*
X4020182Y-6289079D01*
X4020182Y-6289079D02*
X4029706Y-6270031D01*
X4029706Y-6270031D02*
X4039229Y-6260508D01*
X4039229Y-6260508D02*
X4058277Y-6250984D01*
X4058277Y-6250984D02*
X4096372Y-6250984D01*
X4096372Y-6250984D02*
X4115420Y-6260508D01*
X4115420Y-6260508D02*
X4124944Y-6270031D01*
X4124944Y-6270031D02*
X4134468Y-6289079D01*
X4134468Y-6289079D02*
X4134468Y-6298603D01*
X4134468Y-6298603D02*
X4124944Y-6317650D01*
X4124944Y-6317650D02*
X4115420Y-6327174D01*
X4115420Y-6327174D02*
X4096372Y-6336698D01*
X4096372Y-6336698D02*
X4058277Y-6336698D01*
X4058277Y-6336698D02*
X4039229Y-6346222D01*
X4039229Y-6346222D02*
X4029706Y-6355746D01*
X4029706Y-6355746D02*
X4020182Y-6374793D01*
X4020182Y-6374793D02*
X4020182Y-6412888D01*
X4020182Y-6412888D02*
X4029706Y-6431936D01*
X4029706Y-6431936D02*
X4039229Y-6441460D01*
X4039229Y-6441460D02*
X4058277Y-6450984D01*
X4058277Y-6450984D02*
X4096372Y-6450984D01*
X4096372Y-6450984D02*
X4115420Y-6441460D01*
X4115420Y-6441460D02*
X4124944Y-6431936D01*
X4124944Y-6431936D02*
X4134468Y-6412888D01*
X4134468Y-6412888D02*
X4134468Y-6374793D01*
X4134468Y-6374793D02*
X4124944Y-6355746D01*
X4124944Y-6355746D02*
X4115420Y-6346222D01*
X4115420Y-6346222D02*
X4096372Y-6336698D01*
X4372563Y-6450984D02*
X4372563Y-6250984D01*
X4458277Y-6450984D02*
X4458277Y-6346222D01*
X4458277Y-6346222D02*
X4448753Y-6327174D01*
X4448753Y-6327174D02*
X4429706Y-6317650D01*
X4429706Y-6317650D02*
X4401134Y-6317650D01*
X4401134Y-6317650D02*
X4382087Y-6327174D01*
X4382087Y-6327174D02*
X4372563Y-6336698D01*
X4582087Y-6450984D02*
X4563039Y-6441460D01*
X4563039Y-6441460D02*
X4553515Y-6431936D01*
X4553515Y-6431936D02*
X4543992Y-6412888D01*
X4543992Y-6412888D02*
X4543992Y-6355746D01*
X4543992Y-6355746D02*
X4553515Y-6336698D01*
X4553515Y-6336698D02*
X4563039Y-6327174D01*
X4563039Y-6327174D02*
X4582087Y-6317650D01*
X4582087Y-6317650D02*
X4610658Y-6317650D01*
X4610658Y-6317650D02*
X4629706Y-6327174D01*
X4629706Y-6327174D02*
X4639230Y-6336698D01*
X4639230Y-6336698D02*
X4648753Y-6355746D01*
X4648753Y-6355746D02*
X4648753Y-6412888D01*
X4648753Y-6412888D02*
X4639230Y-6431936D01*
X4639230Y-6431936D02*
X4629706Y-6441460D01*
X4629706Y-6441460D02*
X4610658Y-6450984D01*
X4610658Y-6450984D02*
X4582087Y-6450984D01*
X4763039Y-6450984D02*
X4743992Y-6441460D01*
X4743992Y-6441460D02*
X4734468Y-6422412D01*
X4734468Y-6422412D02*
X4734468Y-6250984D01*
X4915420Y-6441460D02*
X4896373Y-6450984D01*
X4896373Y-6450984D02*
X4858277Y-6450984D01*
X4858277Y-6450984D02*
X4839230Y-6441460D01*
X4839230Y-6441460D02*
X4829706Y-6422412D01*
X4829706Y-6422412D02*
X4829706Y-6346222D01*
X4829706Y-6346222D02*
X4839230Y-6327174D01*
X4839230Y-6327174D02*
X4858277Y-6317650D01*
X4858277Y-6317650D02*
X4896373Y-6317650D01*
X4896373Y-6317650D02*
X4915420Y-6327174D01*
X4915420Y-6327174D02*
X4924944Y-6346222D01*
X4924944Y-6346222D02*
X4924944Y-6365269D01*
X4924944Y-6365269D02*
X4829706Y-6384317D01*
X5001134Y-6441460D02*
X5020182Y-6450984D01*
X5020182Y-6450984D02*
X5058277Y-6450984D01*
X5058277Y-6450984D02*
X5077325Y-6441460D01*
X5077325Y-6441460D02*
X5086849Y-6422412D01*
X5086849Y-6422412D02*
X5086849Y-6412888D01*
X5086849Y-6412888D02*
X5077325Y-6393841D01*
X5077325Y-6393841D02*
X5058277Y-6384317D01*
X5058277Y-6384317D02*
X5029706Y-6384317D01*
X5029706Y-6384317D02*
X5010658Y-6374793D01*
X5010658Y-6374793D02*
X5001134Y-6355746D01*
X5001134Y-6355746D02*
X5001134Y-6346222D01*
X5001134Y-6346222D02*
X5010658Y-6327174D01*
X5010658Y-6327174D02*
X5029706Y-6317650D01*
X5029706Y-6317650D02*
X5058277Y-6317650D01*
X5058277Y-6317650D02*
X5077325Y-6327174D01*
X5153515Y-6527174D02*
X5163039Y-6517650D01*
X5163039Y-6517650D02*
X5182087Y-6489079D01*
X5182087Y-6489079D02*
X5191611Y-6470031D01*
X5191611Y-6470031D02*
X5201134Y-6441460D01*
X5201134Y-6441460D02*
X5210658Y-6393841D01*
X5210658Y-6393841D02*
X5210658Y-6355746D01*
X5210658Y-6355746D02*
X5201134Y-6308127D01*
X5201134Y-6308127D02*
X5191611Y-6279555D01*
X5191611Y-6279555D02*
X5182087Y-6260508D01*
X5182087Y-6260508D02*
X5163039Y-6231936D01*
X5163039Y-6231936D02*
X5153515Y-6222412D01*
D12*
X-2500Y-6623500D02*
G75*
G02*
X-62500Y-6623500I-30000J0D01*
G01*
X-62500Y-6623500D02*
G75*
G02*
X-2500Y-6623500I30000J0D01*
G01*
D11*
X296372Y-6514984D02*
X315420Y-6514984D01*
X315420Y-6514984D02*
X334467Y-6524508D01*
X334467Y-6524508D02*
X343991Y-6534031D01*
X343991Y-6534031D02*
X353515Y-6553079D01*
X353515Y-6553079D02*
X363039Y-6591174D01*
X363039Y-6591174D02*
X363039Y-6638793D01*
X363039Y-6638793D02*
X353515Y-6676888D01*
X353515Y-6676888D02*
X343991Y-6695936D01*
X343991Y-6695936D02*
X334467Y-6705460D01*
X334467Y-6705460D02*
X315420Y-6714984D01*
X315420Y-6714984D02*
X296372Y-6714984D01*
X296372Y-6714984D02*
X277324Y-6705460D01*
X277324Y-6705460D02*
X267801Y-6695936D01*
X267801Y-6695936D02*
X258277Y-6676888D01*
X258277Y-6676888D02*
X248753Y-6638793D01*
X248753Y-6638793D02*
X248753Y-6591174D01*
X248753Y-6591174D02*
X258277Y-6553079D01*
X258277Y-6553079D02*
X267801Y-6534031D01*
X267801Y-6534031D02*
X277324Y-6524508D01*
X277324Y-6524508D02*
X296372Y-6514984D01*
X448753Y-6695936D02*
X458277Y-6705460D01*
X458277Y-6705460D02*
X448753Y-6714984D01*
X448753Y-6714984D02*
X439229Y-6705460D01*
X439229Y-6705460D02*
X448753Y-6695936D01*
X448753Y-6695936D02*
X448753Y-6714984D01*
X629705Y-6514984D02*
X591610Y-6514984D01*
X591610Y-6514984D02*
X572563Y-6524508D01*
X572563Y-6524508D02*
X563039Y-6534031D01*
X563039Y-6534031D02*
X543991Y-6562603D01*
X543991Y-6562603D02*
X534467Y-6600698D01*
X534467Y-6600698D02*
X534467Y-6676888D01*
X534467Y-6676888D02*
X543991Y-6695936D01*
X543991Y-6695936D02*
X553515Y-6705460D01*
X553515Y-6705460D02*
X572563Y-6714984D01*
X572563Y-6714984D02*
X610658Y-6714984D01*
X610658Y-6714984D02*
X629705Y-6705460D01*
X629705Y-6705460D02*
X639229Y-6695936D01*
X639229Y-6695936D02*
X648753Y-6676888D01*
X648753Y-6676888D02*
X648753Y-6629269D01*
X648753Y-6629269D02*
X639229Y-6610222D01*
X639229Y-6610222D02*
X629705Y-6600698D01*
X629705Y-6600698D02*
X610658Y-6591174D01*
X610658Y-6591174D02*
X572563Y-6591174D01*
X572563Y-6591174D02*
X553515Y-6600698D01*
X553515Y-6600698D02*
X543991Y-6610222D01*
X543991Y-6610222D02*
X534467Y-6629269D01*
X772562Y-6514984D02*
X791610Y-6514984D01*
X791610Y-6514984D02*
X810658Y-6524508D01*
X810658Y-6524508D02*
X820182Y-6534031D01*
X820182Y-6534031D02*
X829705Y-6553079D01*
X829705Y-6553079D02*
X839229Y-6591174D01*
X839229Y-6591174D02*
X839229Y-6638793D01*
X839229Y-6638793D02*
X829705Y-6676888D01*
X829705Y-6676888D02*
X820182Y-6695936D01*
X820182Y-6695936D02*
X810658Y-6705460D01*
X810658Y-6705460D02*
X791610Y-6714984D01*
X791610Y-6714984D02*
X772562Y-6714984D01*
X772562Y-6714984D02*
X753515Y-6705460D01*
X753515Y-6705460D02*
X743991Y-6695936D01*
X743991Y-6695936D02*
X734467Y-6676888D01*
X734467Y-6676888D02*
X724943Y-6638793D01*
X724943Y-6638793D02*
X724943Y-6591174D01*
X724943Y-6591174D02*
X734467Y-6553079D01*
X734467Y-6553079D02*
X743991Y-6534031D01*
X743991Y-6534031D02*
X753515Y-6524508D01*
X753515Y-6524508D02*
X772562Y-6514984D01*
X963039Y-6514984D02*
X982086Y-6514984D01*
X982086Y-6514984D02*
X1001134Y-6524508D01*
X1001134Y-6524508D02*
X1010658Y-6534031D01*
X1010658Y-6534031D02*
X1020182Y-6553079D01*
X1020182Y-6553079D02*
X1029705Y-6591174D01*
X1029705Y-6591174D02*
X1029705Y-6638793D01*
X1029705Y-6638793D02*
X1020182Y-6676888D01*
X1020182Y-6676888D02*
X1010658Y-6695936D01*
X1010658Y-6695936D02*
X1001134Y-6705460D01*
X1001134Y-6705460D02*
X982086Y-6714984D01*
X982086Y-6714984D02*
X963039Y-6714984D01*
X963039Y-6714984D02*
X943991Y-6705460D01*
X943991Y-6705460D02*
X934467Y-6695936D01*
X934467Y-6695936D02*
X924943Y-6676888D01*
X924943Y-6676888D02*
X915420Y-6638793D01*
X915420Y-6638793D02*
X915420Y-6591174D01*
X915420Y-6591174D02*
X924943Y-6553079D01*
X924943Y-6553079D02*
X934467Y-6534031D01*
X934467Y-6534031D02*
X943991Y-6524508D01*
X943991Y-6524508D02*
X963039Y-6514984D01*
X1115420Y-6714984D02*
X1115420Y-6581650D01*
X1115420Y-6600698D02*
X1124944Y-6591174D01*
X1124944Y-6591174D02*
X1143991Y-6581650D01*
X1143991Y-6581650D02*
X1172563Y-6581650D01*
X1172563Y-6581650D02*
X1191610Y-6591174D01*
X1191610Y-6591174D02*
X1201134Y-6610222D01*
X1201134Y-6610222D02*
X1201134Y-6714984D01*
X1201134Y-6610222D02*
X1210658Y-6591174D01*
X1210658Y-6591174D02*
X1229705Y-6581650D01*
X1229705Y-6581650D02*
X1258277Y-6581650D01*
X1258277Y-6581650D02*
X1277325Y-6591174D01*
X1277325Y-6591174D02*
X1286848Y-6610222D01*
X1286848Y-6610222D02*
X1286848Y-6714984D01*
X1382086Y-6714984D02*
X1382086Y-6581650D01*
X1382086Y-6600698D02*
X1391610Y-6591174D01*
X1391610Y-6591174D02*
X1410658Y-6581650D01*
X1410658Y-6581650D02*
X1439229Y-6581650D01*
X1439229Y-6581650D02*
X1458277Y-6591174D01*
X1458277Y-6591174D02*
X1467801Y-6610222D01*
X1467801Y-6610222D02*
X1467801Y-6714984D01*
X1467801Y-6610222D02*
X1477324Y-6591174D01*
X1477324Y-6591174D02*
X1496372Y-6581650D01*
X1496372Y-6581650D02*
X1524943Y-6581650D01*
X1524943Y-6581650D02*
X1543991Y-6591174D01*
X1543991Y-6591174D02*
X1553515Y-6610222D01*
X1553515Y-6610222D02*
X1553515Y-6714984D01*
X1943991Y-6505460D02*
X1772563Y-6762603D01*
X2201134Y-6514984D02*
X2220182Y-6514984D01*
X2220182Y-6514984D02*
X2239229Y-6524508D01*
X2239229Y-6524508D02*
X2248753Y-6534031D01*
X2248753Y-6534031D02*
X2258277Y-6553079D01*
X2258277Y-6553079D02*
X2267801Y-6591174D01*
X2267801Y-6591174D02*
X2267801Y-6638793D01*
X2267801Y-6638793D02*
X2258277Y-6676888D01*
X2258277Y-6676888D02*
X2248753Y-6695936D01*
X2248753Y-6695936D02*
X2239229Y-6705460D01*
X2239229Y-6705460D02*
X2220182Y-6714984D01*
X2220182Y-6714984D02*
X2201134Y-6714984D01*
X2201134Y-6714984D02*
X2182087Y-6705460D01*
X2182087Y-6705460D02*
X2172563Y-6695936D01*
X2172563Y-6695936D02*
X2163039Y-6676888D01*
X2163039Y-6676888D02*
X2153515Y-6638793D01*
X2153515Y-6638793D02*
X2153515Y-6591174D01*
X2153515Y-6591174D02*
X2163039Y-6553079D01*
X2163039Y-6553079D02*
X2172563Y-6534031D01*
X2172563Y-6534031D02*
X2182087Y-6524508D01*
X2182087Y-6524508D02*
X2201134Y-6514984D01*
X2353515Y-6695936D02*
X2363039Y-6705460D01*
X2363039Y-6705460D02*
X2353515Y-6714984D01*
X2353515Y-6714984D02*
X2343991Y-6705460D01*
X2343991Y-6705460D02*
X2353515Y-6695936D01*
X2353515Y-6695936D02*
X2353515Y-6714984D01*
X2486848Y-6514984D02*
X2505896Y-6514984D01*
X2505896Y-6514984D02*
X2524944Y-6524508D01*
X2524944Y-6524508D02*
X2534468Y-6534031D01*
X2534468Y-6534031D02*
X2543991Y-6553079D01*
X2543991Y-6553079D02*
X2553515Y-6591174D01*
X2553515Y-6591174D02*
X2553515Y-6638793D01*
X2553515Y-6638793D02*
X2543991Y-6676888D01*
X2543991Y-6676888D02*
X2534468Y-6695936D01*
X2534468Y-6695936D02*
X2524944Y-6705460D01*
X2524944Y-6705460D02*
X2505896Y-6714984D01*
X2505896Y-6714984D02*
X2486848Y-6714984D01*
X2486848Y-6714984D02*
X2467801Y-6705460D01*
X2467801Y-6705460D02*
X2458277Y-6695936D01*
X2458277Y-6695936D02*
X2448753Y-6676888D01*
X2448753Y-6676888D02*
X2439229Y-6638793D01*
X2439229Y-6638793D02*
X2439229Y-6591174D01*
X2439229Y-6591174D02*
X2448753Y-6553079D01*
X2448753Y-6553079D02*
X2458277Y-6534031D01*
X2458277Y-6534031D02*
X2467801Y-6524508D01*
X2467801Y-6524508D02*
X2486848Y-6514984D01*
X2629706Y-6534031D02*
X2639229Y-6524508D01*
X2639229Y-6524508D02*
X2658277Y-6514984D01*
X2658277Y-6514984D02*
X2705896Y-6514984D01*
X2705896Y-6514984D02*
X2724944Y-6524508D01*
X2724944Y-6524508D02*
X2734468Y-6534031D01*
X2734468Y-6534031D02*
X2743991Y-6553079D01*
X2743991Y-6553079D02*
X2743991Y-6572127D01*
X2743991Y-6572127D02*
X2734468Y-6600698D01*
X2734468Y-6600698D02*
X2620182Y-6714984D01*
X2620182Y-6714984D02*
X2743991Y-6714984D01*
X2810658Y-6514984D02*
X2934467Y-6514984D01*
X2934467Y-6514984D02*
X2867801Y-6591174D01*
X2867801Y-6591174D02*
X2896372Y-6591174D01*
X2896372Y-6591174D02*
X2915420Y-6600698D01*
X2915420Y-6600698D02*
X2924944Y-6610222D01*
X2924944Y-6610222D02*
X2934467Y-6629269D01*
X2934467Y-6629269D02*
X2934467Y-6676888D01*
X2934467Y-6676888D02*
X2924944Y-6695936D01*
X2924944Y-6695936D02*
X2915420Y-6705460D01*
X2915420Y-6705460D02*
X2896372Y-6714984D01*
X2896372Y-6714984D02*
X2839229Y-6714984D01*
X2839229Y-6714984D02*
X2820182Y-6705460D01*
X2820182Y-6705460D02*
X2810658Y-6695936D01*
X3105896Y-6514984D02*
X3067801Y-6514984D01*
X3067801Y-6514984D02*
X3048753Y-6524508D01*
X3048753Y-6524508D02*
X3039229Y-6534031D01*
X3039229Y-6534031D02*
X3020182Y-6562603D01*
X3020182Y-6562603D02*
X3010658Y-6600698D01*
X3010658Y-6600698D02*
X3010658Y-6676888D01*
X3010658Y-6676888D02*
X3020182Y-6695936D01*
X3020182Y-6695936D02*
X3029706Y-6705460D01*
X3029706Y-6705460D02*
X3048753Y-6714984D01*
X3048753Y-6714984D02*
X3086848Y-6714984D01*
X3086848Y-6714984D02*
X3105896Y-6705460D01*
X3105896Y-6705460D02*
X3115420Y-6695936D01*
X3115420Y-6695936D02*
X3124944Y-6676888D01*
X3124944Y-6676888D02*
X3124944Y-6629269D01*
X3124944Y-6629269D02*
X3115420Y-6610222D01*
X3115420Y-6610222D02*
X3105896Y-6600698D01*
X3105896Y-6600698D02*
X3086848Y-6591174D01*
X3086848Y-6591174D02*
X3048753Y-6591174D01*
X3048753Y-6591174D02*
X3029706Y-6600698D01*
X3029706Y-6600698D02*
X3020182Y-6610222D01*
X3020182Y-6610222D02*
X3010658Y-6629269D01*
X3201134Y-6514984D02*
X3201134Y-6553079D01*
X3277325Y-6514984D02*
X3277325Y-6553079D01*
X3572563Y-6791174D02*
X3563039Y-6781650D01*
X3563039Y-6781650D02*
X3543991Y-6753079D01*
X3543991Y-6753079D02*
X3534468Y-6734031D01*
X3534468Y-6734031D02*
X3524944Y-6705460D01*
X3524944Y-6705460D02*
X3515420Y-6657841D01*
X3515420Y-6657841D02*
X3515420Y-6619746D01*
X3515420Y-6619746D02*
X3524944Y-6572127D01*
X3524944Y-6572127D02*
X3534468Y-6543555D01*
X3534468Y-6543555D02*
X3543991Y-6524508D01*
X3543991Y-6524508D02*
X3563039Y-6495936D01*
X3563039Y-6495936D02*
X3572563Y-6486412D01*
X3686848Y-6514984D02*
X3705896Y-6514984D01*
X3705896Y-6514984D02*
X3724944Y-6524508D01*
X3724944Y-6524508D02*
X3734468Y-6534031D01*
X3734468Y-6534031D02*
X3743991Y-6553079D01*
X3743991Y-6553079D02*
X3753515Y-6591174D01*
X3753515Y-6591174D02*
X3753515Y-6638793D01*
X3753515Y-6638793D02*
X3743991Y-6676888D01*
X3743991Y-6676888D02*
X3734468Y-6695936D01*
X3734468Y-6695936D02*
X3724944Y-6705460D01*
X3724944Y-6705460D02*
X3705896Y-6714984D01*
X3705896Y-6714984D02*
X3686848Y-6714984D01*
X3686848Y-6714984D02*
X3667801Y-6705460D01*
X3667801Y-6705460D02*
X3658277Y-6695936D01*
X3658277Y-6695936D02*
X3648753Y-6676888D01*
X3648753Y-6676888D02*
X3639229Y-6638793D01*
X3639229Y-6638793D02*
X3639229Y-6591174D01*
X3639229Y-6591174D02*
X3648753Y-6553079D01*
X3648753Y-6553079D02*
X3658277Y-6534031D01*
X3658277Y-6534031D02*
X3667801Y-6524508D01*
X3667801Y-6524508D02*
X3686848Y-6514984D01*
X3991610Y-6714984D02*
X3991610Y-6514984D01*
X4077325Y-6714984D02*
X4077325Y-6610222D01*
X4077325Y-6610222D02*
X4067801Y-6591174D01*
X4067801Y-6591174D02*
X4048753Y-6581650D01*
X4048753Y-6581650D02*
X4020182Y-6581650D01*
X4020182Y-6581650D02*
X4001134Y-6591174D01*
X4001134Y-6591174D02*
X3991610Y-6600698D01*
X4201134Y-6714984D02*
X4182087Y-6705460D01*
X4182087Y-6705460D02*
X4172563Y-6695936D01*
X4172563Y-6695936D02*
X4163039Y-6676888D01*
X4163039Y-6676888D02*
X4163039Y-6619746D01*
X4163039Y-6619746D02*
X4172563Y-6600698D01*
X4172563Y-6600698D02*
X4182087Y-6591174D01*
X4182087Y-6591174D02*
X4201134Y-6581650D01*
X4201134Y-6581650D02*
X4229706Y-6581650D01*
X4229706Y-6581650D02*
X4248753Y-6591174D01*
X4248753Y-6591174D02*
X4258277Y-6600698D01*
X4258277Y-6600698D02*
X4267801Y-6619746D01*
X4267801Y-6619746D02*
X4267801Y-6676888D01*
X4267801Y-6676888D02*
X4258277Y-6695936D01*
X4258277Y-6695936D02*
X4248753Y-6705460D01*
X4248753Y-6705460D02*
X4229706Y-6714984D01*
X4229706Y-6714984D02*
X4201134Y-6714984D01*
X4382087Y-6714984D02*
X4363039Y-6705460D01*
X4363039Y-6705460D02*
X4353515Y-6686412D01*
X4353515Y-6686412D02*
X4353515Y-6514984D01*
X4534468Y-6705460D02*
X4515420Y-6714984D01*
X4515420Y-6714984D02*
X4477325Y-6714984D01*
X4477325Y-6714984D02*
X4458277Y-6705460D01*
X4458277Y-6705460D02*
X4448753Y-6686412D01*
X4448753Y-6686412D02*
X4448753Y-6610222D01*
X4448753Y-6610222D02*
X4458277Y-6591174D01*
X4458277Y-6591174D02*
X4477325Y-6581650D01*
X4477325Y-6581650D02*
X4515420Y-6581650D01*
X4515420Y-6581650D02*
X4534468Y-6591174D01*
X4534468Y-6591174D02*
X4543992Y-6610222D01*
X4543992Y-6610222D02*
X4543992Y-6629269D01*
X4543992Y-6629269D02*
X4448753Y-6648317D01*
X4620182Y-6705460D02*
X4639230Y-6714984D01*
X4639230Y-6714984D02*
X4677325Y-6714984D01*
X4677325Y-6714984D02*
X4696373Y-6705460D01*
X4696373Y-6705460D02*
X4705896Y-6686412D01*
X4705896Y-6686412D02*
X4705896Y-6676888D01*
X4705896Y-6676888D02*
X4696373Y-6657841D01*
X4696373Y-6657841D02*
X4677325Y-6648317D01*
X4677325Y-6648317D02*
X4648753Y-6648317D01*
X4648753Y-6648317D02*
X4629706Y-6638793D01*
X4629706Y-6638793D02*
X4620182Y-6619746D01*
X4620182Y-6619746D02*
X4620182Y-6610222D01*
X4620182Y-6610222D02*
X4629706Y-6591174D01*
X4629706Y-6591174D02*
X4648753Y-6581650D01*
X4648753Y-6581650D02*
X4677325Y-6581650D01*
X4677325Y-6581650D02*
X4696373Y-6591174D01*
X4943992Y-6638793D02*
X5096373Y-6638793D01*
X5020182Y-6714984D02*
X5020182Y-6562603D01*
X5429706Y-6581650D02*
X5429706Y-6714984D01*
X5382087Y-6505460D02*
X5334468Y-6648317D01*
X5334468Y-6648317D02*
X5458277Y-6648317D01*
X5677325Y-6705460D02*
X5696373Y-6714984D01*
X5696373Y-6714984D02*
X5734468Y-6714984D01*
X5734468Y-6714984D02*
X5753515Y-6705460D01*
X5753515Y-6705460D02*
X5763039Y-6686412D01*
X5763039Y-6686412D02*
X5763039Y-6676888D01*
X5763039Y-6676888D02*
X5753515Y-6657841D01*
X5753515Y-6657841D02*
X5734468Y-6648317D01*
X5734468Y-6648317D02*
X5705896Y-6648317D01*
X5705896Y-6648317D02*
X5686849Y-6638793D01*
X5686849Y-6638793D02*
X5677325Y-6619746D01*
X5677325Y-6619746D02*
X5677325Y-6610222D01*
X5677325Y-6610222D02*
X5686849Y-6591174D01*
X5686849Y-6591174D02*
X5705896Y-6581650D01*
X5705896Y-6581650D02*
X5734468Y-6581650D01*
X5734468Y-6581650D02*
X5753515Y-6591174D01*
X5877325Y-6714984D02*
X5858277Y-6705460D01*
X5858277Y-6705460D02*
X5848754Y-6686412D01*
X5848754Y-6686412D02*
X5848754Y-6514984D01*
X5982087Y-6714984D02*
X5963039Y-6705460D01*
X5963039Y-6705460D02*
X5953515Y-6695936D01*
X5953515Y-6695936D02*
X5943992Y-6676888D01*
X5943992Y-6676888D02*
X5943992Y-6619746D01*
X5943992Y-6619746D02*
X5953515Y-6600698D01*
X5953515Y-6600698D02*
X5963039Y-6591174D01*
X5963039Y-6591174D02*
X5982087Y-6581650D01*
X5982087Y-6581650D02*
X6010658Y-6581650D01*
X6010658Y-6581650D02*
X6029706Y-6591174D01*
X6029706Y-6591174D02*
X6039230Y-6600698D01*
X6039230Y-6600698D02*
X6048754Y-6619746D01*
X6048754Y-6619746D02*
X6048754Y-6676888D01*
X6048754Y-6676888D02*
X6039230Y-6695936D01*
X6039230Y-6695936D02*
X6029706Y-6705460D01*
X6029706Y-6705460D02*
X6010658Y-6714984D01*
X6010658Y-6714984D02*
X5982087Y-6714984D01*
X6105896Y-6581650D02*
X6182087Y-6581650D01*
X6134468Y-6514984D02*
X6134468Y-6686412D01*
X6134468Y-6686412D02*
X6143992Y-6705460D01*
X6143992Y-6705460D02*
X6163039Y-6714984D01*
X6163039Y-6714984D02*
X6182087Y-6714984D01*
X6239230Y-6705460D02*
X6258277Y-6714984D01*
X6258277Y-6714984D02*
X6296373Y-6714984D01*
X6296373Y-6714984D02*
X6315420Y-6705460D01*
X6315420Y-6705460D02*
X6324944Y-6686412D01*
X6324944Y-6686412D02*
X6324944Y-6676888D01*
X6324944Y-6676888D02*
X6315420Y-6657841D01*
X6315420Y-6657841D02*
X6296373Y-6648317D01*
X6296373Y-6648317D02*
X6267801Y-6648317D01*
X6267801Y-6648317D02*
X6248754Y-6638793D01*
X6248754Y-6638793D02*
X6239230Y-6619746D01*
X6239230Y-6619746D02*
X6239230Y-6610222D01*
X6239230Y-6610222D02*
X6248754Y-6591174D01*
X6248754Y-6591174D02*
X6267801Y-6581650D01*
X6267801Y-6581650D02*
X6296373Y-6581650D01*
X6296373Y-6581650D02*
X6315420Y-6591174D01*
X6391611Y-6791174D02*
X6401135Y-6781650D01*
X6401135Y-6781650D02*
X6420182Y-6753079D01*
X6420182Y-6753079D02*
X6429706Y-6734031D01*
X6429706Y-6734031D02*
X6439230Y-6705460D01*
X6439230Y-6705460D02*
X6448754Y-6657841D01*
X6448754Y-6657841D02*
X6448754Y-6619746D01*
X6448754Y-6619746D02*
X6439230Y-6572127D01*
X6439230Y-6572127D02*
X6429706Y-6543555D01*
X6429706Y-6543555D02*
X6420182Y-6524508D01*
X6420182Y-6524508D02*
X6401135Y-6495936D01*
X6401135Y-6495936D02*
X6391611Y-6486412D01*
D12*
X-40000Y-6850000D02*
X-40000Y-6925000D01*
X-77500Y-6887500D02*
X-2500Y-6887500D01*
D11*
X296372Y-6778984D02*
X315420Y-6778984D01*
X315420Y-6778984D02*
X334467Y-6788508D01*
X334467Y-6788508D02*
X343991Y-6798031D01*
X343991Y-6798031D02*
X353515Y-6817079D01*
X353515Y-6817079D02*
X363039Y-6855174D01*
X363039Y-6855174D02*
X363039Y-6902793D01*
X363039Y-6902793D02*
X353515Y-6940888D01*
X353515Y-6940888D02*
X343991Y-6959936D01*
X343991Y-6959936D02*
X334467Y-6969460D01*
X334467Y-6969460D02*
X315420Y-6978984D01*
X315420Y-6978984D02*
X296372Y-6978984D01*
X296372Y-6978984D02*
X277324Y-6969460D01*
X277324Y-6969460D02*
X267801Y-6959936D01*
X267801Y-6959936D02*
X258277Y-6940888D01*
X258277Y-6940888D02*
X248753Y-6902793D01*
X248753Y-6902793D02*
X248753Y-6855174D01*
X248753Y-6855174D02*
X258277Y-6817079D01*
X258277Y-6817079D02*
X267801Y-6798031D01*
X267801Y-6798031D02*
X277324Y-6788508D01*
X277324Y-6788508D02*
X296372Y-6778984D01*
X448753Y-6959936D02*
X458277Y-6969460D01*
X458277Y-6969460D02*
X448753Y-6978984D01*
X448753Y-6978984D02*
X439229Y-6969460D01*
X439229Y-6969460D02*
X448753Y-6959936D01*
X448753Y-6959936D02*
X448753Y-6978984D01*
X524944Y-6778984D02*
X658277Y-6778984D01*
X658277Y-6778984D02*
X572563Y-6978984D01*
X829705Y-6778984D02*
X734467Y-6778984D01*
X734467Y-6778984D02*
X724943Y-6874222D01*
X724943Y-6874222D02*
X734467Y-6864698D01*
X734467Y-6864698D02*
X753515Y-6855174D01*
X753515Y-6855174D02*
X801134Y-6855174D01*
X801134Y-6855174D02*
X820182Y-6864698D01*
X820182Y-6864698D02*
X829705Y-6874222D01*
X829705Y-6874222D02*
X839229Y-6893269D01*
X839229Y-6893269D02*
X839229Y-6940888D01*
X839229Y-6940888D02*
X829705Y-6959936D01*
X829705Y-6959936D02*
X820182Y-6969460D01*
X820182Y-6969460D02*
X801134Y-6978984D01*
X801134Y-6978984D02*
X753515Y-6978984D01*
X753515Y-6978984D02*
X734467Y-6969460D01*
X734467Y-6969460D02*
X724943Y-6959936D01*
X963039Y-6778984D02*
X982086Y-6778984D01*
X982086Y-6778984D02*
X1001134Y-6788508D01*
X1001134Y-6788508D02*
X1010658Y-6798031D01*
X1010658Y-6798031D02*
X1020182Y-6817079D01*
X1020182Y-6817079D02*
X1029705Y-6855174D01*
X1029705Y-6855174D02*
X1029705Y-6902793D01*
X1029705Y-6902793D02*
X1020182Y-6940888D01*
X1020182Y-6940888D02*
X1010658Y-6959936D01*
X1010658Y-6959936D02*
X1001134Y-6969460D01*
X1001134Y-6969460D02*
X982086Y-6978984D01*
X982086Y-6978984D02*
X963039Y-6978984D01*
X963039Y-6978984D02*
X943991Y-6969460D01*
X943991Y-6969460D02*
X934467Y-6959936D01*
X934467Y-6959936D02*
X924943Y-6940888D01*
X924943Y-6940888D02*
X915420Y-6902793D01*
X915420Y-6902793D02*
X915420Y-6855174D01*
X915420Y-6855174D02*
X924943Y-6817079D01*
X924943Y-6817079D02*
X934467Y-6798031D01*
X934467Y-6798031D02*
X943991Y-6788508D01*
X943991Y-6788508D02*
X963039Y-6778984D01*
X1115420Y-6978984D02*
X1115420Y-6845650D01*
X1115420Y-6864698D02*
X1124944Y-6855174D01*
X1124944Y-6855174D02*
X1143991Y-6845650D01*
X1143991Y-6845650D02*
X1172563Y-6845650D01*
X1172563Y-6845650D02*
X1191610Y-6855174D01*
X1191610Y-6855174D02*
X1201134Y-6874222D01*
X1201134Y-6874222D02*
X1201134Y-6978984D01*
X1201134Y-6874222D02*
X1210658Y-6855174D01*
X1210658Y-6855174D02*
X1229705Y-6845650D01*
X1229705Y-6845650D02*
X1258277Y-6845650D01*
X1258277Y-6845650D02*
X1277325Y-6855174D01*
X1277325Y-6855174D02*
X1286848Y-6874222D01*
X1286848Y-6874222D02*
X1286848Y-6978984D01*
X1382086Y-6978984D02*
X1382086Y-6845650D01*
X1382086Y-6864698D02*
X1391610Y-6855174D01*
X1391610Y-6855174D02*
X1410658Y-6845650D01*
X1410658Y-6845650D02*
X1439229Y-6845650D01*
X1439229Y-6845650D02*
X1458277Y-6855174D01*
X1458277Y-6855174D02*
X1467801Y-6874222D01*
X1467801Y-6874222D02*
X1467801Y-6978984D01*
X1467801Y-6874222D02*
X1477324Y-6855174D01*
X1477324Y-6855174D02*
X1496372Y-6845650D01*
X1496372Y-6845650D02*
X1524943Y-6845650D01*
X1524943Y-6845650D02*
X1543991Y-6855174D01*
X1543991Y-6855174D02*
X1553515Y-6874222D01*
X1553515Y-6874222D02*
X1553515Y-6978984D01*
X1943991Y-6769460D02*
X1772563Y-7026603D01*
X2201134Y-6778984D02*
X2220182Y-6778984D01*
X2220182Y-6778984D02*
X2239229Y-6788508D01*
X2239229Y-6788508D02*
X2248753Y-6798031D01*
X2248753Y-6798031D02*
X2258277Y-6817079D01*
X2258277Y-6817079D02*
X2267801Y-6855174D01*
X2267801Y-6855174D02*
X2267801Y-6902793D01*
X2267801Y-6902793D02*
X2258277Y-6940888D01*
X2258277Y-6940888D02*
X2248753Y-6959936D01*
X2248753Y-6959936D02*
X2239229Y-6969460D01*
X2239229Y-6969460D02*
X2220182Y-6978984D01*
X2220182Y-6978984D02*
X2201134Y-6978984D01*
X2201134Y-6978984D02*
X2182087Y-6969460D01*
X2182087Y-6969460D02*
X2172563Y-6959936D01*
X2172563Y-6959936D02*
X2163039Y-6940888D01*
X2163039Y-6940888D02*
X2153515Y-6902793D01*
X2153515Y-6902793D02*
X2153515Y-6855174D01*
X2153515Y-6855174D02*
X2163039Y-6817079D01*
X2163039Y-6817079D02*
X2172563Y-6798031D01*
X2172563Y-6798031D02*
X2182087Y-6788508D01*
X2182087Y-6788508D02*
X2201134Y-6778984D01*
X2353515Y-6959936D02*
X2363039Y-6969460D01*
X2363039Y-6969460D02*
X2353515Y-6978984D01*
X2353515Y-6978984D02*
X2343991Y-6969460D01*
X2343991Y-6969460D02*
X2353515Y-6959936D01*
X2353515Y-6959936D02*
X2353515Y-6978984D01*
X2486848Y-6778984D02*
X2505896Y-6778984D01*
X2505896Y-6778984D02*
X2524944Y-6788508D01*
X2524944Y-6788508D02*
X2534468Y-6798031D01*
X2534468Y-6798031D02*
X2543991Y-6817079D01*
X2543991Y-6817079D02*
X2553515Y-6855174D01*
X2553515Y-6855174D02*
X2553515Y-6902793D01*
X2553515Y-6902793D02*
X2543991Y-6940888D01*
X2543991Y-6940888D02*
X2534468Y-6959936D01*
X2534468Y-6959936D02*
X2524944Y-6969460D01*
X2524944Y-6969460D02*
X2505896Y-6978984D01*
X2505896Y-6978984D02*
X2486848Y-6978984D01*
X2486848Y-6978984D02*
X2467801Y-6969460D01*
X2467801Y-6969460D02*
X2458277Y-6959936D01*
X2458277Y-6959936D02*
X2448753Y-6940888D01*
X2448753Y-6940888D02*
X2439229Y-6902793D01*
X2439229Y-6902793D02*
X2439229Y-6855174D01*
X2439229Y-6855174D02*
X2448753Y-6817079D01*
X2448753Y-6817079D02*
X2458277Y-6798031D01*
X2458277Y-6798031D02*
X2467801Y-6788508D01*
X2467801Y-6788508D02*
X2486848Y-6778984D01*
X2629706Y-6798031D02*
X2639229Y-6788508D01*
X2639229Y-6788508D02*
X2658277Y-6778984D01*
X2658277Y-6778984D02*
X2705896Y-6778984D01*
X2705896Y-6778984D02*
X2724944Y-6788508D01*
X2724944Y-6788508D02*
X2734468Y-6798031D01*
X2734468Y-6798031D02*
X2743991Y-6817079D01*
X2743991Y-6817079D02*
X2743991Y-6836127D01*
X2743991Y-6836127D02*
X2734468Y-6864698D01*
X2734468Y-6864698D02*
X2620182Y-6978984D01*
X2620182Y-6978984D02*
X2743991Y-6978984D01*
X2839229Y-6978984D02*
X2877325Y-6978984D01*
X2877325Y-6978984D02*
X2896372Y-6969460D01*
X2896372Y-6969460D02*
X2905896Y-6959936D01*
X2905896Y-6959936D02*
X2924944Y-6931365D01*
X2924944Y-6931365D02*
X2934467Y-6893269D01*
X2934467Y-6893269D02*
X2934467Y-6817079D01*
X2934467Y-6817079D02*
X2924944Y-6798031D01*
X2924944Y-6798031D02*
X2915420Y-6788508D01*
X2915420Y-6788508D02*
X2896372Y-6778984D01*
X2896372Y-6778984D02*
X2858277Y-6778984D01*
X2858277Y-6778984D02*
X2839229Y-6788508D01*
X2839229Y-6788508D02*
X2829706Y-6798031D01*
X2829706Y-6798031D02*
X2820182Y-6817079D01*
X2820182Y-6817079D02*
X2820182Y-6864698D01*
X2820182Y-6864698D02*
X2829706Y-6883746D01*
X2829706Y-6883746D02*
X2839229Y-6893269D01*
X2839229Y-6893269D02*
X2858277Y-6902793D01*
X2858277Y-6902793D02*
X2896372Y-6902793D01*
X2896372Y-6902793D02*
X2915420Y-6893269D01*
X2915420Y-6893269D02*
X2924944Y-6883746D01*
X2924944Y-6883746D02*
X2934467Y-6864698D01*
X3115420Y-6778984D02*
X3020182Y-6778984D01*
X3020182Y-6778984D02*
X3010658Y-6874222D01*
X3010658Y-6874222D02*
X3020182Y-6864698D01*
X3020182Y-6864698D02*
X3039229Y-6855174D01*
X3039229Y-6855174D02*
X3086848Y-6855174D01*
X3086848Y-6855174D02*
X3105896Y-6864698D01*
X3105896Y-6864698D02*
X3115420Y-6874222D01*
X3115420Y-6874222D02*
X3124944Y-6893269D01*
X3124944Y-6893269D02*
X3124944Y-6940888D01*
X3124944Y-6940888D02*
X3115420Y-6959936D01*
X3115420Y-6959936D02*
X3105896Y-6969460D01*
X3105896Y-6969460D02*
X3086848Y-6978984D01*
X3086848Y-6978984D02*
X3039229Y-6978984D01*
X3039229Y-6978984D02*
X3020182Y-6969460D01*
X3020182Y-6969460D02*
X3010658Y-6959936D01*
X3201134Y-6778984D02*
X3201134Y-6817079D01*
X3277325Y-6778984D02*
X3277325Y-6817079D01*
X3572563Y-7055174D02*
X3563039Y-7045650D01*
X3563039Y-7045650D02*
X3543991Y-7017079D01*
X3543991Y-7017079D02*
X3534468Y-6998031D01*
X3534468Y-6998031D02*
X3524944Y-6969460D01*
X3524944Y-6969460D02*
X3515420Y-6921841D01*
X3515420Y-6921841D02*
X3515420Y-6883746D01*
X3515420Y-6883746D02*
X3524944Y-6836127D01*
X3524944Y-6836127D02*
X3534468Y-6807555D01*
X3534468Y-6807555D02*
X3543991Y-6788508D01*
X3543991Y-6788508D02*
X3563039Y-6759936D01*
X3563039Y-6759936D02*
X3572563Y-6750412D01*
X3639229Y-6798031D02*
X3648753Y-6788508D01*
X3648753Y-6788508D02*
X3667801Y-6778984D01*
X3667801Y-6778984D02*
X3715420Y-6778984D01*
X3715420Y-6778984D02*
X3734468Y-6788508D01*
X3734468Y-6788508D02*
X3743991Y-6798031D01*
X3743991Y-6798031D02*
X3753515Y-6817079D01*
X3753515Y-6817079D02*
X3753515Y-6836127D01*
X3753515Y-6836127D02*
X3743991Y-6864698D01*
X3743991Y-6864698D02*
X3629706Y-6978984D01*
X3629706Y-6978984D02*
X3753515Y-6978984D01*
X3867801Y-6864698D02*
X3848753Y-6855174D01*
X3848753Y-6855174D02*
X3839229Y-6845650D01*
X3839229Y-6845650D02*
X3829706Y-6826603D01*
X3829706Y-6826603D02*
X3829706Y-6817079D01*
X3829706Y-6817079D02*
X3839229Y-6798031D01*
X3839229Y-6798031D02*
X3848753Y-6788508D01*
X3848753Y-6788508D02*
X3867801Y-6778984D01*
X3867801Y-6778984D02*
X3905896Y-6778984D01*
X3905896Y-6778984D02*
X3924944Y-6788508D01*
X3924944Y-6788508D02*
X3934468Y-6798031D01*
X3934468Y-6798031D02*
X3943991Y-6817079D01*
X3943991Y-6817079D02*
X3943991Y-6826603D01*
X3943991Y-6826603D02*
X3934468Y-6845650D01*
X3934468Y-6845650D02*
X3924944Y-6855174D01*
X3924944Y-6855174D02*
X3905896Y-6864698D01*
X3905896Y-6864698D02*
X3867801Y-6864698D01*
X3867801Y-6864698D02*
X3848753Y-6874222D01*
X3848753Y-6874222D02*
X3839229Y-6883746D01*
X3839229Y-6883746D02*
X3829706Y-6902793D01*
X3829706Y-6902793D02*
X3829706Y-6940888D01*
X3829706Y-6940888D02*
X3839229Y-6959936D01*
X3839229Y-6959936D02*
X3848753Y-6969460D01*
X3848753Y-6969460D02*
X3867801Y-6978984D01*
X3867801Y-6978984D02*
X3905896Y-6978984D01*
X3905896Y-6978984D02*
X3924944Y-6969460D01*
X3924944Y-6969460D02*
X3934468Y-6959936D01*
X3934468Y-6959936D02*
X3943991Y-6940888D01*
X3943991Y-6940888D02*
X3943991Y-6902793D01*
X3943991Y-6902793D02*
X3934468Y-6883746D01*
X3934468Y-6883746D02*
X3924944Y-6874222D01*
X3924944Y-6874222D02*
X3905896Y-6864698D01*
X4182087Y-6978984D02*
X4182087Y-6778984D01*
X4267801Y-6978984D02*
X4267801Y-6874222D01*
X4267801Y-6874222D02*
X4258277Y-6855174D01*
X4258277Y-6855174D02*
X4239230Y-6845650D01*
X4239230Y-6845650D02*
X4210658Y-6845650D01*
X4210658Y-6845650D02*
X4191610Y-6855174D01*
X4191610Y-6855174D02*
X4182087Y-6864698D01*
X4391611Y-6978984D02*
X4372563Y-6969460D01*
X4372563Y-6969460D02*
X4363039Y-6959936D01*
X4363039Y-6959936D02*
X4353515Y-6940888D01*
X4353515Y-6940888D02*
X4353515Y-6883746D01*
X4353515Y-6883746D02*
X4363039Y-6864698D01*
X4363039Y-6864698D02*
X4372563Y-6855174D01*
X4372563Y-6855174D02*
X4391611Y-6845650D01*
X4391611Y-6845650D02*
X4420182Y-6845650D01*
X4420182Y-6845650D02*
X4439230Y-6855174D01*
X4439230Y-6855174D02*
X4448753Y-6864698D01*
X4448753Y-6864698D02*
X4458277Y-6883746D01*
X4458277Y-6883746D02*
X4458277Y-6940888D01*
X4458277Y-6940888D02*
X4448753Y-6959936D01*
X4448753Y-6959936D02*
X4439230Y-6969460D01*
X4439230Y-6969460D02*
X4420182Y-6978984D01*
X4420182Y-6978984D02*
X4391611Y-6978984D01*
X4572563Y-6978984D02*
X4553515Y-6969460D01*
X4553515Y-6969460D02*
X4543992Y-6950412D01*
X4543992Y-6950412D02*
X4543992Y-6778984D01*
X4724944Y-6969460D02*
X4705896Y-6978984D01*
X4705896Y-6978984D02*
X4667801Y-6978984D01*
X4667801Y-6978984D02*
X4648753Y-6969460D01*
X4648753Y-6969460D02*
X4639230Y-6950412D01*
X4639230Y-6950412D02*
X4639230Y-6874222D01*
X4639230Y-6874222D02*
X4648753Y-6855174D01*
X4648753Y-6855174D02*
X4667801Y-6845650D01*
X4667801Y-6845650D02*
X4705896Y-6845650D01*
X4705896Y-6845650D02*
X4724944Y-6855174D01*
X4724944Y-6855174D02*
X4734468Y-6874222D01*
X4734468Y-6874222D02*
X4734468Y-6893269D01*
X4734468Y-6893269D02*
X4639230Y-6912317D01*
X4810658Y-6969460D02*
X4829706Y-6978984D01*
X4829706Y-6978984D02*
X4867801Y-6978984D01*
X4867801Y-6978984D02*
X4886849Y-6969460D01*
X4886849Y-6969460D02*
X4896373Y-6950412D01*
X4896373Y-6950412D02*
X4896373Y-6940888D01*
X4896373Y-6940888D02*
X4886849Y-6921841D01*
X4886849Y-6921841D02*
X4867801Y-6912317D01*
X4867801Y-6912317D02*
X4839230Y-6912317D01*
X4839230Y-6912317D02*
X4820182Y-6902793D01*
X4820182Y-6902793D02*
X4810658Y-6883746D01*
X4810658Y-6883746D02*
X4810658Y-6874222D01*
X4810658Y-6874222D02*
X4820182Y-6855174D01*
X4820182Y-6855174D02*
X4839230Y-6845650D01*
X4839230Y-6845650D02*
X4867801Y-6845650D01*
X4867801Y-6845650D02*
X4886849Y-6855174D01*
X4963039Y-7055174D02*
X4972563Y-7045650D01*
X4972563Y-7045650D02*
X4991611Y-7017079D01*
X4991611Y-7017079D02*
X5001134Y-6998031D01*
X5001134Y-6998031D02*
X5010658Y-6969460D01*
X5010658Y-6969460D02*
X5020182Y-6921841D01*
X5020182Y-6921841D02*
X5020182Y-6883746D01*
X5020182Y-6883746D02*
X5010658Y-6836127D01*
X5010658Y-6836127D02*
X5001134Y-6807555D01*
X5001134Y-6807555D02*
X4991611Y-6788508D01*
X4991611Y-6788508D02*
X4972563Y-6759936D01*
X4972563Y-6759936D02*
X4963039Y-6750412D01*
M02*
