%TF.GenerationSoftware,KiCad,Pcbnew,9.0.9-9.0.9~ubuntu24.04.1*%
%TF.CreationDate,2026-10-01T00:07:43+00:00*%
%TF.ProjectId,PinaBio-v2.0-Cursor,50696e61-4269-46f2-9d76-322e302d4375,SPEC-0.8*%
%TF.SameCoordinates,Original*%
%TF.FileFunction,Copper,L4,Bot*%
%TF.FilePolarity,Positive*%
%FSLAX46Y46*%
G04 Gerber Fmt 4.6, Leading zero omitted, Abs format (unit mm)*
G04 Created by KiCad (PCBNEW 9.0.9-9.0.9~ubuntu24.04.1) date 2026-10-01 00:07:43*
%MOMM*%
%LPD*%
G01*
G04 APERTURE LIST*
G04 Aperture macros list*
%AMRoundRect*
0 Rectangle with rounded corners*
0 $1 Rounding radius*
0 $2 $3 $4 $5 $6 $7 $8 $9 X,Y pos of 4 corners*
0 Add a 4 corners polygon primitive as box body*
4,1,4,$2,$3,$4,$5,$6,$7,$8,$9,$2,$3,0*
0 Add four circle primitives for the rounded corners*
1,1,$1+$1,$2,$3*
1,1,$1+$1,$4,$5*
1,1,$1+$1,$6,$7*
1,1,$1+$1,$8,$9*
0 Add four rect primitives between the rounded corners*
20,1,$1+$1,$2,$3,$4,$5,0*
20,1,$1+$1,$4,$5,$6,$7,0*
20,1,$1+$1,$6,$7,$8,$9,0*
20,1,$1+$1,$8,$9,$2,$3,0*%
G04 Aperture macros list end*
%TA.AperFunction,ComponentPad*%
%ADD10RoundRect,0.250000X-0.350000X-0.625000X0.350000X-0.625000X0.350000X0.625000X-0.350000X0.625000X0*%
%TD*%
%TA.AperFunction,ComponentPad*%
%ADD11O,1.200000X1.750000*%
%TD*%
%TA.AperFunction,ComponentPad*%
%ADD12RoundRect,0.250000X0.350000X0.625000X-0.350000X0.625000X-0.350000X-0.625000X0.350000X-0.625000X0*%
%TD*%
%TA.AperFunction,ComponentPad*%
%ADD13RoundRect,0.250000X-0.625000X0.350000X-0.625000X-0.350000X0.625000X-0.350000X0.625000X0.350000X0*%
%TD*%
%TA.AperFunction,ComponentPad*%
%ADD14O,1.750000X1.200000*%
%TD*%
%TA.AperFunction,HeatsinkPad*%
%ADD15O,1.000000X2.100000*%
%TD*%
%TA.AperFunction,HeatsinkPad*%
%ADD16O,1.000000X1.600000*%
%TD*%
%TA.AperFunction,ViaPad*%
%ADD17C,0.500000*%
%TD*%
%TA.AperFunction,Conductor*%
%ADD18C,0.150000*%
%TD*%
%TA.AperFunction,Conductor*%
%ADD19C,0.200000*%
%TD*%
%TA.AperFunction,Conductor*%
%ADD20C,0.250000*%
%TD*%
G04 APERTURE END LIST*
D10*
%TO.P,J2,1*%
%TO.N,/BAT_PROT*%
X3695000Y-3875000D03*
D11*
%TO.P,J2,2*%
%TO.N,/GND*%
X5695000Y-3875000D03*
%TO.P,J2,3*%
%TO.N,/TS*%
X7695000Y-3875000D03*
%TD*%
D12*
%TO.P,J6,1*%
%TO.N,/SNS_GSR*%
X5295000Y-33175000D03*
D11*
%TO.P,J6,2*%
%TO.N,/GND*%
X3295000Y-33175000D03*
%TD*%
D12*
%TO.P,J7,1*%
%TO.N,/SNS_TH*%
X5295000Y-39875000D03*
D11*
%TO.P,J7,2*%
%TO.N,/GND*%
X3295000Y-39875000D03*
%TD*%
D13*
%TO.P,J3,1*%
%TO.N,/3V3_A*%
X78295000Y-43875000D03*
D14*
%TO.P,J3,2*%
%TO.N,/GND*%
X78295000Y-45875000D03*
%TO.P,J3,3*%
%TO.N,/ECG_OUT*%
X78295000Y-47875000D03*
%TO.P,J3,4*%
%TO.N,/LO_P*%
X78295000Y-49875000D03*
%TO.P,J3,5*%
%TO.N,/LO_N*%
X78295000Y-51875000D03*
%TO.P,J3,6*%
%TO.N,/3V3_A*%
X78295000Y-53875000D03*
%TD*%
D15*
%TO.P,J1,S1*%
%TO.N,/GND*%
X33375000Y-32170000D03*
D16*
X33375000Y-36350000D03*
D15*
X42015000Y-32170000D03*
D16*
X42015000Y-36350000D03*
%TD*%
D12*
%TO.P,J8,1*%
%TO.N,/SNS_AB*%
X5295000Y-46575000D03*
D11*
%TO.P,J8,2*%
%TO.N,/GND*%
X3295000Y-46575000D03*
%TD*%
D13*
%TO.P,J5,1*%
%TO.N,/3V0_TEMP*%
X78295000Y-7875000D03*
D14*
%TO.P,J5,2*%
%TO.N,/GND*%
X78295000Y-9875000D03*
%TO.P,J5,3*%
%TO.N,/SDA_MOD*%
X78295000Y-11875000D03*
%TO.P,J5,4*%
%TO.N,/SCL_MOD*%
X78295000Y-13875000D03*
%TO.P,J5,5*%
%TO.N,/OS*%
X78295000Y-15875000D03*
%TO.P,J5,6*%
%TO.N,/GND*%
X78295000Y-17875000D03*
%TO.P,J5,7*%
X78295000Y-19875000D03*
%TO.P,J5,8*%
X78295000Y-21875000D03*
%TD*%
D13*
%TO.P,J4,1*%
%TO.N,/3V3_SYS*%
X78295000Y-28275000D03*
D14*
%TO.P,J4,2*%
%TO.N,/GND*%
X78295000Y-30275000D03*
%TO.P,J4,3*%
%TO.N,/SCL_MOD*%
X78295000Y-32275000D03*
%TO.P,J4,4*%
%TO.N,/SDA_MOD*%
X78295000Y-34275000D03*
%TO.P,J4,5*%
%TO.N,/PPG_INT*%
X78295000Y-36275000D03*
%TD*%
D17*
%TO.N,/0V5_EXC*%
X64928800Y-16210700D03*
X73120400Y-15371600D03*
X73120400Y-24228400D03*
X66416000Y-13632800D03*
X62869600Y-24228400D03*
%TO.N,/3V0_TEMP*%
X58533300Y-28874900D03*
%TO.N,/3V3_A*%
X60293800Y-16217500D03*
%TO.N,/3V3_SYS*%
X60279100Y-22515800D03*
X64179600Y-20974800D03*
X24952100Y-14514300D03*
X61804600Y-9656800D03*
X31025100Y-24768000D03*
X29339900Y-19339200D03*
X29401700Y-37454700D03*
X6234900Y-14601400D03*
X18198500Y-28815000D03*
X13035900Y-28802400D03*
X12538700Y-13226100D03*
X10384600Y-25292800D03*
X27803900Y-34039300D03*
X14417800Y-24679500D03*
X51909500Y-21290700D03*
X54808700Y-32619100D03*
X62760900Y-8709800D03*
X7638800Y-29926000D03*
X52957900Y-26418800D03*
X54808700Y-29130900D03*
X60215100Y-17079400D03*
X51909500Y-13190700D03*
X15964900Y-25043200D03*
X29146900Y-21340800D03*
X29113600Y-12602700D03*
X14140100Y-28575700D03*
X53966700Y-18077000D03*
X24746600Y-6043500D03*
X60215100Y-25179400D03*
X60279100Y-14415800D03*
X28720000Y-20125000D03*
X50440000Y-8941500D03*
%TO.N,/BAT_PROT*%
X19448300Y-10723200D03*
X25586100Y-30039300D03*
X25127200Y-21971400D03*
%TO.N,/BAT_SENSE*%
X26173000Y-14807900D03*
X30532500Y-26750000D03*
%TO.N,/DIV_EXC*%
X62119200Y-14513600D03*
X69581900Y-16404800D03*
X55172300Y-16868500D03*
%TO.N,/DRDY_ECG*%
X29723200Y-18111000D03*
X59710900Y-6909800D03*
%TO.N,/DRDY_SLOW*%
X57266500Y-20113500D03*
X33258500Y-19027000D03*
%TO.N,/ECG_DIV*%
X57900000Y-11900000D03*
X58550000Y-15150000D03*
%TO.N,/ECG_OUT*%
X70179000Y-13307200D03*
%TO.N,/EN2_CE*%
X14000000Y-7350000D03*
X14500000Y-9000000D03*
X15200000Y-6150000D03*
X15000000Y-10000000D03*
%TO.N,/FB*%
X21418000Y-27071800D03*
X16085900Y-28802400D03*
%TO.N,/GND*%
X63300000Y-18400000D03*
X66000000Y-6000000D03*
X42000000Y-42000000D03*
X62700000Y-18300000D03*
X54000000Y-42000000D03*
X30000000Y-42000000D03*
X54000000Y-6000000D03*
X18000000Y-30000000D03*
X6000000Y-18000000D03*
X6000000Y-30000000D03*
X6000000Y-42000000D03*
X66000000Y-42000000D03*
X18000000Y-42000000D03*
X59400000Y-9100000D03*
X42000000Y-30000000D03*
X66000000Y-30000000D03*
%TO.N,/ISET*%
X17536800Y-10003300D03*
X18850800Y-7276000D03*
%TO.N,/LO_N*%
X35729500Y-46045200D03*
X35283500Y-25323800D03*
%TO.N,/LO_P*%
X38219600Y-46026100D03*
X38200500Y-21101200D03*
%TO.N,/OS*%
X75933300Y-31078800D03*
%TO.N,/OUT_AB*%
X57310200Y-21562800D03*
X52192800Y-24054000D03*
X65132000Y-19017200D03*
%TO.N,/OUT_TH*%
X70700000Y-22550000D03*
X65200000Y-24750000D03*
X66500000Y-24750000D03*
X59100000Y-23900000D03*
%TO.N,/PPG_INT*%
X29864200Y-21323500D03*
X26475100Y-24318000D03*
X74931700Y-28584400D03*
%TO.N,/SCL_ADC*%
X59045500Y-18859900D03*
X59325500Y-11112200D03*
X26096900Y-22340800D03*
X29702300Y-17145500D03*
%TO.N,/SCL_MOD*%
X31676300Y-20593500D03*
X33033500Y-26708600D03*
%TO.N,/SDA_ADC*%
X57526300Y-13508300D03*
X31770300Y-13175100D03*
X57891500Y-17454100D03*
%TO.N,/SDA_MOD*%
X31841000Y-19490500D03*
%TO.N,/SNS_AB*%
X74920400Y-12321600D03*
X74194800Y-17691100D03*
%TO.N,/SNS_GSR*%
X64440400Y-19505200D03*
%TO.N,/SNS_TH*%
X74194800Y-18858900D03*
X74920400Y-21178400D03*
%TO.N,/SW_L1*%
X14411200Y-21480100D03*
X7910000Y-22875000D03*
%TO.N,/TPS_EN*%
X13974100Y-8485400D03*
X16248200Y-22491800D03*
X17341200Y-6717800D03*
%TO.N,/TS*%
X16800000Y-10100000D03*
%TO.N,/VBUS*%
X37745000Y-24487500D03*
X8434800Y-14408800D03*
X39714900Y-30455000D03*
X35675100Y-30455000D03*
X40444500Y-30150600D03*
X31771800Y-24546600D03*
%TO.N,/VBUS_N*%
X31559000Y-14231100D03*
X28961300Y-33130800D03*
%TO.N,/VLOG*%
X11484800Y-16208800D03*
X22188300Y-34145300D03*
X19715500Y-5566500D03*
X12674500Y-4183500D03*
X13472300Y-11453700D03*
X24532500Y-17575000D03*
%TD*%
D18*
%TO.N,/0V5_EXC*%
X73125000Y-24125000D02*
X73125000Y-15375000D01*
X60625000Y-15625000D02*
X59875000Y-15625000D01*
X59875000Y-15625000D02*
X59875000Y-15875000D01*
X60875000Y-16125000D02*
X60875000Y-15875000D01*
X66375000Y-13625000D02*
X64875000Y-13625000D01*
X60625000Y-15875000D02*
X60625000Y-15625000D01*
X60875000Y-15875000D02*
X60625000Y-15875000D01*
X66375000Y-15375000D02*
X66375000Y-13625000D01*
D19*
X73117000Y-15375000D02*
X73120400Y-15371600D01*
D18*
X59625000Y-24125000D02*
X62875000Y-24125000D01*
X59625000Y-15875000D02*
X59625000Y-24125000D01*
X59875000Y-15875000D02*
X59625000Y-15875000D01*
X64875000Y-13625000D02*
X64875000Y-16125000D01*
X73120400Y-24228400D02*
X64928800Y-16210700D01*
X64875000Y-16125000D02*
X60875000Y-16125000D01*
X73120400Y-24228400D02*
X66416000Y-13632800D01*
X73120400Y-24228400D02*
X73120400Y-15371600D01*
X73125000Y-15375000D02*
X73117000Y-15375000D01*
X73117000Y-15375000D02*
X66375000Y-15375000D01*
D20*
%TO.N,/3V0_TEMP*%
X58625000Y-54875000D02*
X58625000Y-28875000D01*
X80125000Y-43375000D02*
X80125000Y-43625000D01*
D19*
X58624900Y-28874900D02*
X58625000Y-28875000D01*
D20*
X79625000Y-54875000D02*
X58625000Y-54875000D01*
X78375000Y-7875000D02*
X78375000Y-8375000D01*
D19*
X58533300Y-28874900D02*
X58624900Y-28874900D01*
D20*
X80125000Y-43625000D02*
X80375000Y-43625000D01*
X79625000Y-8875000D02*
X79625000Y-43375000D01*
X79625000Y-43375000D02*
X80125000Y-43375000D01*
D19*
X78295000Y-8295000D02*
X78295000Y-7875000D01*
D20*
X80125000Y-54125000D02*
X80125000Y-54375000D01*
X79625000Y-54375000D02*
X79625000Y-54875000D01*
X80375000Y-54125000D02*
X80125000Y-54125000D01*
X78375000Y-8375000D02*
X78375000Y-8875000D01*
X80375000Y-43625000D02*
X80375000Y-54125000D01*
D19*
X78375000Y-8375000D02*
X78295000Y-8295000D01*
D20*
X80125000Y-54375000D02*
X79625000Y-54375000D01*
X78375000Y-8875000D02*
X79625000Y-8875000D01*
%TO.N,/3V3_A*%
X79695000Y-43875000D02*
X79695000Y-53875000D01*
X78295000Y-43875000D02*
X79695000Y-43875000D01*
X79695000Y-53875000D02*
X78295000Y-53875000D01*
X78295000Y-43875000D02*
X60293800Y-16217500D01*
%TO.N,/BAT_PROT*%
X3695000Y-4775000D02*
X10739700Y-10723200D01*
X9424700Y-10723200D02*
X10739700Y-10723200D01*
X3695000Y-10723200D02*
X9424700Y-10723200D01*
X9424700Y-10723200D02*
X25586100Y-30039300D01*
X25127200Y-22871400D02*
X25127200Y-21971400D01*
X3695000Y-3875000D02*
X3695000Y-4775000D01*
X3695000Y-3875000D02*
X9424700Y-10723200D01*
X3695000Y-4775000D02*
X3695000Y-10723200D01*
X10739700Y-10723200D02*
X25127200Y-22871400D01*
X3695000Y-3875000D02*
X3695000Y-4775000D01*
X10739700Y-10723200D02*
X19448300Y-10723200D01*
D18*
%TO.N,/BAT_SENSE*%
X30532500Y-26750000D02*
X26173000Y-14807900D01*
%TO.N,/DRDY_ECG*%
X80125000Y-42875000D02*
X80125000Y-8375000D01*
X58125000Y-29125000D02*
X58125000Y-55375000D01*
X58125000Y-55375000D02*
X80125000Y-55375000D01*
X53125000Y-19125000D02*
X57375000Y-19125000D01*
X40375000Y-18125000D02*
X40375000Y-18375000D01*
X80125000Y-8375000D02*
X79625000Y-8375000D01*
X57375000Y-19375000D02*
X57875000Y-19375000D01*
X80875000Y-43125000D02*
X80625000Y-43125000D01*
X40375000Y-18375000D02*
X44625000Y-18375000D01*
X80625000Y-54625000D02*
X80875000Y-54625000D01*
X30085900Y-18125000D02*
X40375000Y-18125000D01*
X44625000Y-18625000D02*
X48875000Y-18625000D01*
D19*
X59745700Y-6875000D02*
X59710900Y-6909800D01*
D18*
X79625000Y-6875000D02*
X59745700Y-6875000D01*
D19*
X30071900Y-18111000D02*
X29723200Y-18111000D01*
D18*
X53125000Y-18875000D02*
X53125000Y-19125000D01*
X80125000Y-54875000D02*
X80625000Y-54875000D01*
X59745700Y-6875000D02*
X59625000Y-6875000D01*
X57875000Y-19375000D02*
X57875000Y-29125000D01*
X80625000Y-54875000D02*
X80625000Y-54625000D01*
X48875000Y-18625000D02*
X48875000Y-18875000D01*
X57875000Y-29125000D02*
X58125000Y-29125000D01*
X80625000Y-42875000D02*
X80125000Y-42875000D01*
X80625000Y-43125000D02*
X80625000Y-42875000D01*
X79625000Y-8375000D02*
X79625000Y-6875000D01*
D19*
X30085900Y-18125000D02*
X30071900Y-18111000D01*
D18*
X80875000Y-54625000D02*
X80875000Y-43125000D01*
X44625000Y-18375000D02*
X44625000Y-18625000D01*
X29625000Y-18125000D02*
X30085900Y-18125000D01*
X57375000Y-19125000D02*
X57375000Y-19375000D01*
X80125000Y-55375000D02*
X80125000Y-54875000D01*
X48875000Y-18875000D02*
X53125000Y-18875000D01*
%TO.N,/ECG_DIV*%
X58550000Y-15150000D02*
X57900000Y-11900000D01*
%TO.N,/EN2_CE*%
X15000000Y-10000000D02*
X14500000Y-9000000D01*
X14000000Y-7350000D02*
X15200000Y-6150000D01*
%TO.N,/FB*%
X21418000Y-27071800D02*
X16085900Y-28802400D01*
%TO.N,/ISET*%
X17536800Y-10003300D02*
X18850800Y-7276000D01*
%TO.N,/OUT_TH*%
X63250000Y-24750000D02*
X65200000Y-24750000D01*
X66500000Y-24750000D02*
X70700000Y-22550000D01*
X59550000Y-24450000D02*
X63250000Y-24750000D01*
X59100000Y-23900000D02*
X59400000Y-24350000D01*
X59400000Y-24350000D02*
X59550000Y-24450000D01*
%TO.N,/PPG_INT*%
X39375000Y-28125000D02*
X39625000Y-28125000D01*
X8875000Y-2375000D02*
X9125000Y-2375000D01*
X30625000Y-25875000D02*
X30625000Y-25125000D01*
X29875000Y-27375000D02*
X30875000Y-27375000D01*
X39875000Y-34625000D02*
X2125000Y-34625000D01*
X41125000Y-29875000D02*
X41125000Y-31875000D01*
X39125000Y-26625000D02*
X39125000Y-27375000D01*
X30375000Y-25125000D02*
X30375000Y-24375000D01*
X2375000Y-2125000D02*
X8875000Y-2125000D01*
X38125000Y-24125000D02*
X38375000Y-24125000D01*
X13125000Y-3625000D02*
X13125000Y-3875000D01*
X73625000Y-28584400D02*
X73625000Y-35875000D01*
X74125000Y-36375000D02*
X78375000Y-36375000D01*
X29625000Y-25375000D02*
X29625000Y-26125000D01*
X2125000Y-2375000D02*
X2375000Y-2375000D01*
X67625000Y-14875000D02*
X73625000Y-14875000D01*
X29125000Y-24625000D02*
X29375000Y-24625000D01*
X38875000Y-25875000D02*
X38875000Y-26625000D01*
X2125000Y-34625000D02*
X2125000Y-2375000D01*
X39375000Y-27375000D02*
X39375000Y-28125000D01*
X74125000Y-36125000D02*
X74125000Y-36375000D01*
X73625000Y-14875000D02*
X73625000Y-28584400D01*
X29875000Y-26125000D02*
X29875000Y-27375000D01*
X67625000Y-14375000D02*
X67625000Y-14875000D01*
X31125000Y-27125000D02*
X31125000Y-26375000D01*
X30875000Y-27125000D02*
X31125000Y-27125000D01*
X66875000Y-13375000D02*
X67125000Y-13375000D01*
X20625000Y-10125000D02*
X20625000Y-10625000D01*
X38875000Y-26625000D02*
X39125000Y-26625000D01*
X20625000Y-10625000D02*
X59875000Y-10625000D01*
X38625000Y-25875000D02*
X38875000Y-25875000D01*
D19*
X74931700Y-28584400D02*
X73625000Y-28584400D01*
D18*
X29125000Y-24375000D02*
X29125000Y-24625000D01*
X73875000Y-36125000D02*
X74125000Y-36125000D01*
X38125000Y-23875000D02*
X38125000Y-24125000D01*
X67125000Y-13875000D02*
X67375000Y-13875000D01*
X20375000Y-5125000D02*
X20375000Y-10125000D01*
X30125000Y-24375000D02*
X30125000Y-23875000D01*
X38375000Y-24125000D02*
X38375000Y-24875000D01*
X67125000Y-13375000D02*
X67125000Y-13875000D01*
X40875000Y-29625000D02*
X40875000Y-29875000D01*
X38625000Y-24875000D02*
X38625000Y-25875000D01*
X26475100Y-24375000D02*
X29125000Y-24375000D01*
X39625000Y-28875000D02*
X39875000Y-28875000D01*
X41125000Y-31875000D02*
X39875000Y-31875000D01*
X30625000Y-25125000D02*
X30375000Y-25125000D01*
X13375000Y-4875000D02*
X20125000Y-4875000D01*
X29375000Y-25375000D02*
X29625000Y-25375000D01*
X39875000Y-31875000D02*
X39875000Y-34625000D01*
X67375000Y-13875000D02*
X67375000Y-14375000D01*
X29625000Y-26125000D02*
X29875000Y-26125000D01*
X39625000Y-28125000D02*
X39625000Y-28875000D01*
X26375000Y-24375000D02*
X26475100Y-24375000D01*
X39125000Y-27375000D02*
X39375000Y-27375000D01*
X67375000Y-14375000D02*
X67625000Y-14375000D01*
X39875000Y-28875000D02*
X39875000Y-29625000D01*
X39875000Y-29625000D02*
X40875000Y-29625000D01*
X13375000Y-3875000D02*
X13375000Y-4875000D01*
X30125000Y-23875000D02*
X38125000Y-23875000D01*
X20125000Y-4875000D02*
X20125000Y-5125000D01*
X20125000Y-5125000D02*
X20375000Y-5125000D01*
X9125000Y-3625000D02*
X13125000Y-3625000D01*
X59875000Y-13125000D02*
X66875000Y-13125000D01*
X66875000Y-13125000D02*
X66875000Y-13375000D01*
X40875000Y-29875000D02*
X41125000Y-29875000D01*
X38375000Y-24875000D02*
X38625000Y-24875000D01*
X59875000Y-10625000D02*
X59875000Y-13125000D01*
X8875000Y-2125000D02*
X8875000Y-2375000D01*
X13125000Y-3875000D02*
X13375000Y-3875000D01*
X9125000Y-2375000D02*
X9125000Y-3625000D01*
X29375000Y-24625000D02*
X29375000Y-25375000D01*
X30875000Y-26375000D02*
X30875000Y-25875000D01*
X73875000Y-35875000D02*
X73875000Y-36125000D01*
X2375000Y-2375000D02*
X2375000Y-2125000D01*
D19*
X26475100Y-24375000D02*
X26475100Y-24318000D01*
D18*
X30375000Y-24375000D02*
X30125000Y-24375000D01*
X73625000Y-35875000D02*
X73875000Y-35875000D01*
X30875000Y-27375000D02*
X30875000Y-27125000D01*
X20375000Y-10125000D02*
X20625000Y-10125000D01*
X30875000Y-25875000D02*
X30625000Y-25875000D01*
X31125000Y-26375000D02*
X30875000Y-26375000D01*
%TO.N,/SCL_ADC*%
X27625000Y-17125000D02*
X29625000Y-17125000D01*
X29625000Y-11125000D02*
X59125000Y-11125000D01*
X25625000Y-22375000D02*
X25625000Y-14375000D01*
X59262700Y-11125000D02*
X59325500Y-11112200D01*
X26875000Y-15625000D02*
X27125000Y-15625000D01*
X27625000Y-16875000D02*
X27625000Y-17125000D01*
X59125000Y-11125000D02*
X59262700Y-11125000D01*
X25875000Y-14125000D02*
X26375000Y-14125000D01*
X26375000Y-14375000D02*
X26625000Y-14375000D01*
X26625000Y-14625000D02*
X26875000Y-14625000D01*
X29702300Y-17145500D02*
X59045500Y-18859900D01*
X26625000Y-14375000D02*
X26625000Y-14625000D01*
X59125000Y-11125000D02*
X59125000Y-18875000D01*
X27125000Y-16375000D02*
X27375000Y-16375000D01*
X29625000Y-17125000D02*
X29625000Y-11125000D01*
X27375000Y-16375000D02*
X27375000Y-16875000D01*
X26875000Y-14625000D02*
X26875000Y-15625000D01*
X27125000Y-15625000D02*
X27125000Y-16375000D01*
X25625000Y-14375000D02*
X25875000Y-14375000D01*
X26375000Y-14125000D02*
X26375000Y-14375000D01*
X29702300Y-17145500D02*
X59262700Y-11125000D01*
X25875000Y-14375000D02*
X25875000Y-14125000D01*
X26125000Y-22375000D02*
X25625000Y-22375000D01*
X27375000Y-16875000D02*
X27625000Y-16875000D01*
X59262700Y-11125000D02*
X59125000Y-11125000D01*
%TO.N,/SNS_AB*%
X74920400Y-12321600D02*
X74194800Y-17691100D01*
X1625000Y-45375000D02*
X4375000Y-45375000D01*
X2125000Y-1625000D02*
X2125000Y-1875000D01*
X4375000Y-46625000D02*
X4875000Y-46625000D01*
X20875000Y-4875000D02*
X20625000Y-4875000D01*
X4375000Y-45375000D02*
X4375000Y-46625000D01*
X13875000Y-4375000D02*
X13875000Y-3625000D01*
X13625000Y-3625000D02*
X13625000Y-3375000D01*
X20375000Y-4625000D02*
X20375000Y-4375000D01*
D19*
X5245000Y-46625000D02*
X5295000Y-46575000D01*
D18*
X13625000Y-3375000D02*
X13375000Y-3375000D01*
X74125000Y-17625000D02*
X74125000Y-15300000D01*
X74125000Y-12375000D02*
X60375000Y-12375000D01*
X13875000Y-3625000D02*
X13625000Y-3625000D01*
X9125000Y-1625000D02*
X2125000Y-1625000D01*
D19*
X74194800Y-15369800D02*
X74194800Y-17691100D01*
D18*
X20375000Y-4375000D02*
X13875000Y-4375000D01*
X20875000Y-9875000D02*
X20875000Y-4875000D01*
X21125000Y-9875000D02*
X20875000Y-9875000D01*
X60125000Y-10125000D02*
X21125000Y-10125000D01*
X1875000Y-2125000D02*
X1625000Y-2125000D01*
X9625000Y-3125000D02*
X9625000Y-2125000D01*
X9125000Y-1875000D02*
X9125000Y-1625000D01*
X13375000Y-3125000D02*
X9625000Y-3125000D01*
X1875000Y-1875000D02*
X1875000Y-2125000D01*
X20625000Y-4625000D02*
X20375000Y-4625000D01*
X9375000Y-2125000D02*
X9375000Y-1875000D01*
X2125000Y-1875000D02*
X1875000Y-1875000D01*
X60375000Y-10375000D02*
X60125000Y-10375000D01*
X60125000Y-10375000D02*
X60125000Y-10125000D01*
X60375000Y-12375000D02*
X60375000Y-10375000D01*
X1625000Y-2125000D02*
X1625000Y-45375000D01*
X74125000Y-15300000D02*
X74125000Y-12375000D01*
X21125000Y-10125000D02*
X21125000Y-9875000D01*
D19*
X74125000Y-15300000D02*
X74194800Y-15369800D01*
D18*
X9625000Y-2125000D02*
X9375000Y-2125000D01*
X20625000Y-4875000D02*
X20625000Y-4625000D01*
X4875000Y-46625000D02*
X5375000Y-46625000D01*
X9375000Y-1875000D02*
X9125000Y-1875000D01*
X13375000Y-3375000D02*
X13375000Y-3125000D01*
D19*
X4875000Y-46625000D02*
X5245000Y-46625000D01*
D18*
%TO.N,/SNS_TH*%
X20625000Y-4125000D02*
X20625000Y-3875000D01*
X75375000Y-12125000D02*
X75375000Y-11875000D01*
X21375000Y-4625000D02*
X21125000Y-4625000D01*
X9625000Y-1625000D02*
X9625000Y-1375000D01*
X1625000Y-1625000D02*
X1375000Y-1625000D01*
X9375000Y-1125000D02*
X1875000Y-1125000D01*
X74867000Y-21125000D02*
X74125000Y-21125000D01*
X9375000Y-1375000D02*
X9375000Y-1125000D01*
D19*
X74867000Y-21125000D02*
X74920400Y-21178400D01*
D18*
X75625000Y-12625000D02*
X75625000Y-12125000D01*
X74625000Y-18375000D02*
X74625000Y-18125000D01*
X20875000Y-4125000D02*
X20625000Y-4125000D01*
X2375000Y-45875000D02*
X2375000Y-47875000D01*
X74875000Y-18125000D02*
X74875000Y-15375000D01*
X75125000Y-11625000D02*
X60875000Y-11625000D01*
X14375000Y-3875000D02*
X14375000Y-3375000D01*
X1375000Y-1875000D02*
X1125000Y-1875000D01*
X14125000Y-3125000D02*
X13875000Y-3125000D01*
X21125000Y-4375000D02*
X20875000Y-4375000D01*
X74125000Y-18375000D02*
X74625000Y-18375000D01*
X1875000Y-1125000D02*
X1875000Y-1375000D01*
X74875000Y-15375000D02*
X75125000Y-15375000D01*
X1875000Y-1375000D02*
X1625000Y-1375000D01*
X1125000Y-1875000D02*
X1125000Y-45625000D01*
X60625000Y-10125000D02*
X60625000Y-9875000D01*
D19*
X5295000Y-39875000D02*
X5375000Y-39875000D01*
D18*
X14125000Y-3375000D02*
X14125000Y-3125000D01*
X6375000Y-47875000D02*
X6375000Y-45375000D01*
X75125000Y-15375000D02*
X75125000Y-13625000D01*
X10125000Y-2625000D02*
X10125000Y-1875000D01*
X75375000Y-12625000D02*
X75625000Y-12625000D01*
X9875000Y-1875000D02*
X9875000Y-1625000D01*
X1125000Y-45625000D02*
X1375000Y-45625000D01*
X60625000Y-9875000D02*
X60375000Y-9875000D01*
X60375000Y-9875000D02*
X60375000Y-9625000D01*
X60875000Y-11625000D02*
X60875000Y-10125000D01*
X74875000Y-21125000D02*
X74867000Y-21125000D01*
X5375000Y-45375000D02*
X5375000Y-39875000D01*
X1375000Y-1625000D02*
X1375000Y-1875000D01*
X13875000Y-2875000D02*
X13625000Y-2875000D01*
X75125000Y-11875000D02*
X75125000Y-11625000D01*
X1375000Y-45875000D02*
X2375000Y-45875000D01*
X20625000Y-3875000D02*
X14375000Y-3875000D01*
X74920400Y-21178400D02*
X74194800Y-18858900D01*
X9625000Y-1375000D02*
X9375000Y-1375000D01*
X10125000Y-1875000D02*
X9875000Y-1875000D01*
X75625000Y-12125000D02*
X75375000Y-12125000D01*
X75375000Y-11875000D02*
X75125000Y-11875000D01*
X13625000Y-2625000D02*
X10125000Y-2625000D01*
X21375000Y-9625000D02*
X21375000Y-4625000D01*
X2375000Y-47875000D02*
X6375000Y-47875000D01*
X21125000Y-4625000D02*
X21125000Y-4375000D01*
X1375000Y-45625000D02*
X1375000Y-45875000D01*
X13875000Y-3125000D02*
X13875000Y-2875000D01*
X6375000Y-45375000D02*
X5375000Y-45375000D01*
X60875000Y-10125000D02*
X60625000Y-10125000D01*
X20875000Y-4375000D02*
X20875000Y-4125000D01*
X14375000Y-3375000D02*
X14125000Y-3375000D01*
X9875000Y-1625000D02*
X9625000Y-1625000D01*
X75125000Y-13625000D02*
X75375000Y-13625000D01*
X13625000Y-2875000D02*
X13625000Y-2625000D01*
X74125000Y-21125000D02*
X74125000Y-18375000D01*
X75375000Y-13625000D02*
X75375000Y-12625000D01*
X60375000Y-9625000D02*
X21375000Y-9625000D01*
X1625000Y-1375000D02*
X1625000Y-1625000D01*
X74625000Y-18125000D02*
X74875000Y-18125000D01*
D20*
%TO.N,/SW_L1*%
X14411200Y-21480100D02*
X7910000Y-22875000D01*
D18*
%TO.N,/TS*%
X8300000Y-4750000D02*
X15450000Y-8750000D01*
X8300000Y-4750000D02*
X8000000Y-4500000D01*
X15450000Y-8750000D02*
X16800000Y-10100000D01*
D20*
%TO.N,/VBUS*%
X26125000Y-30375000D02*
X26125000Y-30625000D01*
X39625000Y-30375000D02*
X39625000Y-30182700D01*
X15125000Y-30625000D02*
X15125000Y-21125000D01*
X14875000Y-20875000D02*
X8375000Y-20875000D01*
X39625000Y-30125000D02*
X40375000Y-30125000D01*
X39607400Y-30375000D02*
X31875000Y-30375000D01*
X39607400Y-30375000D02*
X31875000Y-24623400D01*
X39714900Y-30455000D02*
X35675100Y-30455000D01*
X8375000Y-20875000D02*
X8375000Y-17625000D01*
X31875000Y-24623400D02*
X31875000Y-24375000D01*
X39607400Y-30375000D02*
X31875000Y-30375000D01*
X8375000Y-17625000D02*
X8375000Y-14375000D01*
X39625000Y-30182700D02*
X39625000Y-30125000D01*
X14875000Y-21125000D02*
X14875000Y-20875000D01*
X39625000Y-30375000D02*
X39607400Y-30375000D01*
X39625000Y-30375000D02*
X39607400Y-30375000D01*
X31875000Y-24375000D02*
X37625000Y-24375000D01*
D19*
X8375000Y-17625000D02*
X8434800Y-17565200D01*
D20*
X31875000Y-30375000D02*
X26125000Y-30375000D01*
X39714900Y-30455000D02*
X39625000Y-30182700D01*
X39714900Y-30455000D02*
X40444500Y-30150600D01*
X26125000Y-30625000D02*
X15125000Y-30625000D01*
X39714900Y-30455000D02*
X39607400Y-30375000D01*
X15125000Y-21125000D02*
X14875000Y-21125000D01*
X31875000Y-30375000D02*
X31875000Y-24623400D01*
D19*
X8434800Y-17565200D02*
X8434800Y-14408800D01*
D20*
X39625000Y-30182700D02*
X37745000Y-24487500D01*
X31875000Y-24623400D02*
X31771800Y-24546600D01*
D18*
%TO.N,/VLOG*%
X9375000Y-11625000D02*
X9375000Y-11375000D01*
X20125000Y-11125000D02*
X19875000Y-11125000D01*
X20125000Y-10375000D02*
X20125000Y-17625000D01*
X10625000Y-12875000D02*
X10375000Y-12875000D01*
X10125000Y-12625000D02*
X10125000Y-12375000D01*
X19875000Y-11375000D02*
X13375000Y-11375000D01*
X10125000Y-12375000D02*
X9875000Y-12375000D01*
X11375000Y-23375000D02*
X7375000Y-23375000D01*
X19625000Y-10125000D02*
X19875000Y-10125000D01*
X9375000Y-11375000D02*
X9125000Y-11375000D01*
D19*
X12674500Y-4183500D02*
X12625000Y-4183500D01*
D18*
X9125000Y-14125000D02*
X9125000Y-16125000D01*
X9125000Y-11375000D02*
X9125000Y-11125000D01*
X10625000Y-13125000D02*
X10625000Y-12875000D01*
X19625000Y-5625000D02*
X19625000Y-10125000D01*
X19625000Y-5625000D02*
X19625000Y-10125000D01*
D19*
X24482500Y-17625000D02*
X24532500Y-17575000D01*
D18*
X19875000Y-10375000D02*
X20125000Y-10375000D01*
X3125000Y-11125000D02*
X3125000Y-5125000D01*
X3125000Y-5125000D02*
X2625000Y-5125000D01*
X19875000Y-10375000D02*
X20125000Y-10375000D01*
X8875000Y-13875000D02*
X8875000Y-14125000D01*
X11375000Y-13875000D02*
X11125000Y-13875000D01*
X10875000Y-13625000D02*
X10875000Y-13125000D01*
X7375000Y-16125000D02*
X7875000Y-16125000D01*
D19*
X19657000Y-5625000D02*
X19715500Y-5566500D01*
D18*
X19875000Y-11125000D02*
X19875000Y-11375000D01*
X11125000Y-13875000D02*
X11125000Y-13625000D01*
X9125000Y-16125000D02*
X11375000Y-16125000D01*
X10375000Y-12875000D02*
X10375000Y-12625000D01*
X20125000Y-10375000D02*
X20125000Y-11125000D01*
X10875000Y-13125000D02*
X10625000Y-13125000D01*
X8625000Y-2625000D02*
X8625000Y-4125000D01*
X7875000Y-13875000D02*
X8875000Y-13875000D01*
D19*
X19625000Y-5625000D02*
X19657000Y-5625000D01*
D18*
X12625000Y-5625000D02*
X19625000Y-5625000D01*
X9875000Y-12375000D02*
X9875000Y-12125000D01*
X12625000Y-4183500D02*
X12625000Y-5625000D01*
X11375000Y-34125000D02*
X11375000Y-23375000D01*
X9875000Y-12125000D02*
X9625000Y-12125000D01*
X11375000Y-16125000D02*
X11375000Y-13875000D01*
X2625000Y-5125000D02*
X2625000Y-2625000D01*
X8875000Y-14125000D02*
X9125000Y-14125000D01*
X22125000Y-34125000D02*
X11375000Y-34125000D01*
X9625000Y-11625000D02*
X9375000Y-11625000D01*
X19875000Y-10125000D02*
X19875000Y-10375000D01*
X7375000Y-23375000D02*
X7375000Y-16125000D01*
X20125000Y-17625000D02*
X24482500Y-17625000D01*
X24482500Y-17625000D02*
X24625000Y-17625000D01*
X11125000Y-13625000D02*
X10875000Y-13625000D01*
X9625000Y-12125000D02*
X9625000Y-11625000D01*
X10375000Y-12625000D02*
X10125000Y-12625000D01*
X12625000Y-4125000D02*
X12625000Y-4183500D01*
X2625000Y-2625000D02*
X8625000Y-2625000D01*
X8625000Y-4125000D02*
X12625000Y-4125000D01*
X9125000Y-11125000D02*
X3125000Y-11125000D01*
X19625000Y-10125000D02*
X19875000Y-10125000D01*
X7875000Y-16125000D02*
X7875000Y-13875000D01*
X19875000Y-10125000D02*
X19875000Y-10375000D01*
%TD*%
M02*
