%TF.GenerationSoftware,KiCad,Pcbnew,9.0.9-9.0.9~ubuntu24.04.1*%
%TF.CreationDate,2026-10-02T11:16:57+00:00*%
%TF.ProjectId,PinaBio-v2.0-Cursor,50696e61-4269-46f2-9d76-322e302d4375,SPEC-0.9*%
%TF.SameCoordinates,Original*%
%TF.FileFunction,Copper,L4,Bot*%
%TF.FilePolarity,Positive*%
%FSLAX46Y46*%
G04 Gerber Fmt 4.6, Leading zero omitted, Abs format (unit mm)*
G04 Created by KiCad (PCBNEW 9.0.9-9.0.9~ubuntu24.04.1) date 2026-10-02 11:16:57*
%MOMM*%
%LPD*%
G01*
G04 APERTURE LIST*
G04 Aperture macros list*
%AMRoundRect*
0 Rectangle with rounded corners*
0 $1 Rounding radius*
0 $2 $3 $4 $5 $6 $7 $8 $9 X,Y pos of 4 corners*
0 Add a 4 corners polygon primitive as box body*
4,1,4,$2,$3,$4,$5,$6,$7,$8,$9,$2,$3,0*
0 Add four circle primitives for the rounded corners*
1,1,$1+$1,$2,$3*
1,1,$1+$1,$4,$5*
1,1,$1+$1,$6,$7*
1,1,$1+$1,$8,$9*
0 Add four rect primitives between the rounded corners*
20,1,$1+$1,$2,$3,$4,$5,0*
20,1,$1+$1,$4,$5,$6,$7,0*
20,1,$1+$1,$6,$7,$8,$9,0*
20,1,$1+$1,$8,$9,$2,$3,0*%
G04 Aperture macros list end*
%TA.AperFunction,ComponentPad*%
%ADD10C,0.950000*%
%TD*%
%TA.AperFunction,ComponentPad*%
%ADD11RoundRect,0.250000X-0.350000X-0.625000X0.350000X-0.625000X0.350000X0.625000X-0.350000X0.625000X0*%
%TD*%
%TA.AperFunction,ComponentPad*%
%ADD12O,1.200000X1.750000*%
%TD*%
%TA.AperFunction,ComponentPad*%
%ADD13RoundRect,0.250000X-0.625000X0.350000X-0.625000X-0.350000X0.625000X-0.350000X0.625000X0.350000X0*%
%TD*%
%TA.AperFunction,ComponentPad*%
%ADD14O,1.750000X1.200000*%
%TD*%
%TA.AperFunction,HeatsinkPad*%
%ADD15O,1.000000X2.100000*%
%TD*%
%TA.AperFunction,HeatsinkPad*%
%ADD16O,1.000000X1.600000*%
%TD*%
%TA.AperFunction,ViaPad*%
%ADD17C,0.500000*%
%TD*%
%TA.AperFunction,Conductor*%
%ADD18C,0.150000*%
%TD*%
%TA.AperFunction,Conductor*%
%ADD19C,0.250000*%
%TD*%
%TA.AperFunction,Conductor*%
%ADD20C,0.350000*%
%TD*%
%TA.AperFunction,Conductor*%
%ADD21C,0.200000*%
%TD*%
G04 APERTURE END LIST*
D10*
%TO.P,NT1,1*%
%TO.N,/GND*%
X47145000Y-15795000D03*
%TO.P,NT1,2*%
%TO.N,/AGND*%
X49545000Y-15795000D03*
%TD*%
D11*
%TO.P,J8,1*%
%TO.N,/SNS_AB*%
X69845000Y-50995000D03*
D12*
%TO.P,J8,2*%
%TO.N,/AGND*%
X71845000Y-50995000D03*
%TD*%
D13*
%TO.P,J4,1*%
%TO.N,/3V3_SYS*%
X4145000Y-26795000D03*
D14*
%TO.P,J4,2*%
%TO.N,/GND*%
X4145000Y-28795000D03*
%TO.P,J4,3*%
%TO.N,/SCL_MOD*%
X4145000Y-30795000D03*
%TO.P,J4,4*%
%TO.N,/SDA_MOD*%
X4145000Y-32795000D03*
%TO.P,J4,5*%
%TO.N,/PPG_INT*%
X4145000Y-34795000D03*
%TD*%
D11*
%TO.P,J6,1*%
%TO.N,/SNS_GSR*%
X53345000Y-50995000D03*
D12*
%TO.P,J6,2*%
%TO.N,/AGND*%
X55345000Y-50995000D03*
%TD*%
D11*
%TO.P,J2,1*%
%TO.N,/BAT_PROT*%
X3345000Y-3995000D03*
D12*
%TO.P,J2,2*%
%TO.N,/GND*%
X5345000Y-3995000D03*
%TO.P,J2,3*%
%TO.N,/TS*%
X7345000Y-3995000D03*
%TD*%
D15*
%TO.P,J1,S1*%
%TO.N,/GND*%
X33025000Y-32290000D03*
D16*
X33025000Y-36470000D03*
D15*
X41665000Y-32290000D03*
D16*
X41665000Y-36470000D03*
%TD*%
D11*
%TO.P,J7,1*%
%TO.N,/SNS_TH*%
X61845000Y-50995000D03*
D12*
%TO.P,J7,2*%
%TO.N,/AGND*%
X63845000Y-50995000D03*
%TD*%
D11*
%TO.P,J5,1*%
%TO.N,/3V0_TEMP*%
X13845000Y-52995000D03*
D12*
%TO.P,J5,2*%
%TO.N,/GND*%
X15845000Y-52995000D03*
%TO.P,J5,3*%
%TO.N,/SDA_MOD*%
X17845000Y-52995000D03*
%TO.P,J5,4*%
%TO.N,/SCL_MOD*%
X19845000Y-52995000D03*
%TD*%
D13*
%TO.P,J3,1*%
%TO.N,/3V3_A*%
X77945000Y-43995000D03*
D14*
%TO.P,J3,2*%
%TO.N,/AGND*%
X77945000Y-45995000D03*
%TO.P,J3,3*%
%TO.N,/ECG_OUT*%
X77945000Y-47995000D03*
%TO.P,J3,4*%
%TO.N,/LO_P*%
X77945000Y-49995000D03*
%TO.P,J3,5*%
%TO.N,/LO_N*%
X77945000Y-51995000D03*
%TO.P,J3,6*%
%TO.N,/3V3_A*%
X77945000Y-53995000D03*
%TD*%
D17*
%TO.N,/0V5_EXC*%
X74400880Y-17065165D03*
X67450000Y-14695000D03*
%TO.N,/3V0_TEMP*%
X23758310Y-42344868D03*
%TO.N,/3V3_A*%
X60023087Y-8199572D03*
%TO.N,/3V3_SYS*%
X50990022Y-2211469D03*
X17932934Y-36838774D03*
X6737174Y-20160832D03*
X61959522Y-7504541D03*
X15708236Y-28817956D03*
X16850000Y-25600000D03*
X25157692Y-9109447D03*
X23703323Y-10144183D03*
X13095003Y-29518328D03*
X11374671Y-10840461D03*
X60048882Y-13817703D03*
X19958685Y-40050902D03*
X7302474Y-28319353D03*
X29490212Y-4026021D03*
X22526730Y-29181105D03*
X25393541Y-1349291D03*
X30851652Y-37574741D03*
X51639662Y-20202388D03*
X29900000Y-18050000D03*
X61334404Y-27572834D03*
X51559505Y-21410699D03*
X25645000Y-13070000D03*
X19958685Y-43539097D03*
X25016060Y-5534660D03*
X66362227Y-24559362D03*
X51559505Y-13310699D03*
X25773703Y-9140262D03*
X16450000Y-25200000D03*
X48645000Y-20920000D03*
X61784404Y-20972834D03*
X15850000Y-27750000D03*
X28625505Y-33424606D03*
%TO.N,/AGND*%
X76765000Y-28695000D03*
X62973087Y-7199572D03*
X76765000Y-4695000D03*
X51243671Y-22917421D03*
X52765000Y-44695000D03*
X64134404Y-24322834D03*
X51243671Y-14817421D03*
X68765000Y-44695000D03*
X76765000Y-12695000D03*
X68765000Y-28695000D03*
X57473571Y-17550391D03*
X63920000Y-12520000D03*
X68765000Y-4695000D03*
X52765000Y-36695000D03*
X60765000Y-4695000D03*
X60765000Y-36695000D03*
X51590352Y-14264830D03*
X68765000Y-36695000D03*
X51016311Y-20688732D03*
X61664463Y-29625522D03*
X60765000Y-44695000D03*
X68765000Y-20695000D03*
X52714479Y-11232177D03*
X52765000Y-28695000D03*
X76765000Y-36695000D03*
X52765000Y-4695000D03*
X76765000Y-20695000D03*
X61334404Y-16522834D03*
X51590352Y-22364830D03*
X53311748Y-10672102D03*
%TO.N,/BAT_PROT*%
X22245995Y-9264868D03*
X12324475Y-5686540D03*
X14154408Y-8901915D03*
X16442985Y-8987586D03*
X25236112Y-30159325D03*
X27270154Y-20124661D03*
%TO.N,/BAT_SENSE*%
X29076543Y-5782919D03*
X31982500Y-26870000D03*
X25764463Y-4726376D03*
X27239631Y-12433758D03*
%TO.N,/CC1*%
X34250000Y-29695000D03*
X35300000Y-32895000D03*
%TO.N,/CC2*%
X39100000Y-32895000D03*
X40159807Y-29845000D03*
%TO.N,/DIV_EXC*%
X61300000Y-11095000D03*
X67539230Y-17495000D03*
X67012026Y-10229875D03*
X55500000Y-17545000D03*
%TO.N,/DRDY_ECG*%
X58909522Y-5704541D03*
X29373246Y-10730997D03*
%TO.N,/DRDY_SLOW*%
X54100000Y-21095000D03*
X63162227Y-25459362D03*
X28300000Y-10895000D03*
X57500000Y-21495000D03*
X64862227Y-25459362D03*
X28500000Y-13695000D03*
X28700000Y-11345000D03*
%TO.N,/ECG_DIV*%
X72500000Y-21495000D03*
X57500000Y-15095000D03*
X68776313Y-24770000D03*
X61700000Y-11695000D03*
%TO.N,/ECG_OUT*%
X74900000Y-23695000D03*
X68576313Y-13170000D03*
%TO.N,/GND*%
X10612388Y-12906926D03*
X23645995Y-5664868D03*
X36300000Y-4695000D03*
X4300000Y-12695000D03*
X40126370Y-7286421D03*
X39803726Y-26682326D03*
X10500000Y-24650000D03*
X14300000Y-21300000D03*
X34695000Y-8795000D03*
X17022220Y-21190463D03*
X12300000Y-44695000D03*
X17750000Y-29000000D03*
X4300000Y-44695000D03*
X37345000Y-6145000D03*
X18350000Y-16150000D03*
X18857500Y-41795000D03*
X17370000Y-2595000D03*
X27564463Y-1676376D03*
X20300000Y-36695000D03*
X44300000Y-28695000D03*
X18328367Y-18540490D03*
X18150000Y-23100000D03*
X19650000Y-25800000D03*
X36300000Y-52695000D03*
X35836421Y-11576370D03*
X30851652Y-34524741D03*
X36945000Y-29582500D03*
X15300000Y-25200000D03*
X5455384Y-14442046D03*
X37345000Y-11445000D03*
X21232934Y-39638774D03*
X13220915Y-13207566D03*
X29520200Y-2734518D03*
X10500000Y-22800000D03*
X16409760Y-27120500D03*
X32050887Y-32124019D03*
X26800000Y-22900000D03*
X45176891Y-4566369D03*
X27984908Y-30733226D03*
X24439631Y-9483758D03*
X36300000Y-44695000D03*
X12300000Y-20695000D03*
X44521776Y-16608172D03*
X20300000Y-4695000D03*
X14495003Y-16771672D03*
X12400000Y-27500000D03*
X24257692Y-5859447D03*
X45171262Y-5493945D03*
X20300000Y-44695000D03*
X28300000Y-44695000D03*
X12300000Y-36695000D03*
X25400000Y-19900000D03*
X40045000Y-9695000D03*
X28860075Y-2289974D03*
X25236632Y-16399807D03*
X12300000Y-52695000D03*
X39995000Y-10695000D03*
X10602474Y-28319353D03*
X36300000Y-36695000D03*
X38853578Y-11576370D03*
X10602474Y-20470647D03*
X45196038Y-2492174D03*
X17450000Y-22995000D03*
X44300000Y-36695000D03*
X28860075Y-15300025D03*
X44300000Y-44695000D03*
X4300000Y-52695000D03*
X4300000Y-36695000D03*
X44300000Y-20695000D03*
X28988894Y-3263748D03*
X26558310Y-39044868D03*
X23919330Y-36859869D03*
X15050000Y-23650000D03*
X33268012Y-30623650D03*
X40852503Y-30597412D03*
X21436112Y-15030674D03*
X35836421Y-6013629D03*
X13800000Y-21850000D03*
X24225500Y-20921747D03*
X20145000Y-7195000D03*
X14078403Y-2564505D03*
X19365524Y-4303459D03*
X34274200Y-27027057D03*
X4300000Y-20695000D03*
%TO.N,/ILIM*%
X17150000Y-15050000D03*
X16800000Y-13850000D03*
%TO.N,/ISET*%
X21629245Y-18839678D03*
X17394954Y-10522240D03*
%TO.N,/LO_N*%
X31300000Y-17795000D03*
X31300000Y-20695000D03*
%TO.N,/LO_P*%
X70900000Y-49495000D03*
X32900000Y-14895000D03*
X32900000Y-19895000D03*
X53900000Y-49495000D03*
%TO.N,/OUT_AB*%
X55100000Y-23895000D03*
X68100000Y-17895000D03*
%TO.N,/OUT_GSR*%
X66066038Y-23037156D03*
X60130494Y-23379300D03*
X64578785Y-20459311D03*
%TO.N,/OUT_TH*%
X71023961Y-23037156D03*
X60103673Y-24295133D03*
X72511214Y-20459311D03*
%TO.N,/PPG_INT*%
X29300000Y-20695000D03*
X28500000Y-24295000D03*
X29363878Y-14520000D03*
X30900000Y-21895000D03*
%TO.N,/Q1G*%
X24970154Y-23174661D03*
X25236112Y-26630674D03*
%TO.N,/SCL_ADC*%
X58384439Y-10488454D03*
X58626307Y-18651698D03*
X21966060Y-3734660D03*
X29352291Y-9765543D03*
%TO.N,/SCL_MOD*%
X29513108Y-13023630D03*
%TO.N,/SDA_ADC*%
X58100000Y-17295000D03*
X58500000Y-19295000D03*
X59900000Y-10495000D03*
X43500000Y-12495000D03*
X59907500Y-12670000D03*
%TO.N,/SDA_MOD*%
X17100000Y-24695000D03*
X26100000Y-16295000D03*
X26100000Y-23295000D03*
X13900000Y-24695000D03*
%TO.N,/SNS_AB*%
X69500000Y-17495000D03*
X74100000Y-17695000D03*
%TO.N,/SNS_GSR*%
X63589120Y-19874835D03*
X64541145Y-18875948D03*
%TO.N,/SNS_TH*%
X74400880Y-21424835D03*
X69500000Y-19495000D03*
X74100000Y-19695000D03*
X67100000Y-25295000D03*
%TO.N,/SYS*%
X16100000Y-20250000D03*
X16100000Y-18750000D03*
%TO.N,/TMR*%
X19149965Y-12621950D03*
X26586632Y-19749807D03*
%TO.N,/TPS_EN*%
X15475061Y-20826794D03*
X14945000Y-6895000D03*
X11028403Y-2564505D03*
%TO.N,/TS*%
X16757566Y-9670915D03*
%TO.N,/USB_DM*%
X34700000Y-25295000D03*
X35900000Y-27095000D03*
%TO.N,/USB_DM_IO*%
X31900000Y-17295000D03*
X31900000Y-21895000D03*
%TO.N,/USB_DP_IO*%
X41230852Y-21515888D03*
X38315543Y-16787708D03*
%TO.N,/VBUS*%
X14900000Y-20095000D03*
X34945000Y-30450000D03*
X8150000Y-11695000D03*
X39300000Y-30495000D03*
%TO.N,/VBUS_N*%
X29373246Y-6859002D03*
X23703323Y-13194183D03*
X27982500Y-37295000D03*
%TO.N,/VBUS_RAW*%
X24100000Y-18295000D03*
X21300000Y-16895000D03*
%TO.N,/VLOG*%
X14300000Y-3295000D03*
X22900000Y-9295000D03*
X23100000Y-20895000D03*
X14900000Y-3895000D03*
X23700000Y-34334230D03*
X24700000Y-25895000D03*
X17423686Y-5770000D03*
X23100000Y-31095000D03*
X23300000Y-18895000D03*
X23100000Y-29495000D03*
%TD*%
D18*
%TO.N,/0V5_EXC*%
X74400880Y-17065165D02*
X66900000Y-16895000D01*
X66900000Y-16895000D02*
X67450000Y-14695000D01*
D19*
%TO.N,/3V0_TEMP*%
X13845000Y-52995000D02*
X23758310Y-42344868D01*
%TO.N,/3V3_A*%
X77945000Y-43995000D02*
X77945000Y-8199572D01*
X79345000Y-43995000D02*
X79345000Y-53995000D01*
X77945000Y-43995000D02*
X79345000Y-43995000D01*
X79345000Y-53995000D02*
X77945000Y-53995000D01*
X77945000Y-8199572D02*
X60023087Y-8199572D01*
%TO.N,/BAT_PROT*%
X4375000Y-2770000D02*
X4625000Y-2770000D01*
X15125000Y-5270000D02*
X15375000Y-5270000D01*
X3345000Y-3995000D02*
X545000Y-3995000D01*
X12875000Y-3020000D02*
X13125000Y-3020000D01*
X3375000Y-5770000D02*
X12375000Y-5770000D01*
X26875000Y-33520000D02*
X26875000Y-34770000D01*
X6875000Y-2520000D02*
X6875000Y-1520000D01*
X4375000Y-4020000D02*
X4375000Y-2770000D01*
X16125000Y-9020000D02*
X16375000Y-9020000D01*
X4625000Y-2770000D02*
X4625000Y-2520000D01*
X12125000Y-2020000D02*
X12375000Y-2020000D01*
X14875000Y-5020000D02*
X15125000Y-5020000D01*
X27375000Y-36270000D02*
X27375000Y-38020000D01*
X27625000Y-32770000D02*
X27625000Y-31520000D01*
X15875000Y-5770000D02*
X15875000Y-6020000D01*
X3375000Y-25770000D02*
X5375000Y-25770000D01*
X26125000Y-30770000D02*
X26375000Y-30770000D01*
X26625000Y-33520000D02*
X26875000Y-33520000D01*
X27875000Y-32770000D02*
X27625000Y-32770000D01*
X14875000Y-4770000D02*
X14875000Y-5020000D01*
X13875000Y-3770000D02*
X13875000Y-4020000D01*
X14625000Y-4520000D02*
X14625000Y-4770000D01*
X15875000Y-6020000D02*
X16125000Y-6020000D01*
X12375000Y-9020000D02*
X14125000Y-9020000D01*
X3345000Y-5686540D02*
X12324475Y-5686540D01*
X3375000Y-4020000D02*
X3375000Y-25770000D01*
X25125000Y-30270000D02*
X26125000Y-30270000D01*
X3345000Y-3995000D02*
X3345000Y-5686540D01*
X15375000Y-5770000D02*
X15875000Y-5770000D01*
X15125000Y-5020000D02*
X15125000Y-5270000D01*
X13625000Y-3770000D02*
X13875000Y-3770000D01*
X27875000Y-34270000D02*
X27875000Y-32770000D01*
X26625000Y-32020000D02*
X26625000Y-33520000D01*
X28625000Y-36770000D02*
X28375000Y-36770000D01*
X12125000Y-1520000D02*
X12125000Y-2020000D01*
X27125000Y-36270000D02*
X27375000Y-36270000D01*
X17125000Y-9270000D02*
X22125000Y-9270000D01*
X13875000Y-4020000D02*
X14125000Y-4020000D01*
X12375000Y-2270000D02*
X12625000Y-2270000D01*
X3375000Y-4020000D02*
X4375000Y-4020000D01*
X22436112Y-30159325D02*
X25236112Y-30159325D01*
X17125000Y-9020000D02*
X17125000Y-9270000D01*
X27625000Y-31520000D02*
X27375000Y-31520000D01*
X14625000Y-4770000D02*
X14875000Y-4770000D01*
X14375000Y-4270000D02*
X14375000Y-4520000D01*
X3375000Y-4020000D02*
X3375000Y-5770000D01*
X16125000Y-6020000D02*
X16125000Y-9020000D01*
X3345000Y-3995000D02*
X3345000Y-8901915D01*
X26875000Y-34770000D02*
X27125000Y-34770000D01*
X16375000Y-9020000D02*
X17125000Y-9020000D01*
X12875000Y-2520000D02*
X12875000Y-3020000D01*
X27375000Y-31520000D02*
X27375000Y-20020000D01*
X15375000Y-5270000D02*
X15375000Y-5770000D01*
X4625000Y-2520000D02*
X6875000Y-2520000D01*
X28375000Y-35770000D02*
X28125000Y-35770000D01*
X12625000Y-2520000D02*
X12875000Y-2520000D01*
X26125000Y-30270000D02*
X26125000Y-30770000D01*
X6875000Y-1520000D02*
X12125000Y-1520000D01*
X28125000Y-34270000D02*
X27875000Y-34270000D01*
X13375000Y-3270000D02*
X13375000Y-3520000D01*
X26375000Y-30770000D02*
X26375000Y-32020000D01*
X545000Y-3995000D02*
X22436112Y-30159325D01*
X26375000Y-32020000D02*
X26625000Y-32020000D01*
X12375000Y-5770000D02*
X12375000Y-9020000D01*
X28125000Y-35770000D02*
X28125000Y-34270000D01*
X12375000Y-2020000D02*
X12375000Y-2270000D01*
X12625000Y-2270000D02*
X12625000Y-2520000D01*
X5375000Y-25770000D02*
X5375000Y-30270000D01*
X5375000Y-30270000D02*
X25125000Y-30270000D01*
X13375000Y-3520000D02*
X13625000Y-3520000D01*
X27375000Y-38020000D02*
X28375000Y-38020000D01*
X28625000Y-37770000D02*
X28625000Y-36770000D01*
X3345000Y-8901915D02*
X14154408Y-8901915D01*
X28375000Y-36770000D02*
X28375000Y-35770000D01*
X27125000Y-34770000D02*
X27125000Y-36270000D01*
X13125000Y-3020000D02*
X13125000Y-3270000D01*
X14375000Y-4520000D02*
X14625000Y-4520000D01*
X14125000Y-4270000D02*
X14375000Y-4270000D01*
X13125000Y-3270000D02*
X13375000Y-3270000D01*
X28375000Y-37770000D02*
X28625000Y-37770000D01*
X13625000Y-3520000D02*
X13625000Y-3770000D01*
X14125000Y-4020000D02*
X14125000Y-4270000D01*
X28375000Y-38020000D02*
X28375000Y-37770000D01*
D18*
%TO.N,/BAT_SENSE*%
X27625000Y-10270000D02*
X27875000Y-10270000D01*
X28375000Y-9520000D02*
X28625000Y-9520000D01*
X28625000Y-9270000D02*
X28875000Y-9270000D01*
X28375000Y-9770000D02*
X28375000Y-9520000D01*
X29125000Y-8770000D02*
X29125000Y-8520000D01*
X29625000Y-8020000D02*
X29875000Y-8020000D01*
X29125000Y-8520000D02*
X29375000Y-8520000D01*
X25875000Y-4770000D02*
X25875000Y-5770000D01*
X27375000Y-10520000D02*
X27625000Y-10520000D01*
X31875000Y-26770000D02*
X27875000Y-26770000D01*
X27875000Y-26770000D02*
X27875000Y-19520000D01*
X27125000Y-19520000D02*
X27125000Y-12520000D01*
X31982500Y-26870000D02*
X27239631Y-12433758D01*
X30375000Y-7520000D02*
X30375000Y-6020000D01*
X27875000Y-10270000D02*
X27875000Y-10020000D01*
X30125000Y-7770000D02*
X30125000Y-7520000D01*
X29875000Y-7770000D02*
X30125000Y-7770000D01*
X25875000Y-5770000D02*
X29125000Y-5770000D01*
X30125000Y-7520000D02*
X30375000Y-7520000D01*
X28875000Y-9270000D02*
X28875000Y-8770000D01*
X29375000Y-8270000D02*
X29625000Y-8270000D01*
X27125000Y-10770000D02*
X27375000Y-10770000D01*
X29875000Y-8020000D02*
X29875000Y-7770000D01*
X29375000Y-8520000D02*
X29375000Y-8270000D01*
X27625000Y-10520000D02*
X27625000Y-10270000D01*
X27375000Y-10770000D02*
X27375000Y-10520000D01*
X28625000Y-9520000D02*
X28625000Y-9270000D01*
X29625000Y-8270000D02*
X29625000Y-8020000D01*
X30125000Y-6020000D02*
X30125000Y-5770000D01*
X27875000Y-19520000D02*
X27125000Y-19520000D01*
X27125000Y-12520000D02*
X27125000Y-10770000D01*
X25875000Y-5770000D02*
X25875000Y-4770000D01*
X28125000Y-10020000D02*
X28125000Y-9770000D01*
X28125000Y-9770000D02*
X28375000Y-9770000D01*
X30375000Y-6020000D02*
X30125000Y-6020000D01*
X28875000Y-8770000D02*
X29125000Y-8770000D01*
X27875000Y-10020000D02*
X28125000Y-10020000D01*
X30125000Y-5770000D02*
X25875000Y-5770000D01*
%TO.N,/CC1*%
X35300000Y-32295000D02*
X35100000Y-32295000D01*
X35100000Y-32295000D02*
X35100000Y-32095000D01*
X35100000Y-32095000D02*
X33900000Y-32095000D01*
X33700000Y-30895000D02*
X34250000Y-29695000D01*
X33900000Y-30895000D02*
X33700000Y-30895000D01*
X33900000Y-32095000D02*
X33900000Y-30895000D01*
X35300000Y-32895000D02*
X35300000Y-32295000D01*
%TO.N,/CC2*%
X39900000Y-30895000D02*
X40159807Y-29845000D01*
X39700000Y-30895000D02*
X39900000Y-30895000D01*
X39700000Y-31095000D02*
X39700000Y-30895000D01*
X39100000Y-31095000D02*
X39700000Y-31095000D01*
X39100000Y-32895000D02*
X39100000Y-31095000D01*
%TO.N,/DIV_EXC*%
X67012026Y-10229875D02*
X66900000Y-15495000D01*
X57300000Y-12895000D02*
X57300000Y-13095000D01*
X57300000Y-13095000D02*
X55500000Y-13095000D01*
X66700000Y-15495000D02*
X66700000Y-16295000D01*
X57500000Y-12895000D02*
X57300000Y-12895000D01*
X66900000Y-15495000D02*
X66700000Y-15495000D01*
X66500000Y-17495000D02*
X67539230Y-17495000D01*
X57500000Y-11095000D02*
X57500000Y-12895000D01*
X55500000Y-13095000D02*
X55500000Y-17545000D01*
X66500000Y-16295000D02*
X66500000Y-17495000D01*
X66700000Y-16295000D02*
X66500000Y-16295000D01*
X61300000Y-11095000D02*
X57500000Y-11095000D01*
%TO.N,/DRDY_ECG*%
X29373246Y-10730997D02*
X58909522Y-5704541D01*
%TO.N,/DRDY_SLOW*%
X61100000Y-24495000D02*
X61100000Y-24695000D01*
X60500000Y-24895000D02*
X59300000Y-24895000D01*
X60500000Y-24695000D02*
X60500000Y-24895000D01*
X28300000Y-11295000D02*
X28300000Y-10895000D01*
X59300000Y-24895000D02*
X59300000Y-21495000D01*
X28500000Y-11295000D02*
X28300000Y-11295000D01*
X28500000Y-13695000D02*
X28500000Y-11295000D01*
X64862227Y-25459362D02*
X61100000Y-24495000D01*
X54100000Y-24895000D02*
X54100000Y-21095000D01*
X59300000Y-21495000D02*
X57500000Y-21495000D01*
X61100000Y-24695000D02*
X60500000Y-24695000D01*
X60500000Y-24695000D02*
X60500000Y-24895000D01*
X63162227Y-25459362D02*
X61100000Y-24495000D01*
X61100000Y-24495000D02*
X61100000Y-24695000D01*
X60500000Y-24895000D02*
X54100000Y-24895000D01*
X61100000Y-24695000D02*
X60500000Y-24695000D01*
%TO.N,/ECG_DIV*%
X72300000Y-21495000D02*
X72300000Y-21895000D01*
X61700000Y-11695000D02*
X59300000Y-11695000D01*
X58900000Y-11895000D02*
X58900000Y-15095000D01*
X59300000Y-11695000D02*
X59300000Y-11895000D01*
X71300000Y-23495000D02*
X71300000Y-23695000D01*
X71700000Y-22495000D02*
X71700000Y-22895000D01*
X72500000Y-21495000D02*
X72300000Y-21495000D01*
X68300000Y-23695000D02*
X68776313Y-24770000D01*
X71500000Y-22895000D02*
X71500000Y-23495000D01*
X58900000Y-15095000D02*
X57500000Y-15095000D01*
X72100000Y-22295000D02*
X71900000Y-22295000D01*
X71500000Y-23495000D02*
X71300000Y-23495000D01*
X72300000Y-21895000D02*
X72100000Y-21895000D01*
X71300000Y-23695000D02*
X68300000Y-23695000D01*
X72100000Y-21895000D02*
X72100000Y-22295000D01*
X59300000Y-11895000D02*
X58900000Y-11895000D01*
X71700000Y-22895000D02*
X71500000Y-22895000D01*
X71900000Y-22495000D02*
X71700000Y-22495000D01*
X71900000Y-22295000D02*
X71900000Y-22495000D01*
%TO.N,/ECG_OUT*%
X74700000Y-16695000D02*
X74700000Y-16495000D01*
X74900000Y-16695000D02*
X74700000Y-16695000D01*
X74700000Y-16495000D02*
X68100000Y-16495000D01*
X74900000Y-23695000D02*
X74900000Y-16695000D01*
X68100000Y-16495000D02*
X68576313Y-13170000D01*
%TO.N,/ILIM*%
X16800000Y-14700000D02*
X17150000Y-15050000D01*
X16800000Y-13850000D02*
X16800000Y-14700000D01*
%TO.N,/ISET*%
X17394954Y-10522240D02*
X21629245Y-18839678D01*
%TO.N,/LO_N*%
X31300000Y-20695000D02*
X31300000Y-17795000D01*
%TO.N,/LO_P*%
X70900000Y-49495000D02*
X53900000Y-49495000D01*
X32900000Y-19895000D02*
X32900000Y-14895000D01*
%TO.N,/OUT_AB*%
X63900000Y-20495000D02*
X63900000Y-20295000D01*
X63900000Y-20295000D02*
X64100000Y-20295000D01*
X67900000Y-18095000D02*
X67900000Y-17895000D01*
X57100000Y-20495000D02*
X63900000Y-20495000D01*
X65100000Y-18095000D02*
X67900000Y-18095000D01*
X64500000Y-19495000D02*
X64900000Y-19495000D01*
X64100000Y-20295000D02*
X64100000Y-19895000D01*
X64300000Y-19895000D02*
X64300000Y-19695000D01*
X64900000Y-19295000D02*
X65100000Y-19295000D01*
X64100000Y-19895000D02*
X64300000Y-19895000D01*
X64900000Y-19495000D02*
X64900000Y-19295000D01*
X55100000Y-20695000D02*
X57100000Y-20695000D01*
X57100000Y-20695000D02*
X57100000Y-20495000D01*
X64300000Y-19695000D02*
X64500000Y-19695000D01*
X55100000Y-23895000D02*
X55100000Y-20695000D01*
X64500000Y-19695000D02*
X64500000Y-19495000D01*
X65100000Y-19295000D02*
X65100000Y-18095000D01*
X67900000Y-17895000D02*
X68100000Y-17895000D01*
%TO.N,/OUT_GSR*%
X64578785Y-20459311D02*
X60130494Y-23379300D01*
X64578785Y-20459311D02*
X66066038Y-23037156D01*
%TO.N,/OUT_TH*%
X71023961Y-23037156D02*
X72511214Y-20459311D01*
X71023961Y-23037156D02*
X60103673Y-24295133D01*
%TO.N,/PPG_INT*%
X30300000Y-17295000D02*
X30100000Y-17295000D01*
X30300000Y-17495000D02*
X30300000Y-17295000D01*
X28500000Y-20695000D02*
X29300000Y-20695000D01*
X30100000Y-17295000D02*
X29363878Y-14520000D01*
X28500000Y-24295000D02*
X28500000Y-20695000D01*
X30900000Y-21895000D02*
X30700000Y-21895000D01*
X30700000Y-17495000D02*
X30300000Y-17495000D01*
X30700000Y-21895000D02*
X30700000Y-17495000D01*
%TO.N,/Q1G*%
X24970154Y-23174661D02*
X25236112Y-26630674D01*
%TO.N,/SCL_ADC*%
X40125000Y-8270000D02*
X41625000Y-8270000D01*
X30375000Y-8270000D02*
X30375000Y-8020000D01*
X40125000Y-8520000D02*
X40125000Y-8270000D01*
X30125000Y-8520000D02*
X30125000Y-8270000D01*
X42875000Y-18770000D02*
X58625000Y-18770000D01*
X42875000Y-12020000D02*
X42875000Y-18770000D01*
X29375000Y-9770000D02*
X29375000Y-9020000D01*
X30375000Y-5520000D02*
X30375000Y-5270000D01*
X47375000Y-7020000D02*
X48875000Y-7020000D01*
X59125000Y-5270000D02*
X59375000Y-5270000D01*
X21875000Y-4020000D02*
X21875000Y-3770000D01*
X50375000Y-6520000D02*
X51875000Y-6520000D01*
X29625000Y-8770000D02*
X29875000Y-8770000D01*
X44625000Y-7770000D02*
X44625000Y-7520000D01*
X32875000Y-9520000D02*
X34375000Y-9520000D01*
X53375000Y-6020000D02*
X54875000Y-6020000D01*
X47375000Y-7270000D02*
X47375000Y-7020000D01*
X38625000Y-8770000D02*
X38625000Y-8520000D01*
X30625000Y-8020000D02*
X30625000Y-7770000D01*
X26375000Y-5270000D02*
X26375000Y-4270000D01*
X53375000Y-6270000D02*
X53375000Y-6020000D01*
X58375000Y-5020000D02*
X59125000Y-5020000D01*
X59625000Y-6020000D02*
X59375000Y-6020000D01*
X51875000Y-6270000D02*
X53375000Y-6270000D01*
X37125000Y-8770000D02*
X38625000Y-8770000D01*
X30375000Y-8020000D02*
X30625000Y-8020000D01*
X59375000Y-5520000D02*
X59625000Y-5520000D01*
X30125000Y-8270000D02*
X30375000Y-8270000D01*
X35625000Y-9020000D02*
X37125000Y-9020000D01*
X59375000Y-6270000D02*
X58375000Y-6270000D01*
X26125000Y-4270000D02*
X26125000Y-4020000D01*
X38625000Y-8520000D02*
X40125000Y-8520000D01*
X57125000Y-12020000D02*
X42875000Y-12020000D01*
X58375000Y-10520000D02*
X57125000Y-10520000D01*
X57125000Y-10520000D02*
X57125000Y-12020000D01*
X57875000Y-5270000D02*
X58375000Y-5270000D01*
X43125000Y-7770000D02*
X44625000Y-7770000D01*
X30375000Y-5270000D02*
X26375000Y-5270000D01*
X37125000Y-9020000D02*
X37125000Y-8770000D01*
X26125000Y-4020000D02*
X21875000Y-4020000D01*
X44625000Y-7520000D02*
X46125000Y-7520000D01*
X54875000Y-6020000D02*
X54875000Y-5770000D01*
X32875000Y-9770000D02*
X32875000Y-9520000D01*
X29875000Y-8770000D02*
X29875000Y-8520000D01*
X54875000Y-5770000D02*
X56375000Y-5770000D01*
X29875000Y-8520000D02*
X30125000Y-8520000D01*
X59125000Y-5020000D02*
X59125000Y-5270000D01*
X34375000Y-9270000D02*
X35625000Y-9270000D01*
X30625000Y-5770000D02*
X30625000Y-5520000D01*
X26375000Y-4270000D02*
X26125000Y-4270000D01*
X59625000Y-5520000D02*
X59625000Y-6020000D01*
X29375000Y-9770000D02*
X32875000Y-9770000D01*
X56375000Y-5770000D02*
X56375000Y-5520000D01*
X43125000Y-8020000D02*
X43125000Y-7770000D01*
X29625000Y-9020000D02*
X29625000Y-8770000D01*
X41625000Y-8270000D02*
X41625000Y-8020000D01*
X59375000Y-6020000D02*
X59375000Y-6270000D01*
X48875000Y-6770000D02*
X50375000Y-6770000D01*
X58375000Y-5270000D02*
X58375000Y-5020000D01*
X29375000Y-9020000D02*
X29625000Y-9020000D01*
X51875000Y-6520000D02*
X51875000Y-6270000D01*
X58375000Y-6270000D02*
X58375000Y-10520000D01*
X56375000Y-5520000D02*
X57875000Y-5520000D01*
X41625000Y-8020000D02*
X43125000Y-8020000D01*
X57875000Y-5520000D02*
X57875000Y-5270000D01*
X46125000Y-7520000D02*
X46125000Y-7270000D01*
X46125000Y-7270000D02*
X47375000Y-7270000D01*
X30875000Y-7770000D02*
X30875000Y-5770000D01*
X30625000Y-5520000D02*
X30375000Y-5520000D01*
X50375000Y-6770000D02*
X50375000Y-6520000D01*
X34375000Y-9520000D02*
X34375000Y-9270000D01*
X35625000Y-9270000D02*
X35625000Y-9020000D01*
X30625000Y-7770000D02*
X30875000Y-7770000D01*
X30875000Y-5770000D02*
X30625000Y-5770000D01*
X48875000Y-7020000D02*
X48875000Y-6770000D01*
X59375000Y-5270000D02*
X59375000Y-5520000D01*
%TO.N,/SCL_MOD*%
X23875000Y-43270000D02*
X23875000Y-43020000D01*
X20125000Y-47020000D02*
X20375000Y-47020000D01*
X22375000Y-44520000D02*
X22625000Y-44520000D01*
X23375000Y-43770000D02*
X23375000Y-43520000D01*
X21875000Y-45270000D02*
X21875000Y-45020000D01*
X21125000Y-45770000D02*
X21375000Y-45770000D01*
X23125000Y-44020000D02*
X23125000Y-43770000D01*
X22875000Y-44270000D02*
X22875000Y-44020000D01*
X20375000Y-46770000D02*
X20625000Y-46770000D01*
X29125000Y-38270000D02*
X29125000Y-27520000D01*
X21625000Y-45270000D02*
X21875000Y-45270000D01*
X20125000Y-47270000D02*
X20125000Y-47020000D01*
X24375000Y-42770000D02*
X24375000Y-38520000D01*
X23875000Y-43020000D02*
X24125000Y-43020000D01*
X21625000Y-45520000D02*
X21625000Y-45270000D01*
X20875000Y-46270000D02*
X21125000Y-46270000D01*
X32375000Y-27520000D02*
X32375000Y-27270000D01*
X19875000Y-53020000D02*
X18875000Y-53020000D01*
X29875000Y-11270000D02*
X29625000Y-11270000D01*
X23125000Y-43770000D02*
X23375000Y-43770000D01*
X28875000Y-38270000D02*
X29125000Y-38270000D01*
X22875000Y-44020000D02*
X23125000Y-44020000D01*
X24125000Y-43020000D02*
X24125000Y-42770000D01*
X20625000Y-46520000D02*
X20875000Y-46520000D01*
X22375000Y-44770000D02*
X22375000Y-44520000D01*
X23625000Y-43520000D02*
X23625000Y-43270000D01*
X20875000Y-46520000D02*
X20875000Y-46270000D01*
X23375000Y-43520000D02*
X23625000Y-43520000D01*
X32375000Y-26520000D02*
X32375000Y-11020000D01*
X19875000Y-53020000D02*
X19875000Y-47270000D01*
X21375000Y-45520000D02*
X21625000Y-45520000D01*
X32625000Y-26520000D02*
X32375000Y-26520000D01*
X29125000Y-27520000D02*
X32375000Y-27520000D01*
X32375000Y-11020000D02*
X29875000Y-11020000D01*
X29875000Y-11020000D02*
X29875000Y-11270000D01*
X24375000Y-38520000D02*
X28875000Y-38520000D01*
X28875000Y-38520000D02*
X28875000Y-38270000D01*
X21375000Y-45770000D02*
X21375000Y-45520000D01*
X18875000Y-54270000D02*
X5375000Y-54270000D01*
X32375000Y-27270000D02*
X32625000Y-27270000D01*
X19875000Y-47270000D02*
X20125000Y-47270000D01*
X22125000Y-44770000D02*
X22375000Y-44770000D01*
X20375000Y-47020000D02*
X20375000Y-46770000D01*
X23625000Y-43270000D02*
X23875000Y-43270000D01*
X32625000Y-27270000D02*
X32625000Y-26520000D01*
X22125000Y-45020000D02*
X22125000Y-44770000D01*
X21125000Y-46270000D02*
X21125000Y-45770000D01*
X22625000Y-44270000D02*
X22875000Y-44270000D01*
X29625000Y-11270000D02*
X29625000Y-13020000D01*
X21875000Y-45020000D02*
X22125000Y-45020000D01*
X5375000Y-31770000D02*
X4125000Y-31770000D01*
X5375000Y-54270000D02*
X5375000Y-31770000D01*
X18875000Y-53020000D02*
X18875000Y-54270000D01*
X4125000Y-31770000D02*
X4125000Y-30770000D01*
X20625000Y-46770000D02*
X20625000Y-46520000D01*
X22625000Y-44520000D02*
X22625000Y-44270000D01*
X24125000Y-42770000D02*
X24375000Y-42770000D01*
%TO.N,/SDA_ADC*%
X62100000Y-11095000D02*
X61900000Y-11095000D01*
X59300000Y-15495000D02*
X59300000Y-12295000D01*
X62100000Y-12095000D02*
X62300000Y-12095000D01*
X61700000Y-10695000D02*
X61700000Y-10495000D01*
X62100000Y-11295000D02*
X62100000Y-11095000D01*
X59907500Y-12670000D02*
X59300000Y-12295000D01*
X54600000Y-12495000D02*
X54600000Y-18100000D01*
X58100000Y-17295000D02*
X58100000Y-15495000D01*
X61900000Y-10695000D02*
X61700000Y-10695000D01*
X43500000Y-12495000D02*
X54600000Y-12495000D01*
X59300000Y-12295000D02*
X62100000Y-12295000D01*
X62300000Y-11295000D02*
X62100000Y-11295000D01*
X54600000Y-18100000D02*
X59300000Y-18100000D01*
X61900000Y-11095000D02*
X61900000Y-10695000D01*
X59300000Y-19295000D02*
X58500000Y-19295000D01*
X58100000Y-15495000D02*
X59300000Y-15495000D01*
X62100000Y-12295000D02*
X62100000Y-12095000D01*
X61700000Y-10495000D02*
X59900000Y-10495000D01*
X59300000Y-12295000D02*
X59300000Y-19295000D01*
X62300000Y-12095000D02*
X62300000Y-11295000D01*
%TO.N,/SDA_MOD*%
X13900000Y-24695000D02*
X17100000Y-24695000D01*
X26100000Y-23295000D02*
X26100000Y-16295000D01*
%TO.N,/SNS_AB*%
X74100000Y-17695000D02*
X71900000Y-17695000D01*
X71900000Y-17495000D02*
X69500000Y-17495000D01*
X71900000Y-17695000D02*
X71900000Y-17495000D01*
%TO.N,/SNS_GSR*%
X53345000Y-19874835D02*
X53345000Y-50995000D01*
X63589120Y-19874835D02*
X64541145Y-18875948D01*
X63589120Y-19874835D02*
X53345000Y-19874835D01*
%TO.N,/SNS_TH*%
X69300000Y-24095000D02*
X71700000Y-24095000D01*
X72300000Y-22695000D02*
X72500000Y-22695000D01*
X72900000Y-21895000D02*
X73100000Y-21895000D01*
X73100000Y-21895000D02*
X73100000Y-20895000D01*
X71900000Y-23295000D02*
X72100000Y-23295000D01*
X72100000Y-23295000D02*
X72100000Y-22895000D01*
X72700000Y-22095000D02*
X72900000Y-22095000D01*
X72900000Y-22095000D02*
X72900000Y-21895000D01*
X72500000Y-22295000D02*
X72700000Y-22295000D01*
X71700000Y-24095000D02*
X71700000Y-23895000D01*
X73100000Y-20895000D02*
X74100000Y-19695000D01*
X71900000Y-19295000D02*
X71900000Y-19495000D01*
X71900000Y-19495000D02*
X69500000Y-19495000D01*
X74400880Y-21424835D02*
X71900000Y-19295000D01*
X72100000Y-22895000D02*
X72300000Y-22895000D01*
X72500000Y-22695000D02*
X72500000Y-22295000D01*
X72700000Y-22295000D02*
X72700000Y-22095000D01*
X71700000Y-23895000D02*
X71900000Y-23895000D01*
X69300000Y-25295000D02*
X69300000Y-24095000D01*
X72300000Y-22895000D02*
X72300000Y-22695000D01*
X67100000Y-25295000D02*
X69300000Y-25295000D01*
X71900000Y-23895000D02*
X71900000Y-23295000D01*
D20*
%TO.N,/SYS*%
X16100000Y-18750000D02*
X16100000Y-20250000D01*
D18*
%TO.N,/TMR*%
X27375000Y-9770000D02*
X27375000Y-10020000D01*
X29125000Y-8020000D02*
X28875000Y-8020000D01*
X29625000Y-7270000D02*
X29625000Y-7520000D01*
X26875000Y-10270000D02*
X26875000Y-10520000D01*
X29375000Y-7770000D02*
X29125000Y-7770000D01*
X24375000Y-11520000D02*
X24625000Y-11520000D01*
X26875000Y-10520000D02*
X26625000Y-10520000D01*
X23625000Y-12270000D02*
X23875000Y-12270000D01*
X29875000Y-6270000D02*
X29875000Y-7270000D01*
X28125000Y-9270000D02*
X27875000Y-9270000D01*
X27875000Y-9520000D02*
X27625000Y-9520000D01*
X28125000Y-9020000D02*
X28125000Y-9270000D01*
X23875000Y-12270000D02*
X23875000Y-12020000D01*
X27625000Y-9770000D02*
X27375000Y-9770000D01*
X23625000Y-12520000D02*
X23625000Y-12270000D01*
X29125000Y-7770000D02*
X29125000Y-8020000D01*
X28625000Y-8270000D02*
X28625000Y-8520000D01*
X28875000Y-8270000D02*
X28625000Y-8270000D01*
X26125000Y-9770000D02*
X26125000Y-9520000D01*
X26375000Y-9270000D02*
X26625000Y-9270000D01*
X25875000Y-9770000D02*
X26125000Y-9770000D01*
X24625000Y-11520000D02*
X24625000Y-11270000D01*
X25125000Y-10770000D02*
X25375000Y-10770000D01*
X23875000Y-12020000D02*
X24125000Y-12020000D01*
X27125000Y-10020000D02*
X27125000Y-10270000D01*
X25625000Y-10520000D02*
X25625000Y-10020000D01*
X24875000Y-11270000D02*
X24875000Y-11020000D01*
X24625000Y-11270000D02*
X24875000Y-11270000D01*
X29375000Y-7520000D02*
X29375000Y-7770000D01*
X24875000Y-11020000D02*
X25125000Y-11020000D01*
X28875000Y-8020000D02*
X28875000Y-8270000D01*
X26375000Y-9520000D02*
X26375000Y-9270000D01*
X27875000Y-9270000D02*
X27875000Y-9520000D01*
X28625000Y-8520000D02*
X28375000Y-8520000D01*
X29875000Y-7270000D02*
X29625000Y-7270000D01*
X24125000Y-11770000D02*
X24375000Y-11770000D01*
X25125000Y-11020000D02*
X25125000Y-10770000D01*
X25375000Y-10770000D02*
X25375000Y-10520000D01*
X26625000Y-9270000D02*
X26625000Y-6270000D01*
X25375000Y-10520000D02*
X25625000Y-10520000D01*
X28375000Y-9020000D02*
X28125000Y-9020000D01*
X25875000Y-10020000D02*
X25875000Y-9770000D01*
X25625000Y-10020000D02*
X25875000Y-10020000D01*
X26625000Y-6270000D02*
X29875000Y-6270000D01*
X28375000Y-8520000D02*
X28375000Y-9020000D01*
X27625000Y-9520000D02*
X27625000Y-9770000D01*
X26625000Y-10520000D02*
X26625000Y-19770000D01*
X26125000Y-9520000D02*
X26375000Y-9520000D01*
X27125000Y-10270000D02*
X26875000Y-10270000D01*
X24375000Y-11770000D02*
X24375000Y-11520000D01*
X29625000Y-7520000D02*
X29375000Y-7520000D01*
X24125000Y-12020000D02*
X24125000Y-11770000D01*
X19125000Y-12520000D02*
X23625000Y-12520000D01*
X27375000Y-10020000D02*
X27125000Y-10020000D01*
%TO.N,/TPS_EN*%
X14945000Y-6895000D02*
X11028403Y-2564505D01*
X14945000Y-6895000D02*
X15475061Y-20826794D01*
%TO.N,/TS*%
X12125000Y-2770000D02*
X11875000Y-2770000D01*
X13875000Y-4770000D02*
X13625000Y-4770000D01*
X16875000Y-9770000D02*
X15625000Y-9770000D01*
X14875000Y-6270000D02*
X14875000Y-5770000D01*
X11875000Y-2770000D02*
X11875000Y-2520000D01*
X15625000Y-6520000D02*
X15375000Y-6520000D01*
X14625000Y-5520000D02*
X14375000Y-5520000D01*
X13125000Y-4020000D02*
X12875000Y-4020000D01*
X11625000Y-2520000D02*
X11625000Y-2020000D01*
X13375000Y-4520000D02*
X13375000Y-4270000D01*
X12875000Y-4020000D02*
X12875000Y-3770000D01*
X14375000Y-5270000D02*
X14125000Y-5270000D01*
X12625000Y-3770000D02*
X12625000Y-3520000D01*
X13625000Y-4770000D02*
X13625000Y-4520000D01*
X14625000Y-5770000D02*
X14625000Y-5520000D01*
X15375000Y-6520000D02*
X15375000Y-6270000D01*
X7375000Y-2020000D02*
X7375000Y-4020000D01*
X12125000Y-3020000D02*
X12125000Y-2770000D01*
X12375000Y-3520000D02*
X12375000Y-3020000D01*
X14375000Y-5520000D02*
X14375000Y-5270000D01*
X15625000Y-9770000D02*
X15625000Y-6520000D01*
X13375000Y-4270000D02*
X13125000Y-4270000D01*
X13875000Y-5020000D02*
X13875000Y-4770000D01*
X14125000Y-5020000D02*
X13875000Y-5020000D01*
X12375000Y-3020000D02*
X12125000Y-3020000D01*
X15375000Y-6270000D02*
X14875000Y-6270000D01*
X12625000Y-3520000D02*
X12375000Y-3520000D01*
X12875000Y-3770000D02*
X12625000Y-3770000D01*
X14875000Y-5770000D02*
X14625000Y-5770000D01*
X11875000Y-2520000D02*
X11625000Y-2520000D01*
X13125000Y-4270000D02*
X13125000Y-4020000D01*
X13625000Y-4520000D02*
X13375000Y-4520000D01*
X11625000Y-2020000D02*
X7375000Y-2020000D01*
X14125000Y-5270000D02*
X14125000Y-5020000D01*
%TO.N,/USB_DM*%
X35700000Y-26495000D02*
X35900000Y-26495000D01*
X35900000Y-26495000D02*
X35900000Y-27095000D01*
X34700000Y-25295000D02*
X35700000Y-25295000D01*
X35700000Y-25295000D02*
X35700000Y-26495000D01*
%TO.N,/USB_DM_IO*%
X31900000Y-21895000D02*
X31900000Y-17295000D01*
%TO.N,/USB_DP_IO*%
X38315543Y-16787708D02*
X41230852Y-21515888D01*
D21*
%TO.N,/VBUS*%
X14500000Y-19895000D02*
X14500000Y-19695000D01*
X13100000Y-18295000D02*
X13100000Y-18095000D01*
X10700000Y-15495000D02*
X10700000Y-15295000D01*
X12300000Y-17095000D02*
X12100000Y-17095000D01*
X12500000Y-17295000D02*
X12300000Y-17295000D01*
X12900000Y-17895000D02*
X12700000Y-17895000D01*
X13500000Y-18695000D02*
X13500000Y-18495000D01*
X10900000Y-15495000D02*
X10700000Y-15495000D01*
X14700000Y-20095000D02*
X14700000Y-19895000D01*
X10500000Y-14895000D02*
X10300000Y-14895000D01*
X10300000Y-14695000D02*
X10100000Y-14695000D01*
X14100000Y-19295000D02*
X13900000Y-19295000D01*
X10500000Y-15295000D02*
X10500000Y-14895000D01*
X10900000Y-15695000D02*
X10900000Y-15495000D01*
X13100000Y-18095000D02*
X12900000Y-18095000D01*
X11700000Y-16695000D02*
X11700000Y-16495000D01*
X10700000Y-15295000D02*
X10500000Y-15295000D01*
X8300000Y-12295000D02*
X8100000Y-12295000D01*
X13500000Y-18495000D02*
X13300000Y-18495000D01*
X7900000Y-12095000D02*
X7900000Y-11895000D01*
X13900000Y-19095000D02*
X13700000Y-19095000D01*
X12700000Y-17895000D02*
X12700000Y-17695000D01*
X12300000Y-17295000D02*
X12300000Y-17095000D01*
X9100000Y-13295000D02*
X8900000Y-13295000D01*
X8100000Y-12295000D02*
X8100000Y-12095000D01*
X8700000Y-12895000D02*
X8500000Y-12895000D01*
X14500000Y-19695000D02*
X14300000Y-19695000D01*
X13300000Y-18295000D02*
X13100000Y-18295000D01*
X9900000Y-14495000D02*
X9900000Y-14295000D01*
X14900000Y-20095000D02*
X14700000Y-20095000D01*
X11700000Y-16495000D02*
X11500000Y-16495000D01*
X34945000Y-30450000D02*
X39300000Y-30495000D01*
X11900000Y-16695000D02*
X11700000Y-16695000D01*
X12500000Y-17695000D02*
X12500000Y-17295000D01*
X14700000Y-19895000D02*
X14500000Y-19895000D01*
X7700000Y-11895000D02*
X7700000Y-11695000D01*
X8500000Y-12895000D02*
X8500000Y-12495000D01*
X10300000Y-14895000D02*
X10300000Y-14695000D01*
X8900000Y-13095000D02*
X8700000Y-13095000D01*
X9500000Y-13695000D02*
X9300000Y-13695000D01*
X9300000Y-13695000D02*
X9300000Y-13495000D01*
X9700000Y-14295000D02*
X9700000Y-14095000D01*
X13900000Y-19295000D02*
X13900000Y-19095000D01*
X12100000Y-17095000D02*
X12100000Y-16895000D01*
X13700000Y-19095000D02*
X13700000Y-18695000D01*
X14300000Y-19695000D02*
X14300000Y-19495000D01*
X11300000Y-15895000D02*
X11100000Y-15895000D01*
X13700000Y-18695000D02*
X13500000Y-18695000D01*
X8300000Y-12495000D02*
X8300000Y-12295000D01*
X9700000Y-14095000D02*
X9500000Y-14095000D01*
X8500000Y-12495000D02*
X8300000Y-12495000D01*
X14300000Y-19495000D02*
X14100000Y-19495000D01*
X9900000Y-14295000D02*
X9700000Y-14295000D01*
X7900000Y-11895000D02*
X7700000Y-11895000D01*
X10100000Y-14695000D02*
X10100000Y-14495000D01*
X9500000Y-14095000D02*
X9500000Y-13695000D01*
X9100000Y-13495000D02*
X9100000Y-13295000D01*
X14100000Y-19495000D02*
X14100000Y-19295000D01*
X11300000Y-16095000D02*
X11300000Y-15895000D01*
X12100000Y-16895000D02*
X11900000Y-16895000D01*
X11500000Y-16095000D02*
X11300000Y-16095000D01*
X8100000Y-12095000D02*
X7900000Y-12095000D01*
X7700000Y-11695000D02*
X8150000Y-11695000D01*
X13300000Y-18495000D02*
X13300000Y-18295000D01*
X11500000Y-16495000D02*
X11500000Y-16095000D01*
X9300000Y-13495000D02*
X9100000Y-13495000D01*
X11900000Y-16895000D02*
X11900000Y-16695000D01*
X12700000Y-17695000D02*
X12500000Y-17695000D01*
X8700000Y-13095000D02*
X8700000Y-12895000D01*
X12900000Y-18095000D02*
X12900000Y-17895000D01*
X8900000Y-13295000D02*
X8900000Y-13095000D01*
X11100000Y-15695000D02*
X10900000Y-15695000D01*
X10100000Y-14495000D02*
X9900000Y-14495000D01*
X11100000Y-15895000D02*
X11100000Y-15695000D01*
D18*
%TO.N,/VBUS_N*%
X23703323Y-13194183D02*
X27982500Y-37295000D01*
X23703323Y-13194183D02*
X29373246Y-6859002D01*
D21*
%TO.N,/VBUS_RAW*%
X21300000Y-17295000D02*
X21500000Y-17295000D01*
X21900000Y-18295000D02*
X24100000Y-18295000D01*
X21500000Y-17295000D02*
X21500000Y-17695000D01*
X21500000Y-17695000D02*
X21700000Y-17695000D01*
X21700000Y-17695000D02*
X21700000Y-18095000D01*
X21300000Y-16895000D02*
X21300000Y-17295000D01*
X21700000Y-18095000D02*
X21900000Y-18095000D01*
X21900000Y-18095000D02*
X21900000Y-18295000D01*
D18*
%TO.N,/VLOG*%
X15900000Y-5295000D02*
X16100000Y-5295000D01*
X15900000Y-5295000D02*
X15900000Y-5095000D01*
X16300000Y-5495000D02*
X16100000Y-5495000D01*
X15500000Y-4695000D02*
X15500000Y-4895000D01*
X23100000Y-20895000D02*
X23100000Y-29495000D01*
X15100000Y-4295000D02*
X14900000Y-4295000D01*
X14900000Y-4295000D02*
X14900000Y-3895000D01*
X15700000Y-5095000D02*
X15900000Y-5095000D01*
X22900000Y-9095000D02*
X22700000Y-9095000D01*
X14700000Y-3895000D02*
X14700000Y-4095000D01*
X16500000Y-5695000D02*
X16300000Y-5695000D01*
X22700000Y-9095000D02*
X22700000Y-8695000D01*
X14900000Y-4295000D02*
X15100000Y-4295000D01*
X14300000Y-3295000D02*
X14300000Y-3695000D01*
X15500000Y-4895000D02*
X15500000Y-4695000D01*
X15900000Y-5095000D02*
X15900000Y-5295000D01*
X24500000Y-23695000D02*
X24700000Y-23695000D01*
X23100000Y-31095000D02*
X23700000Y-34334230D01*
X15300000Y-4495000D02*
X15300000Y-4695000D01*
X24700000Y-23695000D02*
X24700000Y-25895000D01*
X14500000Y-3695000D02*
X14500000Y-3895000D01*
X15700000Y-4895000D02*
X15500000Y-4895000D01*
X15700000Y-5095000D02*
X15700000Y-4895000D01*
X16100000Y-5295000D02*
X16100000Y-5495000D01*
X16300000Y-5695000D02*
X16300000Y-5495000D01*
X22900000Y-9295000D02*
X22900000Y-9095000D01*
X15100000Y-4295000D02*
X15100000Y-4495000D01*
X22700000Y-8695000D02*
X17300000Y-8695000D01*
X14300000Y-3695000D02*
X14500000Y-3695000D01*
X16100000Y-5495000D02*
X17423686Y-5770000D01*
X15100000Y-4495000D02*
X15100000Y-4295000D01*
X16100000Y-5295000D02*
X15900000Y-5295000D01*
X14900000Y-4095000D02*
X14900000Y-4295000D01*
X23300000Y-18895000D02*
X23300000Y-23095000D01*
X15700000Y-4895000D02*
X15700000Y-5095000D01*
X15300000Y-4695000D02*
X15300000Y-4495000D01*
X15500000Y-4895000D02*
X15700000Y-4895000D01*
X15900000Y-5095000D02*
X15700000Y-5095000D01*
X15500000Y-4695000D02*
X15300000Y-4695000D01*
X17300000Y-8695000D02*
X17300000Y-8495000D01*
X14500000Y-3895000D02*
X14700000Y-3895000D01*
X16100000Y-5495000D02*
X16100000Y-5295000D01*
X17300000Y-8495000D02*
X16500000Y-8495000D01*
X14700000Y-4095000D02*
X14900000Y-4095000D01*
X15300000Y-4495000D02*
X15100000Y-4495000D01*
X23300000Y-23095000D02*
X24500000Y-23095000D01*
X24250000Y-23095000D02*
X24500000Y-23695000D01*
X15100000Y-4495000D02*
X15300000Y-4495000D01*
X15300000Y-4695000D02*
X15500000Y-4695000D01*
X16500000Y-8495000D02*
X16500000Y-5695000D01*
X24500000Y-23095000D02*
X24250000Y-23095000D01*
%TD*%
M02*
