%TF.GenerationSoftware,KiCad,Pcbnew,9.0.9-9.0.9~ubuntu24.04.1*%
%TF.CreationDate,2026-10-01T00:07:43+00:00*%
%TF.ProjectId,PinaBio-v2.0-Cursor,50696e61-4269-46f2-9d76-322e302d4375,SPEC-0.8*%
%TF.SameCoordinates,Original*%
%TF.FileFunction,Drillmap*%
%TF.FilePolarity,Positive*%
%FSLAX45Y45*%
G04 Gerber Fmt 4.5, Leading zero omitted, Abs format (unit mm)*
G04 Created by KiCad (PCBNEW 9.0.9-9.0.9~ubuntu24.04.1) date 2026-10-01 00:07:43*
%MOMM*%
%LPD*%
G01*
G04 APERTURE LIST*
%ADD10C,0.050000*%
%ADD11C,0.200000*%
%ADD12C,0.100000*%
G04 APERTURE END LIST*
D10*
X0Y0D02*
X8134000Y0D01*
X0Y-5717000D02*
X0Y0D01*
X8134000Y0D02*
X8134000Y-5717000D01*
X8134000Y-5717000D02*
X0Y-5717000D01*
D11*
D12*
X3448000Y-3234500D02*
X3513000Y-3299500D01*
X3513000Y-3234500D02*
X3448000Y-3299500D01*
X4026000Y-3234500D02*
X4091000Y-3299500D01*
X4091000Y-3234500D02*
X4026000Y-3299500D01*
D11*
X258277Y-6030984D02*
X258277Y-5830984D01*
X258277Y-5830984D02*
X305896Y-5830984D01*
X305896Y-5830984D02*
X334467Y-5840508D01*
X334467Y-5840508D02*
X353515Y-5859555D01*
X353515Y-5859555D02*
X363039Y-5878603D01*
X363039Y-5878603D02*
X372562Y-5916698D01*
X372562Y-5916698D02*
X372562Y-5945269D01*
X372562Y-5945269D02*
X363039Y-5983365D01*
X363039Y-5983365D02*
X353515Y-6002412D01*
X353515Y-6002412D02*
X334467Y-6021460D01*
X334467Y-6021460D02*
X305896Y-6030984D01*
X305896Y-6030984D02*
X258277Y-6030984D01*
X458277Y-6030984D02*
X458277Y-5897650D01*
X458277Y-5935746D02*
X467801Y-5916698D01*
X467801Y-5916698D02*
X477324Y-5907174D01*
X477324Y-5907174D02*
X496372Y-5897650D01*
X496372Y-5897650D02*
X515420Y-5897650D01*
X582086Y-6030984D02*
X582086Y-5897650D01*
X582086Y-5830984D02*
X572563Y-5840508D01*
X572563Y-5840508D02*
X582086Y-5850031D01*
X582086Y-5850031D02*
X591610Y-5840508D01*
X591610Y-5840508D02*
X582086Y-5830984D01*
X582086Y-5830984D02*
X582086Y-5850031D01*
X705896Y-6030984D02*
X686848Y-6021460D01*
X686848Y-6021460D02*
X677324Y-6002412D01*
X677324Y-6002412D02*
X677324Y-5830984D01*
X810658Y-6030984D02*
X791610Y-6021460D01*
X791610Y-6021460D02*
X782086Y-6002412D01*
X782086Y-6002412D02*
X782086Y-5830984D01*
X1039229Y-6030984D02*
X1039229Y-5830984D01*
X1039229Y-5830984D02*
X1105896Y-5973841D01*
X1105896Y-5973841D02*
X1172563Y-5830984D01*
X1172563Y-5830984D02*
X1172563Y-6030984D01*
X1353515Y-6030984D02*
X1353515Y-5926222D01*
X1353515Y-5926222D02*
X1343991Y-5907174D01*
X1343991Y-5907174D02*
X1324944Y-5897650D01*
X1324944Y-5897650D02*
X1286848Y-5897650D01*
X1286848Y-5897650D02*
X1267801Y-5907174D01*
X1353515Y-6021460D02*
X1334467Y-6030984D01*
X1334467Y-6030984D02*
X1286848Y-6030984D01*
X1286848Y-6030984D02*
X1267801Y-6021460D01*
X1267801Y-6021460D02*
X1258277Y-6002412D01*
X1258277Y-6002412D02*
X1258277Y-5983365D01*
X1258277Y-5983365D02*
X1267801Y-5964317D01*
X1267801Y-5964317D02*
X1286848Y-5954793D01*
X1286848Y-5954793D02*
X1334467Y-5954793D01*
X1334467Y-5954793D02*
X1353515Y-5945269D01*
X1448753Y-5897650D02*
X1448753Y-6097650D01*
X1448753Y-5907174D02*
X1467801Y-5897650D01*
X1467801Y-5897650D02*
X1505896Y-5897650D01*
X1505896Y-5897650D02*
X1524943Y-5907174D01*
X1524943Y-5907174D02*
X1534467Y-5916698D01*
X1534467Y-5916698D02*
X1543991Y-5935746D01*
X1543991Y-5935746D02*
X1543991Y-5992888D01*
X1543991Y-5992888D02*
X1534467Y-6011936D01*
X1534467Y-6011936D02*
X1524943Y-6021460D01*
X1524943Y-6021460D02*
X1505896Y-6030984D01*
X1505896Y-6030984D02*
X1467801Y-6030984D01*
X1467801Y-6030984D02*
X1448753Y-6021460D01*
X1629705Y-6011936D02*
X1639229Y-6021460D01*
X1639229Y-6021460D02*
X1629705Y-6030984D01*
X1629705Y-6030984D02*
X1620182Y-6021460D01*
X1620182Y-6021460D02*
X1629705Y-6011936D01*
X1629705Y-6011936D02*
X1629705Y-6030984D01*
X1629705Y-5907174D02*
X1639229Y-5916698D01*
X1639229Y-5916698D02*
X1629705Y-5926222D01*
X1629705Y-5926222D02*
X1620182Y-5916698D01*
X1620182Y-5916698D02*
X1629705Y-5907174D01*
X1629705Y-5907174D02*
X1629705Y-5926222D01*
D12*
X-67500Y-6327000D02*
X-2500Y-6392000D01*
X-2500Y-6327000D02*
X-67500Y-6392000D01*
D11*
X296372Y-6250984D02*
X315420Y-6250984D01*
X315420Y-6250984D02*
X334467Y-6260508D01*
X334467Y-6260508D02*
X343991Y-6270031D01*
X343991Y-6270031D02*
X353515Y-6289079D01*
X353515Y-6289079D02*
X363039Y-6327174D01*
X363039Y-6327174D02*
X363039Y-6374793D01*
X363039Y-6374793D02*
X353515Y-6412888D01*
X353515Y-6412888D02*
X343991Y-6431936D01*
X343991Y-6431936D02*
X334467Y-6441460D01*
X334467Y-6441460D02*
X315420Y-6450984D01*
X315420Y-6450984D02*
X296372Y-6450984D01*
X296372Y-6450984D02*
X277324Y-6441460D01*
X277324Y-6441460D02*
X267801Y-6431936D01*
X267801Y-6431936D02*
X258277Y-6412888D01*
X258277Y-6412888D02*
X248753Y-6374793D01*
X248753Y-6374793D02*
X248753Y-6327174D01*
X248753Y-6327174D02*
X258277Y-6289079D01*
X258277Y-6289079D02*
X267801Y-6270031D01*
X267801Y-6270031D02*
X277324Y-6260508D01*
X277324Y-6260508D02*
X296372Y-6250984D01*
X448753Y-6431936D02*
X458277Y-6441460D01*
X458277Y-6441460D02*
X448753Y-6450984D01*
X448753Y-6450984D02*
X439229Y-6441460D01*
X439229Y-6441460D02*
X448753Y-6431936D01*
X448753Y-6431936D02*
X448753Y-6450984D01*
X629705Y-6250984D02*
X591610Y-6250984D01*
X591610Y-6250984D02*
X572563Y-6260508D01*
X572563Y-6260508D02*
X563039Y-6270031D01*
X563039Y-6270031D02*
X543991Y-6298603D01*
X543991Y-6298603D02*
X534467Y-6336698D01*
X534467Y-6336698D02*
X534467Y-6412888D01*
X534467Y-6412888D02*
X543991Y-6431936D01*
X543991Y-6431936D02*
X553515Y-6441460D01*
X553515Y-6441460D02*
X572563Y-6450984D01*
X572563Y-6450984D02*
X610658Y-6450984D01*
X610658Y-6450984D02*
X629705Y-6441460D01*
X629705Y-6441460D02*
X639229Y-6431936D01*
X639229Y-6431936D02*
X648753Y-6412888D01*
X648753Y-6412888D02*
X648753Y-6365269D01*
X648753Y-6365269D02*
X639229Y-6346222D01*
X639229Y-6346222D02*
X629705Y-6336698D01*
X629705Y-6336698D02*
X610658Y-6327174D01*
X610658Y-6327174D02*
X572563Y-6327174D01*
X572563Y-6327174D02*
X553515Y-6336698D01*
X553515Y-6336698D02*
X543991Y-6346222D01*
X543991Y-6346222D02*
X534467Y-6365269D01*
X829705Y-6250984D02*
X734467Y-6250984D01*
X734467Y-6250984D02*
X724943Y-6346222D01*
X724943Y-6346222D02*
X734467Y-6336698D01*
X734467Y-6336698D02*
X753515Y-6327174D01*
X753515Y-6327174D02*
X801134Y-6327174D01*
X801134Y-6327174D02*
X820182Y-6336698D01*
X820182Y-6336698D02*
X829705Y-6346222D01*
X829705Y-6346222D02*
X839229Y-6365269D01*
X839229Y-6365269D02*
X839229Y-6412888D01*
X839229Y-6412888D02*
X829705Y-6431936D01*
X829705Y-6431936D02*
X820182Y-6441460D01*
X820182Y-6441460D02*
X801134Y-6450984D01*
X801134Y-6450984D02*
X753515Y-6450984D01*
X753515Y-6450984D02*
X734467Y-6441460D01*
X734467Y-6441460D02*
X724943Y-6431936D01*
X963039Y-6250984D02*
X982086Y-6250984D01*
X982086Y-6250984D02*
X1001134Y-6260508D01*
X1001134Y-6260508D02*
X1010658Y-6270031D01*
X1010658Y-6270031D02*
X1020182Y-6289079D01*
X1020182Y-6289079D02*
X1029705Y-6327174D01*
X1029705Y-6327174D02*
X1029705Y-6374793D01*
X1029705Y-6374793D02*
X1020182Y-6412888D01*
X1020182Y-6412888D02*
X1010658Y-6431936D01*
X1010658Y-6431936D02*
X1001134Y-6441460D01*
X1001134Y-6441460D02*
X982086Y-6450984D01*
X982086Y-6450984D02*
X963039Y-6450984D01*
X963039Y-6450984D02*
X943991Y-6441460D01*
X943991Y-6441460D02*
X934467Y-6431936D01*
X934467Y-6431936D02*
X924943Y-6412888D01*
X924943Y-6412888D02*
X915420Y-6374793D01*
X915420Y-6374793D02*
X915420Y-6327174D01*
X915420Y-6327174D02*
X924943Y-6289079D01*
X924943Y-6289079D02*
X934467Y-6270031D01*
X934467Y-6270031D02*
X943991Y-6260508D01*
X943991Y-6260508D02*
X963039Y-6250984D01*
X1115420Y-6450984D02*
X1115420Y-6317650D01*
X1115420Y-6336698D02*
X1124944Y-6327174D01*
X1124944Y-6327174D02*
X1143991Y-6317650D01*
X1143991Y-6317650D02*
X1172563Y-6317650D01*
X1172563Y-6317650D02*
X1191610Y-6327174D01*
X1191610Y-6327174D02*
X1201134Y-6346222D01*
X1201134Y-6346222D02*
X1201134Y-6450984D01*
X1201134Y-6346222D02*
X1210658Y-6327174D01*
X1210658Y-6327174D02*
X1229705Y-6317650D01*
X1229705Y-6317650D02*
X1258277Y-6317650D01*
X1258277Y-6317650D02*
X1277325Y-6327174D01*
X1277325Y-6327174D02*
X1286848Y-6346222D01*
X1286848Y-6346222D02*
X1286848Y-6450984D01*
X1382086Y-6450984D02*
X1382086Y-6317650D01*
X1382086Y-6336698D02*
X1391610Y-6327174D01*
X1391610Y-6327174D02*
X1410658Y-6317650D01*
X1410658Y-6317650D02*
X1439229Y-6317650D01*
X1439229Y-6317650D02*
X1458277Y-6327174D01*
X1458277Y-6327174D02*
X1467801Y-6346222D01*
X1467801Y-6346222D02*
X1467801Y-6450984D01*
X1467801Y-6346222D02*
X1477324Y-6327174D01*
X1477324Y-6327174D02*
X1496372Y-6317650D01*
X1496372Y-6317650D02*
X1524943Y-6317650D01*
X1524943Y-6317650D02*
X1543991Y-6327174D01*
X1543991Y-6327174D02*
X1553515Y-6346222D01*
X1553515Y-6346222D02*
X1553515Y-6450984D01*
X1943991Y-6241460D02*
X1772563Y-6498603D01*
X2201134Y-6250984D02*
X2220182Y-6250984D01*
X2220182Y-6250984D02*
X2239229Y-6260508D01*
X2239229Y-6260508D02*
X2248753Y-6270031D01*
X2248753Y-6270031D02*
X2258277Y-6289079D01*
X2258277Y-6289079D02*
X2267801Y-6327174D01*
X2267801Y-6327174D02*
X2267801Y-6374793D01*
X2267801Y-6374793D02*
X2258277Y-6412888D01*
X2258277Y-6412888D02*
X2248753Y-6431936D01*
X2248753Y-6431936D02*
X2239229Y-6441460D01*
X2239229Y-6441460D02*
X2220182Y-6450984D01*
X2220182Y-6450984D02*
X2201134Y-6450984D01*
X2201134Y-6450984D02*
X2182087Y-6441460D01*
X2182087Y-6441460D02*
X2172563Y-6431936D01*
X2172563Y-6431936D02*
X2163039Y-6412888D01*
X2163039Y-6412888D02*
X2153515Y-6374793D01*
X2153515Y-6374793D02*
X2153515Y-6327174D01*
X2153515Y-6327174D02*
X2163039Y-6289079D01*
X2163039Y-6289079D02*
X2172563Y-6270031D01*
X2172563Y-6270031D02*
X2182087Y-6260508D01*
X2182087Y-6260508D02*
X2201134Y-6250984D01*
X2353515Y-6431936D02*
X2363039Y-6441460D01*
X2363039Y-6441460D02*
X2353515Y-6450984D01*
X2353515Y-6450984D02*
X2343991Y-6441460D01*
X2343991Y-6441460D02*
X2353515Y-6431936D01*
X2353515Y-6431936D02*
X2353515Y-6450984D01*
X2486848Y-6250984D02*
X2505896Y-6250984D01*
X2505896Y-6250984D02*
X2524944Y-6260508D01*
X2524944Y-6260508D02*
X2534468Y-6270031D01*
X2534468Y-6270031D02*
X2543991Y-6289079D01*
X2543991Y-6289079D02*
X2553515Y-6327174D01*
X2553515Y-6327174D02*
X2553515Y-6374793D01*
X2553515Y-6374793D02*
X2543991Y-6412888D01*
X2543991Y-6412888D02*
X2534468Y-6431936D01*
X2534468Y-6431936D02*
X2524944Y-6441460D01*
X2524944Y-6441460D02*
X2505896Y-6450984D01*
X2505896Y-6450984D02*
X2486848Y-6450984D01*
X2486848Y-6450984D02*
X2467801Y-6441460D01*
X2467801Y-6441460D02*
X2458277Y-6431936D01*
X2458277Y-6431936D02*
X2448753Y-6412888D01*
X2448753Y-6412888D02*
X2439229Y-6374793D01*
X2439229Y-6374793D02*
X2439229Y-6327174D01*
X2439229Y-6327174D02*
X2448753Y-6289079D01*
X2448753Y-6289079D02*
X2458277Y-6270031D01*
X2458277Y-6270031D02*
X2467801Y-6260508D01*
X2467801Y-6260508D02*
X2486848Y-6250984D01*
X2629706Y-6270031D02*
X2639229Y-6260508D01*
X2639229Y-6260508D02*
X2658277Y-6250984D01*
X2658277Y-6250984D02*
X2705896Y-6250984D01*
X2705896Y-6250984D02*
X2724944Y-6260508D01*
X2724944Y-6260508D02*
X2734468Y-6270031D01*
X2734468Y-6270031D02*
X2743991Y-6289079D01*
X2743991Y-6289079D02*
X2743991Y-6308127D01*
X2743991Y-6308127D02*
X2734468Y-6336698D01*
X2734468Y-6336698D02*
X2620182Y-6450984D01*
X2620182Y-6450984D02*
X2743991Y-6450984D01*
X2924944Y-6250984D02*
X2829706Y-6250984D01*
X2829706Y-6250984D02*
X2820182Y-6346222D01*
X2820182Y-6346222D02*
X2829706Y-6336698D01*
X2829706Y-6336698D02*
X2848753Y-6327174D01*
X2848753Y-6327174D02*
X2896372Y-6327174D01*
X2896372Y-6327174D02*
X2915420Y-6336698D01*
X2915420Y-6336698D02*
X2924944Y-6346222D01*
X2924944Y-6346222D02*
X2934467Y-6365269D01*
X2934467Y-6365269D02*
X2934467Y-6412888D01*
X2934467Y-6412888D02*
X2924944Y-6431936D01*
X2924944Y-6431936D02*
X2915420Y-6441460D01*
X2915420Y-6441460D02*
X2896372Y-6450984D01*
X2896372Y-6450984D02*
X2848753Y-6450984D01*
X2848753Y-6450984D02*
X2829706Y-6441460D01*
X2829706Y-6441460D02*
X2820182Y-6431936D01*
X3105896Y-6250984D02*
X3067801Y-6250984D01*
X3067801Y-6250984D02*
X3048753Y-6260508D01*
X3048753Y-6260508D02*
X3039229Y-6270031D01*
X3039229Y-6270031D02*
X3020182Y-6298603D01*
X3020182Y-6298603D02*
X3010658Y-6336698D01*
X3010658Y-6336698D02*
X3010658Y-6412888D01*
X3010658Y-6412888D02*
X3020182Y-6431936D01*
X3020182Y-6431936D02*
X3029706Y-6441460D01*
X3029706Y-6441460D02*
X3048753Y-6450984D01*
X3048753Y-6450984D02*
X3086848Y-6450984D01*
X3086848Y-6450984D02*
X3105896Y-6441460D01*
X3105896Y-6441460D02*
X3115420Y-6431936D01*
X3115420Y-6431936D02*
X3124944Y-6412888D01*
X3124944Y-6412888D02*
X3124944Y-6365269D01*
X3124944Y-6365269D02*
X3115420Y-6346222D01*
X3115420Y-6346222D02*
X3105896Y-6336698D01*
X3105896Y-6336698D02*
X3086848Y-6327174D01*
X3086848Y-6327174D02*
X3048753Y-6327174D01*
X3048753Y-6327174D02*
X3029706Y-6336698D01*
X3029706Y-6336698D02*
X3020182Y-6346222D01*
X3020182Y-6346222D02*
X3010658Y-6365269D01*
X3201134Y-6250984D02*
X3201134Y-6289079D01*
X3277325Y-6250984D02*
X3277325Y-6289079D01*
X3572563Y-6527174D02*
X3563039Y-6517650D01*
X3563039Y-6517650D02*
X3543991Y-6489079D01*
X3543991Y-6489079D02*
X3534468Y-6470031D01*
X3534468Y-6470031D02*
X3524944Y-6441460D01*
X3524944Y-6441460D02*
X3515420Y-6393841D01*
X3515420Y-6393841D02*
X3515420Y-6355746D01*
X3515420Y-6355746D02*
X3524944Y-6308127D01*
X3524944Y-6308127D02*
X3534468Y-6279555D01*
X3534468Y-6279555D02*
X3543991Y-6260508D01*
X3543991Y-6260508D02*
X3563039Y-6231936D01*
X3563039Y-6231936D02*
X3572563Y-6222412D01*
X3639229Y-6270031D02*
X3648753Y-6260508D01*
X3648753Y-6260508D02*
X3667801Y-6250984D01*
X3667801Y-6250984D02*
X3715420Y-6250984D01*
X3715420Y-6250984D02*
X3734468Y-6260508D01*
X3734468Y-6260508D02*
X3743991Y-6270031D01*
X3743991Y-6270031D02*
X3753515Y-6289079D01*
X3753515Y-6289079D02*
X3753515Y-6308127D01*
X3753515Y-6308127D02*
X3743991Y-6336698D01*
X3743991Y-6336698D02*
X3629706Y-6450984D01*
X3629706Y-6450984D02*
X3753515Y-6450984D01*
X3991610Y-6450984D02*
X3991610Y-6250984D01*
X4077325Y-6450984D02*
X4077325Y-6346222D01*
X4077325Y-6346222D02*
X4067801Y-6327174D01*
X4067801Y-6327174D02*
X4048753Y-6317650D01*
X4048753Y-6317650D02*
X4020182Y-6317650D01*
X4020182Y-6317650D02*
X4001134Y-6327174D01*
X4001134Y-6327174D02*
X3991610Y-6336698D01*
X4201134Y-6450984D02*
X4182087Y-6441460D01*
X4182087Y-6441460D02*
X4172563Y-6431936D01*
X4172563Y-6431936D02*
X4163039Y-6412888D01*
X4163039Y-6412888D02*
X4163039Y-6355746D01*
X4163039Y-6355746D02*
X4172563Y-6336698D01*
X4172563Y-6336698D02*
X4182087Y-6327174D01*
X4182087Y-6327174D02*
X4201134Y-6317650D01*
X4201134Y-6317650D02*
X4229706Y-6317650D01*
X4229706Y-6317650D02*
X4248753Y-6327174D01*
X4248753Y-6327174D02*
X4258277Y-6336698D01*
X4258277Y-6336698D02*
X4267801Y-6355746D01*
X4267801Y-6355746D02*
X4267801Y-6412888D01*
X4267801Y-6412888D02*
X4258277Y-6431936D01*
X4258277Y-6431936D02*
X4248753Y-6441460D01*
X4248753Y-6441460D02*
X4229706Y-6450984D01*
X4229706Y-6450984D02*
X4201134Y-6450984D01*
X4382087Y-6450984D02*
X4363039Y-6441460D01*
X4363039Y-6441460D02*
X4353515Y-6422412D01*
X4353515Y-6422412D02*
X4353515Y-6250984D01*
X4534468Y-6441460D02*
X4515420Y-6450984D01*
X4515420Y-6450984D02*
X4477325Y-6450984D01*
X4477325Y-6450984D02*
X4458277Y-6441460D01*
X4458277Y-6441460D02*
X4448753Y-6422412D01*
X4448753Y-6422412D02*
X4448753Y-6346222D01*
X4448753Y-6346222D02*
X4458277Y-6327174D01*
X4458277Y-6327174D02*
X4477325Y-6317650D01*
X4477325Y-6317650D02*
X4515420Y-6317650D01*
X4515420Y-6317650D02*
X4534468Y-6327174D01*
X4534468Y-6327174D02*
X4543992Y-6346222D01*
X4543992Y-6346222D02*
X4543992Y-6365269D01*
X4543992Y-6365269D02*
X4448753Y-6384317D01*
X4620182Y-6441460D02*
X4639230Y-6450984D01*
X4639230Y-6450984D02*
X4677325Y-6450984D01*
X4677325Y-6450984D02*
X4696373Y-6441460D01*
X4696373Y-6441460D02*
X4705896Y-6422412D01*
X4705896Y-6422412D02*
X4705896Y-6412888D01*
X4705896Y-6412888D02*
X4696373Y-6393841D01*
X4696373Y-6393841D02*
X4677325Y-6384317D01*
X4677325Y-6384317D02*
X4648753Y-6384317D01*
X4648753Y-6384317D02*
X4629706Y-6374793D01*
X4629706Y-6374793D02*
X4620182Y-6355746D01*
X4620182Y-6355746D02*
X4620182Y-6346222D01*
X4620182Y-6346222D02*
X4629706Y-6327174D01*
X4629706Y-6327174D02*
X4648753Y-6317650D01*
X4648753Y-6317650D02*
X4677325Y-6317650D01*
X4677325Y-6317650D02*
X4696373Y-6327174D01*
X4772563Y-6527174D02*
X4782087Y-6517650D01*
X4782087Y-6517650D02*
X4801134Y-6489079D01*
X4801134Y-6489079D02*
X4810658Y-6470031D01*
X4810658Y-6470031D02*
X4820182Y-6441460D01*
X4820182Y-6441460D02*
X4829706Y-6393841D01*
X4829706Y-6393841D02*
X4829706Y-6355746D01*
X4829706Y-6355746D02*
X4820182Y-6308127D01*
X4820182Y-6308127D02*
X4810658Y-6279555D01*
X4810658Y-6279555D02*
X4801134Y-6260508D01*
X4801134Y-6260508D02*
X4782087Y-6231936D01*
X4782087Y-6231936D02*
X4772563Y-6222412D01*
X5134468Y-6527174D02*
X5124944Y-6517650D01*
X5124944Y-6517650D02*
X5105896Y-6489079D01*
X5105896Y-6489079D02*
X5096373Y-6470031D01*
X5096373Y-6470031D02*
X5086849Y-6441460D01*
X5086849Y-6441460D02*
X5077325Y-6393841D01*
X5077325Y-6393841D02*
X5077325Y-6355746D01*
X5077325Y-6355746D02*
X5086849Y-6308127D01*
X5086849Y-6308127D02*
X5096373Y-6279555D01*
X5096373Y-6279555D02*
X5105896Y-6260508D01*
X5105896Y-6260508D02*
X5124944Y-6231936D01*
X5124944Y-6231936D02*
X5134468Y-6222412D01*
X5210658Y-6317650D02*
X5210658Y-6450984D01*
X5210658Y-6336698D02*
X5220182Y-6327174D01*
X5220182Y-6327174D02*
X5239230Y-6317650D01*
X5239230Y-6317650D02*
X5267801Y-6317650D01*
X5267801Y-6317650D02*
X5286849Y-6327174D01*
X5286849Y-6327174D02*
X5296373Y-6346222D01*
X5296373Y-6346222D02*
X5296373Y-6450984D01*
X5420182Y-6450984D02*
X5401134Y-6441460D01*
X5401134Y-6441460D02*
X5391611Y-6431936D01*
X5391611Y-6431936D02*
X5382087Y-6412888D01*
X5382087Y-6412888D02*
X5382087Y-6355746D01*
X5382087Y-6355746D02*
X5391611Y-6336698D01*
X5391611Y-6336698D02*
X5401134Y-6327174D01*
X5401134Y-6327174D02*
X5420182Y-6317650D01*
X5420182Y-6317650D02*
X5448754Y-6317650D01*
X5448754Y-6317650D02*
X5467801Y-6327174D01*
X5467801Y-6327174D02*
X5477325Y-6336698D01*
X5477325Y-6336698D02*
X5486849Y-6355746D01*
X5486849Y-6355746D02*
X5486849Y-6412888D01*
X5486849Y-6412888D02*
X5477325Y-6431936D01*
X5477325Y-6431936D02*
X5467801Y-6441460D01*
X5467801Y-6441460D02*
X5448754Y-6450984D01*
X5448754Y-6450984D02*
X5420182Y-6450984D01*
X5543992Y-6317650D02*
X5620182Y-6317650D01*
X5572563Y-6250984D02*
X5572563Y-6422412D01*
X5572563Y-6422412D02*
X5582087Y-6441460D01*
X5582087Y-6441460D02*
X5601134Y-6450984D01*
X5601134Y-6450984D02*
X5620182Y-6450984D01*
X5839230Y-6317650D02*
X5839230Y-6517650D01*
X5839230Y-6327174D02*
X5858277Y-6317650D01*
X5858277Y-6317650D02*
X5896373Y-6317650D01*
X5896373Y-6317650D02*
X5915420Y-6327174D01*
X5915420Y-6327174D02*
X5924944Y-6336698D01*
X5924944Y-6336698D02*
X5934468Y-6355746D01*
X5934468Y-6355746D02*
X5934468Y-6412888D01*
X5934468Y-6412888D02*
X5924944Y-6431936D01*
X5924944Y-6431936D02*
X5915420Y-6441460D01*
X5915420Y-6441460D02*
X5896373Y-6450984D01*
X5896373Y-6450984D02*
X5858277Y-6450984D01*
X5858277Y-6450984D02*
X5839230Y-6441460D01*
X6048753Y-6450984D02*
X6029706Y-6441460D01*
X6029706Y-6441460D02*
X6020182Y-6422412D01*
X6020182Y-6422412D02*
X6020182Y-6250984D01*
X6210658Y-6450984D02*
X6210658Y-6346222D01*
X6210658Y-6346222D02*
X6201134Y-6327174D01*
X6201134Y-6327174D02*
X6182087Y-6317650D01*
X6182087Y-6317650D02*
X6143992Y-6317650D01*
X6143992Y-6317650D02*
X6124944Y-6327174D01*
X6210658Y-6441460D02*
X6191611Y-6450984D01*
X6191611Y-6450984D02*
X6143992Y-6450984D01*
X6143992Y-6450984D02*
X6124944Y-6441460D01*
X6124944Y-6441460D02*
X6115420Y-6422412D01*
X6115420Y-6422412D02*
X6115420Y-6403365D01*
X6115420Y-6403365D02*
X6124944Y-6384317D01*
X6124944Y-6384317D02*
X6143992Y-6374793D01*
X6143992Y-6374793D02*
X6191611Y-6374793D01*
X6191611Y-6374793D02*
X6210658Y-6365269D01*
X6277325Y-6317650D02*
X6353515Y-6317650D01*
X6305896Y-6250984D02*
X6305896Y-6422412D01*
X6305896Y-6422412D02*
X6315420Y-6441460D01*
X6315420Y-6441460D02*
X6334468Y-6450984D01*
X6334468Y-6450984D02*
X6353515Y-6450984D01*
X6496373Y-6441460D02*
X6477325Y-6450984D01*
X6477325Y-6450984D02*
X6439230Y-6450984D01*
X6439230Y-6450984D02*
X6420182Y-6441460D01*
X6420182Y-6441460D02*
X6410658Y-6422412D01*
X6410658Y-6422412D02*
X6410658Y-6346222D01*
X6410658Y-6346222D02*
X6420182Y-6327174D01*
X6420182Y-6327174D02*
X6439230Y-6317650D01*
X6439230Y-6317650D02*
X6477325Y-6317650D01*
X6477325Y-6317650D02*
X6496373Y-6327174D01*
X6496373Y-6327174D02*
X6505896Y-6346222D01*
X6505896Y-6346222D02*
X6505896Y-6365269D01*
X6505896Y-6365269D02*
X6410658Y-6384317D01*
X6677325Y-6450984D02*
X6677325Y-6250984D01*
X6677325Y-6441460D02*
X6658277Y-6450984D01*
X6658277Y-6450984D02*
X6620182Y-6450984D01*
X6620182Y-6450984D02*
X6601134Y-6441460D01*
X6601134Y-6441460D02*
X6591611Y-6431936D01*
X6591611Y-6431936D02*
X6582087Y-6412888D01*
X6582087Y-6412888D02*
X6582087Y-6355746D01*
X6582087Y-6355746D02*
X6591611Y-6336698D01*
X6591611Y-6336698D02*
X6601134Y-6327174D01*
X6601134Y-6327174D02*
X6620182Y-6317650D01*
X6620182Y-6317650D02*
X6658277Y-6317650D01*
X6658277Y-6317650D02*
X6677325Y-6327174D01*
X6753515Y-6527174D02*
X6763039Y-6517650D01*
X6763039Y-6517650D02*
X6782087Y-6489079D01*
X6782087Y-6489079D02*
X6791611Y-6470031D01*
X6791611Y-6470031D02*
X6801134Y-6441460D01*
X6801134Y-6441460D02*
X6810658Y-6393841D01*
X6810658Y-6393841D02*
X6810658Y-6355746D01*
X6810658Y-6355746D02*
X6801134Y-6308127D01*
X6801134Y-6308127D02*
X6791611Y-6279555D01*
X6791611Y-6279555D02*
X6782087Y-6260508D01*
X6782087Y-6260508D02*
X6763039Y-6231936D01*
X6763039Y-6231936D02*
X6753515Y-6222412D01*
M02*
