%TF.GenerationSoftware,KiCad,Pcbnew,9.0.9-9.0.9~ubuntu24.04.1*%
%TF.CreationDate,2026-10-01T00:07:43+00:00*%
%TF.ProjectId,PinaBio-v2.0-Cursor,50696e61-4269-46f2-9d76-322e302d4375,SPEC-0.8*%
%TF.SameCoordinates,Original*%
%TF.FileFunction,Legend,Top*%
%TF.FilePolarity,Positive*%
%FSLAX46Y46*%
G04 Gerber Fmt 4.6, Leading zero omitted, Abs format (unit mm)*
G04 Created by KiCad (PCBNEW 9.0.9-9.0.9~ubuntu24.04.1) date 2026-10-01 00:07:43*
%MOMM*%
%LPD*%
G01*
G04 APERTURE LIST*
%ADD10C,0.150000*%
%ADD11C,0.120000*%
G04 APERTURE END LIST*
D10*
X1149999Y-55808557D02*
X1149999Y-54908557D01*
X1149999Y-54908557D02*
X1492856Y-54908557D01*
X1492856Y-54908557D02*
X1578571Y-54951414D01*
X1578571Y-54951414D02*
X1621428Y-54994271D01*
X1621428Y-54994271D02*
X1664285Y-55079985D01*
X1664285Y-55079985D02*
X1664285Y-55208557D01*
X1664285Y-55208557D02*
X1621428Y-55294271D01*
X1621428Y-55294271D02*
X1578571Y-55337128D01*
X1578571Y-55337128D02*
X1492856Y-55379985D01*
X1492856Y-55379985D02*
X1149999Y-55379985D01*
X2049999Y-55808557D02*
X2049999Y-55208557D01*
X2049999Y-54908557D02*
X2007142Y-54951414D01*
X2007142Y-54951414D02*
X2049999Y-54994271D01*
X2049999Y-54994271D02*
X2092856Y-54951414D01*
X2092856Y-54951414D02*
X2049999Y-54908557D01*
X2049999Y-54908557D02*
X2049999Y-54994271D01*
X2478570Y-55208557D02*
X2478570Y-55808557D01*
X2478570Y-55294271D02*
X2521427Y-55251414D01*
X2521427Y-55251414D02*
X2607142Y-55208557D01*
X2607142Y-55208557D02*
X2735713Y-55208557D01*
X2735713Y-55208557D02*
X2821427Y-55251414D01*
X2821427Y-55251414D02*
X2864285Y-55337128D01*
X2864285Y-55337128D02*
X2864285Y-55808557D01*
X3678571Y-55808557D02*
X3678571Y-55337128D01*
X3678571Y-55337128D02*
X3635713Y-55251414D01*
X3635713Y-55251414D02*
X3549999Y-55208557D01*
X3549999Y-55208557D02*
X3378571Y-55208557D01*
X3378571Y-55208557D02*
X3292856Y-55251414D01*
X3678571Y-55765700D02*
X3592856Y-55808557D01*
X3592856Y-55808557D02*
X3378571Y-55808557D01*
X3378571Y-55808557D02*
X3292856Y-55765700D01*
X3292856Y-55765700D02*
X3249999Y-55679985D01*
X3249999Y-55679985D02*
X3249999Y-55594271D01*
X3249999Y-55594271D02*
X3292856Y-55508557D01*
X3292856Y-55508557D02*
X3378571Y-55465700D01*
X3378571Y-55465700D02*
X3592856Y-55465700D01*
X3592856Y-55465700D02*
X3678571Y-55422842D01*
X4407142Y-55337128D02*
X4535714Y-55379985D01*
X4535714Y-55379985D02*
X4578571Y-55422842D01*
X4578571Y-55422842D02*
X4621428Y-55508557D01*
X4621428Y-55508557D02*
X4621428Y-55637128D01*
X4621428Y-55637128D02*
X4578571Y-55722842D01*
X4578571Y-55722842D02*
X4535714Y-55765700D01*
X4535714Y-55765700D02*
X4449999Y-55808557D01*
X4449999Y-55808557D02*
X4107142Y-55808557D01*
X4107142Y-55808557D02*
X4107142Y-54908557D01*
X4107142Y-54908557D02*
X4407142Y-54908557D01*
X4407142Y-54908557D02*
X4492857Y-54951414D01*
X4492857Y-54951414D02*
X4535714Y-54994271D01*
X4535714Y-54994271D02*
X4578571Y-55079985D01*
X4578571Y-55079985D02*
X4578571Y-55165700D01*
X4578571Y-55165700D02*
X4535714Y-55251414D01*
X4535714Y-55251414D02*
X4492857Y-55294271D01*
X4492857Y-55294271D02*
X4407142Y-55337128D01*
X4407142Y-55337128D02*
X4107142Y-55337128D01*
X5007142Y-55808557D02*
X5007142Y-55208557D01*
X5007142Y-54908557D02*
X4964285Y-54951414D01*
X4964285Y-54951414D02*
X5007142Y-54994271D01*
X5007142Y-54994271D02*
X5049999Y-54951414D01*
X5049999Y-54951414D02*
X5007142Y-54908557D01*
X5007142Y-54908557D02*
X5007142Y-54994271D01*
X5564285Y-55808557D02*
X5478570Y-55765700D01*
X5478570Y-55765700D02*
X5435713Y-55722842D01*
X5435713Y-55722842D02*
X5392856Y-55637128D01*
X5392856Y-55637128D02*
X5392856Y-55379985D01*
X5392856Y-55379985D02*
X5435713Y-55294271D01*
X5435713Y-55294271D02*
X5478570Y-55251414D01*
X5478570Y-55251414D02*
X5564285Y-55208557D01*
X5564285Y-55208557D02*
X5692856Y-55208557D01*
X5692856Y-55208557D02*
X5778570Y-55251414D01*
X5778570Y-55251414D02*
X5821428Y-55294271D01*
X5821428Y-55294271D02*
X5864285Y-55379985D01*
X5864285Y-55379985D02*
X5864285Y-55637128D01*
X5864285Y-55637128D02*
X5821428Y-55722842D01*
X5821428Y-55722842D02*
X5778570Y-55765700D01*
X5778570Y-55765700D02*
X5692856Y-55808557D01*
X5692856Y-55808557D02*
X5564285Y-55808557D01*
X6849999Y-55208557D02*
X7064285Y-55808557D01*
X7064285Y-55808557D02*
X7278570Y-55208557D01*
X7621427Y-55722842D02*
X7664284Y-55765700D01*
X7664284Y-55765700D02*
X7621427Y-55808557D01*
X7621427Y-55808557D02*
X7578570Y-55765700D01*
X7578570Y-55765700D02*
X7621427Y-55722842D01*
X7621427Y-55722842D02*
X7621427Y-55808557D01*
X8007141Y-54994271D02*
X8049998Y-54951414D01*
X8049998Y-54951414D02*
X8135713Y-54908557D01*
X8135713Y-54908557D02*
X8349998Y-54908557D01*
X8349998Y-54908557D02*
X8435713Y-54951414D01*
X8435713Y-54951414D02*
X8478570Y-54994271D01*
X8478570Y-54994271D02*
X8521427Y-55079985D01*
X8521427Y-55079985D02*
X8521427Y-55165700D01*
X8521427Y-55165700D02*
X8478570Y-55294271D01*
X8478570Y-55294271D02*
X7964284Y-55808557D01*
X7964284Y-55808557D02*
X8521427Y-55808557D01*
X8907141Y-55722842D02*
X8949998Y-55765700D01*
X8949998Y-55765700D02*
X8907141Y-55808557D01*
X8907141Y-55808557D02*
X8864284Y-55765700D01*
X8864284Y-55765700D02*
X8907141Y-55722842D01*
X8907141Y-55722842D02*
X8907141Y-55808557D01*
X9507141Y-54908557D02*
X9592855Y-54908557D01*
X9592855Y-54908557D02*
X9678569Y-54951414D01*
X9678569Y-54951414D02*
X9721427Y-54994271D01*
X9721427Y-54994271D02*
X9764284Y-55079985D01*
X9764284Y-55079985D02*
X9807141Y-55251414D01*
X9807141Y-55251414D02*
X9807141Y-55465700D01*
X9807141Y-55465700D02*
X9764284Y-55637128D01*
X9764284Y-55637128D02*
X9721427Y-55722842D01*
X9721427Y-55722842D02*
X9678569Y-55765700D01*
X9678569Y-55765700D02*
X9592855Y-55808557D01*
X9592855Y-55808557D02*
X9507141Y-55808557D01*
X9507141Y-55808557D02*
X9421427Y-55765700D01*
X9421427Y-55765700D02*
X9378569Y-55722842D01*
X9378569Y-55722842D02*
X9335712Y-55637128D01*
X9335712Y-55637128D02*
X9292855Y-55465700D01*
X9292855Y-55465700D02*
X9292855Y-55251414D01*
X9292855Y-55251414D02*
X9335712Y-55079985D01*
X9335712Y-55079985D02*
X9378569Y-54994271D01*
X9378569Y-54994271D02*
X9421427Y-54951414D01*
X9421427Y-54951414D02*
X9507141Y-54908557D01*
X10192855Y-55722842D02*
X10235712Y-55765700D01*
X10235712Y-55765700D02*
X10192855Y-55808557D01*
X10192855Y-55808557D02*
X10149998Y-55765700D01*
X10149998Y-55765700D02*
X10192855Y-55722842D01*
X10192855Y-55722842D02*
X10192855Y-55808557D01*
X11821426Y-55722842D02*
X11778569Y-55765700D01*
X11778569Y-55765700D02*
X11649997Y-55808557D01*
X11649997Y-55808557D02*
X11564283Y-55808557D01*
X11564283Y-55808557D02*
X11435712Y-55765700D01*
X11435712Y-55765700D02*
X11349997Y-55679985D01*
X11349997Y-55679985D02*
X11307140Y-55594271D01*
X11307140Y-55594271D02*
X11264283Y-55422842D01*
X11264283Y-55422842D02*
X11264283Y-55294271D01*
X11264283Y-55294271D02*
X11307140Y-55122842D01*
X11307140Y-55122842D02*
X11349997Y-55037128D01*
X11349997Y-55037128D02*
X11435712Y-54951414D01*
X11435712Y-54951414D02*
X11564283Y-54908557D01*
X11564283Y-54908557D02*
X11649997Y-54908557D01*
X11649997Y-54908557D02*
X11778569Y-54951414D01*
X11778569Y-54951414D02*
X11821426Y-54994271D01*
X12592855Y-55208557D02*
X12592855Y-55808557D01*
X12207140Y-55208557D02*
X12207140Y-55679985D01*
X12207140Y-55679985D02*
X12249997Y-55765700D01*
X12249997Y-55765700D02*
X12335712Y-55808557D01*
X12335712Y-55808557D02*
X12464283Y-55808557D01*
X12464283Y-55808557D02*
X12549997Y-55765700D01*
X12549997Y-55765700D02*
X12592855Y-55722842D01*
X13021426Y-55808557D02*
X13021426Y-55208557D01*
X13021426Y-55379985D02*
X13064283Y-55294271D01*
X13064283Y-55294271D02*
X13107141Y-55251414D01*
X13107141Y-55251414D02*
X13192855Y-55208557D01*
X13192855Y-55208557D02*
X13278569Y-55208557D01*
X13535712Y-55765700D02*
X13621426Y-55808557D01*
X13621426Y-55808557D02*
X13792855Y-55808557D01*
X13792855Y-55808557D02*
X13878569Y-55765700D01*
X13878569Y-55765700D02*
X13921426Y-55679985D01*
X13921426Y-55679985D02*
X13921426Y-55637128D01*
X13921426Y-55637128D02*
X13878569Y-55551414D01*
X13878569Y-55551414D02*
X13792855Y-55508557D01*
X13792855Y-55508557D02*
X13664284Y-55508557D01*
X13664284Y-55508557D02*
X13578569Y-55465700D01*
X13578569Y-55465700D02*
X13535712Y-55379985D01*
X13535712Y-55379985D02*
X13535712Y-55337128D01*
X13535712Y-55337128D02*
X13578569Y-55251414D01*
X13578569Y-55251414D02*
X13664284Y-55208557D01*
X13664284Y-55208557D02*
X13792855Y-55208557D01*
X13792855Y-55208557D02*
X13878569Y-55251414D01*
X14435712Y-55808557D02*
X14349997Y-55765700D01*
X14349997Y-55765700D02*
X14307140Y-55722842D01*
X14307140Y-55722842D02*
X14264283Y-55637128D01*
X14264283Y-55637128D02*
X14264283Y-55379985D01*
X14264283Y-55379985D02*
X14307140Y-55294271D01*
X14307140Y-55294271D02*
X14349997Y-55251414D01*
X14349997Y-55251414D02*
X14435712Y-55208557D01*
X14435712Y-55208557D02*
X14564283Y-55208557D01*
X14564283Y-55208557D02*
X14649997Y-55251414D01*
X14649997Y-55251414D02*
X14692855Y-55294271D01*
X14692855Y-55294271D02*
X14735712Y-55379985D01*
X14735712Y-55379985D02*
X14735712Y-55637128D01*
X14735712Y-55637128D02*
X14692855Y-55722842D01*
X14692855Y-55722842D02*
X14649997Y-55765700D01*
X14649997Y-55765700D02*
X14564283Y-55808557D01*
X14564283Y-55808557D02*
X14435712Y-55808557D01*
X15121426Y-55808557D02*
X15121426Y-55208557D01*
X15121426Y-55379985D02*
X15164283Y-55294271D01*
X15164283Y-55294271D02*
X15207141Y-55251414D01*
X15207141Y-55251414D02*
X15292855Y-55208557D01*
X15292855Y-55208557D02*
X15378569Y-55208557D01*
D11*
%TO.C,R12*%
X11272500Y-10112258D02*
X11272500Y-9637742D01*
X12317500Y-10112258D02*
X12317500Y-9637742D01*
%TO.C,U8*%
X66835000Y-13840000D02*
X70955000Y-13840000D01*
X66835000Y-13905000D02*
X66835000Y-13840000D01*
X66835000Y-22710000D02*
X66835000Y-22645000D01*
X70955000Y-13840000D02*
X70955000Y-13905000D01*
X70955000Y-22645000D02*
X70955000Y-22710000D01*
X70955000Y-22710000D02*
X66835000Y-22710000D01*
X66295000Y-13905000D02*
X66055000Y-13575000D01*
X66535000Y-13575000D01*
X66295000Y-13905000D01*
G36*
X66295000Y-13905000D02*
G01*
X66055000Y-13575000D01*
X66535000Y-13575000D01*
X66295000Y-13905000D01*
G37*
%TO.C,J2*%
X1335000Y-1765000D02*
X1335000Y-3015000D01*
X1635000Y-3375000D02*
X2245000Y-3375000D01*
X1635000Y-4675000D02*
X2245000Y-4675000D01*
X2245000Y-2675000D02*
X2245000Y-6175000D01*
X2245000Y-6175000D02*
X9145000Y-6175000D01*
X2585000Y-1765000D02*
X1335000Y-1765000D01*
X3095000Y-1865000D02*
X3095000Y-2065000D01*
X3395000Y-1865000D02*
X3095000Y-1865000D01*
X3395000Y-1965000D02*
X3095000Y-1965000D01*
X3395000Y-2065000D02*
X3395000Y-1865000D01*
X4195000Y-2065000D02*
X4195000Y-2675000D01*
X4195000Y-2675000D02*
X2245000Y-2675000D01*
X4595000Y-5675000D02*
X4795000Y-5675000D01*
X4595000Y-6175000D02*
X4595000Y-5675000D01*
X4695000Y-6175000D02*
X4695000Y-5675000D01*
X4795000Y-5675000D02*
X4795000Y-6175000D01*
X6595000Y-5675000D02*
X6795000Y-5675000D01*
X6595000Y-6175000D02*
X6595000Y-5675000D01*
X6695000Y-6175000D02*
X6695000Y-5675000D01*
X6795000Y-5675000D02*
X6795000Y-6175000D01*
X7195000Y-2675000D02*
X7195000Y-2065000D01*
X9145000Y-2675000D02*
X7195000Y-2675000D01*
X9145000Y-6175000D02*
X9145000Y-2675000D01*
X9755000Y-3375000D02*
X9145000Y-3375000D01*
X9755000Y-4675000D02*
X9145000Y-4675000D01*
X1635000Y-2065000D02*
X9755000Y-2065000D01*
X9755000Y-6785000D01*
X1635000Y-6785000D01*
X1635000Y-2065000D01*
%TO.C,R14*%
X21795500Y-25784058D02*
X21795500Y-25309542D01*
X22840500Y-25784058D02*
X22840500Y-25309542D01*
%TO.C,U3*%
X17575000Y-22125000D02*
X17675000Y-21925000D01*
X17675000Y-22325000D02*
X17575000Y-22125000D01*
%TO.C,C4*%
X14805100Y-19085552D02*
X14805100Y-18563048D01*
X16275100Y-19085552D02*
X16275100Y-18563048D01*
%TO.C,SW2*%
X25495000Y-10425000D02*
X25795000Y-10425000D01*
X25495000Y-13725000D02*
X25495000Y-10425000D01*
X25795000Y-13725000D02*
X25495000Y-13725000D01*
X27995000Y-13725000D02*
X28295000Y-13725000D01*
X28295000Y-10425000D02*
X27995000Y-10425000D01*
X28295000Y-13725000D02*
X28295000Y-10425000D01*
%TO.C,C3*%
X20113300Y-9334452D02*
X20113300Y-8811948D01*
X21583300Y-9334452D02*
X21583300Y-8811948D01*
%TO.C,J6*%
X1235000Y-32375000D02*
X1845000Y-32375000D01*
X1235000Y-33675000D02*
X1845000Y-33675000D01*
X1845000Y-30875000D02*
X1845000Y-34375000D01*
X1845000Y-34375000D02*
X3795000Y-34375000D01*
X3795000Y-34375000D02*
X3795000Y-34985000D01*
X4195000Y-31375000D02*
X4195000Y-30875000D01*
X4295000Y-30875000D02*
X4295000Y-31375000D01*
X4395000Y-30875000D02*
X4395000Y-31375000D01*
X4395000Y-31375000D02*
X4195000Y-31375000D01*
X4795000Y-34375000D02*
X6745000Y-34375000D01*
X4795000Y-34985000D02*
X4795000Y-34375000D01*
X5595000Y-34985000D02*
X5595000Y-35185000D01*
X5595000Y-35085000D02*
X5895000Y-35085000D01*
X5595000Y-35185000D02*
X5895000Y-35185000D01*
X5895000Y-35185000D02*
X5895000Y-34985000D01*
X6405000Y-35285000D02*
X7655000Y-35285000D01*
X6745000Y-30875000D02*
X1845000Y-30875000D01*
X6745000Y-34375000D02*
X6745000Y-30875000D01*
X7355000Y-32375000D02*
X6745000Y-32375000D01*
X7355000Y-33675000D02*
X6745000Y-33675000D01*
X7655000Y-35285000D02*
X7655000Y-34035000D01*
X7355000Y-34985000D02*
X1235000Y-34985000D01*
X1235000Y-30265000D01*
X7355000Y-30265000D01*
X7355000Y-34985000D01*
%TO.C,C15*%
X47228820Y-9541700D02*
X47509980Y-9541700D01*
X47228820Y-10561700D02*
X47509980Y-10561700D01*
%TO.C,R15*%
X63092342Y-10034300D02*
X63566858Y-10034300D01*
X63092342Y-11079300D02*
X63566858Y-11079300D01*
%TO.C,R3*%
X33059542Y-24924100D02*
X33534058Y-24924100D01*
X33059542Y-25969100D02*
X33534058Y-25969100D01*
%TO.C,R10*%
X10476442Y-12253600D02*
X10950958Y-12253600D01*
X10476442Y-13298600D02*
X10950958Y-13298600D01*
%TO.C,R23*%
X26657742Y-20052500D02*
X27132258Y-20052500D01*
X26657742Y-21097500D02*
X27132258Y-21097500D01*
%TO.C,R16*%
X23704700Y-23733658D02*
X23704700Y-23259142D01*
X24749700Y-23733658D02*
X24749700Y-23259142D01*
%TO.C,R29*%
X56061342Y-17807900D02*
X56535858Y-17807900D01*
X56061342Y-18852900D02*
X56535858Y-18852900D01*
%TO.C,C18*%
X60683800Y-14883080D02*
X60683800Y-14601920D01*
X61703800Y-14883080D02*
X61703800Y-14601920D01*
%TO.C,C19*%
X61549520Y-17469400D02*
X61830680Y-17469400D01*
X61549520Y-18489400D02*
X61830680Y-18489400D01*
%TO.C,R20*%
X22565800Y-32857558D02*
X22565800Y-32383042D01*
X23610800Y-32857558D02*
X23610800Y-32383042D01*
%TO.C,R34*%
X58820242Y-9727500D02*
X59294758Y-9727500D01*
X58820242Y-10772500D02*
X59294758Y-10772500D01*
%TO.C,C9*%
X8303800Y-28537252D02*
X8303800Y-28014748D01*
X9773800Y-28537252D02*
X9773800Y-28014748D01*
%TO.C,C10*%
X14805100Y-27186952D02*
X14805100Y-26664448D01*
X16275100Y-27186952D02*
X16275100Y-26664448D01*
%TO.C,R2*%
X40531200Y-28324558D02*
X40531200Y-27850042D01*
X41576200Y-28324558D02*
X41576200Y-27850042D01*
%TO.C,J7*%
X1235000Y-39075000D02*
X1845000Y-39075000D01*
X1235000Y-40375000D02*
X1845000Y-40375000D01*
X1845000Y-37575000D02*
X1845000Y-41075000D01*
X1845000Y-41075000D02*
X3795000Y-41075000D01*
X3795000Y-41075000D02*
X3795000Y-41685000D01*
X4195000Y-38075000D02*
X4195000Y-37575000D01*
X4295000Y-37575000D02*
X4295000Y-38075000D01*
X4395000Y-37575000D02*
X4395000Y-38075000D01*
X4395000Y-38075000D02*
X4195000Y-38075000D01*
X4795000Y-41075000D02*
X6745000Y-41075000D01*
X4795000Y-41685000D02*
X4795000Y-41075000D01*
X5595000Y-41685000D02*
X5595000Y-41885000D01*
X5595000Y-41785000D02*
X5895000Y-41785000D01*
X5595000Y-41885000D02*
X5895000Y-41885000D01*
X5895000Y-41885000D02*
X5895000Y-41685000D01*
X6405000Y-41985000D02*
X7655000Y-41985000D01*
X6745000Y-37575000D02*
X1845000Y-37575000D01*
X6745000Y-41075000D02*
X6745000Y-37575000D01*
X7355000Y-39075000D02*
X6745000Y-39075000D01*
X7355000Y-40375000D02*
X6745000Y-40375000D01*
X7655000Y-41985000D02*
X7655000Y-40735000D01*
X7355000Y-41685000D02*
X1235000Y-41685000D01*
X1235000Y-36965000D01*
X7355000Y-36965000D01*
X7355000Y-41685000D01*
%TO.C,R28*%
X62516600Y-15507458D02*
X62516600Y-15032942D01*
X63561600Y-15507458D02*
X63561600Y-15032942D01*
%TO.C,R22*%
X49917500Y-11353758D02*
X49917500Y-10879242D01*
X50962500Y-11353758D02*
X50962500Y-10879242D01*
%TO.C,R8*%
X20563100Y-22060958D02*
X20563100Y-21586442D01*
X21608100Y-22060958D02*
X21608100Y-21586442D01*
%TO.C,R19*%
X29779200Y-36166958D02*
X29779200Y-35692442D01*
X30824200Y-36166958D02*
X30824200Y-35692442D01*
%TO.C,C11*%
X18717600Y-23695180D02*
X18717600Y-23414020D01*
X19737600Y-23695180D02*
X19737600Y-23414020D01*
%TO.C,D1*%
X22135000Y-15115000D02*
X23655000Y-15115000D01*
X22135000Y-15165000D02*
X22135000Y-15115000D01*
X22135000Y-17065000D02*
X22135000Y-16285000D01*
X22135000Y-18235000D02*
X22135000Y-18185000D01*
X23655000Y-15115000D02*
X23655000Y-16115000D01*
X23655000Y-17235000D02*
X23655000Y-18235000D01*
X23655000Y-18235000D02*
X22135000Y-18235000D01*
X21835000Y-16625000D02*
X21355000Y-16625000D01*
X21595000Y-16295000D01*
X21835000Y-16625000D01*
G36*
X21835000Y-16625000D02*
G01*
X21355000Y-16625000D01*
X21595000Y-16295000D01*
X21835000Y-16625000D01*
G37*
%TO.C,C20*%
X60683800Y-22983080D02*
X60683800Y-22701920D01*
X61703800Y-22983080D02*
X61703800Y-22701920D01*
%TO.C,J3*%
X75995000Y-42425000D02*
X75995000Y-55325000D01*
X75995000Y-44775000D02*
X76495000Y-44775000D01*
X75995000Y-44875000D02*
X76495000Y-44875000D01*
X75995000Y-46775000D02*
X76495000Y-46775000D01*
X75995000Y-46875000D02*
X76495000Y-46875000D01*
X75995000Y-48775000D02*
X76495000Y-48775000D01*
X75995000Y-48875000D02*
X76495000Y-48875000D01*
X75995000Y-50775000D02*
X76495000Y-50775000D01*
X75995000Y-50875000D02*
X76495000Y-50875000D01*
X75995000Y-52775000D02*
X76495000Y-52775000D01*
X75995000Y-52875000D02*
X76495000Y-52875000D01*
X75995000Y-55325000D02*
X79495000Y-55325000D01*
X76495000Y-44775000D02*
X76495000Y-44975000D01*
X76495000Y-44975000D02*
X75995000Y-44975000D01*
X76495000Y-46775000D02*
X76495000Y-46975000D01*
X76495000Y-46975000D02*
X75995000Y-46975000D01*
X76495000Y-48775000D02*
X76495000Y-48975000D01*
X76495000Y-48975000D02*
X75995000Y-48975000D01*
X76495000Y-50775000D02*
X76495000Y-50975000D01*
X76495000Y-50975000D02*
X75995000Y-50975000D01*
X76495000Y-52775000D02*
X76495000Y-52975000D01*
X76495000Y-52975000D02*
X75995000Y-52975000D01*
X77495000Y-41815000D02*
X77495000Y-42425000D01*
X77495000Y-55935000D02*
X77495000Y-55325000D01*
X78795000Y-41815000D02*
X78795000Y-42425000D01*
X78795000Y-55935000D02*
X78795000Y-55325000D01*
X79495000Y-42425000D02*
X75995000Y-42425000D01*
X79495000Y-44375000D02*
X79495000Y-42425000D01*
X79495000Y-53375000D02*
X80105000Y-53375000D01*
X79495000Y-55325000D02*
X79495000Y-53375000D01*
X80105000Y-43575000D02*
X80305000Y-43575000D01*
X80105000Y-44375000D02*
X79495000Y-44375000D01*
X80205000Y-43575000D02*
X80205000Y-43275000D01*
X80305000Y-43275000D02*
X80105000Y-43275000D01*
X80305000Y-43575000D02*
X80305000Y-43275000D01*
X80405000Y-41515000D02*
X79155000Y-41515000D01*
X80405000Y-42765000D02*
X80405000Y-41515000D01*
X80105000Y-41815000D02*
X75385000Y-41815000D01*
X75385000Y-55935000D01*
X80105000Y-55935000D01*
X80105000Y-41815000D01*
%TO.C,C13*%
X59867720Y-29264900D02*
X60148880Y-29264900D01*
X59867720Y-30284900D02*
X60148880Y-30284900D01*
%TO.C,R5*%
X23310000Y-20412258D02*
X23310000Y-19937742D01*
X24355000Y-20412258D02*
X24355000Y-19937742D01*
%TO.C,C1*%
X18728700Y-13760080D02*
X18728700Y-13478920D01*
X19748700Y-13760080D02*
X19748700Y-13478920D01*
%TO.C,U6*%
X53885000Y-11440000D02*
X58505000Y-11440000D01*
X58505000Y-16910000D02*
X53885000Y-16910000D01*
X52335000Y-11895000D02*
X52005000Y-12135000D01*
X52005000Y-11655000D01*
X52335000Y-11895000D01*
G36*
X52335000Y-11895000D02*
G01*
X52005000Y-12135000D01*
X52005000Y-11655000D01*
X52335000Y-11895000D01*
G37*
%TO.C,U7*%
X53885000Y-19540000D02*
X58505000Y-19540000D01*
X58505000Y-25010000D02*
X53885000Y-25010000D01*
X52335000Y-19995000D02*
X52005000Y-20235000D01*
X52005000Y-19755000D01*
X52335000Y-19995000D01*
G36*
X52335000Y-19995000D02*
G01*
X52005000Y-20235000D01*
X52005000Y-19755000D01*
X52335000Y-19995000D01*
G37*
%TO.C,Q2*%
X25935000Y-30715000D02*
X27455000Y-30715000D01*
X25935000Y-31715000D02*
X25935000Y-30715000D01*
X25935000Y-33835000D02*
X25935000Y-32835000D01*
X27455000Y-30715000D02*
X27455000Y-30765000D01*
X27455000Y-31885000D02*
X27455000Y-32665000D01*
X27455000Y-33785000D02*
X27455000Y-33835000D01*
X27455000Y-33835000D02*
X25935000Y-33835000D01*
X27995000Y-32655000D02*
X27755000Y-32325000D01*
X28235000Y-32325000D01*
X27995000Y-32655000D01*
G36*
X27995000Y-32655000D02*
G01*
X27755000Y-32325000D01*
X28235000Y-32325000D01*
X27995000Y-32655000D01*
G37*
%TO.C,R31*%
X73497900Y-22940658D02*
X73497900Y-22466142D01*
X74542900Y-22940658D02*
X74542900Y-22466142D01*
%TO.C,J1*%
X32995000Y-33495000D02*
X32995000Y-35275000D01*
X34895000Y-30575000D02*
X34095000Y-30575000D01*
X42395000Y-33495000D02*
X42395000Y-35275000D01*
%TO.C,C12*%
X54292320Y-26808800D02*
X54573480Y-26808800D01*
X54292320Y-27828800D02*
X54573480Y-27828800D01*
%TO.C,R6*%
X22738542Y-5853500D02*
X23213058Y-5853500D01*
X22738542Y-6898500D02*
X23213058Y-6898500D01*
%TO.C,R4*%
X9722542Y-14786300D02*
X10197058Y-14786300D01*
X9722542Y-15831300D02*
X10197058Y-15831300D01*
%TO.C,C8*%
X11773348Y-25957800D02*
X12295852Y-25957800D01*
X11773348Y-27427800D02*
X12295852Y-27427800D01*
%TO.C,R18*%
X22827500Y-9483758D02*
X22827500Y-9009242D01*
X23872500Y-9483758D02*
X23872500Y-9009242D01*
%TO.C,J8*%
X1235000Y-45775000D02*
X1845000Y-45775000D01*
X1235000Y-47075000D02*
X1845000Y-47075000D01*
X1845000Y-44275000D02*
X1845000Y-47775000D01*
X1845000Y-47775000D02*
X3795000Y-47775000D01*
X3795000Y-47775000D02*
X3795000Y-48385000D01*
X4195000Y-44775000D02*
X4195000Y-44275000D01*
X4295000Y-44275000D02*
X4295000Y-44775000D01*
X4395000Y-44275000D02*
X4395000Y-44775000D01*
X4395000Y-44775000D02*
X4195000Y-44775000D01*
X4795000Y-47775000D02*
X6745000Y-47775000D01*
X4795000Y-48385000D02*
X4795000Y-47775000D01*
X5595000Y-48385000D02*
X5595000Y-48585000D01*
X5595000Y-48485000D02*
X5895000Y-48485000D01*
X5595000Y-48585000D02*
X5895000Y-48585000D01*
X5895000Y-48585000D02*
X5895000Y-48385000D01*
X6405000Y-48685000D02*
X7655000Y-48685000D01*
X6745000Y-44275000D02*
X1845000Y-44275000D01*
X6745000Y-47775000D02*
X6745000Y-44275000D01*
X7355000Y-45775000D02*
X6745000Y-45775000D01*
X7355000Y-47075000D02*
X6745000Y-47075000D01*
X7655000Y-48685000D02*
X7655000Y-47435000D01*
X7355000Y-48385000D02*
X1235000Y-48385000D01*
X1235000Y-43665000D01*
X7355000Y-43665000D01*
X7355000Y-48385000D01*
%TO.C,U5*%
X29895000Y-8375000D02*
X45495000Y-8375000D01*
X29895000Y-23975000D02*
X29895000Y-8375000D01*
X45495000Y-8375000D02*
X45495000Y-23975000D01*
X45495000Y-23975000D02*
X29895000Y-23975000D01*
X29720000Y-10225000D02*
X29384000Y-10465000D01*
X29384000Y-9985000D01*
X29720000Y-10225000D01*
G36*
X29720000Y-10225000D02*
G01*
X29384000Y-10465000D01*
X29384000Y-9985000D01*
X29720000Y-10225000D01*
G37*
%TO.C,C16*%
X26135348Y-6708500D02*
X26657852Y-6708500D01*
X26135348Y-8178500D02*
X26657852Y-8178500D01*
%TO.C,C14*%
X27507420Y-15197900D02*
X27788580Y-15197900D01*
X27507420Y-16217900D02*
X27788580Y-16217900D01*
%TO.C,C7*%
X18863500Y-27426252D02*
X18863500Y-26903748D01*
X20333500Y-27426252D02*
X20333500Y-26903748D01*
%TO.C,TP1*%
X69645000Y-30675000D02*
G75*
G02*
X67745000Y-30675000I-950000J0D01*
G01*
X67745000Y-30675000D02*
G75*
G02*
X69645000Y-30675000I950000J0D01*
G01*
%TO.C,R13*%
X14323642Y-29179900D02*
X14798158Y-29179900D01*
X14323642Y-30224900D02*
X14798158Y-30224900D01*
%TO.C,R1*%
X33201700Y-28669358D02*
X33201700Y-28194842D01*
X34246700Y-28669358D02*
X34246700Y-28194842D01*
%TO.C,U2*%
X14285000Y-10265000D02*
X14760000Y-10265000D01*
X14285000Y-10740000D02*
X14285000Y-10265000D01*
X14285000Y-13485000D02*
X14285000Y-13010000D01*
X14760000Y-13485000D02*
X14285000Y-13485000D01*
X17030000Y-10265000D02*
X17505000Y-10265000D01*
X17505000Y-10265000D02*
X17505000Y-10740000D01*
X17505000Y-13010000D02*
X17505000Y-13485000D01*
X17505000Y-13485000D02*
X17030000Y-13485000D01*
X16645000Y-9735000D02*
X16405000Y-9405000D01*
X16885000Y-9405000D01*
X16645000Y-9735000D01*
G36*
X16645000Y-9735000D02*
G01*
X16405000Y-9405000D01*
X16885000Y-9405000D01*
X16645000Y-9735000D01*
G37*
%TO.C,R32*%
X73497900Y-14083858D02*
X73497900Y-13609342D01*
X74542900Y-14083858D02*
X74542900Y-13609342D01*
%TO.C,R26*%
X60998642Y-7287300D02*
X61473158Y-7287300D01*
X60998642Y-8332300D02*
X61473158Y-8332300D01*
%TO.C,C22*%
X64129420Y-11965000D02*
X64410580Y-11965000D01*
X64129420Y-12985000D02*
X64410580Y-12985000D01*
%TO.C,R24*%
X27384642Y-22718300D02*
X27859158Y-22718300D01*
X27384642Y-23763300D02*
X27859158Y-23763300D01*
%TO.C,C17*%
X23542100Y-13179880D02*
X23542100Y-12898720D01*
X24562100Y-13179880D02*
X24562100Y-12898720D01*
%TO.C,R11*%
X15957742Y-1052500D02*
X16432258Y-1052500D01*
X15957742Y-2097500D02*
X16432258Y-2097500D01*
%TO.C,R17*%
X30910000Y-28512258D02*
X30910000Y-28037742D01*
X31955000Y-28512258D02*
X31955000Y-28037742D01*
%TO.C,J5*%
X75995000Y-6425000D02*
X75995000Y-23325000D01*
X75995000Y-8775000D02*
X76495000Y-8775000D01*
X75995000Y-8875000D02*
X76495000Y-8875000D01*
X75995000Y-10775000D02*
X76495000Y-10775000D01*
X75995000Y-10875000D02*
X76495000Y-10875000D01*
X75995000Y-12775000D02*
X76495000Y-12775000D01*
X75995000Y-12875000D02*
X76495000Y-12875000D01*
X75995000Y-14775000D02*
X76495000Y-14775000D01*
X75995000Y-14875000D02*
X76495000Y-14875000D01*
X75995000Y-16775000D02*
X76495000Y-16775000D01*
X75995000Y-16875000D02*
X76495000Y-16875000D01*
X75995000Y-18775000D02*
X76495000Y-18775000D01*
X75995000Y-18875000D02*
X76495000Y-18875000D01*
X75995000Y-20775000D02*
X76495000Y-20775000D01*
X75995000Y-20875000D02*
X76495000Y-20875000D01*
X75995000Y-23325000D02*
X79495000Y-23325000D01*
X76495000Y-8775000D02*
X76495000Y-8975000D01*
X76495000Y-8975000D02*
X75995000Y-8975000D01*
X76495000Y-10775000D02*
X76495000Y-10975000D01*
X76495000Y-10975000D02*
X75995000Y-10975000D01*
X76495000Y-12775000D02*
X76495000Y-12975000D01*
X76495000Y-12975000D02*
X75995000Y-12975000D01*
X76495000Y-14775000D02*
X76495000Y-14975000D01*
X76495000Y-14975000D02*
X75995000Y-14975000D01*
X76495000Y-16775000D02*
X76495000Y-16975000D01*
X76495000Y-16975000D02*
X75995000Y-16975000D01*
X76495000Y-18775000D02*
X76495000Y-18975000D01*
X76495000Y-18975000D02*
X75995000Y-18975000D01*
X76495000Y-20775000D02*
X76495000Y-20975000D01*
X76495000Y-20975000D02*
X75995000Y-20975000D01*
X77495000Y-5815000D02*
X77495000Y-6425000D01*
X77495000Y-23935000D02*
X77495000Y-23325000D01*
X78795000Y-5815000D02*
X78795000Y-6425000D01*
X78795000Y-23935000D02*
X78795000Y-23325000D01*
X79495000Y-6425000D02*
X75995000Y-6425000D01*
X79495000Y-8375000D02*
X79495000Y-6425000D01*
X79495000Y-21375000D02*
X80105000Y-21375000D01*
X79495000Y-23325000D02*
X79495000Y-21375000D01*
X80105000Y-7575000D02*
X80305000Y-7575000D01*
X80105000Y-8375000D02*
X79495000Y-8375000D01*
X80205000Y-7575000D02*
X80205000Y-7275000D01*
X80305000Y-7275000D02*
X80105000Y-7275000D01*
X80305000Y-7575000D02*
X80305000Y-7275000D01*
X80405000Y-5515000D02*
X79155000Y-5515000D01*
X80405000Y-6765000D02*
X80405000Y-5515000D01*
X80105000Y-5815000D02*
X75385000Y-5815000D01*
X75385000Y-23935000D01*
X80105000Y-23935000D01*
X80105000Y-5815000D01*
%TO.C,L1*%
X7835000Y-20615000D02*
X12355000Y-20615000D01*
X7835000Y-25135000D02*
X7835000Y-20615000D01*
X12355000Y-20615000D02*
X12355000Y-25135000D01*
X12355000Y-25135000D02*
X7835000Y-25135000D01*
%TO.C,C6*%
X11773348Y-18322200D02*
X12295852Y-18322200D01*
X11773348Y-19792200D02*
X12295852Y-19792200D01*
%TO.C,R33*%
X66273900Y-11896058D02*
X66273900Y-11421542D01*
X67318900Y-11896058D02*
X67318900Y-11421542D01*
%TO.C,U1*%
X35735000Y-26065000D02*
X35785000Y-26065000D01*
X35735000Y-27885000D02*
X35735000Y-26065000D01*
X35785000Y-27885000D02*
X35735000Y-27885000D01*
X38805000Y-26065000D02*
X38855000Y-26065000D01*
X38855000Y-26065000D02*
X38855000Y-27885000D01*
X38855000Y-27885000D02*
X38805000Y-27885000D01*
X35785000Y-28425000D02*
X35455000Y-28665000D01*
X35455000Y-28185000D01*
X35785000Y-28425000D01*
G36*
X35785000Y-28425000D02*
G01*
X35455000Y-28665000D01*
X35455000Y-28185000D01*
X35785000Y-28425000D01*
G37*
%TO.C,Q1*%
X25935000Y-26715000D02*
X27455000Y-26715000D01*
X25935000Y-26765000D02*
X25935000Y-26715000D01*
X25935000Y-28665000D02*
X25935000Y-27885000D01*
X25935000Y-29835000D02*
X25935000Y-29785000D01*
X27455000Y-26715000D02*
X27455000Y-27715000D01*
X27455000Y-28835000D02*
X27455000Y-29835000D01*
X27455000Y-29835000D02*
X25935000Y-29835000D01*
X25635000Y-28225000D02*
X25155000Y-28225000D01*
X25395000Y-27895000D01*
X25635000Y-28225000D01*
G36*
X25635000Y-28225000D02*
G01*
X25155000Y-28225000D01*
X25395000Y-27895000D01*
X25635000Y-28225000D01*
G37*
%TO.C,C5*%
X17485300Y-19092352D02*
X17485300Y-18569848D01*
X18955300Y-19092352D02*
X18955300Y-18569848D01*
%TO.C,R7*%
X20828000Y-12787458D02*
X20828000Y-12312942D01*
X21873000Y-12787458D02*
X21873000Y-12312942D01*
%TO.C,R30*%
X63247100Y-22940658D02*
X63247100Y-22466142D01*
X64292100Y-22940658D02*
X64292100Y-22466142D01*
%TO.C,U4*%
X55285000Y-29315000D02*
X57105000Y-29315000D01*
X55285000Y-29365000D02*
X55285000Y-29315000D01*
X55285000Y-32435000D02*
X55285000Y-32385000D01*
X57105000Y-29315000D02*
X57105000Y-29365000D01*
X57105000Y-30485000D02*
X57105000Y-31265000D01*
X57105000Y-32385000D02*
X57105000Y-32435000D01*
X57105000Y-32435000D02*
X55285000Y-32435000D01*
X54745000Y-29365000D02*
X54505000Y-29035000D01*
X54985000Y-29035000D01*
X54745000Y-29365000D01*
G36*
X54745000Y-29365000D02*
G01*
X54505000Y-29035000D01*
X54985000Y-29035000D01*
X54745000Y-29365000D01*
G37*
%TO.C,C2*%
X15015348Y-14695700D02*
X15537852Y-14695700D01*
X15015348Y-16165700D02*
X15537852Y-16165700D01*
%TO.C,J4*%
X75995000Y-26825000D02*
X75995000Y-37725000D01*
X75995000Y-29175000D02*
X76495000Y-29175000D01*
X75995000Y-29275000D02*
X76495000Y-29275000D01*
X75995000Y-31175000D02*
X76495000Y-31175000D01*
X75995000Y-31275000D02*
X76495000Y-31275000D01*
X75995000Y-33175000D02*
X76495000Y-33175000D01*
X75995000Y-33275000D02*
X76495000Y-33275000D01*
X75995000Y-35175000D02*
X76495000Y-35175000D01*
X75995000Y-35275000D02*
X76495000Y-35275000D01*
X75995000Y-37725000D02*
X79495000Y-37725000D01*
X76495000Y-29175000D02*
X76495000Y-29375000D01*
X76495000Y-29375000D02*
X75995000Y-29375000D01*
X76495000Y-31175000D02*
X76495000Y-31375000D01*
X76495000Y-31375000D02*
X75995000Y-31375000D01*
X76495000Y-33175000D02*
X76495000Y-33375000D01*
X76495000Y-33375000D02*
X75995000Y-33375000D01*
X76495000Y-35175000D02*
X76495000Y-35375000D01*
X76495000Y-35375000D02*
X75995000Y-35375000D01*
X77495000Y-26215000D02*
X77495000Y-26825000D01*
X77495000Y-38335000D02*
X77495000Y-37725000D01*
X78795000Y-26215000D02*
X78795000Y-26825000D01*
X78795000Y-38335000D02*
X78795000Y-37725000D01*
X79495000Y-26825000D02*
X75995000Y-26825000D01*
X79495000Y-28775000D02*
X79495000Y-26825000D01*
X79495000Y-35775000D02*
X80105000Y-35775000D01*
X79495000Y-37725000D02*
X79495000Y-35775000D01*
X80105000Y-27975000D02*
X80305000Y-27975000D01*
X80105000Y-28775000D02*
X79495000Y-28775000D01*
X80205000Y-27975000D02*
X80205000Y-27675000D01*
X80305000Y-27675000D02*
X80105000Y-27675000D01*
X80305000Y-27975000D02*
X80305000Y-27675000D01*
X80405000Y-25915000D02*
X79155000Y-25915000D01*
X80405000Y-27165000D02*
X80405000Y-25915000D01*
X80105000Y-26215000D02*
X75385000Y-26215000D01*
X75385000Y-38335000D01*
X80105000Y-38335000D01*
X80105000Y-26215000D01*
%TO.C,R25*%
X27762842Y-24695500D02*
X28237358Y-24695500D01*
X27762842Y-25740500D02*
X28237358Y-25740500D01*
%TO.C,R21*%
X27577642Y-17916700D02*
X28052158Y-17916700D01*
X27577642Y-18961700D02*
X28052158Y-18961700D01*
%TO.C,SW1*%
X11585000Y-2965000D02*
X11585000Y-6785000D01*
X11585000Y-6785000D02*
X12935000Y-6785000D01*
X12935000Y-2965000D02*
X11585000Y-2965000D01*
X15435000Y-2965000D02*
X14455000Y-2965000D01*
X15435000Y-6785000D02*
X14455000Y-6785000D01*
X17935000Y-2965000D02*
X16955000Y-2965000D01*
X17935000Y-6785000D02*
X16955000Y-6785000D01*
X20805000Y-2965000D02*
X19455000Y-2965000D01*
X20805000Y-2965000D02*
X20805000Y-6785000D01*
X20805000Y-6785000D02*
X19455000Y-6785000D01*
%TO.C,R27*%
X62417342Y-19552300D02*
X62891858Y-19552300D01*
X62417342Y-20597300D02*
X62891858Y-20597300D01*
%TO.C,R9*%
X6612400Y-16363658D02*
X6612400Y-15889142D01*
X7657400Y-16363658D02*
X7657400Y-15889142D01*
%TO.C,Q3*%
X25935000Y-34715000D02*
X27455000Y-34715000D01*
X25935000Y-34765000D02*
X25935000Y-34715000D01*
X25935000Y-36665000D02*
X25935000Y-35885000D01*
X25935000Y-37835000D02*
X25935000Y-37785000D01*
X27455000Y-34715000D02*
X27455000Y-35715000D01*
X27455000Y-36835000D02*
X27455000Y-37835000D01*
X27455000Y-37835000D02*
X25935000Y-37835000D01*
X25635000Y-36225000D02*
X25155000Y-36225000D01*
X25395000Y-35895000D01*
X25635000Y-36225000D01*
G36*
X25635000Y-36225000D02*
G01*
X25155000Y-36225000D01*
X25395000Y-35895000D01*
X25635000Y-36225000D01*
G37*
%TO.C,C21*%
X61549520Y-25569400D02*
X61830680Y-25569400D01*
X61549520Y-26589400D02*
X61830680Y-26589400D01*
%TD*%
M02*
