%TF.GenerationSoftware,KiCad,Pcbnew,9.0.9-9.0.9~ubuntu24.04.1*%
%TF.CreationDate,2026-10-02T14:06:49+00:00*%
%TF.ProjectId,PinaBio-v2.0-Cursor,50696e61-4269-46f2-9d76-322e302d4375,SPEC-0.9*%
%TF.SameCoordinates,Original*%
%TF.FileFunction,Copper,L2,Inr*%
%TF.FilePolarity,Positive*%
%FSLAX46Y46*%
G04 Gerber Fmt 4.6, Leading zero omitted, Abs format (unit mm)*
G04 Created by KiCad (PCBNEW 9.0.9-9.0.9~ubuntu24.04.1) date 2026-10-02 14:06:49*
%MOMM*%
%LPD*%
G01*
G04 APERTURE LIST*
G04 Aperture macros list*
%AMRoundRect*
0 Rectangle with rounded corners*
0 $1 Rounding radius*
0 $2 $3 $4 $5 $6 $7 $8 $9 X,Y pos of 4 corners*
0 Add a 4 corners polygon primitive as box body*
4,1,4,$2,$3,$4,$5,$6,$7,$8,$9,$2,$3,0*
0 Add four circle primitives for the rounded corners*
1,1,$1+$1,$2,$3*
1,1,$1+$1,$4,$5*
1,1,$1+$1,$6,$7*
1,1,$1+$1,$8,$9*
0 Add four rect primitives between the rounded corners*
20,1,$1+$1,$2,$3,$4,$5,0*
20,1,$1+$1,$4,$5,$6,$7,0*
20,1,$1+$1,$6,$7,$8,$9,0*
20,1,$1+$1,$8,$9,$2,$3,0*%
G04 Aperture macros list end*
%TA.AperFunction,EtchedComponent*%
%ADD10C,0.000000*%
%TD*%
%TA.AperFunction,ComponentPad*%
%ADD11C,0.950000*%
%TD*%
%TA.AperFunction,ComponentPad*%
%ADD12RoundRect,0.250000X-0.350000X-0.625000X0.350000X-0.625000X0.350000X0.625000X-0.350000X0.625000X0*%
%TD*%
%TA.AperFunction,ComponentPad*%
%ADD13O,1.200000X1.750000*%
%TD*%
%TA.AperFunction,ComponentPad*%
%ADD14RoundRect,0.250000X-0.625000X0.350000X-0.625000X-0.350000X0.625000X-0.350000X0.625000X0.350000X0*%
%TD*%
%TA.AperFunction,ComponentPad*%
%ADD15O,1.750000X1.200000*%
%TD*%
%TA.AperFunction,HeatsinkPad*%
%ADD16O,1.000000X2.100000*%
%TD*%
%TA.AperFunction,HeatsinkPad*%
%ADD17O,1.000000X1.600000*%
%TD*%
%TA.AperFunction,ComponentPad*%
%ADD18C,1.500000*%
%TD*%
%TA.AperFunction,ViaPad*%
%ADD19C,0.500000*%
%TD*%
G04 APERTURE END LIST*
D10*
%TA.AperFunction,EtchedComponent*%
%TO.C,NT1*%
G36*
X50045000Y-16795000D02*
G01*
X46645000Y-16795000D01*
X46645000Y-14795000D01*
X50045000Y-14795000D01*
X50045000Y-16795000D01*
G37*
%TD.AperFunction*%
%TD*%
D11*
%TO.N,/GND*%
%TO.C,NT1*%
X47145000Y-15795000D03*
%TO.N,/AGND*%
X49545000Y-15795000D03*
%TD*%
D12*
%TO.N,/SNS_AB*%
%TO.C,J8*%
X69845000Y-50995000D03*
D13*
%TO.N,/AGND*%
X71845000Y-50995000D03*
%TD*%
D14*
%TO.N,/3V3_SYS*%
%TO.C,J4*%
X4145000Y-26795000D03*
D15*
%TO.N,/GND*%
X4145000Y-28795000D03*
%TO.N,/SCL_MOD*%
X4145000Y-30795000D03*
%TO.N,/SDA_MOD*%
X4145000Y-32795000D03*
%TO.N,/PPG_INT*%
X4145000Y-34795000D03*
%TD*%
D12*
%TO.N,/SNS_GSR*%
%TO.C,J6*%
X53345000Y-50995000D03*
D13*
%TO.N,/AGND*%
X55345000Y-50995000D03*
%TD*%
D12*
%TO.N,/BAT_PROT*%
%TO.C,J2*%
X3345000Y-3995000D03*
D13*
%TO.N,/GND*%
X5345000Y-3995000D03*
%TO.N,/TS*%
X7345000Y-3995000D03*
%TD*%
D16*
%TO.N,/GND*%
%TO.C,J1*%
X33025000Y-32290000D03*
D17*
X33025000Y-36470000D03*
D16*
X41665000Y-32290000D03*
D17*
X41665000Y-36470000D03*
%TD*%
D18*
%TO.N,/VLOG*%
%TO.C,SW1*%
X13345000Y-3795000D03*
%TO.N,/EN2_CE*%
X15845000Y-3795000D03*
%TO.N,/GND*%
X18345000Y-3795000D03*
%TO.N,/BAT_PROT*%
X13345000Y-6195000D03*
%TO.N,/TPS_EN*%
X15845000Y-6195000D03*
%TO.N,/VLOG*%
X18345000Y-6195000D03*
%TD*%
D12*
%TO.N,/SNS_TH*%
%TO.C,J7*%
X61845000Y-50995000D03*
D13*
%TO.N,/AGND*%
X63845000Y-50995000D03*
%TD*%
D12*
%TO.N,/3V0_TEMP*%
%TO.C,J5*%
X13845000Y-52995000D03*
D13*
%TO.N,/GND*%
X15845000Y-52995000D03*
%TO.N,/SDA_MOD*%
X17845000Y-52995000D03*
%TO.N,/SCL_MOD*%
X19845000Y-52995000D03*
%TD*%
D14*
%TO.N,/3V3_A*%
%TO.C,J3*%
X77945000Y-43995000D03*
D15*
%TO.N,/AGND*%
X77945000Y-45995000D03*
%TO.N,/ECG_OUT*%
X77945000Y-47995000D03*
%TO.N,/LO_P*%
X77945000Y-49995000D03*
%TO.N,/LO_N*%
X77945000Y-51995000D03*
%TO.N,/3V3_A*%
X77945000Y-53995000D03*
%TD*%
D19*
%TO.N,/0V5_EXC*%
X74400880Y-17065165D03*
X67450000Y-14695000D03*
%TO.N,/3V0_TEMP*%
X23758310Y-42344868D03*
%TO.N,/3V3_A*%
X60023087Y-8199572D03*
%TO.N,/3V3_SYS*%
X50990022Y-2211469D03*
X17932934Y-36838774D03*
X6737174Y-20160832D03*
X61959522Y-7504541D03*
X15708236Y-28817956D03*
X16850000Y-25600000D03*
X25157692Y-9109447D03*
X23703323Y-10144183D03*
X13095003Y-29518328D03*
X11374671Y-10840461D03*
X60048882Y-13817703D03*
X19958685Y-40050902D03*
X7302474Y-28319353D03*
X29490212Y-4026021D03*
X22526730Y-29181105D03*
X25393541Y-1349291D03*
X30851652Y-37574741D03*
X51639662Y-20202388D03*
X29900000Y-18050000D03*
X61334404Y-27572834D03*
X51559505Y-21410699D03*
X25645000Y-13070000D03*
X19958685Y-43539097D03*
X25016060Y-5534660D03*
X66362227Y-24559362D03*
X51559505Y-13310699D03*
X25773703Y-9140262D03*
X16450000Y-25200000D03*
X48645000Y-20920000D03*
X61784404Y-20972834D03*
X15850000Y-27750000D03*
X28625505Y-33424606D03*
%TO.N,/AGND*%
X76765000Y-28695000D03*
X62973087Y-7199572D03*
X76765000Y-4695000D03*
X51243671Y-22917421D03*
X52765000Y-44695000D03*
X64134404Y-24322834D03*
X51243671Y-14817421D03*
X68765000Y-44695000D03*
X76765000Y-12695000D03*
X68765000Y-28695000D03*
X57473571Y-17550391D03*
X63920000Y-12520000D03*
X68765000Y-4695000D03*
X52765000Y-36695000D03*
X60765000Y-4695000D03*
X60765000Y-36695000D03*
X51590352Y-14264830D03*
X68765000Y-36695000D03*
X51016311Y-20688732D03*
X61664463Y-29625522D03*
X60765000Y-44695000D03*
X68765000Y-20695000D03*
X52714479Y-11232177D03*
X52765000Y-28695000D03*
X76765000Y-36695000D03*
X52765000Y-4695000D03*
X76765000Y-20695000D03*
X61334404Y-16522834D03*
X51590352Y-22364830D03*
X53311748Y-10672102D03*
%TO.N,/BAT_PROT*%
X22245995Y-9264868D03*
X12324475Y-5686540D03*
X14154408Y-8901915D03*
X25236112Y-30159325D03*
X27270154Y-20124661D03*
%TO.N,/BAT_SENSE*%
X29076543Y-5782919D03*
X31982500Y-26870000D03*
X25764463Y-4726376D03*
X27239631Y-12433758D03*
%TO.N,/CC1*%
X34250000Y-29695000D03*
X35300000Y-32895000D03*
%TO.N,/CC2*%
X39100000Y-32895000D03*
X40159807Y-29845000D03*
%TO.N,/DIV_EXC*%
X61300000Y-11095000D03*
X67539230Y-17495000D03*
X67012026Y-10229875D03*
X55500000Y-17545000D03*
%TO.N,/DRDY_ECG*%
X58909522Y-5704541D03*
X29373246Y-10730997D03*
%TO.N,/DRDY_SLOW*%
X54100000Y-21095000D03*
X63162227Y-25459362D03*
X28300000Y-10895000D03*
X57500000Y-21495000D03*
X64862227Y-25459362D03*
X28500000Y-13695000D03*
X28700000Y-11345000D03*
%TO.N,/ECG_DIV*%
X72500000Y-21495000D03*
X57500000Y-15095000D03*
X68776313Y-24770000D03*
X61700000Y-11695000D03*
%TO.N,/ECG_OUT*%
X74900000Y-23695000D03*
X68576313Y-13170000D03*
%TO.N,/GND*%
X10612388Y-12906926D03*
X23645995Y-5664868D03*
X36300000Y-4695000D03*
X4300000Y-12695000D03*
X40126370Y-7286421D03*
X39803726Y-26682326D03*
X10500000Y-24650000D03*
X14300000Y-21300000D03*
X34695000Y-8795000D03*
X17022220Y-21190463D03*
X12300000Y-44695000D03*
X17750000Y-29000000D03*
X4300000Y-44695000D03*
X37345000Y-6145000D03*
X18350000Y-16150000D03*
X18857500Y-41795000D03*
X17370000Y-2595000D03*
X27564463Y-1676376D03*
X20300000Y-36695000D03*
X44300000Y-28695000D03*
X18328367Y-18540490D03*
X18150000Y-23100000D03*
X19650000Y-25800000D03*
X36300000Y-52695000D03*
X35836421Y-11576370D03*
X30851652Y-34524741D03*
X36945000Y-29582500D03*
X15300000Y-25200000D03*
X5455384Y-14442046D03*
X37345000Y-11445000D03*
X21232934Y-39638774D03*
X13220915Y-13207566D03*
X29520200Y-2734518D03*
X10500000Y-22800000D03*
X16409760Y-27120500D03*
X32050887Y-32124019D03*
X26800000Y-22900000D03*
X45176891Y-4566369D03*
X27984908Y-30733226D03*
X24439631Y-9483758D03*
X36300000Y-44695000D03*
X12300000Y-20695000D03*
X44521776Y-16608172D03*
X20300000Y-4695000D03*
X14495003Y-16771672D03*
X12400000Y-27500000D03*
X24257692Y-5859447D03*
X45171262Y-5493945D03*
X20300000Y-44695000D03*
X28300000Y-44695000D03*
X12300000Y-36695000D03*
X25400000Y-19900000D03*
X40045000Y-9695000D03*
X28860075Y-2289974D03*
X25236632Y-16399807D03*
X12300000Y-52695000D03*
X39995000Y-10695000D03*
X10602474Y-28319353D03*
X36300000Y-36695000D03*
X38853578Y-11576370D03*
X10602474Y-20470647D03*
X45196038Y-2492174D03*
X17450000Y-22995000D03*
X44300000Y-36695000D03*
X28860075Y-15300025D03*
X44300000Y-44695000D03*
X4300000Y-52695000D03*
X4300000Y-36695000D03*
X44300000Y-20695000D03*
X28988894Y-3263748D03*
X26558310Y-39044868D03*
X23919330Y-36859869D03*
X15050000Y-23650000D03*
X33268012Y-30623650D03*
X40852503Y-30597412D03*
X21436112Y-15030674D03*
X35836421Y-6013629D03*
X13800000Y-21850000D03*
X24225500Y-20921747D03*
X20145000Y-7195000D03*
X14078403Y-2564505D03*
X19365524Y-4303459D03*
X34274200Y-27027057D03*
X4300000Y-20695000D03*
%TO.N,/ILIM*%
X17150000Y-15050000D03*
X16800000Y-13850000D03*
%TO.N,/ISET*%
X21629245Y-18839678D03*
X17394954Y-10522240D03*
%TO.N,/LO_N*%
X31300000Y-17795000D03*
X31300000Y-20695000D03*
%TO.N,/LO_P*%
X70900000Y-49495000D03*
X32900000Y-14895000D03*
X32900000Y-19895000D03*
X53900000Y-49495000D03*
%TO.N,/OUT_AB*%
X55100000Y-23895000D03*
X68100000Y-17895000D03*
%TO.N,/OUT_GSR*%
X66066038Y-23037156D03*
X60130494Y-23379300D03*
X64578785Y-20459311D03*
%TO.N,/OUT_TH*%
X71023961Y-23037156D03*
X60103673Y-24295133D03*
X72511214Y-20459311D03*
%TO.N,/PPG_INT*%
X29300000Y-20695000D03*
X28500000Y-24295000D03*
X29363878Y-14520000D03*
X30900000Y-21895000D03*
%TO.N,/Q1G*%
X24970154Y-23174661D03*
X25236112Y-26630674D03*
%TO.N,/SCL_ADC*%
X58384439Y-10488454D03*
X58626307Y-18651698D03*
X21966060Y-3734660D03*
X29352291Y-9765543D03*
%TO.N,/SCL_MOD*%
X29513108Y-13023630D03*
%TO.N,/SDA_ADC*%
X58100000Y-17295000D03*
X58500000Y-19295000D03*
X59900000Y-10495000D03*
X43500000Y-12495000D03*
X59907500Y-12670000D03*
%TO.N,/SDA_MOD*%
X17100000Y-24695000D03*
X26100000Y-16295000D03*
X26100000Y-23295000D03*
X13900000Y-24695000D03*
%TO.N,/SNS_AB*%
X69500000Y-17495000D03*
X74100000Y-17695000D03*
%TO.N,/SNS_GSR*%
X63589120Y-19874835D03*
X64541145Y-18875948D03*
%TO.N,/SNS_TH*%
X74400880Y-21424835D03*
X69500000Y-19495000D03*
X74100000Y-19695000D03*
X67100000Y-25295000D03*
%TO.N,/SYS*%
X16100000Y-20250000D03*
X16100000Y-18750000D03*
%TO.N,/TMR*%
X19149965Y-12621950D03*
X26586632Y-19749807D03*
%TO.N,/TPS_EN*%
X15475061Y-20826794D03*
X14945000Y-6895000D03*
X11028403Y-2564505D03*
%TO.N,/TS*%
X16757566Y-9670915D03*
%TO.N,/USB_DM*%
X34700000Y-25295000D03*
X35900000Y-27095000D03*
%TO.N,/USB_DM_IO*%
X31900000Y-17295000D03*
X31900000Y-21895000D03*
%TO.N,/USB_DP_IO*%
X41230852Y-21515888D03*
X38315543Y-16787708D03*
%TO.N,/VBUS*%
X14900000Y-20095000D03*
X34945000Y-30450000D03*
X8150000Y-11695000D03*
X39300000Y-30495000D03*
%TO.N,/VBUS_N*%
X29373246Y-6859002D03*
X23703323Y-13194183D03*
X27982500Y-37295000D03*
%TO.N,/VBUS_RAW*%
X24100000Y-18295000D03*
X21300000Y-16895000D03*
%TO.N,/VLOG*%
X14300000Y-3295000D03*
X22900000Y-9295000D03*
X23100000Y-20895000D03*
X14650000Y-3895000D03*
X23700000Y-34334230D03*
X24700000Y-25895000D03*
X17423686Y-5770000D03*
X23100000Y-31095000D03*
X15150000Y-5000000D03*
X23300000Y-18895000D03*
X23100000Y-29495000D03*
%TD*%
%TA.AperFunction,Conductor*%
%TO.N,/AGND*%
G36*
X80475148Y-909852D02*
G01*
X80489500Y-944500D01*
X80489500Y-56740500D01*
X80475148Y-56775148D01*
X80440500Y-56789500D01*
X48814000Y-56789500D01*
X48779352Y-56775148D01*
X48765000Y-56740500D01*
X48765000Y-53916152D01*
X76869500Y-53916152D01*
X76869500Y-54073847D01*
X76900260Y-54228487D01*
X76900263Y-54228497D01*
X76960606Y-54374179D01*
X77048211Y-54505289D01*
X77159711Y-54616789D01*
X77290821Y-54704394D01*
X77436503Y-54764737D01*
X77436509Y-54764738D01*
X77436512Y-54764739D01*
X77591152Y-54795499D01*
X77591158Y-54795500D01*
X78298842Y-54795500D01*
X78453497Y-54764737D01*
X78599179Y-54704394D01*
X78730289Y-54616789D01*
X78841789Y-54505289D01*
X78929394Y-54374179D01*
X78989737Y-54228497D01*
X79020500Y-54073842D01*
X79020500Y-53916158D01*
X78989737Y-53761503D01*
X78929394Y-53615821D01*
X78841789Y-53484711D01*
X78730289Y-53373211D01*
X78599179Y-53285606D01*
X78599176Y-53285604D01*
X78599175Y-53285604D01*
X78453498Y-53225263D01*
X78453487Y-53225260D01*
X78298847Y-53194500D01*
X78298842Y-53194500D01*
X77591158Y-53194500D01*
X77591152Y-53194500D01*
X77436512Y-53225260D01*
X77436501Y-53225263D01*
X77290824Y-53285604D01*
X77159711Y-53373210D01*
X77048210Y-53484711D01*
X76960604Y-53615824D01*
X76900263Y-53761501D01*
X76900260Y-53761512D01*
X76869500Y-53916152D01*
X48765000Y-53916152D01*
X48765000Y-50315724D01*
X52544500Y-50315724D01*
X52544500Y-51674275D01*
X52547353Y-51704698D01*
X52547353Y-51704699D01*
X52592204Y-51832876D01*
X52592208Y-51832885D01*
X52672849Y-51942150D01*
X52782114Y-52022791D01*
X52782117Y-52022792D01*
X52782118Y-52022793D01*
X52782120Y-52022793D01*
X52782123Y-52022795D01*
X52910301Y-52067646D01*
X52940734Y-52070500D01*
X52940744Y-52070500D01*
X53749256Y-52070500D01*
X53749266Y-52070500D01*
X53779699Y-52067646D01*
X53907882Y-52022793D01*
X54017150Y-51942150D01*
X54097793Y-51832882D01*
X54142646Y-51704699D01*
X54145500Y-51674266D01*
X54145500Y-50315734D01*
X54145499Y-50315724D01*
X61044500Y-50315724D01*
X61044500Y-51674275D01*
X61047353Y-51704698D01*
X61047353Y-51704699D01*
X61092204Y-51832876D01*
X61092208Y-51832885D01*
X61172849Y-51942150D01*
X61282114Y-52022791D01*
X61282117Y-52022792D01*
X61282118Y-52022793D01*
X61282120Y-52022793D01*
X61282123Y-52022795D01*
X61410301Y-52067646D01*
X61440734Y-52070500D01*
X61440744Y-52070500D01*
X62249256Y-52070500D01*
X62249266Y-52070500D01*
X62279699Y-52067646D01*
X62407882Y-52022793D01*
X62517150Y-51942150D01*
X62597793Y-51832882D01*
X62642646Y-51704699D01*
X62645500Y-51674266D01*
X62645500Y-50315734D01*
X62645499Y-50315724D01*
X69044500Y-50315724D01*
X69044500Y-51674275D01*
X69047353Y-51704698D01*
X69047353Y-51704699D01*
X69092204Y-51832876D01*
X69092208Y-51832885D01*
X69172849Y-51942150D01*
X69282114Y-52022791D01*
X69282117Y-52022792D01*
X69282118Y-52022793D01*
X69282120Y-52022793D01*
X69282123Y-52022795D01*
X69410301Y-52067646D01*
X69440734Y-52070500D01*
X69440744Y-52070500D01*
X70249256Y-52070500D01*
X70249266Y-52070500D01*
X70279699Y-52067646D01*
X70407882Y-52022793D01*
X70517150Y-51942150D01*
X70536333Y-51916158D01*
X70536337Y-51916152D01*
X76869500Y-51916152D01*
X76869500Y-52073847D01*
X76900260Y-52228487D01*
X76900263Y-52228497D01*
X76960606Y-52374179D01*
X77048211Y-52505289D01*
X77159711Y-52616789D01*
X77290821Y-52704394D01*
X77436503Y-52764737D01*
X77436509Y-52764738D01*
X77436512Y-52764739D01*
X77591152Y-52795499D01*
X77591158Y-52795500D01*
X78298842Y-52795500D01*
X78453497Y-52764737D01*
X78599179Y-52704394D01*
X78730289Y-52616789D01*
X78841789Y-52505289D01*
X78929394Y-52374179D01*
X78989737Y-52228497D01*
X79020500Y-52073842D01*
X79020500Y-51916158D01*
X79014234Y-51884656D01*
X78989739Y-51761512D01*
X78989736Y-51761501D01*
X78953606Y-51674275D01*
X78929394Y-51615821D01*
X78841789Y-51484711D01*
X78730289Y-51373211D01*
X78599179Y-51285606D01*
X78599176Y-51285604D01*
X78599175Y-51285604D01*
X78453498Y-51225263D01*
X78453487Y-51225260D01*
X78298847Y-51194500D01*
X78298842Y-51194500D01*
X77591158Y-51194500D01*
X77591152Y-51194500D01*
X77436512Y-51225260D01*
X77436501Y-51225263D01*
X77290824Y-51285604D01*
X77159711Y-51373210D01*
X77048210Y-51484711D01*
X76960604Y-51615824D01*
X76900263Y-51761501D01*
X76900260Y-51761512D01*
X76869500Y-51916152D01*
X70536337Y-51916152D01*
X70559583Y-51884656D01*
X70559584Y-51884654D01*
X70573073Y-51866376D01*
X70597793Y-51832882D01*
X70642646Y-51704699D01*
X70645500Y-51674266D01*
X70645500Y-50315734D01*
X70642646Y-50285301D01*
X70622769Y-50228497D01*
X70597795Y-50157123D01*
X70597791Y-50157114D01*
X70517150Y-50047849D01*
X70407885Y-49967208D01*
X70407876Y-49967204D01*
X70279698Y-49922353D01*
X70249275Y-49919500D01*
X70249266Y-49919500D01*
X69440734Y-49919500D01*
X69440724Y-49919500D01*
X69410301Y-49922353D01*
X69410300Y-49922353D01*
X69282123Y-49967204D01*
X69282114Y-49967208D01*
X69172849Y-50047849D01*
X69092208Y-50157114D01*
X69092204Y-50157123D01*
X69047353Y-50285300D01*
X69047353Y-50285301D01*
X69044500Y-50315724D01*
X62645499Y-50315724D01*
X62642646Y-50285301D01*
X62622769Y-50228497D01*
X62597795Y-50157123D01*
X62597791Y-50157114D01*
X62517150Y-50047849D01*
X62407885Y-49967208D01*
X62407876Y-49967204D01*
X62279698Y-49922353D01*
X62249275Y-49919500D01*
X62249266Y-49919500D01*
X61440734Y-49919500D01*
X61440724Y-49919500D01*
X61410301Y-49922353D01*
X61410300Y-49922353D01*
X61282123Y-49967204D01*
X61282114Y-49967208D01*
X61172849Y-50047849D01*
X61092208Y-50157114D01*
X61092204Y-50157123D01*
X61047353Y-50285300D01*
X61047353Y-50285301D01*
X61044500Y-50315724D01*
X54145499Y-50315724D01*
X54142646Y-50285301D01*
X54122769Y-50228497D01*
X54097795Y-50157123D01*
X54097791Y-50157114D01*
X54017150Y-50047849D01*
X53981870Y-50021811D01*
X53962514Y-49989689D01*
X53971542Y-49953289D01*
X53998284Y-49935056D01*
X54073886Y-49914799D01*
X54176613Y-49855489D01*
X54260489Y-49771613D01*
X54319799Y-49668886D01*
X54335149Y-49611597D01*
X54350500Y-49554311D01*
X54350500Y-49435688D01*
X70449500Y-49435688D01*
X70449500Y-49554311D01*
X70480200Y-49668884D01*
X70480201Y-49668887D01*
X70533673Y-49761501D01*
X70539511Y-49771613D01*
X70623387Y-49855489D01*
X70726114Y-49914799D01*
X70754306Y-49922353D01*
X70840688Y-49945500D01*
X70840691Y-49945500D01*
X70959311Y-49945500D01*
X71016597Y-49930149D01*
X71068836Y-49916152D01*
X76869500Y-49916152D01*
X76869500Y-50073847D01*
X76900260Y-50228487D01*
X76900263Y-50228498D01*
X76936393Y-50315724D01*
X76960606Y-50374179D01*
X77048211Y-50505289D01*
X77159711Y-50616789D01*
X77290821Y-50704394D01*
X77436503Y-50764737D01*
X77436509Y-50764738D01*
X77436512Y-50764739D01*
X77591152Y-50795499D01*
X77591158Y-50795500D01*
X78298842Y-50795500D01*
X78453497Y-50764737D01*
X78599179Y-50704394D01*
X78730289Y-50616789D01*
X78841789Y-50505289D01*
X78929394Y-50374179D01*
X78989737Y-50228497D01*
X79020500Y-50073842D01*
X79020500Y-49916158D01*
X79020230Y-49914799D01*
X78989739Y-49761512D01*
X78989736Y-49761501D01*
X78929395Y-49615824D01*
X78929394Y-49615821D01*
X78841789Y-49484711D01*
X78730289Y-49373211D01*
X78599179Y-49285606D01*
X78599176Y-49285604D01*
X78599175Y-49285604D01*
X78453498Y-49225263D01*
X78453487Y-49225260D01*
X78298847Y-49194500D01*
X78298842Y-49194500D01*
X77591158Y-49194500D01*
X77591152Y-49194500D01*
X77436512Y-49225260D01*
X77436501Y-49225263D01*
X77290824Y-49285604D01*
X77159711Y-49373210D01*
X77048210Y-49484711D01*
X76960604Y-49615824D01*
X76900263Y-49761501D01*
X76900260Y-49761512D01*
X76869500Y-49916152D01*
X71068836Y-49916152D01*
X71073886Y-49914799D01*
X71176613Y-49855489D01*
X71260489Y-49771613D01*
X71319799Y-49668886D01*
X71335149Y-49611597D01*
X71350500Y-49554311D01*
X71350500Y-49435688D01*
X71319799Y-49321115D01*
X71319798Y-49321112D01*
X71260488Y-49218386D01*
X71176613Y-49134511D01*
X71073887Y-49075201D01*
X71073884Y-49075200D01*
X70959312Y-49044500D01*
X70959309Y-49044500D01*
X70840691Y-49044500D01*
X70840688Y-49044500D01*
X70726115Y-49075200D01*
X70726112Y-49075201D01*
X70623386Y-49134511D01*
X70623386Y-49134512D01*
X70539512Y-49218386D01*
X70539511Y-49218386D01*
X70480201Y-49321112D01*
X70480200Y-49321115D01*
X70449500Y-49435688D01*
X54350500Y-49435688D01*
X54319799Y-49321115D01*
X54319798Y-49321112D01*
X54260488Y-49218386D01*
X54176613Y-49134511D01*
X54073887Y-49075201D01*
X54073884Y-49075200D01*
X53959312Y-49044500D01*
X53959309Y-49044500D01*
X53840691Y-49044500D01*
X53840688Y-49044500D01*
X53726115Y-49075200D01*
X53726112Y-49075201D01*
X53623386Y-49134511D01*
X53623386Y-49134512D01*
X53539512Y-49218386D01*
X53539511Y-49218386D01*
X53480201Y-49321112D01*
X53480200Y-49321115D01*
X53449500Y-49435688D01*
X53449500Y-49554311D01*
X53480200Y-49668884D01*
X53480201Y-49668887D01*
X53539511Y-49771613D01*
X53603750Y-49835852D01*
X53618102Y-49870500D01*
X53603750Y-49905148D01*
X53569102Y-49919500D01*
X52940724Y-49919500D01*
X52910301Y-49922353D01*
X52910300Y-49922353D01*
X52782123Y-49967204D01*
X52782114Y-49967208D01*
X52672849Y-50047849D01*
X52592208Y-50157114D01*
X52592204Y-50157123D01*
X52547353Y-50285300D01*
X52547353Y-50285301D01*
X52544500Y-50315724D01*
X48765000Y-50315724D01*
X48765000Y-47916152D01*
X76869500Y-47916152D01*
X76869500Y-48073847D01*
X76900260Y-48228487D01*
X76900263Y-48228497D01*
X76960606Y-48374179D01*
X77048211Y-48505289D01*
X77159711Y-48616789D01*
X77290821Y-48704394D01*
X77436503Y-48764737D01*
X77436509Y-48764738D01*
X77436512Y-48764739D01*
X77591152Y-48795499D01*
X77591158Y-48795500D01*
X78298842Y-48795500D01*
X78453497Y-48764737D01*
X78599179Y-48704394D01*
X78730289Y-48616789D01*
X78841789Y-48505289D01*
X78929394Y-48374179D01*
X78989737Y-48228497D01*
X79020500Y-48073842D01*
X79020500Y-47916158D01*
X78989737Y-47761503D01*
X78929394Y-47615821D01*
X78841789Y-47484711D01*
X78730289Y-47373211D01*
X78599179Y-47285606D01*
X78599176Y-47285604D01*
X78599175Y-47285604D01*
X78453498Y-47225263D01*
X78453487Y-47225260D01*
X78298847Y-47194500D01*
X78298842Y-47194500D01*
X77591158Y-47194500D01*
X77591152Y-47194500D01*
X77436512Y-47225260D01*
X77436501Y-47225263D01*
X77290824Y-47285604D01*
X77159711Y-47373210D01*
X77048210Y-47484711D01*
X76960604Y-47615824D01*
X76900263Y-47761501D01*
X76900260Y-47761512D01*
X76869500Y-47916152D01*
X48765000Y-47916152D01*
X48765000Y-43590724D01*
X76869500Y-43590724D01*
X76869500Y-44399275D01*
X76872353Y-44429698D01*
X76872353Y-44429699D01*
X76917204Y-44557876D01*
X76917208Y-44557885D01*
X76997849Y-44667150D01*
X77107114Y-44747791D01*
X77107117Y-44747792D01*
X77107118Y-44747793D01*
X77107120Y-44747793D01*
X77107123Y-44747795D01*
X77235301Y-44792646D01*
X77265734Y-44795500D01*
X77265744Y-44795500D01*
X78624256Y-44795500D01*
X78624266Y-44795500D01*
X78654699Y-44792646D01*
X78782882Y-44747793D01*
X78892150Y-44667150D01*
X78972793Y-44557882D01*
X79017646Y-44429699D01*
X79020500Y-44399266D01*
X79020500Y-43590734D01*
X79017646Y-43560301D01*
X78972793Y-43432118D01*
X78972792Y-43432117D01*
X78972791Y-43432114D01*
X78892150Y-43322849D01*
X78782885Y-43242208D01*
X78782876Y-43242204D01*
X78654698Y-43197353D01*
X78624275Y-43194500D01*
X78624266Y-43194500D01*
X77265734Y-43194500D01*
X77265724Y-43194500D01*
X77235301Y-43197353D01*
X77235300Y-43197353D01*
X77107123Y-43242204D01*
X77107114Y-43242208D01*
X76997849Y-43322849D01*
X76917208Y-43432114D01*
X76917204Y-43432123D01*
X76872353Y-43560300D01*
X76872353Y-43560301D01*
X76869500Y-43590724D01*
X48765000Y-43590724D01*
X48765000Y-27513522D01*
X60883904Y-27513522D01*
X60883904Y-27632145D01*
X60914604Y-27746718D01*
X60914605Y-27746721D01*
X60973915Y-27849447D01*
X61057791Y-27933323D01*
X61160518Y-27992633D01*
X61189162Y-28000308D01*
X61275092Y-28023334D01*
X61275095Y-28023334D01*
X61393715Y-28023334D01*
X61451001Y-28007983D01*
X61508290Y-27992633D01*
X61611017Y-27933323D01*
X61694893Y-27849447D01*
X61754203Y-27746720D01*
X61769553Y-27689431D01*
X61784904Y-27632145D01*
X61784904Y-27513522D01*
X61754203Y-27398949D01*
X61754202Y-27398946D01*
X61694892Y-27296220D01*
X61611017Y-27212345D01*
X61508291Y-27153035D01*
X61508288Y-27153034D01*
X61393716Y-27122334D01*
X61393713Y-27122334D01*
X61275095Y-27122334D01*
X61275092Y-27122334D01*
X61160519Y-27153034D01*
X61160516Y-27153035D01*
X61057790Y-27212345D01*
X61057790Y-27212346D01*
X60973916Y-27296220D01*
X60973915Y-27296220D01*
X60914605Y-27398946D01*
X60914604Y-27398949D01*
X60883904Y-27513522D01*
X48765000Y-27513522D01*
X48765000Y-25400050D01*
X62711727Y-25400050D01*
X62711727Y-25518673D01*
X62742427Y-25633246D01*
X62742428Y-25633249D01*
X62755268Y-25655488D01*
X62801738Y-25735975D01*
X62885614Y-25819851D01*
X62988341Y-25879161D01*
X63016985Y-25886836D01*
X63102915Y-25909862D01*
X63102918Y-25909862D01*
X63221538Y-25909862D01*
X63278824Y-25894511D01*
X63336113Y-25879161D01*
X63438840Y-25819851D01*
X63522716Y-25735975D01*
X63582026Y-25633248D01*
X63598541Y-25571613D01*
X63612727Y-25518673D01*
X63612727Y-25400050D01*
X64411727Y-25400050D01*
X64411727Y-25518673D01*
X64442427Y-25633246D01*
X64442428Y-25633249D01*
X64455268Y-25655488D01*
X64501738Y-25735975D01*
X64585614Y-25819851D01*
X64688341Y-25879161D01*
X64716985Y-25886836D01*
X64802915Y-25909862D01*
X64802918Y-25909862D01*
X64921538Y-25909862D01*
X64978824Y-25894511D01*
X65036113Y-25879161D01*
X65138840Y-25819851D01*
X65222716Y-25735975D01*
X65282026Y-25633248D01*
X65298541Y-25571613D01*
X65312727Y-25518673D01*
X65312727Y-25400050D01*
X65282026Y-25285477D01*
X65282026Y-25285476D01*
X65253281Y-25235688D01*
X66649500Y-25235688D01*
X66649500Y-25354311D01*
X66680200Y-25468884D01*
X66680201Y-25468887D01*
X66708946Y-25518673D01*
X66739511Y-25571613D01*
X66823387Y-25655489D01*
X66926114Y-25714799D01*
X66954758Y-25722474D01*
X67040688Y-25745500D01*
X67040691Y-25745500D01*
X67159311Y-25745500D01*
X67216597Y-25730149D01*
X67273886Y-25714799D01*
X67376613Y-25655489D01*
X67460489Y-25571613D01*
X67519799Y-25468886D01*
X67538244Y-25400050D01*
X67550500Y-25354311D01*
X67550500Y-25235688D01*
X67519799Y-25121115D01*
X67519798Y-25121112D01*
X67472715Y-25039563D01*
X67460489Y-25018387D01*
X67376613Y-24934511D01*
X67273887Y-24875201D01*
X67273884Y-24875200D01*
X67159312Y-24844500D01*
X67159309Y-24844500D01*
X67040691Y-24844500D01*
X67040688Y-24844500D01*
X66926115Y-24875200D01*
X66926112Y-24875201D01*
X66823386Y-24934511D01*
X66823386Y-24934512D01*
X66739512Y-25018386D01*
X66739511Y-25018386D01*
X66680201Y-25121112D01*
X66680200Y-25121115D01*
X66649500Y-25235688D01*
X65253281Y-25235688D01*
X65222716Y-25182749D01*
X65138840Y-25098873D01*
X65048326Y-25046614D01*
X65036114Y-25039563D01*
X65036111Y-25039562D01*
X64921539Y-25008862D01*
X64921536Y-25008862D01*
X64802918Y-25008862D01*
X64802915Y-25008862D01*
X64688342Y-25039562D01*
X64688339Y-25039563D01*
X64585613Y-25098873D01*
X64585613Y-25098874D01*
X64501739Y-25182748D01*
X64501738Y-25182748D01*
X64442428Y-25285474D01*
X64442427Y-25285477D01*
X64411727Y-25400050D01*
X63612727Y-25400050D01*
X63582026Y-25285477D01*
X63582025Y-25285474D01*
X63553282Y-25235691D01*
X63522716Y-25182749D01*
X63438840Y-25098873D01*
X63348326Y-25046614D01*
X63336114Y-25039563D01*
X63336111Y-25039562D01*
X63221539Y-25008862D01*
X63221536Y-25008862D01*
X63102918Y-25008862D01*
X63102915Y-25008862D01*
X62988342Y-25039562D01*
X62988339Y-25039563D01*
X62885613Y-25098873D01*
X62885613Y-25098874D01*
X62801739Y-25182748D01*
X62801738Y-25182748D01*
X62742428Y-25285474D01*
X62742427Y-25285477D01*
X62711727Y-25400050D01*
X48765000Y-25400050D01*
X48765000Y-23835688D01*
X54649500Y-23835688D01*
X54649500Y-23954311D01*
X54680200Y-24068884D01*
X54680201Y-24068887D01*
X54739511Y-24171613D01*
X54823387Y-24255489D01*
X54926114Y-24314799D01*
X54954758Y-24322474D01*
X55040688Y-24345500D01*
X55040691Y-24345500D01*
X55159311Y-24345500D01*
X55216597Y-24330149D01*
X55273886Y-24314799D01*
X55376613Y-24255489D01*
X55396281Y-24235821D01*
X59653173Y-24235821D01*
X59653173Y-24354444D01*
X59683873Y-24469017D01*
X59683874Y-24469020D01*
X59743184Y-24571746D01*
X59827060Y-24655622D01*
X59929787Y-24714932D01*
X59958431Y-24722607D01*
X60044361Y-24745633D01*
X60044364Y-24745633D01*
X60162984Y-24745633D01*
X60220270Y-24730282D01*
X60277559Y-24714932D01*
X60380286Y-24655622D01*
X60464162Y-24571746D01*
X60505556Y-24500050D01*
X65911727Y-24500050D01*
X65911727Y-24618673D01*
X65942427Y-24733246D01*
X65942428Y-24733249D01*
X66001738Y-24835975D01*
X66085614Y-24919851D01*
X66188341Y-24979161D01*
X66216985Y-24986836D01*
X66302915Y-25009862D01*
X66302918Y-25009862D01*
X66421538Y-25009862D01*
X66478824Y-24994511D01*
X66536113Y-24979161D01*
X66638840Y-24919851D01*
X66722716Y-24835975D01*
X66782026Y-24733248D01*
X66788071Y-24710688D01*
X68325813Y-24710688D01*
X68325813Y-24829311D01*
X68356513Y-24943884D01*
X68356514Y-24943887D01*
X68411753Y-25039562D01*
X68415824Y-25046613D01*
X68499700Y-25130489D01*
X68602427Y-25189799D01*
X68631071Y-25197474D01*
X68717001Y-25220500D01*
X68717004Y-25220500D01*
X68835624Y-25220500D01*
X68892910Y-25205149D01*
X68950199Y-25189799D01*
X69052926Y-25130489D01*
X69136802Y-25046613D01*
X69196112Y-24943886D01*
X69214516Y-24875201D01*
X69226813Y-24829311D01*
X69226813Y-24710688D01*
X69196112Y-24596115D01*
X69196111Y-24596112D01*
X69180218Y-24568585D01*
X69136802Y-24493387D01*
X69052926Y-24409511D01*
X68950200Y-24350201D01*
X68950197Y-24350200D01*
X68835625Y-24319500D01*
X68835622Y-24319500D01*
X68717004Y-24319500D01*
X68717001Y-24319500D01*
X68602428Y-24350200D01*
X68602425Y-24350201D01*
X68499699Y-24409511D01*
X68499699Y-24409512D01*
X68415825Y-24493386D01*
X68415824Y-24493386D01*
X68356514Y-24596112D01*
X68356513Y-24596115D01*
X68325813Y-24710688D01*
X66788071Y-24710688D01*
X66802826Y-24655621D01*
X66812727Y-24618672D01*
X66812727Y-24500050D01*
X66782026Y-24385477D01*
X66782025Y-24385474D01*
X66766132Y-24357947D01*
X66722716Y-24282749D01*
X66638840Y-24198873D01*
X66536114Y-24139563D01*
X66536111Y-24139562D01*
X66421539Y-24108862D01*
X66421536Y-24108862D01*
X66302918Y-24108862D01*
X66302915Y-24108862D01*
X66188342Y-24139562D01*
X66188339Y-24139563D01*
X66085613Y-24198873D01*
X66085613Y-24198874D01*
X66001739Y-24282748D01*
X66001738Y-24282748D01*
X65942428Y-24385474D01*
X65942427Y-24385477D01*
X65911727Y-24500050D01*
X60505556Y-24500050D01*
X60523472Y-24469019D01*
X60545857Y-24385477D01*
X60554173Y-24354444D01*
X60554173Y-24235821D01*
X60528380Y-24139563D01*
X60523472Y-24121247D01*
X60516321Y-24108862D01*
X60485506Y-24055489D01*
X60464162Y-24018520D01*
X60380286Y-23934644D01*
X60297928Y-23887094D01*
X60275098Y-23857340D01*
X60279994Y-23820158D01*
X60301795Y-23801045D01*
X60301599Y-23800705D01*
X60303310Y-23799717D01*
X60303690Y-23799384D01*
X60304373Y-23799100D01*
X60304380Y-23799099D01*
X60407107Y-23739789D01*
X60490983Y-23655913D01*
X60502660Y-23635688D01*
X74449500Y-23635688D01*
X74449500Y-23754311D01*
X74480200Y-23868884D01*
X74480201Y-23868887D01*
X74539511Y-23971613D01*
X74623387Y-24055489D01*
X74726114Y-24114799D01*
X74750171Y-24121245D01*
X74840688Y-24145500D01*
X74840691Y-24145500D01*
X74959311Y-24145500D01*
X75016597Y-24130149D01*
X75073886Y-24114799D01*
X75176613Y-24055489D01*
X75260489Y-23971613D01*
X75319799Y-23868886D01*
X75338422Y-23799384D01*
X75350500Y-23754311D01*
X75350500Y-23635688D01*
X75319799Y-23521115D01*
X75319798Y-23521112D01*
X75260488Y-23418386D01*
X75176613Y-23334511D01*
X75073887Y-23275201D01*
X75073884Y-23275200D01*
X74959312Y-23244500D01*
X74959309Y-23244500D01*
X74840691Y-23244500D01*
X74840688Y-23244500D01*
X74726115Y-23275200D01*
X74726112Y-23275201D01*
X74623386Y-23334511D01*
X74623386Y-23334512D01*
X74539512Y-23418386D01*
X74539511Y-23418386D01*
X74480201Y-23521112D01*
X74480200Y-23521115D01*
X74449500Y-23635688D01*
X60502660Y-23635688D01*
X60550293Y-23553186D01*
X60571189Y-23475201D01*
X60580994Y-23438611D01*
X60580994Y-23319988D01*
X60550293Y-23205415D01*
X60550292Y-23205412D01*
X60490982Y-23102686D01*
X60407109Y-23018813D01*
X60407107Y-23018811D01*
X60404089Y-23017068D01*
X60336152Y-22977844D01*
X65615538Y-22977844D01*
X65615538Y-23096467D01*
X65646238Y-23211040D01*
X65646239Y-23211043D01*
X65705549Y-23313769D01*
X65789425Y-23397645D01*
X65825351Y-23418387D01*
X65870579Y-23444500D01*
X65892152Y-23456955D01*
X65920796Y-23464630D01*
X66006726Y-23487656D01*
X66006729Y-23487656D01*
X66125349Y-23487656D01*
X66182635Y-23472305D01*
X66239924Y-23456955D01*
X66342651Y-23397645D01*
X66426527Y-23313769D01*
X66485837Y-23211042D01*
X66514871Y-23102687D01*
X66516538Y-23096467D01*
X66516538Y-22977844D01*
X70573461Y-22977844D01*
X70573461Y-23096467D01*
X70604161Y-23211040D01*
X70604162Y-23211043D01*
X70663472Y-23313769D01*
X70747348Y-23397645D01*
X70783274Y-23418387D01*
X70828502Y-23444500D01*
X70850075Y-23456955D01*
X70878719Y-23464630D01*
X70964649Y-23487656D01*
X70964652Y-23487656D01*
X71083272Y-23487656D01*
X71140558Y-23472305D01*
X71197847Y-23456955D01*
X71300574Y-23397645D01*
X71384450Y-23313769D01*
X71443760Y-23211042D01*
X71472794Y-23102687D01*
X71474461Y-23096467D01*
X71474461Y-22977844D01*
X71443760Y-22863271D01*
X71443759Y-22863268D01*
X71384449Y-22760542D01*
X71300574Y-22676667D01*
X71197848Y-22617357D01*
X71197845Y-22617356D01*
X71083273Y-22586656D01*
X71083270Y-22586656D01*
X70964652Y-22586656D01*
X70964649Y-22586656D01*
X70850076Y-22617356D01*
X70850073Y-22617357D01*
X70747347Y-22676667D01*
X70747347Y-22676668D01*
X70663473Y-22760542D01*
X70663472Y-22760542D01*
X70604162Y-22863268D01*
X70604161Y-22863271D01*
X70573461Y-22977844D01*
X66516538Y-22977844D01*
X66485837Y-22863271D01*
X66485836Y-22863268D01*
X66426526Y-22760542D01*
X66342651Y-22676667D01*
X66239925Y-22617357D01*
X66239922Y-22617356D01*
X66125350Y-22586656D01*
X66125347Y-22586656D01*
X66006729Y-22586656D01*
X66006726Y-22586656D01*
X65892153Y-22617356D01*
X65892150Y-22617357D01*
X65789424Y-22676667D01*
X65789424Y-22676668D01*
X65705550Y-22760542D01*
X65705549Y-22760542D01*
X65646239Y-22863268D01*
X65646238Y-22863271D01*
X65615538Y-22977844D01*
X60336152Y-22977844D01*
X60304381Y-22959501D01*
X60304378Y-22959500D01*
X60189806Y-22928800D01*
X60189803Y-22928800D01*
X60071185Y-22928800D01*
X60071182Y-22928800D01*
X59956609Y-22959500D01*
X59956606Y-22959501D01*
X59853880Y-23018811D01*
X59853880Y-23018812D01*
X59770006Y-23102686D01*
X59770005Y-23102686D01*
X59710695Y-23205412D01*
X59710694Y-23205415D01*
X59679994Y-23319988D01*
X59679994Y-23438611D01*
X59710694Y-23553184D01*
X59710695Y-23553187D01*
X59748339Y-23618387D01*
X59770005Y-23655913D01*
X59853881Y-23739789D01*
X59879030Y-23754309D01*
X59936237Y-23787338D01*
X59959067Y-23817091D01*
X59954172Y-23854273D01*
X59932373Y-23873391D01*
X59932568Y-23873728D01*
X59930874Y-23874705D01*
X59930491Y-23875042D01*
X59929786Y-23875333D01*
X59827059Y-23934644D01*
X59827059Y-23934645D01*
X59743185Y-24018519D01*
X59743184Y-24018519D01*
X59683874Y-24121245D01*
X59683873Y-24121248D01*
X59653173Y-24235821D01*
X55396281Y-24235821D01*
X55460489Y-24171613D01*
X55519799Y-24068886D01*
X55545863Y-23971614D01*
X55550500Y-23954311D01*
X55550500Y-23835688D01*
X55519799Y-23721115D01*
X55519798Y-23721112D01*
X55482155Y-23655913D01*
X55460489Y-23618387D01*
X55376613Y-23534511D01*
X55353409Y-23521114D01*
X55273887Y-23475201D01*
X55273884Y-23475200D01*
X55159312Y-23444500D01*
X55159309Y-23444500D01*
X55040691Y-23444500D01*
X55040688Y-23444500D01*
X54926115Y-23475200D01*
X54926112Y-23475201D01*
X54823386Y-23534511D01*
X54823386Y-23534512D01*
X54739512Y-23618386D01*
X54739511Y-23618386D01*
X54680201Y-23721112D01*
X54680200Y-23721115D01*
X54649500Y-23835688D01*
X48765000Y-23835688D01*
X48765000Y-21391836D01*
X48779352Y-21357188D01*
X48787441Y-21351387D01*
X51109005Y-21351387D01*
X51109005Y-21470010D01*
X51139705Y-21584583D01*
X51139706Y-21584586D01*
X51147866Y-21598719D01*
X51199016Y-21687312D01*
X51282892Y-21771188D01*
X51385619Y-21830498D01*
X51414263Y-21838173D01*
X51500193Y-21861199D01*
X51500196Y-21861199D01*
X51618816Y-21861199D01*
X51680639Y-21844633D01*
X51733391Y-21830498D01*
X51836118Y-21771188D01*
X51919994Y-21687312D01*
X51979304Y-21584585D01*
X51998003Y-21514799D01*
X52010005Y-21470010D01*
X52010005Y-21351387D01*
X51983091Y-21250947D01*
X51979304Y-21236813D01*
X51919994Y-21134086D01*
X51836118Y-21050210D01*
X51810967Y-21035689D01*
X51810965Y-21035688D01*
X53649500Y-21035688D01*
X53649500Y-21154311D01*
X53680200Y-21268884D01*
X53680201Y-21268887D01*
X53717403Y-21333322D01*
X53739511Y-21371613D01*
X53823387Y-21455489D01*
X53926114Y-21514799D01*
X53954758Y-21522474D01*
X54040688Y-21545500D01*
X54040691Y-21545500D01*
X54159311Y-21545500D01*
X54216597Y-21530149D01*
X54273886Y-21514799D01*
X54376613Y-21455489D01*
X54396414Y-21435688D01*
X57049500Y-21435688D01*
X57049500Y-21554311D01*
X57080200Y-21668884D01*
X57080201Y-21668887D01*
X57099001Y-21701449D01*
X57139511Y-21771613D01*
X57223387Y-21855489D01*
X57326114Y-21914799D01*
X57354758Y-21922474D01*
X57440688Y-21945500D01*
X57440691Y-21945500D01*
X57559311Y-21945500D01*
X57616597Y-21930149D01*
X57673886Y-21914799D01*
X57776613Y-21855489D01*
X57860489Y-21771613D01*
X57919799Y-21668886D01*
X57938600Y-21598719D01*
X57950500Y-21554311D01*
X57950500Y-21435688D01*
X72049500Y-21435688D01*
X72049500Y-21554311D01*
X72080200Y-21668884D01*
X72080201Y-21668887D01*
X72099001Y-21701449D01*
X72139511Y-21771613D01*
X72223387Y-21855489D01*
X72326114Y-21914799D01*
X72354758Y-21922474D01*
X72440688Y-21945500D01*
X72440691Y-21945500D01*
X72559311Y-21945500D01*
X72616597Y-21930149D01*
X72673886Y-21914799D01*
X72776613Y-21855489D01*
X72860489Y-21771613D01*
X72919799Y-21668886D01*
X72938600Y-21598719D01*
X72950500Y-21554311D01*
X72950500Y-21435689D01*
X72934237Y-21374997D01*
X72934237Y-21374996D01*
X72931699Y-21365523D01*
X73950380Y-21365523D01*
X73950380Y-21484146D01*
X73981080Y-21598719D01*
X73981081Y-21598722D01*
X74032230Y-21687313D01*
X74040391Y-21701448D01*
X74124267Y-21785324D01*
X74226994Y-21844634D01*
X74255638Y-21852309D01*
X74341568Y-21875335D01*
X74341571Y-21875335D01*
X74460191Y-21875335D01*
X74517477Y-21859984D01*
X74574766Y-21844634D01*
X74677493Y-21785324D01*
X74761369Y-21701448D01*
X74820679Y-21598721D01*
X74843166Y-21514798D01*
X74851380Y-21484146D01*
X74851380Y-21365523D01*
X74828354Y-21279593D01*
X74820679Y-21250949D01*
X74819812Y-21249448D01*
X74789308Y-21196613D01*
X74761369Y-21148222D01*
X74677493Y-21064346D01*
X74627862Y-21035691D01*
X74574767Y-21005036D01*
X74574764Y-21005035D01*
X74460192Y-20974335D01*
X74460189Y-20974335D01*
X74341571Y-20974335D01*
X74341568Y-20974335D01*
X74226995Y-21005035D01*
X74226992Y-21005036D01*
X74124266Y-21064346D01*
X74124266Y-21064347D01*
X74040392Y-21148221D01*
X74040391Y-21148221D01*
X73981081Y-21250947D01*
X73981080Y-21250950D01*
X73950380Y-21365523D01*
X72931699Y-21365523D01*
X72919799Y-21321115D01*
X72919798Y-21321112D01*
X72879289Y-21250949D01*
X72860489Y-21218387D01*
X72776613Y-21134511D01*
X72706251Y-21093887D01*
X72673887Y-21075201D01*
X72673884Y-21075200D01*
X72559312Y-21044500D01*
X72559309Y-21044500D01*
X72440691Y-21044500D01*
X72440688Y-21044500D01*
X72326115Y-21075200D01*
X72326112Y-21075201D01*
X72223386Y-21134511D01*
X72223386Y-21134512D01*
X72139512Y-21218386D01*
X72139511Y-21218386D01*
X72080201Y-21321112D01*
X72080200Y-21321115D01*
X72049500Y-21435688D01*
X57950500Y-21435688D01*
X57919799Y-21321115D01*
X57919798Y-21321112D01*
X57879289Y-21250949D01*
X57860489Y-21218387D01*
X57776613Y-21134511D01*
X57706251Y-21093887D01*
X57673887Y-21075201D01*
X57673884Y-21075200D01*
X57559312Y-21044500D01*
X57559309Y-21044500D01*
X57440691Y-21044500D01*
X57440688Y-21044500D01*
X57326115Y-21075200D01*
X57326112Y-21075201D01*
X57223386Y-21134511D01*
X57223386Y-21134512D01*
X57139512Y-21218386D01*
X57139511Y-21218386D01*
X57080201Y-21321112D01*
X57080200Y-21321115D01*
X57049500Y-21435688D01*
X54396414Y-21435688D01*
X54460489Y-21371613D01*
X54519799Y-21268886D01*
X54539165Y-21196613D01*
X54550500Y-21154311D01*
X54550500Y-21035689D01*
X54520303Y-20922996D01*
X54520303Y-20922994D01*
X54520302Y-20922993D01*
X54519799Y-20921114D01*
X54515416Y-20913522D01*
X61333904Y-20913522D01*
X61333904Y-21032145D01*
X61364604Y-21146718D01*
X61364605Y-21146721D01*
X61416621Y-21236813D01*
X61423915Y-21249447D01*
X61507791Y-21333323D01*
X61539084Y-21351390D01*
X61609137Y-21391836D01*
X61610518Y-21392633D01*
X61639162Y-21400308D01*
X61725092Y-21423334D01*
X61725095Y-21423334D01*
X61843715Y-21423334D01*
X61901001Y-21407983D01*
X61958290Y-21392633D01*
X61958292Y-21392632D01*
X61962775Y-21390044D01*
X62005245Y-21365523D01*
X62061017Y-21333323D01*
X62144893Y-21249447D01*
X62204203Y-21146720D01*
X62231593Y-21044500D01*
X62234904Y-21032145D01*
X62234904Y-20913522D01*
X62204203Y-20798949D01*
X62204202Y-20798946D01*
X62188309Y-20771419D01*
X62144893Y-20696221D01*
X62061017Y-20612345D01*
X61958291Y-20553035D01*
X61958288Y-20553034D01*
X61843716Y-20522334D01*
X61843713Y-20522334D01*
X61725095Y-20522334D01*
X61725092Y-20522334D01*
X61610519Y-20553034D01*
X61610516Y-20553035D01*
X61507790Y-20612345D01*
X61507790Y-20612346D01*
X61423916Y-20696220D01*
X61423915Y-20696220D01*
X61364605Y-20798946D01*
X61364604Y-20798949D01*
X61333904Y-20913522D01*
X54515416Y-20913522D01*
X54460489Y-20818387D01*
X54376613Y-20734511D01*
X54273887Y-20675201D01*
X54273884Y-20675200D01*
X54159312Y-20644500D01*
X54159309Y-20644500D01*
X54040691Y-20644500D01*
X54040688Y-20644500D01*
X53926115Y-20675200D01*
X53926112Y-20675201D01*
X53823386Y-20734511D01*
X53823386Y-20734512D01*
X53739512Y-20818386D01*
X53739511Y-20818386D01*
X53680201Y-20921112D01*
X53680200Y-20921115D01*
X53649500Y-21035688D01*
X51810965Y-21035688D01*
X51733392Y-20990900D01*
X51733389Y-20990899D01*
X51618817Y-20960199D01*
X51618814Y-20960199D01*
X51500196Y-20960199D01*
X51500193Y-20960199D01*
X51385620Y-20990899D01*
X51385617Y-20990900D01*
X51282891Y-21050210D01*
X51282891Y-21050211D01*
X51199017Y-21134085D01*
X51199016Y-21134085D01*
X51139706Y-21236811D01*
X51139705Y-21236814D01*
X51109005Y-21351387D01*
X48787441Y-21351387D01*
X48792297Y-21347905D01*
X48796638Y-21345760D01*
X48818886Y-21339799D01*
X48921613Y-21280489D01*
X49005489Y-21196613D01*
X49064799Y-21093886D01*
X49081343Y-21032143D01*
X49095500Y-20979311D01*
X49095500Y-20860688D01*
X49064799Y-20746115D01*
X49064798Y-20746112D01*
X49010974Y-20652888D01*
X49005489Y-20643387D01*
X48921613Y-20559511D01*
X48818888Y-20500201D01*
X48818884Y-20500200D01*
X48801317Y-20495493D01*
X48771565Y-20472663D01*
X48765000Y-20448163D01*
X48765000Y-20143076D01*
X51189162Y-20143076D01*
X51189162Y-20261699D01*
X51219862Y-20376272D01*
X51219863Y-20376275D01*
X51275514Y-20472663D01*
X51279173Y-20479001D01*
X51363049Y-20562877D01*
X51465776Y-20622187D01*
X51494420Y-20629862D01*
X51580350Y-20652888D01*
X51580353Y-20652888D01*
X51698973Y-20652888D01*
X51756259Y-20637537D01*
X51813548Y-20622187D01*
X51916275Y-20562877D01*
X52000151Y-20479001D01*
X52045763Y-20399999D01*
X64128285Y-20399999D01*
X64128285Y-20518622D01*
X64158985Y-20633195D01*
X64158986Y-20633198D01*
X64195373Y-20696221D01*
X64218296Y-20735924D01*
X64302172Y-20819800D01*
X64404899Y-20879110D01*
X64433543Y-20886785D01*
X64519473Y-20909811D01*
X64519476Y-20909811D01*
X64638096Y-20909811D01*
X64695382Y-20894460D01*
X64752671Y-20879110D01*
X64855398Y-20819800D01*
X64939274Y-20735924D01*
X64998584Y-20633197D01*
X65018328Y-20559511D01*
X65029285Y-20518622D01*
X65029285Y-20399999D01*
X72060714Y-20399999D01*
X72060714Y-20518622D01*
X72091414Y-20633195D01*
X72091415Y-20633198D01*
X72127802Y-20696221D01*
X72150725Y-20735924D01*
X72234601Y-20819800D01*
X72337328Y-20879110D01*
X72365972Y-20886785D01*
X72451902Y-20909811D01*
X72451905Y-20909811D01*
X72570525Y-20909811D01*
X72627811Y-20894460D01*
X72685100Y-20879110D01*
X72787827Y-20819800D01*
X72871703Y-20735924D01*
X72931013Y-20633197D01*
X72950757Y-20559511D01*
X72961714Y-20518622D01*
X72961714Y-20399999D01*
X72938688Y-20314069D01*
X72931013Y-20285425D01*
X72871703Y-20182698D01*
X72787827Y-20098822D01*
X72712773Y-20055489D01*
X72685101Y-20039512D01*
X72685098Y-20039511D01*
X72570526Y-20008811D01*
X72570523Y-20008811D01*
X72451905Y-20008811D01*
X72451902Y-20008811D01*
X72337329Y-20039511D01*
X72337326Y-20039512D01*
X72234600Y-20098822D01*
X72234600Y-20098823D01*
X72150726Y-20182697D01*
X72150725Y-20182697D01*
X72091415Y-20285423D01*
X72091414Y-20285426D01*
X72060714Y-20399999D01*
X65029285Y-20399999D01*
X65006259Y-20314069D01*
X64998584Y-20285425D01*
X64939274Y-20182698D01*
X64855398Y-20098822D01*
X64780344Y-20055489D01*
X64752672Y-20039512D01*
X64752669Y-20039511D01*
X64638097Y-20008811D01*
X64638094Y-20008811D01*
X64519476Y-20008811D01*
X64519473Y-20008811D01*
X64404900Y-20039511D01*
X64404897Y-20039512D01*
X64302171Y-20098822D01*
X64302171Y-20098823D01*
X64218297Y-20182697D01*
X64218296Y-20182697D01*
X64158986Y-20285423D01*
X64158985Y-20285426D01*
X64128285Y-20399999D01*
X52045763Y-20399999D01*
X52059461Y-20376274D01*
X52083805Y-20285423D01*
X52090162Y-20261699D01*
X52090162Y-20143076D01*
X52059461Y-20028503D01*
X52059460Y-20028500D01*
X52000150Y-19925774D01*
X51916275Y-19841899D01*
X51870591Y-19815523D01*
X63138620Y-19815523D01*
X63138620Y-19934146D01*
X63169320Y-20048719D01*
X63169321Y-20048722D01*
X63207471Y-20114798D01*
X63228631Y-20151448D01*
X63312507Y-20235324D01*
X63415234Y-20294634D01*
X63443878Y-20302309D01*
X63529808Y-20325335D01*
X63529811Y-20325335D01*
X63648431Y-20325335D01*
X63705717Y-20309984D01*
X63763006Y-20294634D01*
X63865733Y-20235324D01*
X63949609Y-20151448D01*
X64008919Y-20048721D01*
X64029580Y-19971613D01*
X64039620Y-19934146D01*
X64039620Y-19815523D01*
X64008919Y-19700950D01*
X64008918Y-19700947D01*
X63949608Y-19598221D01*
X63865733Y-19514346D01*
X63797436Y-19474914D01*
X63763008Y-19455036D01*
X63763004Y-19455035D01*
X63690801Y-19435688D01*
X69049500Y-19435688D01*
X69049500Y-19554311D01*
X69080200Y-19668884D01*
X69080201Y-19668887D01*
X69139511Y-19771613D01*
X69223387Y-19855489D01*
X69326114Y-19914799D01*
X69354758Y-19922474D01*
X69440688Y-19945500D01*
X69440691Y-19945500D01*
X69559311Y-19945500D01*
X69632923Y-19925775D01*
X69673886Y-19914799D01*
X69776613Y-19855489D01*
X69860489Y-19771613D01*
X69919799Y-19668886D01*
X69928694Y-19635688D01*
X73649500Y-19635688D01*
X73649500Y-19754311D01*
X73680200Y-19868884D01*
X73680201Y-19868887D01*
X73739511Y-19971613D01*
X73823387Y-20055489D01*
X73926114Y-20114799D01*
X73954758Y-20122474D01*
X74040688Y-20145500D01*
X74040691Y-20145500D01*
X74159311Y-20145500D01*
X74216597Y-20130149D01*
X74273886Y-20114799D01*
X74376613Y-20055489D01*
X74460489Y-19971613D01*
X74519799Y-19868886D01*
X74535149Y-19811597D01*
X74550500Y-19754311D01*
X74550500Y-19635688D01*
X74519799Y-19521115D01*
X74519798Y-19521112D01*
X74489644Y-19468884D01*
X74460489Y-19418387D01*
X74376613Y-19334511D01*
X74353409Y-19321114D01*
X74273887Y-19275201D01*
X74273884Y-19275200D01*
X74159312Y-19244500D01*
X74159309Y-19244500D01*
X74040691Y-19244500D01*
X74040688Y-19244500D01*
X73926115Y-19275200D01*
X73926112Y-19275201D01*
X73823386Y-19334511D01*
X73823386Y-19334512D01*
X73739512Y-19418386D01*
X73739511Y-19418386D01*
X73680201Y-19521112D01*
X73680200Y-19521115D01*
X73649500Y-19635688D01*
X69928694Y-19635688D01*
X69950499Y-19554312D01*
X69950500Y-19554312D01*
X69950500Y-19435688D01*
X69919799Y-19321115D01*
X69919798Y-19321112D01*
X69870910Y-19236437D01*
X69860489Y-19218387D01*
X69776613Y-19134511D01*
X69753409Y-19121114D01*
X69673887Y-19075201D01*
X69673884Y-19075200D01*
X69559312Y-19044500D01*
X69559309Y-19044500D01*
X69440691Y-19044500D01*
X69440688Y-19044500D01*
X69326115Y-19075200D01*
X69326112Y-19075201D01*
X69223386Y-19134511D01*
X69223386Y-19134512D01*
X69139512Y-19218386D01*
X69139511Y-19218386D01*
X69080201Y-19321112D01*
X69080200Y-19321115D01*
X69049500Y-19435688D01*
X63690801Y-19435688D01*
X63648432Y-19424335D01*
X63648429Y-19424335D01*
X63529811Y-19424335D01*
X63529808Y-19424335D01*
X63415235Y-19455035D01*
X63415232Y-19455036D01*
X63312506Y-19514346D01*
X63312506Y-19514347D01*
X63228632Y-19598221D01*
X63228631Y-19598221D01*
X63169321Y-19700947D01*
X63169320Y-19700950D01*
X63138620Y-19815523D01*
X51870591Y-19815523D01*
X51813549Y-19782589D01*
X51813546Y-19782588D01*
X51698974Y-19751888D01*
X51698971Y-19751888D01*
X51580353Y-19751888D01*
X51580350Y-19751888D01*
X51465777Y-19782588D01*
X51465774Y-19782589D01*
X51363048Y-19841899D01*
X51363048Y-19841900D01*
X51279174Y-19925774D01*
X51279173Y-19925774D01*
X51219863Y-20028500D01*
X51219862Y-20028503D01*
X51189162Y-20143076D01*
X48765000Y-20143076D01*
X48765000Y-19235688D01*
X58049500Y-19235688D01*
X58049500Y-19354311D01*
X58080200Y-19468884D01*
X58080201Y-19468887D01*
X58129522Y-19554312D01*
X58139511Y-19571613D01*
X58223387Y-19655489D01*
X58326114Y-19714799D01*
X58354758Y-19722474D01*
X58440688Y-19745500D01*
X58440691Y-19745500D01*
X58559311Y-19745500D01*
X58616597Y-19730149D01*
X58673886Y-19714799D01*
X58776613Y-19655489D01*
X58860489Y-19571613D01*
X58919799Y-19468886D01*
X58935149Y-19411597D01*
X58950500Y-19354311D01*
X58950500Y-19235688D01*
X58919799Y-19121115D01*
X58919798Y-19121111D01*
X58892521Y-19073867D01*
X58887626Y-19036685D01*
X58901755Y-19015564D01*
X58900649Y-19014458D01*
X58986795Y-18928312D01*
X58986796Y-18928311D01*
X59046106Y-18825584D01*
X59048504Y-18816636D01*
X64090645Y-18816636D01*
X64090645Y-18935259D01*
X64121345Y-19049832D01*
X64121346Y-19049835D01*
X64162498Y-19121111D01*
X64180656Y-19152561D01*
X64264532Y-19236437D01*
X64367259Y-19295747D01*
X64395903Y-19303422D01*
X64481833Y-19326448D01*
X64481836Y-19326448D01*
X64600456Y-19326448D01*
X64657742Y-19311097D01*
X64715031Y-19295747D01*
X64817758Y-19236437D01*
X64901634Y-19152561D01*
X64960944Y-19049834D01*
X64976294Y-18992545D01*
X64991645Y-18935259D01*
X64991645Y-18816636D01*
X64960944Y-18702063D01*
X64960943Y-18702060D01*
X64901633Y-18599334D01*
X64817758Y-18515459D01*
X64715032Y-18456149D01*
X64715029Y-18456148D01*
X64600457Y-18425448D01*
X64600454Y-18425448D01*
X64481836Y-18425448D01*
X64481833Y-18425448D01*
X64367260Y-18456148D01*
X64367257Y-18456149D01*
X64264531Y-18515459D01*
X64264531Y-18515460D01*
X64180657Y-18599334D01*
X64180656Y-18599334D01*
X64121346Y-18702060D01*
X64121345Y-18702063D01*
X64090645Y-18816636D01*
X59048504Y-18816636D01*
X59052762Y-18800745D01*
X59076807Y-18711009D01*
X59076807Y-18592386D01*
X59046106Y-18477813D01*
X59046105Y-18477810D01*
X58986795Y-18375084D01*
X58902920Y-18291209D01*
X58800194Y-18231899D01*
X58800191Y-18231898D01*
X58685619Y-18201198D01*
X58685616Y-18201198D01*
X58566998Y-18201198D01*
X58566995Y-18201198D01*
X58452422Y-18231898D01*
X58452419Y-18231899D01*
X58349693Y-18291209D01*
X58349693Y-18291210D01*
X58265819Y-18375084D01*
X58265818Y-18375084D01*
X58206508Y-18477810D01*
X58206507Y-18477813D01*
X58175807Y-18592386D01*
X58175807Y-18711009D01*
X58206507Y-18825582D01*
X58206508Y-18825586D01*
X58233785Y-18872830D01*
X58238680Y-18910012D01*
X58224566Y-18931149D01*
X58225657Y-18932240D01*
X58139511Y-19018386D01*
X58080201Y-19121112D01*
X58080200Y-19121115D01*
X58049500Y-19235688D01*
X48765000Y-19235688D01*
X48765000Y-17485688D01*
X55049500Y-17485688D01*
X55049500Y-17604311D01*
X55080200Y-17718884D01*
X55080201Y-17718887D01*
X55110643Y-17771613D01*
X55139511Y-17821613D01*
X55223387Y-17905489D01*
X55326114Y-17964799D01*
X55351544Y-17971613D01*
X55440688Y-17995500D01*
X55440691Y-17995500D01*
X55559311Y-17995500D01*
X55616597Y-17980149D01*
X55673886Y-17964799D01*
X55776613Y-17905489D01*
X55860489Y-17821613D01*
X55919799Y-17718886D01*
X55942092Y-17635688D01*
X55950500Y-17604311D01*
X55950500Y-17485688D01*
X55919799Y-17371115D01*
X55919798Y-17371112D01*
X55864423Y-17275201D01*
X55860489Y-17268387D01*
X55827790Y-17235688D01*
X57649500Y-17235688D01*
X57649500Y-17354311D01*
X57680200Y-17468884D01*
X57680201Y-17468887D01*
X57729522Y-17554312D01*
X57739511Y-17571613D01*
X57823387Y-17655489D01*
X57926114Y-17714799D01*
X57954758Y-17722474D01*
X58040688Y-17745500D01*
X58040691Y-17745500D01*
X58159311Y-17745500D01*
X58216597Y-17730149D01*
X58273886Y-17714799D01*
X58376613Y-17655489D01*
X58460489Y-17571613D01*
X58519799Y-17468886D01*
X58528694Y-17435688D01*
X67088730Y-17435688D01*
X67088730Y-17554311D01*
X67119430Y-17668884D01*
X67119431Y-17668887D01*
X67178741Y-17771613D01*
X67262617Y-17855489D01*
X67365344Y-17914799D01*
X67393988Y-17922474D01*
X67479918Y-17945500D01*
X67479921Y-17945500D01*
X67598539Y-17945500D01*
X67601720Y-17945081D01*
X67601938Y-17946743D01*
X67633727Y-17950922D01*
X67656563Y-17980670D01*
X67656565Y-17980679D01*
X67680201Y-18068886D01*
X67680201Y-18068887D01*
X67739511Y-18171613D01*
X67823387Y-18255489D01*
X67926114Y-18314799D01*
X67954758Y-18322474D01*
X68040688Y-18345500D01*
X68040691Y-18345500D01*
X68159311Y-18345500D01*
X68216597Y-18330149D01*
X68273886Y-18314799D01*
X68376613Y-18255489D01*
X68460489Y-18171613D01*
X68519799Y-18068886D01*
X68545863Y-17971614D01*
X68550500Y-17954311D01*
X68550500Y-17835688D01*
X68519799Y-17721115D01*
X68519798Y-17721112D01*
X68481909Y-17655488D01*
X68460489Y-17618387D01*
X68376613Y-17534511D01*
X68353409Y-17521114D01*
X68273889Y-17475202D01*
X68273884Y-17475200D01*
X68159312Y-17444500D01*
X68159309Y-17444500D01*
X68040691Y-17444500D01*
X68040688Y-17444500D01*
X68037504Y-17444919D01*
X68037285Y-17443261D01*
X68005483Y-17439066D01*
X68002892Y-17435688D01*
X69049500Y-17435688D01*
X69049500Y-17554311D01*
X69080200Y-17668884D01*
X69080201Y-17668887D01*
X69139511Y-17771613D01*
X69223387Y-17855489D01*
X69326114Y-17914799D01*
X69354758Y-17922474D01*
X69440688Y-17945500D01*
X69440691Y-17945500D01*
X69559311Y-17945500D01*
X69616597Y-17930149D01*
X69673886Y-17914799D01*
X69776613Y-17855489D01*
X69860489Y-17771613D01*
X69919799Y-17668886D01*
X69928694Y-17635688D01*
X73649500Y-17635688D01*
X73649500Y-17754311D01*
X73680200Y-17868884D01*
X73680201Y-17868887D01*
X73735576Y-17964798D01*
X73739511Y-17971613D01*
X73823387Y-18055489D01*
X73926114Y-18114799D01*
X73954758Y-18122474D01*
X74040688Y-18145500D01*
X74040691Y-18145500D01*
X74159311Y-18145500D01*
X74216597Y-18130149D01*
X74273886Y-18114799D01*
X74376613Y-18055489D01*
X74460489Y-17971613D01*
X74519799Y-17868886D01*
X74545863Y-17771614D01*
X74550500Y-17754311D01*
X74550500Y-17635689D01*
X74541441Y-17601884D01*
X74527125Y-17548455D01*
X74532019Y-17511276D01*
X74561770Y-17488446D01*
X74574766Y-17484964D01*
X74677493Y-17425654D01*
X74761369Y-17341778D01*
X74820679Y-17239051D01*
X74836029Y-17181762D01*
X74851380Y-17124476D01*
X74851380Y-17005853D01*
X74820679Y-16891280D01*
X74820678Y-16891277D01*
X74761368Y-16788551D01*
X74677493Y-16704676D01*
X74574767Y-16645366D01*
X74574764Y-16645365D01*
X74460192Y-16614665D01*
X74460189Y-16614665D01*
X74341571Y-16614665D01*
X74341568Y-16614665D01*
X74226995Y-16645365D01*
X74226992Y-16645366D01*
X74124266Y-16704676D01*
X74124266Y-16704677D01*
X74040392Y-16788551D01*
X74040391Y-16788551D01*
X73981081Y-16891277D01*
X73981080Y-16891280D01*
X73950380Y-17005853D01*
X73950380Y-17124477D01*
X73973753Y-17211707D01*
X73968858Y-17248889D01*
X73939107Y-17271719D01*
X73926114Y-17275200D01*
X73926111Y-17275201D01*
X73823386Y-17334511D01*
X73823386Y-17334512D01*
X73739512Y-17418386D01*
X73739511Y-17418386D01*
X73680201Y-17521112D01*
X73680200Y-17521115D01*
X73649500Y-17635688D01*
X69928694Y-17635688D01*
X69950499Y-17554312D01*
X69950500Y-17554312D01*
X69950500Y-17435688D01*
X69919799Y-17321115D01*
X69919798Y-17321112D01*
X69893290Y-17275200D01*
X69860489Y-17218387D01*
X69776613Y-17134511D01*
X69753409Y-17121114D01*
X69673887Y-17075201D01*
X69673884Y-17075200D01*
X69559312Y-17044500D01*
X69559309Y-17044500D01*
X69440691Y-17044500D01*
X69440688Y-17044500D01*
X69326115Y-17075200D01*
X69326112Y-17075201D01*
X69223386Y-17134511D01*
X69223386Y-17134512D01*
X69139512Y-17218386D01*
X69139511Y-17218386D01*
X69080201Y-17321112D01*
X69080200Y-17321115D01*
X69049500Y-17435688D01*
X68002892Y-17435688D01*
X67982664Y-17409319D01*
X67959029Y-17321115D01*
X67959028Y-17321112D01*
X67932520Y-17275200D01*
X67899719Y-17218387D01*
X67815843Y-17134511D01*
X67792639Y-17121114D01*
X67713117Y-17075201D01*
X67713114Y-17075200D01*
X67598542Y-17044500D01*
X67598539Y-17044500D01*
X67479921Y-17044500D01*
X67479918Y-17044500D01*
X67365345Y-17075200D01*
X67365342Y-17075201D01*
X67262616Y-17134511D01*
X67262616Y-17134512D01*
X67178742Y-17218386D01*
X67178741Y-17218386D01*
X67119431Y-17321112D01*
X67119430Y-17321115D01*
X67088730Y-17435688D01*
X58528694Y-17435688D01*
X58550499Y-17354312D01*
X58550500Y-17354312D01*
X58550500Y-17235688D01*
X58519799Y-17121115D01*
X58519798Y-17121112D01*
X58460488Y-17018386D01*
X58376613Y-16934511D01*
X58273887Y-16875201D01*
X58273884Y-16875200D01*
X58159312Y-16844500D01*
X58159309Y-16844500D01*
X58040691Y-16844500D01*
X58040688Y-16844500D01*
X57926115Y-16875200D01*
X57926112Y-16875201D01*
X57823386Y-16934511D01*
X57823386Y-16934512D01*
X57739512Y-17018386D01*
X57739511Y-17018386D01*
X57680201Y-17121112D01*
X57680200Y-17121115D01*
X57649500Y-17235688D01*
X55827790Y-17235688D01*
X55776613Y-17184511D01*
X55673887Y-17125201D01*
X55673884Y-17125200D01*
X55559312Y-17094500D01*
X55559309Y-17094500D01*
X55440691Y-17094500D01*
X55440688Y-17094500D01*
X55326115Y-17125200D01*
X55326112Y-17125201D01*
X55223386Y-17184511D01*
X55223386Y-17184512D01*
X55139512Y-17268386D01*
X55139511Y-17268386D01*
X55080201Y-17371112D01*
X55080200Y-17371115D01*
X55049500Y-17485688D01*
X48765000Y-17485688D01*
X48765000Y-15035688D01*
X57049500Y-15035688D01*
X57049500Y-15154311D01*
X57080200Y-15268884D01*
X57080201Y-15268887D01*
X57139511Y-15371613D01*
X57223387Y-15455489D01*
X57326114Y-15514799D01*
X57354758Y-15522474D01*
X57440688Y-15545500D01*
X57440691Y-15545500D01*
X57559311Y-15545500D01*
X57616597Y-15530149D01*
X57673886Y-15514799D01*
X57776613Y-15455489D01*
X57860489Y-15371613D01*
X57919799Y-15268886D01*
X57935149Y-15211597D01*
X57950500Y-15154311D01*
X57950500Y-15035688D01*
X57919799Y-14921115D01*
X57919798Y-14921112D01*
X57860488Y-14818386D01*
X57776613Y-14734511D01*
X57673889Y-14675202D01*
X57673884Y-14675200D01*
X57559312Y-14644500D01*
X57559309Y-14644500D01*
X57440691Y-14644500D01*
X57440688Y-14644500D01*
X57326115Y-14675200D01*
X57326112Y-14675201D01*
X57223386Y-14734511D01*
X57223386Y-14734512D01*
X57139512Y-14818386D01*
X57139511Y-14818386D01*
X57080201Y-14921112D01*
X57080200Y-14921115D01*
X57049500Y-15035688D01*
X48765000Y-15035688D01*
X48765000Y-14635688D01*
X66999500Y-14635688D01*
X66999500Y-14754311D01*
X67030200Y-14868884D01*
X67030201Y-14868887D01*
X67089511Y-14971613D01*
X67173387Y-15055489D01*
X67276114Y-15114799D01*
X67304758Y-15122474D01*
X67390688Y-15145500D01*
X67390691Y-15145500D01*
X67509311Y-15145500D01*
X67566597Y-15130149D01*
X67623886Y-15114799D01*
X67726613Y-15055489D01*
X67810489Y-14971613D01*
X67869799Y-14868886D01*
X67885149Y-14811597D01*
X67900500Y-14754311D01*
X67900500Y-14635688D01*
X67869799Y-14521115D01*
X67869798Y-14521112D01*
X67810488Y-14418386D01*
X67726613Y-14334511D01*
X67623887Y-14275201D01*
X67623884Y-14275200D01*
X67509312Y-14244500D01*
X67509309Y-14244500D01*
X67390691Y-14244500D01*
X67390688Y-14244500D01*
X67276115Y-14275200D01*
X67276112Y-14275201D01*
X67173386Y-14334511D01*
X67173386Y-14334512D01*
X67089512Y-14418386D01*
X67089511Y-14418386D01*
X67030201Y-14521112D01*
X67030200Y-14521115D01*
X66999500Y-14635688D01*
X48765000Y-14635688D01*
X48765000Y-13251387D01*
X51109005Y-13251387D01*
X51109005Y-13370010D01*
X51139705Y-13484583D01*
X51139706Y-13484586D01*
X51166208Y-13530488D01*
X51199016Y-13587312D01*
X51282892Y-13671188D01*
X51385619Y-13730498D01*
X51414263Y-13738173D01*
X51500193Y-13761199D01*
X51500196Y-13761199D01*
X51618816Y-13761199D01*
X51629295Y-13758391D01*
X59598382Y-13758391D01*
X59598382Y-13877014D01*
X59629082Y-13991587D01*
X59629083Y-13991590D01*
X59688393Y-14094316D01*
X59772269Y-14178192D01*
X59874996Y-14237502D01*
X59901113Y-14244500D01*
X59989570Y-14268203D01*
X59989573Y-14268203D01*
X60108193Y-14268203D01*
X60165479Y-14252852D01*
X60222768Y-14237502D01*
X60325495Y-14178192D01*
X60409371Y-14094316D01*
X60468681Y-13991589D01*
X60484031Y-13934300D01*
X60499382Y-13877014D01*
X60499382Y-13758391D01*
X60468681Y-13643818D01*
X60468680Y-13643815D01*
X60436058Y-13587313D01*
X60409371Y-13541090D01*
X60325495Y-13457214D01*
X60222769Y-13397904D01*
X60222766Y-13397903D01*
X60108194Y-13367203D01*
X60108191Y-13367203D01*
X59989573Y-13367203D01*
X59989570Y-13367203D01*
X59874997Y-13397903D01*
X59874994Y-13397904D01*
X59772268Y-13457214D01*
X59772268Y-13457215D01*
X59688394Y-13541089D01*
X59688393Y-13541089D01*
X59629083Y-13643815D01*
X59629082Y-13643818D01*
X59598382Y-13758391D01*
X51629295Y-13758391D01*
X51676102Y-13745848D01*
X51733391Y-13730498D01*
X51733393Y-13730497D01*
X51764137Y-13712747D01*
X51783679Y-13701463D01*
X51836118Y-13671188D01*
X51919994Y-13587312D01*
X51979304Y-13484585D01*
X51994654Y-13427296D01*
X52010005Y-13370010D01*
X52010005Y-13251387D01*
X51979304Y-13136814D01*
X51979303Y-13136811D01*
X51919993Y-13034085D01*
X51836118Y-12950210D01*
X51733392Y-12890900D01*
X51733389Y-12890899D01*
X51618817Y-12860199D01*
X51618814Y-12860199D01*
X51500196Y-12860199D01*
X51500193Y-12860199D01*
X51385620Y-12890899D01*
X51385617Y-12890900D01*
X51282891Y-12950210D01*
X51282891Y-12950211D01*
X51199017Y-13034085D01*
X51199016Y-13034085D01*
X51139706Y-13136811D01*
X51139705Y-13136814D01*
X51109005Y-13251387D01*
X48765000Y-13251387D01*
X48765000Y-12610688D01*
X59457000Y-12610688D01*
X59457000Y-12729311D01*
X59487700Y-12843884D01*
X59487701Y-12843887D01*
X59547011Y-12946613D01*
X59630887Y-13030489D01*
X59733614Y-13089799D01*
X59762258Y-13097474D01*
X59848188Y-13120500D01*
X59848191Y-13120500D01*
X59966811Y-13120500D01*
X60003427Y-13110688D01*
X68125813Y-13110688D01*
X68125813Y-13229311D01*
X68156513Y-13343884D01*
X68156514Y-13343887D01*
X68215824Y-13446613D01*
X68299700Y-13530489D01*
X68402427Y-13589799D01*
X68431071Y-13597474D01*
X68517001Y-13620500D01*
X68517004Y-13620500D01*
X68635624Y-13620500D01*
X68692910Y-13605149D01*
X68750199Y-13589799D01*
X68852926Y-13530489D01*
X68936802Y-13446613D01*
X68996112Y-13343886D01*
X69011462Y-13286597D01*
X69026813Y-13229311D01*
X69026813Y-13110688D01*
X68996112Y-12996115D01*
X68996111Y-12996112D01*
X68936801Y-12893386D01*
X68852926Y-12809511D01*
X68750200Y-12750201D01*
X68750197Y-12750200D01*
X68635625Y-12719500D01*
X68635622Y-12719500D01*
X68517004Y-12719500D01*
X68517001Y-12719500D01*
X68402428Y-12750200D01*
X68402425Y-12750201D01*
X68299699Y-12809511D01*
X68299699Y-12809512D01*
X68215825Y-12893386D01*
X68215824Y-12893386D01*
X68156514Y-12996112D01*
X68156513Y-12996115D01*
X68125813Y-13110688D01*
X60003427Y-13110688D01*
X60024097Y-13105149D01*
X60081386Y-13089799D01*
X60184113Y-13030489D01*
X60267989Y-12946613D01*
X60327299Y-12843886D01*
X60352402Y-12750201D01*
X60358000Y-12729311D01*
X60358000Y-12610688D01*
X60327299Y-12496115D01*
X60327298Y-12496112D01*
X60267988Y-12393386D01*
X60184113Y-12309511D01*
X60081387Y-12250201D01*
X60081384Y-12250200D01*
X59966812Y-12219500D01*
X59966809Y-12219500D01*
X59848191Y-12219500D01*
X59848188Y-12219500D01*
X59733615Y-12250200D01*
X59733612Y-12250201D01*
X59630886Y-12309511D01*
X59630886Y-12309512D01*
X59547012Y-12393386D01*
X59547011Y-12393386D01*
X59487701Y-12496112D01*
X59487700Y-12496115D01*
X59457000Y-12610688D01*
X48765000Y-12610688D01*
X48765000Y-11035688D01*
X60849500Y-11035688D01*
X60849500Y-11154311D01*
X60880200Y-11268884D01*
X60880201Y-11268887D01*
X60918090Y-11334511D01*
X60939511Y-11371613D01*
X61023387Y-11455489D01*
X61126114Y-11514799D01*
X61169511Y-11526427D01*
X61224127Y-11541062D01*
X61253880Y-11563892D01*
X61258775Y-11601074D01*
X61249500Y-11635688D01*
X61249500Y-11754311D01*
X61280200Y-11868884D01*
X61280201Y-11868887D01*
X61339511Y-11971613D01*
X61423387Y-12055489D01*
X61526114Y-12114799D01*
X61554758Y-12122474D01*
X61640688Y-12145500D01*
X61640691Y-12145500D01*
X61759311Y-12145500D01*
X61816597Y-12130149D01*
X61873886Y-12114799D01*
X61976613Y-12055489D01*
X62060489Y-11971613D01*
X62119799Y-11868886D01*
X62135149Y-11811597D01*
X62150500Y-11754311D01*
X62150500Y-11635688D01*
X62119799Y-11521115D01*
X62119798Y-11521112D01*
X62060488Y-11418386D01*
X61976613Y-11334511D01*
X61873887Y-11275201D01*
X61775871Y-11248937D01*
X61746119Y-11226107D01*
X61741224Y-11188925D01*
X61750500Y-11154309D01*
X61750500Y-11035691D01*
X61750500Y-11035688D01*
X61719799Y-10921115D01*
X61719798Y-10921112D01*
X61681909Y-10855488D01*
X61660489Y-10818387D01*
X61576613Y-10734511D01*
X61482848Y-10680375D01*
X61473887Y-10675201D01*
X61473884Y-10675200D01*
X61359312Y-10644500D01*
X61359309Y-10644500D01*
X61240691Y-10644500D01*
X61240688Y-10644500D01*
X61126115Y-10675200D01*
X61126112Y-10675201D01*
X61023386Y-10734511D01*
X61023386Y-10734512D01*
X60939512Y-10818386D01*
X60939511Y-10818386D01*
X60880201Y-10921112D01*
X60880200Y-10921115D01*
X60849500Y-11035688D01*
X48765000Y-11035688D01*
X48765000Y-10429142D01*
X57933939Y-10429142D01*
X57933939Y-10547765D01*
X57964639Y-10662338D01*
X57964640Y-10662341D01*
X58006308Y-10734511D01*
X58023950Y-10765067D01*
X58107826Y-10848943D01*
X58210553Y-10908253D01*
X58234979Y-10914798D01*
X58325127Y-10938954D01*
X58325130Y-10938954D01*
X58443750Y-10938954D01*
X58501036Y-10923603D01*
X58558325Y-10908253D01*
X58661052Y-10848943D01*
X58744928Y-10765067D01*
X58804238Y-10662340D01*
X58823524Y-10590363D01*
X58834939Y-10547765D01*
X58834939Y-10435688D01*
X59449500Y-10435688D01*
X59449500Y-10554311D01*
X59480200Y-10668884D01*
X59480201Y-10668887D01*
X59535732Y-10765067D01*
X59539511Y-10771613D01*
X59623387Y-10855489D01*
X59726114Y-10914799D01*
X59754758Y-10922474D01*
X59840688Y-10945500D01*
X59840691Y-10945500D01*
X59959311Y-10945500D01*
X60016597Y-10930149D01*
X60073886Y-10914799D01*
X60176613Y-10855489D01*
X60260489Y-10771613D01*
X60319799Y-10668886D01*
X60340839Y-10590364D01*
X60350500Y-10554311D01*
X60350500Y-10435688D01*
X60319799Y-10321115D01*
X60319798Y-10321112D01*
X60260488Y-10218386D01*
X60212665Y-10170563D01*
X66561526Y-10170563D01*
X66561526Y-10289186D01*
X66592226Y-10403759D01*
X66592227Y-10403762D01*
X66610660Y-10435688D01*
X66651537Y-10506488D01*
X66735413Y-10590364D01*
X66838140Y-10649674D01*
X66866784Y-10657349D01*
X66952714Y-10680375D01*
X66952717Y-10680375D01*
X67071337Y-10680375D01*
X67138642Y-10662340D01*
X67185912Y-10649674D01*
X67288639Y-10590364D01*
X67372515Y-10506488D01*
X67431825Y-10403761D01*
X67453970Y-10321115D01*
X67462526Y-10289186D01*
X67462526Y-10170563D01*
X67435219Y-10068655D01*
X67431825Y-10055989D01*
X67372515Y-9953262D01*
X67288639Y-9869386D01*
X67185913Y-9810076D01*
X67185910Y-9810075D01*
X67071338Y-9779375D01*
X67071335Y-9779375D01*
X66952717Y-9779375D01*
X66952714Y-9779375D01*
X66838141Y-9810075D01*
X66838138Y-9810076D01*
X66735412Y-9869386D01*
X66735412Y-9869387D01*
X66651538Y-9953261D01*
X66651537Y-9953261D01*
X66592227Y-10055987D01*
X66592226Y-10055990D01*
X66561526Y-10170563D01*
X60212665Y-10170563D01*
X60176613Y-10134511D01*
X60073887Y-10075201D01*
X60073884Y-10075200D01*
X59959312Y-10044500D01*
X59959309Y-10044500D01*
X59840691Y-10044500D01*
X59840688Y-10044500D01*
X59726115Y-10075200D01*
X59726112Y-10075201D01*
X59623386Y-10134511D01*
X59623386Y-10134512D01*
X59539512Y-10218386D01*
X59539511Y-10218386D01*
X59480201Y-10321112D01*
X59480200Y-10321115D01*
X59449500Y-10435688D01*
X58834939Y-10435688D01*
X58834939Y-10429142D01*
X58804238Y-10314569D01*
X58804237Y-10314566D01*
X58748707Y-10218387D01*
X58744928Y-10211841D01*
X58661052Y-10127965D01*
X58558326Y-10068655D01*
X58558323Y-10068654D01*
X58443751Y-10037954D01*
X58443748Y-10037954D01*
X58325130Y-10037954D01*
X58325127Y-10037954D01*
X58210554Y-10068654D01*
X58210551Y-10068655D01*
X58107825Y-10127965D01*
X58107825Y-10127966D01*
X58023951Y-10211840D01*
X58023950Y-10211840D01*
X57964640Y-10314566D01*
X57964639Y-10314569D01*
X57933939Y-10429142D01*
X48765000Y-10429142D01*
X48765000Y-8140260D01*
X59572587Y-8140260D01*
X59572587Y-8258883D01*
X59603287Y-8373456D01*
X59603288Y-8373459D01*
X59662598Y-8476185D01*
X59746474Y-8560061D01*
X59849201Y-8619371D01*
X59877845Y-8627046D01*
X59963775Y-8650072D01*
X59963778Y-8650072D01*
X60082398Y-8650072D01*
X60139684Y-8634721D01*
X60196973Y-8619371D01*
X60299700Y-8560061D01*
X60383576Y-8476185D01*
X60442886Y-8373458D01*
X60458236Y-8316169D01*
X60473587Y-8258883D01*
X60473587Y-8140260D01*
X60442886Y-8025687D01*
X60442885Y-8025684D01*
X60426992Y-7998157D01*
X60383576Y-7922959D01*
X60299700Y-7839083D01*
X60196974Y-7779773D01*
X60196971Y-7779772D01*
X60082399Y-7749072D01*
X60082396Y-7749072D01*
X59963778Y-7749072D01*
X59963775Y-7749072D01*
X59849202Y-7779772D01*
X59849199Y-7779773D01*
X59746473Y-7839083D01*
X59746473Y-7839084D01*
X59662599Y-7922958D01*
X59662598Y-7922958D01*
X59603288Y-8025684D01*
X59603287Y-8025687D01*
X59572587Y-8140260D01*
X48765000Y-8140260D01*
X48765000Y-7445229D01*
X61509022Y-7445229D01*
X61509022Y-7563852D01*
X61539722Y-7678425D01*
X61539723Y-7678428D01*
X61580510Y-7749072D01*
X61599033Y-7781154D01*
X61682909Y-7865030D01*
X61785636Y-7924340D01*
X61814280Y-7932015D01*
X61900210Y-7955041D01*
X61900213Y-7955041D01*
X62018833Y-7955041D01*
X62076119Y-7939690D01*
X62133408Y-7924340D01*
X62236135Y-7865030D01*
X62320011Y-7781154D01*
X62379321Y-7678427D01*
X62394671Y-7621138D01*
X62410022Y-7563852D01*
X62410022Y-7445229D01*
X62379321Y-7330656D01*
X62379320Y-7330653D01*
X62320010Y-7227927D01*
X62236135Y-7144052D01*
X62133409Y-7084742D01*
X62133406Y-7084741D01*
X62018834Y-7054041D01*
X62018831Y-7054041D01*
X61900213Y-7054041D01*
X61900210Y-7054041D01*
X61785637Y-7084741D01*
X61785634Y-7084742D01*
X61682908Y-7144052D01*
X61682908Y-7144053D01*
X61599034Y-7227927D01*
X61599033Y-7227927D01*
X61539723Y-7330653D01*
X61539722Y-7330656D01*
X61509022Y-7445229D01*
X48765000Y-7445229D01*
X48765000Y-5645229D01*
X58459022Y-5645229D01*
X58459022Y-5763852D01*
X58489722Y-5878425D01*
X58489723Y-5878428D01*
X58549033Y-5981154D01*
X58632909Y-6065030D01*
X58735636Y-6124340D01*
X58764280Y-6132015D01*
X58850210Y-6155041D01*
X58850213Y-6155041D01*
X58968833Y-6155041D01*
X59026119Y-6139690D01*
X59083408Y-6124340D01*
X59186135Y-6065030D01*
X59270011Y-5981154D01*
X59329321Y-5878427D01*
X59344671Y-5821138D01*
X59360022Y-5763852D01*
X59360022Y-5645229D01*
X59329321Y-5530656D01*
X59329320Y-5530653D01*
X59270010Y-5427927D01*
X59186135Y-5344052D01*
X59083409Y-5284742D01*
X59083406Y-5284741D01*
X58968834Y-5254041D01*
X58968831Y-5254041D01*
X58850213Y-5254041D01*
X58850210Y-5254041D01*
X58735637Y-5284741D01*
X58735634Y-5284742D01*
X58632908Y-5344052D01*
X58632908Y-5344053D01*
X58549034Y-5427927D01*
X58549033Y-5427927D01*
X58489723Y-5530653D01*
X58489722Y-5530656D01*
X58459022Y-5645229D01*
X48765000Y-5645229D01*
X48765000Y-2152157D01*
X50539522Y-2152157D01*
X50539522Y-2270780D01*
X50570222Y-2385353D01*
X50570223Y-2385356D01*
X50629533Y-2488082D01*
X50713409Y-2571958D01*
X50816136Y-2631268D01*
X50844780Y-2638943D01*
X50930710Y-2661969D01*
X50930713Y-2661969D01*
X51049333Y-2661969D01*
X51106619Y-2646618D01*
X51163908Y-2631268D01*
X51266635Y-2571958D01*
X51350511Y-2488082D01*
X51409821Y-2385355D01*
X51425171Y-2328066D01*
X51440522Y-2270780D01*
X51440522Y-2152157D01*
X51409821Y-2037584D01*
X51409820Y-2037581D01*
X51350510Y-1934855D01*
X51266635Y-1850980D01*
X51163909Y-1791670D01*
X51163906Y-1791669D01*
X51049334Y-1760969D01*
X51049331Y-1760969D01*
X50930713Y-1760969D01*
X50930710Y-1760969D01*
X50816137Y-1791669D01*
X50816134Y-1791670D01*
X50713408Y-1850980D01*
X50713408Y-1850981D01*
X50629534Y-1934855D01*
X50629533Y-1934855D01*
X50570223Y-2037581D01*
X50570222Y-2037584D01*
X50539522Y-2152157D01*
X48765000Y-2152157D01*
X48765000Y-944500D01*
X48779352Y-909852D01*
X48814000Y-895500D01*
X80440500Y-895500D01*
X80475148Y-909852D01*
G37*
%TD.AperFunction*%
%TD*%
%TA.AperFunction,Conductor*%
%TO.N,/GND*%
G36*
X25130310Y-909852D02*
G01*
X25144662Y-944500D01*
X25130310Y-979148D01*
X25120166Y-986931D01*
X25116928Y-988802D01*
X25116925Y-988804D01*
X25033053Y-1072677D01*
X25033052Y-1072677D01*
X24973742Y-1175403D01*
X24973741Y-1175406D01*
X24943041Y-1289979D01*
X24943041Y-1408602D01*
X24973741Y-1523175D01*
X24973742Y-1523178D01*
X25033052Y-1625904D01*
X25116928Y-1709780D01*
X25219655Y-1769090D01*
X25248299Y-1776765D01*
X25334229Y-1799791D01*
X25334232Y-1799791D01*
X25452852Y-1799791D01*
X25510138Y-1784440D01*
X25567427Y-1769090D01*
X25670154Y-1709780D01*
X25754030Y-1625904D01*
X25813340Y-1523177D01*
X25839647Y-1425000D01*
X25844041Y-1408602D01*
X25844041Y-1289979D01*
X25813340Y-1175406D01*
X25813339Y-1175403D01*
X25754029Y-1072677D01*
X25670156Y-988804D01*
X25670154Y-988802D01*
X25666917Y-986933D01*
X25644089Y-957181D01*
X25648985Y-919999D01*
X25678739Y-897169D01*
X25691420Y-895500D01*
X29146000Y-895500D01*
X29180648Y-909852D01*
X29195000Y-944500D01*
X29195000Y-1425000D01*
X45495000Y-1425000D01*
X45495000Y-944500D01*
X45509352Y-909852D01*
X45544000Y-895500D01*
X47876000Y-895500D01*
X47910648Y-909852D01*
X47925000Y-944500D01*
X47925000Y-56740500D01*
X47910648Y-56775148D01*
X47876000Y-56789500D01*
X549500Y-56789500D01*
X514852Y-56775148D01*
X500500Y-56740500D01*
X500500Y-52315724D01*
X13044500Y-52315724D01*
X13044500Y-53674275D01*
X13047353Y-53704698D01*
X13047353Y-53704699D01*
X13092204Y-53832876D01*
X13092208Y-53832885D01*
X13172849Y-53942150D01*
X13282114Y-54022791D01*
X13282117Y-54022792D01*
X13282118Y-54022793D01*
X13282120Y-54022793D01*
X13282123Y-54022795D01*
X13330538Y-54039736D01*
X13410301Y-54067646D01*
X13440734Y-54070500D01*
X13440744Y-54070500D01*
X14249256Y-54070500D01*
X14249266Y-54070500D01*
X14279699Y-54067646D01*
X14407882Y-54022793D01*
X14517150Y-53942150D01*
X14597793Y-53832882D01*
X14642646Y-53704699D01*
X14645500Y-53674266D01*
X14645500Y-52641152D01*
X17044500Y-52641152D01*
X17044500Y-53348847D01*
X17075260Y-53503487D01*
X17075263Y-53503497D01*
X17135606Y-53649179D01*
X17223211Y-53780289D01*
X17334711Y-53891789D01*
X17465821Y-53979394D01*
X17611503Y-54039737D01*
X17611509Y-54039738D01*
X17611512Y-54039739D01*
X17766152Y-54070499D01*
X17766158Y-54070500D01*
X17923842Y-54070500D01*
X18078497Y-54039737D01*
X18224179Y-53979394D01*
X18355289Y-53891789D01*
X18466789Y-53780289D01*
X18554394Y-53649179D01*
X18614737Y-53503497D01*
X18645500Y-53348842D01*
X18645500Y-52641158D01*
X18645499Y-52641152D01*
X19044500Y-52641152D01*
X19044500Y-53348847D01*
X19075260Y-53503487D01*
X19075263Y-53503497D01*
X19135606Y-53649179D01*
X19223211Y-53780289D01*
X19334711Y-53891789D01*
X19465821Y-53979394D01*
X19611503Y-54039737D01*
X19611509Y-54039738D01*
X19611512Y-54039739D01*
X19766152Y-54070499D01*
X19766158Y-54070500D01*
X19923842Y-54070500D01*
X20078497Y-54039737D01*
X20224179Y-53979394D01*
X20355289Y-53891789D01*
X20466789Y-53780289D01*
X20554394Y-53649179D01*
X20614737Y-53503497D01*
X20645500Y-53348842D01*
X20645500Y-52641158D01*
X20614737Y-52486503D01*
X20554394Y-52340821D01*
X20466789Y-52209711D01*
X20355289Y-52098211D01*
X20224179Y-52010606D01*
X20224176Y-52010604D01*
X20224175Y-52010604D01*
X20078498Y-51950263D01*
X20078487Y-51950260D01*
X19923847Y-51919500D01*
X19923842Y-51919500D01*
X19766158Y-51919500D01*
X19766152Y-51919500D01*
X19611512Y-51950260D01*
X19611501Y-51950263D01*
X19465824Y-52010604D01*
X19334711Y-52098210D01*
X19223210Y-52209711D01*
X19135604Y-52340824D01*
X19075263Y-52486501D01*
X19075260Y-52486512D01*
X19044500Y-52641152D01*
X18645499Y-52641152D01*
X18614737Y-52486503D01*
X18554394Y-52340821D01*
X18466789Y-52209711D01*
X18355289Y-52098211D01*
X18224179Y-52010606D01*
X18224176Y-52010604D01*
X18224175Y-52010604D01*
X18078498Y-51950263D01*
X18078487Y-51950260D01*
X17923847Y-51919500D01*
X17923842Y-51919500D01*
X17766158Y-51919500D01*
X17766152Y-51919500D01*
X17611512Y-51950260D01*
X17611501Y-51950263D01*
X17465824Y-52010604D01*
X17334711Y-52098210D01*
X17223210Y-52209711D01*
X17135604Y-52340824D01*
X17075263Y-52486501D01*
X17075260Y-52486512D01*
X17044500Y-52641152D01*
X14645500Y-52641152D01*
X14645500Y-52315734D01*
X14642646Y-52285301D01*
X14597793Y-52157118D01*
X14597792Y-52157117D01*
X14597791Y-52157114D01*
X14517150Y-52047849D01*
X14407885Y-51967208D01*
X14407876Y-51967204D01*
X14279698Y-51922353D01*
X14249275Y-51919500D01*
X14249266Y-51919500D01*
X13440734Y-51919500D01*
X13440724Y-51919500D01*
X13410301Y-51922353D01*
X13410300Y-51922353D01*
X13282123Y-51967204D01*
X13282114Y-51967208D01*
X13172849Y-52047849D01*
X13092208Y-52157114D01*
X13092204Y-52157123D01*
X13047353Y-52285300D01*
X13047353Y-52285301D01*
X13044500Y-52315724D01*
X500500Y-52315724D01*
X500500Y-43479785D01*
X19508185Y-43479785D01*
X19508185Y-43598408D01*
X19538885Y-43712981D01*
X19538886Y-43712984D01*
X19598196Y-43815710D01*
X19682072Y-43899586D01*
X19784799Y-43958896D01*
X19813443Y-43966571D01*
X19899373Y-43989597D01*
X19899376Y-43989597D01*
X20017996Y-43989597D01*
X20075282Y-43974246D01*
X20132571Y-43958896D01*
X20235298Y-43899586D01*
X20319174Y-43815710D01*
X20378484Y-43712983D01*
X20393834Y-43655694D01*
X20409185Y-43598408D01*
X20409185Y-43479785D01*
X20378484Y-43365212D01*
X20378483Y-43365209D01*
X20319173Y-43262483D01*
X20235298Y-43178608D01*
X20132572Y-43119298D01*
X20132569Y-43119297D01*
X20017997Y-43088597D01*
X20017994Y-43088597D01*
X19899376Y-43088597D01*
X19899373Y-43088597D01*
X19784800Y-43119297D01*
X19784797Y-43119298D01*
X19682071Y-43178608D01*
X19682071Y-43178609D01*
X19598197Y-43262483D01*
X19598196Y-43262483D01*
X19538886Y-43365209D01*
X19538885Y-43365212D01*
X19508185Y-43479785D01*
X500500Y-43479785D01*
X500500Y-42285556D01*
X23307810Y-42285556D01*
X23307810Y-42404179D01*
X23338510Y-42518752D01*
X23338511Y-42518755D01*
X23397821Y-42621481D01*
X23481697Y-42705357D01*
X23584424Y-42764667D01*
X23613068Y-42772342D01*
X23698998Y-42795368D01*
X23699001Y-42795368D01*
X23817621Y-42795368D01*
X23874907Y-42780017D01*
X23932196Y-42764667D01*
X24034923Y-42705357D01*
X24118799Y-42621481D01*
X24178109Y-42518754D01*
X24193459Y-42461465D01*
X24208810Y-42404179D01*
X24208810Y-42285556D01*
X24178109Y-42170983D01*
X24178108Y-42170980D01*
X24118798Y-42068254D01*
X24034923Y-41984379D01*
X23932197Y-41925069D01*
X23932194Y-41925068D01*
X23817622Y-41894368D01*
X23817619Y-41894368D01*
X23699001Y-41894368D01*
X23698998Y-41894368D01*
X23584425Y-41925068D01*
X23584422Y-41925069D01*
X23481696Y-41984379D01*
X23481696Y-41984380D01*
X23397822Y-42068254D01*
X23397821Y-42068254D01*
X23338511Y-42170980D01*
X23338510Y-42170983D01*
X23307810Y-42285556D01*
X500500Y-42285556D01*
X500500Y-39991590D01*
X19508185Y-39991590D01*
X19508185Y-40110213D01*
X19538885Y-40224786D01*
X19538886Y-40224789D01*
X19598196Y-40327515D01*
X19682072Y-40411391D01*
X19784799Y-40470701D01*
X19813443Y-40478376D01*
X19899373Y-40501402D01*
X19899376Y-40501402D01*
X20017996Y-40501402D01*
X20075282Y-40486051D01*
X20132571Y-40470701D01*
X20235298Y-40411391D01*
X20319174Y-40327515D01*
X20378484Y-40224788D01*
X20393834Y-40167499D01*
X20409185Y-40110213D01*
X20409185Y-39991590D01*
X20378484Y-39877017D01*
X20378483Y-39877014D01*
X20319173Y-39774288D01*
X20235298Y-39690413D01*
X20132572Y-39631103D01*
X20132569Y-39631102D01*
X20017997Y-39600402D01*
X20017994Y-39600402D01*
X19899376Y-39600402D01*
X19899373Y-39600402D01*
X19784800Y-39631102D01*
X19784797Y-39631103D01*
X19682071Y-39690413D01*
X19682071Y-39690414D01*
X19598197Y-39774288D01*
X19598196Y-39774288D01*
X19538886Y-39877014D01*
X19538885Y-39877017D01*
X19508185Y-39991590D01*
X500500Y-39991590D01*
X500500Y-36779462D01*
X17482434Y-36779462D01*
X17482434Y-36898085D01*
X17513134Y-37012658D01*
X17513135Y-37012661D01*
X17572445Y-37115387D01*
X17656321Y-37199263D01*
X17759048Y-37258573D01*
X17787692Y-37266248D01*
X17873622Y-37289274D01*
X17873625Y-37289274D01*
X17992245Y-37289274D01*
X18049531Y-37273923D01*
X18106820Y-37258573D01*
X18146458Y-37235688D01*
X27532000Y-37235688D01*
X27532000Y-37354311D01*
X27562700Y-37468884D01*
X27562701Y-37468887D01*
X27622011Y-37571613D01*
X27705887Y-37655489D01*
X27808614Y-37714799D01*
X27837258Y-37722474D01*
X27923188Y-37745500D01*
X27923191Y-37745500D01*
X28041811Y-37745500D01*
X28099097Y-37730149D01*
X28156386Y-37714799D01*
X28259113Y-37655489D01*
X28342989Y-37571613D01*
X28375427Y-37515429D01*
X30401152Y-37515429D01*
X30401152Y-37634052D01*
X30431852Y-37748625D01*
X30431853Y-37748628D01*
X30491163Y-37851354D01*
X30575039Y-37935230D01*
X30677766Y-37994540D01*
X30706410Y-38002215D01*
X30792340Y-38025241D01*
X30792343Y-38025241D01*
X30910963Y-38025241D01*
X30968249Y-38009890D01*
X31025538Y-37994540D01*
X31128265Y-37935230D01*
X31212141Y-37851354D01*
X31271451Y-37748627D01*
X31286801Y-37691338D01*
X31302152Y-37634052D01*
X31302152Y-37515429D01*
X31271451Y-37400856D01*
X31271450Y-37400853D01*
X31255557Y-37373326D01*
X31212141Y-37298128D01*
X31128265Y-37214252D01*
X31102302Y-37199262D01*
X31025539Y-37154942D01*
X31025536Y-37154941D01*
X30910964Y-37124241D01*
X30910961Y-37124241D01*
X30792343Y-37124241D01*
X30792340Y-37124241D01*
X30677767Y-37154941D01*
X30677764Y-37154942D01*
X30575038Y-37214252D01*
X30575038Y-37214253D01*
X30491164Y-37298127D01*
X30491163Y-37298127D01*
X30431853Y-37400853D01*
X30431852Y-37400856D01*
X30401152Y-37515429D01*
X28375427Y-37515429D01*
X28402299Y-37468886D01*
X28420528Y-37400855D01*
X28433000Y-37354311D01*
X28433000Y-37235688D01*
X28402299Y-37121115D01*
X28402298Y-37121112D01*
X28342988Y-37018386D01*
X28259113Y-36934511D01*
X28156387Y-36875201D01*
X28156384Y-36875200D01*
X28041812Y-36844500D01*
X28041809Y-36844500D01*
X27923191Y-36844500D01*
X27923188Y-36844500D01*
X27808615Y-36875200D01*
X27808612Y-36875201D01*
X27705886Y-36934511D01*
X27705886Y-36934512D01*
X27622012Y-37018386D01*
X27622011Y-37018386D01*
X27562701Y-37121112D01*
X27562700Y-37121115D01*
X27532000Y-37235688D01*
X18146458Y-37235688D01*
X18209547Y-37199263D01*
X18293423Y-37115387D01*
X18352733Y-37012660D01*
X18373673Y-36934511D01*
X18383434Y-36898085D01*
X18383434Y-36779462D01*
X18352733Y-36664889D01*
X18352732Y-36664886D01*
X18293422Y-36562160D01*
X18209547Y-36478285D01*
X18106821Y-36418975D01*
X18106818Y-36418974D01*
X17992246Y-36388274D01*
X17992243Y-36388274D01*
X17873625Y-36388274D01*
X17873622Y-36388274D01*
X17759049Y-36418974D01*
X17759046Y-36418975D01*
X17656320Y-36478285D01*
X17656320Y-36478286D01*
X17572446Y-36562160D01*
X17572445Y-36562160D01*
X17513135Y-36664886D01*
X17513134Y-36664889D01*
X17482434Y-36779462D01*
X500500Y-36779462D01*
X500500Y-34716152D01*
X3069500Y-34716152D01*
X3069500Y-34873847D01*
X3100260Y-35028487D01*
X3100263Y-35028497D01*
X3160606Y-35174179D01*
X3248211Y-35305289D01*
X3359711Y-35416789D01*
X3490821Y-35504394D01*
X3636503Y-35564737D01*
X3636509Y-35564738D01*
X3636512Y-35564739D01*
X3791152Y-35595499D01*
X3791158Y-35595500D01*
X4498842Y-35595500D01*
X4653497Y-35564737D01*
X4799179Y-35504394D01*
X4930289Y-35416789D01*
X5041789Y-35305289D01*
X5129394Y-35174179D01*
X5189737Y-35028497D01*
X5220500Y-34873842D01*
X5220500Y-34716158D01*
X5220499Y-34716152D01*
X5189739Y-34561512D01*
X5189736Y-34561501D01*
X5167624Y-34508117D01*
X5129394Y-34415821D01*
X5041789Y-34284711D01*
X5031996Y-34274918D01*
X23249500Y-34274918D01*
X23249500Y-34393541D01*
X23280200Y-34508114D01*
X23280201Y-34508117D01*
X23311023Y-34561501D01*
X23339511Y-34610843D01*
X23423387Y-34694719D01*
X23526114Y-34754029D01*
X23554758Y-34761704D01*
X23640688Y-34784730D01*
X23640691Y-34784730D01*
X23759311Y-34784730D01*
X23816597Y-34769379D01*
X23873886Y-34754029D01*
X23976613Y-34694719D01*
X24060489Y-34610843D01*
X24119799Y-34508116D01*
X24144530Y-34415821D01*
X24150500Y-34393541D01*
X24150500Y-34274918D01*
X24119799Y-34160345D01*
X24119798Y-34160342D01*
X24103905Y-34132815D01*
X24060489Y-34057617D01*
X23976613Y-33973741D01*
X23873887Y-33914431D01*
X23873884Y-33914430D01*
X23759312Y-33883730D01*
X23759309Y-33883730D01*
X23640691Y-33883730D01*
X23640688Y-33883730D01*
X23526115Y-33914430D01*
X23526112Y-33914431D01*
X23423386Y-33973741D01*
X23423386Y-33973742D01*
X23339512Y-34057616D01*
X23339511Y-34057616D01*
X23280201Y-34160342D01*
X23280200Y-34160345D01*
X23249500Y-34274918D01*
X5031996Y-34274918D01*
X4930289Y-34173211D01*
X4799179Y-34085606D01*
X4799176Y-34085604D01*
X4799175Y-34085604D01*
X4653498Y-34025263D01*
X4653487Y-34025260D01*
X4498847Y-33994500D01*
X4498842Y-33994500D01*
X3791158Y-33994500D01*
X3791152Y-33994500D01*
X3636512Y-34025260D01*
X3636501Y-34025263D01*
X3490824Y-34085604D01*
X3359711Y-34173210D01*
X3248210Y-34284711D01*
X3160604Y-34415824D01*
X3100263Y-34561501D01*
X3100260Y-34561512D01*
X3069500Y-34716152D01*
X500500Y-34716152D01*
X500500Y-32716152D01*
X3069500Y-32716152D01*
X3069500Y-32873847D01*
X3100260Y-33028487D01*
X3100263Y-33028498D01*
X3160604Y-33174175D01*
X3160606Y-33174179D01*
X3248211Y-33305289D01*
X3359711Y-33416789D01*
X3490821Y-33504394D01*
X3636503Y-33564737D01*
X3636509Y-33564738D01*
X3636512Y-33564739D01*
X3791152Y-33595499D01*
X3791158Y-33595500D01*
X4498842Y-33595500D01*
X4653497Y-33564737D01*
X4799179Y-33504394D01*
X4930289Y-33416789D01*
X4981784Y-33365294D01*
X28175005Y-33365294D01*
X28175005Y-33483917D01*
X28205705Y-33598490D01*
X28205706Y-33598493D01*
X28265016Y-33701219D01*
X28348892Y-33785095D01*
X28451619Y-33844405D01*
X28480263Y-33852080D01*
X28566193Y-33875106D01*
X28566196Y-33875106D01*
X28684816Y-33875106D01*
X28742102Y-33859755D01*
X28799391Y-33844405D01*
X28902118Y-33785095D01*
X28985994Y-33701219D01*
X29045304Y-33598492D01*
X29060654Y-33541203D01*
X29076005Y-33483917D01*
X29076005Y-33365294D01*
X29046582Y-33255489D01*
X29045304Y-33250720D01*
X28985994Y-33147993D01*
X28902118Y-33064117D01*
X28840425Y-33028498D01*
X28799392Y-33004807D01*
X28799389Y-33004806D01*
X28684817Y-32974106D01*
X28684814Y-32974106D01*
X28566196Y-32974106D01*
X28566193Y-32974106D01*
X28451620Y-33004806D01*
X28451617Y-33004807D01*
X28348891Y-33064117D01*
X28348891Y-33064118D01*
X28265017Y-33147992D01*
X28265016Y-33147992D01*
X28205706Y-33250718D01*
X28205705Y-33250721D01*
X28175005Y-33365294D01*
X4981784Y-33365294D01*
X5041789Y-33305289D01*
X5129394Y-33174179D01*
X5189737Y-33028497D01*
X5220500Y-32873842D01*
X5220500Y-32716158D01*
X5220117Y-32714234D01*
X5220116Y-32714230D01*
X33879500Y-32714230D01*
X33879500Y-32865769D01*
X33918718Y-33012133D01*
X33918719Y-33012137D01*
X33990642Y-33136708D01*
X33994485Y-33143365D01*
X34101635Y-33250515D01*
X34149666Y-33278246D01*
X34232862Y-33326280D01*
X34232864Y-33326280D01*
X34232865Y-33326281D01*
X34304592Y-33345500D01*
X34379230Y-33365499D01*
X34379231Y-33365500D01*
X34379234Y-33365500D01*
X34530769Y-33365500D01*
X34530769Y-33365499D01*
X34677135Y-33326281D01*
X34808365Y-33250515D01*
X34878741Y-33180139D01*
X34913389Y-33165787D01*
X34948037Y-33180139D01*
X35023387Y-33255489D01*
X35126114Y-33314799D01*
X35154758Y-33322474D01*
X35240688Y-33345500D01*
X35240691Y-33345500D01*
X35359311Y-33345500D01*
X35416597Y-33330149D01*
X35473886Y-33314799D01*
X35576613Y-33255489D01*
X35660489Y-33171613D01*
X35719799Y-33068886D01*
X35736969Y-33004806D01*
X35750500Y-32954311D01*
X35750500Y-32835688D01*
X38649500Y-32835688D01*
X38649500Y-32954311D01*
X38680200Y-33068884D01*
X38680201Y-33068887D01*
X38719358Y-33136708D01*
X38739511Y-33171613D01*
X38823387Y-33255489D01*
X38926114Y-33314799D01*
X38954758Y-33322474D01*
X39040688Y-33345500D01*
X39040691Y-33345500D01*
X39159311Y-33345500D01*
X39216597Y-33330149D01*
X39273886Y-33314799D01*
X39376613Y-33255489D01*
X39460489Y-33171613D01*
X39519799Y-33068886D01*
X39536969Y-33004806D01*
X39550500Y-32954311D01*
X39550500Y-32835689D01*
X39520493Y-32723705D01*
X39520493Y-32723704D01*
X39520492Y-32723703D01*
X39519799Y-32721114D01*
X39515824Y-32714230D01*
X39659500Y-32714230D01*
X39659500Y-32865769D01*
X39698718Y-33012133D01*
X39698719Y-33012137D01*
X39770642Y-33136708D01*
X39774485Y-33143365D01*
X39881635Y-33250515D01*
X39929666Y-33278246D01*
X40012862Y-33326280D01*
X40012864Y-33326280D01*
X40012865Y-33326281D01*
X40084592Y-33345500D01*
X40159230Y-33365499D01*
X40159231Y-33365500D01*
X40159234Y-33365500D01*
X40310769Y-33365500D01*
X40310769Y-33365499D01*
X40457135Y-33326281D01*
X40588365Y-33250515D01*
X40695515Y-33143365D01*
X40771281Y-33012135D01*
X40810499Y-32865769D01*
X40810500Y-32865769D01*
X40810500Y-32714231D01*
X40810499Y-32714230D01*
X40771281Y-32567866D01*
X40771280Y-32567862D01*
X40695514Y-32436634D01*
X40588365Y-32329485D01*
X40457137Y-32253719D01*
X40457133Y-32253718D01*
X40310769Y-32214500D01*
X40310766Y-32214500D01*
X40159234Y-32214500D01*
X40159231Y-32214500D01*
X40012866Y-32253718D01*
X40012862Y-32253719D01*
X39881634Y-32329485D01*
X39881634Y-32329486D01*
X39774486Y-32436634D01*
X39774485Y-32436634D01*
X39698719Y-32567862D01*
X39698718Y-32567866D01*
X39659500Y-32714230D01*
X39515824Y-32714230D01*
X39460488Y-32618386D01*
X39376613Y-32534511D01*
X39273887Y-32475201D01*
X39273884Y-32475200D01*
X39159312Y-32444500D01*
X39159309Y-32444500D01*
X39040691Y-32444500D01*
X39040688Y-32444500D01*
X38926115Y-32475200D01*
X38926112Y-32475201D01*
X38823386Y-32534511D01*
X38823386Y-32534512D01*
X38739512Y-32618386D01*
X38739511Y-32618386D01*
X38680201Y-32721112D01*
X38680200Y-32721115D01*
X38649500Y-32835688D01*
X35750500Y-32835688D01*
X35720493Y-32723704D01*
X35719799Y-32721114D01*
X35715824Y-32714230D01*
X35660488Y-32618386D01*
X35576613Y-32534511D01*
X35473887Y-32475201D01*
X35473884Y-32475200D01*
X35359312Y-32444500D01*
X35359309Y-32444500D01*
X35240691Y-32444500D01*
X35240688Y-32444500D01*
X35126115Y-32475200D01*
X35126112Y-32475201D01*
X35027300Y-32532252D01*
X34990118Y-32537147D01*
X34960365Y-32514317D01*
X34937781Y-32475201D01*
X34915515Y-32436635D01*
X34808365Y-32329485D01*
X34677137Y-32253719D01*
X34677133Y-32253718D01*
X34530769Y-32214500D01*
X34530766Y-32214500D01*
X34379234Y-32214500D01*
X34379231Y-32214500D01*
X34232866Y-32253718D01*
X34232862Y-32253719D01*
X34101634Y-32329485D01*
X34101634Y-32329486D01*
X33994486Y-32436634D01*
X33994485Y-32436634D01*
X33918719Y-32567862D01*
X33918718Y-32567866D01*
X33879500Y-32714230D01*
X5220116Y-32714230D01*
X5189739Y-32561512D01*
X5189736Y-32561501D01*
X5178557Y-32534512D01*
X5129394Y-32415821D01*
X5041789Y-32284711D01*
X4930289Y-32173211D01*
X4799179Y-32085606D01*
X4799176Y-32085604D01*
X4799175Y-32085604D01*
X4653498Y-32025263D01*
X4653487Y-32025260D01*
X4498847Y-31994500D01*
X4498842Y-31994500D01*
X3791158Y-31994500D01*
X3791152Y-31994500D01*
X3636512Y-32025260D01*
X3636501Y-32025263D01*
X3490824Y-32085604D01*
X3359711Y-32173210D01*
X3248210Y-32284711D01*
X3160604Y-32415824D01*
X3100263Y-32561501D01*
X3100260Y-32561512D01*
X3069500Y-32716152D01*
X500500Y-32716152D01*
X500500Y-30716152D01*
X3069500Y-30716152D01*
X3069500Y-30873847D01*
X3100260Y-31028487D01*
X3100263Y-31028498D01*
X3152376Y-31154311D01*
X3160606Y-31174179D01*
X3248211Y-31305289D01*
X3359711Y-31416789D01*
X3490821Y-31504394D01*
X3636503Y-31564737D01*
X3636509Y-31564738D01*
X3636512Y-31564739D01*
X3791152Y-31595499D01*
X3791158Y-31595500D01*
X4498842Y-31595500D01*
X4653497Y-31564737D01*
X4799179Y-31504394D01*
X4930289Y-31416789D01*
X5041789Y-31305289D01*
X5129394Y-31174179D01*
X5186758Y-31035688D01*
X22649500Y-31035688D01*
X22649500Y-31154311D01*
X22680200Y-31268884D01*
X22680201Y-31268887D01*
X22701218Y-31305288D01*
X22739511Y-31371613D01*
X22823387Y-31455489D01*
X22926114Y-31514799D01*
X22954758Y-31522474D01*
X23040688Y-31545500D01*
X23040691Y-31545500D01*
X23159311Y-31545500D01*
X23216597Y-31530149D01*
X23273886Y-31514799D01*
X23376613Y-31455489D01*
X23460489Y-31371613D01*
X23519799Y-31268886D01*
X23545177Y-31174175D01*
X23550500Y-31154311D01*
X23550500Y-31035688D01*
X23519799Y-30921115D01*
X23519798Y-30921112D01*
X23460488Y-30818386D01*
X23376613Y-30734511D01*
X23273887Y-30675201D01*
X23273884Y-30675200D01*
X23159312Y-30644500D01*
X23159309Y-30644500D01*
X23040691Y-30644500D01*
X23040688Y-30644500D01*
X22926115Y-30675200D01*
X22926112Y-30675201D01*
X22823386Y-30734511D01*
X22823386Y-30734512D01*
X22739512Y-30818386D01*
X22739511Y-30818386D01*
X22680201Y-30921112D01*
X22680200Y-30921115D01*
X22649500Y-31035688D01*
X5186758Y-31035688D01*
X5189737Y-31028497D01*
X5220500Y-30873842D01*
X5220500Y-30716158D01*
X5202146Y-30623886D01*
X5189739Y-30561512D01*
X5189736Y-30561501D01*
X5172469Y-30519814D01*
X5129394Y-30415821D01*
X5041789Y-30284711D01*
X4930289Y-30173211D01*
X4820741Y-30100013D01*
X24785612Y-30100013D01*
X24785612Y-30218636D01*
X24816312Y-30333209D01*
X24816313Y-30333212D01*
X24849499Y-30390691D01*
X24875623Y-30435938D01*
X24959499Y-30519814D01*
X25062226Y-30579124D01*
X25090870Y-30586799D01*
X25176800Y-30609825D01*
X25176803Y-30609825D01*
X25295423Y-30609825D01*
X25352709Y-30594474D01*
X25409998Y-30579124D01*
X25512725Y-30519814D01*
X25596601Y-30435938D01*
X25622726Y-30390688D01*
X34494500Y-30390688D01*
X34494500Y-30509311D01*
X34525200Y-30623884D01*
X34525201Y-30623887D01*
X34554827Y-30675200D01*
X34584511Y-30726613D01*
X34668387Y-30810489D01*
X34771114Y-30869799D01*
X34799758Y-30877474D01*
X34885688Y-30900500D01*
X34885691Y-30900500D01*
X35004311Y-30900500D01*
X35061597Y-30885149D01*
X35118886Y-30869799D01*
X35221613Y-30810489D01*
X35305489Y-30726613D01*
X35364799Y-30623886D01*
X35383442Y-30554309D01*
X35395500Y-30509311D01*
X35395500Y-30435688D01*
X38849500Y-30435688D01*
X38849500Y-30554311D01*
X38880200Y-30668884D01*
X38880201Y-30668887D01*
X38939511Y-30771613D01*
X39023387Y-30855489D01*
X39126114Y-30914799D01*
X39154758Y-30922474D01*
X39240688Y-30945500D01*
X39240691Y-30945500D01*
X39359311Y-30945500D01*
X39416597Y-30930149D01*
X39473886Y-30914799D01*
X39576613Y-30855489D01*
X39660489Y-30771613D01*
X39719799Y-30668886D01*
X39748570Y-30561512D01*
X39750500Y-30554311D01*
X39750500Y-30435688D01*
X39719799Y-30321115D01*
X39719798Y-30321112D01*
X39703905Y-30293585D01*
X39660489Y-30218387D01*
X39576613Y-30134511D01*
X39542471Y-30114799D01*
X39473887Y-30075201D01*
X39473884Y-30075200D01*
X39359312Y-30044500D01*
X39359309Y-30044500D01*
X39240691Y-30044500D01*
X39240688Y-30044500D01*
X39126115Y-30075200D01*
X39126112Y-30075201D01*
X39023386Y-30134511D01*
X39023386Y-30134512D01*
X38939512Y-30218386D01*
X38939511Y-30218386D01*
X38880201Y-30321112D01*
X38880200Y-30321115D01*
X38849500Y-30435688D01*
X35395500Y-30435688D01*
X35395500Y-30390688D01*
X35369993Y-30295500D01*
X35364799Y-30276114D01*
X35305489Y-30173387D01*
X35221613Y-30089511D01*
X35162686Y-30055489D01*
X35118887Y-30030201D01*
X35118884Y-30030200D01*
X35004312Y-29999500D01*
X35004309Y-29999500D01*
X34885691Y-29999500D01*
X34885688Y-29999500D01*
X34771115Y-30030200D01*
X34771112Y-30030201D01*
X34668386Y-30089511D01*
X34668386Y-30089512D01*
X34584512Y-30173386D01*
X34584511Y-30173386D01*
X34525201Y-30276112D01*
X34525200Y-30276115D01*
X34494500Y-30390688D01*
X25622726Y-30390688D01*
X25655911Y-30333211D01*
X25674242Y-30264798D01*
X25686612Y-30218636D01*
X25686612Y-30100013D01*
X25655911Y-29985440D01*
X25655910Y-29985437D01*
X25628595Y-29938127D01*
X25596601Y-29882712D01*
X25512725Y-29798836D01*
X25409999Y-29739526D01*
X25409996Y-29739525D01*
X25295424Y-29708825D01*
X25295421Y-29708825D01*
X25176803Y-29708825D01*
X25176800Y-29708825D01*
X25062227Y-29739525D01*
X25062224Y-29739526D01*
X24959498Y-29798836D01*
X24959498Y-29798837D01*
X24875624Y-29882711D01*
X24875623Y-29882711D01*
X24816313Y-29985437D01*
X24816312Y-29985440D01*
X24785612Y-30100013D01*
X4820741Y-30100013D01*
X4799179Y-30085606D01*
X4799176Y-30085604D01*
X4799175Y-30085604D01*
X4653498Y-30025263D01*
X4653487Y-30025260D01*
X4498847Y-29994500D01*
X4498842Y-29994500D01*
X3791158Y-29994500D01*
X3791152Y-29994500D01*
X3636512Y-30025260D01*
X3636501Y-30025263D01*
X3490824Y-30085604D01*
X3359711Y-30173210D01*
X3248210Y-30284711D01*
X3160604Y-30415824D01*
X3100263Y-30561501D01*
X3100260Y-30561512D01*
X3069500Y-30716152D01*
X500500Y-30716152D01*
X500500Y-29459016D01*
X12644503Y-29459016D01*
X12644503Y-29577639D01*
X12675203Y-29692212D01*
X12675204Y-29692215D01*
X12719996Y-29769795D01*
X12734514Y-29794941D01*
X12818390Y-29878817D01*
X12921117Y-29938127D01*
X12948633Y-29945500D01*
X13035691Y-29968828D01*
X13035694Y-29968828D01*
X13154314Y-29968828D01*
X13211600Y-29953477D01*
X13268889Y-29938127D01*
X13371616Y-29878817D01*
X13455492Y-29794941D01*
X13514802Y-29692214D01*
X13533283Y-29623244D01*
X13545503Y-29577639D01*
X13545503Y-29459016D01*
X13517629Y-29354992D01*
X13514802Y-29344442D01*
X13455492Y-29241715D01*
X13371616Y-29157839D01*
X13331211Y-29134511D01*
X13268890Y-29098529D01*
X13268887Y-29098528D01*
X13154315Y-29067828D01*
X13154312Y-29067828D01*
X13035694Y-29067828D01*
X13035691Y-29067828D01*
X12921118Y-29098528D01*
X12921115Y-29098529D01*
X12818389Y-29157839D01*
X12818389Y-29157840D01*
X12734515Y-29241714D01*
X12734514Y-29241714D01*
X12675204Y-29344440D01*
X12675203Y-29344443D01*
X12644503Y-29459016D01*
X500500Y-29459016D01*
X500500Y-28260041D01*
X6851974Y-28260041D01*
X6851974Y-28378664D01*
X6882674Y-28493237D01*
X6882675Y-28493240D01*
X6910448Y-28541343D01*
X6941985Y-28595966D01*
X7025861Y-28679842D01*
X7128588Y-28739152D01*
X7157232Y-28746827D01*
X7243162Y-28769853D01*
X7243165Y-28769853D01*
X7361785Y-28769853D01*
X7403614Y-28758644D01*
X15257736Y-28758644D01*
X15257736Y-28877267D01*
X15288436Y-28991840D01*
X15288437Y-28991843D01*
X15330989Y-29065543D01*
X15347747Y-29094569D01*
X15431623Y-29178445D01*
X15534350Y-29237755D01*
X15549129Y-29241715D01*
X15648924Y-29268456D01*
X15648927Y-29268456D01*
X15767547Y-29268456D01*
X15824833Y-29253105D01*
X15882122Y-29237755D01*
X15984849Y-29178445D01*
X16041501Y-29121793D01*
X22076230Y-29121793D01*
X22076230Y-29240416D01*
X22106930Y-29354989D01*
X22106931Y-29354992D01*
X22166241Y-29457718D01*
X22250117Y-29541594D01*
X22352844Y-29600904D01*
X22381488Y-29608579D01*
X22467418Y-29631605D01*
X22467421Y-29631605D01*
X22586041Y-29631605D01*
X22617241Y-29623244D01*
X22654423Y-29628138D01*
X22677254Y-29657890D01*
X22680200Y-29668885D01*
X22680201Y-29668888D01*
X22729522Y-29754312D01*
X22739511Y-29771613D01*
X22823387Y-29855489D01*
X22926114Y-29914799D01*
X22954758Y-29922474D01*
X23040688Y-29945500D01*
X23040691Y-29945500D01*
X23159311Y-29945500D01*
X23216597Y-29930149D01*
X23273886Y-29914799D01*
X23376613Y-29855489D01*
X23460489Y-29771613D01*
X23519799Y-29668886D01*
X23528694Y-29635688D01*
X33799500Y-29635688D01*
X33799500Y-29754311D01*
X33830200Y-29868884D01*
X33830201Y-29868887D01*
X33887903Y-29968828D01*
X33889511Y-29971613D01*
X33973387Y-30055489D01*
X34076114Y-30114799D01*
X34101544Y-30121613D01*
X34190688Y-30145500D01*
X34190691Y-30145500D01*
X34309311Y-30145500D01*
X34366597Y-30130149D01*
X34423886Y-30114799D01*
X34526613Y-30055489D01*
X34610489Y-29971613D01*
X34669799Y-29868886D01*
X34688569Y-29798836D01*
X34692092Y-29785688D01*
X39709307Y-29785688D01*
X39709307Y-29904311D01*
X39740007Y-30018884D01*
X39740008Y-30018887D01*
X39754796Y-30044500D01*
X39799318Y-30121613D01*
X39883194Y-30205489D01*
X39985921Y-30264799D01*
X40014565Y-30272474D01*
X40100495Y-30295500D01*
X40100498Y-30295500D01*
X40219118Y-30295500D01*
X40291465Y-30276114D01*
X40333693Y-30264799D01*
X40436420Y-30205489D01*
X40520296Y-30121613D01*
X40579606Y-30018886D01*
X40599270Y-29945500D01*
X40610307Y-29904311D01*
X40610307Y-29785688D01*
X40579606Y-29671115D01*
X40579605Y-29671112D01*
X40556795Y-29631605D01*
X40520296Y-29568387D01*
X40436420Y-29484511D01*
X40390014Y-29457718D01*
X40333694Y-29425201D01*
X40333691Y-29425200D01*
X40219119Y-29394500D01*
X40219116Y-29394500D01*
X40100498Y-29394500D01*
X40100495Y-29394500D01*
X39985922Y-29425200D01*
X39985919Y-29425201D01*
X39883193Y-29484511D01*
X39883193Y-29484512D01*
X39799319Y-29568386D01*
X39799318Y-29568386D01*
X39740008Y-29671112D01*
X39740007Y-29671115D01*
X39709307Y-29785688D01*
X34692092Y-29785688D01*
X34696351Y-29769796D01*
X34696351Y-29769795D01*
X34700499Y-29754312D01*
X34700500Y-29754312D01*
X34700500Y-29635688D01*
X34669799Y-29521115D01*
X34669798Y-29521112D01*
X34633197Y-29457718D01*
X34610489Y-29418387D01*
X34526613Y-29334511D01*
X34503409Y-29321114D01*
X34423887Y-29275201D01*
X34423884Y-29275200D01*
X34309312Y-29244500D01*
X34309309Y-29244500D01*
X34190691Y-29244500D01*
X34190688Y-29244500D01*
X34076115Y-29275200D01*
X34076112Y-29275201D01*
X33973386Y-29334511D01*
X33973386Y-29334512D01*
X33889512Y-29418386D01*
X33889511Y-29418386D01*
X33830201Y-29521112D01*
X33830200Y-29521115D01*
X33799500Y-29635688D01*
X23528694Y-29635688D01*
X23529958Y-29630970D01*
X23532953Y-29619796D01*
X23532953Y-29619795D01*
X23550499Y-29554312D01*
X23550500Y-29554312D01*
X23550500Y-29435688D01*
X23519799Y-29321115D01*
X23519798Y-29321112D01*
X23493290Y-29275200D01*
X23460489Y-29218387D01*
X23376613Y-29134511D01*
X23354585Y-29121793D01*
X23273887Y-29075201D01*
X23273884Y-29075200D01*
X23159312Y-29044500D01*
X23159309Y-29044500D01*
X23040691Y-29044500D01*
X23040690Y-29044500D01*
X23009485Y-29052861D01*
X22972303Y-29047965D01*
X22949475Y-29018213D01*
X22946529Y-29007219D01*
X22887219Y-28904492D01*
X22803343Y-28820616D01*
X22700617Y-28761306D01*
X22700614Y-28761305D01*
X22586042Y-28730605D01*
X22586039Y-28730605D01*
X22467421Y-28730605D01*
X22467418Y-28730605D01*
X22352845Y-28761305D01*
X22352842Y-28761306D01*
X22250116Y-28820616D01*
X22250116Y-28820617D01*
X22166242Y-28904491D01*
X22166241Y-28904491D01*
X22106931Y-29007217D01*
X22106930Y-29007220D01*
X22076230Y-29121793D01*
X16041501Y-29121793D01*
X16068725Y-29094569D01*
X16128035Y-28991842D01*
X16151441Y-28904491D01*
X16158736Y-28877267D01*
X16158736Y-28758644D01*
X16128035Y-28644071D01*
X16128034Y-28644068D01*
X16068724Y-28541342D01*
X15984849Y-28457467D01*
X15882123Y-28398157D01*
X15882120Y-28398156D01*
X15767548Y-28367456D01*
X15767545Y-28367456D01*
X15648927Y-28367456D01*
X15648924Y-28367456D01*
X15534351Y-28398156D01*
X15534348Y-28398157D01*
X15431622Y-28457467D01*
X15431622Y-28457468D01*
X15347748Y-28541342D01*
X15347747Y-28541342D01*
X15288437Y-28644068D01*
X15288436Y-28644071D01*
X15257736Y-28758644D01*
X7403614Y-28758644D01*
X7419071Y-28754502D01*
X7476360Y-28739152D01*
X7579087Y-28679842D01*
X7662963Y-28595966D01*
X7722273Y-28493239D01*
X7737623Y-28435950D01*
X7752974Y-28378664D01*
X7752974Y-28260041D01*
X7728793Y-28169799D01*
X7722273Y-28145467D01*
X7662963Y-28042740D01*
X7579087Y-27958864D01*
X7518504Y-27923886D01*
X7476361Y-27899554D01*
X7476358Y-27899553D01*
X7361786Y-27868853D01*
X7361783Y-27868853D01*
X7243165Y-27868853D01*
X7243162Y-27868853D01*
X7128589Y-27899553D01*
X7128586Y-27899554D01*
X7025860Y-27958864D01*
X7025860Y-27958865D01*
X6941986Y-28042739D01*
X6941985Y-28042739D01*
X6882675Y-28145465D01*
X6882674Y-28145468D01*
X6851974Y-28260041D01*
X500500Y-28260041D01*
X500500Y-27690688D01*
X15399500Y-27690688D01*
X15399500Y-27809311D01*
X15430200Y-27923884D01*
X15430201Y-27923887D01*
X15450396Y-27958865D01*
X15489511Y-28026613D01*
X15573387Y-28110489D01*
X15676114Y-28169799D01*
X15704758Y-28177474D01*
X15790688Y-28200500D01*
X15790691Y-28200500D01*
X15909311Y-28200500D01*
X15966597Y-28185149D01*
X16023886Y-28169799D01*
X16126613Y-28110489D01*
X16210489Y-28026613D01*
X16269799Y-27923886D01*
X16285149Y-27866597D01*
X16300500Y-27809311D01*
X16300500Y-27690688D01*
X16269799Y-27576115D01*
X16269798Y-27576112D01*
X16210488Y-27473386D01*
X16126613Y-27389511D01*
X16023887Y-27330201D01*
X16023884Y-27330200D01*
X15909312Y-27299500D01*
X15909309Y-27299500D01*
X15790691Y-27299500D01*
X15790688Y-27299500D01*
X15676115Y-27330200D01*
X15676112Y-27330201D01*
X15573386Y-27389511D01*
X15573386Y-27389512D01*
X15489512Y-27473386D01*
X15489511Y-27473386D01*
X15430201Y-27576112D01*
X15430200Y-27576115D01*
X15399500Y-27690688D01*
X500500Y-27690688D01*
X500500Y-26390724D01*
X3069500Y-26390724D01*
X3069500Y-27199275D01*
X3072353Y-27229698D01*
X3072353Y-27229699D01*
X3117204Y-27357876D01*
X3117208Y-27357885D01*
X3197849Y-27467150D01*
X3307114Y-27547791D01*
X3307117Y-27547792D01*
X3307118Y-27547793D01*
X3307120Y-27547793D01*
X3307123Y-27547795D01*
X3388049Y-27576112D01*
X3435301Y-27592646D01*
X3465734Y-27595500D01*
X3465744Y-27595500D01*
X4824256Y-27595500D01*
X4824266Y-27595500D01*
X4854699Y-27592646D01*
X4982882Y-27547793D01*
X5092150Y-27467150D01*
X5149450Y-27389511D01*
X5172791Y-27357885D01*
X5172791Y-27357884D01*
X5172793Y-27357882D01*
X5217646Y-27229699D01*
X5220500Y-27199266D01*
X5220500Y-26390734D01*
X5217646Y-26360301D01*
X5215462Y-26354060D01*
X5172795Y-26232123D01*
X5172791Y-26232114D01*
X5092150Y-26122849D01*
X4982885Y-26042208D01*
X4982876Y-26042204D01*
X4854698Y-25997353D01*
X4824275Y-25994500D01*
X4824266Y-25994500D01*
X3465734Y-25994500D01*
X3465724Y-25994500D01*
X3435301Y-25997353D01*
X3435300Y-25997353D01*
X3307123Y-26042204D01*
X3307114Y-26042208D01*
X3197849Y-26122849D01*
X3117208Y-26232114D01*
X3117204Y-26232123D01*
X3072353Y-26360300D01*
X3072353Y-26360301D01*
X3069500Y-26390724D01*
X500500Y-26390724D01*
X500500Y-24635688D01*
X13449500Y-24635688D01*
X13449500Y-24754311D01*
X13480200Y-24868884D01*
X13480201Y-24868887D01*
X13539511Y-24971613D01*
X13623387Y-25055489D01*
X13726114Y-25114799D01*
X13754758Y-25122474D01*
X13840688Y-25145500D01*
X13840691Y-25145500D01*
X13959311Y-25145500D01*
X13977268Y-25140688D01*
X15999500Y-25140688D01*
X15999500Y-25259311D01*
X16030200Y-25373884D01*
X16030201Y-25373887D01*
X16070970Y-25444500D01*
X16089511Y-25476613D01*
X16173387Y-25560489D01*
X16192656Y-25571614D01*
X16273666Y-25618386D01*
X16276114Y-25619799D01*
X16318406Y-25631131D01*
X16370312Y-25645040D01*
X16400064Y-25667870D01*
X16404959Y-25679687D01*
X16430201Y-25773886D01*
X16430201Y-25773887D01*
X16465884Y-25835691D01*
X16489511Y-25876613D01*
X16573387Y-25960489D01*
X16676114Y-26019799D01*
X16704758Y-26027474D01*
X16790688Y-26050500D01*
X16790691Y-26050500D01*
X16909311Y-26050500D01*
X16966597Y-26035149D01*
X17023886Y-26019799D01*
X17126613Y-25960489D01*
X17210489Y-25876613D01*
X17234117Y-25835688D01*
X24249500Y-25835688D01*
X24249500Y-25954311D01*
X24280200Y-26068884D01*
X24280201Y-26068887D01*
X24307495Y-26116161D01*
X24339511Y-26171613D01*
X24423387Y-26255489D01*
X24526114Y-26314799D01*
X24554758Y-26322474D01*
X24640688Y-26345500D01*
X24640691Y-26345500D01*
X24759311Y-26345500D01*
X24788490Y-26337681D01*
X24825672Y-26342575D01*
X24848503Y-26372328D01*
X24843609Y-26409510D01*
X24843608Y-26409511D01*
X24816313Y-26456785D01*
X24816312Y-26456789D01*
X24785612Y-26571362D01*
X24785612Y-26689985D01*
X24816312Y-26804558D01*
X24816313Y-26804561D01*
X24824296Y-26818387D01*
X24875623Y-26907287D01*
X24959499Y-26991163D01*
X25009094Y-27019797D01*
X25050813Y-27043884D01*
X25062226Y-27050473D01*
X25090870Y-27058148D01*
X25176800Y-27081174D01*
X25176803Y-27081174D01*
X25295423Y-27081174D01*
X25352709Y-27065823D01*
X25409998Y-27050473D01*
X25512725Y-26991163D01*
X25596601Y-26907287D01*
X25652373Y-26810688D01*
X31532000Y-26810688D01*
X31532000Y-26929311D01*
X31562700Y-27043884D01*
X31562701Y-27043887D01*
X31566503Y-27050472D01*
X31622011Y-27146613D01*
X31705887Y-27230489D01*
X31808614Y-27289799D01*
X31837258Y-27297474D01*
X31923188Y-27320500D01*
X31923191Y-27320500D01*
X32041811Y-27320500D01*
X32099097Y-27305149D01*
X32156386Y-27289799D01*
X32259113Y-27230489D01*
X32342989Y-27146613D01*
X32402299Y-27043886D01*
X32404496Y-27035688D01*
X35449500Y-27035688D01*
X35449500Y-27154311D01*
X35480200Y-27268884D01*
X35480201Y-27268887D01*
X35531580Y-27357876D01*
X35539511Y-27371613D01*
X35623387Y-27455489D01*
X35726114Y-27514799D01*
X35754758Y-27522474D01*
X35840688Y-27545500D01*
X35840691Y-27545500D01*
X35959311Y-27545500D01*
X36016597Y-27530149D01*
X36073886Y-27514799D01*
X36176613Y-27455489D01*
X36260489Y-27371613D01*
X36319799Y-27268886D01*
X36338454Y-27199266D01*
X36350500Y-27154311D01*
X36350500Y-27035688D01*
X36319799Y-26921115D01*
X36319798Y-26921112D01*
X36260488Y-26818386D01*
X36176613Y-26734511D01*
X36073887Y-26675201D01*
X36073884Y-26675200D01*
X35959312Y-26644500D01*
X35959309Y-26644500D01*
X35840691Y-26644500D01*
X35840688Y-26644500D01*
X35726115Y-26675200D01*
X35726112Y-26675201D01*
X35623386Y-26734511D01*
X35623386Y-26734512D01*
X35539512Y-26818386D01*
X35539511Y-26818386D01*
X35480201Y-26921112D01*
X35480200Y-26921115D01*
X35449500Y-27035688D01*
X32404496Y-27035688D01*
X32408754Y-27019797D01*
X32433000Y-26929311D01*
X32433000Y-26810688D01*
X32402299Y-26696115D01*
X32402298Y-26696112D01*
X32342988Y-26593386D01*
X32259113Y-26509511D01*
X32156387Y-26450201D01*
X32156384Y-26450200D01*
X32041812Y-26419500D01*
X32041809Y-26419500D01*
X31923191Y-26419500D01*
X31923188Y-26419500D01*
X31808615Y-26450200D01*
X31808612Y-26450201D01*
X31705886Y-26509511D01*
X31705886Y-26509512D01*
X31622012Y-26593386D01*
X31622011Y-26593386D01*
X31562701Y-26696112D01*
X31562700Y-26696115D01*
X31532000Y-26810688D01*
X25652373Y-26810688D01*
X25655911Y-26804560D01*
X25684970Y-26696112D01*
X25686612Y-26689984D01*
X25686612Y-26571362D01*
X25655911Y-26456789D01*
X25655910Y-26456786D01*
X25628615Y-26409510D01*
X25596601Y-26354061D01*
X25512725Y-26270185D01*
X25487271Y-26255489D01*
X25409999Y-26210875D01*
X25409996Y-26210874D01*
X25295424Y-26180174D01*
X25295421Y-26180174D01*
X25176803Y-26180174D01*
X25176802Y-26180174D01*
X25147619Y-26187993D01*
X25110437Y-26183097D01*
X25087607Y-26153343D01*
X25092502Y-26116164D01*
X25119799Y-26068886D01*
X25139731Y-25994500D01*
X25150500Y-25954311D01*
X25150500Y-25835688D01*
X25119799Y-25721115D01*
X25119798Y-25721112D01*
X25084117Y-25659311D01*
X25060489Y-25618387D01*
X24976613Y-25534511D01*
X24873887Y-25475201D01*
X24873884Y-25475200D01*
X24759312Y-25444500D01*
X24759309Y-25444500D01*
X24640691Y-25444500D01*
X24640688Y-25444500D01*
X24526115Y-25475200D01*
X24526112Y-25475201D01*
X24423386Y-25534511D01*
X24423386Y-25534512D01*
X24339512Y-25618386D01*
X24339511Y-25618386D01*
X24280201Y-25721112D01*
X24280200Y-25721115D01*
X24249500Y-25835688D01*
X17234117Y-25835688D01*
X17269799Y-25773886D01*
X17295040Y-25679687D01*
X17300500Y-25659311D01*
X17300500Y-25540688D01*
X17277474Y-25454758D01*
X17269799Y-25426114D01*
X17210489Y-25323387D01*
X17126613Y-25239511D01*
X17119992Y-25235688D01*
X34249500Y-25235688D01*
X34249500Y-25354311D01*
X34280200Y-25468884D01*
X34280201Y-25468887D01*
X34321656Y-25540688D01*
X34339511Y-25571613D01*
X34423387Y-25655489D01*
X34526114Y-25714799D01*
X34554758Y-25722474D01*
X34640688Y-25745500D01*
X34640691Y-25745500D01*
X34759311Y-25745500D01*
X34816597Y-25730149D01*
X34873886Y-25714799D01*
X34976613Y-25655489D01*
X35060489Y-25571613D01*
X35119799Y-25468886D01*
X35145254Y-25373887D01*
X35150500Y-25354311D01*
X35150500Y-25235688D01*
X35119799Y-25121115D01*
X35119798Y-25121112D01*
X35081908Y-25055486D01*
X35060489Y-25018387D01*
X34976613Y-24934511D01*
X34957344Y-24923386D01*
X34873887Y-24875201D01*
X34873884Y-24875200D01*
X34759312Y-24844500D01*
X34759309Y-24844500D01*
X34640691Y-24844500D01*
X34640688Y-24844500D01*
X34526115Y-24875200D01*
X34526112Y-24875201D01*
X34423386Y-24934511D01*
X34423386Y-24934512D01*
X34339512Y-25018386D01*
X34339511Y-25018386D01*
X34280201Y-25121112D01*
X34280200Y-25121115D01*
X34249500Y-25235688D01*
X17119992Y-25235688D01*
X17117699Y-25234364D01*
X17113883Y-25230932D01*
X17107846Y-25218293D01*
X17099320Y-25207181D01*
X17100015Y-25201897D01*
X17097720Y-25197091D01*
X17102387Y-25183887D01*
X17104216Y-25169999D01*
X17108443Y-25166755D01*
X17110219Y-25161732D01*
X17122857Y-25155695D01*
X17133970Y-25147169D01*
X17143273Y-25145944D01*
X17144060Y-25145569D01*
X17144620Y-25145767D01*
X17146651Y-25145500D01*
X17159311Y-25145500D01*
X17216597Y-25130149D01*
X17273886Y-25114799D01*
X17376613Y-25055489D01*
X17460489Y-24971613D01*
X17519799Y-24868886D01*
X17537605Y-24802434D01*
X17550500Y-24754311D01*
X17550500Y-24635688D01*
X17519799Y-24521115D01*
X17519798Y-24521112D01*
X17460488Y-24418386D01*
X17376613Y-24334511D01*
X17273889Y-24275202D01*
X17273884Y-24275200D01*
X17159312Y-24244500D01*
X17159309Y-24244500D01*
X17040691Y-24244500D01*
X17040688Y-24244500D01*
X16926115Y-24275200D01*
X16926112Y-24275201D01*
X16823386Y-24334511D01*
X16823386Y-24334512D01*
X16739512Y-24418386D01*
X16739511Y-24418386D01*
X16680201Y-24521112D01*
X16680200Y-24521115D01*
X16649500Y-24635688D01*
X16649500Y-24723206D01*
X16635148Y-24757854D01*
X16600500Y-24772206D01*
X16587818Y-24770536D01*
X16509312Y-24749500D01*
X16509309Y-24749500D01*
X16390691Y-24749500D01*
X16390688Y-24749500D01*
X16276115Y-24780200D01*
X16276112Y-24780201D01*
X16173386Y-24839511D01*
X16173386Y-24839512D01*
X16089512Y-24923386D01*
X16089511Y-24923386D01*
X16030201Y-25026112D01*
X16030200Y-25026115D01*
X15999500Y-25140688D01*
X13977268Y-25140688D01*
X14016597Y-25130149D01*
X14073886Y-25114799D01*
X14176613Y-25055489D01*
X14260489Y-24971613D01*
X14319799Y-24868886D01*
X14337605Y-24802434D01*
X14350500Y-24754311D01*
X14350500Y-24635688D01*
X14319799Y-24521115D01*
X14319798Y-24521112D01*
X14260488Y-24418386D01*
X14176613Y-24334511D01*
X14073887Y-24275201D01*
X14073884Y-24275200D01*
X13959312Y-24244500D01*
X13959309Y-24244500D01*
X13840691Y-24244500D01*
X13840688Y-24244500D01*
X13726115Y-24275200D01*
X13726112Y-24275201D01*
X13623386Y-24334511D01*
X13623386Y-24334512D01*
X13539512Y-24418386D01*
X13539511Y-24418386D01*
X13480201Y-24521112D01*
X13480200Y-24521115D01*
X13449500Y-24635688D01*
X500500Y-24635688D01*
X500500Y-24235688D01*
X28049500Y-24235688D01*
X28049500Y-24354311D01*
X28080200Y-24468884D01*
X28080201Y-24468887D01*
X28139511Y-24571613D01*
X28223387Y-24655489D01*
X28326114Y-24714799D01*
X28354758Y-24722474D01*
X28440688Y-24745500D01*
X28440691Y-24745500D01*
X28559311Y-24745500D01*
X28616597Y-24730149D01*
X28673886Y-24714799D01*
X28776613Y-24655489D01*
X28860489Y-24571613D01*
X28919799Y-24468886D01*
X28935149Y-24411597D01*
X28950500Y-24354311D01*
X28950500Y-24235688D01*
X28919799Y-24121115D01*
X28919798Y-24121112D01*
X28860488Y-24018386D01*
X28776613Y-23934511D01*
X28673887Y-23875201D01*
X28673884Y-23875200D01*
X28559312Y-23844500D01*
X28559309Y-23844500D01*
X28440691Y-23844500D01*
X28440688Y-23844500D01*
X28326115Y-23875200D01*
X28326112Y-23875201D01*
X28223386Y-23934511D01*
X28223386Y-23934512D01*
X28139512Y-24018386D01*
X28139511Y-24018386D01*
X28080201Y-24121112D01*
X28080200Y-24121115D01*
X28049500Y-24235688D01*
X500500Y-24235688D01*
X500500Y-23115349D01*
X24519654Y-23115349D01*
X24519654Y-23233972D01*
X24550354Y-23348545D01*
X24550355Y-23348548D01*
X24609665Y-23451274D01*
X24693541Y-23535150D01*
X24796268Y-23594460D01*
X24824912Y-23602135D01*
X24910842Y-23625161D01*
X24910845Y-23625161D01*
X25029465Y-23625161D01*
X25086751Y-23609810D01*
X25144040Y-23594460D01*
X25246767Y-23535150D01*
X25330643Y-23451274D01*
X25389953Y-23348547D01*
X25420194Y-23235688D01*
X25649500Y-23235688D01*
X25649500Y-23354311D01*
X25680200Y-23468884D01*
X25680201Y-23468887D01*
X25718458Y-23535149D01*
X25739511Y-23571613D01*
X25823387Y-23655489D01*
X25926114Y-23714799D01*
X25954758Y-23722474D01*
X26040688Y-23745500D01*
X26040691Y-23745500D01*
X26159311Y-23745500D01*
X26216597Y-23730149D01*
X26273886Y-23714799D01*
X26376613Y-23655489D01*
X26460489Y-23571613D01*
X26519799Y-23468886D01*
X26535149Y-23411597D01*
X26550500Y-23354311D01*
X26550500Y-23235688D01*
X26519799Y-23121115D01*
X26519798Y-23121112D01*
X26460488Y-23018386D01*
X26376613Y-22934511D01*
X26273887Y-22875201D01*
X26273884Y-22875200D01*
X26159312Y-22844500D01*
X26159309Y-22844500D01*
X26040691Y-22844500D01*
X26040688Y-22844500D01*
X25926115Y-22875200D01*
X25926112Y-22875201D01*
X25823386Y-22934511D01*
X25823386Y-22934512D01*
X25739512Y-23018386D01*
X25739511Y-23018386D01*
X25680201Y-23121112D01*
X25680200Y-23121115D01*
X25649500Y-23235688D01*
X25420194Y-23235688D01*
X25420654Y-23233972D01*
X25420654Y-23115349D01*
X25389953Y-23000776D01*
X25389952Y-23000773D01*
X25374059Y-22973246D01*
X25330643Y-22898048D01*
X25246767Y-22814172D01*
X25144041Y-22754862D01*
X25144038Y-22754861D01*
X25029466Y-22724161D01*
X25029463Y-22724161D01*
X24910845Y-22724161D01*
X24910842Y-22724161D01*
X24796269Y-22754861D01*
X24796266Y-22754862D01*
X24693540Y-22814172D01*
X24693540Y-22814173D01*
X24609666Y-22898047D01*
X24609665Y-22898047D01*
X24550355Y-23000773D01*
X24550354Y-23000776D01*
X24519654Y-23115349D01*
X500500Y-23115349D01*
X500500Y-21835688D01*
X30449500Y-21835688D01*
X30449500Y-21954311D01*
X30480200Y-22068884D01*
X30480201Y-22068887D01*
X30539511Y-22171613D01*
X30623387Y-22255489D01*
X30726114Y-22314799D01*
X30754758Y-22322474D01*
X30840688Y-22345500D01*
X30840691Y-22345500D01*
X30959311Y-22345500D01*
X31016597Y-22330149D01*
X31073886Y-22314799D01*
X31176613Y-22255489D01*
X31260489Y-22171613D01*
X31319799Y-22068886D01*
X31335149Y-22011597D01*
X31350500Y-21954311D01*
X31350500Y-21835688D01*
X31449500Y-21835688D01*
X31449500Y-21954311D01*
X31480200Y-22068884D01*
X31480201Y-22068887D01*
X31539511Y-22171613D01*
X31623387Y-22255489D01*
X31726114Y-22314799D01*
X31754758Y-22322474D01*
X31840688Y-22345500D01*
X31840691Y-22345500D01*
X31959311Y-22345500D01*
X32016597Y-22330149D01*
X32073886Y-22314799D01*
X32176613Y-22255489D01*
X32260489Y-22171613D01*
X32319799Y-22068886D01*
X32335149Y-22011597D01*
X32350500Y-21954311D01*
X32350500Y-21835688D01*
X32319799Y-21721115D01*
X32319798Y-21721112D01*
X32260488Y-21618386D01*
X32176613Y-21534511D01*
X32109568Y-21495802D01*
X32073887Y-21475201D01*
X32073884Y-21475200D01*
X32004379Y-21456576D01*
X40780352Y-21456576D01*
X40780352Y-21575199D01*
X40811052Y-21689772D01*
X40811053Y-21689775D01*
X40870363Y-21792501D01*
X40954239Y-21876377D01*
X41056966Y-21935687D01*
X41085610Y-21943362D01*
X41171540Y-21966388D01*
X41171543Y-21966388D01*
X41290163Y-21966388D01*
X41347449Y-21951037D01*
X41404738Y-21935687D01*
X41507465Y-21876377D01*
X41591341Y-21792501D01*
X41650651Y-21689774D01*
X41669779Y-21618387D01*
X41681352Y-21575199D01*
X41681352Y-21456576D01*
X41650651Y-21342003D01*
X41650650Y-21342000D01*
X41600702Y-21255489D01*
X41591341Y-21239275D01*
X41507465Y-21155399D01*
X41490320Y-21145500D01*
X41404739Y-21096089D01*
X41404736Y-21096088D01*
X41290164Y-21065388D01*
X41290161Y-21065388D01*
X41171543Y-21065388D01*
X41171540Y-21065388D01*
X41056967Y-21096088D01*
X41056964Y-21096089D01*
X40954238Y-21155399D01*
X40954238Y-21155400D01*
X40870364Y-21239274D01*
X40870363Y-21239274D01*
X40811053Y-21342000D01*
X40811052Y-21342003D01*
X40780352Y-21456576D01*
X32004379Y-21456576D01*
X31959312Y-21444500D01*
X31959309Y-21444500D01*
X31840691Y-21444500D01*
X31840688Y-21444500D01*
X31726115Y-21475200D01*
X31726112Y-21475201D01*
X31623386Y-21534511D01*
X31623386Y-21534512D01*
X31539512Y-21618386D01*
X31539511Y-21618386D01*
X31480201Y-21721112D01*
X31480200Y-21721115D01*
X31449500Y-21835688D01*
X31350500Y-21835688D01*
X31319799Y-21721115D01*
X31319798Y-21721112D01*
X31260488Y-21618386D01*
X31176613Y-21534511D01*
X31073887Y-21475201D01*
X31073884Y-21475200D01*
X30959312Y-21444500D01*
X30959309Y-21444500D01*
X30840691Y-21444500D01*
X30840688Y-21444500D01*
X30726115Y-21475200D01*
X30726112Y-21475201D01*
X30623386Y-21534511D01*
X30623386Y-21534512D01*
X30539512Y-21618386D01*
X30539511Y-21618386D01*
X30480201Y-21721112D01*
X30480200Y-21721115D01*
X30449500Y-21835688D01*
X500500Y-21835688D01*
X500500Y-20101520D01*
X6286674Y-20101520D01*
X6286674Y-20220143D01*
X6317374Y-20334716D01*
X6317375Y-20334719D01*
X6365681Y-20418386D01*
X6376685Y-20437445D01*
X6460561Y-20521321D01*
X6563288Y-20580631D01*
X6591932Y-20588306D01*
X6677862Y-20611332D01*
X6677865Y-20611332D01*
X6796485Y-20611332D01*
X6853771Y-20595981D01*
X6911060Y-20580631D01*
X7013787Y-20521321D01*
X7097663Y-20437445D01*
X7156973Y-20334718D01*
X7172921Y-20275200D01*
X7187674Y-20220143D01*
X7187674Y-20101521D01*
X7172572Y-20045162D01*
X7172572Y-20045161D01*
X7170034Y-20035688D01*
X14449500Y-20035688D01*
X14449500Y-20154311D01*
X14480200Y-20268884D01*
X14480201Y-20268887D01*
X14533442Y-20361101D01*
X14539511Y-20371613D01*
X14623387Y-20455489D01*
X14726114Y-20514799D01*
X14750451Y-20521320D01*
X14840688Y-20545500D01*
X14840691Y-20545500D01*
X14959311Y-20545500D01*
X14992754Y-20536538D01*
X15031918Y-20526044D01*
X15069099Y-20530938D01*
X15091930Y-20560691D01*
X15087036Y-20597873D01*
X15087035Y-20597874D01*
X15055262Y-20652905D01*
X15055261Y-20652909D01*
X15024561Y-20767482D01*
X15024561Y-20886105D01*
X15055261Y-21000678D01*
X15055262Y-21000681D01*
X15109075Y-21093886D01*
X15114572Y-21103407D01*
X15198448Y-21187283D01*
X15301175Y-21246593D01*
X15329819Y-21254268D01*
X15415749Y-21277294D01*
X15415752Y-21277294D01*
X15534372Y-21277294D01*
X15591658Y-21261943D01*
X15648947Y-21246593D01*
X15751674Y-21187283D01*
X15835550Y-21103407D01*
X15894860Y-21000680D01*
X15910210Y-20943391D01*
X15925561Y-20886105D01*
X15925561Y-20835688D01*
X22649500Y-20835688D01*
X22649500Y-20954311D01*
X22680200Y-21068884D01*
X22680201Y-21068887D01*
X22730150Y-21155399D01*
X22739511Y-21171613D01*
X22823387Y-21255489D01*
X22926114Y-21314799D01*
X22954758Y-21322474D01*
X23040688Y-21345500D01*
X23040691Y-21345500D01*
X23159311Y-21345500D01*
X23216597Y-21330149D01*
X23273886Y-21314799D01*
X23376613Y-21255489D01*
X23460489Y-21171613D01*
X23519799Y-21068886D01*
X23538075Y-21000678D01*
X23550500Y-20954311D01*
X23550500Y-20835688D01*
X23519799Y-20721115D01*
X23519798Y-20721112D01*
X23482770Y-20656979D01*
X23474923Y-20643387D01*
X23470478Y-20635688D01*
X28849500Y-20635688D01*
X28849500Y-20754311D01*
X28880200Y-20868884D01*
X28880201Y-20868887D01*
X28939511Y-20971613D01*
X29023387Y-21055489D01*
X29126114Y-21114799D01*
X29154758Y-21122474D01*
X29240688Y-21145500D01*
X29240691Y-21145500D01*
X29359311Y-21145500D01*
X29416597Y-21130149D01*
X29473886Y-21114799D01*
X29576613Y-21055489D01*
X29660489Y-20971613D01*
X29719799Y-20868886D01*
X29735149Y-20811597D01*
X29750500Y-20754311D01*
X29750500Y-20635688D01*
X30849500Y-20635688D01*
X30849500Y-20754311D01*
X30880200Y-20868884D01*
X30880201Y-20868887D01*
X30939511Y-20971613D01*
X31023387Y-21055489D01*
X31126114Y-21114799D01*
X31154758Y-21122474D01*
X31240688Y-21145500D01*
X31240691Y-21145500D01*
X31359311Y-21145500D01*
X31416597Y-21130149D01*
X31473886Y-21114799D01*
X31576613Y-21055489D01*
X31660489Y-20971613D01*
X31719799Y-20868886D01*
X31735149Y-20811597D01*
X31750500Y-20754311D01*
X31750500Y-20635688D01*
X31719799Y-20521115D01*
X31719798Y-20521112D01*
X31671492Y-20437445D01*
X31660489Y-20418387D01*
X31576613Y-20334511D01*
X31542471Y-20314799D01*
X31473887Y-20275201D01*
X31473884Y-20275200D01*
X31359312Y-20244500D01*
X31359309Y-20244500D01*
X31240691Y-20244500D01*
X31240688Y-20244500D01*
X31126115Y-20275200D01*
X31126112Y-20275201D01*
X31023386Y-20334511D01*
X31023386Y-20334512D01*
X30939512Y-20418386D01*
X30939511Y-20418386D01*
X30880201Y-20521112D01*
X30880200Y-20521115D01*
X30849500Y-20635688D01*
X29750500Y-20635688D01*
X29719799Y-20521115D01*
X29719798Y-20521112D01*
X29671492Y-20437445D01*
X29660489Y-20418387D01*
X29576613Y-20334511D01*
X29542471Y-20314799D01*
X29473887Y-20275201D01*
X29473884Y-20275200D01*
X29359312Y-20244500D01*
X29359309Y-20244500D01*
X29240691Y-20244500D01*
X29240688Y-20244500D01*
X29126115Y-20275200D01*
X29126112Y-20275201D01*
X29023386Y-20334511D01*
X29023386Y-20334512D01*
X28939512Y-20418386D01*
X28939511Y-20418386D01*
X28880201Y-20521112D01*
X28880200Y-20521115D01*
X28849500Y-20635688D01*
X23470478Y-20635688D01*
X23460489Y-20618387D01*
X23376613Y-20534511D01*
X23362935Y-20526614D01*
X23273887Y-20475201D01*
X23273884Y-20475200D01*
X23159312Y-20444500D01*
X23159309Y-20444500D01*
X23040691Y-20444500D01*
X23040688Y-20444500D01*
X22926115Y-20475200D01*
X22926112Y-20475201D01*
X22823386Y-20534511D01*
X22823386Y-20534512D01*
X22739512Y-20618386D01*
X22739511Y-20618386D01*
X22680201Y-20721112D01*
X22680200Y-20721115D01*
X22649500Y-20835688D01*
X15925561Y-20835688D01*
X15925561Y-20767483D01*
X15919285Y-20744063D01*
X15924179Y-20706881D01*
X15953932Y-20684050D01*
X15979297Y-20684050D01*
X16040687Y-20700499D01*
X16040688Y-20700500D01*
X16040691Y-20700500D01*
X16159311Y-20700500D01*
X16220701Y-20684050D01*
X16273886Y-20669799D01*
X16376613Y-20610489D01*
X16460489Y-20526613D01*
X16519799Y-20423886D01*
X16540803Y-20345500D01*
X16550500Y-20309311D01*
X16550500Y-20190688D01*
X16519799Y-20076115D01*
X16519798Y-20076112D01*
X16501928Y-20045161D01*
X16460489Y-19973387D01*
X16376613Y-19889511D01*
X16367445Y-19884218D01*
X16273887Y-19830201D01*
X16273884Y-19830200D01*
X16159312Y-19799500D01*
X16159309Y-19799500D01*
X16040691Y-19799500D01*
X16040688Y-19799500D01*
X15926115Y-19830200D01*
X15926112Y-19830201D01*
X15823386Y-19889511D01*
X15823386Y-19889512D01*
X15739512Y-19973386D01*
X15739511Y-19973386D01*
X15680201Y-20076112D01*
X15680200Y-20076115D01*
X15649500Y-20190688D01*
X15649500Y-20309312D01*
X15655775Y-20332731D01*
X15650880Y-20369913D01*
X15621127Y-20392743D01*
X15595763Y-20392743D01*
X15534373Y-20376294D01*
X15534370Y-20376294D01*
X15415752Y-20376294D01*
X15415749Y-20376294D01*
X15343142Y-20395749D01*
X15305960Y-20390854D01*
X15283130Y-20361101D01*
X15288025Y-20323919D01*
X15319799Y-20268886D01*
X15338175Y-20200306D01*
X15350500Y-20154311D01*
X15350500Y-20035688D01*
X15320490Y-19923693D01*
X15319799Y-19921114D01*
X15260489Y-19818387D01*
X15176613Y-19734511D01*
X15123897Y-19704075D01*
X15100376Y-19690495D01*
X26136132Y-19690495D01*
X26136132Y-19809118D01*
X26166832Y-19923691D01*
X26166833Y-19923694D01*
X26195524Y-19973387D01*
X26226143Y-20026420D01*
X26310019Y-20110296D01*
X26353609Y-20135463D01*
X26411306Y-20168775D01*
X26412746Y-20169606D01*
X26441390Y-20177281D01*
X26527320Y-20200307D01*
X26527323Y-20200307D01*
X26645944Y-20200307D01*
X26645944Y-20200306D01*
X26706904Y-20183972D01*
X26763621Y-20168775D01*
X26764051Y-20170381D01*
X26796141Y-20170366D01*
X26822673Y-20196871D01*
X26824742Y-20202962D01*
X26850355Y-20298547D01*
X26850355Y-20298548D01*
X26892540Y-20371613D01*
X26909665Y-20401274D01*
X26993541Y-20485150D01*
X27096268Y-20544460D01*
X27117619Y-20550181D01*
X27210842Y-20575161D01*
X27210845Y-20575161D01*
X27329465Y-20575161D01*
X27387869Y-20559511D01*
X27444040Y-20544460D01*
X27546767Y-20485150D01*
X27630643Y-20401274D01*
X27689953Y-20298547D01*
X27705303Y-20241258D01*
X27720654Y-20183972D01*
X27720654Y-20065349D01*
X27689953Y-19950776D01*
X27689952Y-19950773D01*
X27654582Y-19889511D01*
X27630643Y-19848048D01*
X27618283Y-19835688D01*
X32449500Y-19835688D01*
X32449500Y-19954311D01*
X32480200Y-20068884D01*
X32480201Y-20068887D01*
X32537872Y-20168775D01*
X32539511Y-20171613D01*
X32623387Y-20255489D01*
X32657529Y-20275201D01*
X32716608Y-20309311D01*
X32726114Y-20314799D01*
X32754758Y-20322474D01*
X32840688Y-20345500D01*
X32840691Y-20345500D01*
X32959311Y-20345500D01*
X33016597Y-20330149D01*
X33073886Y-20314799D01*
X33176613Y-20255489D01*
X33260489Y-20171613D01*
X33319799Y-20068886D01*
X33341755Y-19986946D01*
X33350500Y-19954311D01*
X33350500Y-19835688D01*
X33319799Y-19721115D01*
X33319798Y-19721112D01*
X33260488Y-19618386D01*
X33176613Y-19534511D01*
X33073887Y-19475201D01*
X33073884Y-19475200D01*
X32959312Y-19444500D01*
X32959309Y-19444500D01*
X32840691Y-19444500D01*
X32840688Y-19444500D01*
X32726115Y-19475200D01*
X32726112Y-19475201D01*
X32623386Y-19534511D01*
X32623386Y-19534512D01*
X32539512Y-19618386D01*
X32539511Y-19618386D01*
X32480201Y-19721112D01*
X32480200Y-19721115D01*
X32449500Y-19835688D01*
X27618283Y-19835688D01*
X27546767Y-19764172D01*
X27444041Y-19704862D01*
X27444038Y-19704861D01*
X27329466Y-19674161D01*
X27329463Y-19674161D01*
X27210845Y-19674161D01*
X27210842Y-19674161D01*
X27093166Y-19705693D01*
X27092740Y-19704104D01*
X27060580Y-19704075D01*
X27034086Y-19677532D01*
X27032043Y-19671504D01*
X27006431Y-19575922D01*
X27006430Y-19575919D01*
X26982523Y-19534511D01*
X26947121Y-19473194D01*
X26863245Y-19389318D01*
X26787351Y-19345500D01*
X26760519Y-19330008D01*
X26760516Y-19330007D01*
X26645944Y-19299307D01*
X26645941Y-19299307D01*
X26527323Y-19299307D01*
X26527320Y-19299307D01*
X26412747Y-19330007D01*
X26412744Y-19330008D01*
X26310018Y-19389318D01*
X26310018Y-19389319D01*
X26226144Y-19473193D01*
X26226143Y-19473193D01*
X26166833Y-19575919D01*
X26166832Y-19575922D01*
X26136132Y-19690495D01*
X15100376Y-19690495D01*
X15073887Y-19675201D01*
X15073884Y-19675200D01*
X14959312Y-19644500D01*
X14959309Y-19644500D01*
X14840691Y-19644500D01*
X14840688Y-19644500D01*
X14726115Y-19675200D01*
X14726112Y-19675201D01*
X14623386Y-19734511D01*
X14623386Y-19734512D01*
X14539512Y-19818386D01*
X14539511Y-19818386D01*
X14480201Y-19921112D01*
X14480200Y-19921115D01*
X14449500Y-20035688D01*
X7170034Y-20035688D01*
X7156973Y-19986947D01*
X7156972Y-19986944D01*
X7120454Y-19923694D01*
X7097663Y-19884219D01*
X7013787Y-19800343D01*
X6951138Y-19764172D01*
X6911061Y-19741033D01*
X6911058Y-19741032D01*
X6796486Y-19710332D01*
X6796483Y-19710332D01*
X6677865Y-19710332D01*
X6677862Y-19710332D01*
X6563289Y-19741032D01*
X6563286Y-19741033D01*
X6460560Y-19800343D01*
X6460560Y-19800344D01*
X6376686Y-19884218D01*
X6376685Y-19884218D01*
X6317375Y-19986944D01*
X6317374Y-19986947D01*
X6286674Y-20101520D01*
X500500Y-20101520D01*
X500500Y-18690688D01*
X15649500Y-18690688D01*
X15649500Y-18809311D01*
X15680200Y-18923884D01*
X15680201Y-18923887D01*
X15697767Y-18954311D01*
X15739511Y-19026613D01*
X15823387Y-19110489D01*
X15926114Y-19169799D01*
X15932888Y-19171614D01*
X16040688Y-19200500D01*
X16040691Y-19200500D01*
X16159311Y-19200500D01*
X16216597Y-19185149D01*
X16273886Y-19169799D01*
X16376613Y-19110489D01*
X16460489Y-19026613D01*
X16519799Y-18923886D01*
X16543432Y-18835688D01*
X16550500Y-18809311D01*
X16550500Y-18780366D01*
X21178745Y-18780366D01*
X21178745Y-18898989D01*
X21209445Y-19013562D01*
X21209446Y-19013565D01*
X21216980Y-19026614D01*
X21268756Y-19116291D01*
X21352632Y-19200167D01*
X21353209Y-19200500D01*
X21448451Y-19255489D01*
X21455359Y-19259477D01*
X21484003Y-19267152D01*
X21569933Y-19290178D01*
X21569936Y-19290178D01*
X21688556Y-19290178D01*
X21745842Y-19274827D01*
X21803131Y-19259477D01*
X21905858Y-19200167D01*
X21989734Y-19116291D01*
X22049044Y-19013564D01*
X22073073Y-18923887D01*
X22079745Y-18898989D01*
X22079745Y-18835688D01*
X22849500Y-18835688D01*
X22849500Y-18954311D01*
X22880200Y-19068884D01*
X22880201Y-19068887D01*
X22907571Y-19116292D01*
X22939511Y-19171613D01*
X23023387Y-19255489D01*
X23126114Y-19314799D01*
X23154758Y-19322474D01*
X23240688Y-19345500D01*
X23240691Y-19345500D01*
X23359311Y-19345500D01*
X23417129Y-19330007D01*
X23473886Y-19314799D01*
X23576613Y-19255489D01*
X23660489Y-19171613D01*
X23719799Y-19068886D01*
X23735149Y-19011597D01*
X23750500Y-18954311D01*
X23750500Y-18835688D01*
X23719799Y-18721115D01*
X23719798Y-18721112D01*
X23687859Y-18665793D01*
X23660489Y-18618387D01*
X23576613Y-18534511D01*
X23517705Y-18500500D01*
X23473887Y-18475201D01*
X23473884Y-18475200D01*
X23359312Y-18444500D01*
X23359309Y-18444500D01*
X23240691Y-18444500D01*
X23240688Y-18444500D01*
X23126115Y-18475200D01*
X23126112Y-18475201D01*
X23023386Y-18534511D01*
X23023386Y-18534512D01*
X22939512Y-18618386D01*
X22939511Y-18618386D01*
X22880201Y-18721112D01*
X22880200Y-18721115D01*
X22849500Y-18835688D01*
X22079745Y-18835688D01*
X22079745Y-18780366D01*
X22049044Y-18665793D01*
X22049043Y-18665790D01*
X21997268Y-18576114D01*
X21989734Y-18563065D01*
X21905858Y-18479189D01*
X21889594Y-18469799D01*
X21803132Y-18419879D01*
X21803129Y-18419878D01*
X21688557Y-18389178D01*
X21688554Y-18389178D01*
X21569936Y-18389178D01*
X21569933Y-18389178D01*
X21455360Y-18419878D01*
X21455357Y-18419879D01*
X21352631Y-18479189D01*
X21352631Y-18479190D01*
X21268757Y-18563064D01*
X21268756Y-18563064D01*
X21209446Y-18665790D01*
X21209445Y-18665793D01*
X21178745Y-18780366D01*
X16550500Y-18780366D01*
X16550500Y-18690688D01*
X16519799Y-18576115D01*
X16519798Y-18576112D01*
X16463839Y-18479190D01*
X16460489Y-18473387D01*
X16376613Y-18389511D01*
X16376036Y-18389178D01*
X16273887Y-18330201D01*
X16273884Y-18330200D01*
X16159312Y-18299500D01*
X16159309Y-18299500D01*
X16040691Y-18299500D01*
X16040688Y-18299500D01*
X15926115Y-18330200D01*
X15926112Y-18330201D01*
X15823386Y-18389511D01*
X15823386Y-18389512D01*
X15739512Y-18473386D01*
X15739511Y-18473386D01*
X15680201Y-18576112D01*
X15680200Y-18576115D01*
X15649500Y-18690688D01*
X500500Y-18690688D01*
X500500Y-18235688D01*
X23649500Y-18235688D01*
X23649500Y-18354311D01*
X23680200Y-18468884D01*
X23680201Y-18468888D01*
X23714727Y-18528686D01*
X23739511Y-18571613D01*
X23823387Y-18655489D01*
X23926114Y-18714799D01*
X23954758Y-18722474D01*
X24040688Y-18745500D01*
X24040691Y-18745500D01*
X24159311Y-18745500D01*
X24216597Y-18730149D01*
X24273886Y-18714799D01*
X24376613Y-18655489D01*
X24460489Y-18571613D01*
X24519799Y-18468886D01*
X24535447Y-18410488D01*
X24550500Y-18354311D01*
X24550500Y-18235688D01*
X24519799Y-18121115D01*
X24519798Y-18121112D01*
X24491219Y-18071613D01*
X24460489Y-18018387D01*
X24432790Y-17990688D01*
X29449500Y-17990688D01*
X29449500Y-18109311D01*
X29480200Y-18223884D01*
X29480201Y-18223887D01*
X29492680Y-18245500D01*
X29539511Y-18326613D01*
X29623387Y-18410489D01*
X29639651Y-18419879D01*
X29724532Y-18468886D01*
X29726114Y-18469799D01*
X29754758Y-18477474D01*
X29840688Y-18500500D01*
X29840691Y-18500500D01*
X29959311Y-18500500D01*
X30016597Y-18485149D01*
X30073886Y-18469799D01*
X30176613Y-18410489D01*
X30260489Y-18326613D01*
X30319799Y-18223886D01*
X30347337Y-18121114D01*
X30350500Y-18109311D01*
X30350500Y-17990688D01*
X30319799Y-17876115D01*
X30319798Y-17876112D01*
X30260488Y-17773386D01*
X30222790Y-17735688D01*
X30849500Y-17735688D01*
X30849500Y-17854311D01*
X30880200Y-17968884D01*
X30880201Y-17968887D01*
X30908782Y-18018390D01*
X30939511Y-18071613D01*
X31023387Y-18155489D01*
X31126114Y-18214799D01*
X31154758Y-18222474D01*
X31240688Y-18245500D01*
X31240691Y-18245500D01*
X31359311Y-18245500D01*
X31439969Y-18223887D01*
X31473886Y-18214799D01*
X31576613Y-18155489D01*
X31660489Y-18071613D01*
X31719799Y-17968886D01*
X31744657Y-17876115D01*
X31750500Y-17854311D01*
X31750500Y-17785191D01*
X31764852Y-17750543D01*
X31799500Y-17736191D01*
X31812183Y-17737861D01*
X31840689Y-17745500D01*
X31840691Y-17745500D01*
X31959311Y-17745500D01*
X32016597Y-17730149D01*
X32073886Y-17714799D01*
X32176613Y-17655489D01*
X32260489Y-17571613D01*
X32319799Y-17468886D01*
X32344902Y-17375201D01*
X32350500Y-17354311D01*
X32350500Y-17235688D01*
X32319799Y-17121115D01*
X32319798Y-17121112D01*
X32260488Y-17018386D01*
X32176613Y-16934511D01*
X32073887Y-16875201D01*
X32073884Y-16875200D01*
X31959312Y-16844500D01*
X31959309Y-16844500D01*
X31840691Y-16844500D01*
X31840688Y-16844500D01*
X31726115Y-16875200D01*
X31726112Y-16875201D01*
X31623386Y-16934511D01*
X31623386Y-16934512D01*
X31539512Y-17018386D01*
X31539511Y-17018386D01*
X31480201Y-17121112D01*
X31480200Y-17121115D01*
X31449500Y-17235688D01*
X31449500Y-17304808D01*
X31435148Y-17339456D01*
X31400500Y-17353808D01*
X31387818Y-17352138D01*
X31359312Y-17344500D01*
X31359309Y-17344500D01*
X31240691Y-17344500D01*
X31240688Y-17344500D01*
X31126115Y-17375200D01*
X31126112Y-17375201D01*
X31023386Y-17434511D01*
X31023386Y-17434512D01*
X30939512Y-17518386D01*
X30939511Y-17518386D01*
X30880201Y-17621112D01*
X30880200Y-17621115D01*
X30849500Y-17735688D01*
X30222790Y-17735688D01*
X30176613Y-17689511D01*
X30073887Y-17630201D01*
X30073884Y-17630200D01*
X29959312Y-17599500D01*
X29959309Y-17599500D01*
X29840691Y-17599500D01*
X29840688Y-17599500D01*
X29726115Y-17630200D01*
X29726112Y-17630201D01*
X29623386Y-17689511D01*
X29623386Y-17689512D01*
X29539512Y-17773386D01*
X29539511Y-17773386D01*
X29480201Y-17876112D01*
X29480200Y-17876115D01*
X29449500Y-17990688D01*
X24432790Y-17990688D01*
X24376613Y-17934511D01*
X24273887Y-17875201D01*
X24273884Y-17875200D01*
X24159312Y-17844500D01*
X24159309Y-17844500D01*
X24040691Y-17844500D01*
X24040688Y-17844500D01*
X23926115Y-17875200D01*
X23926112Y-17875201D01*
X23823386Y-17934511D01*
X23823386Y-17934512D01*
X23739512Y-18018386D01*
X23739511Y-18018386D01*
X23680201Y-18121112D01*
X23680200Y-18121115D01*
X23649500Y-18235688D01*
X500500Y-18235688D01*
X500500Y-16835688D01*
X20849500Y-16835688D01*
X20849500Y-16954311D01*
X20880200Y-17068884D01*
X20880201Y-17068887D01*
X20925991Y-17148196D01*
X20939511Y-17171613D01*
X21023387Y-17255489D01*
X21126114Y-17314799D01*
X21154758Y-17322474D01*
X21240688Y-17345500D01*
X21240691Y-17345500D01*
X21359311Y-17345500D01*
X21416597Y-17330149D01*
X21473886Y-17314799D01*
X21576613Y-17255489D01*
X21660489Y-17171613D01*
X21719799Y-17068886D01*
X21748549Y-16961592D01*
X21750500Y-16954311D01*
X21750500Y-16835688D01*
X21719799Y-16721115D01*
X21719798Y-16721112D01*
X21660488Y-16618386D01*
X21576613Y-16534511D01*
X21473887Y-16475201D01*
X21473884Y-16475200D01*
X21359312Y-16444500D01*
X21359309Y-16444500D01*
X21240691Y-16444500D01*
X21240688Y-16444500D01*
X21126115Y-16475200D01*
X21126112Y-16475201D01*
X21023386Y-16534511D01*
X21023386Y-16534512D01*
X20939512Y-16618386D01*
X20939511Y-16618386D01*
X20880201Y-16721112D01*
X20880200Y-16721115D01*
X20849500Y-16835688D01*
X500500Y-16835688D01*
X500500Y-16235688D01*
X25649500Y-16235688D01*
X25649500Y-16354311D01*
X25680200Y-16468884D01*
X25680201Y-16468887D01*
X25739511Y-16571613D01*
X25823387Y-16655489D01*
X25926114Y-16714799D01*
X25954758Y-16722474D01*
X26040688Y-16745500D01*
X26040691Y-16745500D01*
X26159311Y-16745500D01*
X26223130Y-16728399D01*
X26223141Y-16728396D01*
X37865043Y-16728396D01*
X37865043Y-16847019D01*
X37895743Y-16961592D01*
X37895744Y-16961595D01*
X37955054Y-17064321D01*
X38038930Y-17148197D01*
X38141657Y-17207507D01*
X38170301Y-17215182D01*
X38256231Y-17238208D01*
X38256234Y-17238208D01*
X38374854Y-17238208D01*
X38432140Y-17222857D01*
X38489429Y-17207507D01*
X38592156Y-17148197D01*
X38676032Y-17064321D01*
X38735342Y-16961594D01*
X38758491Y-16875201D01*
X38766043Y-16847019D01*
X38766043Y-16728396D01*
X38735342Y-16613823D01*
X38735341Y-16613820D01*
X38676031Y-16511094D01*
X38592156Y-16427219D01*
X38489430Y-16367909D01*
X38489427Y-16367908D01*
X38374855Y-16337208D01*
X38374852Y-16337208D01*
X38256234Y-16337208D01*
X38256231Y-16337208D01*
X38141658Y-16367908D01*
X38141655Y-16367909D01*
X38038929Y-16427219D01*
X38038929Y-16427220D01*
X37955055Y-16511094D01*
X37955054Y-16511094D01*
X37895744Y-16613820D01*
X37895743Y-16613823D01*
X37865043Y-16728396D01*
X26223141Y-16728396D01*
X26273886Y-16714799D01*
X26376613Y-16655489D01*
X26460489Y-16571613D01*
X26519799Y-16468886D01*
X26546856Y-16367909D01*
X26550500Y-16354311D01*
X26550500Y-16235688D01*
X26519799Y-16121115D01*
X26519798Y-16121112D01*
X26460488Y-16018386D01*
X26376613Y-15934511D01*
X26273887Y-15875201D01*
X26273884Y-15875200D01*
X26159312Y-15844500D01*
X26159309Y-15844500D01*
X26040691Y-15844500D01*
X26040688Y-15844500D01*
X25926115Y-15875200D01*
X25926112Y-15875201D01*
X25823386Y-15934511D01*
X25823386Y-15934512D01*
X25739512Y-16018386D01*
X25739511Y-16018386D01*
X25680201Y-16121112D01*
X25680200Y-16121115D01*
X25649500Y-16235688D01*
X500500Y-16235688D01*
X500500Y-14990688D01*
X16699500Y-14990688D01*
X16699500Y-15109311D01*
X16730200Y-15223884D01*
X16730201Y-15223887D01*
X16782690Y-15314799D01*
X16789511Y-15326613D01*
X16873387Y-15410489D01*
X16976114Y-15469799D01*
X17004758Y-15477474D01*
X17090688Y-15500500D01*
X17090691Y-15500500D01*
X17209311Y-15500500D01*
X17266597Y-15485149D01*
X17323886Y-15469799D01*
X17426613Y-15410489D01*
X17510489Y-15326613D01*
X17569799Y-15223886D01*
X17585149Y-15166597D01*
X17600500Y-15109311D01*
X17600500Y-14990688D01*
X17569799Y-14876115D01*
X17569798Y-14876112D01*
X17553905Y-14848585D01*
X17510489Y-14773387D01*
X17426613Y-14689511D01*
X17323887Y-14630201D01*
X17323884Y-14630200D01*
X17209312Y-14599500D01*
X17209309Y-14599500D01*
X17090691Y-14599500D01*
X17090688Y-14599500D01*
X16976115Y-14630200D01*
X16976112Y-14630201D01*
X16873386Y-14689511D01*
X16873386Y-14689512D01*
X16789512Y-14773386D01*
X16789511Y-14773386D01*
X16730201Y-14876112D01*
X16730200Y-14876115D01*
X16699500Y-14990688D01*
X500500Y-14990688D01*
X500500Y-14460688D01*
X28913378Y-14460688D01*
X28913378Y-14579311D01*
X28944078Y-14693884D01*
X28944079Y-14693887D01*
X28989979Y-14773386D01*
X29003389Y-14796613D01*
X29087265Y-14880489D01*
X29189992Y-14939799D01*
X29218636Y-14947474D01*
X29304566Y-14970500D01*
X29304569Y-14970500D01*
X29423189Y-14970500D01*
X29483612Y-14954309D01*
X29537764Y-14939799D01*
X29640491Y-14880489D01*
X29685292Y-14835688D01*
X32449500Y-14835688D01*
X32449500Y-14954311D01*
X32480200Y-15068884D01*
X32480201Y-15068887D01*
X32539511Y-15171613D01*
X32623387Y-15255489D01*
X32726114Y-15314799D01*
X32754758Y-15322474D01*
X32840688Y-15345500D01*
X32840691Y-15345500D01*
X32959311Y-15345500D01*
X33029792Y-15326614D01*
X33073886Y-15314799D01*
X33176613Y-15255489D01*
X33260489Y-15171613D01*
X33319799Y-15068886D01*
X33335149Y-15011597D01*
X33350500Y-14954311D01*
X33350500Y-14835688D01*
X33319799Y-14721115D01*
X33319798Y-14721112D01*
X33260488Y-14618386D01*
X33176613Y-14534511D01*
X33073887Y-14475201D01*
X33073884Y-14475200D01*
X32959312Y-14444500D01*
X32959309Y-14444500D01*
X32840691Y-14444500D01*
X32840688Y-14444500D01*
X32726115Y-14475200D01*
X32726112Y-14475201D01*
X32623386Y-14534511D01*
X32623386Y-14534512D01*
X32539512Y-14618386D01*
X32539511Y-14618386D01*
X32480201Y-14721112D01*
X32480200Y-14721115D01*
X32449500Y-14835688D01*
X29685292Y-14835688D01*
X29724367Y-14796613D01*
X29783677Y-14693886D01*
X29799027Y-14636597D01*
X29814378Y-14579311D01*
X29814378Y-14460688D01*
X29783677Y-14346115D01*
X29783676Y-14346112D01*
X29767783Y-14318585D01*
X29724367Y-14243387D01*
X29640491Y-14159511D01*
X29537765Y-14100201D01*
X29537762Y-14100200D01*
X29423190Y-14069500D01*
X29423187Y-14069500D01*
X29304569Y-14069500D01*
X29304566Y-14069500D01*
X29189993Y-14100200D01*
X29189990Y-14100201D01*
X29087264Y-14159511D01*
X29087264Y-14159512D01*
X29003390Y-14243386D01*
X29003389Y-14243386D01*
X28944079Y-14346112D01*
X28944078Y-14346115D01*
X28913378Y-14460688D01*
X500500Y-14460688D01*
X500500Y-13790688D01*
X16349500Y-13790688D01*
X16349500Y-13909311D01*
X16380200Y-14023884D01*
X16380201Y-14023887D01*
X16432690Y-14114799D01*
X16439511Y-14126613D01*
X16523387Y-14210489D01*
X16626114Y-14269799D01*
X16654758Y-14277474D01*
X16740688Y-14300500D01*
X16740691Y-14300500D01*
X16859311Y-14300500D01*
X16916597Y-14285149D01*
X16973886Y-14269799D01*
X17076613Y-14210489D01*
X17160489Y-14126613D01*
X17219799Y-14023886D01*
X17235149Y-13966597D01*
X17250500Y-13909311D01*
X17250500Y-13790688D01*
X17219799Y-13676115D01*
X17219798Y-13676112D01*
X17201652Y-13644683D01*
X17160489Y-13573387D01*
X17076613Y-13489511D01*
X17044198Y-13470796D01*
X16973887Y-13430201D01*
X16973884Y-13430200D01*
X16859312Y-13399500D01*
X16859309Y-13399500D01*
X16740691Y-13399500D01*
X16740688Y-13399500D01*
X16626115Y-13430200D01*
X16626112Y-13430201D01*
X16523386Y-13489511D01*
X16523386Y-13489512D01*
X16439512Y-13573386D01*
X16439511Y-13573386D01*
X16380201Y-13676112D01*
X16380200Y-13676115D01*
X16349500Y-13790688D01*
X500500Y-13790688D01*
X500500Y-13134871D01*
X23252823Y-13134871D01*
X23252823Y-13253494D01*
X23283523Y-13368067D01*
X23283524Y-13368070D01*
X23342834Y-13470796D01*
X23426710Y-13554672D01*
X23529437Y-13613982D01*
X23558081Y-13621657D01*
X23644011Y-13644683D01*
X23644014Y-13644683D01*
X23762634Y-13644683D01*
X23796201Y-13635688D01*
X28049500Y-13635688D01*
X28049500Y-13754311D01*
X28080200Y-13868884D01*
X28080201Y-13868887D01*
X28139511Y-13971613D01*
X28223387Y-14055489D01*
X28326114Y-14114799D01*
X28354758Y-14122474D01*
X28440688Y-14145500D01*
X28440691Y-14145500D01*
X28559311Y-14145500D01*
X28629792Y-14126614D01*
X28673886Y-14114799D01*
X28776613Y-14055489D01*
X28860489Y-13971613D01*
X28919799Y-13868886D01*
X28935149Y-13811597D01*
X28950500Y-13754311D01*
X28950500Y-13635688D01*
X28919799Y-13521115D01*
X28919798Y-13521112D01*
X28901553Y-13489511D01*
X28860489Y-13418387D01*
X28776613Y-13334511D01*
X28673887Y-13275201D01*
X28673884Y-13275200D01*
X28559312Y-13244500D01*
X28559309Y-13244500D01*
X28440691Y-13244500D01*
X28440688Y-13244500D01*
X28326115Y-13275200D01*
X28326112Y-13275201D01*
X28223386Y-13334511D01*
X28223386Y-13334512D01*
X28139512Y-13418386D01*
X28139511Y-13418386D01*
X28080201Y-13521112D01*
X28080200Y-13521115D01*
X28049500Y-13635688D01*
X23796201Y-13635688D01*
X23819920Y-13629332D01*
X23877209Y-13613982D01*
X23979936Y-13554672D01*
X24063812Y-13470796D01*
X24123122Y-13368069D01*
X24148006Y-13275201D01*
X24153823Y-13253494D01*
X24153823Y-13134871D01*
X24153822Y-13134870D01*
X24123123Y-13020299D01*
X24123121Y-13020295D01*
X24117574Y-13010688D01*
X25194500Y-13010688D01*
X25194500Y-13129311D01*
X25225200Y-13243884D01*
X25225201Y-13243887D01*
X25277524Y-13334511D01*
X25284511Y-13346613D01*
X25368387Y-13430489D01*
X25471114Y-13489799D01*
X25499758Y-13497474D01*
X25585688Y-13520500D01*
X25585691Y-13520500D01*
X25704311Y-13520500D01*
X25761597Y-13505149D01*
X25818886Y-13489799D01*
X25921613Y-13430489D01*
X26005489Y-13346613D01*
X26064799Y-13243886D01*
X26094010Y-13134870D01*
X26095500Y-13129311D01*
X26095500Y-13010689D01*
X26085613Y-12973792D01*
X26085613Y-12973791D01*
X26083075Y-12964318D01*
X29062608Y-12964318D01*
X29062608Y-13082941D01*
X29093308Y-13197514D01*
X29093309Y-13197517D01*
X29120435Y-13244500D01*
X29152619Y-13300243D01*
X29236495Y-13384119D01*
X29339222Y-13443429D01*
X29367866Y-13451104D01*
X29453796Y-13474130D01*
X29453799Y-13474130D01*
X29572419Y-13474130D01*
X29629705Y-13458779D01*
X29686994Y-13443429D01*
X29789721Y-13384119D01*
X29873597Y-13300243D01*
X29932907Y-13197516D01*
X29951183Y-13129309D01*
X29963608Y-13082941D01*
X29963608Y-12964318D01*
X29934446Y-12855488D01*
X29932907Y-12849744D01*
X29923640Y-12833694D01*
X29901782Y-12795834D01*
X29873597Y-12747017D01*
X29789721Y-12663141D01*
X29686995Y-12603831D01*
X29686992Y-12603830D01*
X29572420Y-12573130D01*
X29572417Y-12573130D01*
X29453799Y-12573130D01*
X29453796Y-12573130D01*
X29339223Y-12603830D01*
X29339220Y-12603831D01*
X29236494Y-12663141D01*
X29236494Y-12663142D01*
X29152620Y-12747016D01*
X29152619Y-12747016D01*
X29093309Y-12849742D01*
X29093308Y-12849745D01*
X29062608Y-12964318D01*
X26083075Y-12964318D01*
X26064799Y-12896115D01*
X26064798Y-12896112D01*
X26040228Y-12853556D01*
X26005489Y-12793387D01*
X25921613Y-12709511D01*
X25851251Y-12668887D01*
X25818887Y-12650201D01*
X25818884Y-12650200D01*
X25704312Y-12619500D01*
X25704309Y-12619500D01*
X25585691Y-12619500D01*
X25585688Y-12619500D01*
X25471115Y-12650200D01*
X25471112Y-12650201D01*
X25368386Y-12709511D01*
X25368386Y-12709512D01*
X25284512Y-12793386D01*
X25284511Y-12793386D01*
X25225201Y-12896112D01*
X25225200Y-12896115D01*
X25194500Y-13010688D01*
X24117574Y-13010688D01*
X24096272Y-12973792D01*
X24063812Y-12917570D01*
X23979936Y-12833694D01*
X23877210Y-12774384D01*
X23877207Y-12774383D01*
X23762635Y-12743683D01*
X23762632Y-12743683D01*
X23644014Y-12743683D01*
X23644011Y-12743683D01*
X23529438Y-12774383D01*
X23529435Y-12774384D01*
X23426709Y-12833694D01*
X23426709Y-12833695D01*
X23342835Y-12917569D01*
X23342834Y-12917569D01*
X23283524Y-13020295D01*
X23283523Y-13020298D01*
X23252823Y-13134871D01*
X500500Y-13134871D01*
X500500Y-12562638D01*
X18699465Y-12562638D01*
X18699465Y-12681261D01*
X18730165Y-12795834D01*
X18730166Y-12795837D01*
X18764606Y-12855488D01*
X18789476Y-12898563D01*
X18873352Y-12982439D01*
X18976079Y-13041749D01*
X19004723Y-13049424D01*
X19090653Y-13072450D01*
X19090656Y-13072450D01*
X19209276Y-13072450D01*
X19266562Y-13057099D01*
X19323851Y-13041749D01*
X19426578Y-12982439D01*
X19510454Y-12898563D01*
X19569764Y-12795836D01*
X19592664Y-12710372D01*
X19600465Y-12681261D01*
X19600465Y-12562638D01*
X19569764Y-12448065D01*
X19569763Y-12448061D01*
X19539555Y-12395741D01*
X19539553Y-12395738D01*
X19527260Y-12374446D01*
X26789131Y-12374446D01*
X26789131Y-12493069D01*
X26819831Y-12607642D01*
X26819832Y-12607645D01*
X26851873Y-12663141D01*
X26879142Y-12710371D01*
X26963018Y-12794247D01*
X27065745Y-12853557D01*
X27094389Y-12861232D01*
X27180319Y-12884258D01*
X27180322Y-12884258D01*
X27298942Y-12884258D01*
X27356228Y-12868907D01*
X27413517Y-12853557D01*
X27516244Y-12794247D01*
X27600120Y-12710371D01*
X27659430Y-12607644D01*
X27674780Y-12550355D01*
X27690131Y-12493069D01*
X27690131Y-12435688D01*
X43049500Y-12435688D01*
X43049500Y-12554311D01*
X43080200Y-12668884D01*
X43080201Y-12668887D01*
X43104153Y-12710372D01*
X43139511Y-12771613D01*
X43223387Y-12855489D01*
X43326114Y-12914799D01*
X43354758Y-12922474D01*
X43440688Y-12945500D01*
X43440691Y-12945500D01*
X43559311Y-12945500D01*
X43616597Y-12930149D01*
X43673886Y-12914799D01*
X43776613Y-12855489D01*
X43860489Y-12771613D01*
X43919799Y-12668886D01*
X43945457Y-12573130D01*
X43950500Y-12554311D01*
X43950500Y-12435688D01*
X43919799Y-12321115D01*
X43919798Y-12321112D01*
X43903905Y-12293585D01*
X43860489Y-12218387D01*
X43776613Y-12134511D01*
X43742471Y-12114799D01*
X43673887Y-12075201D01*
X43673884Y-12075200D01*
X43559312Y-12044500D01*
X43559309Y-12044500D01*
X43440691Y-12044500D01*
X43440688Y-12044500D01*
X43326115Y-12075200D01*
X43326112Y-12075201D01*
X43223386Y-12134511D01*
X43223386Y-12134512D01*
X43139512Y-12218386D01*
X43139511Y-12218386D01*
X43080201Y-12321112D01*
X43080200Y-12321115D01*
X43049500Y-12435688D01*
X27690131Y-12435688D01*
X27690131Y-12374446D01*
X27659430Y-12259873D01*
X27659429Y-12259870D01*
X27600119Y-12157144D01*
X27516244Y-12073269D01*
X27413518Y-12013959D01*
X27413515Y-12013958D01*
X27298943Y-11983258D01*
X27298940Y-11983258D01*
X27180322Y-11983258D01*
X27180319Y-11983258D01*
X27065746Y-12013958D01*
X27065743Y-12013959D01*
X26963017Y-12073269D01*
X26963017Y-12073270D01*
X26879143Y-12157144D01*
X26879142Y-12157144D01*
X26819832Y-12259870D01*
X26819831Y-12259873D01*
X26789131Y-12374446D01*
X19527260Y-12374446D01*
X19510454Y-12345337D01*
X19426578Y-12261461D01*
X19423822Y-12259870D01*
X19323852Y-12202151D01*
X19323849Y-12202150D01*
X19209277Y-12171450D01*
X19209274Y-12171450D01*
X19090656Y-12171450D01*
X19090653Y-12171450D01*
X18976080Y-12202150D01*
X18976077Y-12202151D01*
X18873351Y-12261461D01*
X18873351Y-12261462D01*
X18789477Y-12345336D01*
X18789476Y-12345336D01*
X18730166Y-12448062D01*
X18730165Y-12448065D01*
X18699465Y-12562638D01*
X500500Y-12562638D01*
X500500Y-11635688D01*
X7699500Y-11635688D01*
X7699500Y-11754311D01*
X7730200Y-11868884D01*
X7730201Y-11868887D01*
X7789511Y-11971613D01*
X7873387Y-12055489D01*
X7976114Y-12114799D01*
X8004758Y-12122474D01*
X8090688Y-12145500D01*
X8090691Y-12145500D01*
X8209311Y-12145500D01*
X8266597Y-12130149D01*
X8323886Y-12114799D01*
X8426613Y-12055489D01*
X8510489Y-11971613D01*
X8569799Y-11868886D01*
X8589463Y-11795500D01*
X8600500Y-11754311D01*
X8600500Y-11635688D01*
X8569799Y-11521115D01*
X8569798Y-11521112D01*
X8510488Y-11418386D01*
X8426613Y-11334511D01*
X8323887Y-11275201D01*
X8323884Y-11275200D01*
X8209312Y-11244500D01*
X8209309Y-11244500D01*
X8090691Y-11244500D01*
X8090688Y-11244500D01*
X7976115Y-11275200D01*
X7976112Y-11275201D01*
X7873386Y-11334511D01*
X7873386Y-11334512D01*
X7789512Y-11418386D01*
X7789511Y-11418386D01*
X7730201Y-11521112D01*
X7730200Y-11521115D01*
X7699500Y-11635688D01*
X500500Y-11635688D01*
X500500Y-10781149D01*
X10924171Y-10781149D01*
X10924171Y-10899772D01*
X10954871Y-11014345D01*
X10954872Y-11014348D01*
X11014182Y-11117074D01*
X11098058Y-11200950D01*
X11200785Y-11260260D01*
X11229429Y-11267935D01*
X11315359Y-11290961D01*
X11315362Y-11290961D01*
X11433982Y-11290961D01*
X11492800Y-11275200D01*
X11548557Y-11260260D01*
X11651284Y-11200950D01*
X11735160Y-11117074D01*
X11794470Y-11014347D01*
X11823802Y-10904881D01*
X11825171Y-10899772D01*
X11825171Y-10781149D01*
X11794470Y-10666576D01*
X11794469Y-10666573D01*
X11745381Y-10581551D01*
X11735160Y-10563848D01*
X11651284Y-10479972D01*
X11621763Y-10462928D01*
X16944454Y-10462928D01*
X16944454Y-10581551D01*
X16975154Y-10696124D01*
X16975155Y-10696127D01*
X17024243Y-10781149D01*
X17034465Y-10798853D01*
X17118341Y-10882729D01*
X17221068Y-10942039D01*
X17249712Y-10949714D01*
X17335642Y-10972740D01*
X17335645Y-10972740D01*
X17454265Y-10972740D01*
X17511551Y-10957389D01*
X17568840Y-10942039D01*
X17671567Y-10882729D01*
X17718608Y-10835688D01*
X27849500Y-10835688D01*
X27849500Y-10954311D01*
X27880200Y-11068884D01*
X27880201Y-11068887D01*
X27927492Y-11150796D01*
X27939511Y-11171613D01*
X28023387Y-11255489D01*
X28075698Y-11285691D01*
X28126112Y-11314798D01*
X28126114Y-11314799D01*
X28213182Y-11338129D01*
X28242935Y-11360959D01*
X28249500Y-11385459D01*
X28249500Y-11404311D01*
X28280200Y-11518884D01*
X28280201Y-11518887D01*
X28339511Y-11621613D01*
X28423387Y-11705489D01*
X28526114Y-11764799D01*
X28554758Y-11772474D01*
X28640688Y-11795500D01*
X28640691Y-11795500D01*
X28759311Y-11795500D01*
X28816597Y-11780149D01*
X28873886Y-11764799D01*
X28976613Y-11705489D01*
X29060489Y-11621613D01*
X29119799Y-11518886D01*
X29146728Y-11418386D01*
X29150500Y-11404311D01*
X29150500Y-11285689D01*
X29129415Y-11207003D01*
X29134309Y-11169821D01*
X29164062Y-11146990D01*
X29195732Y-11151154D01*
X29196390Y-11149566D01*
X29199357Y-11150794D01*
X29199360Y-11150796D01*
X29228004Y-11158471D01*
X29313934Y-11181497D01*
X29313937Y-11181497D01*
X29432557Y-11181497D01*
X29489843Y-11166146D01*
X29547132Y-11150796D01*
X29649859Y-11091486D01*
X29733735Y-11007610D01*
X29793045Y-10904883D01*
X29821456Y-10798853D01*
X29823746Y-10790308D01*
X29823746Y-10671685D01*
X29793045Y-10557112D01*
X29793044Y-10557109D01*
X29745753Y-10475200D01*
X29733735Y-10454384D01*
X29649859Y-10370508D01*
X29547133Y-10311198D01*
X29478443Y-10292792D01*
X29448690Y-10269961D01*
X29443796Y-10232779D01*
X29466627Y-10203026D01*
X29478444Y-10198132D01*
X29526177Y-10185342D01*
X29628904Y-10126032D01*
X29712780Y-10042156D01*
X29772090Y-9939429D01*
X29791345Y-9867569D01*
X29802791Y-9824854D01*
X29802791Y-9706231D01*
X29777435Y-9611606D01*
X29772090Y-9591657D01*
X29771152Y-9590033D01*
X29753782Y-9559947D01*
X29712780Y-9488930D01*
X29628904Y-9405054D01*
X29610281Y-9394302D01*
X29526178Y-9345744D01*
X29526175Y-9345743D01*
X29411603Y-9315043D01*
X29411600Y-9315043D01*
X29292982Y-9315043D01*
X29292979Y-9315043D01*
X29178406Y-9345743D01*
X29178403Y-9345744D01*
X29075677Y-9405054D01*
X29075677Y-9405055D01*
X28991803Y-9488929D01*
X28991802Y-9488929D01*
X28932492Y-9591655D01*
X28932491Y-9591658D01*
X28901791Y-9706231D01*
X28901791Y-9824854D01*
X28932491Y-9939427D01*
X28932492Y-9939430D01*
X28950314Y-9970298D01*
X28991802Y-10042156D01*
X29075678Y-10126032D01*
X29178405Y-10185342D01*
X29213089Y-10194635D01*
X29247092Y-10203747D01*
X29276845Y-10226577D01*
X29281740Y-10263759D01*
X29258910Y-10293512D01*
X29247093Y-10298407D01*
X29199359Y-10311198D01*
X29199358Y-10311198D01*
X29096632Y-10370508D01*
X29096632Y-10370509D01*
X29012758Y-10454383D01*
X29012757Y-10454383D01*
X28953447Y-10557109D01*
X28953446Y-10557112D01*
X28922746Y-10671685D01*
X28922746Y-10790309D01*
X28943830Y-10868994D01*
X28938935Y-10906176D01*
X28909182Y-10929006D01*
X28877512Y-10924846D01*
X28876856Y-10926431D01*
X28873886Y-10925201D01*
X28786817Y-10901870D01*
X28757064Y-10879040D01*
X28750500Y-10854540D01*
X28750500Y-10835688D01*
X28719799Y-10721115D01*
X28719798Y-10721112D01*
X28688311Y-10666576D01*
X28660489Y-10618387D01*
X28576613Y-10534511D01*
X28524931Y-10504672D01*
X28473887Y-10475201D01*
X28473884Y-10475200D01*
X28359312Y-10444500D01*
X28359309Y-10444500D01*
X28240691Y-10444500D01*
X28240688Y-10444500D01*
X28126115Y-10475200D01*
X28126112Y-10475201D01*
X28023386Y-10534511D01*
X28023386Y-10534512D01*
X27939512Y-10618386D01*
X27939511Y-10618386D01*
X27880201Y-10721112D01*
X27880200Y-10721115D01*
X27849500Y-10835688D01*
X17718608Y-10835688D01*
X17755443Y-10798853D01*
X17814753Y-10696126D01*
X17835583Y-10618387D01*
X17845454Y-10581551D01*
X17845454Y-10462928D01*
X17814753Y-10348355D01*
X17814752Y-10348352D01*
X17769492Y-10269961D01*
X17755443Y-10245627D01*
X17671567Y-10161751D01*
X17601704Y-10121415D01*
X17568841Y-10102441D01*
X17568838Y-10102440D01*
X17503271Y-10084871D01*
X23252823Y-10084871D01*
X23252823Y-10203494D01*
X23283523Y-10318067D01*
X23283524Y-10318070D01*
X23325031Y-10389961D01*
X23342834Y-10420796D01*
X23426710Y-10504672D01*
X23529437Y-10563982D01*
X23558081Y-10571657D01*
X23644011Y-10594683D01*
X23644014Y-10594683D01*
X23762634Y-10594683D01*
X23819920Y-10579332D01*
X23877209Y-10563982D01*
X23979936Y-10504672D01*
X24063812Y-10420796D01*
X24123122Y-10318069D01*
X24145976Y-10232779D01*
X24153823Y-10203494D01*
X24153823Y-10084871D01*
X24123122Y-9970298D01*
X24123121Y-9970295D01*
X24063811Y-9867569D01*
X23979936Y-9783694D01*
X23877210Y-9724384D01*
X23877207Y-9724383D01*
X23762635Y-9693683D01*
X23762632Y-9693683D01*
X23644014Y-9693683D01*
X23644011Y-9693683D01*
X23529438Y-9724383D01*
X23529435Y-9724384D01*
X23426709Y-9783694D01*
X23426709Y-9783695D01*
X23342835Y-9867569D01*
X23342834Y-9867569D01*
X23283524Y-9970295D01*
X23283523Y-9970298D01*
X23252823Y-10084871D01*
X17503271Y-10084871D01*
X17454266Y-10071740D01*
X17454263Y-10071740D01*
X17335645Y-10071740D01*
X17335642Y-10071740D01*
X17221069Y-10102440D01*
X17221066Y-10102441D01*
X17118340Y-10161751D01*
X17118340Y-10161752D01*
X17034466Y-10245626D01*
X17034465Y-10245626D01*
X16975155Y-10348352D01*
X16975154Y-10348355D01*
X16944454Y-10462928D01*
X11621763Y-10462928D01*
X11548558Y-10420662D01*
X11548555Y-10420661D01*
X11433983Y-10389961D01*
X11433980Y-10389961D01*
X11315362Y-10389961D01*
X11315359Y-10389961D01*
X11200786Y-10420661D01*
X11200783Y-10420662D01*
X11098057Y-10479972D01*
X11098057Y-10479973D01*
X11014183Y-10563847D01*
X11014182Y-10563847D01*
X10954872Y-10666573D01*
X10954871Y-10666576D01*
X10924171Y-10781149D01*
X500500Y-10781149D01*
X500500Y-9611603D01*
X16307066Y-9611603D01*
X16307066Y-9730226D01*
X16337766Y-9844799D01*
X16337767Y-9844802D01*
X16392400Y-9939427D01*
X16397077Y-9947528D01*
X16480953Y-10031404D01*
X16583680Y-10090714D01*
X16612324Y-10098389D01*
X16698254Y-10121415D01*
X16698257Y-10121415D01*
X16816877Y-10121415D01*
X16874163Y-10106064D01*
X16931452Y-10090714D01*
X17034179Y-10031404D01*
X17118055Y-9947528D01*
X17177365Y-9844801D01*
X17203973Y-9745500D01*
X17208066Y-9730226D01*
X17208066Y-9611603D01*
X17177365Y-9497030D01*
X17177364Y-9497027D01*
X17143720Y-9438755D01*
X17118055Y-9394302D01*
X17034179Y-9310426D01*
X16987250Y-9283331D01*
X16931453Y-9251116D01*
X16931451Y-9251115D01*
X16926082Y-9249677D01*
X16816878Y-9220415D01*
X16816875Y-9220415D01*
X16698257Y-9220415D01*
X16698254Y-9220415D01*
X16583681Y-9251115D01*
X16583678Y-9251116D01*
X16480952Y-9310426D01*
X16480952Y-9310427D01*
X16397078Y-9394301D01*
X16397077Y-9394301D01*
X16337767Y-9497027D01*
X16337766Y-9497030D01*
X16307066Y-9611603D01*
X500500Y-9611603D01*
X500500Y-8842603D01*
X13703908Y-8842603D01*
X13703908Y-8961226D01*
X13734608Y-9075799D01*
X13734609Y-9075802D01*
X13760771Y-9121115D01*
X13793919Y-9178528D01*
X13877795Y-9262404D01*
X13952993Y-9305820D01*
X13968967Y-9315043D01*
X13980522Y-9321714D01*
X14009166Y-9329389D01*
X14095096Y-9352415D01*
X14095099Y-9352415D01*
X14213719Y-9352415D01*
X14271005Y-9337064D01*
X14328294Y-9321714D01*
X14431021Y-9262404D01*
X14487869Y-9205556D01*
X21795495Y-9205556D01*
X21795495Y-9324179D01*
X21826195Y-9438752D01*
X21826196Y-9438755D01*
X21852792Y-9484820D01*
X21885506Y-9541481D01*
X21969382Y-9625357D01*
X22072109Y-9684667D01*
X22100753Y-9692342D01*
X22186683Y-9715368D01*
X22186686Y-9715368D01*
X22305306Y-9715368D01*
X22362592Y-9700017D01*
X22419881Y-9684667D01*
X22522608Y-9625357D01*
X22523272Y-9624692D01*
X22523712Y-9624509D01*
X22525158Y-9623401D01*
X22525454Y-9623787D01*
X22557914Y-9610329D01*
X22592567Y-9624669D01*
X22623387Y-9655489D01*
X22726114Y-9714799D01*
X22728238Y-9715368D01*
X22840688Y-9745500D01*
X22840691Y-9745500D01*
X22959311Y-9745500D01*
X23016597Y-9730149D01*
X23073886Y-9714799D01*
X23176613Y-9655489D01*
X23260489Y-9571613D01*
X23319799Y-9468886D01*
X23339784Y-9394301D01*
X23350500Y-9354311D01*
X23350500Y-9235688D01*
X23319799Y-9121115D01*
X23319799Y-9121114D01*
X23278819Y-9050135D01*
X24707192Y-9050135D01*
X24707192Y-9168758D01*
X24737892Y-9283331D01*
X24737893Y-9283334D01*
X24797203Y-9386060D01*
X24881079Y-9469936D01*
X24983806Y-9529246D01*
X25012450Y-9536921D01*
X25098380Y-9559947D01*
X25098383Y-9559947D01*
X25217003Y-9559947D01*
X25274289Y-9544596D01*
X25331578Y-9529246D01*
X25422013Y-9477032D01*
X25459192Y-9472137D01*
X25481159Y-9484820D01*
X25497090Y-9500751D01*
X25567636Y-9541481D01*
X25599619Y-9559947D01*
X25599817Y-9560061D01*
X25628461Y-9567736D01*
X25714391Y-9590762D01*
X25714394Y-9590762D01*
X25833014Y-9590762D01*
X25890300Y-9575411D01*
X25947589Y-9560061D01*
X26050316Y-9500751D01*
X26134192Y-9416875D01*
X26193502Y-9314148D01*
X26208852Y-9256859D01*
X26224203Y-9199573D01*
X26224203Y-9080950D01*
X26199364Y-8988254D01*
X26193502Y-8966376D01*
X26190527Y-8961224D01*
X26157708Y-8904380D01*
X26134192Y-8863649D01*
X26050316Y-8779773D01*
X26024535Y-8764888D01*
X25947590Y-8720463D01*
X25947587Y-8720462D01*
X25833015Y-8689762D01*
X25833012Y-8689762D01*
X25714394Y-8689762D01*
X25714391Y-8689762D01*
X25599818Y-8720462D01*
X25599814Y-8720463D01*
X25509383Y-8772675D01*
X25472201Y-8777570D01*
X25450235Y-8764888D01*
X25434305Y-8748958D01*
X25331579Y-8689648D01*
X25331576Y-8689647D01*
X25217004Y-8658947D01*
X25217001Y-8658947D01*
X25098383Y-8658947D01*
X25098380Y-8658947D01*
X24983807Y-8689647D01*
X24983804Y-8689648D01*
X24881078Y-8748958D01*
X24881078Y-8748959D01*
X24797204Y-8832833D01*
X24797203Y-8832833D01*
X24737893Y-8935559D01*
X24737892Y-8935562D01*
X24707192Y-9050135D01*
X23278819Y-9050135D01*
X23260489Y-9018387D01*
X23176613Y-8934511D01*
X23073887Y-8875201D01*
X23073884Y-8875200D01*
X22959312Y-8844500D01*
X22959309Y-8844500D01*
X22840691Y-8844500D01*
X22840688Y-8844500D01*
X22726115Y-8875200D01*
X22726112Y-8875201D01*
X22623386Y-8934511D01*
X22623382Y-8934514D01*
X22622705Y-8935192D01*
X22622259Y-8935376D01*
X22620838Y-8936467D01*
X22620545Y-8936086D01*
X22588055Y-8949538D01*
X22553415Y-8935186D01*
X22522608Y-8904379D01*
X22419882Y-8845069D01*
X22419879Y-8845068D01*
X22305307Y-8814368D01*
X22305304Y-8814368D01*
X22186686Y-8814368D01*
X22186683Y-8814368D01*
X22072110Y-8845068D01*
X22072107Y-8845069D01*
X21969381Y-8904379D01*
X21969381Y-8904380D01*
X21885507Y-8988254D01*
X21885506Y-8988254D01*
X21826196Y-9090980D01*
X21826195Y-9090983D01*
X21795495Y-9205556D01*
X14487869Y-9205556D01*
X14514897Y-9178528D01*
X14574207Y-9075801D01*
X14597665Y-8988255D01*
X14604908Y-8961226D01*
X14604908Y-8842603D01*
X14574207Y-8728030D01*
X14574206Y-8728027D01*
X14552113Y-8689762D01*
X14514897Y-8625302D01*
X14431021Y-8541426D01*
X14328295Y-8482116D01*
X14328292Y-8482115D01*
X14213720Y-8451415D01*
X14213717Y-8451415D01*
X14095099Y-8451415D01*
X14095096Y-8451415D01*
X13980523Y-8482115D01*
X13980520Y-8482116D01*
X13877794Y-8541426D01*
X13877794Y-8541427D01*
X13793920Y-8625301D01*
X13793919Y-8625301D01*
X13734609Y-8728027D01*
X13734608Y-8728030D01*
X13703908Y-8842603D01*
X500500Y-8842603D01*
X500500Y-5627228D01*
X11873975Y-5627228D01*
X11873975Y-5745851D01*
X11904675Y-5860424D01*
X11904676Y-5860427D01*
X11963986Y-5963153D01*
X12047862Y-6047029D01*
X12150589Y-6106339D01*
X12179233Y-6114014D01*
X12265163Y-6137040D01*
X12345500Y-6137040D01*
X12380148Y-6151392D01*
X12394500Y-6186040D01*
X12394500Y-6288616D01*
X12414539Y-6389359D01*
X12431026Y-6472248D01*
X12431029Y-6472258D01*
X12502675Y-6645225D01*
X12502676Y-6645227D01*
X12502678Y-6645231D01*
X12606698Y-6800908D01*
X12739092Y-6933302D01*
X12894769Y-7037322D01*
X12894774Y-7037324D01*
X13067741Y-7108970D01*
X13067743Y-7108970D01*
X13067749Y-7108973D01*
X13251384Y-7145500D01*
X13251387Y-7145500D01*
X13438613Y-7145500D01*
X13438616Y-7145500D01*
X13622251Y-7108973D01*
X13795231Y-7037322D01*
X13950908Y-6933302D01*
X14083302Y-6800908D01*
X14187322Y-6645231D01*
X14258973Y-6472251D01*
X14295500Y-6288616D01*
X14295500Y-6101384D01*
X14258973Y-5917749D01*
X14249611Y-5895148D01*
X14187324Y-5744774D01*
X14187322Y-5744769D01*
X14083302Y-5589092D01*
X13950908Y-5456698D01*
X13923388Y-5438310D01*
X13895683Y-5419798D01*
X13795231Y-5352678D01*
X13795227Y-5352676D01*
X13795225Y-5352675D01*
X13622258Y-5281029D01*
X13622248Y-5281026D01*
X13546966Y-5266052D01*
X13438616Y-5244500D01*
X13251384Y-5244500D01*
X13159986Y-5262680D01*
X13067751Y-5281026D01*
X13067741Y-5281029D01*
X12894774Y-5352675D01*
X12894770Y-5352677D01*
X12894769Y-5352678D01*
X12809712Y-5409511D01*
X12763018Y-5440711D01*
X12726235Y-5448027D01*
X12695053Y-5427192D01*
X12693359Y-5424468D01*
X12692182Y-5422430D01*
X12684964Y-5409927D01*
X12601088Y-5326051D01*
X12598639Y-5324637D01*
X12498362Y-5266741D01*
X12498359Y-5266740D01*
X12383787Y-5236040D01*
X12383784Y-5236040D01*
X12265166Y-5236040D01*
X12265163Y-5236040D01*
X12150590Y-5266740D01*
X12150587Y-5266741D01*
X12047861Y-5326051D01*
X12047861Y-5326052D01*
X11963987Y-5409926D01*
X11963986Y-5409926D01*
X11904676Y-5512652D01*
X11904675Y-5512655D01*
X11873975Y-5627228D01*
X500500Y-5627228D01*
X500500Y-3315724D01*
X2544500Y-3315724D01*
X2544500Y-4674275D01*
X2547353Y-4704698D01*
X2547353Y-4704699D01*
X2592204Y-4832876D01*
X2592208Y-4832885D01*
X2672849Y-4942150D01*
X2782114Y-5022791D01*
X2782117Y-5022792D01*
X2782118Y-5022793D01*
X2782120Y-5022793D01*
X2782123Y-5022795D01*
X2830538Y-5039736D01*
X2910301Y-5067646D01*
X2940734Y-5070500D01*
X2940744Y-5070500D01*
X3749256Y-5070500D01*
X3749266Y-5070500D01*
X3779699Y-5067646D01*
X3907882Y-5022793D01*
X4017150Y-4942150D01*
X4097793Y-4832882D01*
X4142646Y-4704699D01*
X4145500Y-4674266D01*
X4145500Y-3641152D01*
X6544500Y-3641152D01*
X6544500Y-4348847D01*
X6575260Y-4503487D01*
X6575263Y-4503498D01*
X6635604Y-4649175D01*
X6635606Y-4649179D01*
X6675557Y-4708970D01*
X6703447Y-4750711D01*
X6723211Y-4780289D01*
X6834711Y-4891789D01*
X6965821Y-4979394D01*
X7111503Y-5039737D01*
X7111509Y-5039738D01*
X7111512Y-5039739D01*
X7266152Y-5070499D01*
X7266158Y-5070500D01*
X7423842Y-5070500D01*
X7578497Y-5039737D01*
X7724179Y-4979394D01*
X7855289Y-4891789D01*
X7966789Y-4780289D01*
X8054394Y-4649179D01*
X8114737Y-4503497D01*
X8145500Y-4348842D01*
X8145500Y-3701384D01*
X12394500Y-3701384D01*
X12394500Y-3888616D01*
X12404522Y-3938999D01*
X12431026Y-4072248D01*
X12431029Y-4072258D01*
X12502675Y-4245225D01*
X12502676Y-4245227D01*
X12502678Y-4245231D01*
X12549162Y-4314799D01*
X12597077Y-4386510D01*
X12606698Y-4400908D01*
X12739092Y-4533302D01*
X12894769Y-4637322D01*
X12894774Y-4637324D01*
X13067741Y-4708970D01*
X13067743Y-4708970D01*
X13067749Y-4708973D01*
X13251384Y-4745500D01*
X13251387Y-4745500D01*
X13438613Y-4745500D01*
X13438616Y-4745500D01*
X13622251Y-4708973D01*
X13795231Y-4637322D01*
X13950908Y-4533302D01*
X14083302Y-4400908D01*
X14187322Y-4245231D01*
X14210751Y-4188667D01*
X14237269Y-4162149D01*
X14274772Y-4162149D01*
X14290669Y-4172771D01*
X14373387Y-4255489D01*
X14408698Y-4275876D01*
X14455045Y-4302635D01*
X14476114Y-4314799D01*
X14504758Y-4322474D01*
X14590688Y-4345500D01*
X14590691Y-4345500D01*
X14709311Y-4345500D01*
X14766597Y-4330149D01*
X14823886Y-4314799D01*
X14844955Y-4302635D01*
X14891302Y-4275876D01*
X14926613Y-4255489D01*
X14934099Y-4248003D01*
X14968746Y-4233649D01*
X15003395Y-4247999D01*
X15009486Y-4255419D01*
X15049162Y-4314799D01*
X15106697Y-4400907D01*
X15171642Y-4465852D01*
X15185994Y-4500500D01*
X15171642Y-4535148D01*
X15136994Y-4549500D01*
X15090688Y-4549500D01*
X14976115Y-4580200D01*
X14976112Y-4580201D01*
X14873386Y-4639511D01*
X14873386Y-4639512D01*
X14789512Y-4723386D01*
X14789511Y-4723386D01*
X14730201Y-4826112D01*
X14730200Y-4826115D01*
X14699500Y-4940688D01*
X14699500Y-5059311D01*
X14730200Y-5173884D01*
X14730201Y-5173887D01*
X14783811Y-5266740D01*
X14789511Y-5276613D01*
X14873387Y-5360489D01*
X14948585Y-5403905D01*
X14959020Y-5409930D01*
X14976114Y-5419799D01*
X14985937Y-5422431D01*
X15090688Y-5450500D01*
X15126994Y-5450500D01*
X15161642Y-5464852D01*
X15175994Y-5499500D01*
X15161642Y-5534148D01*
X15106697Y-5589092D01*
X15002675Y-5744774D01*
X14931029Y-5917741D01*
X14931026Y-5917751D01*
X14917618Y-5985160D01*
X14894500Y-6101384D01*
X14894500Y-6288616D01*
X14914539Y-6389359D01*
X14907222Y-6426141D01*
X14879163Y-6446248D01*
X14771113Y-6475201D01*
X14771112Y-6475201D01*
X14668386Y-6534511D01*
X14668386Y-6534512D01*
X14584512Y-6618386D01*
X14584511Y-6618386D01*
X14525201Y-6721112D01*
X14525200Y-6721115D01*
X14494500Y-6835688D01*
X14494500Y-6954311D01*
X14525200Y-7068884D01*
X14525201Y-7068887D01*
X14584511Y-7171613D01*
X14668387Y-7255489D01*
X14771114Y-7314799D01*
X14799758Y-7322474D01*
X14885688Y-7345500D01*
X14885691Y-7345500D01*
X15004311Y-7345500D01*
X15061597Y-7330149D01*
X15118886Y-7314799D01*
X15221613Y-7255489D01*
X15305489Y-7171613D01*
X15363804Y-7070609D01*
X15393556Y-7047780D01*
X15424989Y-7049839D01*
X15567749Y-7108973D01*
X15751384Y-7145500D01*
X15751387Y-7145500D01*
X15938613Y-7145500D01*
X15938616Y-7145500D01*
X16122251Y-7108973D01*
X16295231Y-7037322D01*
X16450908Y-6933302D01*
X16583302Y-6800908D01*
X16687322Y-6645231D01*
X16758973Y-6472251D01*
X16795500Y-6288616D01*
X16795500Y-6101384D01*
X16758973Y-5917749D01*
X16749611Y-5895148D01*
X16687324Y-5744774D01*
X16687321Y-5744768D01*
X16680598Y-5734706D01*
X16680595Y-5734702D01*
X16664551Y-5710691D01*
X16664549Y-5710688D01*
X16973186Y-5710688D01*
X16973186Y-5829311D01*
X17003886Y-5943884D01*
X17003887Y-5943887D01*
X17063197Y-6046613D01*
X17147073Y-6130489D01*
X17183278Y-6151392D01*
X17249798Y-6189798D01*
X17249800Y-6189799D01*
X17358182Y-6218840D01*
X17387935Y-6241670D01*
X17394500Y-6266170D01*
X17394500Y-6288616D01*
X17414539Y-6389359D01*
X17431026Y-6472248D01*
X17431029Y-6472258D01*
X17502675Y-6645225D01*
X17502676Y-6645227D01*
X17502678Y-6645231D01*
X17606698Y-6800908D01*
X17739092Y-6933302D01*
X17894769Y-7037322D01*
X17894774Y-7037324D01*
X18067741Y-7108970D01*
X18067743Y-7108970D01*
X18067749Y-7108973D01*
X18251384Y-7145500D01*
X18251387Y-7145500D01*
X18438613Y-7145500D01*
X18438616Y-7145500D01*
X18622251Y-7108973D01*
X18795231Y-7037322D01*
X18950908Y-6933302D01*
X19083302Y-6800908D01*
X19084116Y-6799690D01*
X28922746Y-6799690D01*
X28922746Y-6918313D01*
X28953446Y-7032886D01*
X28953447Y-7032889D01*
X28974231Y-7068887D01*
X29012757Y-7135615D01*
X29096633Y-7219491D01*
X29199360Y-7278801D01*
X29228004Y-7286476D01*
X29313934Y-7309502D01*
X29313937Y-7309502D01*
X29432557Y-7309502D01*
X29489843Y-7294151D01*
X29547132Y-7278801D01*
X29649859Y-7219491D01*
X29733735Y-7135615D01*
X29793045Y-7032888D01*
X29814100Y-6954311D01*
X29823746Y-6918313D01*
X29823746Y-6799690D01*
X29793045Y-6685117D01*
X29793044Y-6685114D01*
X29770014Y-6645225D01*
X29733735Y-6582389D01*
X29649859Y-6498513D01*
X29609482Y-6475201D01*
X29547133Y-6439203D01*
X29547130Y-6439202D01*
X29432558Y-6408502D01*
X29432555Y-6408502D01*
X29313937Y-6408502D01*
X29313934Y-6408502D01*
X29199361Y-6439202D01*
X29199358Y-6439203D01*
X29096632Y-6498513D01*
X29096632Y-6498514D01*
X29012758Y-6582388D01*
X29012757Y-6582388D01*
X28953447Y-6685114D01*
X28953446Y-6685117D01*
X28922746Y-6799690D01*
X19084116Y-6799690D01*
X19187322Y-6645231D01*
X19258973Y-6472251D01*
X19295500Y-6288616D01*
X19295500Y-6101384D01*
X19258973Y-5917749D01*
X19249611Y-5895148D01*
X19187324Y-5744774D01*
X19187322Y-5744769D01*
X19083302Y-5589092D01*
X18969558Y-5475348D01*
X24565560Y-5475348D01*
X24565560Y-5593971D01*
X24596260Y-5708544D01*
X24596261Y-5708547D01*
X24617177Y-5744774D01*
X24655571Y-5811273D01*
X24739447Y-5895149D01*
X24842174Y-5954459D01*
X24870818Y-5962134D01*
X24956748Y-5985160D01*
X24956751Y-5985160D01*
X25075371Y-5985160D01*
X25132657Y-5969809D01*
X25189946Y-5954459D01*
X25292673Y-5895149D01*
X25376549Y-5811273D01*
X25427163Y-5723607D01*
X28626043Y-5723607D01*
X28626043Y-5842230D01*
X28656743Y-5956803D01*
X28656744Y-5956806D01*
X28708595Y-6046613D01*
X28716054Y-6059532D01*
X28799930Y-6143408D01*
X28902657Y-6202718D01*
X28931301Y-6210393D01*
X29017231Y-6233419D01*
X29017234Y-6233419D01*
X29135854Y-6233419D01*
X29193140Y-6218068D01*
X29250429Y-6202718D01*
X29353156Y-6143408D01*
X29437032Y-6059532D01*
X29496342Y-5956805D01*
X29522167Y-5860426D01*
X29527043Y-5842230D01*
X29527043Y-5723607D01*
X29496342Y-5609034D01*
X29496341Y-5609031D01*
X29480448Y-5581504D01*
X29437032Y-5506306D01*
X29353156Y-5422430D01*
X29331506Y-5409930D01*
X29250430Y-5363120D01*
X29250427Y-5363119D01*
X29135855Y-5332419D01*
X29135852Y-5332419D01*
X29017234Y-5332419D01*
X29017231Y-5332419D01*
X28902658Y-5363119D01*
X28902655Y-5363120D01*
X28799929Y-5422430D01*
X28799929Y-5422431D01*
X28716055Y-5506305D01*
X28716054Y-5506305D01*
X28656744Y-5609031D01*
X28656743Y-5609034D01*
X28626043Y-5723607D01*
X25427163Y-5723607D01*
X25435859Y-5708546D01*
X25466559Y-5593972D01*
X25466560Y-5593972D01*
X25466560Y-5475348D01*
X25443534Y-5389418D01*
X25435859Y-5360774D01*
X25435694Y-5360489D01*
X25412029Y-5319500D01*
X25376549Y-5258047D01*
X25292673Y-5174171D01*
X25244183Y-5146175D01*
X25189947Y-5114861D01*
X25189944Y-5114860D01*
X25075372Y-5084160D01*
X25075369Y-5084160D01*
X24956751Y-5084160D01*
X24956748Y-5084160D01*
X24842175Y-5114860D01*
X24842172Y-5114861D01*
X24739446Y-5174171D01*
X24739446Y-5174172D01*
X24655572Y-5258046D01*
X24655571Y-5258046D01*
X24596261Y-5360772D01*
X24596260Y-5360775D01*
X24565560Y-5475348D01*
X18969558Y-5475348D01*
X18950908Y-5456698D01*
X18923388Y-5438310D01*
X18895683Y-5419798D01*
X18795231Y-5352678D01*
X18795227Y-5352676D01*
X18795225Y-5352675D01*
X18622258Y-5281029D01*
X18622248Y-5281026D01*
X18546966Y-5266052D01*
X18438616Y-5244500D01*
X18251384Y-5244500D01*
X18159986Y-5262680D01*
X18067751Y-5281026D01*
X18067745Y-5281028D01*
X17894768Y-5352678D01*
X17894767Y-5352678D01*
X17777558Y-5430994D01*
X17740776Y-5438310D01*
X17715688Y-5424900D01*
X17700299Y-5409511D01*
X17597573Y-5350201D01*
X17597570Y-5350200D01*
X17482998Y-5319500D01*
X17482995Y-5319500D01*
X17364377Y-5319500D01*
X17364374Y-5319500D01*
X17249801Y-5350200D01*
X17249798Y-5350201D01*
X17147072Y-5409511D01*
X17147072Y-5409512D01*
X17063198Y-5493386D01*
X17063197Y-5493386D01*
X17003887Y-5596112D01*
X17003886Y-5596115D01*
X16973186Y-5710688D01*
X16664549Y-5710688D01*
X16583302Y-5589092D01*
X16450908Y-5456698D01*
X16423388Y-5438310D01*
X16395683Y-5419798D01*
X16295231Y-5352678D01*
X16295227Y-5352676D01*
X16295225Y-5352675D01*
X16122258Y-5281029D01*
X16122248Y-5281026D01*
X16046966Y-5266052D01*
X15938616Y-5244500D01*
X15751384Y-5244500D01*
X15643034Y-5266052D01*
X15606248Y-5273369D01*
X15569466Y-5266052D01*
X15548630Y-5234869D01*
X15554253Y-5200811D01*
X15569799Y-5173886D01*
X15585615Y-5114860D01*
X15600500Y-5059311D01*
X15600500Y-4940688D01*
X15569799Y-4826115D01*
X15569799Y-4826114D01*
X15547730Y-4787890D01*
X15542835Y-4750711D01*
X15565665Y-4720957D01*
X15599723Y-4715333D01*
X15751384Y-4745500D01*
X15751387Y-4745500D01*
X15938613Y-4745500D01*
X15938616Y-4745500D01*
X16122251Y-4708973D01*
X16223428Y-4667064D01*
X25313963Y-4667064D01*
X25313963Y-4785687D01*
X25344663Y-4900260D01*
X25344664Y-4900263D01*
X25368004Y-4940688D01*
X25403974Y-5002989D01*
X25487850Y-5086865D01*
X25590577Y-5146175D01*
X25619221Y-5153850D01*
X25705151Y-5176876D01*
X25705154Y-5176876D01*
X25823774Y-5176876D01*
X25881060Y-5161525D01*
X25938349Y-5146175D01*
X26041076Y-5086865D01*
X26124952Y-5002989D01*
X26184262Y-4900262D01*
X26204131Y-4826112D01*
X26214963Y-4785687D01*
X26214963Y-4667064D01*
X26184262Y-4552491D01*
X26184261Y-4552488D01*
X26124951Y-4449762D01*
X26041076Y-4365887D01*
X25938350Y-4306577D01*
X25938347Y-4306576D01*
X25823775Y-4275876D01*
X25823772Y-4275876D01*
X25705154Y-4275876D01*
X25705151Y-4275876D01*
X25590578Y-4306576D01*
X25590575Y-4306577D01*
X25487849Y-4365887D01*
X25487849Y-4365888D01*
X25403975Y-4449762D01*
X25403974Y-4449762D01*
X25344664Y-4552488D01*
X25344663Y-4552491D01*
X25313963Y-4667064D01*
X16223428Y-4667064D01*
X16295231Y-4637322D01*
X16450908Y-4533302D01*
X16583302Y-4400908D01*
X16687322Y-4245231D01*
X16758973Y-4072251D01*
X16795500Y-3888616D01*
X16795500Y-3701384D01*
X16790321Y-3675348D01*
X21515560Y-3675348D01*
X21515560Y-3793971D01*
X21546260Y-3908544D01*
X21546261Y-3908547D01*
X21579843Y-3966712D01*
X21605571Y-4011273D01*
X21689447Y-4095149D01*
X21792174Y-4154459D01*
X21820818Y-4162134D01*
X21906748Y-4185160D01*
X21906751Y-4185160D01*
X22025371Y-4185160D01*
X22082657Y-4169809D01*
X22139946Y-4154459D01*
X22242673Y-4095149D01*
X22326549Y-4011273D01*
X22352278Y-3966709D01*
X29039712Y-3966709D01*
X29039712Y-4085332D01*
X29070412Y-4199905D01*
X29070413Y-4199908D01*
X29114274Y-4275876D01*
X29129723Y-4302634D01*
X29213599Y-4386510D01*
X29316326Y-4445820D01*
X29344970Y-4453495D01*
X29430900Y-4476521D01*
X29430903Y-4476521D01*
X29549523Y-4476521D01*
X29606809Y-4461170D01*
X29664098Y-4445820D01*
X29766825Y-4386510D01*
X29850701Y-4302634D01*
X29910011Y-4199907D01*
X29938081Y-4095149D01*
X29940712Y-4085332D01*
X29940712Y-3966709D01*
X29910011Y-3852136D01*
X29910010Y-3852133D01*
X29876430Y-3793971D01*
X29850701Y-3749408D01*
X29766825Y-3665532D01*
X29664099Y-3606222D01*
X29664096Y-3606221D01*
X29549524Y-3575521D01*
X29549521Y-3575521D01*
X29430903Y-3575521D01*
X29430900Y-3575521D01*
X29316327Y-3606221D01*
X29316324Y-3606222D01*
X29213598Y-3665532D01*
X29213598Y-3665533D01*
X29129724Y-3749407D01*
X29129723Y-3749407D01*
X29070413Y-3852133D01*
X29070412Y-3852136D01*
X29039712Y-3966709D01*
X22352278Y-3966709D01*
X22385859Y-3908546D01*
X22401209Y-3851257D01*
X22416560Y-3793971D01*
X22416560Y-3675348D01*
X22385859Y-3560775D01*
X22385858Y-3560772D01*
X22355522Y-3508230D01*
X22326549Y-3458047D01*
X22242673Y-3374171D01*
X22139947Y-3314861D01*
X22139944Y-3314860D01*
X22025372Y-3284160D01*
X22025369Y-3284160D01*
X21906751Y-3284160D01*
X21906748Y-3284160D01*
X21792175Y-3314860D01*
X21792172Y-3314861D01*
X21689446Y-3374171D01*
X21689446Y-3374172D01*
X21605572Y-3458046D01*
X21605571Y-3458046D01*
X21546261Y-3560772D01*
X21546260Y-3560775D01*
X21515560Y-3675348D01*
X16790321Y-3675348D01*
X16783520Y-3641158D01*
X16758975Y-3517760D01*
X16758973Y-3517751D01*
X16758973Y-3517749D01*
X16746030Y-3486503D01*
X16687324Y-3344774D01*
X16687323Y-3344772D01*
X16687322Y-3344769D01*
X16583302Y-3189092D01*
X16450908Y-3056698D01*
X16426721Y-3040537D01*
X16400032Y-3022704D01*
X16295231Y-2952678D01*
X16295227Y-2952676D01*
X16295225Y-2952675D01*
X16122258Y-2881029D01*
X16122248Y-2881026D01*
X16048194Y-2866296D01*
X15938616Y-2844500D01*
X15751384Y-2844500D01*
X15659986Y-2862680D01*
X15567751Y-2881026D01*
X15567741Y-2881029D01*
X15394774Y-2952675D01*
X15394770Y-2952677D01*
X15394769Y-2952678D01*
X15355195Y-2979120D01*
X15239092Y-3056697D01*
X15106697Y-3189092D01*
X15002676Y-3344772D01*
X14945953Y-3481712D01*
X14919434Y-3508230D01*
X14881931Y-3508230D01*
X14876183Y-3505395D01*
X14823887Y-3475201D01*
X14823885Y-3475200D01*
X14772522Y-3461438D01*
X14742769Y-3438608D01*
X14737874Y-3401427D01*
X14750500Y-3354309D01*
X14750500Y-3235691D01*
X14750500Y-3235688D01*
X14719799Y-3121115D01*
X14719798Y-3121112D01*
X14682607Y-3056697D01*
X14660489Y-3018387D01*
X14576613Y-2934511D01*
X14560129Y-2924994D01*
X14473887Y-2875201D01*
X14473884Y-2875200D01*
X14359312Y-2844500D01*
X14359309Y-2844500D01*
X14240691Y-2844500D01*
X14240688Y-2844500D01*
X14126115Y-2875200D01*
X14126112Y-2875201D01*
X14023386Y-2934511D01*
X13949545Y-3008352D01*
X13914897Y-3022704D01*
X13887674Y-3014446D01*
X13842561Y-2984303D01*
X13795231Y-2952678D01*
X13789401Y-2950263D01*
X13622254Y-2881028D01*
X13622248Y-2881026D01*
X13548194Y-2866296D01*
X13438616Y-2844500D01*
X13251384Y-2844500D01*
X13159986Y-2862680D01*
X13067751Y-2881026D01*
X13067741Y-2881029D01*
X12894774Y-2952675D01*
X12894770Y-2952677D01*
X12894769Y-2952678D01*
X12855195Y-2979120D01*
X12739092Y-3056697D01*
X12606697Y-3189092D01*
X12502675Y-3344774D01*
X12431029Y-3517741D01*
X12431026Y-3517751D01*
X12413429Y-3606221D01*
X12394500Y-3701384D01*
X8145500Y-3701384D01*
X8145500Y-3641158D01*
X8129510Y-3560772D01*
X8114739Y-3486512D01*
X8114736Y-3486501D01*
X8054394Y-3340821D01*
X7966789Y-3209711D01*
X7855289Y-3098211D01*
X7724179Y-3010606D01*
X7724176Y-3010604D01*
X7724175Y-3010604D01*
X7578498Y-2950263D01*
X7578487Y-2950260D01*
X7423847Y-2919500D01*
X7423842Y-2919500D01*
X7266158Y-2919500D01*
X7266152Y-2919500D01*
X7111512Y-2950260D01*
X7111501Y-2950263D01*
X6965824Y-3010604D01*
X6834711Y-3098210D01*
X6723210Y-3209711D01*
X6635604Y-3340824D01*
X6575263Y-3486501D01*
X6575260Y-3486512D01*
X6544500Y-3641152D01*
X4145500Y-3641152D01*
X4145500Y-3315734D01*
X4142646Y-3285301D01*
X4097793Y-3157118D01*
X4097792Y-3157117D01*
X4097791Y-3157114D01*
X4017150Y-3047849D01*
X3907885Y-2967208D01*
X3907876Y-2967204D01*
X3779698Y-2922353D01*
X3749275Y-2919500D01*
X3749266Y-2919500D01*
X2940734Y-2919500D01*
X2940724Y-2919500D01*
X2910301Y-2922353D01*
X2910300Y-2922353D01*
X2782123Y-2967204D01*
X2782114Y-2967208D01*
X2672849Y-3047849D01*
X2592208Y-3157114D01*
X2592204Y-3157123D01*
X2547353Y-3285300D01*
X2547353Y-3285301D01*
X2544500Y-3315724D01*
X500500Y-3315724D01*
X500500Y-2505193D01*
X10577903Y-2505193D01*
X10577903Y-2623816D01*
X10608603Y-2738389D01*
X10608604Y-2738392D01*
X10667914Y-2841118D01*
X10751790Y-2924994D01*
X10854517Y-2984304D01*
X10883161Y-2991979D01*
X10969091Y-3015005D01*
X10969094Y-3015005D01*
X11087714Y-3015005D01*
X11145000Y-2999654D01*
X11202289Y-2984304D01*
X11305016Y-2924994D01*
X11388892Y-2841118D01*
X11448202Y-2738391D01*
X11463552Y-2681102D01*
X11478903Y-2623816D01*
X11478903Y-2505193D01*
X11448202Y-2390620D01*
X11448201Y-2390617D01*
X11388891Y-2287891D01*
X11305016Y-2204016D01*
X11202290Y-2144706D01*
X11202287Y-2144705D01*
X11087715Y-2114005D01*
X11087712Y-2114005D01*
X10969094Y-2114005D01*
X10969091Y-2114005D01*
X10854518Y-2144705D01*
X10854515Y-2144706D01*
X10751789Y-2204016D01*
X10751789Y-2204017D01*
X10667915Y-2287891D01*
X10667914Y-2287891D01*
X10608604Y-2390617D01*
X10608603Y-2390620D01*
X10577903Y-2505193D01*
X500500Y-2505193D01*
X500500Y-944500D01*
X514852Y-909852D01*
X549500Y-895500D01*
X25095662Y-895500D01*
X25130310Y-909852D01*
G37*
%TD.AperFunction*%
%TD*%
M02*
