%TF.GenerationSoftware,KiCad,Pcbnew,9.0.9-9.0.9~ubuntu24.04.1*%
%TF.CreationDate,2026-10-01T00:07:43+00:00*%
%TF.ProjectId,PinaBio-v2.0-Cursor,50696e61-4269-46f2-9d76-322e302d4375,SPEC-0.8*%
%TF.SameCoordinates,Original*%
%TF.FileFunction,Copper,L3,Inr*%
%TF.FilePolarity,Positive*%
%FSLAX46Y46*%
G04 Gerber Fmt 4.6, Leading zero omitted, Abs format (unit mm)*
G04 Created by KiCad (PCBNEW 9.0.9-9.0.9~ubuntu24.04.1) date 2026-10-01 00:07:43*
%MOMM*%
%LPD*%
G01*
G04 APERTURE LIST*
G04 Aperture macros list*
%AMRoundRect*
0 Rectangle with rounded corners*
0 $1 Rounding radius*
0 $2 $3 $4 $5 $6 $7 $8 $9 X,Y pos of 4 corners*
0 Add a 4 corners polygon primitive as box body*
4,1,4,$2,$3,$4,$5,$6,$7,$8,$9,$2,$3,0*
0 Add four circle primitives for the rounded corners*
1,1,$1+$1,$2,$3*
1,1,$1+$1,$4,$5*
1,1,$1+$1,$6,$7*
1,1,$1+$1,$8,$9*
0 Add four rect primitives between the rounded corners*
20,1,$1+$1,$2,$3,$4,$5,0*
20,1,$1+$1,$4,$5,$6,$7,0*
20,1,$1+$1,$6,$7,$8,$9,0*
20,1,$1+$1,$8,$9,$2,$3,0*%
G04 Aperture macros list end*
%TA.AperFunction,ComponentPad*%
%ADD10RoundRect,0.250000X-0.350000X-0.625000X0.350000X-0.625000X0.350000X0.625000X-0.350000X0.625000X0*%
%TD*%
%TA.AperFunction,ComponentPad*%
%ADD11O,1.200000X1.750000*%
%TD*%
%TA.AperFunction,ComponentPad*%
%ADD12RoundRect,0.250000X0.350000X0.625000X-0.350000X0.625000X-0.350000X-0.625000X0.350000X-0.625000X0*%
%TD*%
%TA.AperFunction,ComponentPad*%
%ADD13RoundRect,0.250000X-0.625000X0.350000X-0.625000X-0.350000X0.625000X-0.350000X0.625000X0.350000X0*%
%TD*%
%TA.AperFunction,ComponentPad*%
%ADD14O,1.750000X1.200000*%
%TD*%
%TA.AperFunction,HeatsinkPad*%
%ADD15O,1.000000X2.100000*%
%TD*%
%TA.AperFunction,HeatsinkPad*%
%ADD16O,1.000000X1.600000*%
%TD*%
%TA.AperFunction,ViaPad*%
%ADD17C,0.500000*%
%TD*%
%TA.AperFunction,Conductor*%
%ADD18C,0.200000*%
%TD*%
%TA.AperFunction,Conductor*%
%ADD19C,0.150000*%
%TD*%
G04 APERTURE END LIST*
D10*
%TO.N,/BAT_PROT*%
%TO.C,J2*%
X3695000Y-3875000D03*
D11*
%TO.N,/GND*%
X5695000Y-3875000D03*
%TO.N,/TS*%
X7695000Y-3875000D03*
%TD*%
D12*
%TO.N,/SNS_GSR*%
%TO.C,J6*%
X5295000Y-33175000D03*
D11*
%TO.N,/GND*%
X3295000Y-33175000D03*
%TD*%
D12*
%TO.N,/SNS_TH*%
%TO.C,J7*%
X5295000Y-39875000D03*
D11*
%TO.N,/GND*%
X3295000Y-39875000D03*
%TD*%
D13*
%TO.N,/3V3_A*%
%TO.C,J3*%
X78295000Y-43875000D03*
D14*
%TO.N,/GND*%
X78295000Y-45875000D03*
%TO.N,/ECG_OUT*%
X78295000Y-47875000D03*
%TO.N,/LO_P*%
X78295000Y-49875000D03*
%TO.N,/LO_N*%
X78295000Y-51875000D03*
%TO.N,/3V3_A*%
X78295000Y-53875000D03*
%TD*%
D15*
%TO.N,/GND*%
%TO.C,J1*%
X33375000Y-32170000D03*
D16*
X33375000Y-36350000D03*
D15*
X42015000Y-32170000D03*
D16*
X42015000Y-36350000D03*
%TD*%
D12*
%TO.N,/SNS_AB*%
%TO.C,J8*%
X5295000Y-46575000D03*
D11*
%TO.N,/GND*%
X3295000Y-46575000D03*
%TD*%
D13*
%TO.N,/3V0_TEMP*%
%TO.C,J5*%
X78295000Y-7875000D03*
D14*
%TO.N,/GND*%
X78295000Y-9875000D03*
%TO.N,/SDA_MOD*%
X78295000Y-11875000D03*
%TO.N,/SCL_MOD*%
X78295000Y-13875000D03*
%TO.N,/OS*%
X78295000Y-15875000D03*
%TO.N,/GND*%
X78295000Y-17875000D03*
X78295000Y-19875000D03*
X78295000Y-21875000D03*
%TD*%
D13*
%TO.N,/3V3_SYS*%
%TO.C,J4*%
X78295000Y-28275000D03*
D14*
%TO.N,/GND*%
X78295000Y-30275000D03*
%TO.N,/SCL_MOD*%
X78295000Y-32275000D03*
%TO.N,/SDA_MOD*%
X78295000Y-34275000D03*
%TO.N,/PPG_INT*%
X78295000Y-36275000D03*
%TD*%
D17*
%TO.N,/0V5_EXC*%
X64928800Y-16210700D03*
X73120400Y-15371600D03*
X73120400Y-24228400D03*
X66416000Y-13632800D03*
X62869600Y-24228400D03*
%TO.N,/3V0_TEMP*%
X58533300Y-28874900D03*
%TO.N,/3V3_A*%
X60293800Y-16217500D03*
%TO.N,/3V3_SYS*%
X60279100Y-22515800D03*
X64179600Y-20974800D03*
X24952100Y-14514300D03*
X61804600Y-9656800D03*
X31025100Y-24768000D03*
X29339900Y-19339200D03*
X29401700Y-37454700D03*
X6234900Y-14601400D03*
X18198500Y-28815000D03*
X13035900Y-28802400D03*
X12538700Y-13226100D03*
X10384600Y-25292800D03*
X27803900Y-34039300D03*
X14417800Y-24679500D03*
X51909500Y-21290700D03*
X54808700Y-32619100D03*
X62760900Y-8709800D03*
X7638800Y-29926000D03*
X52957900Y-26418800D03*
X54808700Y-29130900D03*
X60215100Y-17079400D03*
X51909500Y-13190700D03*
X15964900Y-25043200D03*
X29146900Y-21340800D03*
X29113600Y-12602700D03*
X14140100Y-28575700D03*
X53966700Y-18077000D03*
X24746600Y-6043500D03*
X60215100Y-25179400D03*
X60279100Y-14415800D03*
X28720000Y-20125000D03*
X50440000Y-8941500D03*
%TO.N,/BAT_PROT*%
X19448300Y-10723200D03*
X25586100Y-30039300D03*
X25127200Y-21971400D03*
%TO.N,/BAT_SENSE*%
X26173000Y-14807900D03*
X30532500Y-26750000D03*
%TO.N,/DIV_EXC*%
X62119200Y-14513600D03*
X69581900Y-16404800D03*
X55172300Y-16868500D03*
%TO.N,/DRDY_ECG*%
X29723200Y-18111000D03*
X59710900Y-6909800D03*
%TO.N,/DRDY_SLOW*%
X57266500Y-20113500D03*
X33258500Y-19027000D03*
%TO.N,/ECG_DIV*%
X57900000Y-11900000D03*
X58550000Y-15150000D03*
%TO.N,/ECG_OUT*%
X70179000Y-13307200D03*
%TO.N,/EN2_CE*%
X14000000Y-7350000D03*
X14500000Y-9000000D03*
X15200000Y-6150000D03*
X15000000Y-10000000D03*
%TO.N,/FB*%
X21418000Y-27071800D03*
X16085900Y-28802400D03*
%TO.N,/GND*%
X63300000Y-18400000D03*
X66000000Y-6000000D03*
X42000000Y-42000000D03*
X62700000Y-18300000D03*
X54000000Y-42000000D03*
X30000000Y-42000000D03*
X54000000Y-6000000D03*
X18000000Y-30000000D03*
X6000000Y-18000000D03*
X6000000Y-30000000D03*
X6000000Y-42000000D03*
X66000000Y-42000000D03*
X18000000Y-42000000D03*
X59400000Y-9100000D03*
X42000000Y-30000000D03*
X66000000Y-30000000D03*
%TO.N,/ISET*%
X17536800Y-10003300D03*
X18850800Y-7276000D03*
%TO.N,/LO_N*%
X35729500Y-46045200D03*
X35283500Y-25323800D03*
%TO.N,/LO_P*%
X38219600Y-46026100D03*
X38200500Y-21101200D03*
%TO.N,/OS*%
X75933300Y-31078800D03*
%TO.N,/OUT_AB*%
X57310200Y-21562800D03*
X52192800Y-24054000D03*
X65132000Y-19017200D03*
%TO.N,/OUT_TH*%
X70700000Y-22550000D03*
X65200000Y-24750000D03*
X66500000Y-24750000D03*
X59100000Y-23900000D03*
%TO.N,/PPG_INT*%
X29864200Y-21323500D03*
X26475100Y-24318000D03*
X74931700Y-28584400D03*
%TO.N,/SCL_ADC*%
X59045500Y-18859900D03*
X59325500Y-11112200D03*
X26096900Y-22340800D03*
X29702300Y-17145500D03*
%TO.N,/SCL_MOD*%
X31676300Y-20593500D03*
X33033500Y-26708600D03*
%TO.N,/SDA_ADC*%
X57526300Y-13508300D03*
X31770300Y-13175100D03*
X57891500Y-17454100D03*
%TO.N,/SDA_MOD*%
X31841000Y-19490500D03*
%TO.N,/SNS_AB*%
X74920400Y-12321600D03*
X74194800Y-17691100D03*
%TO.N,/SNS_GSR*%
X64440400Y-19505200D03*
%TO.N,/SNS_TH*%
X74194800Y-18858900D03*
X74920400Y-21178400D03*
%TO.N,/SW_L1*%
X14411200Y-21480100D03*
X7910000Y-22875000D03*
%TO.N,/TPS_EN*%
X13974100Y-8485400D03*
X16248200Y-22491800D03*
X17341200Y-6717800D03*
%TO.N,/TS*%
X16800000Y-10100000D03*
%TO.N,/VBUS*%
X37745000Y-24487500D03*
X8434800Y-14408800D03*
X39714900Y-30455000D03*
X35675100Y-30455000D03*
X40444500Y-30150600D03*
X31771800Y-24546600D03*
%TO.N,/VBUS_N*%
X31559000Y-14231100D03*
X28961300Y-33130800D03*
%TO.N,/VLOG*%
X11484800Y-16208800D03*
X22188300Y-34145300D03*
X19715500Y-5566500D03*
X12674500Y-4183500D03*
X13472300Y-11453700D03*
X24532500Y-17575000D03*
%TD*%
D18*
%TO.N,/0V5_EXC*%
X73120400Y-24228400D02*
X62869600Y-24228400D01*
%TO.N,/DIV_EXC*%
X67690700Y-14513600D02*
X69581900Y-16404800D01*
D19*
X57600000Y-15310000D02*
X57900000Y-15700000D01*
X57900000Y-15700000D02*
X60500000Y-15700000D01*
X60500000Y-15700000D02*
X60900000Y-15310000D01*
X56730000Y-15310000D02*
X57600000Y-15310000D01*
D18*
X61323500Y-15309300D02*
X62119200Y-14513600D01*
D19*
X60900000Y-15310000D02*
X61320000Y-15310000D01*
D18*
X62119200Y-14513600D02*
X67690700Y-14513600D01*
X55172300Y-16868500D02*
X56731500Y-15309300D01*
%TO.N,/DRDY_SLOW*%
X57266500Y-20113500D02*
X56180000Y-19027000D01*
X56180000Y-19027000D02*
X33258500Y-19027000D01*
%TO.N,/LO_N*%
X41559300Y-51875000D02*
X78295000Y-51875000D01*
X35729500Y-46045200D02*
X41559300Y-51875000D01*
%TO.N,/LO_P*%
X41216800Y-49023300D02*
X78295000Y-49023300D01*
X78295000Y-49875000D02*
X78295000Y-49023300D01*
X38219600Y-46026100D02*
X41216800Y-49023300D01*
%TO.N,/OUT_AB*%
X64664500Y-20020300D02*
X58852700Y-20020300D01*
X65132000Y-19552800D02*
X64664500Y-20020300D01*
X65132000Y-19017200D02*
X65132000Y-19552800D01*
X58852700Y-20020300D02*
X57310200Y-21562800D01*
%TO.N,/SCL_MOD*%
X51237900Y-26708600D02*
X33033500Y-26708600D01*
X56804300Y-32275000D02*
X51237900Y-26708600D01*
X78295000Y-32275000D02*
X56804300Y-32275000D01*
%TO.N,/SDA_ADC*%
X32324500Y-13729300D02*
X31770300Y-13175100D01*
X57305300Y-13729300D02*
X32324500Y-13729300D01*
X57526300Y-13508300D02*
X57305300Y-13729300D01*
%TO.N,/SDA_MOD*%
X78295000Y-11875000D02*
X77168300Y-11875000D01*
X31841000Y-19490500D02*
X37100400Y-14231100D01*
X58325600Y-14231100D02*
X60753600Y-11803100D01*
X77096400Y-11803100D02*
X77168300Y-11875000D01*
X37100400Y-14231100D02*
X58325600Y-14231100D01*
X60753600Y-11803100D02*
X77096400Y-11803100D01*
%TO.N,/SNS_GSR*%
X52211400Y-25920700D02*
X58626900Y-19505200D01*
X12549300Y-25920700D02*
X52211400Y-25920700D01*
X58626900Y-19505200D02*
X64440400Y-19505200D01*
X5295000Y-33175000D02*
X12549300Y-25920700D01*
%TD*%
%TA.AperFunction,Conductor*%
%TO.N,/3V3_SYS*%
G36*
X29454191Y-319407D02*
G01*
X29490155Y-368907D01*
X29495000Y-399500D01*
X29495000Y-400000D01*
X29495000Y-7575000D01*
X29495001Y-7575000D01*
X45894999Y-7575000D01*
X45895000Y-7575000D01*
X45895000Y-7493478D01*
X77269500Y-7493478D01*
X77269500Y-8256521D01*
X77269501Y-8256523D01*
X77284352Y-8350299D01*
X77284354Y-8350304D01*
X77341950Y-8463342D01*
X77431658Y-8553050D01*
X77544696Y-8610646D01*
X77638481Y-8625500D01*
X78951518Y-8625499D01*
X78951521Y-8625499D01*
X78951522Y-8625498D01*
X78998411Y-8618072D01*
X79045299Y-8610647D01*
X79045299Y-8610646D01*
X79045304Y-8610646D01*
X79158342Y-8553050D01*
X79248050Y-8463342D01*
X79305646Y-8350304D01*
X79320500Y-8256519D01*
X79320499Y-7493482D01*
X79320499Y-7493481D01*
X79320499Y-7493478D01*
X79320498Y-7493476D01*
X79305647Y-7399700D01*
X79305646Y-7399698D01*
X79305646Y-7399696D01*
X79248050Y-7286658D01*
X79158342Y-7196950D01*
X79045304Y-7139354D01*
X79045305Y-7139354D01*
X78951521Y-7124500D01*
X77638478Y-7124500D01*
X77638476Y-7124501D01*
X77544700Y-7139352D01*
X77544695Y-7139354D01*
X77431659Y-7196949D01*
X77341949Y-7286659D01*
X77284354Y-7399695D01*
X77269500Y-7493478D01*
X45895000Y-7493478D01*
X45895000Y-6857073D01*
X59310400Y-6857073D01*
X59310400Y-6962527D01*
X59328503Y-7030089D01*
X59337694Y-7064389D01*
X59337694Y-7064390D01*
X59380974Y-7139352D01*
X59390420Y-7155713D01*
X59464987Y-7230280D01*
X59556313Y-7283007D01*
X59658173Y-7310300D01*
X59658175Y-7310300D01*
X59763625Y-7310300D01*
X59763627Y-7310300D01*
X59865487Y-7283007D01*
X59956813Y-7230280D01*
X60031380Y-7155713D01*
X60084107Y-7064387D01*
X60111400Y-6962527D01*
X60111400Y-6857073D01*
X60084107Y-6755213D01*
X60031380Y-6663887D01*
X59956813Y-6589320D01*
X59911594Y-6563213D01*
X59865489Y-6536594D01*
X59865488Y-6536593D01*
X59865487Y-6536593D01*
X59763627Y-6509300D01*
X59658173Y-6509300D01*
X59556313Y-6536593D01*
X59556312Y-6536593D01*
X59556310Y-6536594D01*
X59556309Y-6536594D01*
X59464989Y-6589318D01*
X59390418Y-6663889D01*
X59337694Y-6755209D01*
X59337694Y-6755210D01*
X59337693Y-6755212D01*
X59337693Y-6755213D01*
X59310400Y-6857073D01*
X45895000Y-6857073D01*
X45895000Y-5947273D01*
X53599500Y-5947273D01*
X53599500Y-6052727D01*
X53626793Y-6154587D01*
X53626794Y-6154589D01*
X53626794Y-6154590D01*
X53679518Y-6245910D01*
X53679520Y-6245913D01*
X53754087Y-6320480D01*
X53845413Y-6373207D01*
X53947273Y-6400500D01*
X53947275Y-6400500D01*
X54052725Y-6400500D01*
X54052727Y-6400500D01*
X54154587Y-6373207D01*
X54245913Y-6320480D01*
X54320480Y-6245913D01*
X54373207Y-6154587D01*
X54400500Y-6052727D01*
X54400500Y-5947273D01*
X65599500Y-5947273D01*
X65599500Y-6052727D01*
X65626793Y-6154587D01*
X65626794Y-6154589D01*
X65626794Y-6154590D01*
X65679518Y-6245910D01*
X65679520Y-6245913D01*
X65754087Y-6320480D01*
X65845413Y-6373207D01*
X65947273Y-6400500D01*
X65947275Y-6400500D01*
X66052725Y-6400500D01*
X66052727Y-6400500D01*
X66154587Y-6373207D01*
X66245913Y-6320480D01*
X66320480Y-6245913D01*
X66373207Y-6154587D01*
X66400500Y-6052727D01*
X66400500Y-5947273D01*
X66373207Y-5845413D01*
X66354154Y-5812413D01*
X66320481Y-5754089D01*
X66320480Y-5754087D01*
X66245913Y-5679520D01*
X66154587Y-5626793D01*
X66052727Y-5599500D01*
X65947273Y-5599500D01*
X65845413Y-5626793D01*
X65845412Y-5626793D01*
X65845410Y-5626794D01*
X65845409Y-5626794D01*
X65754089Y-5679518D01*
X65679518Y-5754089D01*
X65626794Y-5845409D01*
X65626794Y-5845410D01*
X65626793Y-5845412D01*
X65626793Y-5845413D01*
X65599500Y-5947273D01*
X54400500Y-5947273D01*
X54373207Y-5845413D01*
X54354154Y-5812413D01*
X54320481Y-5754089D01*
X54320480Y-5754087D01*
X54245913Y-5679520D01*
X54154587Y-5626793D01*
X54052727Y-5599500D01*
X53947273Y-5599500D01*
X53845413Y-5626793D01*
X53845412Y-5626793D01*
X53845410Y-5626794D01*
X53845409Y-5626794D01*
X53754089Y-5679518D01*
X53679518Y-5754089D01*
X53626794Y-5845409D01*
X53626794Y-5845410D01*
X53626793Y-5845412D01*
X53626793Y-5845413D01*
X53599500Y-5947273D01*
X45895000Y-5947273D01*
X45895000Y-400000D01*
X45895000Y-399500D01*
X45913907Y-341309D01*
X45963407Y-305345D01*
X45994000Y-300500D01*
X80940500Y-300500D01*
X80998691Y-319407D01*
X81034655Y-368907D01*
X81039500Y-399500D01*
X81039500Y-56770500D01*
X81020593Y-56828691D01*
X80971093Y-56864655D01*
X80940500Y-56869500D01*
X399500Y-56869500D01*
X341309Y-56850593D01*
X305345Y-56801093D01*
X300500Y-56770500D01*
X300500Y-53801082D01*
X77269500Y-53801082D01*
X77269500Y-53948918D01*
X77298342Y-54093913D01*
X77354916Y-54230495D01*
X77437049Y-54353416D01*
X77541584Y-54457951D01*
X77664505Y-54540084D01*
X77801087Y-54596658D01*
X77946082Y-54625500D01*
X77946083Y-54625500D01*
X78643917Y-54625500D01*
X78643918Y-54625500D01*
X78788913Y-54596658D01*
X78925495Y-54540084D01*
X79048416Y-54457951D01*
X79152951Y-54353416D01*
X79235084Y-54230495D01*
X79291658Y-54093913D01*
X79320500Y-53948918D01*
X79320500Y-53801082D01*
X79291658Y-53656087D01*
X79235084Y-53519505D01*
X79152951Y-53396584D01*
X79048416Y-53292049D01*
X78925495Y-53209916D01*
X78925493Y-53209915D01*
X78788914Y-53153342D01*
X78643918Y-53124500D01*
X77946082Y-53124500D01*
X77946081Y-53124500D01*
X77801085Y-53153342D01*
X77664506Y-53209915D01*
X77541585Y-53292048D01*
X77437048Y-53396585D01*
X77354915Y-53519506D01*
X77298342Y-53656085D01*
X77298342Y-53656087D01*
X77269500Y-53801082D01*
X300500Y-53801082D01*
X300500Y-46226081D01*
X2544500Y-46226081D01*
X2544500Y-46923918D01*
X2573342Y-47068914D01*
X2629915Y-47205493D01*
X2629916Y-47205495D01*
X2712049Y-47328416D01*
X2816584Y-47432951D01*
X2939505Y-47515084D01*
X3076087Y-47571658D01*
X3221082Y-47600500D01*
X3221083Y-47600500D01*
X3368917Y-47600500D01*
X3368918Y-47600500D01*
X3513913Y-47571658D01*
X3650495Y-47515084D01*
X3773416Y-47432951D01*
X3877951Y-47328416D01*
X3960084Y-47205495D01*
X4016658Y-47068913D01*
X4045500Y-46923918D01*
X4045500Y-46226082D01*
X4016658Y-46081087D01*
X4002463Y-46046818D01*
X3963387Y-45952478D01*
X3963386Y-45952477D01*
X3960084Y-45944505D01*
X3960083Y-45944503D01*
X3960082Y-45944501D01*
X3942694Y-45918478D01*
X4544500Y-45918478D01*
X4544500Y-47231521D01*
X4544501Y-47231523D01*
X4559352Y-47325299D01*
X4559354Y-47325304D01*
X4616950Y-47438342D01*
X4706658Y-47528050D01*
X4819696Y-47585646D01*
X4913481Y-47600500D01*
X5676518Y-47600499D01*
X5676521Y-47600499D01*
X5676522Y-47600498D01*
X5723411Y-47593072D01*
X5770299Y-47585647D01*
X5770299Y-47585646D01*
X5770304Y-47585646D01*
X5883342Y-47528050D01*
X5973050Y-47438342D01*
X6030646Y-47325304D01*
X6045500Y-47231519D01*
X6045499Y-45992473D01*
X35329000Y-45992473D01*
X35329000Y-46097927D01*
X35356293Y-46199787D01*
X35356294Y-46199789D01*
X35356294Y-46199790D01*
X35409018Y-46291110D01*
X35409020Y-46291113D01*
X35483587Y-46365680D01*
X35574913Y-46418407D01*
X35676773Y-46445700D01*
X35734731Y-46445700D01*
X35792922Y-46464607D01*
X35804735Y-46474696D01*
X41417403Y-52087364D01*
X41417404Y-52087364D01*
X41417405Y-52087365D01*
X41509471Y-52125500D01*
X41509472Y-52125500D01*
X41609128Y-52125500D01*
X77245276Y-52125500D01*
X77303467Y-52144407D01*
X77336740Y-52186615D01*
X77354916Y-52230495D01*
X77437049Y-52353416D01*
X77541584Y-52457951D01*
X77664505Y-52540084D01*
X77801087Y-52596658D01*
X77946082Y-52625500D01*
X77946083Y-52625500D01*
X78643917Y-52625500D01*
X78643918Y-52625500D01*
X78788913Y-52596658D01*
X78925495Y-52540084D01*
X79048416Y-52457951D01*
X79152951Y-52353416D01*
X79235084Y-52230495D01*
X79291658Y-52093913D01*
X79320500Y-51948918D01*
X79320500Y-51801082D01*
X79291658Y-51656087D01*
X79235084Y-51519505D01*
X79152951Y-51396584D01*
X79048416Y-51292049D01*
X78925495Y-51209916D01*
X78925493Y-51209915D01*
X78788914Y-51153342D01*
X78643918Y-51124500D01*
X77946082Y-51124500D01*
X77946081Y-51124500D01*
X77801085Y-51153342D01*
X77664506Y-51209915D01*
X77541585Y-51292048D01*
X77437048Y-51396585D01*
X77354915Y-51519506D01*
X77336740Y-51563385D01*
X77297004Y-51609911D01*
X77245276Y-51624500D01*
X41704069Y-51624500D01*
X41645878Y-51605593D01*
X41634065Y-51595504D01*
X36158996Y-46120435D01*
X36156283Y-46115111D01*
X36151313Y-46111797D01*
X36144285Y-46091563D01*
X36131219Y-46065918D01*
X36130080Y-46054414D01*
X36130000Y-46052427D01*
X36130000Y-45992473D01*
X36124882Y-45973373D01*
X37819100Y-45973373D01*
X37819100Y-46078827D01*
X37830249Y-46120435D01*
X37846394Y-46180689D01*
X37846394Y-46180690D01*
X37899118Y-46272010D01*
X37899120Y-46272013D01*
X37973687Y-46346580D01*
X38065013Y-46399307D01*
X38166873Y-46426600D01*
X38224831Y-46426600D01*
X38283022Y-46445507D01*
X38294835Y-46455596D01*
X39788156Y-47948916D01*
X41004435Y-49165195D01*
X41004436Y-49165197D01*
X41074903Y-49235664D01*
X41074904Y-49235664D01*
X41074905Y-49235665D01*
X41166971Y-49273800D01*
X41166972Y-49273800D01*
X41266628Y-49273800D01*
X77333875Y-49273800D01*
X77392066Y-49292707D01*
X77428030Y-49342207D01*
X77428030Y-49403393D01*
X77416190Y-49427802D01*
X77354915Y-49519505D01*
X77298342Y-49656085D01*
X77298342Y-49656087D01*
X77269500Y-49801082D01*
X77269500Y-49948918D01*
X77298342Y-50093913D01*
X77354916Y-50230495D01*
X77437049Y-50353416D01*
X77541584Y-50457951D01*
X77664505Y-50540084D01*
X77801087Y-50596658D01*
X77946082Y-50625500D01*
X77946083Y-50625500D01*
X78643917Y-50625500D01*
X78643918Y-50625500D01*
X78788913Y-50596658D01*
X78925495Y-50540084D01*
X79048416Y-50457951D01*
X79152951Y-50353416D01*
X79235084Y-50230495D01*
X79291658Y-50093913D01*
X79320500Y-49948918D01*
X79320500Y-49801082D01*
X79291658Y-49656087D01*
X79235084Y-49519505D01*
X79152951Y-49396584D01*
X79048416Y-49292049D01*
X78925495Y-49209916D01*
X78817534Y-49165197D01*
X78788914Y-49153342D01*
X78643918Y-49124500D01*
X78639082Y-49124024D01*
X78639204Y-49122779D01*
X78586309Y-49105593D01*
X78550345Y-49056093D01*
X78545500Y-49025500D01*
X78545500Y-48973471D01*
X78507365Y-48881405D01*
X78507364Y-48881404D01*
X78507364Y-48881403D01*
X78436897Y-48810936D01*
X78436895Y-48810935D01*
X78436892Y-48810932D01*
X78430729Y-48806814D01*
X78392850Y-48758764D01*
X78390449Y-48697625D01*
X78424443Y-48646752D01*
X78481847Y-48625576D01*
X78485732Y-48625500D01*
X78643917Y-48625500D01*
X78643918Y-48625500D01*
X78788913Y-48596658D01*
X78925495Y-48540084D01*
X79048416Y-48457951D01*
X79152951Y-48353416D01*
X79235084Y-48230495D01*
X79291658Y-48093913D01*
X79320500Y-47948918D01*
X79320500Y-47801082D01*
X79291658Y-47656087D01*
X79235084Y-47519505D01*
X79152951Y-47396584D01*
X79048416Y-47292049D01*
X78925495Y-47209916D01*
X78914817Y-47205493D01*
X78788914Y-47153342D01*
X78643918Y-47124500D01*
X77946082Y-47124500D01*
X77946081Y-47124500D01*
X77801085Y-47153342D01*
X77664506Y-47209915D01*
X77541585Y-47292048D01*
X77437048Y-47396585D01*
X77354915Y-47519506D01*
X77298342Y-47656085D01*
X77298342Y-47656087D01*
X77269500Y-47801082D01*
X77269500Y-47948918D01*
X77298342Y-48093913D01*
X77354916Y-48230495D01*
X77437049Y-48353416D01*
X77541584Y-48457951D01*
X77664505Y-48540084D01*
X77729809Y-48567134D01*
X77766510Y-48582336D01*
X77813036Y-48622072D01*
X77827320Y-48681567D01*
X77803905Y-48738095D01*
X77751736Y-48770065D01*
X77728625Y-48772800D01*
X41361568Y-48772800D01*
X41303377Y-48753893D01*
X41291564Y-48743804D01*
X38649096Y-46101335D01*
X38621319Y-46046818D01*
X38620100Y-46031331D01*
X38620100Y-45973374D01*
X38614501Y-45952478D01*
X38592807Y-45871513D01*
X38552143Y-45801081D01*
X77269500Y-45801081D01*
X77269500Y-45948918D01*
X77298342Y-46093914D01*
X77353088Y-46226082D01*
X77354916Y-46230495D01*
X77437049Y-46353416D01*
X77541584Y-46457951D01*
X77664505Y-46540084D01*
X77801087Y-46596658D01*
X77946082Y-46625500D01*
X77946083Y-46625500D01*
X78643917Y-46625500D01*
X78643918Y-46625500D01*
X78788913Y-46596658D01*
X78925495Y-46540084D01*
X79048416Y-46457951D01*
X79152951Y-46353416D01*
X79235084Y-46230495D01*
X79291658Y-46093913D01*
X79320500Y-45948918D01*
X79320500Y-45801082D01*
X79291658Y-45656087D01*
X79235084Y-45519505D01*
X79152951Y-45396584D01*
X79048416Y-45292049D01*
X78925495Y-45209916D01*
X78925493Y-45209915D01*
X78788914Y-45153342D01*
X78643918Y-45124500D01*
X77946082Y-45124500D01*
X77946081Y-45124500D01*
X77801085Y-45153342D01*
X77664506Y-45209915D01*
X77541585Y-45292048D01*
X77437048Y-45396585D01*
X77354915Y-45519506D01*
X77298342Y-45656085D01*
X77269500Y-45801081D01*
X38552143Y-45801081D01*
X38540080Y-45780187D01*
X38465513Y-45705620D01*
X38407269Y-45671993D01*
X38374189Y-45652894D01*
X38374188Y-45652893D01*
X38374187Y-45652893D01*
X38272327Y-45625600D01*
X38166873Y-45625600D01*
X38065013Y-45652893D01*
X38065012Y-45652893D01*
X38065010Y-45652894D01*
X38065009Y-45652894D01*
X37973689Y-45705618D01*
X37899118Y-45780189D01*
X37846394Y-45871509D01*
X37846394Y-45871510D01*
X37846394Y-45871511D01*
X37846393Y-45871513D01*
X37819100Y-45973373D01*
X36124882Y-45973373D01*
X36102707Y-45890613D01*
X36091678Y-45871511D01*
X36049981Y-45799289D01*
X36049980Y-45799287D01*
X35975413Y-45724720D01*
X35962126Y-45717049D01*
X35884089Y-45671994D01*
X35884088Y-45671993D01*
X35884087Y-45671993D01*
X35782227Y-45644700D01*
X35676773Y-45644700D01*
X35574913Y-45671993D01*
X35574912Y-45671993D01*
X35574910Y-45671994D01*
X35574909Y-45671994D01*
X35483589Y-45724718D01*
X35409018Y-45799289D01*
X35356294Y-45890609D01*
X35356294Y-45890610D01*
X35356294Y-45890611D01*
X35356293Y-45890613D01*
X35329000Y-45992473D01*
X6045499Y-45992473D01*
X6045499Y-45918482D01*
X6045499Y-45918481D01*
X6045499Y-45918478D01*
X6045498Y-45918476D01*
X6030647Y-45824700D01*
X6030646Y-45824698D01*
X6030646Y-45824696D01*
X5973050Y-45711658D01*
X5883342Y-45621950D01*
X5770304Y-45564354D01*
X5770305Y-45564354D01*
X5676521Y-45549500D01*
X4913478Y-45549500D01*
X4913476Y-45549501D01*
X4819700Y-45564352D01*
X4819695Y-45564354D01*
X4706659Y-45621949D01*
X4616949Y-45711659D01*
X4559354Y-45824695D01*
X4544500Y-45918478D01*
X3942694Y-45918478D01*
X3894076Y-45845717D01*
X3877951Y-45821584D01*
X3773416Y-45717049D01*
X3650495Y-45634916D01*
X3650493Y-45634915D01*
X3513914Y-45578342D01*
X3368918Y-45549500D01*
X3221082Y-45549500D01*
X3221081Y-45549500D01*
X3076085Y-45578342D01*
X2939506Y-45634915D01*
X2816585Y-45717048D01*
X2712048Y-45821585D01*
X2629915Y-45944506D01*
X2573342Y-46081085D01*
X2544500Y-46226081D01*
X300500Y-46226081D01*
X300500Y-43493478D01*
X77269500Y-43493478D01*
X77269500Y-44256521D01*
X77269501Y-44256523D01*
X77284352Y-44350299D01*
X77284354Y-44350304D01*
X77341950Y-44463342D01*
X77431658Y-44553050D01*
X77544696Y-44610646D01*
X77638481Y-44625500D01*
X78951518Y-44625499D01*
X78951521Y-44625499D01*
X78951522Y-44625498D01*
X78998411Y-44618072D01*
X79045299Y-44610647D01*
X79045299Y-44610646D01*
X79045304Y-44610646D01*
X79158342Y-44553050D01*
X79248050Y-44463342D01*
X79305646Y-44350304D01*
X79320500Y-44256519D01*
X79320499Y-43493482D01*
X79320499Y-43493481D01*
X79320499Y-43493478D01*
X79320498Y-43493476D01*
X79305647Y-43399700D01*
X79305646Y-43399698D01*
X79305646Y-43399696D01*
X79248050Y-43286658D01*
X79158342Y-43196950D01*
X79045304Y-43139354D01*
X79045305Y-43139354D01*
X78951521Y-43124500D01*
X77638478Y-43124500D01*
X77638476Y-43124501D01*
X77544700Y-43139352D01*
X77544695Y-43139354D01*
X77431659Y-43196949D01*
X77341949Y-43286659D01*
X77284354Y-43399695D01*
X77269500Y-43493478D01*
X300500Y-43493478D01*
X300500Y-41947273D01*
X5599500Y-41947273D01*
X5599500Y-42052727D01*
X5626793Y-42154587D01*
X5626794Y-42154589D01*
X5626794Y-42154590D01*
X5679518Y-42245910D01*
X5679520Y-42245913D01*
X5754087Y-42320480D01*
X5845413Y-42373207D01*
X5947273Y-42400500D01*
X5947275Y-42400500D01*
X6052725Y-42400500D01*
X6052727Y-42400500D01*
X6154587Y-42373207D01*
X6245913Y-42320480D01*
X6320480Y-42245913D01*
X6373207Y-42154587D01*
X6400500Y-42052727D01*
X6400500Y-41947273D01*
X17599500Y-41947273D01*
X17599500Y-42052727D01*
X17626793Y-42154587D01*
X17626794Y-42154589D01*
X17626794Y-42154590D01*
X17679518Y-42245910D01*
X17679520Y-42245913D01*
X17754087Y-42320480D01*
X17845413Y-42373207D01*
X17947273Y-42400500D01*
X17947275Y-42400500D01*
X18052725Y-42400500D01*
X18052727Y-42400500D01*
X18154587Y-42373207D01*
X18245913Y-42320480D01*
X18320480Y-42245913D01*
X18373207Y-42154587D01*
X18400500Y-42052727D01*
X18400500Y-41947273D01*
X29599500Y-41947273D01*
X29599500Y-42052727D01*
X29626793Y-42154587D01*
X29626794Y-42154589D01*
X29626794Y-42154590D01*
X29679518Y-42245910D01*
X29679520Y-42245913D01*
X29754087Y-42320480D01*
X29845413Y-42373207D01*
X29947273Y-42400500D01*
X29947275Y-42400500D01*
X30052725Y-42400500D01*
X30052727Y-42400500D01*
X30154587Y-42373207D01*
X30245913Y-42320480D01*
X30320480Y-42245913D01*
X30373207Y-42154587D01*
X30400500Y-42052727D01*
X30400500Y-41947273D01*
X41599500Y-41947273D01*
X41599500Y-42052727D01*
X41626793Y-42154587D01*
X41626794Y-42154589D01*
X41626794Y-42154590D01*
X41679518Y-42245910D01*
X41679520Y-42245913D01*
X41754087Y-42320480D01*
X41845413Y-42373207D01*
X41947273Y-42400500D01*
X41947275Y-42400500D01*
X42052725Y-42400500D01*
X42052727Y-42400500D01*
X42154587Y-42373207D01*
X42245913Y-42320480D01*
X42320480Y-42245913D01*
X42373207Y-42154587D01*
X42400500Y-42052727D01*
X42400500Y-41947273D01*
X53599500Y-41947273D01*
X53599500Y-42052727D01*
X53626793Y-42154587D01*
X53626794Y-42154589D01*
X53626794Y-42154590D01*
X53679518Y-42245910D01*
X53679520Y-42245913D01*
X53754087Y-42320480D01*
X53845413Y-42373207D01*
X53947273Y-42400500D01*
X53947275Y-42400500D01*
X54052725Y-42400500D01*
X54052727Y-42400500D01*
X54154587Y-42373207D01*
X54245913Y-42320480D01*
X54320480Y-42245913D01*
X54373207Y-42154587D01*
X54400500Y-42052727D01*
X54400500Y-41947273D01*
X65599500Y-41947273D01*
X65599500Y-42052727D01*
X65626793Y-42154587D01*
X65626794Y-42154589D01*
X65626794Y-42154590D01*
X65679518Y-42245910D01*
X65679520Y-42245913D01*
X65754087Y-42320480D01*
X65845413Y-42373207D01*
X65947273Y-42400500D01*
X65947275Y-42400500D01*
X66052725Y-42400500D01*
X66052727Y-42400500D01*
X66154587Y-42373207D01*
X66245913Y-42320480D01*
X66320480Y-42245913D01*
X66373207Y-42154587D01*
X66400500Y-42052727D01*
X66400500Y-41947273D01*
X66373207Y-41845413D01*
X66320480Y-41754087D01*
X66245913Y-41679520D01*
X66154587Y-41626793D01*
X66052727Y-41599500D01*
X65947273Y-41599500D01*
X65845413Y-41626793D01*
X65845412Y-41626793D01*
X65845410Y-41626794D01*
X65845409Y-41626794D01*
X65754089Y-41679518D01*
X65679518Y-41754089D01*
X65626794Y-41845409D01*
X65626794Y-41845410D01*
X65626793Y-41845412D01*
X65626793Y-41845413D01*
X65599500Y-41947273D01*
X54400500Y-41947273D01*
X54373207Y-41845413D01*
X54320480Y-41754087D01*
X54245913Y-41679520D01*
X54154587Y-41626793D01*
X54052727Y-41599500D01*
X53947273Y-41599500D01*
X53845413Y-41626793D01*
X53845412Y-41626793D01*
X53845410Y-41626794D01*
X53845409Y-41626794D01*
X53754089Y-41679518D01*
X53679518Y-41754089D01*
X53626794Y-41845409D01*
X53626794Y-41845410D01*
X53626793Y-41845412D01*
X53626793Y-41845413D01*
X53599500Y-41947273D01*
X42400500Y-41947273D01*
X42373207Y-41845413D01*
X42320480Y-41754087D01*
X42245913Y-41679520D01*
X42154587Y-41626793D01*
X42052727Y-41599500D01*
X41947273Y-41599500D01*
X41845413Y-41626793D01*
X41845412Y-41626793D01*
X41845410Y-41626794D01*
X41845409Y-41626794D01*
X41754089Y-41679518D01*
X41679518Y-41754089D01*
X41626794Y-41845409D01*
X41626794Y-41845410D01*
X41626793Y-41845412D01*
X41626793Y-41845413D01*
X41599500Y-41947273D01*
X30400500Y-41947273D01*
X30373207Y-41845413D01*
X30320480Y-41754087D01*
X30245913Y-41679520D01*
X30154587Y-41626793D01*
X30052727Y-41599500D01*
X29947273Y-41599500D01*
X29845413Y-41626793D01*
X29845412Y-41626793D01*
X29845410Y-41626794D01*
X29845409Y-41626794D01*
X29754089Y-41679518D01*
X29679518Y-41754089D01*
X29626794Y-41845409D01*
X29626794Y-41845410D01*
X29626793Y-41845412D01*
X29626793Y-41845413D01*
X29599500Y-41947273D01*
X18400500Y-41947273D01*
X18373207Y-41845413D01*
X18320480Y-41754087D01*
X18245913Y-41679520D01*
X18154587Y-41626793D01*
X18052727Y-41599500D01*
X17947273Y-41599500D01*
X17845413Y-41626793D01*
X17845412Y-41626793D01*
X17845410Y-41626794D01*
X17845409Y-41626794D01*
X17754089Y-41679518D01*
X17679518Y-41754089D01*
X17626794Y-41845409D01*
X17626794Y-41845410D01*
X17626793Y-41845412D01*
X17626793Y-41845413D01*
X17599500Y-41947273D01*
X6400500Y-41947273D01*
X6373207Y-41845413D01*
X6320480Y-41754087D01*
X6245913Y-41679520D01*
X6154587Y-41626793D01*
X6052727Y-41599500D01*
X5947273Y-41599500D01*
X5845413Y-41626793D01*
X5845412Y-41626793D01*
X5845410Y-41626794D01*
X5845409Y-41626794D01*
X5754089Y-41679518D01*
X5679518Y-41754089D01*
X5626794Y-41845409D01*
X5626794Y-41845410D01*
X5626793Y-41845412D01*
X5626793Y-41845413D01*
X5599500Y-41947273D01*
X300500Y-41947273D01*
X300500Y-39526082D01*
X2544500Y-39526082D01*
X2544500Y-40223918D01*
X2573342Y-40368913D01*
X2629916Y-40505495D01*
X2712049Y-40628416D01*
X2816584Y-40732951D01*
X2939505Y-40815084D01*
X3076087Y-40871658D01*
X3221082Y-40900500D01*
X3221083Y-40900500D01*
X3368917Y-40900500D01*
X3368918Y-40900500D01*
X3513913Y-40871658D01*
X3650495Y-40815084D01*
X3773416Y-40732951D01*
X3877951Y-40628416D01*
X3960084Y-40505495D01*
X4016658Y-40368913D01*
X4045500Y-40223918D01*
X4045500Y-39526082D01*
X4016658Y-39381087D01*
X3960084Y-39244505D01*
X3960083Y-39244503D01*
X3960082Y-39244501D01*
X3942694Y-39218478D01*
X4544500Y-39218478D01*
X4544500Y-40531521D01*
X4544501Y-40531523D01*
X4559352Y-40625299D01*
X4559354Y-40625304D01*
X4616950Y-40738342D01*
X4706658Y-40828050D01*
X4819696Y-40885646D01*
X4913481Y-40900500D01*
X5676518Y-40900499D01*
X5676521Y-40900499D01*
X5676522Y-40900498D01*
X5723411Y-40893072D01*
X5770299Y-40885647D01*
X5770299Y-40885646D01*
X5770304Y-40885646D01*
X5883342Y-40828050D01*
X5973050Y-40738342D01*
X6030646Y-40625304D01*
X6045500Y-40531519D01*
X6045499Y-39218482D01*
X6045499Y-39218481D01*
X6045499Y-39218478D01*
X6045498Y-39218476D01*
X6030647Y-39124700D01*
X6030646Y-39124698D01*
X6030646Y-39124696D01*
X5973050Y-39011658D01*
X5883342Y-38921950D01*
X5770304Y-38864354D01*
X5770305Y-38864354D01*
X5676521Y-38849500D01*
X4913478Y-38849500D01*
X4913476Y-38849501D01*
X4819700Y-38864352D01*
X4819695Y-38864354D01*
X4706659Y-38921949D01*
X4616949Y-39011659D01*
X4559354Y-39124695D01*
X4544500Y-39218478D01*
X3942694Y-39218478D01*
X3918877Y-39182835D01*
X3877951Y-39121584D01*
X3773416Y-39017049D01*
X3650495Y-38934916D01*
X3650493Y-38934915D01*
X3513914Y-38878342D01*
X3368918Y-38849500D01*
X3221082Y-38849500D01*
X3221081Y-38849500D01*
X3076085Y-38878342D01*
X2939506Y-38934915D01*
X2816585Y-39017048D01*
X2712048Y-39121585D01*
X2629915Y-39244506D01*
X2573342Y-39381085D01*
X2573342Y-39381087D01*
X2544500Y-39526082D01*
X300500Y-39526082D01*
X300500Y-35985931D01*
X32724500Y-35985931D01*
X32724500Y-36714069D01*
X32732326Y-36753414D01*
X32749499Y-36839742D01*
X32749500Y-36839747D01*
X32798534Y-36958125D01*
X32798538Y-36958133D01*
X32841365Y-37022226D01*
X32869724Y-37064669D01*
X32960331Y-37155276D01*
X33023848Y-37197717D01*
X33066866Y-37226461D01*
X33066870Y-37226463D01*
X33066873Y-37226465D01*
X33185256Y-37275501D01*
X33310931Y-37300500D01*
X33310932Y-37300500D01*
X33439068Y-37300500D01*
X33439069Y-37300500D01*
X33564744Y-37275501D01*
X33683127Y-37226465D01*
X33789669Y-37155276D01*
X33880276Y-37064669D01*
X33951465Y-36958127D01*
X34000501Y-36839744D01*
X34025500Y-36714069D01*
X34025500Y-35985931D01*
X41364500Y-35985931D01*
X41364500Y-36714069D01*
X41372326Y-36753414D01*
X41389499Y-36839742D01*
X41389500Y-36839747D01*
X41438534Y-36958125D01*
X41438538Y-36958133D01*
X41481365Y-37022226D01*
X41509724Y-37064669D01*
X41600331Y-37155276D01*
X41663848Y-37197717D01*
X41706866Y-37226461D01*
X41706870Y-37226463D01*
X41706873Y-37226465D01*
X41825256Y-37275501D01*
X41950931Y-37300500D01*
X41950932Y-37300500D01*
X42079068Y-37300500D01*
X42079069Y-37300500D01*
X42204744Y-37275501D01*
X42323127Y-37226465D01*
X42429669Y-37155276D01*
X42520276Y-37064669D01*
X42591465Y-36958127D01*
X42640501Y-36839744D01*
X42665500Y-36714069D01*
X42665500Y-36201082D01*
X77269500Y-36201082D01*
X77269500Y-36348918D01*
X77298342Y-36493913D01*
X77354916Y-36630495D01*
X77437049Y-36753416D01*
X77541584Y-36857951D01*
X77664505Y-36940084D01*
X77801087Y-36996658D01*
X77946082Y-37025500D01*
X77946083Y-37025500D01*
X78643917Y-37025500D01*
X78643918Y-37025500D01*
X78788913Y-36996658D01*
X78925495Y-36940084D01*
X79048416Y-36857951D01*
X79152951Y-36753416D01*
X79235084Y-36630495D01*
X79291658Y-36493913D01*
X79320500Y-36348918D01*
X79320500Y-36201082D01*
X79291658Y-36056087D01*
X79235084Y-35919505D01*
X79152951Y-35796584D01*
X79048416Y-35692049D01*
X78925495Y-35609916D01*
X78925493Y-35609915D01*
X78788914Y-35553342D01*
X78643918Y-35524500D01*
X77946082Y-35524500D01*
X77946081Y-35524500D01*
X77801085Y-35553342D01*
X77664506Y-35609915D01*
X77541585Y-35692048D01*
X77437048Y-35796585D01*
X77354915Y-35919506D01*
X77298342Y-36056085D01*
X77298342Y-36056087D01*
X77269500Y-36201082D01*
X42665500Y-36201082D01*
X42665500Y-35985931D01*
X42640501Y-35860256D01*
X42591465Y-35741873D01*
X42591463Y-35741870D01*
X42591461Y-35741866D01*
X42558173Y-35692048D01*
X42520276Y-35635331D01*
X42429669Y-35544724D01*
X42387226Y-35516365D01*
X42323133Y-35473538D01*
X42323125Y-35473534D01*
X42204747Y-35424500D01*
X42204745Y-35424499D01*
X42204744Y-35424499D01*
X42079069Y-35399500D01*
X41950931Y-35399500D01*
X41950930Y-35399500D01*
X41888093Y-35411999D01*
X41825256Y-35424499D01*
X41825255Y-35424499D01*
X41825252Y-35424500D01*
X41706874Y-35473534D01*
X41706866Y-35473538D01*
X41600331Y-35544724D01*
X41600327Y-35544727D01*
X41509727Y-35635327D01*
X41509724Y-35635331D01*
X41438538Y-35741866D01*
X41438534Y-35741874D01*
X41389500Y-35860252D01*
X41389499Y-35860255D01*
X41389499Y-35860256D01*
X41364500Y-35985931D01*
X34025500Y-35985931D01*
X34000501Y-35860256D01*
X33951465Y-35741873D01*
X33951463Y-35741870D01*
X33951461Y-35741866D01*
X33918173Y-35692048D01*
X33880276Y-35635331D01*
X33789669Y-35544724D01*
X33747226Y-35516365D01*
X33683133Y-35473538D01*
X33683125Y-35473534D01*
X33564747Y-35424500D01*
X33564745Y-35424499D01*
X33564744Y-35424499D01*
X33439069Y-35399500D01*
X33310931Y-35399500D01*
X33310930Y-35399500D01*
X33248093Y-35411999D01*
X33185256Y-35424499D01*
X33185255Y-35424499D01*
X33185252Y-35424500D01*
X33066874Y-35473534D01*
X33066866Y-35473538D01*
X32960331Y-35544724D01*
X32960327Y-35544727D01*
X32869727Y-35635327D01*
X32869724Y-35635331D01*
X32798538Y-35741866D01*
X32798534Y-35741874D01*
X32749500Y-35860252D01*
X32749499Y-35860255D01*
X32749499Y-35860256D01*
X32724500Y-35985931D01*
X300500Y-35985931D01*
X300500Y-32826081D01*
X2544500Y-32826081D01*
X2544500Y-33523918D01*
X2573342Y-33668914D01*
X2582925Y-33692049D01*
X2629916Y-33805495D01*
X2712049Y-33928416D01*
X2816584Y-34032951D01*
X2939505Y-34115084D01*
X3076087Y-34171658D01*
X3221082Y-34200500D01*
X3221083Y-34200500D01*
X3368917Y-34200500D01*
X3368918Y-34200500D01*
X3513913Y-34171658D01*
X3650495Y-34115084D01*
X3773416Y-34032951D01*
X3877951Y-33928416D01*
X3960084Y-33805495D01*
X4016658Y-33668913D01*
X4045500Y-33523918D01*
X4045500Y-32826082D01*
X4016658Y-32681087D01*
X3995701Y-32630493D01*
X3963387Y-32552478D01*
X3963386Y-32552477D01*
X3960084Y-32544505D01*
X3960083Y-32544503D01*
X3960082Y-32544501D01*
X3942694Y-32518478D01*
X4544500Y-32518478D01*
X4544500Y-33831521D01*
X4544501Y-33831523D01*
X4559352Y-33925299D01*
X4559354Y-33925304D01*
X4616950Y-34038342D01*
X4706658Y-34128050D01*
X4819696Y-34185646D01*
X4913481Y-34200500D01*
X5676518Y-34200499D01*
X5676521Y-34200499D01*
X5676522Y-34200498D01*
X5723411Y-34193072D01*
X5770299Y-34185647D01*
X5770299Y-34185646D01*
X5770304Y-34185646D01*
X5883342Y-34128050D01*
X5918819Y-34092573D01*
X21787800Y-34092573D01*
X21787800Y-34198027D01*
X21788619Y-34201082D01*
X21815094Y-34299889D01*
X21815094Y-34299890D01*
X21843401Y-34348918D01*
X21867820Y-34391213D01*
X21942387Y-34465780D01*
X22033713Y-34518507D01*
X22135573Y-34545800D01*
X22135575Y-34545800D01*
X22241025Y-34545800D01*
X22241027Y-34545800D01*
X22342887Y-34518507D01*
X22434213Y-34465780D01*
X22508780Y-34391213D01*
X22561507Y-34299887D01*
X22587981Y-34201082D01*
X77269500Y-34201082D01*
X77269500Y-34348918D01*
X77298342Y-34493913D01*
X77354916Y-34630495D01*
X77437049Y-34753416D01*
X77541584Y-34857951D01*
X77664505Y-34940084D01*
X77801087Y-34996658D01*
X77946082Y-35025500D01*
X77946083Y-35025500D01*
X78643917Y-35025500D01*
X78643918Y-35025500D01*
X78788913Y-34996658D01*
X78925495Y-34940084D01*
X79048416Y-34857951D01*
X79152951Y-34753416D01*
X79235084Y-34630495D01*
X79291658Y-34493913D01*
X79320500Y-34348918D01*
X79320500Y-34201082D01*
X79291658Y-34056087D01*
X79235084Y-33919505D01*
X79152951Y-33796584D01*
X79048416Y-33692049D01*
X78925495Y-33609916D01*
X78925493Y-33609915D01*
X78788914Y-33553342D01*
X78643918Y-33524500D01*
X77946082Y-33524500D01*
X77946081Y-33524500D01*
X77801085Y-33553342D01*
X77664506Y-33609915D01*
X77541585Y-33692048D01*
X77437048Y-33796585D01*
X77354915Y-33919506D01*
X77298342Y-34056085D01*
X77269616Y-34200498D01*
X77269500Y-34201082D01*
X22587981Y-34201082D01*
X22588800Y-34198027D01*
X22588800Y-34092573D01*
X22561507Y-33990713D01*
X22508780Y-33899387D01*
X22434213Y-33824820D01*
X22385308Y-33796585D01*
X22342889Y-33772094D01*
X22342888Y-33772093D01*
X22342887Y-33772093D01*
X22241027Y-33744800D01*
X22135573Y-33744800D01*
X22033713Y-33772093D01*
X22033712Y-33772093D01*
X22033710Y-33772094D01*
X22033709Y-33772094D01*
X21942389Y-33824818D01*
X21867818Y-33899389D01*
X21815094Y-33990709D01*
X21815094Y-33990710D01*
X21815093Y-33990712D01*
X21815093Y-33990713D01*
X21787800Y-34092573D01*
X5918819Y-34092573D01*
X5973050Y-34038342D01*
X6030646Y-33925304D01*
X6045500Y-33831519D01*
X6045499Y-33078073D01*
X28560800Y-33078073D01*
X28560800Y-33183527D01*
X28588093Y-33285387D01*
X28588094Y-33285389D01*
X28588094Y-33285390D01*
X28637232Y-33370499D01*
X28640820Y-33376713D01*
X28715387Y-33451280D01*
X28806713Y-33504007D01*
X28908573Y-33531300D01*
X28908575Y-33531300D01*
X29014025Y-33531300D01*
X29014027Y-33531300D01*
X29115887Y-33504007D01*
X29207213Y-33451280D01*
X29281780Y-33376713D01*
X29334507Y-33285387D01*
X29361800Y-33183527D01*
X29361800Y-33078073D01*
X29334507Y-32976213D01*
X29326280Y-32961964D01*
X29281781Y-32884889D01*
X29281780Y-32884887D01*
X29207213Y-32810320D01*
X29161741Y-32784067D01*
X29115889Y-32757594D01*
X29115888Y-32757593D01*
X29115887Y-32757593D01*
X29014027Y-32730300D01*
X28908573Y-32730300D01*
X28806713Y-32757593D01*
X28806712Y-32757593D01*
X28806710Y-32757594D01*
X28806709Y-32757594D01*
X28715389Y-32810318D01*
X28640818Y-32884889D01*
X28588094Y-32976209D01*
X28588094Y-32976210D01*
X28588093Y-32976212D01*
X28588093Y-32976213D01*
X28560800Y-33078073D01*
X6045499Y-33078073D01*
X6045499Y-32819767D01*
X6064406Y-32761577D01*
X6074489Y-32749770D01*
X7268328Y-31555931D01*
X32724500Y-31555931D01*
X32724500Y-32784069D01*
X32744554Y-32884887D01*
X32749499Y-32909742D01*
X32749500Y-32909747D01*
X32798534Y-33028125D01*
X32798538Y-33028133D01*
X32831908Y-33078073D01*
X32869724Y-33134669D01*
X32960331Y-33225276D01*
X33023848Y-33267717D01*
X33066866Y-33296461D01*
X33066870Y-33296463D01*
X33066873Y-33296465D01*
X33185256Y-33345501D01*
X33310931Y-33370500D01*
X33310932Y-33370500D01*
X33439068Y-33370500D01*
X33439069Y-33370500D01*
X33564744Y-33345501D01*
X33683127Y-33296465D01*
X33789669Y-33225276D01*
X33880276Y-33134669D01*
X33951465Y-33028127D01*
X34000501Y-32909744D01*
X34025500Y-32784069D01*
X34025500Y-32607399D01*
X34329500Y-32607399D01*
X34329500Y-32732601D01*
X34361905Y-32853536D01*
X34424505Y-32961964D01*
X34513036Y-33050495D01*
X34621464Y-33113095D01*
X34742399Y-33145500D01*
X34742401Y-33145500D01*
X34867599Y-33145500D01*
X34867601Y-33145500D01*
X34988536Y-33113095D01*
X35096964Y-33050495D01*
X35185495Y-32961964D01*
X35248095Y-32853536D01*
X35280500Y-32732601D01*
X35280500Y-32607399D01*
X40109500Y-32607399D01*
X40109500Y-32732601D01*
X40141905Y-32853536D01*
X40204505Y-32961964D01*
X40293036Y-33050495D01*
X40401464Y-33113095D01*
X40522399Y-33145500D01*
X40522401Y-33145500D01*
X40647599Y-33145500D01*
X40647601Y-33145500D01*
X40768536Y-33113095D01*
X40876964Y-33050495D01*
X40965495Y-32961964D01*
X41028095Y-32853536D01*
X41060500Y-32732601D01*
X41060500Y-32607399D01*
X41028095Y-32486464D01*
X40965495Y-32378036D01*
X40876964Y-32289505D01*
X40768536Y-32226905D01*
X40647601Y-32194500D01*
X40522399Y-32194500D01*
X40441775Y-32216103D01*
X40401463Y-32226905D01*
X40293036Y-32289505D01*
X40204505Y-32378036D01*
X40141905Y-32486463D01*
X40141905Y-32486464D01*
X40109500Y-32607399D01*
X35280500Y-32607399D01*
X35248095Y-32486464D01*
X35185495Y-32378036D01*
X35096964Y-32289505D01*
X34988536Y-32226905D01*
X34867601Y-32194500D01*
X34742399Y-32194500D01*
X34661775Y-32216103D01*
X34621463Y-32226905D01*
X34513036Y-32289505D01*
X34424505Y-32378036D01*
X34361905Y-32486463D01*
X34361905Y-32486464D01*
X34329500Y-32607399D01*
X34025500Y-32607399D01*
X34025500Y-31555931D01*
X41364500Y-31555931D01*
X41364500Y-32784069D01*
X41384554Y-32884887D01*
X41389499Y-32909742D01*
X41389500Y-32909747D01*
X41438534Y-33028125D01*
X41438538Y-33028133D01*
X41471908Y-33078073D01*
X41509724Y-33134669D01*
X41600331Y-33225276D01*
X41663848Y-33267717D01*
X41706866Y-33296461D01*
X41706870Y-33296463D01*
X41706873Y-33296465D01*
X41825256Y-33345501D01*
X41950931Y-33370500D01*
X41950932Y-33370500D01*
X42079068Y-33370500D01*
X42079069Y-33370500D01*
X42204744Y-33345501D01*
X42323127Y-33296465D01*
X42429669Y-33225276D01*
X42520276Y-33134669D01*
X42591465Y-33028127D01*
X42640501Y-32909744D01*
X42665500Y-32784069D01*
X42665500Y-31555931D01*
X42640501Y-31430256D01*
X42591465Y-31311873D01*
X42591463Y-31311870D01*
X42591461Y-31311866D01*
X42539024Y-31233390D01*
X42520276Y-31205331D01*
X42429669Y-31114724D01*
X42387226Y-31086365D01*
X42323133Y-31043538D01*
X42323125Y-31043534D01*
X42204747Y-30994500D01*
X42204745Y-30994499D01*
X42204744Y-30994499D01*
X42079069Y-30969500D01*
X41950931Y-30969500D01*
X41950930Y-30969500D01*
X41888093Y-30981999D01*
X41825256Y-30994499D01*
X41825255Y-30994499D01*
X41825252Y-30994500D01*
X41706874Y-31043534D01*
X41706866Y-31043538D01*
X41600331Y-31114724D01*
X41600327Y-31114727D01*
X41509727Y-31205327D01*
X41509724Y-31205331D01*
X41438538Y-31311866D01*
X41438534Y-31311874D01*
X41389500Y-31430252D01*
X41389499Y-31430255D01*
X41389499Y-31430256D01*
X41364500Y-31555931D01*
X34025500Y-31555931D01*
X34000501Y-31430256D01*
X33951465Y-31311873D01*
X33951463Y-31311870D01*
X33951461Y-31311866D01*
X33899024Y-31233390D01*
X33880276Y-31205331D01*
X33789669Y-31114724D01*
X33747226Y-31086365D01*
X33683133Y-31043538D01*
X33683125Y-31043534D01*
X33564747Y-30994500D01*
X33564745Y-30994499D01*
X33564744Y-30994499D01*
X33439069Y-30969500D01*
X33310931Y-30969500D01*
X33310930Y-30969500D01*
X33248093Y-30981999D01*
X33185256Y-30994499D01*
X33185255Y-30994499D01*
X33185252Y-30994500D01*
X33066874Y-31043534D01*
X33066866Y-31043538D01*
X32960331Y-31114724D01*
X32960327Y-31114727D01*
X32869727Y-31205327D01*
X32869724Y-31205331D01*
X32798538Y-31311866D01*
X32798534Y-31311874D01*
X32749500Y-31430252D01*
X32749499Y-31430255D01*
X32749499Y-31430256D01*
X32724500Y-31555931D01*
X7268328Y-31555931D01*
X8876987Y-29947273D01*
X17599500Y-29947273D01*
X17599500Y-30052727D01*
X17626793Y-30154587D01*
X17626794Y-30154589D01*
X17626794Y-30154590D01*
X17677223Y-30241935D01*
X17679520Y-30245913D01*
X17754087Y-30320480D01*
X17845413Y-30373207D01*
X17947273Y-30400500D01*
X17947275Y-30400500D01*
X18052725Y-30400500D01*
X18052727Y-30400500D01*
X18154587Y-30373207D01*
X18245913Y-30320480D01*
X18320480Y-30245913D01*
X18373207Y-30154587D01*
X18400500Y-30052727D01*
X18400500Y-29986573D01*
X25185600Y-29986573D01*
X25185600Y-30092027D01*
X25202364Y-30154590D01*
X25212894Y-30193889D01*
X25212894Y-30193890D01*
X25240633Y-30241935D01*
X25265620Y-30285213D01*
X25340187Y-30359780D01*
X25431513Y-30412507D01*
X25533373Y-30439800D01*
X25533375Y-30439800D01*
X25638825Y-30439800D01*
X25638827Y-30439800D01*
X25740687Y-30412507D01*
X25758413Y-30402273D01*
X35274600Y-30402273D01*
X35274600Y-30507727D01*
X35301893Y-30609586D01*
X35301894Y-30609589D01*
X35301894Y-30609590D01*
X35313964Y-30630495D01*
X35354620Y-30700913D01*
X35429187Y-30775480D01*
X35520513Y-30828207D01*
X35622373Y-30855500D01*
X35622375Y-30855500D01*
X35727825Y-30855500D01*
X35727827Y-30855500D01*
X35829687Y-30828207D01*
X35921013Y-30775480D01*
X35995580Y-30700913D01*
X36048307Y-30609587D01*
X36075600Y-30507727D01*
X36075600Y-30402273D01*
X39314400Y-30402273D01*
X39314400Y-30507727D01*
X39341693Y-30609586D01*
X39341694Y-30609589D01*
X39341694Y-30609590D01*
X39353764Y-30630495D01*
X39394420Y-30700913D01*
X39468987Y-30775480D01*
X39560313Y-30828207D01*
X39662173Y-30855500D01*
X39662175Y-30855500D01*
X39767625Y-30855500D01*
X39767627Y-30855500D01*
X39869487Y-30828207D01*
X39960813Y-30775480D01*
X40035380Y-30700913D01*
X40088107Y-30609587D01*
X40101656Y-30559018D01*
X40134978Y-30507706D01*
X40192099Y-30485778D01*
X40246781Y-30498905D01*
X40289911Y-30523806D01*
X40289913Y-30523807D01*
X40391773Y-30551100D01*
X40391775Y-30551100D01*
X40497225Y-30551100D01*
X40497227Y-30551100D01*
X40599087Y-30523807D01*
X40690413Y-30471080D01*
X40764980Y-30396513D01*
X40817707Y-30305187D01*
X40845000Y-30203327D01*
X40845000Y-30097873D01*
X40817707Y-29996013D01*
X40814397Y-29990281D01*
X40814397Y-29990279D01*
X40789567Y-29947273D01*
X41599500Y-29947273D01*
X41599500Y-30052727D01*
X41626793Y-30154587D01*
X41626794Y-30154589D01*
X41626794Y-30154590D01*
X41677223Y-30241935D01*
X41679520Y-30245913D01*
X41754087Y-30320480D01*
X41845413Y-30373207D01*
X41947273Y-30400500D01*
X41947275Y-30400500D01*
X42052725Y-30400500D01*
X42052727Y-30400500D01*
X42154587Y-30373207D01*
X42245913Y-30320480D01*
X42320480Y-30245913D01*
X42373207Y-30154587D01*
X42400500Y-30052727D01*
X42400500Y-29947273D01*
X42373207Y-29845413D01*
X42364376Y-29830118D01*
X42320481Y-29754089D01*
X42320480Y-29754087D01*
X42245913Y-29679520D01*
X42222658Y-29666094D01*
X42154589Y-29626794D01*
X42154588Y-29626793D01*
X42154587Y-29626793D01*
X42052727Y-29599500D01*
X41947273Y-29599500D01*
X41845413Y-29626793D01*
X41845412Y-29626793D01*
X41845410Y-29626794D01*
X41845409Y-29626794D01*
X41754089Y-29679518D01*
X41679518Y-29754089D01*
X41626794Y-29845409D01*
X41626794Y-29845410D01*
X41626793Y-29845412D01*
X41626793Y-29845413D01*
X41599500Y-29947273D01*
X40789567Y-29947273D01*
X40764981Y-29904689D01*
X40764980Y-29904687D01*
X40690413Y-29830120D01*
X40626789Y-29793387D01*
X40599089Y-29777394D01*
X40599088Y-29777393D01*
X40599087Y-29777393D01*
X40497227Y-29750100D01*
X40391773Y-29750100D01*
X40289913Y-29777393D01*
X40289912Y-29777393D01*
X40289910Y-29777394D01*
X40289909Y-29777394D01*
X40198589Y-29830118D01*
X40124018Y-29904689D01*
X40071294Y-29996009D01*
X40071293Y-29996011D01*
X40057744Y-30046580D01*
X40024420Y-30097895D01*
X39967298Y-30119821D01*
X39912618Y-30106694D01*
X39869488Y-30081793D01*
X39835533Y-30072695D01*
X39767627Y-30054500D01*
X39662173Y-30054500D01*
X39560313Y-30081793D01*
X39560312Y-30081793D01*
X39560310Y-30081794D01*
X39560309Y-30081794D01*
X39468989Y-30134518D01*
X39394418Y-30209089D01*
X39341694Y-30300409D01*
X39341694Y-30300410D01*
X39341693Y-30300412D01*
X39341693Y-30300413D01*
X39314400Y-30402273D01*
X36075600Y-30402273D01*
X36048307Y-30300413D01*
X36039531Y-30285213D01*
X35995581Y-30209089D01*
X35995580Y-30209087D01*
X35921013Y-30134520D01*
X35857538Y-30097873D01*
X35829689Y-30081794D01*
X35829688Y-30081793D01*
X35829687Y-30081793D01*
X35727827Y-30054500D01*
X35622373Y-30054500D01*
X35520513Y-30081793D01*
X35520512Y-30081793D01*
X35520510Y-30081794D01*
X35520509Y-30081794D01*
X35429189Y-30134518D01*
X35354618Y-30209089D01*
X35301894Y-30300409D01*
X35301894Y-30300410D01*
X35301893Y-30300412D01*
X35301893Y-30300413D01*
X35274600Y-30402273D01*
X25758413Y-30402273D01*
X25832013Y-30359780D01*
X25906580Y-30285213D01*
X25959307Y-30193887D01*
X25986600Y-30092027D01*
X25986600Y-29986573D01*
X25959307Y-29884713D01*
X25936615Y-29845410D01*
X25906581Y-29793389D01*
X25906580Y-29793387D01*
X25832013Y-29718820D01*
X25785644Y-29692049D01*
X25740689Y-29666094D01*
X25740688Y-29666093D01*
X25740687Y-29666093D01*
X25638827Y-29638800D01*
X25533373Y-29638800D01*
X25431513Y-29666093D01*
X25431512Y-29666093D01*
X25431510Y-29666094D01*
X25431509Y-29666094D01*
X25340189Y-29718818D01*
X25265618Y-29793389D01*
X25212894Y-29884709D01*
X25212894Y-29884710D01*
X25212893Y-29884712D01*
X25212893Y-29884713D01*
X25185600Y-29986573D01*
X18400500Y-29986573D01*
X18400500Y-29947273D01*
X18373207Y-29845413D01*
X18364376Y-29830118D01*
X18320481Y-29754089D01*
X18320480Y-29754087D01*
X18245913Y-29679520D01*
X18222658Y-29666094D01*
X18154589Y-29626794D01*
X18154588Y-29626793D01*
X18154587Y-29626793D01*
X18052727Y-29599500D01*
X17947273Y-29599500D01*
X17845413Y-29626793D01*
X17845412Y-29626793D01*
X17845410Y-29626794D01*
X17845409Y-29626794D01*
X17754089Y-29679518D01*
X17679518Y-29754089D01*
X17626794Y-29845409D01*
X17626794Y-29845410D01*
X17626793Y-29845412D01*
X17626793Y-29845413D01*
X17599500Y-29947273D01*
X8876987Y-29947273D01*
X10074587Y-28749673D01*
X15685400Y-28749673D01*
X15685400Y-28855127D01*
X15712693Y-28956987D01*
X15712694Y-28956989D01*
X15712694Y-28956990D01*
X15765418Y-29048310D01*
X15765420Y-29048313D01*
X15839987Y-29122880D01*
X15931313Y-29175607D01*
X16033173Y-29202900D01*
X16033175Y-29202900D01*
X16138625Y-29202900D01*
X16138627Y-29202900D01*
X16240487Y-29175607D01*
X16331813Y-29122880D01*
X16406380Y-29048313D01*
X16459107Y-28956987D01*
X16486400Y-28855127D01*
X16486400Y-28749673D01*
X16459107Y-28647813D01*
X16452937Y-28637127D01*
X16406381Y-28556489D01*
X16406380Y-28556487D01*
X16331813Y-28481920D01*
X16240487Y-28429193D01*
X16138627Y-28401900D01*
X16033173Y-28401900D01*
X15931313Y-28429193D01*
X15931312Y-28429193D01*
X15931310Y-28429194D01*
X15931309Y-28429194D01*
X15839989Y-28481918D01*
X15765418Y-28556489D01*
X15712694Y-28647809D01*
X15712694Y-28647810D01*
X15712693Y-28647812D01*
X15712693Y-28647813D01*
X15685400Y-28749673D01*
X10074587Y-28749673D01*
X11805188Y-27019073D01*
X21017500Y-27019073D01*
X21017500Y-27124527D01*
X21044793Y-27226387D01*
X21044794Y-27226389D01*
X21044794Y-27226390D01*
X21097518Y-27317710D01*
X21097520Y-27317713D01*
X21172087Y-27392280D01*
X21263413Y-27445007D01*
X21365273Y-27472300D01*
X21365275Y-27472300D01*
X21470725Y-27472300D01*
X21470727Y-27472300D01*
X21572587Y-27445007D01*
X21663913Y-27392280D01*
X21738480Y-27317713D01*
X21791207Y-27226387D01*
X21818500Y-27124527D01*
X21818500Y-27019073D01*
X21791207Y-26917213D01*
X21783917Y-26904587D01*
X21738481Y-26825889D01*
X21738480Y-26825887D01*
X21663913Y-26751320D01*
X21572587Y-26698593D01*
X21470727Y-26671300D01*
X21365273Y-26671300D01*
X21263413Y-26698593D01*
X21263412Y-26698593D01*
X21263410Y-26698594D01*
X21263409Y-26698594D01*
X21172089Y-26751318D01*
X21097518Y-26825889D01*
X21044794Y-26917209D01*
X21044794Y-26917210D01*
X21044793Y-26917212D01*
X21044793Y-26917213D01*
X21017500Y-27019073D01*
X11805188Y-27019073D01*
X12624065Y-26200196D01*
X12678582Y-26172419D01*
X12694069Y-26171200D01*
X30393218Y-26171200D01*
X30451409Y-26190107D01*
X30487373Y-26239607D01*
X30487373Y-26300793D01*
X30451409Y-26350293D01*
X30418843Y-26365825D01*
X30377913Y-26376793D01*
X30377912Y-26376793D01*
X30377910Y-26376794D01*
X30377909Y-26376794D01*
X30286589Y-26429518D01*
X30212018Y-26504089D01*
X30159294Y-26595409D01*
X30159294Y-26595410D01*
X30159293Y-26595412D01*
X30159293Y-26595413D01*
X30132000Y-26697273D01*
X30132000Y-26802727D01*
X30148201Y-26863189D01*
X30159294Y-26904589D01*
X30159294Y-26904590D01*
X30201682Y-26978007D01*
X30212020Y-26995913D01*
X30286587Y-27070480D01*
X30377913Y-27123207D01*
X30479773Y-27150500D01*
X30479775Y-27150500D01*
X30585225Y-27150500D01*
X30585227Y-27150500D01*
X30687087Y-27123207D01*
X30778413Y-27070480D01*
X30852980Y-26995913D01*
X30905707Y-26904587D01*
X30933000Y-26802727D01*
X30933000Y-26697273D01*
X30905707Y-26595413D01*
X30881802Y-26554009D01*
X30852981Y-26504089D01*
X30852980Y-26504087D01*
X30778413Y-26429520D01*
X30687087Y-26376793D01*
X30646157Y-26365826D01*
X30594845Y-26332503D01*
X30572918Y-26275382D01*
X30588753Y-26216281D01*
X30636303Y-26177776D01*
X30671782Y-26171200D01*
X32793831Y-26171200D01*
X32852022Y-26190107D01*
X32887986Y-26239607D01*
X32887986Y-26300793D01*
X32852022Y-26350293D01*
X32843331Y-26355936D01*
X32787589Y-26388118D01*
X32713018Y-26462689D01*
X32660294Y-26554009D01*
X32660294Y-26554010D01*
X32660293Y-26554012D01*
X32660293Y-26554013D01*
X32633000Y-26655873D01*
X32633000Y-26761327D01*
X32660293Y-26863187D01*
X32660294Y-26863189D01*
X32660294Y-26863190D01*
X32706130Y-26942580D01*
X32713020Y-26954513D01*
X32787587Y-27029080D01*
X32878913Y-27081807D01*
X32980773Y-27109100D01*
X32980775Y-27109100D01*
X33086225Y-27109100D01*
X33086227Y-27109100D01*
X33188087Y-27081807D01*
X33279413Y-27029080D01*
X33299905Y-27008588D01*
X33320398Y-26988096D01*
X33374915Y-26960319D01*
X33390401Y-26959100D01*
X51093131Y-26959100D01*
X51151322Y-26978007D01*
X51163135Y-26988096D01*
X56591936Y-32416897D01*
X56591935Y-32416897D01*
X56662403Y-32487364D01*
X56754471Y-32525500D01*
X56754472Y-32525500D01*
X77245276Y-32525500D01*
X77303467Y-32544407D01*
X77336740Y-32586615D01*
X77354916Y-32630495D01*
X77437049Y-32753416D01*
X77541584Y-32857951D01*
X77664505Y-32940084D01*
X77801087Y-32996658D01*
X77946082Y-33025500D01*
X77946083Y-33025500D01*
X78643917Y-33025500D01*
X78643918Y-33025500D01*
X78788913Y-32996658D01*
X78925495Y-32940084D01*
X79048416Y-32857951D01*
X79152951Y-32753416D01*
X79235084Y-32630495D01*
X79291658Y-32493913D01*
X79320500Y-32348918D01*
X79320500Y-32201082D01*
X79291658Y-32056087D01*
X79235084Y-31919505D01*
X79152951Y-31796584D01*
X79048416Y-31692049D01*
X78925495Y-31609916D01*
X78925493Y-31609915D01*
X78788914Y-31553342D01*
X78643918Y-31524500D01*
X77946082Y-31524500D01*
X77946081Y-31524500D01*
X77801085Y-31553342D01*
X77664506Y-31609915D01*
X77541585Y-31692048D01*
X77437048Y-31796585D01*
X77354915Y-31919506D01*
X77336740Y-31963385D01*
X77297004Y-32009911D01*
X77245276Y-32024500D01*
X56949069Y-32024500D01*
X56890878Y-32005593D01*
X56879065Y-31995504D01*
X55973149Y-31089588D01*
X55909634Y-31026073D01*
X75532800Y-31026073D01*
X75532800Y-31131527D01*
X75552576Y-31205331D01*
X75560094Y-31233389D01*
X75560094Y-31233390D01*
X75605407Y-31311873D01*
X75612820Y-31324713D01*
X75687387Y-31399280D01*
X75778713Y-31452007D01*
X75880573Y-31479300D01*
X75880575Y-31479300D01*
X75986025Y-31479300D01*
X75986027Y-31479300D01*
X76087887Y-31452007D01*
X76179213Y-31399280D01*
X76253780Y-31324713D01*
X76306507Y-31233387D01*
X76333800Y-31131527D01*
X76333800Y-31026073D01*
X76306507Y-30924213D01*
X76253780Y-30832887D01*
X76179213Y-30758320D01*
X76087887Y-30705593D01*
X75986027Y-30678300D01*
X75880573Y-30678300D01*
X75778713Y-30705593D01*
X75778712Y-30705593D01*
X75778710Y-30705594D01*
X75778709Y-30705594D01*
X75687389Y-30758318D01*
X75612818Y-30832889D01*
X75560094Y-30924209D01*
X75560094Y-30924210D01*
X75560093Y-30924212D01*
X75560093Y-30924213D01*
X75532800Y-31026073D01*
X55909634Y-31026073D01*
X55434661Y-30551100D01*
X54830834Y-29947273D01*
X65599500Y-29947273D01*
X65599500Y-30052727D01*
X65626793Y-30154587D01*
X65626794Y-30154589D01*
X65626794Y-30154590D01*
X65677223Y-30241935D01*
X65679520Y-30245913D01*
X65754087Y-30320480D01*
X65845413Y-30373207D01*
X65947273Y-30400500D01*
X65947275Y-30400500D01*
X66052725Y-30400500D01*
X66052727Y-30400500D01*
X66154587Y-30373207D01*
X66245913Y-30320480D01*
X66320480Y-30245913D01*
X66346364Y-30201081D01*
X77269500Y-30201081D01*
X77269500Y-30348918D01*
X77298342Y-30493914D01*
X77346256Y-30609589D01*
X77354916Y-30630495D01*
X77437049Y-30753416D01*
X77541584Y-30857951D01*
X77664505Y-30940084D01*
X77801087Y-30996658D01*
X77946082Y-31025500D01*
X77946083Y-31025500D01*
X78643917Y-31025500D01*
X78643918Y-31025500D01*
X78788913Y-30996658D01*
X78925495Y-30940084D01*
X79048416Y-30857951D01*
X79152951Y-30753416D01*
X79235084Y-30630495D01*
X79291658Y-30493913D01*
X79320500Y-30348918D01*
X79320500Y-30201082D01*
X79291658Y-30056087D01*
X79235084Y-29919505D01*
X79152951Y-29796584D01*
X79048416Y-29692049D01*
X78925495Y-29609916D01*
X78925493Y-29609915D01*
X78788914Y-29553342D01*
X78643918Y-29524500D01*
X77946082Y-29524500D01*
X77946081Y-29524500D01*
X77801085Y-29553342D01*
X77664506Y-29609915D01*
X77541585Y-29692048D01*
X77437048Y-29796585D01*
X77354915Y-29919506D01*
X77298342Y-30056085D01*
X77269500Y-30201081D01*
X66346364Y-30201081D01*
X66373207Y-30154587D01*
X66400500Y-30052727D01*
X66400500Y-29947273D01*
X66373207Y-29845413D01*
X66364376Y-29830118D01*
X66320481Y-29754089D01*
X66320480Y-29754087D01*
X66245913Y-29679520D01*
X66222658Y-29666094D01*
X66154589Y-29626794D01*
X66154588Y-29626793D01*
X66154587Y-29626793D01*
X66052727Y-29599500D01*
X65947273Y-29599500D01*
X65845413Y-29626793D01*
X65845412Y-29626793D01*
X65845410Y-29626794D01*
X65845409Y-29626794D01*
X65754089Y-29679518D01*
X65679518Y-29754089D01*
X65626794Y-29845409D01*
X65626794Y-29845410D01*
X65626793Y-29845412D01*
X65626793Y-29845413D01*
X65599500Y-29947273D01*
X54830834Y-29947273D01*
X53705734Y-28822173D01*
X58132800Y-28822173D01*
X58132800Y-28927627D01*
X58160093Y-29029487D01*
X58160094Y-29029489D01*
X58160094Y-29029490D01*
X58170960Y-29048310D01*
X58212820Y-29120813D01*
X58287387Y-29195380D01*
X58378713Y-29248107D01*
X58480573Y-29275400D01*
X58480575Y-29275400D01*
X58586025Y-29275400D01*
X58586027Y-29275400D01*
X58687887Y-29248107D01*
X58779213Y-29195380D01*
X58853780Y-29120813D01*
X58906507Y-29029487D01*
X58933800Y-28927627D01*
X58933800Y-28822173D01*
X58906507Y-28720313D01*
X58853780Y-28628987D01*
X58779213Y-28554420D01*
X58739814Y-28531673D01*
X74531200Y-28531673D01*
X74531200Y-28637127D01*
X74558493Y-28738987D01*
X74558494Y-28738989D01*
X74558494Y-28738990D01*
X74606520Y-28822173D01*
X74611220Y-28830313D01*
X74685787Y-28904880D01*
X74777113Y-28957607D01*
X74878973Y-28984900D01*
X74878975Y-28984900D01*
X74984425Y-28984900D01*
X74984427Y-28984900D01*
X75086287Y-28957607D01*
X75177613Y-28904880D01*
X75252180Y-28830313D01*
X75304907Y-28738987D01*
X75332200Y-28637127D01*
X75332200Y-28531673D01*
X75304907Y-28429813D01*
X75288791Y-28401900D01*
X75252181Y-28338489D01*
X75252180Y-28338487D01*
X75177613Y-28263920D01*
X75086287Y-28211193D01*
X74984427Y-28183900D01*
X74878973Y-28183900D01*
X74777113Y-28211193D01*
X74777112Y-28211193D01*
X74777110Y-28211194D01*
X74777109Y-28211194D01*
X74685789Y-28263918D01*
X74611218Y-28338489D01*
X74558494Y-28429809D01*
X74558494Y-28429810D01*
X74558493Y-28429812D01*
X74558493Y-28429813D01*
X74531200Y-28531673D01*
X58739814Y-28531673D01*
X58687887Y-28501693D01*
X58586027Y-28474400D01*
X58480573Y-28474400D01*
X58378713Y-28501693D01*
X58378712Y-28501693D01*
X58378710Y-28501694D01*
X58378709Y-28501694D01*
X58287389Y-28554418D01*
X58212818Y-28628989D01*
X58160094Y-28720309D01*
X58160094Y-28720310D01*
X58160093Y-28720312D01*
X58160093Y-28720313D01*
X58132800Y-28822173D01*
X53705734Y-28822173D01*
X51379797Y-26496236D01*
X51379795Y-26496235D01*
X51379794Y-26496234D01*
X51287729Y-26458100D01*
X51287728Y-26458100D01*
X33390401Y-26458100D01*
X33389389Y-26457771D01*
X33388373Y-26458079D01*
X33382078Y-26455395D01*
X33332210Y-26439193D01*
X33330582Y-26437984D01*
X33325182Y-26433889D01*
X33279413Y-26388120D01*
X33218293Y-26352832D01*
X33213350Y-26349084D01*
X33199248Y-26328814D01*
X33182728Y-26310467D01*
X33182059Y-26304107D01*
X33178407Y-26298857D01*
X33178913Y-26274172D01*
X33176332Y-26249617D01*
X33179529Y-26244078D01*
X33179661Y-26237685D01*
X33194579Y-26218011D01*
X33206925Y-26196629D01*
X33212766Y-26194028D01*
X33216631Y-26188932D01*
X33240264Y-26181784D01*
X33262821Y-26171742D01*
X33273169Y-26171200D01*
X52261229Y-26171200D01*
X52319285Y-26147151D01*
X52353297Y-26133064D01*
X54639087Y-23847273D01*
X58699500Y-23847273D01*
X58699500Y-23952727D01*
X58712508Y-24001273D01*
X58726794Y-24054589D01*
X58726794Y-24054590D01*
X58764377Y-24119685D01*
X58779520Y-24145913D01*
X58854087Y-24220480D01*
X58945413Y-24273207D01*
X59047273Y-24300500D01*
X59047275Y-24300500D01*
X59152725Y-24300500D01*
X59152727Y-24300500D01*
X59254587Y-24273207D01*
X59345913Y-24220480D01*
X59390720Y-24175673D01*
X62469100Y-24175673D01*
X62469100Y-24281127D01*
X62493108Y-24370727D01*
X62496394Y-24382989D01*
X62496394Y-24382990D01*
X62548125Y-24472590D01*
X62549120Y-24474313D01*
X62623687Y-24548880D01*
X62715013Y-24601607D01*
X62816873Y-24628900D01*
X62816875Y-24628900D01*
X62922325Y-24628900D01*
X62922327Y-24628900D01*
X63024187Y-24601607D01*
X63115513Y-24548880D01*
X63136005Y-24528388D01*
X63156498Y-24507896D01*
X63211015Y-24480119D01*
X63226501Y-24478900D01*
X64728993Y-24478900D01*
X64787184Y-24497807D01*
X64823148Y-24547307D01*
X64824620Y-24603522D01*
X64799500Y-24697273D01*
X64799500Y-24802727D01*
X64822349Y-24888000D01*
X64826794Y-24904589D01*
X64826794Y-24904590D01*
X64853355Y-24950594D01*
X64879520Y-24995913D01*
X64954087Y-25070480D01*
X65045413Y-25123207D01*
X65147273Y-25150500D01*
X65147275Y-25150500D01*
X65252725Y-25150500D01*
X65252727Y-25150500D01*
X65354587Y-25123207D01*
X65445913Y-25070480D01*
X65520480Y-24995913D01*
X65573207Y-24904587D01*
X65600500Y-24802727D01*
X65600500Y-24697273D01*
X65575380Y-24603522D01*
X65578583Y-24542421D01*
X65617088Y-24494871D01*
X65671007Y-24478900D01*
X66028993Y-24478900D01*
X66087184Y-24497807D01*
X66123148Y-24547307D01*
X66124620Y-24603522D01*
X66099500Y-24697273D01*
X66099500Y-24802727D01*
X66122349Y-24888000D01*
X66126794Y-24904589D01*
X66126794Y-24904590D01*
X66153355Y-24950594D01*
X66179520Y-24995913D01*
X66254087Y-25070480D01*
X66345413Y-25123207D01*
X66447273Y-25150500D01*
X66447275Y-25150500D01*
X66552725Y-25150500D01*
X66552727Y-25150500D01*
X66654587Y-25123207D01*
X66745913Y-25070480D01*
X66820480Y-24995913D01*
X66873207Y-24904587D01*
X66900500Y-24802727D01*
X66900500Y-24697273D01*
X66875380Y-24603522D01*
X66878583Y-24542421D01*
X66917088Y-24494871D01*
X66971007Y-24478900D01*
X72763499Y-24478900D01*
X72821690Y-24497807D01*
X72833502Y-24507896D01*
X72865832Y-24540225D01*
X72874487Y-24548880D01*
X72965813Y-24601607D01*
X73067673Y-24628900D01*
X73067675Y-24628900D01*
X73173125Y-24628900D01*
X73173127Y-24628900D01*
X73274987Y-24601607D01*
X73366313Y-24548880D01*
X73440880Y-24474313D01*
X73493607Y-24382987D01*
X73520900Y-24281127D01*
X73520900Y-24175673D01*
X73493607Y-24073813D01*
X73492610Y-24072087D01*
X73440881Y-23982489D01*
X73440880Y-23982487D01*
X73366313Y-23907920D01*
X73351578Y-23899413D01*
X73274989Y-23855194D01*
X73274988Y-23855193D01*
X73274987Y-23855193D01*
X73173127Y-23827900D01*
X73067673Y-23827900D01*
X72965813Y-23855193D01*
X72965812Y-23855193D01*
X72965810Y-23855194D01*
X72965809Y-23855194D01*
X72874487Y-23907919D01*
X72833502Y-23948904D01*
X72778985Y-23976681D01*
X72763499Y-23977900D01*
X63226501Y-23977900D01*
X63168310Y-23958993D01*
X63156498Y-23948904D01*
X63115512Y-23907919D01*
X63024189Y-23855194D01*
X63024188Y-23855193D01*
X63024187Y-23855193D01*
X62922327Y-23827900D01*
X62816873Y-23827900D01*
X62715013Y-23855193D01*
X62715012Y-23855193D01*
X62715010Y-23855194D01*
X62715009Y-23855194D01*
X62623689Y-23907918D01*
X62549118Y-23982489D01*
X62496394Y-24073809D01*
X62496394Y-24073810D01*
X62496393Y-24073812D01*
X62496393Y-24073813D01*
X62469100Y-24175673D01*
X59390720Y-24175673D01*
X59420480Y-24145913D01*
X59473207Y-24054587D01*
X59500500Y-23952727D01*
X59500500Y-23847273D01*
X59473207Y-23745413D01*
X59466339Y-23733518D01*
X59420481Y-23654089D01*
X59420480Y-23654087D01*
X59345913Y-23579520D01*
X59254587Y-23526793D01*
X59152727Y-23499500D01*
X59047273Y-23499500D01*
X58945413Y-23526793D01*
X58945412Y-23526793D01*
X58945410Y-23526794D01*
X58945409Y-23526794D01*
X58854089Y-23579518D01*
X58779518Y-23654089D01*
X58726794Y-23745409D01*
X58726794Y-23745410D01*
X58726793Y-23745412D01*
X58726793Y-23745413D01*
X58699500Y-23847273D01*
X54639087Y-23847273D01*
X55989087Y-22497273D01*
X70299500Y-22497273D01*
X70299500Y-22602727D01*
X70326793Y-22704587D01*
X70326794Y-22704589D01*
X70326794Y-22704590D01*
X70345918Y-22737713D01*
X70379520Y-22795913D01*
X70454087Y-22870480D01*
X70545413Y-22923207D01*
X70647273Y-22950500D01*
X70647275Y-22950500D01*
X70752725Y-22950500D01*
X70752727Y-22950500D01*
X70854587Y-22923207D01*
X70945913Y-22870480D01*
X71020480Y-22795913D01*
X71073207Y-22704587D01*
X71100500Y-22602727D01*
X71100500Y-22497273D01*
X71073207Y-22395413D01*
X71020480Y-22304087D01*
X70945913Y-22229520D01*
X70854587Y-22176793D01*
X70752727Y-22149500D01*
X70647273Y-22149500D01*
X70545413Y-22176793D01*
X70545412Y-22176793D01*
X70545410Y-22176794D01*
X70545409Y-22176794D01*
X70454089Y-22229518D01*
X70379518Y-22304089D01*
X70326794Y-22395409D01*
X70326794Y-22395410D01*
X70326793Y-22395412D01*
X70326793Y-22395413D01*
X70299500Y-22497273D01*
X55989087Y-22497273D01*
X56784265Y-21702095D01*
X56838780Y-21674320D01*
X56899212Y-21683891D01*
X56940003Y-21722601D01*
X56985314Y-21801082D01*
X56989720Y-21808713D01*
X57064287Y-21883280D01*
X57155613Y-21936007D01*
X57257473Y-21963300D01*
X57257475Y-21963300D01*
X57362925Y-21963300D01*
X57362927Y-21963300D01*
X57464787Y-21936007D01*
X57556113Y-21883280D01*
X57630680Y-21808713D01*
X57635086Y-21801081D01*
X77269500Y-21801081D01*
X77269500Y-21948918D01*
X77298342Y-22093914D01*
X77349456Y-22217313D01*
X77354916Y-22230495D01*
X77437049Y-22353416D01*
X77541584Y-22457951D01*
X77664505Y-22540084D01*
X77801087Y-22596658D01*
X77946082Y-22625500D01*
X77946083Y-22625500D01*
X78643917Y-22625500D01*
X78643918Y-22625500D01*
X78788913Y-22596658D01*
X78925495Y-22540084D01*
X79048416Y-22457951D01*
X79152951Y-22353416D01*
X79235084Y-22230495D01*
X79291658Y-22093913D01*
X79320500Y-21948918D01*
X79320500Y-21801082D01*
X79291658Y-21656087D01*
X79235084Y-21519505D01*
X79152951Y-21396584D01*
X79048416Y-21292049D01*
X78925495Y-21209916D01*
X78925493Y-21209915D01*
X78788914Y-21153342D01*
X78643918Y-21124500D01*
X77946082Y-21124500D01*
X77946081Y-21124500D01*
X77801085Y-21153342D01*
X77664506Y-21209915D01*
X77541585Y-21292048D01*
X77437048Y-21396585D01*
X77354915Y-21519506D01*
X77298342Y-21656085D01*
X77269500Y-21801081D01*
X57635086Y-21801081D01*
X57683407Y-21717387D01*
X57710700Y-21615527D01*
X57710700Y-21557569D01*
X57729607Y-21499378D01*
X57739696Y-21487565D01*
X58101588Y-21125673D01*
X74519900Y-21125673D01*
X74519900Y-21231127D01*
X74547193Y-21332987D01*
X74547194Y-21332989D01*
X74547194Y-21332990D01*
X74583911Y-21396585D01*
X74599920Y-21424313D01*
X74674487Y-21498880D01*
X74765813Y-21551607D01*
X74867673Y-21578900D01*
X74867675Y-21578900D01*
X74973125Y-21578900D01*
X74973127Y-21578900D01*
X75074987Y-21551607D01*
X75166313Y-21498880D01*
X75240880Y-21424313D01*
X75293607Y-21332987D01*
X75320900Y-21231127D01*
X75320900Y-21125673D01*
X75293607Y-21023813D01*
X75276394Y-20994000D01*
X75240881Y-20932489D01*
X75240880Y-20932487D01*
X75166313Y-20857920D01*
X75074987Y-20805193D01*
X74973127Y-20777900D01*
X74867673Y-20777900D01*
X74765813Y-20805193D01*
X74765812Y-20805193D01*
X74765810Y-20805194D01*
X74765809Y-20805194D01*
X74674489Y-20857918D01*
X74599918Y-20932489D01*
X74547194Y-21023809D01*
X74547194Y-21023810D01*
X74547193Y-21023812D01*
X74547193Y-21023813D01*
X74519900Y-21125673D01*
X58101588Y-21125673D01*
X58927465Y-20299796D01*
X58981982Y-20272019D01*
X58997469Y-20270800D01*
X64714329Y-20270800D01*
X64760362Y-20251732D01*
X64806397Y-20232664D01*
X65237978Y-19801081D01*
X77269500Y-19801081D01*
X77269500Y-19948918D01*
X77298342Y-20093914D01*
X77354915Y-20230493D01*
X77354916Y-20230495D01*
X77437049Y-20353416D01*
X77541584Y-20457951D01*
X77664505Y-20540084D01*
X77801087Y-20596658D01*
X77946082Y-20625500D01*
X77946083Y-20625500D01*
X78643917Y-20625500D01*
X78643918Y-20625500D01*
X78788913Y-20596658D01*
X78925495Y-20540084D01*
X79048416Y-20457951D01*
X79152951Y-20353416D01*
X79235084Y-20230495D01*
X79291658Y-20093913D01*
X79320500Y-19948918D01*
X79320500Y-19801082D01*
X79291658Y-19656087D01*
X79235084Y-19519505D01*
X79152951Y-19396584D01*
X79048416Y-19292049D01*
X78925495Y-19209916D01*
X78925493Y-19209915D01*
X78788914Y-19153342D01*
X78643918Y-19124500D01*
X77946082Y-19124500D01*
X77946081Y-19124500D01*
X77801085Y-19153342D01*
X77664506Y-19209915D01*
X77541585Y-19292048D01*
X77437048Y-19396585D01*
X77354915Y-19519506D01*
X77298342Y-19656085D01*
X77269500Y-19801081D01*
X65237978Y-19801081D01*
X65273895Y-19765164D01*
X65273897Y-19765164D01*
X65344364Y-19694697D01*
X65382500Y-19602628D01*
X65382500Y-19374100D01*
X65401407Y-19315909D01*
X65411490Y-19304102D01*
X65452480Y-19263113D01*
X65505207Y-19171787D01*
X65532500Y-19069927D01*
X65532500Y-18964473D01*
X65505207Y-18862613D01*
X65472621Y-18806173D01*
X73794300Y-18806173D01*
X73794300Y-18911627D01*
X73821593Y-19013487D01*
X73821594Y-19013489D01*
X73821594Y-19013490D01*
X73874318Y-19104810D01*
X73874320Y-19104813D01*
X73948887Y-19179380D01*
X74040213Y-19232107D01*
X74142073Y-19259400D01*
X74142075Y-19259400D01*
X74247525Y-19259400D01*
X74247527Y-19259400D01*
X74349387Y-19232107D01*
X74440713Y-19179380D01*
X74515280Y-19104813D01*
X74568007Y-19013487D01*
X74595300Y-18911627D01*
X74595300Y-18806173D01*
X74568007Y-18704313D01*
X74550047Y-18673206D01*
X74517424Y-18616700D01*
X74515280Y-18612987D01*
X74440713Y-18538420D01*
X74368810Y-18496907D01*
X74349389Y-18485694D01*
X74349388Y-18485693D01*
X74349387Y-18485693D01*
X74247527Y-18458400D01*
X74142073Y-18458400D01*
X74040213Y-18485693D01*
X74040212Y-18485693D01*
X74040210Y-18485694D01*
X74040209Y-18485694D01*
X73948889Y-18538418D01*
X73874318Y-18612989D01*
X73821594Y-18704309D01*
X73821594Y-18704310D01*
X73821593Y-18704312D01*
X73821593Y-18704313D01*
X73794300Y-18806173D01*
X65472621Y-18806173D01*
X65452480Y-18771287D01*
X65377913Y-18696720D01*
X65337187Y-18673207D01*
X65286589Y-18643994D01*
X65286588Y-18643993D01*
X65286587Y-18643993D01*
X65184727Y-18616700D01*
X65079273Y-18616700D01*
X64977413Y-18643993D01*
X64977412Y-18643993D01*
X64977410Y-18643994D01*
X64977409Y-18643994D01*
X64886089Y-18696718D01*
X64811518Y-18771289D01*
X64758794Y-18862609D01*
X64758794Y-18862610D01*
X64758793Y-18862612D01*
X64758793Y-18862613D01*
X64745393Y-18912625D01*
X64731500Y-18964474D01*
X64731500Y-19040374D01*
X64712593Y-19098565D01*
X64663093Y-19134529D01*
X64601907Y-19134529D01*
X64595161Y-19132040D01*
X64594988Y-19131993D01*
X64594987Y-19131993D01*
X64493127Y-19104700D01*
X64387673Y-19104700D01*
X64285813Y-19131993D01*
X64285812Y-19131993D01*
X64285810Y-19131994D01*
X64285809Y-19131994D01*
X64194487Y-19184719D01*
X64153502Y-19225704D01*
X64098985Y-19253481D01*
X64083499Y-19254700D01*
X59451493Y-19254700D01*
X59393302Y-19235793D01*
X59357338Y-19186293D01*
X59357338Y-19125107D01*
X59365756Y-19106200D01*
X59365978Y-19105814D01*
X59365980Y-19105813D01*
X59418707Y-19014487D01*
X59446000Y-18912627D01*
X59446000Y-18807173D01*
X59418707Y-18705313D01*
X59418127Y-18704309D01*
X59365981Y-18613989D01*
X59365980Y-18613987D01*
X59291413Y-18539420D01*
X59289677Y-18538418D01*
X59200089Y-18486694D01*
X59200088Y-18486693D01*
X59200087Y-18486693D01*
X59098227Y-18459400D01*
X58992773Y-18459400D01*
X58890913Y-18486693D01*
X58890912Y-18486693D01*
X58890910Y-18486694D01*
X58890909Y-18486694D01*
X58799589Y-18539418D01*
X58725018Y-18613989D01*
X58672294Y-18705309D01*
X58672294Y-18705310D01*
X58672293Y-18705312D01*
X58672293Y-18705313D01*
X58645000Y-18807173D01*
X58645000Y-18912627D01*
X58672293Y-19014487D01*
X58725020Y-19105813D01*
X58725021Y-19105814D01*
X58725244Y-19106200D01*
X58737965Y-19166048D01*
X58713078Y-19221944D01*
X58660090Y-19252537D01*
X58639507Y-19254700D01*
X58577071Y-19254700D01*
X58485003Y-19292835D01*
X57796535Y-19981302D01*
X57742019Y-20009079D01*
X57681587Y-19999508D01*
X57640796Y-19960798D01*
X57586981Y-19867589D01*
X57586980Y-19867587D01*
X57512413Y-19793020D01*
X57488285Y-19779090D01*
X57421089Y-19740294D01*
X57421088Y-19740293D01*
X57421087Y-19740293D01*
X57319227Y-19713000D01*
X57319225Y-19713000D01*
X57261269Y-19713000D01*
X57203078Y-19694093D01*
X57191265Y-19684004D01*
X56759798Y-19252537D01*
X56321897Y-18814636D01*
X56321895Y-18814635D01*
X56321894Y-18814634D01*
X56229829Y-18776500D01*
X56229828Y-18776500D01*
X33615401Y-18776500D01*
X33557210Y-18757593D01*
X33545398Y-18747504D01*
X33504412Y-18706519D01*
X33413089Y-18653794D01*
X33413088Y-18653793D01*
X33413087Y-18653793D01*
X33311227Y-18626500D01*
X33298268Y-18626500D01*
X33240077Y-18607593D01*
X33204113Y-18558093D01*
X33204113Y-18496907D01*
X33228264Y-18457496D01*
X33438487Y-18247273D01*
X62299500Y-18247273D01*
X62299500Y-18352727D01*
X62326295Y-18452727D01*
X62326794Y-18454589D01*
X62326794Y-18454590D01*
X62379518Y-18545910D01*
X62379520Y-18545913D01*
X62454087Y-18620480D01*
X62545413Y-18673207D01*
X62647273Y-18700500D01*
X62647275Y-18700500D01*
X62752725Y-18700500D01*
X62752727Y-18700500D01*
X62854587Y-18673207D01*
X62885307Y-18655470D01*
X62945153Y-18642749D01*
X63001049Y-18667635D01*
X63004809Y-18671203D01*
X63030325Y-18696718D01*
X63054087Y-18720480D01*
X63145413Y-18773207D01*
X63247273Y-18800500D01*
X63247275Y-18800500D01*
X63352725Y-18800500D01*
X63352727Y-18800500D01*
X63454587Y-18773207D01*
X63545913Y-18720480D01*
X63620480Y-18645913D01*
X63673207Y-18554587D01*
X63700500Y-18452727D01*
X63700500Y-18347273D01*
X63673207Y-18245413D01*
X63620480Y-18154087D01*
X63545913Y-18079520D01*
X63519563Y-18064307D01*
X63454589Y-18026794D01*
X63454588Y-18026793D01*
X63454587Y-18026793D01*
X63352727Y-17999500D01*
X63247273Y-17999500D01*
X63145413Y-18026793D01*
X63145412Y-18026793D01*
X63145410Y-18026794D01*
X63114689Y-18044530D01*
X63054841Y-18057249D01*
X62998946Y-18032361D01*
X62995207Y-18028814D01*
X62945913Y-17979520D01*
X62938950Y-17975500D01*
X62854589Y-17926794D01*
X62854588Y-17926793D01*
X62854587Y-17926793D01*
X62752727Y-17899500D01*
X62647273Y-17899500D01*
X62545413Y-17926793D01*
X62545412Y-17926793D01*
X62545410Y-17926794D01*
X62545409Y-17926794D01*
X62454089Y-17979518D01*
X62379518Y-18054089D01*
X62326794Y-18145409D01*
X62326794Y-18145410D01*
X62326793Y-18145412D01*
X62326793Y-18145413D01*
X62299500Y-18247273D01*
X33438487Y-18247273D01*
X34284387Y-17401373D01*
X57491000Y-17401373D01*
X57491000Y-17506827D01*
X57517642Y-17606256D01*
X57518294Y-17608689D01*
X57518294Y-17608690D01*
X57571018Y-17700010D01*
X57571020Y-17700013D01*
X57645587Y-17774580D01*
X57736913Y-17827307D01*
X57838773Y-17854600D01*
X57838775Y-17854600D01*
X57944225Y-17854600D01*
X57944227Y-17854600D01*
X58046087Y-17827307D01*
X58137413Y-17774580D01*
X58211980Y-17700013D01*
X58247568Y-17638373D01*
X73794300Y-17638373D01*
X73794300Y-17743827D01*
X73821519Y-17845409D01*
X73821594Y-17845689D01*
X73821594Y-17845690D01*
X73868419Y-17926793D01*
X73874320Y-17937013D01*
X73948887Y-18011580D01*
X74040213Y-18064307D01*
X74142073Y-18091600D01*
X74142075Y-18091600D01*
X74247525Y-18091600D01*
X74247527Y-18091600D01*
X74349387Y-18064307D01*
X74440713Y-18011580D01*
X74515280Y-17937013D01*
X74568007Y-17845687D01*
X74579959Y-17801081D01*
X77269500Y-17801081D01*
X77269500Y-17948918D01*
X77298342Y-18093914D01*
X77323475Y-18154590D01*
X77354916Y-18230495D01*
X77437049Y-18353416D01*
X77541584Y-18457951D01*
X77664505Y-18540084D01*
X77801087Y-18596658D01*
X77946082Y-18625500D01*
X77946083Y-18625500D01*
X78643917Y-18625500D01*
X78643918Y-18625500D01*
X78788913Y-18596658D01*
X78925495Y-18540084D01*
X79048416Y-18457951D01*
X79152951Y-18353416D01*
X79235084Y-18230495D01*
X79291658Y-18093913D01*
X79320500Y-17948918D01*
X79320500Y-17801082D01*
X79291658Y-17656087D01*
X79235084Y-17519505D01*
X79152951Y-17396584D01*
X79048416Y-17292049D01*
X78925495Y-17209916D01*
X78905887Y-17201794D01*
X78788914Y-17153342D01*
X78643918Y-17124500D01*
X77946082Y-17124500D01*
X77946081Y-17124500D01*
X77801085Y-17153342D01*
X77664506Y-17209915D01*
X77541585Y-17292048D01*
X77437048Y-17396585D01*
X77354915Y-17519506D01*
X77298342Y-17656085D01*
X77269500Y-17801081D01*
X74579959Y-17801081D01*
X74595300Y-17743827D01*
X74595300Y-17638373D01*
X74568007Y-17536513D01*
X74558187Y-17519505D01*
X74515281Y-17445189D01*
X74515280Y-17445187D01*
X74440713Y-17370620D01*
X74349387Y-17317893D01*
X74247527Y-17290600D01*
X74142073Y-17290600D01*
X74040213Y-17317893D01*
X74040212Y-17317893D01*
X74040210Y-17317894D01*
X74040209Y-17317894D01*
X73948889Y-17370618D01*
X73874318Y-17445189D01*
X73821594Y-17536509D01*
X73821594Y-17536510D01*
X73821593Y-17536512D01*
X73821593Y-17536513D01*
X73794300Y-17638373D01*
X58247568Y-17638373D01*
X58264707Y-17608687D01*
X58264937Y-17607825D01*
X58265359Y-17606256D01*
X58275409Y-17568747D01*
X58292000Y-17506827D01*
X58292000Y-17401373D01*
X58264707Y-17299513D01*
X58211980Y-17208187D01*
X58137413Y-17133620D01*
X58104145Y-17114413D01*
X58046089Y-17080894D01*
X58046088Y-17080893D01*
X58046087Y-17080893D01*
X57944227Y-17053600D01*
X57838773Y-17053600D01*
X57736913Y-17080893D01*
X57736912Y-17080893D01*
X57736910Y-17080894D01*
X57736909Y-17080894D01*
X57645589Y-17133618D01*
X57571018Y-17208189D01*
X57518294Y-17299509D01*
X57518294Y-17299510D01*
X57518293Y-17299512D01*
X57518293Y-17299513D01*
X57491000Y-17401373D01*
X34284387Y-17401373D01*
X34869987Y-16815773D01*
X54771800Y-16815773D01*
X54771800Y-16921227D01*
X54799093Y-17023087D01*
X54799094Y-17023089D01*
X54799094Y-17023090D01*
X54851818Y-17114410D01*
X54851820Y-17114413D01*
X54926387Y-17188980D01*
X55017713Y-17241707D01*
X55119573Y-17269000D01*
X55119575Y-17269000D01*
X55225025Y-17269000D01*
X55225027Y-17269000D01*
X55326887Y-17241707D01*
X55418213Y-17188980D01*
X55492780Y-17114413D01*
X55545507Y-17023087D01*
X55572800Y-16921227D01*
X55572800Y-16863268D01*
X55591707Y-16805077D01*
X55601796Y-16793264D01*
X56830564Y-15564496D01*
X56885081Y-15536719D01*
X56900568Y-15535500D01*
X57440215Y-15535500D01*
X57498406Y-15554407D01*
X57518685Y-15574139D01*
X57659676Y-15757426D01*
X57703077Y-15813848D01*
X57708830Y-15827736D01*
X57730188Y-15849094D01*
X57734108Y-15854190D01*
X57734113Y-15854195D01*
X57739238Y-15860857D01*
X57748612Y-15873043D01*
X57750289Y-15874008D01*
X57770888Y-15889795D01*
X57772259Y-15891166D01*
X57772261Y-15891167D01*
X57772264Y-15891170D01*
X57794237Y-15900271D01*
X57805746Y-15905939D01*
X57826353Y-15917804D01*
X57826354Y-15917804D01*
X57826356Y-15917805D01*
X57828280Y-15918056D01*
X57828279Y-15918056D01*
X57841261Y-15919749D01*
X57855145Y-15925500D01*
X57885351Y-15925500D01*
X57905503Y-15928128D01*
X57915311Y-15929408D01*
X57915311Y-15929407D01*
X57915312Y-15929408D01*
X57917184Y-15928903D01*
X57942921Y-15925500D01*
X59829347Y-15925500D01*
X59887538Y-15944407D01*
X59923502Y-15993907D01*
X59923502Y-16055093D01*
X59920814Y-16062380D01*
X59920593Y-16062911D01*
X59912286Y-16093914D01*
X59893300Y-16164773D01*
X59893300Y-16270227D01*
X59918263Y-16363390D01*
X59920594Y-16372089D01*
X59920594Y-16372090D01*
X59973318Y-16463410D01*
X59973320Y-16463413D01*
X60047887Y-16537980D01*
X60139213Y-16590707D01*
X60241073Y-16618000D01*
X60241075Y-16618000D01*
X60346525Y-16618000D01*
X60346527Y-16618000D01*
X60448387Y-16590707D01*
X60539713Y-16537980D01*
X60614280Y-16463413D01*
X60667007Y-16372087D01*
X60694300Y-16270227D01*
X60694300Y-16164773D01*
X60692478Y-16157973D01*
X64528300Y-16157973D01*
X64528300Y-16263427D01*
X64555085Y-16363390D01*
X64555594Y-16365289D01*
X64555594Y-16365290D01*
X64575385Y-16399568D01*
X64608320Y-16456613D01*
X64682887Y-16531180D01*
X64774213Y-16583907D01*
X64876073Y-16611200D01*
X64876075Y-16611200D01*
X64981525Y-16611200D01*
X64981527Y-16611200D01*
X65083387Y-16583907D01*
X65174713Y-16531180D01*
X65249280Y-16456613D01*
X65302007Y-16365287D01*
X65329300Y-16263427D01*
X65329300Y-16157973D01*
X65302007Y-16056113D01*
X65300908Y-16054210D01*
X65249281Y-15964789D01*
X65249280Y-15964787D01*
X65174713Y-15890220D01*
X65171422Y-15888320D01*
X65083389Y-15837494D01*
X65083388Y-15837493D01*
X65083387Y-15837493D01*
X64981527Y-15810200D01*
X64876073Y-15810200D01*
X64774213Y-15837493D01*
X64774212Y-15837493D01*
X64774210Y-15837494D01*
X64774209Y-15837494D01*
X64682889Y-15890218D01*
X64608318Y-15964789D01*
X64555594Y-16056109D01*
X64555594Y-16056110D01*
X64555593Y-16056112D01*
X64555593Y-16056113D01*
X64528300Y-16157973D01*
X60692478Y-16157973D01*
X60667007Y-16062913D01*
X60627752Y-15994922D01*
X60627191Y-15992281D01*
X60625281Y-15990371D01*
X60620879Y-15962587D01*
X60615031Y-15935075D01*
X60616129Y-15932607D01*
X60615707Y-15929939D01*
X60628474Y-15904879D01*
X60639917Y-15879179D01*
X60643483Y-15875422D01*
X60645863Y-15873042D01*
X60658129Y-15860775D01*
X60658862Y-15860051D01*
X60962901Y-15563616D01*
X61017765Y-15536531D01*
X61032013Y-15535500D01*
X61195314Y-15535500D01*
X61233200Y-15543036D01*
X61273671Y-15559800D01*
X61273672Y-15559800D01*
X61373329Y-15559800D01*
X61454470Y-15526190D01*
X61465397Y-15521664D01*
X62043964Y-14943095D01*
X62098481Y-14915319D01*
X62113968Y-14914100D01*
X62171925Y-14914100D01*
X62171927Y-14914100D01*
X62273787Y-14886807D01*
X62365113Y-14834080D01*
X62389893Y-14809300D01*
X62406098Y-14793096D01*
X62460615Y-14765319D01*
X62476101Y-14764100D01*
X67545931Y-14764100D01*
X67604122Y-14783007D01*
X67615935Y-14793096D01*
X69152404Y-16329564D01*
X69180181Y-16384081D01*
X69181400Y-16399568D01*
X69181400Y-16457527D01*
X69208693Y-16559387D01*
X69208694Y-16559389D01*
X69208694Y-16559390D01*
X69246863Y-16625500D01*
X69261420Y-16650713D01*
X69335987Y-16725280D01*
X69427313Y-16778007D01*
X69529173Y-16805300D01*
X69529175Y-16805300D01*
X69634625Y-16805300D01*
X69634627Y-16805300D01*
X69736487Y-16778007D01*
X69827813Y-16725280D01*
X69902380Y-16650713D01*
X69955107Y-16559387D01*
X69982400Y-16457527D01*
X69982400Y-16352073D01*
X69955107Y-16250213D01*
X69902380Y-16158887D01*
X69827813Y-16084320D01*
X69790731Y-16062911D01*
X69736489Y-16031594D01*
X69736488Y-16031593D01*
X69736487Y-16031593D01*
X69634627Y-16004300D01*
X69634625Y-16004300D01*
X69576668Y-16004300D01*
X69518477Y-15985393D01*
X69506664Y-15975304D01*
X69332441Y-15801081D01*
X77269500Y-15801081D01*
X77269500Y-15948918D01*
X77298342Y-16093914D01*
X77354915Y-16230493D01*
X77354916Y-16230495D01*
X77437049Y-16353416D01*
X77541584Y-16457951D01*
X77664505Y-16540084D01*
X77801087Y-16596658D01*
X77946082Y-16625500D01*
X77946083Y-16625500D01*
X78643917Y-16625500D01*
X78643918Y-16625500D01*
X78788913Y-16596658D01*
X78925495Y-16540084D01*
X79048416Y-16457951D01*
X79152951Y-16353416D01*
X79235084Y-16230495D01*
X79291658Y-16093913D01*
X79320500Y-15948918D01*
X79320500Y-15801082D01*
X79291658Y-15656087D01*
X79235084Y-15519505D01*
X79152951Y-15396584D01*
X79048416Y-15292049D01*
X78925495Y-15209916D01*
X78921835Y-15208400D01*
X78788914Y-15153342D01*
X78643918Y-15124500D01*
X77946082Y-15124500D01*
X77946081Y-15124500D01*
X77801085Y-15153342D01*
X77664506Y-15209915D01*
X77541585Y-15292048D01*
X77437048Y-15396585D01*
X77354915Y-15519506D01*
X77298342Y-15656085D01*
X77269500Y-15801081D01*
X69332441Y-15801081D01*
X68850233Y-15318873D01*
X72719900Y-15318873D01*
X72719900Y-15424327D01*
X72747193Y-15526187D01*
X72747194Y-15526189D01*
X72747194Y-15526190D01*
X72774878Y-15574139D01*
X72799920Y-15617513D01*
X72874487Y-15692080D01*
X72965813Y-15744807D01*
X73067673Y-15772100D01*
X73067675Y-15772100D01*
X73173125Y-15772100D01*
X73173127Y-15772100D01*
X73274987Y-15744807D01*
X73366313Y-15692080D01*
X73440880Y-15617513D01*
X73493607Y-15526187D01*
X73520900Y-15424327D01*
X73520900Y-15318873D01*
X73493607Y-15217013D01*
X73488634Y-15208400D01*
X73440881Y-15125689D01*
X73440880Y-15125687D01*
X73366313Y-15051120D01*
X73274987Y-14998393D01*
X73173127Y-14971100D01*
X73067673Y-14971100D01*
X72965813Y-14998393D01*
X72965812Y-14998393D01*
X72965810Y-14998394D01*
X72965809Y-14998394D01*
X72874489Y-15051118D01*
X72799918Y-15125689D01*
X72747194Y-15217009D01*
X72747194Y-15217010D01*
X72747193Y-15217012D01*
X72747193Y-15217013D01*
X72719900Y-15318873D01*
X68850233Y-15318873D01*
X68684702Y-15153342D01*
X67832597Y-14301236D01*
X67832595Y-14301235D01*
X67832594Y-14301234D01*
X67740529Y-14263100D01*
X67740528Y-14263100D01*
X62476101Y-14263100D01*
X62417910Y-14244193D01*
X62406098Y-14234104D01*
X62365112Y-14193119D01*
X62273789Y-14140394D01*
X62273788Y-14140393D01*
X62273787Y-14140393D01*
X62171927Y-14113100D01*
X62066473Y-14113100D01*
X61964613Y-14140393D01*
X61964612Y-14140393D01*
X61964610Y-14140394D01*
X61964609Y-14140394D01*
X61873289Y-14193118D01*
X61798718Y-14267689D01*
X61745994Y-14359009D01*
X61745994Y-14359010D01*
X61745993Y-14359012D01*
X61745993Y-14359013D01*
X61723365Y-14443465D01*
X61718700Y-14460874D01*
X61718700Y-14518831D01*
X61699793Y-14577022D01*
X61689704Y-14588835D01*
X61223035Y-15055504D01*
X61168518Y-15083281D01*
X61153031Y-15084500D01*
X60901471Y-15084500D01*
X60858003Y-15083950D01*
X60856626Y-15084500D01*
X60855144Y-15084500D01*
X60815583Y-15100884D01*
X60815584Y-15100885D01*
X60814931Y-15101155D01*
X60774695Y-15117229D01*
X60773635Y-15118261D01*
X60772264Y-15118830D01*
X60772255Y-15118838D01*
X60772254Y-15118839D01*
X60741948Y-15149144D01*
X60741058Y-15150023D01*
X60437099Y-15446384D01*
X60382235Y-15473469D01*
X60367987Y-15474500D01*
X58996580Y-15474500D01*
X58938389Y-15455593D01*
X58902425Y-15406093D01*
X58902425Y-15344907D01*
X58910841Y-15326005D01*
X58923207Y-15304587D01*
X58950500Y-15202727D01*
X58950500Y-15097273D01*
X58923207Y-14995413D01*
X58870480Y-14904087D01*
X58795913Y-14829520D01*
X58713614Y-14782005D01*
X58704589Y-14776794D01*
X58704588Y-14776793D01*
X58704587Y-14776793D01*
X58602727Y-14749500D01*
X58497273Y-14749500D01*
X58395413Y-14776793D01*
X58395412Y-14776793D01*
X58395410Y-14776794D01*
X58395409Y-14776794D01*
X58304089Y-14829518D01*
X58229518Y-14904089D01*
X58176794Y-14995409D01*
X58176794Y-14995410D01*
X58176793Y-14995412D01*
X58176793Y-14995413D01*
X58149500Y-15097273D01*
X58149500Y-15202727D01*
X58176793Y-15304587D01*
X58189156Y-15326001D01*
X58191355Y-15336346D01*
X58197575Y-15344907D01*
X58197575Y-15365604D01*
X58201878Y-15385847D01*
X58197575Y-15395511D01*
X58197575Y-15406093D01*
X58185408Y-15422838D01*
X58176992Y-15441743D01*
X58167830Y-15447032D01*
X58161611Y-15455593D01*
X58141926Y-15461988D01*
X58124005Y-15472336D01*
X58103420Y-15474500D01*
X58059785Y-15474500D01*
X58001594Y-15455593D01*
X57981315Y-15435861D01*
X57804906Y-15206530D01*
X57791913Y-15184057D01*
X57791170Y-15182264D01*
X57774346Y-15165440D01*
X57774346Y-15165439D01*
X57769801Y-15160894D01*
X57751388Y-15136957D01*
X57738364Y-15129458D01*
X57727736Y-15118830D01*
X57727734Y-15118829D01*
X57727733Y-15118828D01*
X57705765Y-15109729D01*
X57705764Y-15109729D01*
X57699824Y-15107268D01*
X57673644Y-15092195D01*
X57658738Y-15090250D01*
X57646651Y-15085243D01*
X57646650Y-15085243D01*
X57644856Y-15084500D01*
X57644855Y-15084500D01*
X57621076Y-15084500D01*
X57608271Y-15083668D01*
X57604980Y-15083238D01*
X57584689Y-15080591D01*
X57583300Y-15080965D01*
X57582815Y-15081096D01*
X57557078Y-15084500D01*
X56863068Y-15084500D01*
X56825183Y-15076964D01*
X56781328Y-15058799D01*
X56681672Y-15058799D01*
X56589604Y-15096936D01*
X55247535Y-16439004D01*
X55193018Y-16466781D01*
X55177531Y-16468000D01*
X55119573Y-16468000D01*
X55017713Y-16495293D01*
X55017712Y-16495293D01*
X55017710Y-16495294D01*
X55017709Y-16495294D01*
X54926389Y-16548018D01*
X54851818Y-16622589D01*
X54799094Y-16713909D01*
X54799094Y-16713910D01*
X54799093Y-16713912D01*
X54799093Y-16713913D01*
X54771800Y-16815773D01*
X34869987Y-16815773D01*
X37175164Y-14510596D01*
X37229681Y-14482819D01*
X37245168Y-14481600D01*
X58375429Y-14481600D01*
X58433485Y-14457551D01*
X58467497Y-14443464D01*
X59330887Y-13580073D01*
X66015500Y-13580073D01*
X66015500Y-13685527D01*
X66042793Y-13787387D01*
X66042794Y-13787389D01*
X66042794Y-13787390D01*
X66095518Y-13878710D01*
X66095520Y-13878713D01*
X66170087Y-13953280D01*
X66261413Y-14006007D01*
X66363273Y-14033300D01*
X66363275Y-14033300D01*
X66468725Y-14033300D01*
X66468727Y-14033300D01*
X66570587Y-14006007D01*
X66661913Y-13953280D01*
X66736480Y-13878713D01*
X66781301Y-13801081D01*
X77269500Y-13801081D01*
X77269500Y-13948918D01*
X77298342Y-14093914D01*
X77354915Y-14230493D01*
X77354916Y-14230495D01*
X77437049Y-14353416D01*
X77541584Y-14457951D01*
X77664505Y-14540084D01*
X77801087Y-14596658D01*
X77946082Y-14625500D01*
X77946083Y-14625500D01*
X78643917Y-14625500D01*
X78643918Y-14625500D01*
X78788913Y-14596658D01*
X78925495Y-14540084D01*
X79048416Y-14457951D01*
X79152951Y-14353416D01*
X79235084Y-14230495D01*
X79291658Y-14093913D01*
X79320500Y-13948918D01*
X79320500Y-13801082D01*
X79291658Y-13656087D01*
X79235084Y-13519505D01*
X79152951Y-13396584D01*
X79048416Y-13292049D01*
X78925495Y-13209916D01*
X78925493Y-13209915D01*
X78788914Y-13153342D01*
X78643918Y-13124500D01*
X77946082Y-13124500D01*
X77946081Y-13124500D01*
X77801085Y-13153342D01*
X77664506Y-13209915D01*
X77541585Y-13292048D01*
X77437048Y-13396585D01*
X77354915Y-13519506D01*
X77298342Y-13656085D01*
X77269500Y-13801081D01*
X66781301Y-13801081D01*
X66789207Y-13787387D01*
X66816500Y-13685527D01*
X66816500Y-13580073D01*
X66789207Y-13478213D01*
X66779723Y-13461787D01*
X66742079Y-13396585D01*
X66736480Y-13386887D01*
X66661913Y-13312320D01*
X66575426Y-13262387D01*
X66570589Y-13259594D01*
X66570588Y-13259593D01*
X66570587Y-13259593D01*
X66551479Y-13254473D01*
X69778500Y-13254473D01*
X69778500Y-13359927D01*
X69804440Y-13456737D01*
X69805794Y-13461789D01*
X69805794Y-13461790D01*
X69829922Y-13503580D01*
X69858520Y-13553113D01*
X69933087Y-13627680D01*
X70024413Y-13680407D01*
X70126273Y-13707700D01*
X70126275Y-13707700D01*
X70231725Y-13707700D01*
X70231727Y-13707700D01*
X70333587Y-13680407D01*
X70424913Y-13627680D01*
X70499480Y-13553113D01*
X70552207Y-13461787D01*
X70579500Y-13359927D01*
X70579500Y-13254473D01*
X70552207Y-13152613D01*
X70542092Y-13135094D01*
X70499481Y-13061289D01*
X70499480Y-13061287D01*
X70424913Y-12986720D01*
X70333587Y-12933993D01*
X70231727Y-12906700D01*
X70126273Y-12906700D01*
X70024413Y-12933993D01*
X70024412Y-12933993D01*
X70024410Y-12933994D01*
X70024409Y-12933994D01*
X69933089Y-12986718D01*
X69858518Y-13061289D01*
X69805794Y-13152609D01*
X69805794Y-13152610D01*
X69805793Y-13152612D01*
X69805793Y-13152613D01*
X69778500Y-13254473D01*
X66551479Y-13254473D01*
X66468727Y-13232300D01*
X66363273Y-13232300D01*
X66261413Y-13259593D01*
X66261412Y-13259593D01*
X66261410Y-13259594D01*
X66261409Y-13259594D01*
X66170089Y-13312318D01*
X66095518Y-13386889D01*
X66042794Y-13478209D01*
X66042794Y-13478210D01*
X66042793Y-13478212D01*
X66042793Y-13478213D01*
X66015500Y-13580073D01*
X59330887Y-13580073D01*
X60828364Y-12082595D01*
X60882881Y-12054819D01*
X60898368Y-12053600D01*
X74448563Y-12053600D01*
X74506754Y-12072507D01*
X74542718Y-12122007D01*
X74544189Y-12178220D01*
X74519900Y-12268873D01*
X74519900Y-12374327D01*
X74542307Y-12457951D01*
X74547194Y-12476189D01*
X74547194Y-12476190D01*
X74599918Y-12567510D01*
X74599920Y-12567513D01*
X74674487Y-12642080D01*
X74765813Y-12694807D01*
X74867673Y-12722100D01*
X74867675Y-12722100D01*
X74973125Y-12722100D01*
X74973127Y-12722100D01*
X75074987Y-12694807D01*
X75166313Y-12642080D01*
X75240880Y-12567513D01*
X75293607Y-12476187D01*
X75320900Y-12374327D01*
X75320900Y-12268873D01*
X75296610Y-12178220D01*
X75299813Y-12117121D01*
X75338318Y-12069572D01*
X75392237Y-12053600D01*
X76951632Y-12053600D01*
X77009823Y-12072507D01*
X77021629Y-12082590D01*
X77026403Y-12087364D01*
X77026404Y-12087364D01*
X77026405Y-12087365D01*
X77118471Y-12125500D01*
X77118472Y-12125500D01*
X77218128Y-12125500D01*
X77245276Y-12125500D01*
X77303467Y-12144407D01*
X77336740Y-12186615D01*
X77350768Y-12220481D01*
X77354916Y-12230495D01*
X77437049Y-12353416D01*
X77541584Y-12457951D01*
X77664505Y-12540084D01*
X77801087Y-12596658D01*
X77946082Y-12625500D01*
X77946083Y-12625500D01*
X78643917Y-12625500D01*
X78643918Y-12625500D01*
X78788913Y-12596658D01*
X78925495Y-12540084D01*
X79048416Y-12457951D01*
X79152951Y-12353416D01*
X79235084Y-12230495D01*
X79291658Y-12093913D01*
X79320500Y-11948918D01*
X79320500Y-11801082D01*
X79291658Y-11656087D01*
X79235084Y-11519505D01*
X79152951Y-11396584D01*
X79048416Y-11292049D01*
X78925495Y-11209916D01*
X78920360Y-11207789D01*
X78788914Y-11153342D01*
X78643918Y-11124500D01*
X77946082Y-11124500D01*
X77946081Y-11124500D01*
X77801085Y-11153342D01*
X77664506Y-11209915D01*
X77541585Y-11292048D01*
X77437048Y-11396585D01*
X77354915Y-11519505D01*
X77350538Y-11530073D01*
X77310801Y-11576597D01*
X77251306Y-11590880D01*
X77221190Y-11583649D01*
X77146230Y-11552600D01*
X77146228Y-11552600D01*
X60814959Y-11552600D01*
X60814951Y-11552599D01*
X60803428Y-11552599D01*
X60703773Y-11552599D01*
X60649839Y-11574939D01*
X60611703Y-11590734D01*
X60541235Y-11661202D01*
X60541236Y-11661203D01*
X58250835Y-13951604D01*
X58196318Y-13979381D01*
X58180831Y-13980600D01*
X57859400Y-13980600D01*
X57801209Y-13961693D01*
X57765245Y-13912193D01*
X57765245Y-13851007D01*
X57789394Y-13811598D01*
X57846780Y-13754213D01*
X57899507Y-13662887D01*
X57926800Y-13561027D01*
X57926800Y-13455573D01*
X57899507Y-13353713D01*
X57885637Y-13329690D01*
X57846781Y-13262389D01*
X57846780Y-13262387D01*
X57772213Y-13187820D01*
X57712495Y-13153342D01*
X57680889Y-13135094D01*
X57680888Y-13135093D01*
X57680887Y-13135093D01*
X57579027Y-13107800D01*
X57473573Y-13107800D01*
X57371713Y-13135093D01*
X57371712Y-13135093D01*
X57371710Y-13135094D01*
X57371709Y-13135094D01*
X57280389Y-13187818D01*
X57205818Y-13262389D01*
X57153094Y-13353709D01*
X57153094Y-13353710D01*
X57153093Y-13353712D01*
X57153093Y-13353713D01*
X57144205Y-13386887D01*
X57139238Y-13405423D01*
X57105914Y-13456737D01*
X57048793Y-13478664D01*
X57043611Y-13478800D01*
X32469269Y-13478800D01*
X32411078Y-13459893D01*
X32399265Y-13449804D01*
X32199796Y-13250335D01*
X32172019Y-13195818D01*
X32170800Y-13180331D01*
X32170800Y-13122374D01*
X32166895Y-13107800D01*
X32143507Y-13020513D01*
X32123995Y-12986718D01*
X32090781Y-12929189D01*
X32090780Y-12929187D01*
X32016213Y-12854620D01*
X31924887Y-12801893D01*
X31823027Y-12774600D01*
X31717573Y-12774600D01*
X31615713Y-12801893D01*
X31615712Y-12801893D01*
X31615710Y-12801894D01*
X31615709Y-12801894D01*
X31524389Y-12854618D01*
X31449818Y-12929189D01*
X31397094Y-13020509D01*
X31397094Y-13020510D01*
X31397093Y-13020512D01*
X31397093Y-13020513D01*
X31369800Y-13122373D01*
X31369800Y-13227827D01*
X31392440Y-13312320D01*
X31397094Y-13329689D01*
X31397094Y-13329690D01*
X31440819Y-13405423D01*
X31449820Y-13421013D01*
X31524387Y-13495580D01*
X31615713Y-13548307D01*
X31717573Y-13575600D01*
X31775531Y-13575600D01*
X31833722Y-13594507D01*
X31845535Y-13604596D01*
X32112136Y-13871197D01*
X32112135Y-13871197D01*
X32182603Y-13941664D01*
X32274671Y-13979800D01*
X36758431Y-13979800D01*
X36816622Y-13998707D01*
X36852586Y-14048207D01*
X36852586Y-14109393D01*
X36828435Y-14148804D01*
X31916235Y-19061004D01*
X31861718Y-19088781D01*
X31846231Y-19090000D01*
X31788273Y-19090000D01*
X31686413Y-19117293D01*
X31686412Y-19117293D01*
X31686410Y-19117294D01*
X31686409Y-19117294D01*
X31595089Y-19170018D01*
X31520518Y-19244589D01*
X31467794Y-19335909D01*
X31467794Y-19335910D01*
X31467793Y-19335912D01*
X31467793Y-19335913D01*
X31440500Y-19437773D01*
X31440500Y-19543227D01*
X31467793Y-19645087D01*
X31467794Y-19645089D01*
X31467794Y-19645090D01*
X31514630Y-19726212D01*
X31520520Y-19736413D01*
X31595087Y-19810980D01*
X31686413Y-19863707D01*
X31788273Y-19891000D01*
X31788275Y-19891000D01*
X31893725Y-19891000D01*
X31893727Y-19891000D01*
X31995587Y-19863707D01*
X32086913Y-19810980D01*
X32161480Y-19736413D01*
X32214207Y-19645087D01*
X32241500Y-19543227D01*
X32241500Y-19485268D01*
X32260407Y-19427077D01*
X32270496Y-19415264D01*
X32688996Y-18996764D01*
X32743513Y-18968987D01*
X32803945Y-18978558D01*
X32847210Y-19021823D01*
X32858000Y-19066768D01*
X32858000Y-19079727D01*
X32882668Y-19171789D01*
X32885294Y-19181589D01*
X32885294Y-19181590D01*
X32930153Y-19259287D01*
X32938020Y-19272913D01*
X33012587Y-19347480D01*
X33103913Y-19400207D01*
X33205773Y-19427500D01*
X33205775Y-19427500D01*
X33311225Y-19427500D01*
X33311227Y-19427500D01*
X33413087Y-19400207D01*
X33504413Y-19347480D01*
X33524905Y-19326988D01*
X33545398Y-19306496D01*
X33599915Y-19278719D01*
X33615401Y-19277500D01*
X56035231Y-19277500D01*
X56093422Y-19296407D01*
X56105235Y-19306496D01*
X56837004Y-20038265D01*
X56864781Y-20092782D01*
X56866000Y-20108269D01*
X56866000Y-20166227D01*
X56883802Y-20232664D01*
X56893294Y-20268089D01*
X56893294Y-20268090D01*
X56946018Y-20359410D01*
X56946020Y-20359413D01*
X57020587Y-20433980D01*
X57020589Y-20433981D01*
X57113798Y-20487796D01*
X57154739Y-20533265D01*
X57161135Y-20594116D01*
X57134302Y-20643536D01*
X52136635Y-25641204D01*
X52082118Y-25668981D01*
X52066631Y-25670200D01*
X35717436Y-25670200D01*
X35659245Y-25651293D01*
X35623281Y-25601793D01*
X35623281Y-25540607D01*
X35631697Y-25521705D01*
X35656707Y-25478387D01*
X35684000Y-25376527D01*
X35684000Y-25271073D01*
X35656707Y-25169213D01*
X35630145Y-25123207D01*
X35603981Y-25077889D01*
X35603980Y-25077887D01*
X35529413Y-25003320D01*
X35516578Y-24995910D01*
X35438089Y-24950594D01*
X35438088Y-24950593D01*
X35438087Y-24950593D01*
X35336227Y-24923300D01*
X35230773Y-24923300D01*
X35128913Y-24950593D01*
X35128912Y-24950593D01*
X35128910Y-24950594D01*
X35128909Y-24950594D01*
X35037589Y-25003318D01*
X34963018Y-25077889D01*
X34910294Y-25169209D01*
X34910294Y-25169210D01*
X34910293Y-25169212D01*
X34910293Y-25169213D01*
X34883000Y-25271073D01*
X34883000Y-25376527D01*
X34910293Y-25478387D01*
X34935300Y-25521701D01*
X34948022Y-25581548D01*
X34923136Y-25637443D01*
X34870148Y-25668036D01*
X34849564Y-25670200D01*
X12499471Y-25670200D01*
X12407405Y-25708334D01*
X5941122Y-32174615D01*
X5886605Y-32202392D01*
X5826173Y-32192821D01*
X5770303Y-32164353D01*
X5676521Y-32149500D01*
X4913478Y-32149500D01*
X4913476Y-32149501D01*
X4819700Y-32164352D01*
X4819695Y-32164354D01*
X4706659Y-32221949D01*
X4616949Y-32311659D01*
X4559354Y-32424695D01*
X4544500Y-32518478D01*
X3942694Y-32518478D01*
X3880030Y-32424696D01*
X3877951Y-32421584D01*
X3773416Y-32317049D01*
X3650495Y-32234916D01*
X3631155Y-32226905D01*
X3513914Y-32178342D01*
X3368918Y-32149500D01*
X3221082Y-32149500D01*
X3221081Y-32149500D01*
X3076085Y-32178342D01*
X2939506Y-32234915D01*
X2816585Y-32317048D01*
X2712048Y-32421585D01*
X2629915Y-32544506D01*
X2573342Y-32681085D01*
X2544500Y-32826081D01*
X300500Y-32826081D01*
X300500Y-29947273D01*
X5599500Y-29947273D01*
X5599500Y-30052727D01*
X5626793Y-30154587D01*
X5626794Y-30154589D01*
X5626794Y-30154590D01*
X5677223Y-30241935D01*
X5679520Y-30245913D01*
X5754087Y-30320480D01*
X5845413Y-30373207D01*
X5947273Y-30400500D01*
X5947275Y-30400500D01*
X6052725Y-30400500D01*
X6052727Y-30400500D01*
X6154587Y-30373207D01*
X6245913Y-30320480D01*
X6320480Y-30245913D01*
X6373207Y-30154587D01*
X6400500Y-30052727D01*
X6400500Y-29947273D01*
X6373207Y-29845413D01*
X6364376Y-29830118D01*
X6320481Y-29754089D01*
X6320480Y-29754087D01*
X6245913Y-29679520D01*
X6222658Y-29666094D01*
X6154589Y-29626794D01*
X6154588Y-29626793D01*
X6154587Y-29626793D01*
X6052727Y-29599500D01*
X5947273Y-29599500D01*
X5845413Y-29626793D01*
X5845412Y-29626793D01*
X5845410Y-29626794D01*
X5845409Y-29626794D01*
X5754089Y-29679518D01*
X5679518Y-29754089D01*
X5626794Y-29845409D01*
X5626794Y-29845410D01*
X5626793Y-29845412D01*
X5626793Y-29845413D01*
X5599500Y-29947273D01*
X300500Y-29947273D01*
X300500Y-24265273D01*
X26074600Y-24265273D01*
X26074600Y-24370727D01*
X26098993Y-24461763D01*
X26101894Y-24472589D01*
X26101894Y-24472590D01*
X26145941Y-24548881D01*
X26154620Y-24563913D01*
X26229187Y-24638480D01*
X26320513Y-24691207D01*
X26422373Y-24718500D01*
X26422375Y-24718500D01*
X26527825Y-24718500D01*
X26527827Y-24718500D01*
X26629687Y-24691207D01*
X26721013Y-24638480D01*
X26795580Y-24563913D01*
X26836018Y-24493873D01*
X31371300Y-24493873D01*
X31371300Y-24599327D01*
X31397545Y-24697274D01*
X31398594Y-24701189D01*
X31398594Y-24701190D01*
X31451318Y-24792510D01*
X31451320Y-24792513D01*
X31525887Y-24867080D01*
X31617213Y-24919807D01*
X31719073Y-24947100D01*
X31719075Y-24947100D01*
X31824525Y-24947100D01*
X31824527Y-24947100D01*
X31926387Y-24919807D01*
X32017713Y-24867080D01*
X32092280Y-24792513D01*
X32145007Y-24701187D01*
X32172300Y-24599327D01*
X32172300Y-24493873D01*
X32156464Y-24434773D01*
X37344500Y-24434773D01*
X37344500Y-24540227D01*
X37360336Y-24599327D01*
X37371794Y-24642089D01*
X37371794Y-24642090D01*
X37403655Y-24697274D01*
X37424520Y-24733413D01*
X37499087Y-24807980D01*
X37590413Y-24860707D01*
X37692273Y-24888000D01*
X37692275Y-24888000D01*
X37797725Y-24888000D01*
X37797727Y-24888000D01*
X37899587Y-24860707D01*
X37990913Y-24807980D01*
X38065480Y-24733413D01*
X38118207Y-24642087D01*
X38145500Y-24540227D01*
X38145500Y-24434773D01*
X38118207Y-24332913D01*
X38099602Y-24300689D01*
X38065481Y-24241589D01*
X38065480Y-24241587D01*
X37990913Y-24167020D01*
X37984665Y-24163413D01*
X37899589Y-24114294D01*
X37899588Y-24114293D01*
X37899587Y-24114293D01*
X37797727Y-24087000D01*
X37692273Y-24087000D01*
X37590413Y-24114293D01*
X37590412Y-24114293D01*
X37590410Y-24114294D01*
X37590409Y-24114294D01*
X37499089Y-24167018D01*
X37424518Y-24241589D01*
X37371794Y-24332909D01*
X37371794Y-24332910D01*
X37371793Y-24332912D01*
X37371793Y-24332913D01*
X37344500Y-24434773D01*
X32156464Y-24434773D01*
X32145007Y-24392013D01*
X32134884Y-24374480D01*
X32092281Y-24300689D01*
X32092280Y-24300687D01*
X32017713Y-24226120D01*
X32007944Y-24220480D01*
X31926389Y-24173394D01*
X31926388Y-24173393D01*
X31926387Y-24173393D01*
X31824527Y-24146100D01*
X31719073Y-24146100D01*
X31617213Y-24173393D01*
X31617212Y-24173393D01*
X31617210Y-24173394D01*
X31617209Y-24173394D01*
X31525889Y-24226118D01*
X31451318Y-24300689D01*
X31398594Y-24392009D01*
X31398594Y-24392010D01*
X31398594Y-24392011D01*
X31398593Y-24392013D01*
X31371300Y-24493873D01*
X26836018Y-24493873D01*
X26848307Y-24472587D01*
X26875600Y-24370727D01*
X26875600Y-24265273D01*
X26848307Y-24163413D01*
X26838311Y-24146100D01*
X26804190Y-24087000D01*
X26795580Y-24072087D01*
X26724766Y-24001273D01*
X51792300Y-24001273D01*
X51792300Y-24106727D01*
X51819593Y-24208587D01*
X51819594Y-24208589D01*
X51819594Y-24208590D01*
X51861474Y-24281127D01*
X51872320Y-24299913D01*
X51946887Y-24374480D01*
X52038213Y-24427207D01*
X52140073Y-24454500D01*
X52140075Y-24454500D01*
X52245525Y-24454500D01*
X52245527Y-24454500D01*
X52347387Y-24427207D01*
X52438713Y-24374480D01*
X52513280Y-24299913D01*
X52566007Y-24208587D01*
X52593300Y-24106727D01*
X52593300Y-24001273D01*
X52566007Y-23899413D01*
X52513280Y-23808087D01*
X52438713Y-23733520D01*
X52347387Y-23680793D01*
X52245527Y-23653500D01*
X52140073Y-23653500D01*
X52038213Y-23680793D01*
X52038212Y-23680793D01*
X52038210Y-23680794D01*
X52038209Y-23680794D01*
X51946889Y-23733518D01*
X51872318Y-23808089D01*
X51819594Y-23899409D01*
X51819594Y-23899410D01*
X51819593Y-23899412D01*
X51819593Y-23899413D01*
X51792300Y-24001273D01*
X26724766Y-24001273D01*
X26721013Y-23997520D01*
X26694978Y-23982489D01*
X26629689Y-23944794D01*
X26629688Y-23944793D01*
X26629687Y-23944793D01*
X26527827Y-23917500D01*
X26422373Y-23917500D01*
X26320513Y-23944793D01*
X26320512Y-23944793D01*
X26320510Y-23944794D01*
X26320509Y-23944794D01*
X26229189Y-23997518D01*
X26154618Y-24072089D01*
X26101894Y-24163409D01*
X26101894Y-24163410D01*
X26101893Y-24163412D01*
X26101893Y-24163413D01*
X26074600Y-24265273D01*
X300500Y-24265273D01*
X300500Y-22822273D01*
X7509500Y-22822273D01*
X7509500Y-22927727D01*
X7515602Y-22950500D01*
X7536794Y-23029589D01*
X7536794Y-23029590D01*
X7589518Y-23120910D01*
X7589520Y-23120913D01*
X7664087Y-23195480D01*
X7755413Y-23248207D01*
X7857273Y-23275500D01*
X7857275Y-23275500D01*
X7962725Y-23275500D01*
X7962727Y-23275500D01*
X8064587Y-23248207D01*
X8155913Y-23195480D01*
X8230480Y-23120913D01*
X8283207Y-23029587D01*
X8310500Y-22927727D01*
X8310500Y-22822273D01*
X8283207Y-22720413D01*
X8279507Y-22714005D01*
X8230481Y-22629089D01*
X8230480Y-22629087D01*
X8155913Y-22554520D01*
X8093212Y-22518319D01*
X8093211Y-22518318D01*
X8064589Y-22501794D01*
X8064588Y-22501793D01*
X8064587Y-22501793D01*
X7962727Y-22474500D01*
X7857273Y-22474500D01*
X7755413Y-22501793D01*
X7755412Y-22501793D01*
X7755410Y-22501794D01*
X7755409Y-22501794D01*
X7664089Y-22554518D01*
X7589518Y-22629089D01*
X7536794Y-22720409D01*
X7536794Y-22720410D01*
X7536793Y-22720412D01*
X7536793Y-22720413D01*
X7509500Y-22822273D01*
X300500Y-22822273D01*
X300500Y-22439073D01*
X15847700Y-22439073D01*
X15847700Y-22544527D01*
X15874993Y-22646387D01*
X15874994Y-22646389D01*
X15874994Y-22646390D01*
X15917730Y-22720410D01*
X15927720Y-22737713D01*
X16002287Y-22812280D01*
X16093613Y-22865007D01*
X16195473Y-22892300D01*
X16195475Y-22892300D01*
X16300925Y-22892300D01*
X16300927Y-22892300D01*
X16402787Y-22865007D01*
X16494113Y-22812280D01*
X16568680Y-22737713D01*
X16621407Y-22646387D01*
X16648700Y-22544527D01*
X16648700Y-22439073D01*
X16621407Y-22337213D01*
X16568680Y-22245887D01*
X16494113Y-22171320D01*
X16415597Y-22125989D01*
X16402789Y-22118594D01*
X16402788Y-22118593D01*
X16402787Y-22118593D01*
X16300927Y-22091300D01*
X16195473Y-22091300D01*
X16093613Y-22118593D01*
X16093612Y-22118593D01*
X16093610Y-22118594D01*
X16093609Y-22118594D01*
X16002289Y-22171318D01*
X15927718Y-22245889D01*
X15874994Y-22337209D01*
X15874994Y-22337210D01*
X15874993Y-22337212D01*
X15874993Y-22337213D01*
X15847700Y-22439073D01*
X300500Y-22439073D01*
X300500Y-21918673D01*
X24726700Y-21918673D01*
X24726700Y-22024127D01*
X24753993Y-22125987D01*
X24753994Y-22125989D01*
X24753994Y-22125990D01*
X24788764Y-22186213D01*
X24806720Y-22217313D01*
X24881287Y-22291880D01*
X24972613Y-22344607D01*
X25074473Y-22371900D01*
X25074475Y-22371900D01*
X25179925Y-22371900D01*
X25179927Y-22371900D01*
X25281787Y-22344607D01*
X25373113Y-22291880D01*
X25376920Y-22288073D01*
X25696400Y-22288073D01*
X25696400Y-22393527D01*
X25723693Y-22495387D01*
X25723694Y-22495389D01*
X25723694Y-22495390D01*
X25757832Y-22554518D01*
X25776420Y-22586713D01*
X25850987Y-22661280D01*
X25942313Y-22714007D01*
X26044173Y-22741300D01*
X26044175Y-22741300D01*
X26149625Y-22741300D01*
X26149627Y-22741300D01*
X26251487Y-22714007D01*
X26342813Y-22661280D01*
X26417380Y-22586713D01*
X26470107Y-22495387D01*
X26497400Y-22393527D01*
X26497400Y-22288073D01*
X26470107Y-22186213D01*
X26464668Y-22176793D01*
X26417381Y-22094889D01*
X26417380Y-22094887D01*
X26342813Y-22020320D01*
X26251487Y-21967593D01*
X26149627Y-21940300D01*
X26044173Y-21940300D01*
X25942313Y-21967593D01*
X25942312Y-21967593D01*
X25942310Y-21967594D01*
X25942309Y-21967594D01*
X25850989Y-22020318D01*
X25776418Y-22094889D01*
X25723694Y-22186209D01*
X25723694Y-22186210D01*
X25723693Y-22186212D01*
X25723693Y-22186213D01*
X25696400Y-22288073D01*
X25376920Y-22288073D01*
X25447680Y-22217313D01*
X25500407Y-22125987D01*
X25527700Y-22024127D01*
X25527700Y-21918673D01*
X25500407Y-21816813D01*
X25495730Y-21808713D01*
X25447681Y-21725489D01*
X25447680Y-21725487D01*
X25373113Y-21650920D01*
X25361094Y-21643981D01*
X25281789Y-21598194D01*
X25281788Y-21598193D01*
X25281787Y-21598193D01*
X25179927Y-21570900D01*
X25074473Y-21570900D01*
X24972613Y-21598193D01*
X24972612Y-21598193D01*
X24972610Y-21598194D01*
X24972609Y-21598194D01*
X24881289Y-21650918D01*
X24806718Y-21725489D01*
X24753994Y-21816809D01*
X24753994Y-21816810D01*
X24753993Y-21816812D01*
X24753993Y-21816813D01*
X24726700Y-21918673D01*
X300500Y-21918673D01*
X300500Y-21427373D01*
X14010700Y-21427373D01*
X14010700Y-21532827D01*
X14037993Y-21634687D01*
X14037994Y-21634689D01*
X14037994Y-21634690D01*
X14088750Y-21722601D01*
X14090720Y-21726013D01*
X14165287Y-21800580D01*
X14256613Y-21853307D01*
X14358473Y-21880600D01*
X14358475Y-21880600D01*
X14463925Y-21880600D01*
X14463927Y-21880600D01*
X14565787Y-21853307D01*
X14657113Y-21800580D01*
X14731680Y-21726013D01*
X14784407Y-21634687D01*
X14811700Y-21532827D01*
X14811700Y-21427373D01*
X14784407Y-21325513D01*
X14783635Y-21324176D01*
X14777635Y-21313782D01*
X14752803Y-21270773D01*
X29463700Y-21270773D01*
X29463700Y-21376227D01*
X29490007Y-21474407D01*
X29490994Y-21478089D01*
X29490994Y-21478090D01*
X29536882Y-21557569D01*
X29543720Y-21569413D01*
X29618287Y-21643980D01*
X29709613Y-21696707D01*
X29811473Y-21724000D01*
X29811475Y-21724000D01*
X29916925Y-21724000D01*
X29916927Y-21724000D01*
X30018787Y-21696707D01*
X30110113Y-21643980D01*
X30184680Y-21569413D01*
X30237407Y-21478087D01*
X30264700Y-21376227D01*
X30264700Y-21270773D01*
X30237407Y-21168913D01*
X30212442Y-21125673D01*
X30184681Y-21077589D01*
X30184680Y-21077587D01*
X30155566Y-21048473D01*
X37800000Y-21048473D01*
X37800000Y-21153927D01*
X37821506Y-21234189D01*
X37827294Y-21255789D01*
X37827294Y-21255790D01*
X37871866Y-21332990D01*
X37880020Y-21347113D01*
X37954587Y-21421680D01*
X38045913Y-21474407D01*
X38147773Y-21501700D01*
X38147775Y-21501700D01*
X38253225Y-21501700D01*
X38253227Y-21501700D01*
X38355087Y-21474407D01*
X38446413Y-21421680D01*
X38520980Y-21347113D01*
X38573707Y-21255787D01*
X38601000Y-21153927D01*
X38601000Y-21048473D01*
X38573707Y-20946613D01*
X38565551Y-20932487D01*
X38520981Y-20855289D01*
X38520980Y-20855287D01*
X38446413Y-20780720D01*
X38389894Y-20748089D01*
X38355089Y-20727994D01*
X38355088Y-20727993D01*
X38355087Y-20727993D01*
X38253227Y-20700700D01*
X38147773Y-20700700D01*
X38045913Y-20727993D01*
X38045912Y-20727993D01*
X38045910Y-20727994D01*
X38045909Y-20727994D01*
X37954589Y-20780718D01*
X37880018Y-20855289D01*
X37827294Y-20946609D01*
X37827294Y-20946610D01*
X37827293Y-20946612D01*
X37827293Y-20946613D01*
X37800000Y-21048473D01*
X30155566Y-21048473D01*
X30110113Y-21003020D01*
X30047213Y-20966705D01*
X30018789Y-20950294D01*
X30018788Y-20950293D01*
X30018787Y-20950293D01*
X29916927Y-20923000D01*
X29811473Y-20923000D01*
X29709613Y-20950293D01*
X29709612Y-20950293D01*
X29709610Y-20950294D01*
X29709609Y-20950294D01*
X29618289Y-21003018D01*
X29543718Y-21077589D01*
X29490994Y-21168909D01*
X29490994Y-21168910D01*
X29490993Y-21168912D01*
X29490993Y-21168913D01*
X29463700Y-21270773D01*
X14752803Y-21270773D01*
X14731681Y-21234189D01*
X14731680Y-21234187D01*
X14657113Y-21159620D01*
X14647252Y-21153927D01*
X14565789Y-21106894D01*
X14565788Y-21106893D01*
X14565787Y-21106893D01*
X14463927Y-21079600D01*
X14358473Y-21079600D01*
X14256613Y-21106893D01*
X14256612Y-21106893D01*
X14256610Y-21106894D01*
X14256609Y-21106894D01*
X14165289Y-21159618D01*
X14090718Y-21234189D01*
X14037994Y-21325509D01*
X14037994Y-21325510D01*
X14037993Y-21325512D01*
X14037993Y-21325513D01*
X14010700Y-21427373D01*
X300500Y-21427373D01*
X300500Y-20540773D01*
X31275800Y-20540773D01*
X31275800Y-20646227D01*
X31303093Y-20748087D01*
X31303094Y-20748089D01*
X31303094Y-20748090D01*
X31355818Y-20839410D01*
X31355820Y-20839413D01*
X31430387Y-20913980D01*
X31521713Y-20966707D01*
X31623573Y-20994000D01*
X31623575Y-20994000D01*
X31729025Y-20994000D01*
X31729027Y-20994000D01*
X31830887Y-20966707D01*
X31922213Y-20913980D01*
X31996780Y-20839413D01*
X32049507Y-20748087D01*
X32076800Y-20646227D01*
X32076800Y-20540773D01*
X32049507Y-20438913D01*
X31996780Y-20347587D01*
X31922213Y-20273020D01*
X31920479Y-20272019D01*
X31830889Y-20220294D01*
X31830888Y-20220293D01*
X31830887Y-20220293D01*
X31729027Y-20193000D01*
X31623573Y-20193000D01*
X31521713Y-20220293D01*
X31521712Y-20220293D01*
X31521710Y-20220294D01*
X31521709Y-20220294D01*
X31430389Y-20273018D01*
X31355818Y-20347589D01*
X31303094Y-20438909D01*
X31303094Y-20438910D01*
X31303093Y-20438912D01*
X31303093Y-20438913D01*
X31275800Y-20540773D01*
X300500Y-20540773D01*
X300500Y-17947273D01*
X5599500Y-17947273D01*
X5599500Y-18052727D01*
X5624335Y-18145413D01*
X5626794Y-18154589D01*
X5626794Y-18154590D01*
X5679231Y-18245413D01*
X5679520Y-18245913D01*
X5754087Y-18320480D01*
X5845413Y-18373207D01*
X5947273Y-18400500D01*
X5947275Y-18400500D01*
X6052725Y-18400500D01*
X6052727Y-18400500D01*
X6154587Y-18373207D01*
X6245913Y-18320480D01*
X6320480Y-18245913D01*
X6373207Y-18154587D01*
X6400500Y-18052727D01*
X6400500Y-17947273D01*
X6373207Y-17845413D01*
X6362752Y-17827305D01*
X6320481Y-17754089D01*
X6320480Y-17754087D01*
X6245913Y-17679520D01*
X6205322Y-17656085D01*
X6154589Y-17626794D01*
X6154588Y-17626793D01*
X6154587Y-17626793D01*
X6052727Y-17599500D01*
X5947273Y-17599500D01*
X5845413Y-17626793D01*
X5845412Y-17626793D01*
X5845410Y-17626794D01*
X5845409Y-17626794D01*
X5754089Y-17679518D01*
X5679518Y-17754089D01*
X5626794Y-17845409D01*
X5626794Y-17845410D01*
X5626793Y-17845412D01*
X5626793Y-17845413D01*
X5599500Y-17947273D01*
X300500Y-17947273D01*
X300500Y-17522273D01*
X24132000Y-17522273D01*
X24132000Y-17627727D01*
X24159293Y-17729587D01*
X24159294Y-17729589D01*
X24159294Y-17729590D01*
X24200571Y-17801083D01*
X24212020Y-17820913D01*
X24286587Y-17895480D01*
X24377913Y-17948207D01*
X24479773Y-17975500D01*
X24479775Y-17975500D01*
X24585225Y-17975500D01*
X24585227Y-17975500D01*
X24687087Y-17948207D01*
X24778413Y-17895480D01*
X24852980Y-17820913D01*
X24905707Y-17729587D01*
X24933000Y-17627727D01*
X24933000Y-17522273D01*
X24905707Y-17420413D01*
X24891949Y-17396584D01*
X24852981Y-17329089D01*
X24852980Y-17329087D01*
X24778413Y-17254520D01*
X24756220Y-17241707D01*
X24687089Y-17201794D01*
X24687088Y-17201793D01*
X24687087Y-17201793D01*
X24585227Y-17174500D01*
X24479773Y-17174500D01*
X24377913Y-17201793D01*
X24377912Y-17201793D01*
X24377910Y-17201794D01*
X24377909Y-17201794D01*
X24286589Y-17254518D01*
X24212018Y-17329089D01*
X24159294Y-17420409D01*
X24159294Y-17420410D01*
X24159293Y-17420412D01*
X24159293Y-17420413D01*
X24132000Y-17522273D01*
X300500Y-17522273D01*
X300500Y-17092773D01*
X29301800Y-17092773D01*
X29301800Y-17198227D01*
X29329093Y-17300087D01*
X29329094Y-17300089D01*
X29329094Y-17300090D01*
X29345836Y-17329087D01*
X29381820Y-17391413D01*
X29456387Y-17465980D01*
X29547713Y-17518707D01*
X29610100Y-17535423D01*
X29661414Y-17568747D01*
X29683341Y-17625869D01*
X29667505Y-17684969D01*
X29619955Y-17723474D01*
X29610104Y-17726675D01*
X29595727Y-17730527D01*
X29568611Y-17737793D01*
X29568609Y-17737794D01*
X29477289Y-17790518D01*
X29402718Y-17865089D01*
X29349994Y-17956409D01*
X29349994Y-17956410D01*
X29349993Y-17956412D01*
X29349993Y-17956413D01*
X29322700Y-18058273D01*
X29322700Y-18163727D01*
X29349993Y-18265587D01*
X29349994Y-18265589D01*
X29349994Y-18265590D01*
X29381685Y-18320480D01*
X29402720Y-18356913D01*
X29477287Y-18431480D01*
X29568613Y-18484207D01*
X29670473Y-18511500D01*
X29670475Y-18511500D01*
X29775925Y-18511500D01*
X29775927Y-18511500D01*
X29877787Y-18484207D01*
X29969113Y-18431480D01*
X30043680Y-18356913D01*
X30096407Y-18265587D01*
X30123700Y-18163727D01*
X30123700Y-18058273D01*
X30096407Y-17956413D01*
X30091669Y-17948207D01*
X30043681Y-17865089D01*
X30043680Y-17865087D01*
X29969113Y-17790520D01*
X29969110Y-17790518D01*
X29877790Y-17737794D01*
X29877783Y-17737791D01*
X29815398Y-17721075D01*
X29764084Y-17687751D01*
X29742158Y-17630629D01*
X29757994Y-17571529D01*
X29805544Y-17533024D01*
X29815383Y-17529827D01*
X29856887Y-17518707D01*
X29948213Y-17465980D01*
X30022780Y-17391413D01*
X30075507Y-17300087D01*
X30102800Y-17198227D01*
X30102800Y-17092773D01*
X30075507Y-16990913D01*
X30022780Y-16899587D01*
X29948213Y-16825020D01*
X29932198Y-16815774D01*
X29856889Y-16772294D01*
X29856888Y-16772293D01*
X29856887Y-16772293D01*
X29755027Y-16745000D01*
X29649573Y-16745000D01*
X29547713Y-16772293D01*
X29547712Y-16772293D01*
X29547710Y-16772294D01*
X29547709Y-16772294D01*
X29456389Y-16825018D01*
X29381818Y-16899589D01*
X29329094Y-16990909D01*
X29329094Y-16990910D01*
X29329093Y-16990912D01*
X29329093Y-16990913D01*
X29301800Y-17092773D01*
X300500Y-17092773D01*
X300500Y-16156073D01*
X11084300Y-16156073D01*
X11084300Y-16261527D01*
X11110300Y-16358560D01*
X11111594Y-16363389D01*
X11111594Y-16363390D01*
X11132482Y-16399568D01*
X11164320Y-16454713D01*
X11238887Y-16529280D01*
X11330213Y-16582007D01*
X11432073Y-16609300D01*
X11432075Y-16609300D01*
X11537525Y-16609300D01*
X11537527Y-16609300D01*
X11639387Y-16582007D01*
X11730713Y-16529280D01*
X11805280Y-16454713D01*
X11858007Y-16363387D01*
X11885300Y-16261527D01*
X11885300Y-16156073D01*
X11858007Y-16054213D01*
X11844947Y-16031593D01*
X11805281Y-15962889D01*
X11805280Y-15962887D01*
X11730713Y-15888320D01*
X11717239Y-15880541D01*
X11639389Y-15835594D01*
X11639388Y-15835593D01*
X11639387Y-15835593D01*
X11537527Y-15808300D01*
X11432073Y-15808300D01*
X11330213Y-15835593D01*
X11330212Y-15835593D01*
X11330210Y-15835594D01*
X11330209Y-15835594D01*
X11238889Y-15888318D01*
X11164318Y-15962889D01*
X11111594Y-16054209D01*
X11111594Y-16054210D01*
X11111593Y-16054212D01*
X11111593Y-16054213D01*
X11084300Y-16156073D01*
X300500Y-16156073D01*
X300500Y-14356073D01*
X8034300Y-14356073D01*
X8034300Y-14461527D01*
X8061593Y-14563387D01*
X8061594Y-14563389D01*
X8061594Y-14563390D01*
X8114318Y-14654710D01*
X8114320Y-14654713D01*
X8188887Y-14729280D01*
X8280213Y-14782007D01*
X8382073Y-14809300D01*
X8382075Y-14809300D01*
X8487525Y-14809300D01*
X8487527Y-14809300D01*
X8589387Y-14782007D01*
X8635865Y-14755173D01*
X25772500Y-14755173D01*
X25772500Y-14860627D01*
X25799793Y-14962487D01*
X25799794Y-14962489D01*
X25799794Y-14962490D01*
X25850964Y-15051118D01*
X25852520Y-15053813D01*
X25927087Y-15128380D01*
X26018413Y-15181107D01*
X26120273Y-15208400D01*
X26120275Y-15208400D01*
X26225725Y-15208400D01*
X26225727Y-15208400D01*
X26327587Y-15181107D01*
X26418913Y-15128380D01*
X26493480Y-15053813D01*
X26546207Y-14962487D01*
X26573500Y-14860627D01*
X26573500Y-14755173D01*
X26546207Y-14653313D01*
X26493480Y-14561987D01*
X26418913Y-14487420D01*
X26408832Y-14481600D01*
X26327589Y-14434694D01*
X26327588Y-14434693D01*
X26327587Y-14434693D01*
X26225727Y-14407400D01*
X26120273Y-14407400D01*
X26018413Y-14434693D01*
X26018412Y-14434693D01*
X26018410Y-14434694D01*
X26018409Y-14434694D01*
X25927089Y-14487418D01*
X25852518Y-14561989D01*
X25799794Y-14653309D01*
X25799794Y-14653310D01*
X25799793Y-14653312D01*
X25799793Y-14653313D01*
X25772500Y-14755173D01*
X8635865Y-14755173D01*
X8680713Y-14729280D01*
X8755280Y-14654713D01*
X8808007Y-14563387D01*
X8835300Y-14461527D01*
X8835300Y-14356073D01*
X8808007Y-14254213D01*
X8764221Y-14178373D01*
X31158500Y-14178373D01*
X31158500Y-14283827D01*
X31178645Y-14359009D01*
X31185794Y-14385689D01*
X31185794Y-14385690D01*
X31229202Y-14460874D01*
X31238520Y-14477013D01*
X31313087Y-14551580D01*
X31404413Y-14604307D01*
X31506273Y-14631600D01*
X31506275Y-14631600D01*
X31611725Y-14631600D01*
X31611727Y-14631600D01*
X31713587Y-14604307D01*
X31804913Y-14551580D01*
X31879480Y-14477013D01*
X31932207Y-14385687D01*
X31959500Y-14283827D01*
X31959500Y-14178373D01*
X31932207Y-14076513D01*
X31908582Y-14035594D01*
X31879481Y-13985189D01*
X31879480Y-13985187D01*
X31804913Y-13910620D01*
X31749648Y-13878713D01*
X31713589Y-13857894D01*
X31713588Y-13857893D01*
X31713587Y-13857893D01*
X31611727Y-13830600D01*
X31506273Y-13830600D01*
X31404413Y-13857893D01*
X31404412Y-13857893D01*
X31404410Y-13857894D01*
X31404409Y-13857894D01*
X31313089Y-13910618D01*
X31238518Y-13985189D01*
X31185794Y-14076509D01*
X31185794Y-14076510D01*
X31185793Y-14076512D01*
X31185793Y-14076513D01*
X31158500Y-14178373D01*
X8764221Y-14178373D01*
X8755280Y-14162887D01*
X8680713Y-14088320D01*
X8660257Y-14076510D01*
X8589389Y-14035594D01*
X8589388Y-14035593D01*
X8589387Y-14035593D01*
X8487527Y-14008300D01*
X8382073Y-14008300D01*
X8280213Y-14035593D01*
X8280212Y-14035593D01*
X8280210Y-14035594D01*
X8280209Y-14035594D01*
X8188889Y-14088318D01*
X8114318Y-14162889D01*
X8061594Y-14254209D01*
X8061594Y-14254210D01*
X8061593Y-14254212D01*
X8061593Y-14254213D01*
X8034300Y-14356073D01*
X300500Y-14356073D01*
X300500Y-11400973D01*
X13071800Y-11400973D01*
X13071800Y-11506427D01*
X13094429Y-11590880D01*
X13099094Y-11608289D01*
X13099094Y-11608290D01*
X13151818Y-11699610D01*
X13151820Y-11699613D01*
X13226387Y-11774180D01*
X13317713Y-11826907D01*
X13419573Y-11854200D01*
X13419575Y-11854200D01*
X13525025Y-11854200D01*
X13525027Y-11854200D01*
X13550879Y-11847273D01*
X57499500Y-11847273D01*
X57499500Y-11952727D01*
X57526529Y-12053600D01*
X57526794Y-12054589D01*
X57526794Y-12054590D01*
X57579518Y-12145910D01*
X57579520Y-12145913D01*
X57654087Y-12220480D01*
X57745413Y-12273207D01*
X57847273Y-12300500D01*
X57847275Y-12300500D01*
X57952725Y-12300500D01*
X57952727Y-12300500D01*
X58054587Y-12273207D01*
X58145913Y-12220480D01*
X58220480Y-12145913D01*
X58273207Y-12054587D01*
X58300500Y-11952727D01*
X58300500Y-11847273D01*
X58273207Y-11745413D01*
X58220480Y-11654087D01*
X58145913Y-11579520D01*
X58140850Y-11576597D01*
X58054589Y-11526794D01*
X58054588Y-11526793D01*
X58054587Y-11526793D01*
X57952727Y-11499500D01*
X57847273Y-11499500D01*
X57745413Y-11526793D01*
X57745412Y-11526793D01*
X57745410Y-11526794D01*
X57745409Y-11526794D01*
X57654089Y-11579518D01*
X57579518Y-11654089D01*
X57526794Y-11745409D01*
X57526794Y-11745410D01*
X57526793Y-11745412D01*
X57526793Y-11745413D01*
X57499500Y-11847273D01*
X13550879Y-11847273D01*
X13626887Y-11826907D01*
X13718213Y-11774180D01*
X13792780Y-11699613D01*
X13845507Y-11608287D01*
X13872800Y-11506427D01*
X13872800Y-11400973D01*
X13845507Y-11299113D01*
X13792780Y-11207787D01*
X13718213Y-11133220D01*
X13703109Y-11124500D01*
X13626889Y-11080494D01*
X13626888Y-11080493D01*
X13626887Y-11080493D01*
X13525027Y-11053200D01*
X13419573Y-11053200D01*
X13317713Y-11080493D01*
X13317712Y-11080493D01*
X13317710Y-11080494D01*
X13317709Y-11080494D01*
X13226389Y-11133218D01*
X13151818Y-11207789D01*
X13099094Y-11299109D01*
X13099094Y-11299110D01*
X13099093Y-11299112D01*
X13099093Y-11299113D01*
X13071800Y-11400973D01*
X300500Y-11400973D01*
X300500Y-10670473D01*
X19047800Y-10670473D01*
X19047800Y-10775927D01*
X19075093Y-10877787D01*
X19075094Y-10877789D01*
X19075094Y-10877790D01*
X19121180Y-10957613D01*
X19127820Y-10969113D01*
X19202387Y-11043680D01*
X19293713Y-11096407D01*
X19395573Y-11123700D01*
X19395575Y-11123700D01*
X19501025Y-11123700D01*
X19501027Y-11123700D01*
X19602887Y-11096407D01*
X19666859Y-11059473D01*
X58925000Y-11059473D01*
X58925000Y-11164927D01*
X58937055Y-11209916D01*
X58952294Y-11266789D01*
X58952294Y-11266790D01*
X58970956Y-11299113D01*
X59005020Y-11358113D01*
X59079587Y-11432680D01*
X59170913Y-11485407D01*
X59272773Y-11512700D01*
X59272775Y-11512700D01*
X59378225Y-11512700D01*
X59378227Y-11512700D01*
X59480087Y-11485407D01*
X59571413Y-11432680D01*
X59645980Y-11358113D01*
X59698707Y-11266787D01*
X59726000Y-11164927D01*
X59726000Y-11059473D01*
X59698707Y-10957613D01*
X59645980Y-10866287D01*
X59571413Y-10791720D01*
X59544055Y-10775925D01*
X59480089Y-10738994D01*
X59480088Y-10738993D01*
X59480087Y-10738993D01*
X59378227Y-10711700D01*
X59272773Y-10711700D01*
X59170913Y-10738993D01*
X59170912Y-10738993D01*
X59170910Y-10738994D01*
X59170909Y-10738994D01*
X59079589Y-10791718D01*
X59005018Y-10866289D01*
X58952294Y-10957609D01*
X58952294Y-10957610D01*
X58952293Y-10957612D01*
X58952293Y-10957613D01*
X58925000Y-11059473D01*
X19666859Y-11059473D01*
X19694213Y-11043680D01*
X19768780Y-10969113D01*
X19821507Y-10877787D01*
X19848800Y-10775927D01*
X19848800Y-10670473D01*
X19821507Y-10568613D01*
X19768780Y-10477287D01*
X19694213Y-10402720D01*
X19648807Y-10376505D01*
X19602889Y-10349994D01*
X19602888Y-10349993D01*
X19602887Y-10349993D01*
X19501027Y-10322700D01*
X19395573Y-10322700D01*
X19293713Y-10349993D01*
X19293712Y-10349993D01*
X19293710Y-10349994D01*
X19293709Y-10349994D01*
X19202389Y-10402718D01*
X19127818Y-10477289D01*
X19075094Y-10568609D01*
X19075094Y-10568610D01*
X19075093Y-10568612D01*
X19075093Y-10568613D01*
X19047800Y-10670473D01*
X300500Y-10670473D01*
X300500Y-9947273D01*
X14599500Y-9947273D01*
X14599500Y-10052727D01*
X14626295Y-10152727D01*
X14626794Y-10154589D01*
X14626794Y-10154590D01*
X14670617Y-10230493D01*
X14679520Y-10245913D01*
X14754087Y-10320480D01*
X14845413Y-10373207D01*
X14947273Y-10400500D01*
X14947275Y-10400500D01*
X15052725Y-10400500D01*
X15052727Y-10400500D01*
X15154587Y-10373207D01*
X15245913Y-10320480D01*
X15320480Y-10245913D01*
X15373207Y-10154587D01*
X15400500Y-10052727D01*
X15400500Y-10047273D01*
X16399500Y-10047273D01*
X16399500Y-10152727D01*
X16426793Y-10254587D01*
X16426794Y-10254589D01*
X16426794Y-10254590D01*
X16466742Y-10323781D01*
X16479520Y-10345913D01*
X16554087Y-10420480D01*
X16645413Y-10473207D01*
X16747273Y-10500500D01*
X16747275Y-10500500D01*
X16852725Y-10500500D01*
X16852727Y-10500500D01*
X16954587Y-10473207D01*
X17045913Y-10420480D01*
X17120480Y-10345913D01*
X17126445Y-10335580D01*
X17171913Y-10294641D01*
X17232763Y-10288244D01*
X17282182Y-10315075D01*
X17290887Y-10323780D01*
X17382213Y-10376507D01*
X17484073Y-10403800D01*
X17484075Y-10403800D01*
X17589525Y-10403800D01*
X17589527Y-10403800D01*
X17691387Y-10376507D01*
X17782713Y-10323780D01*
X17857280Y-10249213D01*
X17910007Y-10157887D01*
X17937300Y-10056027D01*
X17937300Y-9950573D01*
X17910007Y-9848713D01*
X17882507Y-9801081D01*
X77269500Y-9801081D01*
X77269500Y-9948918D01*
X77298342Y-10093914D01*
X77354915Y-10230493D01*
X77354916Y-10230495D01*
X77437049Y-10353416D01*
X77541584Y-10457951D01*
X77664505Y-10540084D01*
X77801087Y-10596658D01*
X77946082Y-10625500D01*
X77946083Y-10625500D01*
X78643917Y-10625500D01*
X78643918Y-10625500D01*
X78788913Y-10596658D01*
X78925495Y-10540084D01*
X79048416Y-10457951D01*
X79152951Y-10353416D01*
X79235084Y-10230495D01*
X79291658Y-10093913D01*
X79320500Y-9948918D01*
X79320500Y-9801082D01*
X79291658Y-9656087D01*
X79235084Y-9519505D01*
X79152951Y-9396584D01*
X79048416Y-9292049D01*
X78925495Y-9209916D01*
X78925493Y-9209915D01*
X78788914Y-9153342D01*
X78643918Y-9124500D01*
X77946082Y-9124500D01*
X77946081Y-9124500D01*
X77801085Y-9153342D01*
X77664506Y-9209915D01*
X77541585Y-9292048D01*
X77437048Y-9396585D01*
X77354915Y-9519506D01*
X77298342Y-9656085D01*
X77269500Y-9801081D01*
X17882507Y-9801081D01*
X17857280Y-9757387D01*
X17782713Y-9682820D01*
X17776997Y-9679520D01*
X17691389Y-9630094D01*
X17691388Y-9630093D01*
X17691387Y-9630093D01*
X17589527Y-9602800D01*
X17484073Y-9602800D01*
X17382213Y-9630093D01*
X17382212Y-9630093D01*
X17382210Y-9630094D01*
X17382209Y-9630094D01*
X17290889Y-9682818D01*
X17216319Y-9757388D01*
X17210352Y-9767723D01*
X17164880Y-9808661D01*
X17104029Y-9815053D01*
X17054616Y-9788223D01*
X17045913Y-9779520D01*
X17007579Y-9757388D01*
X16954589Y-9726794D01*
X16954588Y-9726793D01*
X16954587Y-9726793D01*
X16852727Y-9699500D01*
X16747273Y-9699500D01*
X16645413Y-9726793D01*
X16645412Y-9726793D01*
X16645410Y-9726794D01*
X16645409Y-9726794D01*
X16554089Y-9779518D01*
X16479518Y-9854089D01*
X16426794Y-9945409D01*
X16426794Y-9945410D01*
X16426793Y-9945412D01*
X16426793Y-9945413D01*
X16399500Y-10047273D01*
X15400500Y-10047273D01*
X15400500Y-9947273D01*
X15373207Y-9845413D01*
X15320480Y-9754087D01*
X15245913Y-9679520D01*
X15205322Y-9656085D01*
X15154589Y-9626794D01*
X15154588Y-9626793D01*
X15154587Y-9626793D01*
X15052727Y-9599500D01*
X14947273Y-9599500D01*
X14845413Y-9626793D01*
X14845412Y-9626793D01*
X14845410Y-9626794D01*
X14845409Y-9626794D01*
X14754089Y-9679518D01*
X14679518Y-9754089D01*
X14626794Y-9845409D01*
X14626794Y-9845410D01*
X14626793Y-9845412D01*
X14626793Y-9845413D01*
X14599500Y-9947273D01*
X300500Y-9947273D01*
X300500Y-8432673D01*
X13573600Y-8432673D01*
X13573600Y-8538127D01*
X13597358Y-8626793D01*
X13600894Y-8639989D01*
X13600894Y-8639990D01*
X13651010Y-8726793D01*
X13653620Y-8731313D01*
X13728187Y-8805880D01*
X13819513Y-8858607D01*
X13921373Y-8885900D01*
X13921375Y-8885900D01*
X14000500Y-8885900D01*
X14058691Y-8904807D01*
X14094655Y-8954307D01*
X14099500Y-8984900D01*
X14099500Y-9052727D01*
X14126793Y-9154587D01*
X14126794Y-9154589D01*
X14126794Y-9154590D01*
X14158737Y-9209916D01*
X14179520Y-9245913D01*
X14254087Y-9320480D01*
X14345413Y-9373207D01*
X14447273Y-9400500D01*
X14447275Y-9400500D01*
X14552725Y-9400500D01*
X14552727Y-9400500D01*
X14654587Y-9373207D01*
X14745913Y-9320480D01*
X14820480Y-9245913D01*
X14873207Y-9154587D01*
X14900500Y-9052727D01*
X14900500Y-9047273D01*
X58999500Y-9047273D01*
X58999500Y-9152727D01*
X59024469Y-9245913D01*
X59026794Y-9254589D01*
X59026794Y-9254590D01*
X59079518Y-9345910D01*
X59079520Y-9345913D01*
X59154087Y-9420480D01*
X59245413Y-9473207D01*
X59347273Y-9500500D01*
X59347275Y-9500500D01*
X59452725Y-9500500D01*
X59452727Y-9500500D01*
X59554587Y-9473207D01*
X59645913Y-9420480D01*
X59720480Y-9345913D01*
X59773207Y-9254587D01*
X59800500Y-9152727D01*
X59800500Y-9047273D01*
X59773207Y-8945413D01*
X59720480Y-8854087D01*
X59645913Y-8779520D01*
X59601865Y-8754089D01*
X59554589Y-8726794D01*
X59554588Y-8726793D01*
X59554587Y-8726793D01*
X59452727Y-8699500D01*
X59347273Y-8699500D01*
X59245413Y-8726793D01*
X59245412Y-8726793D01*
X59245410Y-8726794D01*
X59245409Y-8726794D01*
X59154089Y-8779518D01*
X59079518Y-8854089D01*
X59026794Y-8945409D01*
X59026794Y-8945410D01*
X59026793Y-8945412D01*
X59026793Y-8945413D01*
X58999500Y-9047273D01*
X14900500Y-9047273D01*
X14900500Y-8947273D01*
X14873207Y-8845413D01*
X14820480Y-8754087D01*
X14745913Y-8679520D01*
X14654587Y-8626793D01*
X14552727Y-8599500D01*
X14473600Y-8599500D01*
X14415409Y-8580593D01*
X14379445Y-8531093D01*
X14374600Y-8500500D01*
X14374600Y-8432674D01*
X14374600Y-8432673D01*
X14347307Y-8330813D01*
X14294580Y-8239487D01*
X14220013Y-8164920D01*
X14128687Y-8112193D01*
X14026827Y-8084900D01*
X13921373Y-8084900D01*
X13819513Y-8112193D01*
X13819512Y-8112193D01*
X13819510Y-8112194D01*
X13819509Y-8112194D01*
X13728189Y-8164918D01*
X13653618Y-8239489D01*
X13600894Y-8330809D01*
X13600894Y-8330810D01*
X13600893Y-8330812D01*
X13600893Y-8330813D01*
X13573600Y-8432673D01*
X300500Y-8432673D01*
X300500Y-7297273D01*
X13599500Y-7297273D01*
X13599500Y-7402727D01*
X13626793Y-7504587D01*
X13626794Y-7504589D01*
X13626794Y-7504590D01*
X13636794Y-7521910D01*
X13679520Y-7595913D01*
X13754087Y-7670480D01*
X13845413Y-7723207D01*
X13947273Y-7750500D01*
X13947275Y-7750500D01*
X14052725Y-7750500D01*
X14052727Y-7750500D01*
X14154587Y-7723207D01*
X14245913Y-7670480D01*
X14320480Y-7595913D01*
X14373207Y-7504587D01*
X14400500Y-7402727D01*
X14400500Y-7297273D01*
X14380672Y-7223273D01*
X18450300Y-7223273D01*
X18450300Y-7328727D01*
X18477593Y-7430587D01*
X18477594Y-7430589D01*
X18477594Y-7430590D01*
X18530318Y-7521910D01*
X18530320Y-7521913D01*
X18604887Y-7596480D01*
X18696213Y-7649207D01*
X18798073Y-7676500D01*
X18798075Y-7676500D01*
X18903525Y-7676500D01*
X18903527Y-7676500D01*
X19005387Y-7649207D01*
X19096713Y-7596480D01*
X19171280Y-7521913D01*
X19224007Y-7430587D01*
X19251300Y-7328727D01*
X19251300Y-7223273D01*
X19224007Y-7121413D01*
X19171280Y-7030087D01*
X19096713Y-6955520D01*
X19005387Y-6902793D01*
X18903527Y-6875500D01*
X18798073Y-6875500D01*
X18696213Y-6902793D01*
X18696212Y-6902793D01*
X18696210Y-6902794D01*
X18696209Y-6902794D01*
X18604889Y-6955518D01*
X18530318Y-7030089D01*
X18477594Y-7121409D01*
X18477594Y-7121410D01*
X18477593Y-7121412D01*
X18477593Y-7121413D01*
X18450300Y-7223273D01*
X14380672Y-7223273D01*
X14373207Y-7195413D01*
X14320480Y-7104087D01*
X14245913Y-7029520D01*
X14154587Y-6976793D01*
X14052727Y-6949500D01*
X13947273Y-6949500D01*
X13845413Y-6976793D01*
X13845412Y-6976793D01*
X13845410Y-6976794D01*
X13845409Y-6976794D01*
X13754089Y-7029518D01*
X13679518Y-7104089D01*
X13626794Y-7195409D01*
X13626794Y-7195410D01*
X13626793Y-7195412D01*
X13626793Y-7195413D01*
X13599500Y-7297273D01*
X300500Y-7297273D01*
X300500Y-6665073D01*
X16940700Y-6665073D01*
X16940700Y-6770527D01*
X16963890Y-6857073D01*
X16967994Y-6872389D01*
X16967994Y-6872390D01*
X17020034Y-6962525D01*
X17020720Y-6963713D01*
X17095287Y-7038280D01*
X17186613Y-7091007D01*
X17288473Y-7118300D01*
X17288475Y-7118300D01*
X17393925Y-7118300D01*
X17393927Y-7118300D01*
X17495787Y-7091007D01*
X17587113Y-7038280D01*
X17661680Y-6963713D01*
X17714407Y-6872387D01*
X17741700Y-6770527D01*
X17741700Y-6665073D01*
X17714407Y-6563213D01*
X17691308Y-6523205D01*
X17661681Y-6471889D01*
X17661680Y-6471887D01*
X17587113Y-6397320D01*
X17495787Y-6344593D01*
X17393927Y-6317300D01*
X17288473Y-6317300D01*
X17186613Y-6344593D01*
X17186612Y-6344593D01*
X17186610Y-6344594D01*
X17186609Y-6344594D01*
X17095289Y-6397318D01*
X17020718Y-6471889D01*
X16967994Y-6563209D01*
X16967994Y-6563210D01*
X16967993Y-6563212D01*
X16967993Y-6563213D01*
X16940700Y-6665073D01*
X300500Y-6665073D01*
X300500Y-6097273D01*
X14799500Y-6097273D01*
X14799500Y-6202727D01*
X14811071Y-6245910D01*
X14826794Y-6304589D01*
X14826794Y-6304590D01*
X14879518Y-6395910D01*
X14879520Y-6395913D01*
X14954087Y-6470480D01*
X15045413Y-6523207D01*
X15147273Y-6550500D01*
X15147275Y-6550500D01*
X15252725Y-6550500D01*
X15252727Y-6550500D01*
X15354587Y-6523207D01*
X15445913Y-6470480D01*
X15520480Y-6395913D01*
X15573207Y-6304587D01*
X15600500Y-6202727D01*
X15600500Y-6097273D01*
X15573207Y-5995413D01*
X15520480Y-5904087D01*
X15445913Y-5829520D01*
X15354587Y-5776793D01*
X15252727Y-5749500D01*
X15147273Y-5749500D01*
X15045413Y-5776793D01*
X15045412Y-5776793D01*
X15045410Y-5776794D01*
X15045409Y-5776794D01*
X14954089Y-5829518D01*
X14879518Y-5904089D01*
X14826794Y-5995409D01*
X14826794Y-5995410D01*
X14826793Y-5995412D01*
X14826793Y-5995413D01*
X14799500Y-6097273D01*
X300500Y-6097273D01*
X300500Y-5513773D01*
X19315000Y-5513773D01*
X19315000Y-5619227D01*
X19342293Y-5721087D01*
X19342294Y-5721089D01*
X19342294Y-5721090D01*
X19374455Y-5776794D01*
X19395020Y-5812413D01*
X19469587Y-5886980D01*
X19560913Y-5939707D01*
X19662773Y-5967000D01*
X19662775Y-5967000D01*
X19768225Y-5967000D01*
X19768227Y-5967000D01*
X19870087Y-5939707D01*
X19961413Y-5886980D01*
X20035980Y-5812413D01*
X20088707Y-5721087D01*
X20116000Y-5619227D01*
X20116000Y-5513773D01*
X20088707Y-5411913D01*
X20035980Y-5320587D01*
X19961413Y-5246020D01*
X19870087Y-5193293D01*
X19768227Y-5166000D01*
X19662773Y-5166000D01*
X19560913Y-5193293D01*
X19560912Y-5193293D01*
X19560910Y-5193294D01*
X19560909Y-5193294D01*
X19469589Y-5246018D01*
X19395018Y-5320589D01*
X19342294Y-5411909D01*
X19342294Y-5411910D01*
X19342293Y-5411912D01*
X19342293Y-5411913D01*
X19315000Y-5513773D01*
X300500Y-5513773D01*
X300500Y-3218478D01*
X2944500Y-3218478D01*
X2944500Y-4531521D01*
X2944501Y-4531523D01*
X2959352Y-4625299D01*
X2959354Y-4625304D01*
X3016950Y-4738342D01*
X3106658Y-4828050D01*
X3219696Y-4885646D01*
X3313481Y-4900500D01*
X4076518Y-4900499D01*
X4076521Y-4900499D01*
X4076522Y-4900498D01*
X4123411Y-4893072D01*
X4170299Y-4885647D01*
X4170299Y-4885646D01*
X4170304Y-4885646D01*
X4283342Y-4828050D01*
X4373050Y-4738342D01*
X4430646Y-4625304D01*
X4445500Y-4531519D01*
X4445499Y-3526081D01*
X4944500Y-3526081D01*
X4944500Y-4223918D01*
X4973342Y-4368914D01*
X4998402Y-4429413D01*
X5029916Y-4505495D01*
X5112049Y-4628416D01*
X5216584Y-4732951D01*
X5339505Y-4815084D01*
X5476087Y-4871658D01*
X5621082Y-4900500D01*
X5621083Y-4900500D01*
X5768917Y-4900500D01*
X5768918Y-4900500D01*
X5913913Y-4871658D01*
X6050495Y-4815084D01*
X6173416Y-4732951D01*
X6277951Y-4628416D01*
X6360084Y-4505495D01*
X6416658Y-4368913D01*
X6445500Y-4223918D01*
X6445500Y-3526082D01*
X6445500Y-3526081D01*
X6944500Y-3526081D01*
X6944500Y-4223918D01*
X6973342Y-4368914D01*
X6998402Y-4429413D01*
X7029916Y-4505495D01*
X7112049Y-4628416D01*
X7216584Y-4732951D01*
X7339505Y-4815084D01*
X7476087Y-4871658D01*
X7621082Y-4900500D01*
X7621083Y-4900500D01*
X7768917Y-4900500D01*
X7768918Y-4900500D01*
X7913913Y-4871658D01*
X8050495Y-4815084D01*
X8173416Y-4732951D01*
X8277951Y-4628416D01*
X8360084Y-4505495D01*
X8416658Y-4368913D01*
X8445500Y-4223918D01*
X8445500Y-4130773D01*
X12274000Y-4130773D01*
X12274000Y-4236227D01*
X12301293Y-4338087D01*
X12301294Y-4338089D01*
X12301294Y-4338090D01*
X12354018Y-4429410D01*
X12354020Y-4429413D01*
X12428587Y-4503980D01*
X12519913Y-4556707D01*
X12621773Y-4584000D01*
X12621775Y-4584000D01*
X12727225Y-4584000D01*
X12727227Y-4584000D01*
X12829087Y-4556707D01*
X12920413Y-4503980D01*
X12994980Y-4429413D01*
X13047707Y-4338087D01*
X13075000Y-4236227D01*
X13075000Y-4130773D01*
X13047707Y-4028913D01*
X12994980Y-3937587D01*
X12920413Y-3863020D01*
X12829087Y-3810293D01*
X12727227Y-3783000D01*
X12621773Y-3783000D01*
X12519913Y-3810293D01*
X12519912Y-3810293D01*
X12519910Y-3810294D01*
X12519909Y-3810294D01*
X12428589Y-3863018D01*
X12354018Y-3937589D01*
X12301294Y-4028909D01*
X12301294Y-4028910D01*
X12301293Y-4028912D01*
X12301293Y-4028913D01*
X12274000Y-4130773D01*
X8445500Y-4130773D01*
X8445500Y-3526082D01*
X8416658Y-3381087D01*
X8360084Y-3244505D01*
X8277951Y-3121584D01*
X8173416Y-3017049D01*
X8050495Y-2934916D01*
X8050493Y-2934915D01*
X7913914Y-2878342D01*
X7768918Y-2849500D01*
X7621082Y-2849500D01*
X7621081Y-2849500D01*
X7476085Y-2878342D01*
X7339506Y-2934915D01*
X7216585Y-3017048D01*
X7112048Y-3121585D01*
X7029915Y-3244506D01*
X6973342Y-3381085D01*
X6944500Y-3526081D01*
X6445500Y-3526081D01*
X6416658Y-3381087D01*
X6360084Y-3244505D01*
X6277951Y-3121584D01*
X6173416Y-3017049D01*
X6050495Y-2934916D01*
X6050493Y-2934915D01*
X5913914Y-2878342D01*
X5768918Y-2849500D01*
X5621082Y-2849500D01*
X5621081Y-2849500D01*
X5476085Y-2878342D01*
X5339506Y-2934915D01*
X5216585Y-3017048D01*
X5112048Y-3121585D01*
X5029915Y-3244506D01*
X4973342Y-3381085D01*
X4944500Y-3526081D01*
X4445499Y-3526081D01*
X4445499Y-3218482D01*
X4445499Y-3218481D01*
X4445499Y-3218478D01*
X4445498Y-3218476D01*
X4430647Y-3124700D01*
X4430646Y-3124698D01*
X4430646Y-3124696D01*
X4373050Y-3011658D01*
X4283342Y-2921950D01*
X4170304Y-2864354D01*
X4170305Y-2864354D01*
X4076521Y-2849500D01*
X3313478Y-2849500D01*
X3313476Y-2849501D01*
X3219700Y-2864352D01*
X3219695Y-2864354D01*
X3106659Y-2921949D01*
X3016949Y-3011659D01*
X2959354Y-3124695D01*
X2944500Y-3218478D01*
X300500Y-3218478D01*
X300500Y-399500D01*
X319407Y-341309D01*
X368907Y-305345D01*
X399500Y-300500D01*
X29396000Y-300500D01*
X29454191Y-319407D01*
G37*
%TD.AperFunction*%
%TD*%
M02*
