M48
; DRILL file {KiCad 9.0.9-9.0.9~ubuntu24.04.1} date 2026-10-02T14:06:50+0000
; FORMAT={-:-/ absolute / metric / decimal}
; #@! TF.CreationDate,2026-10-02T14:06:50+00:00
; #@! TF.GenerationSoftware,Kicad,Pcbnew,9.0.9-9.0.9~ubuntu24.04.1
; #@! TF.FileFunction,Plated,1,4,PTH
FMAT,2
METRIC
; #@! TA.AperFunction,Plated,PTH,ViaDrill
T1C0.250
; #@! TA.AperFunction,Plated,PTH,ComponentDrill
T2C0.400
; #@! TA.AperFunction,Plated,PTH,ComponentDrill
T3C0.600
; #@! TA.AperFunction,Plated,PTH,ComponentDrill
T4C0.750
; #@! TA.AperFunction,Plated,PTH,ComponentDrill
T5C1.000
%
G90
G05
T1
X4.3Y-12.695
X4.3Y-20.695
X4.3Y-36.695
X4.3Y-44.695
X4.3Y-52.695
X5.455Y-14.442
X6.737Y-20.161
X7.302Y-28.319
X8.15Y-11.695
X10.5Y-22.8
X10.5Y-24.65
X10.602Y-20.471
X10.602Y-28.319
X10.612Y-12.907
X11.028Y-2.565
X11.375Y-10.84
X12.3Y-20.695
X12.3Y-36.695
X12.3Y-44.695
X12.3Y-52.695
X12.324Y-5.687
X12.4Y-27.5
X13.095Y-29.518
X13.221Y-13.208
X13.8Y-21.85
X13.9Y-24.695
X14.078Y-2.565
X14.154Y-8.902
X14.3Y-3.295
X14.3Y-21.3
X14.495Y-16.772
X14.65Y-3.895
X14.9Y-20.095
X14.945Y-6.895
X15.05Y-23.65
X15.15Y-5.0
X15.3Y-25.2
X15.475Y-20.827
X15.708Y-28.818
X15.85Y-27.75
X16.1Y-18.75
X16.1Y-20.25
X16.41Y-27.12
X16.45Y-25.2
X16.758Y-9.671
X16.8Y-13.85
X16.85Y-25.6
X17.022Y-21.19
X17.1Y-24.695
X17.15Y-15.05
X17.37Y-2.595
X17.395Y-10.522
X17.424Y-5.77
X17.45Y-22.995
X17.75Y-29.0
X17.933Y-36.839
X18.15Y-23.1
X18.328Y-18.54
X18.35Y-16.15
X18.857Y-41.795
X19.15Y-12.622
X19.366Y-4.303
X19.65Y-25.8
X19.959Y-40.051
X19.959Y-43.539
X20.145Y-7.195
X20.3Y-4.695
X20.3Y-36.695
X20.3Y-44.695
X21.233Y-39.639
X21.3Y-16.895
X21.436Y-15.031
X21.629Y-18.84
X21.966Y-3.735
X22.246Y-9.265
X22.527Y-29.181
X22.9Y-9.295
X23.1Y-20.895
X23.1Y-29.495
X23.1Y-31.095
X23.3Y-18.895
X23.646Y-5.665
X23.7Y-34.334
X23.703Y-10.144
X23.703Y-13.194
X23.758Y-42.345
X23.919Y-36.86
X24.1Y-18.295
X24.226Y-20.922
X24.258Y-5.859
X24.44Y-9.484
X24.7Y-25.895
X24.97Y-23.175
X25.016Y-5.535
X25.158Y-9.109
X25.236Y-26.631
X25.236Y-30.159
X25.237Y-16.4
X25.394Y-1.349
X25.4Y-19.9
X25.645Y-13.07
X25.764Y-4.726
X25.774Y-9.14
X26.1Y-16.295
X26.1Y-23.295
X26.558Y-39.045
X26.587Y-19.75
X26.8Y-22.9
X27.24Y-12.434
X27.27Y-20.125
X27.564Y-1.676
X27.982Y-37.295
X27.985Y-30.733
X28.3Y-10.895
X28.3Y-44.695
X28.5Y-13.695
X28.5Y-24.295
X28.626Y-33.425
X28.7Y-11.345
X28.86Y-2.29
X28.86Y-15.3
X28.989Y-3.264
X29.077Y-5.783
X29.3Y-20.695
X29.352Y-9.766
X29.364Y-14.52
X29.373Y-6.859
X29.373Y-10.731
X29.49Y-4.026
X29.513Y-13.024
X29.52Y-2.735
X29.9Y-18.05
X30.852Y-34.525
X30.852Y-37.575
X30.9Y-21.895
X31.3Y-17.795
X31.3Y-20.695
X31.9Y-17.295
X31.9Y-21.895
X31.982Y-26.87
X32.051Y-32.124
X32.9Y-14.895
X32.9Y-19.895
X33.268Y-30.624
X34.25Y-29.695
X34.274Y-27.027
X34.695Y-8.795
X34.7Y-25.295
X34.945Y-30.45
X35.3Y-32.895
X35.836Y-6.014
X35.836Y-11.576
X35.9Y-27.095
X36.3Y-4.695
X36.3Y-36.695
X36.3Y-44.695
X36.3Y-52.695
X36.945Y-29.582
X37.345Y-6.145
X37.345Y-11.445
X38.316Y-16.788
X38.854Y-11.576
X39.1Y-32.895
X39.3Y-30.495
X39.804Y-26.682
X39.995Y-10.695
X40.045Y-9.695
X40.126Y-7.286
X40.16Y-29.845
X40.853Y-30.597
X41.231Y-21.516
X43.5Y-12.495
X44.3Y-20.695
X44.3Y-28.695
X44.3Y-36.695
X44.3Y-44.695
X44.522Y-16.608
X45.171Y-5.494
X45.177Y-4.566
X45.196Y-2.492
X48.645Y-20.92
X50.99Y-2.211
X51.016Y-20.689
X51.244Y-14.817
X51.244Y-22.917
X51.56Y-13.311
X51.56Y-21.411
X51.59Y-14.265
X51.59Y-22.365
X51.64Y-20.202
X52.714Y-11.232
X52.765Y-4.695
X52.765Y-28.695
X52.765Y-36.695
X52.765Y-44.695
X53.312Y-10.672
X53.9Y-49.495
X54.1Y-21.095
X55.1Y-23.895
X55.5Y-17.545
X57.474Y-17.55
X57.5Y-15.095
X57.5Y-21.495
X58.1Y-17.295
X58.384Y-10.488
X58.5Y-19.295
X58.626Y-18.652
X58.91Y-5.705
X59.9Y-10.495
X59.907Y-12.67
X60.023Y-8.2
X60.049Y-13.818
X60.104Y-24.295
X60.13Y-23.379
X60.765Y-4.695
X60.765Y-36.695
X60.765Y-44.695
X61.3Y-11.095
X61.334Y-16.523
X61.334Y-27.573
X61.664Y-29.626
X61.7Y-11.695
X61.784Y-20.973
X61.96Y-7.505
X62.973Y-7.2
X63.162Y-25.459
X63.589Y-19.875
X63.92Y-12.52
X64.134Y-24.323
X64.541Y-18.876
X64.579Y-20.459
X64.862Y-25.459
X66.066Y-23.037
X66.362Y-24.559
X67.012Y-10.23
X67.1Y-25.295
X67.45Y-14.695
X67.539Y-17.495
X68.1Y-17.895
X68.576Y-13.17
X68.765Y-4.695
X68.765Y-20.695
X68.765Y-28.695
X68.765Y-36.695
X68.765Y-44.695
X68.776Y-24.77
X69.5Y-17.495
X69.5Y-19.495
X70.9Y-49.495
X71.024Y-23.037
X72.5Y-21.495
X72.511Y-20.459
X74.1Y-17.695
X74.1Y-19.695
X74.401Y-17.065
X74.401Y-21.425
X74.9Y-23.695
X76.765Y-4.695
X76.765Y-12.695
X76.765Y-20.695
X76.765Y-28.695
X76.765Y-36.695
T2
X47.145Y-15.795
X49.545Y-15.795
T4
X3.345Y-3.995
X4.145Y-26.795
X4.145Y-28.795
X4.145Y-30.795
X4.145Y-32.795
X4.145Y-34.795
X5.345Y-3.995
X7.345Y-3.995
X13.845Y-52.995
X15.845Y-52.995
X17.845Y-52.995
X19.845Y-52.995
X53.345Y-50.995
X55.345Y-50.995
X61.845Y-50.995
X63.845Y-50.995
X69.845Y-50.995
X71.845Y-50.995
X77.945Y-43.995
X77.945Y-45.995
X77.945Y-47.995
X77.945Y-49.995
X77.945Y-51.995
X77.945Y-53.995
T5
X13.345Y-3.795
X13.345Y-6.195
X15.845Y-3.795
X15.845Y-6.195
X18.345Y-3.795
X18.345Y-6.195
T3
X33.025Y-31.74G85X33.025Y-32.84
G05
X33.025Y-36.17G85X33.025Y-36.77
G05
X41.665Y-31.74G85X41.665Y-32.84
G05
X41.665Y-36.17G85X41.665Y-36.77
G05
M30
