%TF.GenerationSoftware,KiCad,Pcbnew,9.0.9*%
%TF.CreationDate,2026-10-02T21:18:22+02:00*%
%TF.ProjectId,PinaBio-v2.0-ChatGPT,50696e61-4269-46f2-9d76-322e302d4368,SPEC-0.9*%
%TF.SameCoordinates,Original*%
%TF.FileFunction,Legend,Top*%
%TF.FilePolarity,Positive*%
%FSLAX46Y46*%
G04 Gerber Fmt 4.6, Leading zero omitted, Abs format (unit mm)*
G04 Created by KiCad (PCBNEW 9.0.9) date 2026-10-02 21:18:22*
%MOMM*%
%LPD*%
G01*
G04 APERTURE LIST*
%ADD10C,0.160000*%
%ADD11C,0.150000*%
%ADD12C,0.120000*%
G04 APERTURE END LIST*
D10*
X52880000Y-35120000D02*
X54320000Y-35120000D01*
X52880000Y-35280000D02*
X54480000Y-35280000D01*
X52880000Y-35440000D02*
X54640000Y-35440000D01*
X52880000Y-35600000D02*
X53360000Y-35600000D01*
X52880000Y-35760000D02*
X53360000Y-35760000D01*
X52880000Y-35920000D02*
X53200000Y-35920000D01*
X52880000Y-36080000D02*
X54640000Y-36080000D01*
X52880000Y-36240000D02*
X54480000Y-36240000D01*
X52880000Y-36400000D02*
X54320000Y-36400000D01*
X52880000Y-36560000D02*
X53360000Y-36560000D01*
X52880000Y-36720000D02*
X53360000Y-36720000D01*
X52880000Y-36880000D02*
X53360000Y-36880000D01*
X52880000Y-37040000D02*
X53200000Y-37040000D01*
X53840000Y-31280000D02*
X54000000Y-31280000D01*
X54000000Y-30640000D02*
X54160000Y-30640000D01*
X54000000Y-30800000D02*
X54000000Y-30800000D01*
X54000000Y-30960000D02*
X54000000Y-30960000D01*
X54000000Y-31120000D02*
X54000000Y-31120000D01*
X54000000Y-31440000D02*
X54000000Y-31440000D01*
X54000000Y-31600000D02*
X54480000Y-31600000D01*
X54000000Y-31760000D02*
X54000000Y-31760000D01*
X54000000Y-31920000D02*
X54320000Y-31920000D01*
X54160000Y-30480000D02*
X54480000Y-30480000D01*
X54160000Y-32080000D02*
X54320000Y-32080000D01*
X54160000Y-35600000D02*
X54640000Y-35600000D01*
X54160000Y-35760000D02*
X54640000Y-35760000D01*
X54160000Y-35920000D02*
X54640000Y-35920000D01*
X54320000Y-30160000D02*
X54640000Y-30160000D01*
X54320000Y-30320000D02*
X54320000Y-30320000D01*
X54320000Y-31120000D02*
X54800000Y-31120000D01*
X54320000Y-31280000D02*
X54800000Y-31280000D01*
X54320000Y-32240000D02*
X54320000Y-32240000D01*
X54320000Y-32400000D02*
X54640000Y-32400000D01*
X54480000Y-30640000D02*
X54640000Y-30640000D01*
X54480000Y-30960000D02*
X54480000Y-30960000D01*
X54480000Y-31440000D02*
X54480000Y-31440000D01*
X54640000Y-30000000D02*
X55760000Y-30000000D01*
X54640000Y-31760000D02*
X54960000Y-31760000D01*
X54640000Y-31920000D02*
X54640000Y-31920000D01*
X54640000Y-32240000D02*
X54960000Y-32240000D01*
X54640000Y-32560000D02*
X55760000Y-32560000D01*
X54800000Y-30320000D02*
X54960000Y-30320000D01*
X54800000Y-30480000D02*
X54800000Y-30480000D01*
X54800000Y-30960000D02*
X55280000Y-30960000D01*
X54800000Y-32080000D02*
X54960000Y-32080000D01*
X54960000Y-29840000D02*
X55760000Y-29840000D01*
X54960000Y-30800000D02*
X55120000Y-30800000D01*
X54960000Y-31600000D02*
X54960000Y-31600000D01*
X54960000Y-32720000D02*
X54960000Y-32720000D01*
X55120000Y-35120000D02*
X55600000Y-35120000D01*
X55120000Y-35280000D02*
X55600000Y-35280000D01*
X55120000Y-35440000D02*
X55600000Y-35440000D01*
X55120000Y-35600000D02*
X55600000Y-35600000D01*
X55120000Y-35760000D02*
X55600000Y-35760000D01*
X55120000Y-35920000D02*
X55600000Y-35920000D01*
X55120000Y-36080000D02*
X55600000Y-36080000D01*
X55120000Y-36240000D02*
X55600000Y-36240000D01*
X55120000Y-36400000D02*
X55600000Y-36400000D01*
X55120000Y-36560000D02*
X55600000Y-36560000D01*
X55120000Y-36720000D02*
X55600000Y-36720000D01*
X55120000Y-36880000D02*
X55600000Y-36880000D01*
X55280000Y-29200000D02*
X57680000Y-29200000D01*
X55280000Y-29360000D02*
X58160000Y-29360000D01*
X55280000Y-29520000D02*
X58320000Y-29520000D01*
X55280000Y-29680000D02*
X55760000Y-29680000D01*
X55280000Y-30160000D02*
X55760000Y-30160000D01*
X55280000Y-30320000D02*
X55760000Y-30320000D01*
X55280000Y-30480000D02*
X55760000Y-30480000D01*
X55280000Y-30640000D02*
X55760000Y-30640000D01*
X55280000Y-31120000D02*
X55760000Y-31120000D01*
X55280000Y-31280000D02*
X55440000Y-31280000D01*
X55280000Y-31760000D02*
X55280000Y-31760000D01*
X55280000Y-31920000D02*
X55760000Y-31920000D01*
X55280000Y-32080000D02*
X55760000Y-32080000D01*
X55280000Y-32240000D02*
X55760000Y-32240000D01*
X55280000Y-32400000D02*
X55760000Y-32400000D01*
X55280000Y-32720000D02*
X55760000Y-32720000D01*
X55280000Y-32880000D02*
X55760000Y-32880000D01*
X55280000Y-33040000D02*
X55760000Y-33040000D01*
X55280000Y-33200000D02*
X55760000Y-33200000D01*
X55280000Y-33360000D02*
X55760000Y-33360000D01*
X55280000Y-33520000D02*
X55760000Y-33520000D01*
X55280000Y-33680000D02*
X55760000Y-33680000D01*
X55280000Y-33840000D02*
X55760000Y-33840000D01*
X55280000Y-34000000D02*
X55760000Y-34000000D01*
X55280000Y-34160000D02*
X55760000Y-34160000D01*
X55280000Y-37040000D02*
X55600000Y-37040000D01*
X55440000Y-30800000D02*
X55760000Y-30800000D01*
X55440000Y-31440000D02*
X55600000Y-31440000D01*
X55440000Y-31600000D02*
X55920000Y-31600000D01*
X55600000Y-30960000D02*
X55760000Y-30960000D01*
X55760000Y-31760000D02*
X55760000Y-31760000D01*
X55920000Y-31280000D02*
X56080000Y-31280000D01*
X55920000Y-31440000D02*
X56080000Y-31440000D01*
X56080000Y-30800000D02*
X56400000Y-30800000D01*
X56080000Y-30960000D02*
X56560000Y-30960000D01*
X56080000Y-31120000D02*
X56080000Y-31120000D01*
X56240000Y-30640000D02*
X56400000Y-30640000D01*
X56240000Y-35120000D02*
X56720000Y-35120000D01*
X56240000Y-35280000D02*
X56880000Y-35280000D01*
X56240000Y-35440000D02*
X57040000Y-35440000D01*
X56240000Y-35600000D02*
X57200000Y-35600000D01*
X56240000Y-35760000D02*
X57360000Y-35760000D01*
X56240000Y-35920000D02*
X57520000Y-35920000D01*
X56240000Y-36080000D02*
X56720000Y-36080000D01*
X56240000Y-36240000D02*
X56720000Y-36240000D01*
X56240000Y-36400000D02*
X56720000Y-36400000D01*
X56240000Y-36560000D02*
X56720000Y-36560000D01*
X56240000Y-36720000D02*
X56720000Y-36720000D01*
X56240000Y-36880000D02*
X56720000Y-36880000D01*
X56400000Y-31120000D02*
X56560000Y-31120000D01*
X56400000Y-31280000D02*
X56880000Y-31280000D01*
X56400000Y-32720000D02*
X58160000Y-32720000D01*
X56400000Y-32880000D02*
X57840000Y-32880000D01*
X56400000Y-37040000D02*
X56720000Y-37040000D01*
X56560000Y-31440000D02*
X56880000Y-31440000D01*
X56560000Y-31600000D02*
X56880000Y-31600000D01*
X56560000Y-31760000D02*
X56720000Y-31760000D01*
X56560000Y-33040000D02*
X57360000Y-33040000D01*
X56880000Y-30480000D02*
X57200000Y-30480000D01*
X56880000Y-30640000D02*
X57360000Y-30640000D01*
X56880000Y-30800000D02*
X57360000Y-30800000D01*
X56880000Y-30960000D02*
X56880000Y-30960000D01*
X56880000Y-31120000D02*
X56880000Y-31120000D01*
X57040000Y-30000000D02*
X57200000Y-30000000D01*
X57040000Y-30160000D02*
X57200000Y-30160000D01*
X57040000Y-30320000D02*
X57200000Y-30320000D01*
X57040000Y-36080000D02*
X58160000Y-36080000D01*
X57200000Y-30960000D02*
X57360000Y-30960000D01*
X57200000Y-32560000D02*
X58480000Y-32560000D01*
X57200000Y-36240000D02*
X58160000Y-36240000D01*
X57360000Y-31120000D02*
X57360000Y-31120000D01*
X57360000Y-31280000D02*
X59440000Y-31280000D01*
X57360000Y-31440000D02*
X57680000Y-31440000D01*
X57360000Y-31600000D02*
X57680000Y-31600000D01*
X57360000Y-31760000D02*
X57680000Y-31760000D01*
X57360000Y-36400000D02*
X58160000Y-36400000D01*
X57360000Y-36560000D02*
X58160000Y-36560000D01*
X57520000Y-31920000D02*
X57520000Y-31920000D01*
X57520000Y-36720000D02*
X58160000Y-36720000D01*
X57680000Y-29680000D02*
X58480000Y-29680000D01*
X57680000Y-30960000D02*
X58000000Y-30960000D01*
X57680000Y-31120000D02*
X58160000Y-31120000D01*
X57680000Y-36880000D02*
X58160000Y-36880000D01*
X57840000Y-30800000D02*
X57840000Y-30800000D01*
X57840000Y-32400000D02*
X58640000Y-32400000D01*
X57840000Y-35120000D02*
X58160000Y-35120000D01*
X57840000Y-35280000D02*
X58160000Y-35280000D01*
X57840000Y-35440000D02*
X58160000Y-35440000D01*
X57840000Y-35600000D02*
X58160000Y-35600000D01*
X57840000Y-35760000D02*
X58160000Y-35760000D01*
X57840000Y-35920000D02*
X58160000Y-35920000D01*
X57840000Y-37040000D02*
X58160000Y-37040000D01*
X58000000Y-29840000D02*
X58640000Y-29840000D01*
X58160000Y-30000000D02*
X58960000Y-30000000D01*
X58160000Y-32240000D02*
X58640000Y-32240000D01*
X58320000Y-30160000D02*
X59120000Y-30160000D01*
X58320000Y-31920000D02*
X58960000Y-31920000D01*
X58320000Y-32080000D02*
X59120000Y-32080000D01*
X58480000Y-30320000D02*
X58960000Y-30320000D01*
X58480000Y-30480000D02*
X58960000Y-30480000D01*
X58480000Y-30640000D02*
X58960000Y-30640000D01*
X58480000Y-30800000D02*
X59120000Y-30800000D01*
X58480000Y-31600000D02*
X58960000Y-31600000D01*
X58480000Y-31760000D02*
X58960000Y-31760000D01*
X58640000Y-30960000D02*
X58960000Y-30960000D01*
X58640000Y-36880000D02*
X59120000Y-36880000D01*
X58640000Y-37040000D02*
X59120000Y-37040000D01*
X58800000Y-36560000D02*
X60720000Y-36560000D01*
X58800000Y-36720000D02*
X59280000Y-36720000D01*
X58960000Y-36240000D02*
X60560000Y-36240000D01*
X58960000Y-36400000D02*
X60720000Y-36400000D01*
X59120000Y-32240000D02*
X59280000Y-32240000D01*
X59120000Y-35920000D02*
X59600000Y-35920000D01*
X59120000Y-36080000D02*
X59440000Y-36080000D01*
X59280000Y-30320000D02*
X59600000Y-30320000D01*
X59280000Y-30480000D02*
X59440000Y-30480000D01*
X59280000Y-32400000D02*
X59440000Y-32400000D01*
X59280000Y-35600000D02*
X60240000Y-35600000D01*
X59280000Y-35760000D02*
X59600000Y-35760000D01*
X59440000Y-35280000D02*
X60240000Y-35280000D01*
X59440000Y-35440000D02*
X60240000Y-35440000D01*
X59600000Y-30160000D02*
X60400000Y-30160000D01*
X59600000Y-32240000D02*
X59760000Y-32240000D01*
X59600000Y-35120000D02*
X60080000Y-35120000D01*
X59760000Y-32080000D02*
X59920000Y-32080000D01*
X59920000Y-30000000D02*
X60080000Y-30000000D01*
X59920000Y-31920000D02*
X60080000Y-31920000D01*
X59920000Y-35760000D02*
X60400000Y-35760000D01*
X60080000Y-31760000D02*
X60240000Y-31760000D01*
X60080000Y-35920000D02*
X60400000Y-35920000D01*
X60080000Y-36080000D02*
X60560000Y-36080000D01*
X60240000Y-31600000D02*
X60400000Y-31600000D01*
X60400000Y-30320000D02*
X60560000Y-30320000D01*
X60400000Y-31440000D02*
X60400000Y-31440000D01*
X60400000Y-36720000D02*
X60880000Y-36720000D01*
X60400000Y-36880000D02*
X60880000Y-36880000D01*
X60560000Y-30480000D02*
X60720000Y-30480000D01*
X60560000Y-30640000D02*
X60720000Y-30640000D01*
X60560000Y-30960000D02*
X60720000Y-30960000D01*
X60560000Y-31120000D02*
X60720000Y-31120000D01*
X60560000Y-31280000D02*
X60560000Y-31280000D01*
X60560000Y-37040000D02*
X61040000Y-37040000D01*
X60720000Y-30800000D02*
X60720000Y-30800000D01*
D11*
X2964048Y-8073866D02*
X3725953Y-8073866D01*
X3345000Y-8454819D02*
X3345000Y-7692914D01*
X4964048Y-8073866D02*
X5725953Y-8073866D01*
X6419048Y-26868866D02*
X7180953Y-26868866D01*
X6800000Y-27249819D02*
X6800000Y-26487914D01*
X7059286Y-7454819D02*
X7630714Y-7454819D01*
X7345000Y-8454819D02*
X7345000Y-7454819D01*
X8738095Y-28297438D02*
X8642857Y-28249819D01*
X8642857Y-28249819D02*
X8500000Y-28249819D01*
X8500000Y-28249819D02*
X8357143Y-28297438D01*
X8357143Y-28297438D02*
X8261905Y-28392676D01*
X8261905Y-28392676D02*
X8214286Y-28487914D01*
X8214286Y-28487914D02*
X8166667Y-28678390D01*
X8166667Y-28678390D02*
X8166667Y-28821247D01*
X8166667Y-28821247D02*
X8214286Y-29011723D01*
X8214286Y-29011723D02*
X8261905Y-29106961D01*
X8261905Y-29106961D02*
X8357143Y-29202200D01*
X8357143Y-29202200D02*
X8500000Y-29249819D01*
X8500000Y-29249819D02*
X8595238Y-29249819D01*
X8595238Y-29249819D02*
X8738095Y-29202200D01*
X8738095Y-29202200D02*
X8785714Y-29154580D01*
X8785714Y-29154580D02*
X8785714Y-28821247D01*
X8785714Y-28821247D02*
X8595238Y-28821247D01*
X9214286Y-29249819D02*
X9214286Y-28249819D01*
X9214286Y-28249819D02*
X9785714Y-29249819D01*
X9785714Y-29249819D02*
X9785714Y-28249819D01*
X10261905Y-29249819D02*
X10261905Y-28249819D01*
X10261905Y-28249819D02*
X10500000Y-28249819D01*
X10500000Y-28249819D02*
X10642857Y-28297438D01*
X10642857Y-28297438D02*
X10738095Y-28392676D01*
X10738095Y-28392676D02*
X10785714Y-28487914D01*
X10785714Y-28487914D02*
X10833333Y-28678390D01*
X10833333Y-28678390D02*
X10833333Y-28821247D01*
X10833333Y-28821247D02*
X10785714Y-29011723D01*
X10785714Y-29011723D02*
X10738095Y-29106961D01*
X10738095Y-29106961D02*
X10642857Y-29202200D01*
X10642857Y-29202200D02*
X10500000Y-29249819D01*
X10500000Y-29249819D02*
X10261905Y-29249819D01*
X8309524Y-31202200D02*
X8452381Y-31249819D01*
X8452381Y-31249819D02*
X8690476Y-31249819D01*
X8690476Y-31249819D02*
X8785714Y-31202200D01*
X8785714Y-31202200D02*
X8833333Y-31154580D01*
X8833333Y-31154580D02*
X8880952Y-31059342D01*
X8880952Y-31059342D02*
X8880952Y-30964104D01*
X8880952Y-30964104D02*
X8833333Y-30868866D01*
X8833333Y-30868866D02*
X8785714Y-30821247D01*
X8785714Y-30821247D02*
X8690476Y-30773628D01*
X8690476Y-30773628D02*
X8500000Y-30726009D01*
X8500000Y-30726009D02*
X8404762Y-30678390D01*
X8404762Y-30678390D02*
X8357143Y-30630771D01*
X8357143Y-30630771D02*
X8309524Y-30535533D01*
X8309524Y-30535533D02*
X8309524Y-30440295D01*
X8309524Y-30440295D02*
X8357143Y-30345057D01*
X8357143Y-30345057D02*
X8404762Y-30297438D01*
X8404762Y-30297438D02*
X8500000Y-30249819D01*
X8500000Y-30249819D02*
X8738095Y-30249819D01*
X8738095Y-30249819D02*
X8880952Y-30297438D01*
X9880952Y-31154580D02*
X9833333Y-31202200D01*
X9833333Y-31202200D02*
X9690476Y-31249819D01*
X9690476Y-31249819D02*
X9595238Y-31249819D01*
X9595238Y-31249819D02*
X9452381Y-31202200D01*
X9452381Y-31202200D02*
X9357143Y-31106961D01*
X9357143Y-31106961D02*
X9309524Y-31011723D01*
X9309524Y-31011723D02*
X9261905Y-30821247D01*
X9261905Y-30821247D02*
X9261905Y-30678390D01*
X9261905Y-30678390D02*
X9309524Y-30487914D01*
X9309524Y-30487914D02*
X9357143Y-30392676D01*
X9357143Y-30392676D02*
X9452381Y-30297438D01*
X9452381Y-30297438D02*
X9595238Y-30249819D01*
X9595238Y-30249819D02*
X9690476Y-30249819D01*
X9690476Y-30249819D02*
X9833333Y-30297438D01*
X9833333Y-30297438D02*
X9880952Y-30345057D01*
X10785714Y-31249819D02*
X10309524Y-31249819D01*
X10309524Y-31249819D02*
X10309524Y-30249819D01*
X8285714Y-33202200D02*
X8428571Y-33249819D01*
X8428571Y-33249819D02*
X8666666Y-33249819D01*
X8666666Y-33249819D02*
X8761904Y-33202200D01*
X8761904Y-33202200D02*
X8809523Y-33154580D01*
X8809523Y-33154580D02*
X8857142Y-33059342D01*
X8857142Y-33059342D02*
X8857142Y-32964104D01*
X8857142Y-32964104D02*
X8809523Y-32868866D01*
X8809523Y-32868866D02*
X8761904Y-32821247D01*
X8761904Y-32821247D02*
X8666666Y-32773628D01*
X8666666Y-32773628D02*
X8476190Y-32726009D01*
X8476190Y-32726009D02*
X8380952Y-32678390D01*
X8380952Y-32678390D02*
X8333333Y-32630771D01*
X8333333Y-32630771D02*
X8285714Y-32535533D01*
X8285714Y-32535533D02*
X8285714Y-32440295D01*
X8285714Y-32440295D02*
X8333333Y-32345057D01*
X8333333Y-32345057D02*
X8380952Y-32297438D01*
X8380952Y-32297438D02*
X8476190Y-32249819D01*
X8476190Y-32249819D02*
X8714285Y-32249819D01*
X8714285Y-32249819D02*
X8857142Y-32297438D01*
X9285714Y-33249819D02*
X9285714Y-32249819D01*
X9285714Y-32249819D02*
X9523809Y-32249819D01*
X9523809Y-32249819D02*
X9666666Y-32297438D01*
X9666666Y-32297438D02*
X9761904Y-32392676D01*
X9761904Y-32392676D02*
X9809523Y-32487914D01*
X9809523Y-32487914D02*
X9857142Y-32678390D01*
X9857142Y-32678390D02*
X9857142Y-32821247D01*
X9857142Y-32821247D02*
X9809523Y-33011723D01*
X9809523Y-33011723D02*
X9761904Y-33106961D01*
X9761904Y-33106961D02*
X9666666Y-33202200D01*
X9666666Y-33202200D02*
X9523809Y-33249819D01*
X9523809Y-33249819D02*
X9285714Y-33249819D01*
X10238095Y-32964104D02*
X10714285Y-32964104D01*
X10142857Y-33249819D02*
X10476190Y-32249819D01*
X10476190Y-32249819D02*
X10809523Y-33249819D01*
X8595238Y-35249819D02*
X8595238Y-34249819D01*
X9071428Y-35249819D02*
X9071428Y-34249819D01*
X9071428Y-34249819D02*
X9642856Y-35249819D01*
X9642856Y-35249819D02*
X9642856Y-34249819D01*
X9976190Y-34249819D02*
X10547618Y-34249819D01*
X10261904Y-35249819D02*
X10261904Y-34249819D01*
X81238095Y-38997438D02*
X81142857Y-38949819D01*
X81142857Y-38949819D02*
X81000000Y-38949819D01*
X81000000Y-38949819D02*
X80857143Y-38997438D01*
X80857143Y-38997438D02*
X80761905Y-39092676D01*
X80761905Y-39092676D02*
X80714286Y-39187914D01*
X80714286Y-39187914D02*
X80666667Y-39378390D01*
X80666667Y-39378390D02*
X80666667Y-39521247D01*
X80666667Y-39521247D02*
X80714286Y-39711723D01*
X80714286Y-39711723D02*
X80761905Y-39806961D01*
X80761905Y-39806961D02*
X80857143Y-39902200D01*
X80857143Y-39902200D02*
X81000000Y-39949819D01*
X81000000Y-39949819D02*
X81095238Y-39949819D01*
X81095238Y-39949819D02*
X81238095Y-39902200D01*
X81238095Y-39902200D02*
X81285714Y-39854580D01*
X81285714Y-39854580D02*
X81285714Y-39521247D01*
X81285714Y-39521247D02*
X81095238Y-39521247D01*
X81714286Y-39949819D02*
X81714286Y-38949819D01*
X81714286Y-38949819D02*
X82285714Y-39949819D01*
X82285714Y-39949819D02*
X82285714Y-38949819D01*
X82761905Y-39949819D02*
X82761905Y-38949819D01*
X82761905Y-38949819D02*
X83000000Y-38949819D01*
X83000000Y-38949819D02*
X83142857Y-38997438D01*
X83142857Y-38997438D02*
X83238095Y-39092676D01*
X83238095Y-39092676D02*
X83285714Y-39187914D01*
X83285714Y-39187914D02*
X83333333Y-39378390D01*
X83333333Y-39378390D02*
X83333333Y-39521247D01*
X83333333Y-39521247D02*
X83285714Y-39711723D01*
X83285714Y-39711723D02*
X83238095Y-39806961D01*
X83238095Y-39806961D02*
X83142857Y-39902200D01*
X83142857Y-39902200D02*
X83000000Y-39949819D01*
X83000000Y-39949819D02*
X82761905Y-39949819D01*
X80761905Y-40949819D02*
X81380952Y-40949819D01*
X81380952Y-40949819D02*
X81047619Y-41330771D01*
X81047619Y-41330771D02*
X81190476Y-41330771D01*
X81190476Y-41330771D02*
X81285714Y-41378390D01*
X81285714Y-41378390D02*
X81333333Y-41426009D01*
X81333333Y-41426009D02*
X81380952Y-41521247D01*
X81380952Y-41521247D02*
X81380952Y-41759342D01*
X81380952Y-41759342D02*
X81333333Y-41854580D01*
X81333333Y-41854580D02*
X81285714Y-41902200D01*
X81285714Y-41902200D02*
X81190476Y-41949819D01*
X81190476Y-41949819D02*
X80904762Y-41949819D01*
X80904762Y-41949819D02*
X80809524Y-41902200D01*
X80809524Y-41902200D02*
X80761905Y-41854580D01*
X81666667Y-40949819D02*
X82000000Y-41949819D01*
X82000000Y-41949819D02*
X82333333Y-40949819D01*
X82571429Y-40949819D02*
X83190476Y-40949819D01*
X83190476Y-40949819D02*
X82857143Y-41330771D01*
X82857143Y-41330771D02*
X83000000Y-41330771D01*
X83000000Y-41330771D02*
X83095238Y-41378390D01*
X83095238Y-41378390D02*
X83142857Y-41426009D01*
X83142857Y-41426009D02*
X83190476Y-41521247D01*
X83190476Y-41521247D02*
X83190476Y-41759342D01*
X83190476Y-41759342D02*
X83142857Y-41854580D01*
X83142857Y-41854580D02*
X83095238Y-41902200D01*
X83095238Y-41902200D02*
X83000000Y-41949819D01*
X83000000Y-41949819D02*
X82714286Y-41949819D01*
X82714286Y-41949819D02*
X82619048Y-41902200D01*
X82619048Y-41902200D02*
X82571429Y-41854580D01*
X81000000Y-42949819D02*
X81190476Y-42949819D01*
X81190476Y-42949819D02*
X81285714Y-42997438D01*
X81285714Y-42997438D02*
X81380952Y-43092676D01*
X81380952Y-43092676D02*
X81428571Y-43283152D01*
X81428571Y-43283152D02*
X81428571Y-43616485D01*
X81428571Y-43616485D02*
X81380952Y-43806961D01*
X81380952Y-43806961D02*
X81285714Y-43902200D01*
X81285714Y-43902200D02*
X81190476Y-43949819D01*
X81190476Y-43949819D02*
X81000000Y-43949819D01*
X81000000Y-43949819D02*
X80904762Y-43902200D01*
X80904762Y-43902200D02*
X80809524Y-43806961D01*
X80809524Y-43806961D02*
X80761905Y-43616485D01*
X80761905Y-43616485D02*
X80761905Y-43283152D01*
X80761905Y-43283152D02*
X80809524Y-43092676D01*
X80809524Y-43092676D02*
X80904762Y-42997438D01*
X80904762Y-42997438D02*
X81000000Y-42949819D01*
X81857143Y-42949819D02*
X81857143Y-43759342D01*
X81857143Y-43759342D02*
X81904762Y-43854580D01*
X81904762Y-43854580D02*
X81952381Y-43902200D01*
X81952381Y-43902200D02*
X82047619Y-43949819D01*
X82047619Y-43949819D02*
X82238095Y-43949819D01*
X82238095Y-43949819D02*
X82333333Y-43902200D01*
X82333333Y-43902200D02*
X82380952Y-43854580D01*
X82380952Y-43854580D02*
X82428571Y-43759342D01*
X82428571Y-43759342D02*
X82428571Y-42949819D01*
X82761905Y-42949819D02*
X83333333Y-42949819D01*
X83047619Y-43949819D02*
X83047619Y-42949819D01*
X81166666Y-45949819D02*
X80690476Y-45949819D01*
X80690476Y-45949819D02*
X80690476Y-44949819D01*
X81690476Y-44949819D02*
X81880952Y-44949819D01*
X81880952Y-44949819D02*
X81976190Y-44997438D01*
X81976190Y-44997438D02*
X82071428Y-45092676D01*
X82071428Y-45092676D02*
X82119047Y-45283152D01*
X82119047Y-45283152D02*
X82119047Y-45616485D01*
X82119047Y-45616485D02*
X82071428Y-45806961D01*
X82071428Y-45806961D02*
X81976190Y-45902200D01*
X81976190Y-45902200D02*
X81880952Y-45949819D01*
X81880952Y-45949819D02*
X81690476Y-45949819D01*
X81690476Y-45949819D02*
X81595238Y-45902200D01*
X81595238Y-45902200D02*
X81500000Y-45806961D01*
X81500000Y-45806961D02*
X81452381Y-45616485D01*
X81452381Y-45616485D02*
X81452381Y-45283152D01*
X81452381Y-45283152D02*
X81500000Y-45092676D01*
X81500000Y-45092676D02*
X81595238Y-44997438D01*
X81595238Y-44997438D02*
X81690476Y-44949819D01*
X82547619Y-45568866D02*
X83309524Y-45568866D01*
X81166666Y-47949819D02*
X80690476Y-47949819D01*
X80690476Y-47949819D02*
X80690476Y-46949819D01*
X81690476Y-46949819D02*
X81880952Y-46949819D01*
X81880952Y-46949819D02*
X81976190Y-46997438D01*
X81976190Y-46997438D02*
X82071428Y-47092676D01*
X82071428Y-47092676D02*
X82119047Y-47283152D01*
X82119047Y-47283152D02*
X82119047Y-47616485D01*
X82119047Y-47616485D02*
X82071428Y-47806961D01*
X82071428Y-47806961D02*
X81976190Y-47902200D01*
X81976190Y-47902200D02*
X81880952Y-47949819D01*
X81880952Y-47949819D02*
X81690476Y-47949819D01*
X81690476Y-47949819D02*
X81595238Y-47902200D01*
X81595238Y-47902200D02*
X81500000Y-47806961D01*
X81500000Y-47806961D02*
X81452381Y-47616485D01*
X81452381Y-47616485D02*
X81452381Y-47283152D01*
X81452381Y-47283152D02*
X81500000Y-47092676D01*
X81500000Y-47092676D02*
X81595238Y-46997438D01*
X81595238Y-46997438D02*
X81690476Y-46949819D01*
X82547619Y-47568866D02*
X83309524Y-47568866D01*
X82928571Y-47949819D02*
X82928571Y-47187914D01*
X80690476Y-49902200D02*
X80833333Y-49949819D01*
X80833333Y-49949819D02*
X81071428Y-49949819D01*
X81071428Y-49949819D02*
X81166666Y-49902200D01*
X81166666Y-49902200D02*
X81214285Y-49854580D01*
X81214285Y-49854580D02*
X81261904Y-49759342D01*
X81261904Y-49759342D02*
X81261904Y-49664104D01*
X81261904Y-49664104D02*
X81214285Y-49568866D01*
X81214285Y-49568866D02*
X81166666Y-49521247D01*
X81166666Y-49521247D02*
X81071428Y-49473628D01*
X81071428Y-49473628D02*
X80880952Y-49426009D01*
X80880952Y-49426009D02*
X80785714Y-49378390D01*
X80785714Y-49378390D02*
X80738095Y-49330771D01*
X80738095Y-49330771D02*
X80690476Y-49235533D01*
X80690476Y-49235533D02*
X80690476Y-49140295D01*
X80690476Y-49140295D02*
X80738095Y-49045057D01*
X80738095Y-49045057D02*
X80785714Y-48997438D01*
X80785714Y-48997438D02*
X80880952Y-48949819D01*
X80880952Y-48949819D02*
X81119047Y-48949819D01*
X81119047Y-48949819D02*
X81261904Y-48997438D01*
X81690476Y-49949819D02*
X81690476Y-48949819D01*
X81690476Y-48949819D02*
X81928571Y-48949819D01*
X81928571Y-48949819D02*
X82071428Y-48997438D01*
X82071428Y-48997438D02*
X82166666Y-49092676D01*
X82166666Y-49092676D02*
X82214285Y-49187914D01*
X82214285Y-49187914D02*
X82261904Y-49378390D01*
X82261904Y-49378390D02*
X82261904Y-49521247D01*
X82261904Y-49521247D02*
X82214285Y-49711723D01*
X82214285Y-49711723D02*
X82166666Y-49806961D01*
X82166666Y-49806961D02*
X82071428Y-49902200D01*
X82071428Y-49902200D02*
X81928571Y-49949819D01*
X81928571Y-49949819D02*
X81690476Y-49949819D01*
X82690476Y-49949819D02*
X82690476Y-48949819D01*
X82690476Y-48949819D02*
X83261904Y-49949819D01*
X83261904Y-49949819D02*
X83261904Y-48949819D01*
X4131009Y-40357142D02*
X4178628Y-40214285D01*
X4178628Y-40214285D02*
X4226247Y-40166666D01*
X4226247Y-40166666D02*
X4321485Y-40119047D01*
X4321485Y-40119047D02*
X4464342Y-40119047D01*
X4464342Y-40119047D02*
X4559580Y-40166666D01*
X4559580Y-40166666D02*
X4607200Y-40214285D01*
X4607200Y-40214285D02*
X4654819Y-40309523D01*
X4654819Y-40309523D02*
X4654819Y-40690475D01*
X4654819Y-40690475D02*
X3654819Y-40690475D01*
X3654819Y-40690475D02*
X3654819Y-40357142D01*
X3654819Y-40357142D02*
X3702438Y-40261904D01*
X3702438Y-40261904D02*
X3750057Y-40214285D01*
X3750057Y-40214285D02*
X3845295Y-40166666D01*
X3845295Y-40166666D02*
X3940533Y-40166666D01*
X3940533Y-40166666D02*
X4035771Y-40214285D01*
X4035771Y-40214285D02*
X4083390Y-40261904D01*
X4083390Y-40261904D02*
X4131009Y-40357142D01*
X4131009Y-40357142D02*
X4131009Y-40690475D01*
X4369104Y-39738094D02*
X4369104Y-39261904D01*
X4654819Y-39833332D02*
X3654819Y-39499999D01*
X3654819Y-39499999D02*
X4654819Y-39166666D01*
X3654819Y-38976189D02*
X3654819Y-38404761D01*
X4654819Y-38690475D02*
X3654819Y-38690475D01*
X4273866Y-38071427D02*
X4273866Y-37309523D01*
X4654819Y-37690475D02*
X3892914Y-37690475D01*
X5702438Y-39761904D02*
X5654819Y-39857142D01*
X5654819Y-39857142D02*
X5654819Y-39999999D01*
X5654819Y-39999999D02*
X5702438Y-40142856D01*
X5702438Y-40142856D02*
X5797676Y-40238094D01*
X5797676Y-40238094D02*
X5892914Y-40285713D01*
X5892914Y-40285713D02*
X6083390Y-40333332D01*
X6083390Y-40333332D02*
X6226247Y-40333332D01*
X6226247Y-40333332D02*
X6416723Y-40285713D01*
X6416723Y-40285713D02*
X6511961Y-40238094D01*
X6511961Y-40238094D02*
X6607200Y-40142856D01*
X6607200Y-40142856D02*
X6654819Y-39999999D01*
X6654819Y-39999999D02*
X6654819Y-39904761D01*
X6654819Y-39904761D02*
X6607200Y-39761904D01*
X6607200Y-39761904D02*
X6559580Y-39714285D01*
X6559580Y-39714285D02*
X6226247Y-39714285D01*
X6226247Y-39714285D02*
X6226247Y-39904761D01*
X6654819Y-39285713D02*
X5654819Y-39285713D01*
X5654819Y-39285713D02*
X6654819Y-38714285D01*
X6654819Y-38714285D02*
X5654819Y-38714285D01*
X6654819Y-38238094D02*
X5654819Y-38238094D01*
X5654819Y-38238094D02*
X5654819Y-37999999D01*
X5654819Y-37999999D02*
X5702438Y-37857142D01*
X5702438Y-37857142D02*
X5797676Y-37761904D01*
X5797676Y-37761904D02*
X5892914Y-37714285D01*
X5892914Y-37714285D02*
X6083390Y-37666666D01*
X6083390Y-37666666D02*
X6226247Y-37666666D01*
X6226247Y-37666666D02*
X6416723Y-37714285D01*
X6416723Y-37714285D02*
X6511961Y-37761904D01*
X6511961Y-37761904D02*
X6607200Y-37857142D01*
X6607200Y-37857142D02*
X6654819Y-37999999D01*
X6654819Y-37999999D02*
X6654819Y-38238094D01*
X13299819Y-53138094D02*
X13299819Y-52519047D01*
X13299819Y-52519047D02*
X13680771Y-52852380D01*
X13680771Y-52852380D02*
X13680771Y-52709523D01*
X13680771Y-52709523D02*
X13728390Y-52614285D01*
X13728390Y-52614285D02*
X13776009Y-52566666D01*
X13776009Y-52566666D02*
X13871247Y-52519047D01*
X13871247Y-52519047D02*
X14109342Y-52519047D01*
X14109342Y-52519047D02*
X14204580Y-52566666D01*
X14204580Y-52566666D02*
X14252200Y-52614285D01*
X14252200Y-52614285D02*
X14299819Y-52709523D01*
X14299819Y-52709523D02*
X14299819Y-52995237D01*
X14299819Y-52995237D02*
X14252200Y-53090475D01*
X14252200Y-53090475D02*
X14204580Y-53138094D01*
X13299819Y-52233332D02*
X14299819Y-51899999D01*
X14299819Y-51899999D02*
X13299819Y-51566666D01*
X13299819Y-51042856D02*
X13299819Y-50947618D01*
X13299819Y-50947618D02*
X13347438Y-50852380D01*
X13347438Y-50852380D02*
X13395057Y-50804761D01*
X13395057Y-50804761D02*
X13490295Y-50757142D01*
X13490295Y-50757142D02*
X13680771Y-50709523D01*
X13680771Y-50709523D02*
X13918866Y-50709523D01*
X13918866Y-50709523D02*
X14109342Y-50757142D01*
X14109342Y-50757142D02*
X14204580Y-50804761D01*
X14204580Y-50804761D02*
X14252200Y-50852380D01*
X14252200Y-50852380D02*
X14299819Y-50947618D01*
X14299819Y-50947618D02*
X14299819Y-51042856D01*
X14299819Y-51042856D02*
X14252200Y-51138094D01*
X14252200Y-51138094D02*
X14204580Y-51185713D01*
X14204580Y-51185713D02*
X14109342Y-51233332D01*
X14109342Y-51233332D02*
X13918866Y-51280951D01*
X13918866Y-51280951D02*
X13680771Y-51280951D01*
X13680771Y-51280951D02*
X13490295Y-51233332D01*
X13490295Y-51233332D02*
X13395057Y-51185713D01*
X13395057Y-51185713D02*
X13347438Y-51138094D01*
X13347438Y-51138094D02*
X13299819Y-51042856D01*
X15347438Y-52661904D02*
X15299819Y-52757142D01*
X15299819Y-52757142D02*
X15299819Y-52899999D01*
X15299819Y-52899999D02*
X15347438Y-53042856D01*
X15347438Y-53042856D02*
X15442676Y-53138094D01*
X15442676Y-53138094D02*
X15537914Y-53185713D01*
X15537914Y-53185713D02*
X15728390Y-53233332D01*
X15728390Y-53233332D02*
X15871247Y-53233332D01*
X15871247Y-53233332D02*
X16061723Y-53185713D01*
X16061723Y-53185713D02*
X16156961Y-53138094D01*
X16156961Y-53138094D02*
X16252200Y-53042856D01*
X16252200Y-53042856D02*
X16299819Y-52899999D01*
X16299819Y-52899999D02*
X16299819Y-52804761D01*
X16299819Y-52804761D02*
X16252200Y-52661904D01*
X16252200Y-52661904D02*
X16204580Y-52614285D01*
X16204580Y-52614285D02*
X15871247Y-52614285D01*
X15871247Y-52614285D02*
X15871247Y-52804761D01*
X16299819Y-52185713D02*
X15299819Y-52185713D01*
X15299819Y-52185713D02*
X16299819Y-51614285D01*
X16299819Y-51614285D02*
X15299819Y-51614285D01*
X16299819Y-51138094D02*
X15299819Y-51138094D01*
X15299819Y-51138094D02*
X15299819Y-50899999D01*
X15299819Y-50899999D02*
X15347438Y-50757142D01*
X15347438Y-50757142D02*
X15442676Y-50661904D01*
X15442676Y-50661904D02*
X15537914Y-50614285D01*
X15537914Y-50614285D02*
X15728390Y-50566666D01*
X15728390Y-50566666D02*
X15871247Y-50566666D01*
X15871247Y-50566666D02*
X16061723Y-50614285D01*
X16061723Y-50614285D02*
X16156961Y-50661904D01*
X16156961Y-50661904D02*
X16252200Y-50757142D01*
X16252200Y-50757142D02*
X16299819Y-50899999D01*
X16299819Y-50899999D02*
X16299819Y-51138094D01*
X18252200Y-53114285D02*
X18299819Y-52971428D01*
X18299819Y-52971428D02*
X18299819Y-52733333D01*
X18299819Y-52733333D02*
X18252200Y-52638095D01*
X18252200Y-52638095D02*
X18204580Y-52590476D01*
X18204580Y-52590476D02*
X18109342Y-52542857D01*
X18109342Y-52542857D02*
X18014104Y-52542857D01*
X18014104Y-52542857D02*
X17918866Y-52590476D01*
X17918866Y-52590476D02*
X17871247Y-52638095D01*
X17871247Y-52638095D02*
X17823628Y-52733333D01*
X17823628Y-52733333D02*
X17776009Y-52923809D01*
X17776009Y-52923809D02*
X17728390Y-53019047D01*
X17728390Y-53019047D02*
X17680771Y-53066666D01*
X17680771Y-53066666D02*
X17585533Y-53114285D01*
X17585533Y-53114285D02*
X17490295Y-53114285D01*
X17490295Y-53114285D02*
X17395057Y-53066666D01*
X17395057Y-53066666D02*
X17347438Y-53019047D01*
X17347438Y-53019047D02*
X17299819Y-52923809D01*
X17299819Y-52923809D02*
X17299819Y-52685714D01*
X17299819Y-52685714D02*
X17347438Y-52542857D01*
X18299819Y-52114285D02*
X17299819Y-52114285D01*
X17299819Y-52114285D02*
X17299819Y-51876190D01*
X17299819Y-51876190D02*
X17347438Y-51733333D01*
X17347438Y-51733333D02*
X17442676Y-51638095D01*
X17442676Y-51638095D02*
X17537914Y-51590476D01*
X17537914Y-51590476D02*
X17728390Y-51542857D01*
X17728390Y-51542857D02*
X17871247Y-51542857D01*
X17871247Y-51542857D02*
X18061723Y-51590476D01*
X18061723Y-51590476D02*
X18156961Y-51638095D01*
X18156961Y-51638095D02*
X18252200Y-51733333D01*
X18252200Y-51733333D02*
X18299819Y-51876190D01*
X18299819Y-51876190D02*
X18299819Y-52114285D01*
X18014104Y-51161904D02*
X18014104Y-50685714D01*
X18299819Y-51257142D02*
X17299819Y-50923809D01*
X17299819Y-50923809D02*
X18299819Y-50590476D01*
X20252200Y-53090475D02*
X20299819Y-52947618D01*
X20299819Y-52947618D02*
X20299819Y-52709523D01*
X20299819Y-52709523D02*
X20252200Y-52614285D01*
X20252200Y-52614285D02*
X20204580Y-52566666D01*
X20204580Y-52566666D02*
X20109342Y-52519047D01*
X20109342Y-52519047D02*
X20014104Y-52519047D01*
X20014104Y-52519047D02*
X19918866Y-52566666D01*
X19918866Y-52566666D02*
X19871247Y-52614285D01*
X19871247Y-52614285D02*
X19823628Y-52709523D01*
X19823628Y-52709523D02*
X19776009Y-52899999D01*
X19776009Y-52899999D02*
X19728390Y-52995237D01*
X19728390Y-52995237D02*
X19680771Y-53042856D01*
X19680771Y-53042856D02*
X19585533Y-53090475D01*
X19585533Y-53090475D02*
X19490295Y-53090475D01*
X19490295Y-53090475D02*
X19395057Y-53042856D01*
X19395057Y-53042856D02*
X19347438Y-52995237D01*
X19347438Y-52995237D02*
X19299819Y-52899999D01*
X19299819Y-52899999D02*
X19299819Y-52661904D01*
X19299819Y-52661904D02*
X19347438Y-52519047D01*
X20204580Y-51519047D02*
X20252200Y-51566666D01*
X20252200Y-51566666D02*
X20299819Y-51709523D01*
X20299819Y-51709523D02*
X20299819Y-51804761D01*
X20299819Y-51804761D02*
X20252200Y-51947618D01*
X20252200Y-51947618D02*
X20156961Y-52042856D01*
X20156961Y-52042856D02*
X20061723Y-52090475D01*
X20061723Y-52090475D02*
X19871247Y-52138094D01*
X19871247Y-52138094D02*
X19728390Y-52138094D01*
X19728390Y-52138094D02*
X19537914Y-52090475D01*
X19537914Y-52090475D02*
X19442676Y-52042856D01*
X19442676Y-52042856D02*
X19347438Y-51947618D01*
X19347438Y-51947618D02*
X19299819Y-51804761D01*
X19299819Y-51804761D02*
X19299819Y-51709523D01*
X19299819Y-51709523D02*
X19347438Y-51566666D01*
X19347438Y-51566666D02*
X19395057Y-51519047D01*
X20299819Y-50614285D02*
X20299819Y-51090475D01*
X20299819Y-51090475D02*
X19299819Y-51090475D01*
X52847438Y-52614285D02*
X52799819Y-52709523D01*
X52799819Y-52709523D02*
X52799819Y-52852380D01*
X52799819Y-52852380D02*
X52847438Y-52995237D01*
X52847438Y-52995237D02*
X52942676Y-53090475D01*
X52942676Y-53090475D02*
X53037914Y-53138094D01*
X53037914Y-53138094D02*
X53228390Y-53185713D01*
X53228390Y-53185713D02*
X53371247Y-53185713D01*
X53371247Y-53185713D02*
X53561723Y-53138094D01*
X53561723Y-53138094D02*
X53656961Y-53090475D01*
X53656961Y-53090475D02*
X53752200Y-52995237D01*
X53752200Y-52995237D02*
X53799819Y-52852380D01*
X53799819Y-52852380D02*
X53799819Y-52757142D01*
X53799819Y-52757142D02*
X53752200Y-52614285D01*
X53752200Y-52614285D02*
X53704580Y-52566666D01*
X53704580Y-52566666D02*
X53371247Y-52566666D01*
X53371247Y-52566666D02*
X53371247Y-52757142D01*
X53752200Y-52185713D02*
X53799819Y-52042856D01*
X53799819Y-52042856D02*
X53799819Y-51804761D01*
X53799819Y-51804761D02*
X53752200Y-51709523D01*
X53752200Y-51709523D02*
X53704580Y-51661904D01*
X53704580Y-51661904D02*
X53609342Y-51614285D01*
X53609342Y-51614285D02*
X53514104Y-51614285D01*
X53514104Y-51614285D02*
X53418866Y-51661904D01*
X53418866Y-51661904D02*
X53371247Y-51709523D01*
X53371247Y-51709523D02*
X53323628Y-51804761D01*
X53323628Y-51804761D02*
X53276009Y-51995237D01*
X53276009Y-51995237D02*
X53228390Y-52090475D01*
X53228390Y-52090475D02*
X53180771Y-52138094D01*
X53180771Y-52138094D02*
X53085533Y-52185713D01*
X53085533Y-52185713D02*
X52990295Y-52185713D01*
X52990295Y-52185713D02*
X52895057Y-52138094D01*
X52895057Y-52138094D02*
X52847438Y-52090475D01*
X52847438Y-52090475D02*
X52799819Y-51995237D01*
X52799819Y-51995237D02*
X52799819Y-51757142D01*
X52799819Y-51757142D02*
X52847438Y-51614285D01*
X53799819Y-50614285D02*
X53323628Y-50947618D01*
X53799819Y-51185713D02*
X52799819Y-51185713D01*
X52799819Y-51185713D02*
X52799819Y-50804761D01*
X52799819Y-50804761D02*
X52847438Y-50709523D01*
X52847438Y-50709523D02*
X52895057Y-50661904D01*
X52895057Y-50661904D02*
X52990295Y-50614285D01*
X52990295Y-50614285D02*
X53133152Y-50614285D01*
X53133152Y-50614285D02*
X53228390Y-50661904D01*
X53228390Y-50661904D02*
X53276009Y-50709523D01*
X53276009Y-50709523D02*
X53323628Y-50804761D01*
X53323628Y-50804761D02*
X53323628Y-51185713D01*
X54847438Y-52661904D02*
X54799819Y-52757142D01*
X54799819Y-52757142D02*
X54799819Y-52899999D01*
X54799819Y-52899999D02*
X54847438Y-53042856D01*
X54847438Y-53042856D02*
X54942676Y-53138094D01*
X54942676Y-53138094D02*
X55037914Y-53185713D01*
X55037914Y-53185713D02*
X55228390Y-53233332D01*
X55228390Y-53233332D02*
X55371247Y-53233332D01*
X55371247Y-53233332D02*
X55561723Y-53185713D01*
X55561723Y-53185713D02*
X55656961Y-53138094D01*
X55656961Y-53138094D02*
X55752200Y-53042856D01*
X55752200Y-53042856D02*
X55799819Y-52899999D01*
X55799819Y-52899999D02*
X55799819Y-52804761D01*
X55799819Y-52804761D02*
X55752200Y-52661904D01*
X55752200Y-52661904D02*
X55704580Y-52614285D01*
X55704580Y-52614285D02*
X55371247Y-52614285D01*
X55371247Y-52614285D02*
X55371247Y-52804761D01*
X55799819Y-52185713D02*
X54799819Y-52185713D01*
X54799819Y-52185713D02*
X55799819Y-51614285D01*
X55799819Y-51614285D02*
X54799819Y-51614285D01*
X55799819Y-51138094D02*
X54799819Y-51138094D01*
X54799819Y-51138094D02*
X54799819Y-50899999D01*
X54799819Y-50899999D02*
X54847438Y-50757142D01*
X54847438Y-50757142D02*
X54942676Y-50661904D01*
X54942676Y-50661904D02*
X55037914Y-50614285D01*
X55037914Y-50614285D02*
X55228390Y-50566666D01*
X55228390Y-50566666D02*
X55371247Y-50566666D01*
X55371247Y-50566666D02*
X55561723Y-50614285D01*
X55561723Y-50614285D02*
X55656961Y-50661904D01*
X55656961Y-50661904D02*
X55752200Y-50757142D01*
X55752200Y-50757142D02*
X55799819Y-50899999D01*
X55799819Y-50899999D02*
X55799819Y-51138094D01*
X61299819Y-52709523D02*
X61299819Y-52138095D01*
X62299819Y-52423809D02*
X61299819Y-52423809D01*
X62299819Y-51804761D02*
X61299819Y-51804761D01*
X61776009Y-51804761D02*
X61776009Y-51233333D01*
X62299819Y-51233333D02*
X61299819Y-51233333D01*
X63347438Y-52661904D02*
X63299819Y-52757142D01*
X63299819Y-52757142D02*
X63299819Y-52899999D01*
X63299819Y-52899999D02*
X63347438Y-53042856D01*
X63347438Y-53042856D02*
X63442676Y-53138094D01*
X63442676Y-53138094D02*
X63537914Y-53185713D01*
X63537914Y-53185713D02*
X63728390Y-53233332D01*
X63728390Y-53233332D02*
X63871247Y-53233332D01*
X63871247Y-53233332D02*
X64061723Y-53185713D01*
X64061723Y-53185713D02*
X64156961Y-53138094D01*
X64156961Y-53138094D02*
X64252200Y-53042856D01*
X64252200Y-53042856D02*
X64299819Y-52899999D01*
X64299819Y-52899999D02*
X64299819Y-52804761D01*
X64299819Y-52804761D02*
X64252200Y-52661904D01*
X64252200Y-52661904D02*
X64204580Y-52614285D01*
X64204580Y-52614285D02*
X63871247Y-52614285D01*
X63871247Y-52614285D02*
X63871247Y-52804761D01*
X64299819Y-52185713D02*
X63299819Y-52185713D01*
X63299819Y-52185713D02*
X64299819Y-51614285D01*
X64299819Y-51614285D02*
X63299819Y-51614285D01*
X64299819Y-51138094D02*
X63299819Y-51138094D01*
X63299819Y-51138094D02*
X63299819Y-50899999D01*
X63299819Y-50899999D02*
X63347438Y-50757142D01*
X63347438Y-50757142D02*
X63442676Y-50661904D01*
X63442676Y-50661904D02*
X63537914Y-50614285D01*
X63537914Y-50614285D02*
X63728390Y-50566666D01*
X63728390Y-50566666D02*
X63871247Y-50566666D01*
X63871247Y-50566666D02*
X64061723Y-50614285D01*
X64061723Y-50614285D02*
X64156961Y-50661904D01*
X64156961Y-50661904D02*
X64252200Y-50757142D01*
X64252200Y-50757142D02*
X64299819Y-50899999D01*
X64299819Y-50899999D02*
X64299819Y-51138094D01*
X70014104Y-52638094D02*
X70014104Y-52161904D01*
X70299819Y-52733332D02*
X69299819Y-52399999D01*
X69299819Y-52399999D02*
X70299819Y-52066666D01*
X69776009Y-51399999D02*
X69823628Y-51257142D01*
X69823628Y-51257142D02*
X69871247Y-51209523D01*
X69871247Y-51209523D02*
X69966485Y-51161904D01*
X69966485Y-51161904D02*
X70109342Y-51161904D01*
X70109342Y-51161904D02*
X70204580Y-51209523D01*
X70204580Y-51209523D02*
X70252200Y-51257142D01*
X70252200Y-51257142D02*
X70299819Y-51352380D01*
X70299819Y-51352380D02*
X70299819Y-51733332D01*
X70299819Y-51733332D02*
X69299819Y-51733332D01*
X69299819Y-51733332D02*
X69299819Y-51399999D01*
X69299819Y-51399999D02*
X69347438Y-51304761D01*
X69347438Y-51304761D02*
X69395057Y-51257142D01*
X69395057Y-51257142D02*
X69490295Y-51209523D01*
X69490295Y-51209523D02*
X69585533Y-51209523D01*
X69585533Y-51209523D02*
X69680771Y-51257142D01*
X69680771Y-51257142D02*
X69728390Y-51304761D01*
X69728390Y-51304761D02*
X69776009Y-51399999D01*
X69776009Y-51399999D02*
X69776009Y-51733332D01*
X71347438Y-52661904D02*
X71299819Y-52757142D01*
X71299819Y-52757142D02*
X71299819Y-52899999D01*
X71299819Y-52899999D02*
X71347438Y-53042856D01*
X71347438Y-53042856D02*
X71442676Y-53138094D01*
X71442676Y-53138094D02*
X71537914Y-53185713D01*
X71537914Y-53185713D02*
X71728390Y-53233332D01*
X71728390Y-53233332D02*
X71871247Y-53233332D01*
X71871247Y-53233332D02*
X72061723Y-53185713D01*
X72061723Y-53185713D02*
X72156961Y-53138094D01*
X72156961Y-53138094D02*
X72252200Y-53042856D01*
X72252200Y-53042856D02*
X72299819Y-52899999D01*
X72299819Y-52899999D02*
X72299819Y-52804761D01*
X72299819Y-52804761D02*
X72252200Y-52661904D01*
X72252200Y-52661904D02*
X72204580Y-52614285D01*
X72204580Y-52614285D02*
X71871247Y-52614285D01*
X71871247Y-52614285D02*
X71871247Y-52804761D01*
X72299819Y-52185713D02*
X71299819Y-52185713D01*
X71299819Y-52185713D02*
X72299819Y-51614285D01*
X72299819Y-51614285D02*
X71299819Y-51614285D01*
X72299819Y-51138094D02*
X71299819Y-51138094D01*
X71299819Y-51138094D02*
X71299819Y-50899999D01*
X71299819Y-50899999D02*
X71347438Y-50757142D01*
X71347438Y-50757142D02*
X71442676Y-50661904D01*
X71442676Y-50661904D02*
X71537914Y-50614285D01*
X71537914Y-50614285D02*
X71728390Y-50566666D01*
X71728390Y-50566666D02*
X71871247Y-50566666D01*
X71871247Y-50566666D02*
X72061723Y-50614285D01*
X72061723Y-50614285D02*
X72156961Y-50661904D01*
X72156961Y-50661904D02*
X72252200Y-50757142D01*
X72252200Y-50757142D02*
X72299819Y-50899999D01*
X72299819Y-50899999D02*
X72299819Y-51138094D01*
X2630714Y-23947342D02*
X2630714Y-22747342D01*
X2630714Y-22747342D02*
X3087857Y-22747342D01*
X3087857Y-22747342D02*
X3202142Y-22804485D01*
X3202142Y-22804485D02*
X3259285Y-22861628D01*
X3259285Y-22861628D02*
X3316428Y-22975914D01*
X3316428Y-22975914D02*
X3316428Y-23147342D01*
X3316428Y-23147342D02*
X3259285Y-23261628D01*
X3259285Y-23261628D02*
X3202142Y-23318771D01*
X3202142Y-23318771D02*
X3087857Y-23375914D01*
X3087857Y-23375914D02*
X2630714Y-23375914D01*
X3830714Y-23947342D02*
X3830714Y-22747342D01*
X3830714Y-22747342D02*
X4287857Y-22747342D01*
X4287857Y-22747342D02*
X4402142Y-22804485D01*
X4402142Y-22804485D02*
X4459285Y-22861628D01*
X4459285Y-22861628D02*
X4516428Y-22975914D01*
X4516428Y-22975914D02*
X4516428Y-23147342D01*
X4516428Y-23147342D02*
X4459285Y-23261628D01*
X4459285Y-23261628D02*
X4402142Y-23318771D01*
X4402142Y-23318771D02*
X4287857Y-23375914D01*
X4287857Y-23375914D02*
X3830714Y-23375914D01*
X5659285Y-22804485D02*
X5545000Y-22747342D01*
X5545000Y-22747342D02*
X5373571Y-22747342D01*
X5373571Y-22747342D02*
X5202142Y-22804485D01*
X5202142Y-22804485D02*
X5087857Y-22918771D01*
X5087857Y-22918771D02*
X5030714Y-23033057D01*
X5030714Y-23033057D02*
X4973571Y-23261628D01*
X4973571Y-23261628D02*
X4973571Y-23433057D01*
X4973571Y-23433057D02*
X5030714Y-23661628D01*
X5030714Y-23661628D02*
X5087857Y-23775914D01*
X5087857Y-23775914D02*
X5202142Y-23890200D01*
X5202142Y-23890200D02*
X5373571Y-23947342D01*
X5373571Y-23947342D02*
X5487857Y-23947342D01*
X5487857Y-23947342D02*
X5659285Y-23890200D01*
X5659285Y-23890200D02*
X5716428Y-23833057D01*
X5716428Y-23833057D02*
X5716428Y-23433057D01*
X5716428Y-23433057D02*
X5487857Y-23433057D01*
X1671429Y-13118771D02*
X1842857Y-13175914D01*
X1842857Y-13175914D02*
X1900000Y-13233057D01*
X1900000Y-13233057D02*
X1957143Y-13347342D01*
X1957143Y-13347342D02*
X1957143Y-13518771D01*
X1957143Y-13518771D02*
X1900000Y-13633057D01*
X1900000Y-13633057D02*
X1842857Y-13690200D01*
X1842857Y-13690200D02*
X1728572Y-13747342D01*
X1728572Y-13747342D02*
X1271429Y-13747342D01*
X1271429Y-13747342D02*
X1271429Y-12547342D01*
X1271429Y-12547342D02*
X1671429Y-12547342D01*
X1671429Y-12547342D02*
X1785714Y-12604485D01*
X1785714Y-12604485D02*
X1842857Y-12661628D01*
X1842857Y-12661628D02*
X1900000Y-12775914D01*
X1900000Y-12775914D02*
X1900000Y-12890200D01*
X1900000Y-12890200D02*
X1842857Y-13004485D01*
X1842857Y-13004485D02*
X1785714Y-13061628D01*
X1785714Y-13061628D02*
X1671429Y-13118771D01*
X1671429Y-13118771D02*
X1271429Y-13118771D01*
X2414286Y-13404485D02*
X2985715Y-13404485D01*
X2300000Y-13747342D02*
X2700000Y-12547342D01*
X2700000Y-12547342D02*
X3100000Y-13747342D01*
X3328571Y-12547342D02*
X4014286Y-12547342D01*
X3671428Y-13747342D02*
X3671428Y-12547342D01*
X4414286Y-13118771D02*
X4814286Y-13118771D01*
X4985714Y-13747342D02*
X4414286Y-13747342D01*
X4414286Y-13747342D02*
X4414286Y-12547342D01*
X4414286Y-12547342D02*
X4985714Y-12547342D01*
X6185714Y-13747342D02*
X5785714Y-13175914D01*
X5500000Y-13747342D02*
X5500000Y-12547342D01*
X5500000Y-12547342D02*
X5957143Y-12547342D01*
X5957143Y-12547342D02*
X6071428Y-12604485D01*
X6071428Y-12604485D02*
X6128571Y-12661628D01*
X6128571Y-12661628D02*
X6185714Y-12775914D01*
X6185714Y-12775914D02*
X6185714Y-12947342D01*
X6185714Y-12947342D02*
X6128571Y-13061628D01*
X6128571Y-13061628D02*
X6071428Y-13118771D01*
X6071428Y-13118771D02*
X5957143Y-13175914D01*
X5957143Y-13175914D02*
X5500000Y-13175914D01*
X6700000Y-13747342D02*
X6700000Y-12547342D01*
X7214286Y-13404485D02*
X7785715Y-13404485D01*
X7100000Y-13747342D02*
X7500000Y-12547342D01*
X7500000Y-12547342D02*
X7900000Y-13747342D01*
X771428Y-50318771D02*
X942856Y-50375914D01*
X942856Y-50375914D02*
X999999Y-50433057D01*
X999999Y-50433057D02*
X1057142Y-50547342D01*
X1057142Y-50547342D02*
X1057142Y-50718771D01*
X1057142Y-50718771D02*
X999999Y-50833057D01*
X999999Y-50833057D02*
X942856Y-50890200D01*
X942856Y-50890200D02*
X828571Y-50947342D01*
X828571Y-50947342D02*
X371428Y-50947342D01*
X371428Y-50947342D02*
X371428Y-49747342D01*
X371428Y-49747342D02*
X771428Y-49747342D01*
X771428Y-49747342D02*
X885713Y-49804485D01*
X885713Y-49804485D02*
X942856Y-49861628D01*
X942856Y-49861628D02*
X999999Y-49975914D01*
X999999Y-49975914D02*
X999999Y-50090200D01*
X999999Y-50090200D02*
X942856Y-50204485D01*
X942856Y-50204485D02*
X885713Y-50261628D01*
X885713Y-50261628D02*
X771428Y-50318771D01*
X771428Y-50318771D02*
X371428Y-50318771D01*
X1514285Y-50604485D02*
X2085714Y-50604485D01*
X1399999Y-50947342D02*
X1799999Y-49747342D01*
X1799999Y-49747342D02*
X2199999Y-50947342D01*
X2428570Y-49747342D02*
X3114285Y-49747342D01*
X2771427Y-50947342D02*
X2771427Y-49747342D01*
X3342856Y-49747342D02*
X4028571Y-49747342D01*
X3685713Y-50947342D02*
X3685713Y-49747342D01*
X5342857Y-50947342D02*
X5342857Y-49747342D01*
X5342857Y-49747342D02*
X5742857Y-50604485D01*
X5742857Y-50604485D02*
X6142857Y-49747342D01*
X6142857Y-49747342D02*
X6142857Y-50947342D01*
X6714286Y-50318771D02*
X7114286Y-50318771D01*
X7285714Y-50947342D02*
X6714286Y-50947342D01*
X6714286Y-50947342D02*
X6714286Y-49747342D01*
X6714286Y-49747342D02*
X7285714Y-49747342D01*
X7628571Y-49747342D02*
X8314286Y-49747342D01*
X7971428Y-50947342D02*
X7971428Y-49747342D01*
X8714286Y-50318771D02*
X9114286Y-50318771D01*
X9285714Y-50947342D02*
X8714286Y-50947342D01*
X8714286Y-50947342D02*
X8714286Y-49747342D01*
X8714286Y-49747342D02*
X9285714Y-49747342D01*
X10485714Y-50947342D02*
X10085714Y-50375914D01*
X9800000Y-50947342D02*
X9800000Y-49747342D01*
X9800000Y-49747342D02*
X10257143Y-49747342D01*
X10257143Y-49747342D02*
X10371428Y-49804485D01*
X10371428Y-49804485D02*
X10428571Y-49861628D01*
X10428571Y-49861628D02*
X10485714Y-49975914D01*
X10485714Y-49975914D02*
X10485714Y-50147342D01*
X10485714Y-50147342D02*
X10428571Y-50261628D01*
X10428571Y-50261628D02*
X10371428Y-50318771D01*
X10371428Y-50318771D02*
X10257143Y-50375914D01*
X10257143Y-50375914D02*
X9800000Y-50375914D01*
X14673571Y-42547342D02*
X15359286Y-42547342D01*
X15016428Y-43747342D02*
X15016428Y-42547342D01*
X15759286Y-43118771D02*
X16159286Y-43118771D01*
X16330714Y-43747342D02*
X15759286Y-43747342D01*
X15759286Y-43747342D02*
X15759286Y-42547342D01*
X15759286Y-42547342D02*
X16330714Y-42547342D01*
X16845000Y-43747342D02*
X16845000Y-42547342D01*
X16845000Y-42547342D02*
X17245000Y-43404485D01*
X17245000Y-43404485D02*
X17645000Y-42547342D01*
X17645000Y-42547342D02*
X17645000Y-43747342D01*
X18216429Y-43747342D02*
X18216429Y-42547342D01*
X18216429Y-42547342D02*
X18673572Y-42547342D01*
X18673572Y-42547342D02*
X18787857Y-42604485D01*
X18787857Y-42604485D02*
X18845000Y-42661628D01*
X18845000Y-42661628D02*
X18902143Y-42775914D01*
X18902143Y-42775914D02*
X18902143Y-42947342D01*
X18902143Y-42947342D02*
X18845000Y-43061628D01*
X18845000Y-43061628D02*
X18787857Y-43118771D01*
X18787857Y-43118771D02*
X18673572Y-43175914D01*
X18673572Y-43175914D02*
X18216429Y-43175914D01*
X53487857Y-42604485D02*
X53373572Y-42547342D01*
X53373572Y-42547342D02*
X53202143Y-42547342D01*
X53202143Y-42547342D02*
X53030714Y-42604485D01*
X53030714Y-42604485D02*
X52916429Y-42718771D01*
X52916429Y-42718771D02*
X52859286Y-42833057D01*
X52859286Y-42833057D02*
X52802143Y-43061628D01*
X52802143Y-43061628D02*
X52802143Y-43233057D01*
X52802143Y-43233057D02*
X52859286Y-43461628D01*
X52859286Y-43461628D02*
X52916429Y-43575914D01*
X52916429Y-43575914D02*
X53030714Y-43690200D01*
X53030714Y-43690200D02*
X53202143Y-43747342D01*
X53202143Y-43747342D02*
X53316429Y-43747342D01*
X53316429Y-43747342D02*
X53487857Y-43690200D01*
X53487857Y-43690200D02*
X53545000Y-43633057D01*
X53545000Y-43633057D02*
X53545000Y-43233057D01*
X53545000Y-43233057D02*
X53316429Y-43233057D01*
X54002143Y-43690200D02*
X54173572Y-43747342D01*
X54173572Y-43747342D02*
X54459286Y-43747342D01*
X54459286Y-43747342D02*
X54573572Y-43690200D01*
X54573572Y-43690200D02*
X54630714Y-43633057D01*
X54630714Y-43633057D02*
X54687857Y-43518771D01*
X54687857Y-43518771D02*
X54687857Y-43404485D01*
X54687857Y-43404485D02*
X54630714Y-43290200D01*
X54630714Y-43290200D02*
X54573572Y-43233057D01*
X54573572Y-43233057D02*
X54459286Y-43175914D01*
X54459286Y-43175914D02*
X54230714Y-43118771D01*
X54230714Y-43118771D02*
X54116429Y-43061628D01*
X54116429Y-43061628D02*
X54059286Y-43004485D01*
X54059286Y-43004485D02*
X54002143Y-42890200D01*
X54002143Y-42890200D02*
X54002143Y-42775914D01*
X54002143Y-42775914D02*
X54059286Y-42661628D01*
X54059286Y-42661628D02*
X54116429Y-42604485D01*
X54116429Y-42604485D02*
X54230714Y-42547342D01*
X54230714Y-42547342D02*
X54516429Y-42547342D01*
X54516429Y-42547342D02*
X54687857Y-42604485D01*
X55887857Y-43747342D02*
X55487857Y-43175914D01*
X55202143Y-43747342D02*
X55202143Y-42547342D01*
X55202143Y-42547342D02*
X55659286Y-42547342D01*
X55659286Y-42547342D02*
X55773571Y-42604485D01*
X55773571Y-42604485D02*
X55830714Y-42661628D01*
X55830714Y-42661628D02*
X55887857Y-42775914D01*
X55887857Y-42775914D02*
X55887857Y-42947342D01*
X55887857Y-42947342D02*
X55830714Y-43061628D01*
X55830714Y-43061628D02*
X55773571Y-43118771D01*
X55773571Y-43118771D02*
X55659286Y-43175914D01*
X55659286Y-43175914D02*
X55202143Y-43175914D01*
X59092857Y-43747342D02*
X58692857Y-43175914D01*
X58407143Y-43747342D02*
X58407143Y-42547342D01*
X58407143Y-42547342D02*
X58864286Y-42547342D01*
X58864286Y-42547342D02*
X58978571Y-42604485D01*
X58978571Y-42604485D02*
X59035714Y-42661628D01*
X59035714Y-42661628D02*
X59092857Y-42775914D01*
X59092857Y-42775914D02*
X59092857Y-42947342D01*
X59092857Y-42947342D02*
X59035714Y-43061628D01*
X59035714Y-43061628D02*
X58978571Y-43118771D01*
X58978571Y-43118771D02*
X58864286Y-43175914D01*
X58864286Y-43175914D02*
X58407143Y-43175914D01*
X59607143Y-43118771D02*
X60007143Y-43118771D01*
X60178571Y-43747342D02*
X59607143Y-43747342D01*
X59607143Y-43747342D02*
X59607143Y-42547342D01*
X59607143Y-42547342D02*
X60178571Y-42547342D01*
X60635714Y-43690200D02*
X60807143Y-43747342D01*
X60807143Y-43747342D02*
X61092857Y-43747342D01*
X61092857Y-43747342D02*
X61207143Y-43690200D01*
X61207143Y-43690200D02*
X61264285Y-43633057D01*
X61264285Y-43633057D02*
X61321428Y-43518771D01*
X61321428Y-43518771D02*
X61321428Y-43404485D01*
X61321428Y-43404485D02*
X61264285Y-43290200D01*
X61264285Y-43290200D02*
X61207143Y-43233057D01*
X61207143Y-43233057D02*
X61092857Y-43175914D01*
X61092857Y-43175914D02*
X60864285Y-43118771D01*
X60864285Y-43118771D02*
X60750000Y-43061628D01*
X60750000Y-43061628D02*
X60692857Y-43004485D01*
X60692857Y-43004485D02*
X60635714Y-42890200D01*
X60635714Y-42890200D02*
X60635714Y-42775914D01*
X60635714Y-42775914D02*
X60692857Y-42661628D01*
X60692857Y-42661628D02*
X60750000Y-42604485D01*
X60750000Y-42604485D02*
X60864285Y-42547342D01*
X60864285Y-42547342D02*
X61150000Y-42547342D01*
X61150000Y-42547342D02*
X61321428Y-42604485D01*
X61835714Y-43747342D02*
X61835714Y-42547342D01*
X61835714Y-42547342D02*
X62292857Y-42547342D01*
X62292857Y-42547342D02*
X62407142Y-42604485D01*
X62407142Y-42604485D02*
X62464285Y-42661628D01*
X62464285Y-42661628D02*
X62521428Y-42775914D01*
X62521428Y-42775914D02*
X62521428Y-42947342D01*
X62521428Y-42947342D02*
X62464285Y-43061628D01*
X62464285Y-43061628D02*
X62407142Y-43118771D01*
X62407142Y-43118771D02*
X62292857Y-43175914D01*
X62292857Y-43175914D02*
X61835714Y-43175914D01*
X63778571Y-42547342D02*
X64464286Y-42547342D01*
X64121428Y-43747342D02*
X64121428Y-42547342D01*
X68385714Y-43747342D02*
X67985714Y-43175914D01*
X67700000Y-43747342D02*
X67700000Y-42547342D01*
X67700000Y-42547342D02*
X68157143Y-42547342D01*
X68157143Y-42547342D02*
X68271428Y-42604485D01*
X68271428Y-42604485D02*
X68328571Y-42661628D01*
X68328571Y-42661628D02*
X68385714Y-42775914D01*
X68385714Y-42775914D02*
X68385714Y-42947342D01*
X68385714Y-42947342D02*
X68328571Y-43061628D01*
X68328571Y-43061628D02*
X68271428Y-43118771D01*
X68271428Y-43118771D02*
X68157143Y-43175914D01*
X68157143Y-43175914D02*
X67700000Y-43175914D01*
X68900000Y-43118771D02*
X69300000Y-43118771D01*
X69471428Y-43747342D02*
X68900000Y-43747342D01*
X68900000Y-43747342D02*
X68900000Y-42547342D01*
X68900000Y-42547342D02*
X69471428Y-42547342D01*
X69928571Y-43690200D02*
X70100000Y-43747342D01*
X70100000Y-43747342D02*
X70385714Y-43747342D01*
X70385714Y-43747342D02*
X70500000Y-43690200D01*
X70500000Y-43690200D02*
X70557142Y-43633057D01*
X70557142Y-43633057D02*
X70614285Y-43518771D01*
X70614285Y-43518771D02*
X70614285Y-43404485D01*
X70614285Y-43404485D02*
X70557142Y-43290200D01*
X70557142Y-43290200D02*
X70500000Y-43233057D01*
X70500000Y-43233057D02*
X70385714Y-43175914D01*
X70385714Y-43175914D02*
X70157142Y-43118771D01*
X70157142Y-43118771D02*
X70042857Y-43061628D01*
X70042857Y-43061628D02*
X69985714Y-43004485D01*
X69985714Y-43004485D02*
X69928571Y-42890200D01*
X69928571Y-42890200D02*
X69928571Y-42775914D01*
X69928571Y-42775914D02*
X69985714Y-42661628D01*
X69985714Y-42661628D02*
X70042857Y-42604485D01*
X70042857Y-42604485D02*
X70157142Y-42547342D01*
X70157142Y-42547342D02*
X70442857Y-42547342D01*
X70442857Y-42547342D02*
X70614285Y-42604485D01*
X71128571Y-43747342D02*
X71128571Y-42547342D01*
X71128571Y-42547342D02*
X71585714Y-42547342D01*
X71585714Y-42547342D02*
X71699999Y-42604485D01*
X71699999Y-42604485D02*
X71757142Y-42661628D01*
X71757142Y-42661628D02*
X71814285Y-42775914D01*
X71814285Y-42775914D02*
X71814285Y-42947342D01*
X71814285Y-42947342D02*
X71757142Y-43061628D01*
X71757142Y-43061628D02*
X71699999Y-43118771D01*
X71699999Y-43118771D02*
X71585714Y-43175914D01*
X71585714Y-43175914D02*
X71128571Y-43175914D01*
X73185714Y-43404485D02*
X73757143Y-43404485D01*
X73071428Y-43747342D02*
X73471428Y-42547342D01*
X73471428Y-42547342D02*
X73871428Y-43747342D01*
X76487857Y-35118771D02*
X76887857Y-35118771D01*
X77059285Y-35747342D02*
X76487857Y-35747342D01*
X76487857Y-35747342D02*
X76487857Y-34547342D01*
X76487857Y-34547342D02*
X77059285Y-34547342D01*
X78259285Y-35633057D02*
X78202142Y-35690200D01*
X78202142Y-35690200D02*
X78030714Y-35747342D01*
X78030714Y-35747342D02*
X77916428Y-35747342D01*
X77916428Y-35747342D02*
X77744999Y-35690200D01*
X77744999Y-35690200D02*
X77630714Y-35575914D01*
X77630714Y-35575914D02*
X77573571Y-35461628D01*
X77573571Y-35461628D02*
X77516428Y-35233057D01*
X77516428Y-35233057D02*
X77516428Y-35061628D01*
X77516428Y-35061628D02*
X77573571Y-34833057D01*
X77573571Y-34833057D02*
X77630714Y-34718771D01*
X77630714Y-34718771D02*
X77744999Y-34604485D01*
X77744999Y-34604485D02*
X77916428Y-34547342D01*
X77916428Y-34547342D02*
X78030714Y-34547342D01*
X78030714Y-34547342D02*
X78202142Y-34604485D01*
X78202142Y-34604485D02*
X78259285Y-34661628D01*
X79402142Y-34604485D02*
X79287857Y-34547342D01*
X79287857Y-34547342D02*
X79116428Y-34547342D01*
X79116428Y-34547342D02*
X78944999Y-34604485D01*
X78944999Y-34604485D02*
X78830714Y-34718771D01*
X78830714Y-34718771D02*
X78773571Y-34833057D01*
X78773571Y-34833057D02*
X78716428Y-35061628D01*
X78716428Y-35061628D02*
X78716428Y-35233057D01*
X78716428Y-35233057D02*
X78773571Y-35461628D01*
X78773571Y-35461628D02*
X78830714Y-35575914D01*
X78830714Y-35575914D02*
X78944999Y-35690200D01*
X78944999Y-35690200D02*
X79116428Y-35747342D01*
X79116428Y-35747342D02*
X79230714Y-35747342D01*
X79230714Y-35747342D02*
X79402142Y-35690200D01*
X79402142Y-35690200D02*
X79459285Y-35633057D01*
X79459285Y-35633057D02*
X79459285Y-35233057D01*
X79459285Y-35233057D02*
X79230714Y-35233057D01*
X44195237Y-40778653D02*
X44195237Y-39078653D01*
X44195237Y-39078653D02*
X44842856Y-39078653D01*
X44842856Y-39078653D02*
X45004761Y-39159605D01*
X45004761Y-39159605D02*
X45085714Y-39240558D01*
X45085714Y-39240558D02*
X45166666Y-39402462D01*
X45166666Y-39402462D02*
X45166666Y-39645320D01*
X45166666Y-39645320D02*
X45085714Y-39807224D01*
X45085714Y-39807224D02*
X45004761Y-39888177D01*
X45004761Y-39888177D02*
X44842856Y-39969129D01*
X44842856Y-39969129D02*
X44195237Y-39969129D01*
X45895237Y-40778653D02*
X45895237Y-39645320D01*
X45895237Y-39078653D02*
X45814285Y-39159605D01*
X45814285Y-39159605D02*
X45895237Y-39240558D01*
X45895237Y-39240558D02*
X45976190Y-39159605D01*
X45976190Y-39159605D02*
X45895237Y-39078653D01*
X45895237Y-39078653D02*
X45895237Y-39240558D01*
X46704761Y-39645320D02*
X46704761Y-40778653D01*
X46704761Y-39807224D02*
X46785714Y-39726272D01*
X46785714Y-39726272D02*
X46947619Y-39645320D01*
X46947619Y-39645320D02*
X47190476Y-39645320D01*
X47190476Y-39645320D02*
X47352380Y-39726272D01*
X47352380Y-39726272D02*
X47433333Y-39888177D01*
X47433333Y-39888177D02*
X47433333Y-40778653D01*
X48971428Y-40778653D02*
X48971428Y-39888177D01*
X48971428Y-39888177D02*
X48890475Y-39726272D01*
X48890475Y-39726272D02*
X48728571Y-39645320D01*
X48728571Y-39645320D02*
X48404761Y-39645320D01*
X48404761Y-39645320D02*
X48242856Y-39726272D01*
X48971428Y-40697701D02*
X48809523Y-40778653D01*
X48809523Y-40778653D02*
X48404761Y-40778653D01*
X48404761Y-40778653D02*
X48242856Y-40697701D01*
X48242856Y-40697701D02*
X48161904Y-40535796D01*
X48161904Y-40535796D02*
X48161904Y-40373891D01*
X48161904Y-40373891D02*
X48242856Y-40211986D01*
X48242856Y-40211986D02*
X48404761Y-40131034D01*
X48404761Y-40131034D02*
X48809523Y-40131034D01*
X48809523Y-40131034D02*
X48971428Y-40050081D01*
X50347618Y-39888177D02*
X50590475Y-39969129D01*
X50590475Y-39969129D02*
X50671428Y-40050081D01*
X50671428Y-40050081D02*
X50752380Y-40211986D01*
X50752380Y-40211986D02*
X50752380Y-40454843D01*
X50752380Y-40454843D02*
X50671428Y-40616748D01*
X50671428Y-40616748D02*
X50590475Y-40697701D01*
X50590475Y-40697701D02*
X50428570Y-40778653D01*
X50428570Y-40778653D02*
X49780951Y-40778653D01*
X49780951Y-40778653D02*
X49780951Y-39078653D01*
X49780951Y-39078653D02*
X50347618Y-39078653D01*
X50347618Y-39078653D02*
X50509523Y-39159605D01*
X50509523Y-39159605D02*
X50590475Y-39240558D01*
X50590475Y-39240558D02*
X50671428Y-39402462D01*
X50671428Y-39402462D02*
X50671428Y-39564367D01*
X50671428Y-39564367D02*
X50590475Y-39726272D01*
X50590475Y-39726272D02*
X50509523Y-39807224D01*
X50509523Y-39807224D02*
X50347618Y-39888177D01*
X50347618Y-39888177D02*
X49780951Y-39888177D01*
X51480951Y-40778653D02*
X51480951Y-39645320D01*
X51480951Y-39078653D02*
X51399999Y-39159605D01*
X51399999Y-39159605D02*
X51480951Y-39240558D01*
X51480951Y-39240558D02*
X51561904Y-39159605D01*
X51561904Y-39159605D02*
X51480951Y-39078653D01*
X51480951Y-39078653D02*
X51480951Y-39240558D01*
X52533333Y-40778653D02*
X52371428Y-40697701D01*
X52371428Y-40697701D02*
X52290475Y-40616748D01*
X52290475Y-40616748D02*
X52209523Y-40454843D01*
X52209523Y-40454843D02*
X52209523Y-39969129D01*
X52209523Y-39969129D02*
X52290475Y-39807224D01*
X52290475Y-39807224D02*
X52371428Y-39726272D01*
X52371428Y-39726272D02*
X52533333Y-39645320D01*
X52533333Y-39645320D02*
X52776190Y-39645320D01*
X52776190Y-39645320D02*
X52938094Y-39726272D01*
X52938094Y-39726272D02*
X53019047Y-39807224D01*
X53019047Y-39807224D02*
X53099999Y-39969129D01*
X53099999Y-39969129D02*
X53099999Y-40454843D01*
X53099999Y-40454843D02*
X53019047Y-40616748D01*
X53019047Y-40616748D02*
X52938094Y-40697701D01*
X52938094Y-40697701D02*
X52776190Y-40778653D01*
X52776190Y-40778653D02*
X52533333Y-40778653D01*
X55123808Y-40778653D02*
X55123808Y-39078653D01*
X55123808Y-39078653D02*
X55771427Y-39078653D01*
X55771427Y-39078653D02*
X55933332Y-39159605D01*
X55933332Y-39159605D02*
X56014285Y-39240558D01*
X56014285Y-39240558D02*
X56095237Y-39402462D01*
X56095237Y-39402462D02*
X56095237Y-39645320D01*
X56095237Y-39645320D02*
X56014285Y-39807224D01*
X56014285Y-39807224D02*
X55933332Y-39888177D01*
X55933332Y-39888177D02*
X55771427Y-39969129D01*
X55771427Y-39969129D02*
X55123808Y-39969129D01*
X57552380Y-40778653D02*
X57552380Y-39888177D01*
X57552380Y-39888177D02*
X57471427Y-39726272D01*
X57471427Y-39726272D02*
X57309523Y-39645320D01*
X57309523Y-39645320D02*
X56985713Y-39645320D01*
X56985713Y-39645320D02*
X56823808Y-39726272D01*
X57552380Y-40697701D02*
X57390475Y-40778653D01*
X57390475Y-40778653D02*
X56985713Y-40778653D01*
X56985713Y-40778653D02*
X56823808Y-40697701D01*
X56823808Y-40697701D02*
X56742856Y-40535796D01*
X56742856Y-40535796D02*
X56742856Y-40373891D01*
X56742856Y-40373891D02*
X56823808Y-40211986D01*
X56823808Y-40211986D02*
X56985713Y-40131034D01*
X56985713Y-40131034D02*
X57390475Y-40131034D01*
X57390475Y-40131034D02*
X57552380Y-40050081D01*
X59090475Y-40697701D02*
X58928570Y-40778653D01*
X58928570Y-40778653D02*
X58604761Y-40778653D01*
X58604761Y-40778653D02*
X58442856Y-40697701D01*
X58442856Y-40697701D02*
X58361903Y-40616748D01*
X58361903Y-40616748D02*
X58280951Y-40454843D01*
X58280951Y-40454843D02*
X58280951Y-39969129D01*
X58280951Y-39969129D02*
X58361903Y-39807224D01*
X58361903Y-39807224D02*
X58442856Y-39726272D01*
X58442856Y-39726272D02*
X58604761Y-39645320D01*
X58604761Y-39645320D02*
X58928570Y-39645320D01*
X58928570Y-39645320D02*
X59090475Y-39726272D01*
X60547618Y-40778653D02*
X60547618Y-39888177D01*
X60547618Y-39888177D02*
X60466665Y-39726272D01*
X60466665Y-39726272D02*
X60304761Y-39645320D01*
X60304761Y-39645320D02*
X59980951Y-39645320D01*
X59980951Y-39645320D02*
X59819046Y-39726272D01*
X60547618Y-40697701D02*
X60385713Y-40778653D01*
X60385713Y-40778653D02*
X59980951Y-40778653D01*
X59980951Y-40778653D02*
X59819046Y-40697701D01*
X59819046Y-40697701D02*
X59738094Y-40535796D01*
X59738094Y-40535796D02*
X59738094Y-40373891D01*
X59738094Y-40373891D02*
X59819046Y-40211986D01*
X59819046Y-40211986D02*
X59980951Y-40131034D01*
X59980951Y-40131034D02*
X60385713Y-40131034D01*
X60385713Y-40131034D02*
X60547618Y-40050081D01*
X62490475Y-39645320D02*
X62895237Y-40778653D01*
X62895237Y-40778653D02*
X63299998Y-39645320D01*
X63947617Y-40616748D02*
X64028570Y-40697701D01*
X64028570Y-40697701D02*
X63947617Y-40778653D01*
X63947617Y-40778653D02*
X63866665Y-40697701D01*
X63866665Y-40697701D02*
X63947617Y-40616748D01*
X63947617Y-40616748D02*
X63947617Y-40778653D01*
X64676189Y-39240558D02*
X64757141Y-39159605D01*
X64757141Y-39159605D02*
X64919046Y-39078653D01*
X64919046Y-39078653D02*
X65323808Y-39078653D01*
X65323808Y-39078653D02*
X65485713Y-39159605D01*
X65485713Y-39159605D02*
X65566665Y-39240558D01*
X65566665Y-39240558D02*
X65647618Y-39402462D01*
X65647618Y-39402462D02*
X65647618Y-39564367D01*
X65647618Y-39564367D02*
X65566665Y-39807224D01*
X65566665Y-39807224D02*
X64595237Y-40778653D01*
X64595237Y-40778653D02*
X65647618Y-40778653D01*
X66376189Y-40616748D02*
X66457142Y-40697701D01*
X66457142Y-40697701D02*
X66376189Y-40778653D01*
X66376189Y-40778653D02*
X66295237Y-40697701D01*
X66295237Y-40697701D02*
X66376189Y-40616748D01*
X66376189Y-40616748D02*
X66376189Y-40778653D01*
X67509523Y-39078653D02*
X67671428Y-39078653D01*
X67671428Y-39078653D02*
X67833332Y-39159605D01*
X67833332Y-39159605D02*
X67914285Y-39240558D01*
X67914285Y-39240558D02*
X67995237Y-39402462D01*
X67995237Y-39402462D02*
X68076190Y-39726272D01*
X68076190Y-39726272D02*
X68076190Y-40131034D01*
X68076190Y-40131034D02*
X67995237Y-40454843D01*
X67995237Y-40454843D02*
X67914285Y-40616748D01*
X67914285Y-40616748D02*
X67833332Y-40697701D01*
X67833332Y-40697701D02*
X67671428Y-40778653D01*
X67671428Y-40778653D02*
X67509523Y-40778653D01*
X67509523Y-40778653D02*
X67347618Y-40697701D01*
X67347618Y-40697701D02*
X67266666Y-40616748D01*
X67266666Y-40616748D02*
X67185713Y-40454843D01*
X67185713Y-40454843D02*
X67104761Y-40131034D01*
X67104761Y-40131034D02*
X67104761Y-39726272D01*
X67104761Y-39726272D02*
X67185713Y-39402462D01*
X67185713Y-39402462D02*
X67266666Y-39240558D01*
X67266666Y-39240558D02*
X67347618Y-39159605D01*
X67347618Y-39159605D02*
X67509523Y-39078653D01*
X68804761Y-40616748D02*
X68885714Y-40697701D01*
X68885714Y-40697701D02*
X68804761Y-40778653D01*
X68804761Y-40778653D02*
X68723809Y-40697701D01*
X68723809Y-40697701D02*
X68804761Y-40616748D01*
X68804761Y-40616748D02*
X68804761Y-40778653D01*
X19399819Y-7147380D02*
X19399819Y-6956904D01*
X19399819Y-6956904D02*
X19447438Y-6861666D01*
X19447438Y-6861666D02*
X19542676Y-6766428D01*
X19542676Y-6766428D02*
X19733152Y-6718809D01*
X19733152Y-6718809D02*
X20066485Y-6718809D01*
X20066485Y-6718809D02*
X20256961Y-6766428D01*
X20256961Y-6766428D02*
X20352200Y-6861666D01*
X20352200Y-6861666D02*
X20399819Y-6956904D01*
X20399819Y-6956904D02*
X20399819Y-7147380D01*
X20399819Y-7147380D02*
X20352200Y-7242618D01*
X20352200Y-7242618D02*
X20256961Y-7337856D01*
X20256961Y-7337856D02*
X20066485Y-7385475D01*
X20066485Y-7385475D02*
X19733152Y-7385475D01*
X19733152Y-7385475D02*
X19542676Y-7337856D01*
X19542676Y-7337856D02*
X19447438Y-7242618D01*
X19447438Y-7242618D02*
X19399819Y-7147380D01*
X19876009Y-5956904D02*
X19876009Y-6290237D01*
X20399819Y-6290237D02*
X19399819Y-6290237D01*
X19399819Y-6290237D02*
X19399819Y-5814047D01*
X19876009Y-5099761D02*
X19876009Y-5433094D01*
X20399819Y-5433094D02*
X19399819Y-5433094D01*
X19399819Y-5433094D02*
X19399819Y-4956904D01*
X10875952Y-5649819D02*
X11066428Y-5649819D01*
X11066428Y-5649819D02*
X11161666Y-5697438D01*
X11161666Y-5697438D02*
X11256904Y-5792676D01*
X11256904Y-5792676D02*
X11304523Y-5983152D01*
X11304523Y-5983152D02*
X11304523Y-6316485D01*
X11304523Y-6316485D02*
X11256904Y-6506961D01*
X11256904Y-6506961D02*
X11161666Y-6602200D01*
X11161666Y-6602200D02*
X11066428Y-6649819D01*
X11066428Y-6649819D02*
X10875952Y-6649819D01*
X10875952Y-6649819D02*
X10780714Y-6602200D01*
X10780714Y-6602200D02*
X10685476Y-6506961D01*
X10685476Y-6506961D02*
X10637857Y-6316485D01*
X10637857Y-6316485D02*
X10637857Y-5983152D01*
X10637857Y-5983152D02*
X10685476Y-5792676D01*
X10685476Y-5792676D02*
X10780714Y-5697438D01*
X10780714Y-5697438D02*
X10875952Y-5649819D01*
X11733095Y-6649819D02*
X11733095Y-5649819D01*
X11733095Y-5649819D02*
X12304523Y-6649819D01*
X12304523Y-6649819D02*
X12304523Y-5649819D01*
X19522619Y-3249819D02*
X19713095Y-3249819D01*
X19713095Y-3249819D02*
X19808333Y-3297438D01*
X19808333Y-3297438D02*
X19903571Y-3392676D01*
X19903571Y-3392676D02*
X19951190Y-3583152D01*
X19951190Y-3583152D02*
X19951190Y-3916485D01*
X19951190Y-3916485D02*
X19903571Y-4106961D01*
X19903571Y-4106961D02*
X19808333Y-4202200D01*
X19808333Y-4202200D02*
X19713095Y-4249819D01*
X19713095Y-4249819D02*
X19522619Y-4249819D01*
X19522619Y-4249819D02*
X19427381Y-4202200D01*
X19427381Y-4202200D02*
X19332143Y-4106961D01*
X19332143Y-4106961D02*
X19284524Y-3916485D01*
X19284524Y-3916485D02*
X19284524Y-3583152D01*
X19284524Y-3583152D02*
X19332143Y-3392676D01*
X19332143Y-3392676D02*
X19427381Y-3297438D01*
X19427381Y-3297438D02*
X19522619Y-3249819D01*
X20713095Y-3726009D02*
X20379762Y-3726009D01*
X20379762Y-4249819D02*
X20379762Y-3249819D01*
X20379762Y-3249819D02*
X20855952Y-3249819D01*
X21570238Y-3726009D02*
X21236905Y-3726009D01*
X21236905Y-4249819D02*
X21236905Y-3249819D01*
X21236905Y-3249819D02*
X21713095Y-3249819D01*
X10875952Y-3249819D02*
X11066428Y-3249819D01*
X11066428Y-3249819D02*
X11161666Y-3297438D01*
X11161666Y-3297438D02*
X11256904Y-3392676D01*
X11256904Y-3392676D02*
X11304523Y-3583152D01*
X11304523Y-3583152D02*
X11304523Y-3916485D01*
X11304523Y-3916485D02*
X11256904Y-4106961D01*
X11256904Y-4106961D02*
X11161666Y-4202200D01*
X11161666Y-4202200D02*
X11066428Y-4249819D01*
X11066428Y-4249819D02*
X10875952Y-4249819D01*
X10875952Y-4249819D02*
X10780714Y-4202200D01*
X10780714Y-4202200D02*
X10685476Y-4106961D01*
X10685476Y-4106961D02*
X10637857Y-3916485D01*
X10637857Y-3916485D02*
X10637857Y-3583152D01*
X10637857Y-3583152D02*
X10685476Y-3392676D01*
X10685476Y-3392676D02*
X10780714Y-3297438D01*
X10780714Y-3297438D02*
X10875952Y-3249819D01*
X11733095Y-4249819D02*
X11733095Y-3249819D01*
X11733095Y-3249819D02*
X12304523Y-4249819D01*
X12304523Y-4249819D02*
X12304523Y-3249819D01*
X15059285Y-8404580D02*
X15011666Y-8452200D01*
X15011666Y-8452200D02*
X14868809Y-8499819D01*
X14868809Y-8499819D02*
X14773571Y-8499819D01*
X14773571Y-8499819D02*
X14630714Y-8452200D01*
X14630714Y-8452200D02*
X14535476Y-8356961D01*
X14535476Y-8356961D02*
X14487857Y-8261723D01*
X14487857Y-8261723D02*
X14440238Y-8071247D01*
X14440238Y-8071247D02*
X14440238Y-7928390D01*
X14440238Y-7928390D02*
X14487857Y-7737914D01*
X14487857Y-7737914D02*
X14535476Y-7642676D01*
X14535476Y-7642676D02*
X14630714Y-7547438D01*
X14630714Y-7547438D02*
X14773571Y-7499819D01*
X14773571Y-7499819D02*
X14868809Y-7499819D01*
X14868809Y-7499819D02*
X15011666Y-7547438D01*
X15011666Y-7547438D02*
X15059285Y-7595057D01*
X15678333Y-7499819D02*
X15868809Y-7499819D01*
X15868809Y-7499819D02*
X15964047Y-7547438D01*
X15964047Y-7547438D02*
X16059285Y-7642676D01*
X16059285Y-7642676D02*
X16106904Y-7833152D01*
X16106904Y-7833152D02*
X16106904Y-8166485D01*
X16106904Y-8166485D02*
X16059285Y-8356961D01*
X16059285Y-8356961D02*
X15964047Y-8452200D01*
X15964047Y-8452200D02*
X15868809Y-8499819D01*
X15868809Y-8499819D02*
X15678333Y-8499819D01*
X15678333Y-8499819D02*
X15583095Y-8452200D01*
X15583095Y-8452200D02*
X15487857Y-8356961D01*
X15487857Y-8356961D02*
X15440238Y-8166485D01*
X15440238Y-8166485D02*
X15440238Y-7833152D01*
X15440238Y-7833152D02*
X15487857Y-7642676D01*
X15487857Y-7642676D02*
X15583095Y-7547438D01*
X15583095Y-7547438D02*
X15678333Y-7499819D01*
X16535476Y-8499819D02*
X16535476Y-7499819D01*
X16535476Y-7499819D02*
X16868809Y-8214104D01*
X16868809Y-8214104D02*
X17202142Y-7499819D01*
X17202142Y-7499819D02*
X17202142Y-8499819D01*
D12*
%TO.C,C8*%
X12360003Y-27829580D02*
X12360003Y-27307076D01*
X13830003Y-27829580D02*
X13830003Y-27307076D01*
%TO.C,C20*%
X60048883Y-28215522D02*
X60330043Y-28215522D01*
X60048883Y-29235522D02*
X60330043Y-29235522D01*
%TO.C,C22*%
X62510000Y-14135580D02*
X62510000Y-13854420D01*
X63530000Y-14135580D02*
X63530000Y-13854420D01*
%TO.C,R12*%
X12316145Y-1142005D02*
X12790661Y-1142005D01*
X12316145Y-2187005D02*
X12790661Y-2187005D01*
%TO.C,C18*%
X61357507Y-8589572D02*
X61638667Y-8589572D01*
X61357507Y-9609572D02*
X61638667Y-9609572D01*
%TO.C,R30*%
X62166620Y-21637093D02*
X62166620Y-21162577D01*
X63211620Y-21637093D02*
X63211620Y-21162577D01*
%TO.C,U4*%
X20435000Y-40235000D02*
X22255000Y-40235000D01*
X20435000Y-40285000D02*
X20435000Y-40235000D01*
X20435000Y-43355000D02*
X20435000Y-43305000D01*
X22255000Y-40235000D02*
X22255000Y-40285000D01*
X22255000Y-41405000D02*
X22255000Y-42185000D01*
X22255000Y-43305000D02*
X22255000Y-43355000D01*
X22255000Y-43355000D02*
X20435000Y-43355000D01*
X19895000Y-40285000D02*
X19655000Y-39955000D01*
X20135000Y-39955000D01*
X19895000Y-40285000D01*
G36*
X19895000Y-40285000D02*
G01*
X19655000Y-39955000D01*
X20135000Y-39955000D01*
X19895000Y-40285000D01*
G37*
%TO.C,C15*%
X47416115Y-3878954D02*
X47416115Y-3597794D01*
X48436115Y-3878954D02*
X48436115Y-3597794D01*
%TO.C,R38*%
X23631283Y-1726791D02*
X24105799Y-1726791D01*
X23631283Y-2771791D02*
X24105799Y-2771791D01*
%TO.C,R21*%
X24080823Y-11906441D02*
X24080823Y-11431925D01*
X25125823Y-11906441D02*
X25125823Y-11431925D01*
%TO.C,J8*%
X67485000Y-44385000D02*
X67485000Y-45635000D01*
X67785000Y-45995000D02*
X68395000Y-45995000D01*
X67785000Y-47295000D02*
X68395000Y-47295000D01*
X68395000Y-45295000D02*
X68395000Y-48795000D01*
X68395000Y-48795000D02*
X73295000Y-48795000D01*
X68735000Y-44385000D02*
X67485000Y-44385000D01*
X69245000Y-44485000D02*
X69245000Y-44685000D01*
X69545000Y-44485000D02*
X69245000Y-44485000D01*
X69545000Y-44585000D02*
X69245000Y-44585000D01*
X69545000Y-44685000D02*
X69545000Y-44485000D01*
X70345000Y-44685000D02*
X70345000Y-45295000D01*
X70345000Y-45295000D02*
X68395000Y-45295000D01*
X70745000Y-48295000D02*
X70945000Y-48295000D01*
X70745000Y-48795000D02*
X70745000Y-48295000D01*
X70845000Y-48795000D02*
X70845000Y-48295000D01*
X70945000Y-48295000D02*
X70945000Y-48795000D01*
X71345000Y-45295000D02*
X71345000Y-44685000D01*
X73295000Y-45295000D02*
X71345000Y-45295000D01*
X73295000Y-48795000D02*
X73295000Y-45295000D01*
X73905000Y-45995000D02*
X73295000Y-45995000D01*
X73905000Y-47295000D02*
X73295000Y-47295000D01*
X67785000Y-44685000D02*
X73905000Y-44685000D01*
X73905000Y-49405000D01*
X67785000Y-49405000D01*
X67785000Y-44685000D01*
%TO.C,R25*%
X29627418Y-19166401D02*
X30101934Y-19166401D01*
X29627418Y-20211401D02*
X30101934Y-20211401D01*
%TO.C,J4*%
X1845000Y-25345000D02*
X1845000Y-36245000D01*
X1845000Y-27695000D02*
X2345000Y-27695000D01*
X1845000Y-27795000D02*
X2345000Y-27795000D01*
X1845000Y-29695000D02*
X2345000Y-29695000D01*
X1845000Y-29795000D02*
X2345000Y-29795000D01*
X1845000Y-31695000D02*
X2345000Y-31695000D01*
X1845000Y-31795000D02*
X2345000Y-31795000D01*
X1845000Y-33695000D02*
X2345000Y-33695000D01*
X1845000Y-33795000D02*
X2345000Y-33795000D01*
X1845000Y-36245000D02*
X5345000Y-36245000D01*
X2345000Y-27695000D02*
X2345000Y-27895000D01*
X2345000Y-27895000D02*
X1845000Y-27895000D01*
X2345000Y-29695000D02*
X2345000Y-29895000D01*
X2345000Y-29895000D02*
X1845000Y-29895000D01*
X2345000Y-31695000D02*
X2345000Y-31895000D01*
X2345000Y-31895000D02*
X1845000Y-31895000D01*
X2345000Y-33695000D02*
X2345000Y-33895000D01*
X2345000Y-33895000D02*
X1845000Y-33895000D01*
X3345000Y-24735000D02*
X3345000Y-25345000D01*
X3345000Y-36855000D02*
X3345000Y-36245000D01*
X4645000Y-24735000D02*
X4645000Y-25345000D01*
X4645000Y-36855000D02*
X4645000Y-36245000D01*
X5345000Y-25345000D02*
X1845000Y-25345000D01*
X5345000Y-27295000D02*
X5345000Y-25345000D01*
X5345000Y-34295000D02*
X5955000Y-34295000D01*
X5345000Y-36245000D02*
X5345000Y-34295000D01*
X5955000Y-26495000D02*
X6155000Y-26495000D01*
X5955000Y-27295000D02*
X5345000Y-27295000D01*
X6055000Y-26495000D02*
X6055000Y-26195000D01*
X6155000Y-26195000D02*
X5955000Y-26195000D01*
X6155000Y-26495000D02*
X6155000Y-26195000D01*
X6255000Y-24435000D02*
X5005000Y-24435000D01*
X6255000Y-25685000D02*
X6255000Y-24435000D01*
X5955000Y-24735000D02*
X1235000Y-24735000D01*
X1235000Y-36855000D01*
X5955000Y-36855000D01*
X5955000Y-24735000D01*
%TO.C,C1*%
X16712787Y-17130490D02*
X16993947Y-17130490D01*
X16712787Y-18150490D02*
X16993947Y-18150490D01*
%TO.C,J6*%
X50985000Y-44385000D02*
X50985000Y-45635000D01*
X51285000Y-45995000D02*
X51895000Y-45995000D01*
X51285000Y-47295000D02*
X51895000Y-47295000D01*
X51895000Y-45295000D02*
X51895000Y-48795000D01*
X51895000Y-48795000D02*
X56795000Y-48795000D01*
X52235000Y-44385000D02*
X50985000Y-44385000D01*
X52745000Y-44485000D02*
X52745000Y-44685000D01*
X53045000Y-44485000D02*
X52745000Y-44485000D01*
X53045000Y-44585000D02*
X52745000Y-44585000D01*
X53045000Y-44685000D02*
X53045000Y-44485000D01*
X53845000Y-44685000D02*
X53845000Y-45295000D01*
X53845000Y-45295000D02*
X51895000Y-45295000D01*
X54245000Y-48295000D02*
X54445000Y-48295000D01*
X54245000Y-48795000D02*
X54245000Y-48295000D01*
X54345000Y-48795000D02*
X54345000Y-48295000D01*
X54445000Y-48295000D02*
X54445000Y-48795000D01*
X54845000Y-45295000D02*
X54845000Y-44685000D01*
X56795000Y-45295000D02*
X54845000Y-45295000D01*
X56795000Y-48795000D02*
X56795000Y-45295000D01*
X57405000Y-45995000D02*
X56795000Y-45995000D01*
X57405000Y-47295000D02*
X56795000Y-47295000D01*
X51285000Y-44685000D02*
X57405000Y-44685000D01*
X57405000Y-49405000D01*
X51285000Y-49405000D01*
X51285000Y-44685000D01*
%TO.C,R15*%
X49022500Y-19632258D02*
X49022500Y-19157742D01*
X50067500Y-19632258D02*
X50067500Y-19157742D01*
%TO.C,Q1*%
X25585000Y-26835000D02*
X27105000Y-26835000D01*
X25585000Y-26885000D02*
X25585000Y-26835000D01*
X25585000Y-28785000D02*
X25585000Y-28005000D01*
X25585000Y-29955000D02*
X25585000Y-29905000D01*
X27105000Y-26835000D02*
X27105000Y-27835000D01*
X27105000Y-28955000D02*
X27105000Y-29955000D01*
X27105000Y-29955000D02*
X25585000Y-29955000D01*
X25285000Y-28345000D02*
X24805000Y-28345000D01*
X25045000Y-28015000D01*
X25285000Y-28345000D01*
G36*
X25285000Y-28345000D02*
G01*
X24805000Y-28345000D01*
X25045000Y-28015000D01*
X25285000Y-28345000D01*
G37*
%TO.C,Q4*%
X10040000Y-38440000D02*
X11560000Y-38440000D01*
X10040000Y-38490000D02*
X10040000Y-38440000D01*
X10040000Y-40390000D02*
X10040000Y-39610000D01*
X10040000Y-41560000D02*
X10040000Y-41510000D01*
X11560000Y-38440000D02*
X11560000Y-39440000D01*
X11560000Y-40560000D02*
X11560000Y-41560000D01*
X11560000Y-41560000D02*
X10040000Y-41560000D01*
X9740000Y-39950000D02*
X9260000Y-39950000D01*
X9500000Y-39620000D01*
X9740000Y-39950000D01*
G36*
X9740000Y-39950000D02*
G01*
X9260000Y-39950000D01*
X9500000Y-39620000D01*
X9740000Y-39950000D01*
G37*
%TO.C,R3*%
X36731332Y-23535723D02*
X37205848Y-23535723D01*
X36731332Y-24580723D02*
X37205848Y-24580723D01*
%TO.C,C14*%
X25829631Y-11099338D02*
X25829631Y-10818178D01*
X26849631Y-11099338D02*
X26849631Y-10818178D01*
%TO.C,R34*%
X68527311Y-24300268D02*
X69001827Y-24300268D01*
X68527311Y-25345268D02*
X69001827Y-25345268D01*
%TO.C,R37*%
X25164132Y-18462065D02*
X25164132Y-17987549D01*
X26209132Y-18462065D02*
X26209132Y-17987549D01*
%TO.C,C19*%
X61724404Y-18138414D02*
X61724404Y-17857254D01*
X62744404Y-18138414D02*
X62744404Y-17857254D01*
%TO.C,U8*%
X66485000Y-13960000D02*
X70605000Y-13960000D01*
X66485000Y-14025000D02*
X66485000Y-13960000D01*
X66485000Y-22830000D02*
X66485000Y-22765000D01*
X70605000Y-13960000D02*
X70605000Y-14025000D01*
X70605000Y-22765000D02*
X70605000Y-22830000D01*
X70605000Y-22830000D02*
X66485000Y-22830000D01*
X65945000Y-14025000D02*
X65705000Y-13695000D01*
X66185000Y-13695000D01*
X65945000Y-14025000D01*
G36*
X65945000Y-14025000D02*
G01*
X65705000Y-13695000D01*
X66185000Y-13695000D01*
X65945000Y-14025000D01*
G37*
%TO.C,J2*%
X985000Y-1885000D02*
X985000Y-3135000D01*
X1285000Y-3495000D02*
X1895000Y-3495000D01*
X1285000Y-4795000D02*
X1895000Y-4795000D01*
X1895000Y-2795000D02*
X1895000Y-6295000D01*
X1895000Y-6295000D02*
X8795000Y-6295000D01*
X2235000Y-1885000D02*
X985000Y-1885000D01*
X2745000Y-1985000D02*
X2745000Y-2185000D01*
X3045000Y-1985000D02*
X2745000Y-1985000D01*
X3045000Y-2085000D02*
X2745000Y-2085000D01*
X3045000Y-2185000D02*
X3045000Y-1985000D01*
X3845000Y-2185000D02*
X3845000Y-2795000D01*
X3845000Y-2795000D02*
X1895000Y-2795000D01*
X4245000Y-5795000D02*
X4445000Y-5795000D01*
X4245000Y-6295000D02*
X4245000Y-5795000D01*
X4345000Y-6295000D02*
X4345000Y-5795000D01*
X4445000Y-5795000D02*
X4445000Y-6295000D01*
X6245000Y-5795000D02*
X6445000Y-5795000D01*
X6245000Y-6295000D02*
X6245000Y-5795000D01*
X6345000Y-6295000D02*
X6345000Y-5795000D01*
X6445000Y-5795000D02*
X6445000Y-6295000D01*
X6845000Y-2795000D02*
X6845000Y-2185000D01*
X8795000Y-2795000D02*
X6845000Y-2795000D01*
X8795000Y-6295000D02*
X8795000Y-2795000D01*
X9405000Y-3495000D02*
X8795000Y-3495000D01*
X9405000Y-4795000D02*
X8795000Y-4795000D01*
X1285000Y-2185000D02*
X9405000Y-2185000D01*
X9405000Y-6905000D01*
X1285000Y-6905000D01*
X1285000Y-2185000D01*
%TO.C,R24*%
X23253802Y-4112160D02*
X23728318Y-4112160D01*
X23253802Y-5157160D02*
X23728318Y-5157160D01*
%TO.C,R13*%
X14477500Y-27337258D02*
X14477500Y-26862742D01*
X15522500Y-27337258D02*
X15522500Y-26862742D01*
%TO.C,U3*%
X13765000Y-22045000D02*
X13865000Y-22245000D01*
X13865000Y-22245000D02*
X13765000Y-22445000D01*
%TO.C,R7*%
X19213940Y-7824629D02*
X19688456Y-7824629D01*
X19213940Y-8869629D02*
X19688456Y-8869629D01*
%TO.C,U6*%
X53535000Y-11560000D02*
X58155000Y-11560000D01*
X58155000Y-17030000D02*
X53535000Y-17030000D01*
X51985000Y-12015000D02*
X51655000Y-12255000D01*
X51655000Y-11775000D01*
X51985000Y-12015000D01*
G36*
X51985000Y-12015000D02*
G01*
X51655000Y-12255000D01*
X51655000Y-11775000D01*
X51985000Y-12015000D01*
G37*
%TO.C,C13*%
X24423310Y-40956120D02*
X24423310Y-40433616D01*
X25893310Y-40956120D02*
X25893310Y-40433616D01*
%TO.C,J1*%
X30300000Y-47720000D02*
X30300000Y-49500000D01*
X32200000Y-44800000D02*
X31400000Y-44800000D01*
X39700000Y-47720000D02*
X39700000Y-49500000D01*
%TO.C,R22*%
X49567522Y-3973727D02*
X49567522Y-3499211D01*
X50612522Y-3973727D02*
X50612522Y-3499211D01*
%TO.C,R36*%
X39808352Y-23278146D02*
X39808352Y-22803630D01*
X40853352Y-23278146D02*
X40853352Y-22803630D01*
%TO.C,R19*%
X29429152Y-36286999D02*
X29429152Y-35812483D01*
X30474152Y-36286999D02*
X30474152Y-35812483D01*
%TO.C,R29*%
X55711313Y-17927891D02*
X56185829Y-17927891D01*
X55711313Y-18972891D02*
X56185829Y-18972891D01*
%TO.C,R27*%
X64599969Y-24936862D02*
X65074485Y-24936862D01*
X64599969Y-25981862D02*
X65074485Y-25981862D01*
%TO.C,R31*%
X73878380Y-21637093D02*
X73878380Y-21162577D01*
X74923380Y-21637093D02*
X74923380Y-21162577D01*
%TO.C,U7*%
X53535000Y-19660000D02*
X58155000Y-19660000D01*
X58155000Y-25130000D02*
X53535000Y-25130000D01*
X51985000Y-20115000D02*
X51655000Y-20355000D01*
X51655000Y-19875000D01*
X51985000Y-20115000D01*
G36*
X51985000Y-20115000D02*
G01*
X51655000Y-20355000D01*
X51655000Y-19875000D01*
X51985000Y-20115000D01*
G37*
%TO.C,C4*%
X12360003Y-18682924D02*
X12360003Y-18160420D01*
X13830003Y-18682924D02*
X13830003Y-18160420D01*
%TO.C,R32*%
X73878380Y-15627423D02*
X73878380Y-15152907D01*
X74923380Y-15627423D02*
X74923380Y-15152907D01*
%TO.C,R6*%
X22916987Y-19217178D02*
X23391503Y-19217178D01*
X22916987Y-20262178D02*
X23391503Y-20262178D01*
%TO.C,C2*%
X8477388Y-14818178D02*
X8477388Y-14295674D01*
X9947388Y-14818178D02*
X9947388Y-14295674D01*
%TO.C,R1*%
X29977500Y-40537258D02*
X29977500Y-40062742D01*
X31022500Y-40537258D02*
X31022500Y-40062742D01*
%TO.C,D1*%
X21785000Y-15235000D02*
X23305000Y-15235000D01*
X21785000Y-15285000D02*
X21785000Y-15235000D01*
X21785000Y-17185000D02*
X21785000Y-16405000D01*
X21785000Y-18355000D02*
X21785000Y-18305000D01*
X23305000Y-15235000D02*
X23305000Y-16235000D01*
X23305000Y-17355000D02*
X23305000Y-18355000D01*
X23305000Y-18355000D02*
X21785000Y-18355000D01*
X21485000Y-16745000D02*
X21005000Y-16745000D01*
X21245000Y-16415000D01*
X21485000Y-16745000D01*
G36*
X21485000Y-16745000D02*
G01*
X21005000Y-16745000D01*
X21245000Y-16415000D01*
X21485000Y-16745000D01*
G37*
%TO.C,U1*%
X33440000Y-39390000D02*
X33490000Y-39390000D01*
X33440000Y-41210000D02*
X33440000Y-39390000D01*
X33490000Y-41210000D02*
X33440000Y-41210000D01*
X36510000Y-39390000D02*
X36560000Y-39390000D01*
X36560000Y-39390000D02*
X36560000Y-41210000D01*
X36560000Y-41210000D02*
X36510000Y-41210000D01*
X33490000Y-41750000D02*
X33160000Y-41990000D01*
X33160000Y-41510000D01*
X33490000Y-41750000D01*
G36*
X33490000Y-41750000D02*
G01*
X33160000Y-41990000D01*
X33160000Y-41510000D01*
X33490000Y-41750000D01*
G37*
%TO.C,R28*%
X65099768Y-9707375D02*
X65574284Y-9707375D01*
X65099768Y-10752375D02*
X65574284Y-10752375D01*
%TO.C,R4*%
X6491475Y-10748602D02*
X6491475Y-10274086D01*
X7536475Y-10748602D02*
X7536475Y-10274086D01*
%TO.C,C10*%
X17396984Y-27632956D02*
X17919488Y-27632956D01*
X17396984Y-29102956D02*
X17919488Y-29102956D01*
%TO.C,R16*%
X25347654Y-21886919D02*
X25347654Y-21412403D01*
X26392654Y-21886919D02*
X26392654Y-21412403D01*
%TO.C,SW2*%
X18745000Y-10545000D02*
X19045000Y-10545000D01*
X18745000Y-13845000D02*
X18745000Y-10545000D01*
X19045000Y-13845000D02*
X18745000Y-13845000D01*
X21245000Y-13845000D02*
X21545000Y-13845000D01*
X21545000Y-10545000D02*
X21245000Y-10545000D01*
X21545000Y-13845000D02*
X21545000Y-10545000D01*
%TO.C,C16*%
X25488703Y-7451514D02*
X25488703Y-6929010D01*
X26958703Y-7451514D02*
X26958703Y-6929010D01*
%TO.C,Q2*%
X25585000Y-30835000D02*
X27105000Y-30835000D01*
X25585000Y-31835000D02*
X25585000Y-30835000D01*
X25585000Y-33955000D02*
X25585000Y-32955000D01*
X27105000Y-30835000D02*
X27105000Y-30885000D01*
X27105000Y-32005000D02*
X27105000Y-32785000D01*
X27105000Y-33905000D02*
X27105000Y-33955000D01*
X27105000Y-33955000D02*
X25585000Y-33955000D01*
X27645000Y-32775000D02*
X27405000Y-32445000D01*
X27885000Y-32445000D01*
X27645000Y-32775000D01*
G36*
X27645000Y-32775000D02*
G01*
X27405000Y-32445000D01*
X27885000Y-32445000D01*
X27645000Y-32775000D01*
G37*
%TO.C,Q5*%
X14740000Y-38440000D02*
X16260000Y-38440000D01*
X14740000Y-38490000D02*
X14740000Y-38440000D01*
X14740000Y-40390000D02*
X14740000Y-39610000D01*
X14740000Y-41560000D02*
X14740000Y-41510000D01*
X16260000Y-38440000D02*
X16260000Y-39440000D01*
X16260000Y-40560000D02*
X16260000Y-41560000D01*
X16260000Y-41560000D02*
X14740000Y-41560000D01*
X14440000Y-39950000D02*
X13960000Y-39950000D01*
X14200000Y-39620000D01*
X14440000Y-39950000D01*
G36*
X14440000Y-39950000D02*
G01*
X13960000Y-39950000D01*
X14200000Y-39620000D01*
X14440000Y-39950000D01*
G37*
%TO.C,R9*%
X4974916Y-18738332D02*
X5449432Y-18738332D01*
X4974916Y-19783332D02*
X5449432Y-19783332D01*
%TO.C,U2*%
X13935000Y-10385000D02*
X14410000Y-10385000D01*
X13935000Y-10860000D02*
X13935000Y-10385000D01*
X13935000Y-13605000D02*
X13935000Y-13130000D01*
X14410000Y-13605000D02*
X13935000Y-13605000D01*
X16680000Y-10385000D02*
X17155000Y-10385000D01*
X17155000Y-10385000D02*
X17155000Y-10860000D01*
X17155000Y-13130000D02*
X17155000Y-13605000D01*
X17155000Y-13605000D02*
X16680000Y-13605000D01*
X16295000Y-9855000D02*
X16055000Y-9525000D01*
X16535000Y-9525000D01*
X16295000Y-9855000D01*
G36*
X16295000Y-9855000D02*
G01*
X16055000Y-9525000D01*
X16535000Y-9525000D01*
X16295000Y-9855000D01*
G37*
%TO.C,C3*%
X21510995Y-7576120D02*
X21510995Y-7053616D01*
X22980995Y-7576120D02*
X22980995Y-7053616D01*
%TO.C,R5*%
X27460000Y-22832258D02*
X27460000Y-22357742D01*
X28505000Y-22832258D02*
X28505000Y-22357742D01*
%TO.C,C7*%
X19891730Y-27792357D02*
X19891730Y-27269853D01*
X21361730Y-27792357D02*
X21361730Y-27269853D01*
%TO.C,J7*%
X59485000Y-44385000D02*
X59485000Y-45635000D01*
X59785000Y-45995000D02*
X60395000Y-45995000D01*
X59785000Y-47295000D02*
X60395000Y-47295000D01*
X60395000Y-45295000D02*
X60395000Y-48795000D01*
X60395000Y-48795000D02*
X65295000Y-48795000D01*
X60735000Y-44385000D02*
X59485000Y-44385000D01*
X61245000Y-44485000D02*
X61245000Y-44685000D01*
X61545000Y-44485000D02*
X61245000Y-44485000D01*
X61545000Y-44585000D02*
X61245000Y-44585000D01*
X61545000Y-44685000D02*
X61545000Y-44485000D01*
X62345000Y-44685000D02*
X62345000Y-45295000D01*
X62345000Y-45295000D02*
X60395000Y-45295000D01*
X62745000Y-48295000D02*
X62945000Y-48295000D01*
X62745000Y-48795000D02*
X62745000Y-48295000D01*
X62845000Y-48795000D02*
X62845000Y-48295000D01*
X62945000Y-48295000D02*
X62945000Y-48795000D01*
X63345000Y-45295000D02*
X63345000Y-44685000D01*
X65295000Y-45295000D02*
X63345000Y-45295000D01*
X65295000Y-48795000D02*
X65295000Y-45295000D01*
X65905000Y-45995000D02*
X65295000Y-45995000D01*
X65905000Y-47295000D02*
X65295000Y-47295000D01*
X59785000Y-44685000D02*
X65905000Y-44685000D01*
X65905000Y-49405000D01*
X59785000Y-49405000D01*
X59785000Y-44685000D01*
%TO.C,C21*%
X61724404Y-26238414D02*
X61724404Y-25957254D01*
X62744404Y-26238414D02*
X62744404Y-25957254D01*
%TO.C,R20*%
X22215848Y-32977517D02*
X22215848Y-32503001D01*
X23260848Y-32977517D02*
X23260848Y-32503001D01*
%TO.C,C12*%
X19321682Y-37503774D02*
X19844186Y-37503774D01*
X19321682Y-38973774D02*
X19844186Y-38973774D01*
%TO.C,C17*%
X23747692Y-7775027D02*
X23747692Y-7493867D01*
X24767692Y-7775027D02*
X24767692Y-7493867D01*
%TO.C,R8*%
X18062742Y-15377500D02*
X18537258Y-15377500D01*
X18062742Y-16422500D02*
X18537258Y-16422500D01*
%TO.C,L1*%
X17540000Y-21035000D02*
X22060000Y-21035000D01*
X17540000Y-25555000D02*
X17540000Y-21035000D01*
X22060000Y-21035000D02*
X22060000Y-25555000D01*
X22060000Y-25555000D02*
X17540000Y-25555000D01*
%TO.C,R18*%
X26141963Y-3438634D02*
X26141963Y-2964118D01*
X27186963Y-3438634D02*
X27186963Y-2964118D01*
%TO.C,R11*%
X15607742Y-1172500D02*
X16082258Y-1172500D01*
X15607742Y-2217500D02*
X16082258Y-2217500D01*
%TO.C,J9*%
X1840000Y-41890000D02*
X1840000Y-43140000D01*
X2140000Y-43500000D02*
X2750000Y-43500000D01*
X2140000Y-44800000D02*
X2750000Y-44800000D01*
X2750000Y-42800000D02*
X2750000Y-46300000D01*
X2750000Y-46300000D02*
X7650000Y-46300000D01*
X3090000Y-41890000D02*
X1840000Y-41890000D01*
X3600000Y-41990000D02*
X3600000Y-42190000D01*
X3900000Y-41990000D02*
X3600000Y-41990000D01*
X3900000Y-42090000D02*
X3600000Y-42090000D01*
X3900000Y-42190000D02*
X3900000Y-41990000D01*
X4700000Y-42190000D02*
X4700000Y-42800000D01*
X4700000Y-42800000D02*
X2750000Y-42800000D01*
X5100000Y-45800000D02*
X5300000Y-45800000D01*
X5100000Y-46300000D02*
X5100000Y-45800000D01*
X5200000Y-46300000D02*
X5200000Y-45800000D01*
X5300000Y-45800000D02*
X5300000Y-46300000D01*
X5700000Y-42800000D02*
X5700000Y-42190000D01*
X7650000Y-42800000D02*
X5700000Y-42800000D01*
X7650000Y-46300000D02*
X7650000Y-42800000D01*
X8260000Y-43500000D02*
X7650000Y-43500000D01*
X8260000Y-44800000D02*
X7650000Y-44800000D01*
X2140000Y-42190000D02*
X8260000Y-42190000D01*
X8260000Y-46910000D01*
X2140000Y-46910000D01*
X2140000Y-42190000D01*
%TO.C,J5*%
X11485000Y-44885000D02*
X11485000Y-46135000D01*
X11785000Y-46495000D02*
X12395000Y-46495000D01*
X11785000Y-47795000D02*
X12395000Y-47795000D01*
X12395000Y-45795000D02*
X12395000Y-49295000D01*
X12395000Y-49295000D02*
X21295000Y-49295000D01*
X12735000Y-44885000D02*
X11485000Y-44885000D01*
X13245000Y-44985000D02*
X13245000Y-45185000D01*
X13545000Y-44985000D02*
X13245000Y-44985000D01*
X13545000Y-45085000D02*
X13245000Y-45085000D01*
X13545000Y-45185000D02*
X13545000Y-44985000D01*
X14345000Y-45185000D02*
X14345000Y-45795000D01*
X14345000Y-45795000D02*
X12395000Y-45795000D01*
X14745000Y-48795000D02*
X14945000Y-48795000D01*
X14745000Y-49295000D02*
X14745000Y-48795000D01*
X14845000Y-49295000D02*
X14845000Y-48795000D01*
X14945000Y-48795000D02*
X14945000Y-49295000D01*
X16745000Y-48795000D02*
X16945000Y-48795000D01*
X16745000Y-49295000D02*
X16745000Y-48795000D01*
X16845000Y-49295000D02*
X16845000Y-48795000D01*
X16945000Y-48795000D02*
X16945000Y-49295000D01*
X18745000Y-48795000D02*
X18945000Y-48795000D01*
X18745000Y-49295000D02*
X18745000Y-48795000D01*
X18845000Y-49295000D02*
X18845000Y-48795000D01*
X18945000Y-48795000D02*
X18945000Y-49295000D01*
X19345000Y-45795000D02*
X19345000Y-45185000D01*
X21295000Y-45795000D02*
X19345000Y-45795000D01*
X21295000Y-49295000D02*
X21295000Y-45795000D01*
X21905000Y-46495000D02*
X21295000Y-46495000D01*
X21905000Y-47795000D02*
X21295000Y-47795000D01*
X11785000Y-45185000D02*
X21905000Y-45185000D01*
X21905000Y-49905000D01*
X11785000Y-49905000D01*
X11785000Y-45185000D01*
%TO.C,R23*%
X26022500Y-14832258D02*
X26022500Y-14357742D01*
X27067500Y-14832258D02*
X27067500Y-14357742D01*
%TO.C,C6*%
X6120384Y-16353298D02*
X6120384Y-15830794D01*
X7590384Y-16353298D02*
X7590384Y-15830794D01*
%TO.C,R35*%
X33036648Y-23278146D02*
X33036648Y-22803630D01*
X34081648Y-23278146D02*
X34081648Y-22803630D01*
%TO.C,R33*%
X68291694Y-11965582D02*
X68766210Y-11965582D01*
X68291694Y-13010582D02*
X68766210Y-13010582D01*
%TO.C,C11*%
X12240580Y-22735000D02*
X11959420Y-22735000D01*
X12240580Y-23755000D02*
X11959420Y-23755000D01*
%TO.C,C5*%
X8691222Y-18335647D02*
X9213726Y-18335647D01*
X8691222Y-19805647D02*
X9213726Y-19805647D01*
%TO.C,Q3*%
X25585000Y-34835000D02*
X27105000Y-34835000D01*
X25585000Y-34885000D02*
X25585000Y-34835000D01*
X25585000Y-36785000D02*
X25585000Y-36005000D01*
X25585000Y-37955000D02*
X25585000Y-37905000D01*
X27105000Y-34835000D02*
X27105000Y-35835000D01*
X27105000Y-36955000D02*
X27105000Y-37955000D01*
X27105000Y-37955000D02*
X25585000Y-37955000D01*
X25285000Y-36345000D02*
X24805000Y-36345000D01*
X25045000Y-36015000D01*
X25285000Y-36345000D01*
G36*
X25285000Y-36345000D02*
G01*
X24805000Y-36345000D01*
X25045000Y-36015000D01*
X25285000Y-36345000D01*
G37*
%TO.C,R10*%
X9612413Y-9417961D02*
X10086929Y-9417961D01*
X9612413Y-10462961D02*
X10086929Y-10462961D01*
%TO.C,R39*%
X11912742Y-20877500D02*
X12387258Y-20877500D01*
X11912742Y-21922500D02*
X12387258Y-21922500D01*
%TO.C,R40*%
X10277500Y-36737258D02*
X10277500Y-36262742D01*
X11322500Y-36737258D02*
X11322500Y-36262742D01*
%TO.C,J3*%
X75645000Y-38045000D02*
X75645000Y-50945000D01*
X75645000Y-40395000D02*
X76145000Y-40395000D01*
X75645000Y-40495000D02*
X76145000Y-40495000D01*
X75645000Y-42395000D02*
X76145000Y-42395000D01*
X75645000Y-42495000D02*
X76145000Y-42495000D01*
X75645000Y-44395000D02*
X76145000Y-44395000D01*
X75645000Y-44495000D02*
X76145000Y-44495000D01*
X75645000Y-46395000D02*
X76145000Y-46395000D01*
X75645000Y-46495000D02*
X76145000Y-46495000D01*
X75645000Y-48395000D02*
X76145000Y-48395000D01*
X75645000Y-48495000D02*
X76145000Y-48495000D01*
X75645000Y-50945000D02*
X79145000Y-50945000D01*
X76145000Y-40395000D02*
X76145000Y-40595000D01*
X76145000Y-40595000D02*
X75645000Y-40595000D01*
X76145000Y-42395000D02*
X76145000Y-42595000D01*
X76145000Y-42595000D02*
X75645000Y-42595000D01*
X76145000Y-44395000D02*
X76145000Y-44595000D01*
X76145000Y-44595000D02*
X75645000Y-44595000D01*
X76145000Y-46395000D02*
X76145000Y-46595000D01*
X76145000Y-46595000D02*
X75645000Y-46595000D01*
X76145000Y-48395000D02*
X76145000Y-48595000D01*
X76145000Y-48595000D02*
X75645000Y-48595000D01*
X77145000Y-37435000D02*
X77145000Y-38045000D01*
X77145000Y-51555000D02*
X77145000Y-50945000D01*
X78445000Y-37435000D02*
X78445000Y-38045000D01*
X78445000Y-51555000D02*
X78445000Y-50945000D01*
X79145000Y-38045000D02*
X75645000Y-38045000D01*
X79145000Y-39995000D02*
X79145000Y-38045000D01*
X79145000Y-48995000D02*
X79755000Y-48995000D01*
X79145000Y-50945000D02*
X79145000Y-48995000D01*
X79755000Y-39195000D02*
X79955000Y-39195000D01*
X79755000Y-39995000D02*
X79145000Y-39995000D01*
X79855000Y-39195000D02*
X79855000Y-38895000D01*
X79955000Y-38895000D02*
X79755000Y-38895000D01*
X79955000Y-39195000D02*
X79955000Y-38895000D01*
X80055000Y-37135000D02*
X78805000Y-37135000D01*
X80055000Y-38385000D02*
X80055000Y-37135000D01*
X79755000Y-37435000D02*
X75035000Y-37435000D01*
X75035000Y-51555000D01*
X79755000Y-51555000D01*
X79755000Y-37435000D01*
%TO.C,R17*%
X30560000Y-28632258D02*
X30560000Y-28157742D01*
X31605000Y-28632258D02*
X31605000Y-28157742D01*
%TO.C,R14*%
X12337258Y-24377500D02*
X11862742Y-24377500D01*
X12337258Y-25422500D02*
X11862742Y-25422500D01*
%TO.C,C9*%
X8691222Y-26184353D02*
X9213726Y-26184353D01*
X8691222Y-27654353D02*
X9213726Y-27654353D01*
%TO.C,R26*%
X60197264Y-6082041D02*
X60671780Y-6082041D01*
X60197264Y-7127041D02*
X60671780Y-7127041D01*
%TO.C,R2*%
X39177500Y-40537258D02*
X39177500Y-40062742D01*
X40222500Y-40537258D02*
X40222500Y-40062742D01*
%TO.C,U5*%
X29545000Y-995000D02*
X45145000Y-995000D01*
X29545000Y-16595000D02*
X29545000Y-995000D01*
X45145000Y-995000D02*
X45145000Y-16595000D01*
X45145000Y-16595000D02*
X29545000Y-16595000D01*
X29370000Y-2845000D02*
X29034000Y-3085000D01*
X29034000Y-2605000D01*
X29370000Y-2845000D01*
G36*
X29370000Y-2845000D02*
G01*
X29034000Y-3085000D01*
X29034000Y-2605000D01*
X29370000Y-2845000D01*
G37*
%TD*%
M02*
