%TF.GenerationSoftware,KiCad,Pcbnew,9.0.9*%
%TF.CreationDate,2026-10-02T21:51:15+02:00*%
%TF.ProjectId,PinaBio-v2.0-ChatGPT,50696e61-4269-46f2-9d76-322e302d4368,SPEC-0.9*%
%TF.SameCoordinates,Original*%
%TF.FileFunction,Drillmap*%
%TF.FilePolarity,Positive*%
%FSLAX45Y45*%
G04 Gerber Fmt 4.5, Leading zero omitted, Abs format (unit mm)*
G04 Created by KiCad (PCBNEW 9.0.9) date 2026-10-02 21:51:15*
%MOMM*%
%LPD*%
G01*
G04 APERTURE LIST*
%ADD10C,0.050000*%
%ADD11C,0.200000*%
%ADD12C,0.100000*%
G04 APERTURE END LIST*
D10*
X0Y-39500D02*
X8450000Y-39500D01*
X0Y-5350000D02*
X0Y-39500D01*
X8450000Y-39500D02*
X8450000Y-5350000D01*
X8450000Y-5350000D02*
X0Y-5350000D01*
D11*
D12*
X417500Y-1257000D02*
X442500Y-1282000D01*
X442500Y-1257000D02*
X417500Y-1282000D01*
X417500Y-2057000D02*
X442500Y-2082000D01*
X442500Y-2057000D02*
X417500Y-2082000D01*
X417500Y-3657000D02*
X442500Y-3682000D01*
X442500Y-3657000D02*
X417500Y-3682000D01*
X417500Y-5257000D02*
X442500Y-5282000D01*
X442500Y-5257000D02*
X417500Y-5282000D01*
X533038Y-1431705D02*
X558038Y-1456705D01*
X558038Y-1431705D02*
X533038Y-1456705D01*
X661217Y-2003583D02*
X686217Y-2028583D01*
X686217Y-2003583D02*
X661217Y-2028583D01*
X717747Y-2819435D02*
X742747Y-2844435D01*
X742747Y-2819435D02*
X717747Y-2844435D01*
X802500Y-1157000D02*
X827500Y-1182000D01*
X827500Y-1157000D02*
X802500Y-1182000D01*
X1037500Y-2267500D02*
X1062500Y-2292500D01*
X1062500Y-2267500D02*
X1037500Y-2292500D01*
X1037500Y-2452500D02*
X1062500Y-2477500D01*
X1062500Y-2452500D02*
X1037500Y-2477500D01*
X1047747Y-2034565D02*
X1072747Y-2059565D01*
X1072747Y-2034565D02*
X1047747Y-2059565D01*
X1047747Y-2819435D02*
X1072747Y-2844435D01*
X1072747Y-2819435D02*
X1047747Y-2844435D01*
X1048739Y-1278193D02*
X1073739Y-1303193D01*
X1073739Y-1278193D02*
X1048739Y-1303193D01*
X1067500Y-3267500D02*
X1092500Y-3292500D01*
X1092500Y-3267500D02*
X1067500Y-3292500D01*
X1090340Y-243950D02*
X1115340Y-268951D01*
X1115340Y-243950D02*
X1090340Y-268951D01*
X1124967Y-1071546D02*
X1149967Y-1096546D01*
X1149967Y-1071546D02*
X1124967Y-1096546D01*
X1217500Y-2057000D02*
X1242500Y-2082000D01*
X1242500Y-2057000D02*
X1217500Y-2082000D01*
X1217500Y-3657000D02*
X1242500Y-3682000D01*
X1242500Y-3657000D02*
X1217500Y-3682000D01*
X1217500Y-4457000D02*
X1242500Y-4482000D01*
X1242500Y-4457000D02*
X1217500Y-4482000D01*
X1217500Y-5257000D02*
X1242500Y-5282000D01*
X1242500Y-5257000D02*
X1217500Y-5282000D01*
X1219948Y-556154D02*
X1244948Y-581154D01*
X1244948Y-556154D02*
X1219948Y-581154D01*
X1227500Y-2737500D02*
X1252500Y-2762500D01*
X1252500Y-2737500D02*
X1227500Y-2762500D01*
X1297000Y-2939333D02*
X1322000Y-2964333D01*
X1322000Y-2939333D02*
X1297000Y-2964333D01*
X1309592Y-1308257D02*
X1334592Y-1333257D01*
X1334592Y-1308257D02*
X1309592Y-1333257D01*
X1322500Y-2222500D02*
X1347500Y-2247500D01*
X1347500Y-2222500D02*
X1322500Y-2247500D01*
X1367500Y-2172500D02*
X1392500Y-2197500D01*
X1392500Y-2172500D02*
X1367500Y-2197500D01*
X1377500Y-2457000D02*
X1402500Y-2482000D01*
X1402500Y-2457000D02*
X1377500Y-2482000D01*
X1395340Y-243950D02*
X1420340Y-268951D01*
X1420340Y-243950D02*
X1395340Y-268951D01*
X1402941Y-877691D02*
X1427941Y-902691D01*
X1427941Y-877691D02*
X1402941Y-902691D01*
X1412500Y-3827500D02*
X1437500Y-3852500D01*
X1437500Y-3827500D02*
X1412500Y-3852500D01*
X1417500Y-317000D02*
X1442500Y-342000D01*
X1442500Y-317000D02*
X1417500Y-342000D01*
X1417500Y-2117500D02*
X1442500Y-2142500D01*
X1442500Y-2117500D02*
X1417500Y-2142500D01*
X1437000Y-1664667D02*
X1462000Y-1689667D01*
X1462000Y-1664667D02*
X1437000Y-1689667D01*
X1452500Y-377000D02*
X1477500Y-402000D01*
X1477500Y-377000D02*
X1452500Y-402000D01*
X1477500Y-1997000D02*
X1502500Y-2022000D01*
X1502500Y-1997000D02*
X1477500Y-2022000D01*
X1482000Y-677000D02*
X1507000Y-702000D01*
X1507000Y-677000D02*
X1482000Y-702000D01*
X1492500Y-2352500D02*
X1517500Y-2377500D01*
X1517500Y-2352500D02*
X1492500Y-2377500D01*
X1497500Y-2222500D02*
X1522500Y-2247500D01*
X1522500Y-2222500D02*
X1497500Y-2247500D01*
X1502500Y-487500D02*
X1527500Y-512500D01*
X1527500Y-487500D02*
X1502500Y-512500D01*
X1517500Y-2507500D02*
X1542500Y-2532500D01*
X1542500Y-2507500D02*
X1517500Y-2532500D01*
X1535006Y-2070179D02*
X1560006Y-2095179D01*
X1560006Y-2070179D02*
X1535006Y-2095179D01*
X1558324Y-2869296D02*
X1583324Y-2894296D01*
X1583324Y-2869296D02*
X1558324Y-2894296D01*
X1572500Y-2762500D02*
X1597500Y-2787500D01*
X1597500Y-2762500D02*
X1572500Y-2787500D01*
X1597500Y-1862500D02*
X1622500Y-1887500D01*
X1622500Y-1862500D02*
X1597500Y-1887500D01*
X1597500Y-2012500D02*
X1622500Y-2037500D01*
X1622500Y-2012500D02*
X1597500Y-2037500D01*
X1628476Y-2699550D02*
X1653476Y-2724550D01*
X1653476Y-2699550D02*
X1628476Y-2724550D01*
X1632500Y-2507500D02*
X1657500Y-2532500D01*
X1657500Y-2507500D02*
X1632500Y-2532500D01*
X1663257Y-954591D02*
X1688257Y-979591D01*
X1688257Y-954591D02*
X1663257Y-979591D01*
X1667500Y-1372500D02*
X1692500Y-1397500D01*
X1692500Y-1372500D02*
X1667500Y-1397500D01*
X1672500Y-2547500D02*
X1697500Y-2572500D01*
X1697500Y-2547500D02*
X1672500Y-2572500D01*
X1689722Y-2106546D02*
X1714722Y-2131546D01*
X1714722Y-2106546D02*
X1689722Y-2131546D01*
X1697500Y-2457000D02*
X1722500Y-2482000D01*
X1722500Y-2457000D02*
X1697500Y-2482000D01*
X1702500Y-1492500D02*
X1727500Y-1517500D01*
X1727500Y-1492500D02*
X1702500Y-1517500D01*
X1724500Y-247000D02*
X1749500Y-272000D01*
X1749500Y-247000D02*
X1724500Y-272000D01*
X1726995Y-1039724D02*
X1751995Y-1064724D01*
X1751995Y-1039724D02*
X1726995Y-1064724D01*
X1729869Y-564500D02*
X1754869Y-589500D01*
X1754869Y-564500D02*
X1729869Y-589500D01*
X1732500Y-2287000D02*
X1757500Y-2312000D01*
X1757500Y-2287000D02*
X1732500Y-2312000D01*
X1762500Y-2887500D02*
X1787500Y-2912500D01*
X1787500Y-2887500D02*
X1762500Y-2912500D01*
X1780793Y-3671377D02*
X1805793Y-3696377D01*
X1805793Y-3671377D02*
X1780793Y-3696377D01*
X1802500Y-2297500D02*
X1827500Y-2322500D01*
X1827500Y-2297500D02*
X1802500Y-2322500D01*
X1820337Y-1841549D02*
X1845337Y-1866549D01*
X1845337Y-1841549D02*
X1820337Y-1866549D01*
X1822500Y-1602500D02*
X1847500Y-1627500D01*
X1847500Y-1602500D02*
X1822500Y-1627500D01*
X1873250Y-4167000D02*
X1898250Y-4192000D01*
X1898250Y-4167000D02*
X1873250Y-4192000D01*
X1902496Y-1249695D02*
X1927496Y-1274695D01*
X1927496Y-1249695D02*
X1902496Y-1274695D01*
X1924052Y-417846D02*
X1949052Y-442846D01*
X1949052Y-417846D02*
X1924052Y-442846D01*
X1952500Y-2567500D02*
X1977500Y-2592500D01*
X1977500Y-2567500D02*
X1952500Y-2592500D01*
X1983368Y-3992590D02*
X2008368Y-4017590D01*
X2008368Y-3992590D02*
X1983368Y-4017590D01*
X1983368Y-4341410D02*
X2008368Y-4366410D01*
X2008368Y-4341410D02*
X1983368Y-4366410D01*
X2002000Y-707000D02*
X2027000Y-732000D01*
X2027000Y-707000D02*
X2002000Y-732000D01*
X2017500Y-457000D02*
X2042500Y-482000D01*
X2042500Y-457000D02*
X2017500Y-482000D01*
X2017500Y-3657000D02*
X2042500Y-3682000D01*
X2042500Y-3657000D02*
X2017500Y-3682000D01*
X2017500Y-4457000D02*
X2042500Y-4482000D01*
X2042500Y-4457000D02*
X2017500Y-4482000D01*
X2110793Y-3951377D02*
X2135793Y-3976377D01*
X2135793Y-3951377D02*
X2110793Y-3976377D01*
X2117500Y-1677000D02*
X2142500Y-1702000D01*
X2142500Y-1677000D02*
X2117500Y-1702000D01*
X2131111Y-1490567D02*
X2156111Y-1515567D01*
X2156111Y-1490567D02*
X2131111Y-1515567D01*
X2150425Y-1871468D02*
X2175425Y-1896468D01*
X2175425Y-1871468D02*
X2150425Y-1896468D01*
X2184106Y-360966D02*
X2209106Y-385966D01*
X2209106Y-360966D02*
X2184106Y-385966D01*
X2212100Y-913987D02*
X2237100Y-938987D01*
X2237100Y-913987D02*
X2212100Y-938987D01*
X2240173Y-2905610D02*
X2265173Y-2930610D01*
X2265173Y-2905610D02*
X2240173Y-2930610D01*
X2277500Y-917000D02*
X2302500Y-942000D01*
X2302500Y-917000D02*
X2277500Y-942000D01*
X2297500Y-2077000D02*
X2322500Y-2102000D01*
X2322500Y-2077000D02*
X2297500Y-2102000D01*
X2297500Y-2937000D02*
X2322500Y-2962000D01*
X2322500Y-2937000D02*
X2297500Y-2962000D01*
X2297500Y-3097000D02*
X2322500Y-3122000D01*
X2322500Y-3097000D02*
X2297500Y-3122000D01*
X2317500Y-1877000D02*
X2342500Y-1902000D01*
X2342500Y-1877000D02*
X2317500Y-1902000D01*
X2352100Y-553987D02*
X2377100Y-578987D01*
X2377100Y-553987D02*
X2352100Y-578987D01*
X2357500Y-3420923D02*
X2382500Y-3445923D01*
X2382500Y-3420923D02*
X2357500Y-3445923D01*
X2357832Y-1001918D02*
X2382832Y-1026918D01*
X2382832Y-1001918D02*
X2357832Y-1026918D01*
X2357832Y-1306918D02*
X2382832Y-1331918D01*
X2382832Y-1306918D02*
X2357832Y-1331918D01*
X2363331Y-4221987D02*
X2388331Y-4246987D01*
X2388331Y-4221987D02*
X2363331Y-4246987D01*
X2379433Y-3673487D02*
X2404433Y-3698487D01*
X2404433Y-3673487D02*
X2379433Y-3698487D01*
X2397500Y-1817000D02*
X2422500Y-1842000D01*
X2422500Y-1817000D02*
X2397500Y-1842000D01*
X2410050Y-2079675D02*
X2435050Y-2104675D01*
X2435050Y-2079675D02*
X2410050Y-2104675D01*
X2413269Y-573445D02*
X2438269Y-598445D01*
X2438269Y-573445D02*
X2413269Y-598445D01*
X2431463Y-935876D02*
X2456463Y-960876D01*
X2456463Y-935876D02*
X2431463Y-960876D01*
X2457500Y-2577000D02*
X2482500Y-2602000D01*
X2482500Y-2577000D02*
X2457500Y-2602000D01*
X2484515Y-2304966D02*
X2509515Y-2329966D01*
X2509515Y-2304966D02*
X2484515Y-2329966D01*
X2489106Y-540966D02*
X2514106Y-565966D01*
X2514106Y-540966D02*
X2489106Y-565966D01*
X2503269Y-898445D02*
X2528269Y-923445D01*
X2528269Y-898445D02*
X2503269Y-923445D01*
X2511111Y-2650567D02*
X2536111Y-2675567D01*
X2536111Y-2650567D02*
X2511111Y-2675567D01*
X2511111Y-3003432D02*
X2536111Y-3028432D01*
X2536111Y-3003432D02*
X2511111Y-3028432D01*
X2511163Y-1627481D02*
X2536163Y-1652481D01*
X2536163Y-1627481D02*
X2511163Y-1652481D01*
X2526854Y-122429D02*
X2551854Y-147429D01*
X2551854Y-122429D02*
X2526854Y-147429D01*
X2527500Y-1977500D02*
X2552500Y-2002500D01*
X2552500Y-1977500D02*
X2527500Y-2002500D01*
X2552000Y-1294500D02*
X2577000Y-1319500D01*
X2577000Y-1294500D02*
X2552000Y-1319500D01*
X2563946Y-460138D02*
X2588946Y-485138D01*
X2588946Y-460138D02*
X2563946Y-485138D01*
X2564870Y-901526D02*
X2589870Y-926526D01*
X2589870Y-901526D02*
X2564870Y-926526D01*
X2597500Y-1617000D02*
X2622500Y-1642000D01*
X2622500Y-1617000D02*
X2597500Y-1642000D01*
X2597500Y-2317000D02*
X2622500Y-2342000D01*
X2622500Y-2317000D02*
X2597500Y-2342000D01*
X2643331Y-3891987D02*
X2668331Y-3916987D01*
X2668331Y-3891987D02*
X2643331Y-3916987D01*
X2646163Y-1962481D02*
X2671163Y-1987481D01*
X2671163Y-1962481D02*
X2646163Y-1987481D01*
X2667500Y-2277500D02*
X2692500Y-2302500D01*
X2692500Y-2277500D02*
X2667500Y-2302500D01*
X2711463Y-1230876D02*
X2736463Y-1255876D01*
X2736463Y-1230876D02*
X2711463Y-1255876D01*
X2714515Y-1999966D02*
X2739515Y-2024966D01*
X2739515Y-1999966D02*
X2714515Y-2024966D01*
X2743946Y-155138D02*
X2768946Y-180138D01*
X2768946Y-155138D02*
X2743946Y-180138D01*
X2785750Y-3717000D02*
X2810750Y-3742000D01*
X2810750Y-3717000D02*
X2785750Y-3742000D01*
X2785991Y-3060823D02*
X2810991Y-3085823D01*
X2810991Y-3060823D02*
X2785991Y-3085823D01*
X2817500Y-1077000D02*
X2842500Y-1102000D01*
X2842500Y-1077000D02*
X2817500Y-1102000D01*
X2817500Y-4457000D02*
X2842500Y-4482000D01*
X2842500Y-4457000D02*
X2817500Y-4482000D01*
X2837500Y-1357000D02*
X2862500Y-1382000D01*
X2862500Y-1357000D02*
X2837500Y-1382000D01*
X2837500Y-2417000D02*
X2862500Y-2442000D01*
X2862500Y-2417000D02*
X2837500Y-2442000D01*
X2850050Y-3329961D02*
X2875050Y-3354961D01*
X2875050Y-3329961D02*
X2850050Y-3354961D01*
X2857500Y-1122000D02*
X2882500Y-1147000D01*
X2882500Y-1122000D02*
X2857500Y-1147000D01*
X2873507Y-216497D02*
X2898507Y-241497D01*
X2898507Y-216497D02*
X2873507Y-241497D01*
X2873507Y-1517502D02*
X2898507Y-1542502D01*
X2898507Y-1517502D02*
X2873507Y-1542502D01*
X2886389Y-313875D02*
X2911389Y-338875D01*
X2911389Y-313875D02*
X2886389Y-338875D01*
X2895154Y-565792D02*
X2920154Y-590792D01*
X2920154Y-565792D02*
X2895154Y-590792D01*
X2917500Y-2057000D02*
X2942500Y-2082000D01*
X2942500Y-2057000D02*
X2917500Y-2082000D01*
X2922729Y-964054D02*
X2947729Y-989054D01*
X2947729Y-964054D02*
X2922729Y-989054D01*
X2923888Y-1439500D02*
X2948888Y-1464500D01*
X2948888Y-1439500D02*
X2923888Y-1464500D01*
X2924825Y-673400D02*
X2949825Y-698400D01*
X2949825Y-673400D02*
X2924825Y-698400D01*
X2924825Y-1060600D02*
X2949825Y-1085600D01*
X2949825Y-1060600D02*
X2924825Y-1085600D01*
X2936521Y-390102D02*
X2961521Y-415102D01*
X2961521Y-390102D02*
X2936521Y-415102D01*
X2938811Y-1289863D02*
X2963811Y-1314863D01*
X2963811Y-1289863D02*
X2938811Y-1314863D01*
X2939520Y-260952D02*
X2964520Y-285952D01*
X2964520Y-260952D02*
X2939520Y-285952D01*
X2977500Y-1792500D02*
X3002500Y-1817500D01*
X3002500Y-1792500D02*
X2977500Y-1817500D01*
X3072665Y-3439974D02*
X3097665Y-3464974D01*
X3097665Y-3439974D02*
X3072665Y-3464974D01*
X3072665Y-3744974D02*
X3097665Y-3769974D01*
X3097665Y-3744974D02*
X3072665Y-3769974D01*
X3077500Y-2177000D02*
X3102500Y-2202000D01*
X3102500Y-2177000D02*
X3077500Y-2202000D01*
X3117500Y-1767000D02*
X3142500Y-1792000D01*
X3142500Y-1767000D02*
X3117500Y-1792000D01*
X3117500Y-2057000D02*
X3142500Y-2082000D01*
X3142500Y-2057000D02*
X3117500Y-2082000D01*
X3177500Y-1717000D02*
X3202500Y-1742000D01*
X3202500Y-1717000D02*
X3177500Y-1742000D01*
X3177500Y-2177000D02*
X3202500Y-2202000D01*
X3202500Y-2177000D02*
X3177500Y-2202000D01*
X3185750Y-2674500D02*
X3210750Y-2699500D01*
X3210750Y-2674500D02*
X3185750Y-2699500D01*
X3247500Y-4447500D02*
X3272500Y-4472500D01*
X3272500Y-4447500D02*
X3247500Y-4472500D01*
X3277500Y-1477000D02*
X3302500Y-1502000D01*
X3302500Y-1477000D02*
X3277500Y-1502000D01*
X3277500Y-1977000D02*
X3302500Y-2002000D01*
X3302500Y-1977000D02*
X3277500Y-2002000D01*
X3317500Y-2487500D02*
X3342500Y-2512500D01*
X3342500Y-2487500D02*
X3317500Y-2512500D01*
X3317500Y-3807500D02*
X3342500Y-3832500D01*
X3342500Y-3807500D02*
X3317500Y-3832500D01*
X3414920Y-2690206D02*
X3439920Y-2715206D01*
X3439920Y-2690206D02*
X3414920Y-2715206D01*
X3457000Y-867000D02*
X3482000Y-892000D01*
X3482000Y-867000D02*
X3457000Y-892000D01*
X3487500Y-3807500D02*
X3512500Y-3832500D01*
X3512500Y-3807500D02*
X3487500Y-3832500D01*
X3571142Y-588863D02*
X3596142Y-613863D01*
X3596142Y-588863D02*
X3571142Y-613863D01*
X3571142Y-1145137D02*
X3596142Y-1170137D01*
X3596142Y-1145137D02*
X3571142Y-1170137D01*
X3602500Y-2487500D02*
X3627500Y-2512500D01*
X3627500Y-2487500D02*
X3602500Y-2512500D01*
X3617500Y-457000D02*
X3642500Y-482000D01*
X3642500Y-457000D02*
X3617500Y-482000D01*
X3617500Y-3657000D02*
X3642500Y-3682000D01*
X3642500Y-3657000D02*
X3617500Y-3682000D01*
X3617500Y-5257000D02*
X3642500Y-5282000D01*
X3642500Y-5257000D02*
X3617500Y-5282000D01*
X3682000Y-2945750D02*
X3707000Y-2970750D01*
X3707000Y-2945750D02*
X3682000Y-2970750D01*
X3722000Y-602000D02*
X3747000Y-627000D01*
X3747000Y-602000D02*
X3722000Y-627000D01*
X3722000Y-1132000D02*
X3747000Y-1157000D01*
X3747000Y-1132000D02*
X3722000Y-1157000D01*
X3727500Y-4447500D02*
X3752500Y-4472500D01*
X3752500Y-4447500D02*
X3727500Y-4472500D01*
X3819054Y-1666271D02*
X3844054Y-1691271D01*
X3844054Y-1666271D02*
X3819054Y-1691271D01*
X3872858Y-1145137D02*
X3897858Y-1170137D01*
X3897858Y-1145137D02*
X3872858Y-1170137D01*
X3987000Y-1057000D02*
X4012000Y-1082000D01*
X4012000Y-1057000D02*
X3987000Y-1082000D01*
X3992000Y-957000D02*
X4017000Y-982000D01*
X4017000Y-957000D02*
X3992000Y-982000D01*
X4000137Y-716142D02*
X4025137Y-741142D01*
X4025137Y-716142D02*
X4000137Y-741142D01*
X4072750Y-3047241D02*
X4097750Y-3072241D01*
X4097750Y-3047241D02*
X4072750Y-3072241D01*
X4110585Y-2139089D02*
X4135585Y-2164089D01*
X4135585Y-2139089D02*
X4110585Y-2164089D01*
X4337500Y-1237000D02*
X4362500Y-1262000D01*
X4362500Y-1237000D02*
X4337500Y-1262000D01*
X4417500Y-2057000D02*
X4442500Y-2082000D01*
X4442500Y-2057000D02*
X4417500Y-2082000D01*
X4417500Y-2857000D02*
X4442500Y-2882000D01*
X4442500Y-2857000D02*
X4417500Y-2882000D01*
X4417500Y-3657000D02*
X4442500Y-3682000D01*
X4442500Y-3657000D02*
X4417500Y-3682000D01*
X4417500Y-4457000D02*
X4442500Y-4482000D01*
X4442500Y-4457000D02*
X4417500Y-4482000D01*
X4439678Y-1648317D02*
X4464678Y-1673317D01*
X4464678Y-1648317D02*
X4439678Y-1673317D01*
X4504626Y-536895D02*
X4529626Y-561895D01*
X4529626Y-536895D02*
X4504626Y-561895D01*
X4505189Y-444137D02*
X4530189Y-469137D01*
X4530189Y-444137D02*
X4505189Y-469137D01*
X4507104Y-236717D02*
X4532104Y-261717D01*
X4532104Y-236717D02*
X4507104Y-261717D01*
X4852000Y-2079500D02*
X4877000Y-2104500D01*
X4877000Y-2079500D02*
X4852000Y-2104500D01*
X5086502Y-208647D02*
X5111502Y-233647D01*
X5111502Y-208647D02*
X5086502Y-233647D01*
X5089131Y-2056373D02*
X5114131Y-2081373D01*
X5114131Y-2056373D02*
X5089131Y-2081373D01*
X5111867Y-1469242D02*
X5136867Y-1494242D01*
X5136867Y-1469242D02*
X5111867Y-1494242D01*
X5111867Y-2279242D02*
X5136867Y-2304242D01*
X5136867Y-2279242D02*
X5111867Y-2304242D01*
X5143451Y-1318570D02*
X5168451Y-1343570D01*
X5168451Y-1318570D02*
X5143451Y-1343570D01*
X5143451Y-2128570D02*
X5168451Y-2153570D01*
X5168451Y-2128570D02*
X5143451Y-2153570D01*
X5146535Y-1413983D02*
X5171535Y-1438983D01*
X5171535Y-1413983D02*
X5146535Y-1438983D01*
X5146535Y-2223983D02*
X5171535Y-2248983D01*
X5171535Y-2223983D02*
X5146535Y-2248983D01*
X5151466Y-2007739D02*
X5176466Y-2032739D01*
X5176466Y-2007739D02*
X5151466Y-2032739D01*
X5258948Y-1110718D02*
X5283948Y-1135718D01*
X5283948Y-1110718D02*
X5258948Y-1135718D01*
X5264000Y-457000D02*
X5289000Y-482000D01*
X5289000Y-457000D02*
X5264000Y-482000D01*
X5264000Y-2857000D02*
X5289000Y-2882000D01*
X5289000Y-2857000D02*
X5264000Y-2882000D01*
X5264000Y-3657000D02*
X5289000Y-3682000D01*
X5289000Y-3657000D02*
X5264000Y-3682000D01*
X5264000Y-4457000D02*
X5289000Y-4482000D01*
X5289000Y-4457000D02*
X5264000Y-4482000D01*
X5318675Y-1054710D02*
X5343675Y-1079710D01*
X5343675Y-1054710D02*
X5318675Y-1079710D01*
X5377500Y-4937000D02*
X5402500Y-4962000D01*
X5402500Y-4937000D02*
X5377500Y-4962000D01*
X5397500Y-2097000D02*
X5422500Y-2122000D01*
X5422500Y-2097000D02*
X5397500Y-2122000D01*
X5497500Y-2377000D02*
X5522500Y-2402000D01*
X5522500Y-2377000D02*
X5497500Y-2402000D01*
X5537500Y-1742000D02*
X5562500Y-1767000D01*
X5562500Y-1742000D02*
X5537500Y-1767000D01*
X5734857Y-1742539D02*
X5759857Y-1767539D01*
X5759857Y-1742539D02*
X5734857Y-1767539D01*
X5737500Y-1497000D02*
X5762500Y-1522000D01*
X5762500Y-1497000D02*
X5737500Y-1522000D01*
X5737500Y-2137000D02*
X5762500Y-2162000D01*
X5762500Y-2137000D02*
X5737500Y-2162000D01*
X5797500Y-1717000D02*
X5822500Y-1742000D01*
X5822500Y-1717000D02*
X5797500Y-1742000D01*
X5825944Y-1036345D02*
X5850944Y-1061345D01*
X5850944Y-1036345D02*
X5825944Y-1061345D01*
X5837500Y-1917000D02*
X5862500Y-1942000D01*
X5862500Y-1917000D02*
X5837500Y-1942000D01*
X5850131Y-1852670D02*
X5875131Y-1877670D01*
X5875131Y-1852670D02*
X5850131Y-1877670D01*
X5878452Y-557954D02*
X5903452Y-582954D01*
X5903452Y-557954D02*
X5878452Y-582954D01*
X5977500Y-1037000D02*
X6002500Y-1062000D01*
X6002500Y-1037000D02*
X5977500Y-1062000D01*
X5978250Y-1254500D02*
X6003250Y-1279500D01*
X6003250Y-1254500D02*
X5978250Y-1279500D01*
X5989809Y-807457D02*
X6014809Y-832457D01*
X6014809Y-807457D02*
X5989809Y-832457D01*
X5992388Y-1369270D02*
X6017388Y-1394270D01*
X6017388Y-1369270D02*
X5992388Y-1394270D01*
X5997867Y-2417013D02*
X6022867Y-2442013D01*
X6022867Y-2417013D02*
X5997867Y-2442013D01*
X6000549Y-2325430D02*
X6025549Y-2350430D01*
X6025549Y-2325430D02*
X6000549Y-2350430D01*
X6064000Y-457000D02*
X6089000Y-482000D01*
X6089000Y-457000D02*
X6064000Y-482000D01*
X6064000Y-3657000D02*
X6089000Y-3682000D01*
X6089000Y-3657000D02*
X6064000Y-3682000D01*
X6064000Y-4457000D02*
X6089000Y-4482000D01*
X6089000Y-4457000D02*
X6064000Y-4482000D01*
X6117500Y-1097000D02*
X6142500Y-1122000D01*
X6142500Y-1097000D02*
X6117500Y-1122000D01*
X6120940Y-1639783D02*
X6145940Y-1664783D01*
X6145940Y-1639783D02*
X6120940Y-1664783D01*
X6120940Y-2744783D02*
X6145940Y-2769783D01*
X6145940Y-2744783D02*
X6120940Y-2769783D01*
X6153946Y-2950052D02*
X6178946Y-2975052D01*
X6178946Y-2950052D02*
X6153946Y-2975052D01*
X6157500Y-1157000D02*
X6182500Y-1182000D01*
X6182500Y-1157000D02*
X6157500Y-1182000D01*
X6165940Y-2084783D02*
X6190940Y-2109783D01*
X6190940Y-2084783D02*
X6165940Y-2109783D01*
X6183452Y-737954D02*
X6208452Y-762954D01*
X6208452Y-737954D02*
X6183452Y-762954D01*
X6284809Y-707457D02*
X6309809Y-732457D01*
X6309809Y-707457D02*
X6284809Y-732457D01*
X6303723Y-2533436D02*
X6328723Y-2558436D01*
X6328723Y-2533436D02*
X6303723Y-2558436D01*
X6346412Y-1974983D02*
X6371412Y-1999983D01*
X6371412Y-1974983D02*
X6346412Y-1999983D01*
X6379500Y-1239500D02*
X6404500Y-1264500D01*
X6404500Y-1239500D02*
X6379500Y-1264500D01*
X6400940Y-2419783D02*
X6425940Y-2444783D01*
X6425940Y-2419783D02*
X6400940Y-2444783D01*
X6441614Y-1875095D02*
X6466614Y-1900095D01*
X6466614Y-1875095D02*
X6441614Y-1900095D01*
X6445378Y-2033431D02*
X6470378Y-2058431D01*
X6470378Y-2033431D02*
X6445378Y-2058431D01*
X6473723Y-2533436D02*
X6498723Y-2558436D01*
X6498723Y-2533436D02*
X6473723Y-2558436D01*
X6594104Y-2291216D02*
X6619104Y-2316216D01*
X6619104Y-2291216D02*
X6594104Y-2316216D01*
X6623723Y-2443436D02*
X6648723Y-2468436D01*
X6648723Y-2443436D02*
X6623723Y-2468436D01*
X6688703Y-1010487D02*
X6713703Y-1035487D01*
X6713703Y-1010487D02*
X6688703Y-1035487D01*
X6697500Y-2517000D02*
X6722500Y-2542000D01*
X6722500Y-2517000D02*
X6697500Y-2542000D01*
X6732500Y-1457000D02*
X6757500Y-1482000D01*
X6757500Y-1457000D02*
X6732500Y-1482000D01*
X6741423Y-1737000D02*
X6766423Y-1762000D01*
X6766423Y-1737000D02*
X6741423Y-1762000D01*
X6797500Y-1777000D02*
X6822500Y-1802000D01*
X6822500Y-1777000D02*
X6797500Y-1802000D01*
X6845131Y-1304500D02*
X6870131Y-1329500D01*
X6870131Y-1304500D02*
X6845131Y-1329500D01*
X6864000Y-457000D02*
X6889000Y-482000D01*
X6889000Y-457000D02*
X6864000Y-482000D01*
X6864000Y-2057000D02*
X6889000Y-2082000D01*
X6889000Y-2057000D02*
X6864000Y-2082000D01*
X6864000Y-2857000D02*
X6889000Y-2882000D01*
X6889000Y-2857000D02*
X6864000Y-2882000D01*
X6864000Y-3657000D02*
X6889000Y-3682000D01*
X6889000Y-3657000D02*
X6864000Y-3682000D01*
X6864000Y-4457000D02*
X6889000Y-4482000D01*
X6889000Y-4457000D02*
X6864000Y-4482000D01*
X6865131Y-2464500D02*
X6890131Y-2489500D01*
X6890131Y-2464500D02*
X6865131Y-2489500D01*
X6937500Y-1737000D02*
X6962500Y-1762000D01*
X6962500Y-1737000D02*
X6937500Y-1762000D01*
X6937500Y-1937000D02*
X6962500Y-1962000D01*
X6962500Y-1937000D02*
X6937500Y-1962000D01*
X7077500Y-4937000D02*
X7102500Y-4962000D01*
X7102500Y-4937000D02*
X7077500Y-4962000D01*
X7089896Y-2291216D02*
X7114896Y-2316216D01*
X7114896Y-2291216D02*
X7089896Y-2316216D01*
X7237500Y-2137000D02*
X7262500Y-2162000D01*
X7262500Y-2137000D02*
X7237500Y-2162000D01*
X7238621Y-2033431D02*
X7263621Y-2058431D01*
X7263621Y-2033431D02*
X7238621Y-2058431D01*
X7397500Y-1757000D02*
X7422500Y-1782000D01*
X7422500Y-1757000D02*
X7397500Y-1782000D01*
X7397500Y-1957000D02*
X7422500Y-1982000D01*
X7422500Y-1957000D02*
X7397500Y-1982000D01*
X7427588Y-1694016D02*
X7452588Y-1719016D01*
X7452588Y-1694016D02*
X7427588Y-1719016D01*
X7427588Y-2129984D02*
X7452588Y-2154984D01*
X7452588Y-2129984D02*
X7427588Y-2154984D01*
X7477500Y-2357000D02*
X7502500Y-2382000D01*
X7502500Y-2357000D02*
X7477500Y-2382000D01*
X7537500Y-5217500D02*
X7562500Y-5242500D01*
X7562500Y-5217500D02*
X7537500Y-5242500D01*
X7664000Y-457000D02*
X7689000Y-482000D01*
X7689000Y-457000D02*
X7664000Y-482000D01*
X7664000Y-1257000D02*
X7689000Y-1282000D01*
X7689000Y-1257000D02*
X7664000Y-1282000D01*
X7664000Y-2057000D02*
X7689000Y-2082000D01*
X7689000Y-2057000D02*
X7664000Y-2082000D01*
X7664000Y-2857000D02*
X7689000Y-2882000D01*
X7689000Y-2857000D02*
X7664000Y-2882000D01*
X7664000Y-3657000D02*
X7689000Y-3682000D01*
X7689000Y-3657000D02*
X7664000Y-3682000D01*
X4734500Y-1579500D02*
G75*
G02*
X4694500Y-1579500I-20000J0D01*
G01*
X4694500Y-1579500D02*
G75*
G02*
X4734500Y-1579500I20000J0D01*
G01*
X4974500Y-1579500D02*
G75*
G02*
X4934500Y-1579500I-20000J0D01*
G01*
X4934500Y-1579500D02*
G75*
G02*
X4974500Y-1579500I20000J0D01*
G01*
X3068000Y-4609500D02*
X3068000Y-4669500D01*
X3038000Y-4639500D02*
X3098000Y-4639500D01*
X3038000Y-4584500D02*
X3038000Y-4694500D01*
X3098000Y-4694500D02*
G75*
G02*
X3038000Y-4694500I-30000J0D01*
G01*
X3098000Y-4694500D02*
X3098000Y-4584500D01*
X3098000Y-4584500D02*
G75*
G03*
X3038000Y-4584500I-30000J0D01*
G01*
X3068000Y-5027500D02*
X3068000Y-5087500D01*
X3038000Y-5057500D02*
X3098000Y-5057500D01*
X3038000Y-5027500D02*
X3038000Y-5087500D01*
X3098000Y-5087500D02*
G75*
G02*
X3038000Y-5087500I-30000J0D01*
G01*
X3098000Y-5087500D02*
X3098000Y-5027500D01*
X3098000Y-5027500D02*
G75*
G03*
X3038000Y-5027500I-30000J0D01*
G01*
X3932000Y-4609500D02*
X3932000Y-4669500D01*
X3902000Y-4639500D02*
X3962000Y-4639500D01*
X3902000Y-4584500D02*
X3902000Y-4694500D01*
X3962000Y-4694500D02*
G75*
G02*
X3902000Y-4694500I-30000J0D01*
G01*
X3962000Y-4694500D02*
X3962000Y-4584500D01*
X3962000Y-4584500D02*
G75*
G03*
X3902000Y-4584500I-30000J0D01*
G01*
X3932000Y-5027500D02*
X3932000Y-5087500D01*
X3902000Y-5057500D02*
X3962000Y-5057500D01*
X3902000Y-5027500D02*
X3902000Y-5087500D01*
X3962000Y-5087500D02*
G75*
G02*
X3902000Y-5087500I-30000J0D01*
G01*
X3962000Y-5087500D02*
X3962000Y-5027500D01*
X3962000Y-5027500D02*
G75*
G03*
X3902000Y-5027500I-30000J0D01*
G01*
X361017Y-426017D02*
X361017Y-372983D01*
X307983Y-372983D01*
X307983Y-426017D01*
X361017Y-426017D01*
X441017Y-2706017D02*
X441017Y-2652983D01*
X387983Y-2652983D01*
X387983Y-2706017D01*
X441017Y-2706017D01*
X441017Y-2906017D02*
X441017Y-2852983D01*
X387983Y-2852983D01*
X387983Y-2906017D01*
X441017Y-2906017D01*
X441017Y-3106017D02*
X441017Y-3052983D01*
X387983Y-3052983D01*
X387983Y-3106017D01*
X441017Y-3106017D01*
X441017Y-3306017D02*
X441017Y-3252983D01*
X387983Y-3252983D01*
X387983Y-3306017D01*
X441017Y-3306017D01*
X441017Y-3506017D02*
X441017Y-3452983D01*
X387983Y-3452983D01*
X387983Y-3506017D01*
X441017Y-3506017D01*
X446517Y-4426517D02*
X446517Y-4373483D01*
X393483Y-4373483D01*
X393483Y-4426517D01*
X446517Y-4426517D01*
X561017Y-426017D02*
X561017Y-372983D01*
X507983Y-372983D01*
X507983Y-426017D01*
X561017Y-426017D01*
X646517Y-4426517D02*
X646517Y-4373483D01*
X593483Y-4373483D01*
X593483Y-4426517D01*
X646517Y-4426517D01*
X761017Y-426017D02*
X761017Y-372983D01*
X707983Y-372983D01*
X707983Y-426017D01*
X761017Y-426017D01*
X1411017Y-4726017D02*
X1411017Y-4672983D01*
X1357983Y-4672983D01*
X1357983Y-4726017D01*
X1411017Y-4726017D01*
X1611017Y-4726017D02*
X1611017Y-4672983D01*
X1557983Y-4672983D01*
X1557983Y-4726017D01*
X1611017Y-4726017D01*
X1811017Y-4726017D02*
X1811017Y-4672983D01*
X1757983Y-4672983D01*
X1757983Y-4726017D01*
X1811017Y-4726017D01*
X2011017Y-4726017D02*
X2011017Y-4672983D01*
X1957983Y-4672983D01*
X1957983Y-4726017D01*
X2011017Y-4726017D01*
X5361017Y-4676017D02*
X5361017Y-4622983D01*
X5307983Y-4622983D01*
X5307983Y-4676017D01*
X5361017Y-4676017D01*
X5561017Y-4676017D02*
X5561017Y-4622983D01*
X5507983Y-4622983D01*
X5507983Y-4676017D01*
X5561017Y-4676017D01*
X6211017Y-4676017D02*
X6211017Y-4622983D01*
X6157983Y-4622983D01*
X6157983Y-4676017D01*
X6211017Y-4676017D01*
X6411017Y-4676017D02*
X6411017Y-4622983D01*
X6357983Y-4622983D01*
X6357983Y-4676017D01*
X6411017Y-4676017D01*
X7011017Y-4676017D02*
X7011017Y-4622983D01*
X6957983Y-4622983D01*
X6957983Y-4676017D01*
X7011017Y-4676017D01*
X7211017Y-4676017D02*
X7211017Y-4622983D01*
X7157983Y-4622983D01*
X7157983Y-4676017D01*
X7211017Y-4676017D01*
X7821017Y-3976017D02*
X7821017Y-3922983D01*
X7767983Y-3922983D01*
X7767983Y-3976017D01*
X7821017Y-3976017D01*
X7821017Y-4176017D02*
X7821017Y-4122983D01*
X7767983Y-4122983D01*
X7767983Y-4176017D01*
X7821017Y-4176017D01*
X7821017Y-4376017D02*
X7821017Y-4322983D01*
X7767983Y-4322983D01*
X7767983Y-4376017D01*
X7821017Y-4376017D01*
X7821017Y-4576017D02*
X7821017Y-4522983D01*
X7767983Y-4522983D01*
X7767983Y-4576017D01*
X7821017Y-4576017D01*
X7821017Y-4776017D02*
X7821017Y-4722983D01*
X7767983Y-4722983D01*
X7767983Y-4776017D01*
X7821017Y-4776017D01*
X7821017Y-4976017D02*
X7821017Y-4922983D01*
X7767983Y-4922983D01*
X7767983Y-4976017D01*
X7821017Y-4976017D01*
X1334500Y-429500D02*
X1384500Y-379500D01*
X1334500Y-329500D01*
X1284500Y-379500D01*
X1334500Y-429500D01*
X1334500Y-669500D02*
X1384500Y-619500D01*
X1334500Y-569500D01*
X1284500Y-619500D01*
X1334500Y-669500D01*
X1584500Y-429500D02*
X1634500Y-379500D01*
X1584500Y-329500D01*
X1534500Y-379500D01*
X1584500Y-429500D01*
X1584500Y-669500D02*
X1634500Y-619500D01*
X1584500Y-569500D01*
X1534500Y-619500D01*
X1584500Y-669500D01*
X1834500Y-429500D02*
X1884500Y-379500D01*
X1834500Y-329500D01*
X1784500Y-379500D01*
X1834500Y-429500D01*
X1834500Y-669500D02*
X1884500Y-619500D01*
X1834500Y-569500D01*
X1784500Y-619500D01*
X1834500Y-669500D01*
D11*
X258277Y-5663984D02*
X258277Y-5463984D01*
X258277Y-5463984D02*
X305896Y-5463984D01*
X305896Y-5463984D02*
X334467Y-5473508D01*
X334467Y-5473508D02*
X353515Y-5492555D01*
X353515Y-5492555D02*
X363039Y-5511603D01*
X363039Y-5511603D02*
X372562Y-5549698D01*
X372562Y-5549698D02*
X372562Y-5578270D01*
X372562Y-5578270D02*
X363039Y-5616365D01*
X363039Y-5616365D02*
X353515Y-5635412D01*
X353515Y-5635412D02*
X334467Y-5654460D01*
X334467Y-5654460D02*
X305896Y-5663984D01*
X305896Y-5663984D02*
X258277Y-5663984D01*
X458277Y-5663984D02*
X458277Y-5530650D01*
X458277Y-5568746D02*
X467801Y-5549698D01*
X467801Y-5549698D02*
X477324Y-5540174D01*
X477324Y-5540174D02*
X496372Y-5530650D01*
X496372Y-5530650D02*
X515420Y-5530650D01*
X582086Y-5663984D02*
X582086Y-5530650D01*
X582086Y-5463984D02*
X572563Y-5473508D01*
X572563Y-5473508D02*
X582086Y-5483031D01*
X582086Y-5483031D02*
X591610Y-5473508D01*
X591610Y-5473508D02*
X582086Y-5463984D01*
X582086Y-5463984D02*
X582086Y-5483031D01*
X705896Y-5663984D02*
X686848Y-5654460D01*
X686848Y-5654460D02*
X677324Y-5635412D01*
X677324Y-5635412D02*
X677324Y-5463984D01*
X810658Y-5663984D02*
X791610Y-5654460D01*
X791610Y-5654460D02*
X782086Y-5635412D01*
X782086Y-5635412D02*
X782086Y-5463984D01*
X1039229Y-5663984D02*
X1039229Y-5463984D01*
X1039229Y-5463984D02*
X1105896Y-5606841D01*
X1105896Y-5606841D02*
X1172563Y-5463984D01*
X1172563Y-5463984D02*
X1172563Y-5663984D01*
X1353515Y-5663984D02*
X1353515Y-5559222D01*
X1353515Y-5559222D02*
X1343991Y-5540174D01*
X1343991Y-5540174D02*
X1324944Y-5530650D01*
X1324944Y-5530650D02*
X1286848Y-5530650D01*
X1286848Y-5530650D02*
X1267801Y-5540174D01*
X1353515Y-5654460D02*
X1334467Y-5663984D01*
X1334467Y-5663984D02*
X1286848Y-5663984D01*
X1286848Y-5663984D02*
X1267801Y-5654460D01*
X1267801Y-5654460D02*
X1258277Y-5635412D01*
X1258277Y-5635412D02*
X1258277Y-5616365D01*
X1258277Y-5616365D02*
X1267801Y-5597317D01*
X1267801Y-5597317D02*
X1286848Y-5587793D01*
X1286848Y-5587793D02*
X1334467Y-5587793D01*
X1334467Y-5587793D02*
X1353515Y-5578270D01*
X1448753Y-5530650D02*
X1448753Y-5730650D01*
X1448753Y-5540174D02*
X1467801Y-5530650D01*
X1467801Y-5530650D02*
X1505896Y-5530650D01*
X1505896Y-5530650D02*
X1524943Y-5540174D01*
X1524943Y-5540174D02*
X1534467Y-5549698D01*
X1534467Y-5549698D02*
X1543991Y-5568746D01*
X1543991Y-5568746D02*
X1543991Y-5625888D01*
X1543991Y-5625888D02*
X1534467Y-5644936D01*
X1534467Y-5644936D02*
X1524943Y-5654460D01*
X1524943Y-5654460D02*
X1505896Y-5663984D01*
X1505896Y-5663984D02*
X1467801Y-5663984D01*
X1467801Y-5663984D02*
X1448753Y-5654460D01*
X1629705Y-5644936D02*
X1639229Y-5654460D01*
X1639229Y-5654460D02*
X1629705Y-5663984D01*
X1629705Y-5663984D02*
X1620182Y-5654460D01*
X1620182Y-5654460D02*
X1629705Y-5644936D01*
X1629705Y-5644936D02*
X1629705Y-5663984D01*
X1629705Y-5540174D02*
X1639229Y-5549698D01*
X1639229Y-5549698D02*
X1629705Y-5559222D01*
X1629705Y-5559222D02*
X1620182Y-5549698D01*
X1620182Y-5549698D02*
X1629705Y-5540174D01*
X1629705Y-5540174D02*
X1629705Y-5559222D01*
D12*
X-27500Y-5980000D02*
X-2500Y-6005000D01*
X-2500Y-5980000D02*
X-27500Y-6005000D01*
D11*
X296372Y-5883984D02*
X315420Y-5883984D01*
X315420Y-5883984D02*
X334467Y-5893508D01*
X334467Y-5893508D02*
X343991Y-5903031D01*
X343991Y-5903031D02*
X353515Y-5922079D01*
X353515Y-5922079D02*
X363039Y-5960174D01*
X363039Y-5960174D02*
X363039Y-6007793D01*
X363039Y-6007793D02*
X353515Y-6045888D01*
X353515Y-6045888D02*
X343991Y-6064936D01*
X343991Y-6064936D02*
X334467Y-6074460D01*
X334467Y-6074460D02*
X315420Y-6083984D01*
X315420Y-6083984D02*
X296372Y-6083984D01*
X296372Y-6083984D02*
X277324Y-6074460D01*
X277324Y-6074460D02*
X267801Y-6064936D01*
X267801Y-6064936D02*
X258277Y-6045888D01*
X258277Y-6045888D02*
X248753Y-6007793D01*
X248753Y-6007793D02*
X248753Y-5960174D01*
X248753Y-5960174D02*
X258277Y-5922079D01*
X258277Y-5922079D02*
X267801Y-5903031D01*
X267801Y-5903031D02*
X277324Y-5893508D01*
X277324Y-5893508D02*
X296372Y-5883984D01*
X448753Y-6064936D02*
X458277Y-6074460D01*
X458277Y-6074460D02*
X448753Y-6083984D01*
X448753Y-6083984D02*
X439229Y-6074460D01*
X439229Y-6074460D02*
X448753Y-6064936D01*
X448753Y-6064936D02*
X448753Y-6083984D01*
X534467Y-5903031D02*
X543991Y-5893508D01*
X543991Y-5893508D02*
X563039Y-5883984D01*
X563039Y-5883984D02*
X610658Y-5883984D01*
X610658Y-5883984D02*
X629705Y-5893508D01*
X629705Y-5893508D02*
X639229Y-5903031D01*
X639229Y-5903031D02*
X648753Y-5922079D01*
X648753Y-5922079D02*
X648753Y-5941127D01*
X648753Y-5941127D02*
X639229Y-5969698D01*
X639229Y-5969698D02*
X524944Y-6083984D01*
X524944Y-6083984D02*
X648753Y-6083984D01*
X829705Y-5883984D02*
X734467Y-5883984D01*
X734467Y-5883984D02*
X724943Y-5979222D01*
X724943Y-5979222D02*
X734467Y-5969698D01*
X734467Y-5969698D02*
X753515Y-5960174D01*
X753515Y-5960174D02*
X801134Y-5960174D01*
X801134Y-5960174D02*
X820182Y-5969698D01*
X820182Y-5969698D02*
X829705Y-5979222D01*
X829705Y-5979222D02*
X839229Y-5998269D01*
X839229Y-5998269D02*
X839229Y-6045888D01*
X839229Y-6045888D02*
X829705Y-6064936D01*
X829705Y-6064936D02*
X820182Y-6074460D01*
X820182Y-6074460D02*
X801134Y-6083984D01*
X801134Y-6083984D02*
X753515Y-6083984D01*
X753515Y-6083984D02*
X734467Y-6074460D01*
X734467Y-6074460D02*
X724943Y-6064936D01*
X963039Y-5883984D02*
X982086Y-5883984D01*
X982086Y-5883984D02*
X1001134Y-5893508D01*
X1001134Y-5893508D02*
X1010658Y-5903031D01*
X1010658Y-5903031D02*
X1020182Y-5922079D01*
X1020182Y-5922079D02*
X1029705Y-5960174D01*
X1029705Y-5960174D02*
X1029705Y-6007793D01*
X1029705Y-6007793D02*
X1020182Y-6045888D01*
X1020182Y-6045888D02*
X1010658Y-6064936D01*
X1010658Y-6064936D02*
X1001134Y-6074460D01*
X1001134Y-6074460D02*
X982086Y-6083984D01*
X982086Y-6083984D02*
X963039Y-6083984D01*
X963039Y-6083984D02*
X943991Y-6074460D01*
X943991Y-6074460D02*
X934467Y-6064936D01*
X934467Y-6064936D02*
X924943Y-6045888D01*
X924943Y-6045888D02*
X915420Y-6007793D01*
X915420Y-6007793D02*
X915420Y-5960174D01*
X915420Y-5960174D02*
X924943Y-5922079D01*
X924943Y-5922079D02*
X934467Y-5903031D01*
X934467Y-5903031D02*
X943991Y-5893508D01*
X943991Y-5893508D02*
X963039Y-5883984D01*
X1115420Y-6083984D02*
X1115420Y-5950650D01*
X1115420Y-5969698D02*
X1124944Y-5960174D01*
X1124944Y-5960174D02*
X1143991Y-5950650D01*
X1143991Y-5950650D02*
X1172563Y-5950650D01*
X1172563Y-5950650D02*
X1191610Y-5960174D01*
X1191610Y-5960174D02*
X1201134Y-5979222D01*
X1201134Y-5979222D02*
X1201134Y-6083984D01*
X1201134Y-5979222D02*
X1210658Y-5960174D01*
X1210658Y-5960174D02*
X1229705Y-5950650D01*
X1229705Y-5950650D02*
X1258277Y-5950650D01*
X1258277Y-5950650D02*
X1277325Y-5960174D01*
X1277325Y-5960174D02*
X1286848Y-5979222D01*
X1286848Y-5979222D02*
X1286848Y-6083984D01*
X1382086Y-6083984D02*
X1382086Y-5950650D01*
X1382086Y-5969698D02*
X1391610Y-5960174D01*
X1391610Y-5960174D02*
X1410658Y-5950650D01*
X1410658Y-5950650D02*
X1439229Y-5950650D01*
X1439229Y-5950650D02*
X1458277Y-5960174D01*
X1458277Y-5960174D02*
X1467801Y-5979222D01*
X1467801Y-5979222D02*
X1467801Y-6083984D01*
X1467801Y-5979222D02*
X1477324Y-5960174D01*
X1477324Y-5960174D02*
X1496372Y-5950650D01*
X1496372Y-5950650D02*
X1524943Y-5950650D01*
X1524943Y-5950650D02*
X1543991Y-5960174D01*
X1543991Y-5960174D02*
X1553515Y-5979222D01*
X1553515Y-5979222D02*
X1553515Y-6083984D01*
X1943991Y-5874460D02*
X1772563Y-6131603D01*
X2201134Y-5883984D02*
X2220182Y-5883984D01*
X2220182Y-5883984D02*
X2239229Y-5893508D01*
X2239229Y-5893508D02*
X2248753Y-5903031D01*
X2248753Y-5903031D02*
X2258277Y-5922079D01*
X2258277Y-5922079D02*
X2267801Y-5960174D01*
X2267801Y-5960174D02*
X2267801Y-6007793D01*
X2267801Y-6007793D02*
X2258277Y-6045888D01*
X2258277Y-6045888D02*
X2248753Y-6064936D01*
X2248753Y-6064936D02*
X2239229Y-6074460D01*
X2239229Y-6074460D02*
X2220182Y-6083984D01*
X2220182Y-6083984D02*
X2201134Y-6083984D01*
X2201134Y-6083984D02*
X2182087Y-6074460D01*
X2182087Y-6074460D02*
X2172563Y-6064936D01*
X2172563Y-6064936D02*
X2163039Y-6045888D01*
X2163039Y-6045888D02*
X2153515Y-6007793D01*
X2153515Y-6007793D02*
X2153515Y-5960174D01*
X2153515Y-5960174D02*
X2163039Y-5922079D01*
X2163039Y-5922079D02*
X2172563Y-5903031D01*
X2172563Y-5903031D02*
X2182087Y-5893508D01*
X2182087Y-5893508D02*
X2201134Y-5883984D01*
X2353515Y-6064936D02*
X2363039Y-6074460D01*
X2363039Y-6074460D02*
X2353515Y-6083984D01*
X2353515Y-6083984D02*
X2343991Y-6074460D01*
X2343991Y-6074460D02*
X2353515Y-6064936D01*
X2353515Y-6064936D02*
X2353515Y-6083984D01*
X2486848Y-5883984D02*
X2505896Y-5883984D01*
X2505896Y-5883984D02*
X2524944Y-5893508D01*
X2524944Y-5893508D02*
X2534468Y-5903031D01*
X2534468Y-5903031D02*
X2543991Y-5922079D01*
X2543991Y-5922079D02*
X2553515Y-5960174D01*
X2553515Y-5960174D02*
X2553515Y-6007793D01*
X2553515Y-6007793D02*
X2543991Y-6045888D01*
X2543991Y-6045888D02*
X2534468Y-6064936D01*
X2534468Y-6064936D02*
X2524944Y-6074460D01*
X2524944Y-6074460D02*
X2505896Y-6083984D01*
X2505896Y-6083984D02*
X2486848Y-6083984D01*
X2486848Y-6083984D02*
X2467801Y-6074460D01*
X2467801Y-6074460D02*
X2458277Y-6064936D01*
X2458277Y-6064936D02*
X2448753Y-6045888D01*
X2448753Y-6045888D02*
X2439229Y-6007793D01*
X2439229Y-6007793D02*
X2439229Y-5960174D01*
X2439229Y-5960174D02*
X2448753Y-5922079D01*
X2448753Y-5922079D02*
X2458277Y-5903031D01*
X2458277Y-5903031D02*
X2467801Y-5893508D01*
X2467801Y-5893508D02*
X2486848Y-5883984D01*
X2677325Y-5883984D02*
X2696372Y-5883984D01*
X2696372Y-5883984D02*
X2715420Y-5893508D01*
X2715420Y-5893508D02*
X2724944Y-5903031D01*
X2724944Y-5903031D02*
X2734468Y-5922079D01*
X2734468Y-5922079D02*
X2743991Y-5960174D01*
X2743991Y-5960174D02*
X2743991Y-6007793D01*
X2743991Y-6007793D02*
X2734468Y-6045888D01*
X2734468Y-6045888D02*
X2724944Y-6064936D01*
X2724944Y-6064936D02*
X2715420Y-6074460D01*
X2715420Y-6074460D02*
X2696372Y-6083984D01*
X2696372Y-6083984D02*
X2677325Y-6083984D01*
X2677325Y-6083984D02*
X2658277Y-6074460D01*
X2658277Y-6074460D02*
X2648753Y-6064936D01*
X2648753Y-6064936D02*
X2639229Y-6045888D01*
X2639229Y-6045888D02*
X2629706Y-6007793D01*
X2629706Y-6007793D02*
X2629706Y-5960174D01*
X2629706Y-5960174D02*
X2639229Y-5922079D01*
X2639229Y-5922079D02*
X2648753Y-5903031D01*
X2648753Y-5903031D02*
X2658277Y-5893508D01*
X2658277Y-5893508D02*
X2677325Y-5883984D01*
X2839229Y-6083984D02*
X2877325Y-6083984D01*
X2877325Y-6083984D02*
X2896372Y-6074460D01*
X2896372Y-6074460D02*
X2905896Y-6064936D01*
X2905896Y-6064936D02*
X2924944Y-6036365D01*
X2924944Y-6036365D02*
X2934467Y-5998269D01*
X2934467Y-5998269D02*
X2934467Y-5922079D01*
X2934467Y-5922079D02*
X2924944Y-5903031D01*
X2924944Y-5903031D02*
X2915420Y-5893508D01*
X2915420Y-5893508D02*
X2896372Y-5883984D01*
X2896372Y-5883984D02*
X2858277Y-5883984D01*
X2858277Y-5883984D02*
X2839229Y-5893508D01*
X2839229Y-5893508D02*
X2829706Y-5903031D01*
X2829706Y-5903031D02*
X2820182Y-5922079D01*
X2820182Y-5922079D02*
X2820182Y-5969698D01*
X2820182Y-5969698D02*
X2829706Y-5988746D01*
X2829706Y-5988746D02*
X2839229Y-5998269D01*
X2839229Y-5998269D02*
X2858277Y-6007793D01*
X2858277Y-6007793D02*
X2896372Y-6007793D01*
X2896372Y-6007793D02*
X2915420Y-5998269D01*
X2915420Y-5998269D02*
X2924944Y-5988746D01*
X2924944Y-5988746D02*
X2934467Y-5969698D01*
X3048753Y-5969698D02*
X3029706Y-5960174D01*
X3029706Y-5960174D02*
X3020182Y-5950650D01*
X3020182Y-5950650D02*
X3010658Y-5931603D01*
X3010658Y-5931603D02*
X3010658Y-5922079D01*
X3010658Y-5922079D02*
X3020182Y-5903031D01*
X3020182Y-5903031D02*
X3029706Y-5893508D01*
X3029706Y-5893508D02*
X3048753Y-5883984D01*
X3048753Y-5883984D02*
X3086848Y-5883984D01*
X3086848Y-5883984D02*
X3105896Y-5893508D01*
X3105896Y-5893508D02*
X3115420Y-5903031D01*
X3115420Y-5903031D02*
X3124944Y-5922079D01*
X3124944Y-5922079D02*
X3124944Y-5931603D01*
X3124944Y-5931603D02*
X3115420Y-5950650D01*
X3115420Y-5950650D02*
X3105896Y-5960174D01*
X3105896Y-5960174D02*
X3086848Y-5969698D01*
X3086848Y-5969698D02*
X3048753Y-5969698D01*
X3048753Y-5969698D02*
X3029706Y-5979222D01*
X3029706Y-5979222D02*
X3020182Y-5988746D01*
X3020182Y-5988746D02*
X3010658Y-6007793D01*
X3010658Y-6007793D02*
X3010658Y-6045888D01*
X3010658Y-6045888D02*
X3020182Y-6064936D01*
X3020182Y-6064936D02*
X3029706Y-6074460D01*
X3029706Y-6074460D02*
X3048753Y-6083984D01*
X3048753Y-6083984D02*
X3086848Y-6083984D01*
X3086848Y-6083984D02*
X3105896Y-6074460D01*
X3105896Y-6074460D02*
X3115420Y-6064936D01*
X3115420Y-6064936D02*
X3124944Y-6045888D01*
X3124944Y-6045888D02*
X3124944Y-6007793D01*
X3124944Y-6007793D02*
X3115420Y-5988746D01*
X3115420Y-5988746D02*
X3105896Y-5979222D01*
X3105896Y-5979222D02*
X3086848Y-5969698D01*
X3201134Y-5883984D02*
X3201134Y-5922079D01*
X3277325Y-5883984D02*
X3277325Y-5922079D01*
X3572563Y-6160174D02*
X3563039Y-6150650D01*
X3563039Y-6150650D02*
X3543991Y-6122079D01*
X3543991Y-6122079D02*
X3534468Y-6103031D01*
X3534468Y-6103031D02*
X3524944Y-6074460D01*
X3524944Y-6074460D02*
X3515420Y-6026841D01*
X3515420Y-6026841D02*
X3515420Y-5988746D01*
X3515420Y-5988746D02*
X3524944Y-5941127D01*
X3524944Y-5941127D02*
X3534468Y-5912555D01*
X3534468Y-5912555D02*
X3543991Y-5893508D01*
X3543991Y-5893508D02*
X3563039Y-5864936D01*
X3563039Y-5864936D02*
X3572563Y-5855412D01*
X3639229Y-5903031D02*
X3648753Y-5893508D01*
X3648753Y-5893508D02*
X3667801Y-5883984D01*
X3667801Y-5883984D02*
X3715420Y-5883984D01*
X3715420Y-5883984D02*
X3734468Y-5893508D01*
X3734468Y-5893508D02*
X3743991Y-5903031D01*
X3743991Y-5903031D02*
X3753515Y-5922079D01*
X3753515Y-5922079D02*
X3753515Y-5941127D01*
X3753515Y-5941127D02*
X3743991Y-5969698D01*
X3743991Y-5969698D02*
X3629706Y-6083984D01*
X3629706Y-6083984D02*
X3753515Y-6083984D01*
X3924944Y-5883984D02*
X3886848Y-5883984D01*
X3886848Y-5883984D02*
X3867801Y-5893508D01*
X3867801Y-5893508D02*
X3858277Y-5903031D01*
X3858277Y-5903031D02*
X3839229Y-5931603D01*
X3839229Y-5931603D02*
X3829706Y-5969698D01*
X3829706Y-5969698D02*
X3829706Y-6045888D01*
X3829706Y-6045888D02*
X3839229Y-6064936D01*
X3839229Y-6064936D02*
X3848753Y-6074460D01*
X3848753Y-6074460D02*
X3867801Y-6083984D01*
X3867801Y-6083984D02*
X3905896Y-6083984D01*
X3905896Y-6083984D02*
X3924944Y-6074460D01*
X3924944Y-6074460D02*
X3934468Y-6064936D01*
X3934468Y-6064936D02*
X3943991Y-6045888D01*
X3943991Y-6045888D02*
X3943991Y-5998269D01*
X3943991Y-5998269D02*
X3934468Y-5979222D01*
X3934468Y-5979222D02*
X3924944Y-5969698D01*
X3924944Y-5969698D02*
X3905896Y-5960174D01*
X3905896Y-5960174D02*
X3867801Y-5960174D01*
X3867801Y-5960174D02*
X3848753Y-5969698D01*
X3848753Y-5969698D02*
X3839229Y-5979222D01*
X3839229Y-5979222D02*
X3829706Y-5998269D01*
X4067801Y-5883984D02*
X4086849Y-5883984D01*
X4086849Y-5883984D02*
X4105896Y-5893508D01*
X4105896Y-5893508D02*
X4115420Y-5903031D01*
X4115420Y-5903031D02*
X4124944Y-5922079D01*
X4124944Y-5922079D02*
X4134468Y-5960174D01*
X4134468Y-5960174D02*
X4134468Y-6007793D01*
X4134468Y-6007793D02*
X4124944Y-6045888D01*
X4124944Y-6045888D02*
X4115420Y-6064936D01*
X4115420Y-6064936D02*
X4105896Y-6074460D01*
X4105896Y-6074460D02*
X4086849Y-6083984D01*
X4086849Y-6083984D02*
X4067801Y-6083984D01*
X4067801Y-6083984D02*
X4048753Y-6074460D01*
X4048753Y-6074460D02*
X4039229Y-6064936D01*
X4039229Y-6064936D02*
X4029706Y-6045888D01*
X4029706Y-6045888D02*
X4020182Y-6007793D01*
X4020182Y-6007793D02*
X4020182Y-5960174D01*
X4020182Y-5960174D02*
X4029706Y-5922079D01*
X4029706Y-5922079D02*
X4039229Y-5903031D01*
X4039229Y-5903031D02*
X4048753Y-5893508D01*
X4048753Y-5893508D02*
X4067801Y-5883984D01*
X4372563Y-6083984D02*
X4372563Y-5883984D01*
X4458277Y-6083984D02*
X4458277Y-5979222D01*
X4458277Y-5979222D02*
X4448753Y-5960174D01*
X4448753Y-5960174D02*
X4429706Y-5950650D01*
X4429706Y-5950650D02*
X4401134Y-5950650D01*
X4401134Y-5950650D02*
X4382087Y-5960174D01*
X4382087Y-5960174D02*
X4372563Y-5969698D01*
X4582087Y-6083984D02*
X4563039Y-6074460D01*
X4563039Y-6074460D02*
X4553515Y-6064936D01*
X4553515Y-6064936D02*
X4543992Y-6045888D01*
X4543992Y-6045888D02*
X4543992Y-5988746D01*
X4543992Y-5988746D02*
X4553515Y-5969698D01*
X4553515Y-5969698D02*
X4563039Y-5960174D01*
X4563039Y-5960174D02*
X4582087Y-5950650D01*
X4582087Y-5950650D02*
X4610658Y-5950650D01*
X4610658Y-5950650D02*
X4629706Y-5960174D01*
X4629706Y-5960174D02*
X4639230Y-5969698D01*
X4639230Y-5969698D02*
X4648753Y-5988746D01*
X4648753Y-5988746D02*
X4648753Y-6045888D01*
X4648753Y-6045888D02*
X4639230Y-6064936D01*
X4639230Y-6064936D02*
X4629706Y-6074460D01*
X4629706Y-6074460D02*
X4610658Y-6083984D01*
X4610658Y-6083984D02*
X4582087Y-6083984D01*
X4763039Y-6083984D02*
X4743992Y-6074460D01*
X4743992Y-6074460D02*
X4734468Y-6055412D01*
X4734468Y-6055412D02*
X4734468Y-5883984D01*
X4915420Y-6074460D02*
X4896373Y-6083984D01*
X4896373Y-6083984D02*
X4858277Y-6083984D01*
X4858277Y-6083984D02*
X4839230Y-6074460D01*
X4839230Y-6074460D02*
X4829706Y-6055412D01*
X4829706Y-6055412D02*
X4829706Y-5979222D01*
X4829706Y-5979222D02*
X4839230Y-5960174D01*
X4839230Y-5960174D02*
X4858277Y-5950650D01*
X4858277Y-5950650D02*
X4896373Y-5950650D01*
X4896373Y-5950650D02*
X4915420Y-5960174D01*
X4915420Y-5960174D02*
X4924944Y-5979222D01*
X4924944Y-5979222D02*
X4924944Y-5998269D01*
X4924944Y-5998269D02*
X4829706Y-6017317D01*
X5001134Y-6074460D02*
X5020182Y-6083984D01*
X5020182Y-6083984D02*
X5058277Y-6083984D01*
X5058277Y-6083984D02*
X5077325Y-6074460D01*
X5077325Y-6074460D02*
X5086849Y-6055412D01*
X5086849Y-6055412D02*
X5086849Y-6045888D01*
X5086849Y-6045888D02*
X5077325Y-6026841D01*
X5077325Y-6026841D02*
X5058277Y-6017317D01*
X5058277Y-6017317D02*
X5029706Y-6017317D01*
X5029706Y-6017317D02*
X5010658Y-6007793D01*
X5010658Y-6007793D02*
X5001134Y-5988746D01*
X5001134Y-5988746D02*
X5001134Y-5979222D01*
X5001134Y-5979222D02*
X5010658Y-5960174D01*
X5010658Y-5960174D02*
X5029706Y-5950650D01*
X5029706Y-5950650D02*
X5058277Y-5950650D01*
X5058277Y-5950650D02*
X5077325Y-5960174D01*
X5153515Y-6160174D02*
X5163039Y-6150650D01*
X5163039Y-6150650D02*
X5182087Y-6122079D01*
X5182087Y-6122079D02*
X5191611Y-6103031D01*
X5191611Y-6103031D02*
X5201134Y-6074460D01*
X5201134Y-6074460D02*
X5210658Y-6026841D01*
X5210658Y-6026841D02*
X5210658Y-5988746D01*
X5210658Y-5988746D02*
X5201134Y-5941127D01*
X5201134Y-5941127D02*
X5191611Y-5912555D01*
X5191611Y-5912555D02*
X5182087Y-5893508D01*
X5182087Y-5893508D02*
X5163039Y-5864936D01*
X5163039Y-5864936D02*
X5153515Y-5855412D01*
D12*
X-2500Y-6256500D02*
G75*
G02*
X-42500Y-6256500I-20000J0D01*
G01*
X-42500Y-6256500D02*
G75*
G02*
X-2500Y-6256500I20000J0D01*
G01*
D11*
X296372Y-6147984D02*
X315420Y-6147984D01*
X315420Y-6147984D02*
X334467Y-6157508D01*
X334467Y-6157508D02*
X343991Y-6167031D01*
X343991Y-6167031D02*
X353515Y-6186079D01*
X353515Y-6186079D02*
X363039Y-6224174D01*
X363039Y-6224174D02*
X363039Y-6271793D01*
X363039Y-6271793D02*
X353515Y-6309888D01*
X353515Y-6309888D02*
X343991Y-6328936D01*
X343991Y-6328936D02*
X334467Y-6338460D01*
X334467Y-6338460D02*
X315420Y-6347984D01*
X315420Y-6347984D02*
X296372Y-6347984D01*
X296372Y-6347984D02*
X277324Y-6338460D01*
X277324Y-6338460D02*
X267801Y-6328936D01*
X267801Y-6328936D02*
X258277Y-6309888D01*
X258277Y-6309888D02*
X248753Y-6271793D01*
X248753Y-6271793D02*
X248753Y-6224174D01*
X248753Y-6224174D02*
X258277Y-6186079D01*
X258277Y-6186079D02*
X267801Y-6167031D01*
X267801Y-6167031D02*
X277324Y-6157508D01*
X277324Y-6157508D02*
X296372Y-6147984D01*
X448753Y-6328936D02*
X458277Y-6338460D01*
X458277Y-6338460D02*
X448753Y-6347984D01*
X448753Y-6347984D02*
X439229Y-6338460D01*
X439229Y-6338460D02*
X448753Y-6328936D01*
X448753Y-6328936D02*
X448753Y-6347984D01*
X629705Y-6214650D02*
X629705Y-6347984D01*
X582086Y-6138460D02*
X534467Y-6281317D01*
X534467Y-6281317D02*
X658277Y-6281317D01*
X772562Y-6147984D02*
X791610Y-6147984D01*
X791610Y-6147984D02*
X810658Y-6157508D01*
X810658Y-6157508D02*
X820182Y-6167031D01*
X820182Y-6167031D02*
X829705Y-6186079D01*
X829705Y-6186079D02*
X839229Y-6224174D01*
X839229Y-6224174D02*
X839229Y-6271793D01*
X839229Y-6271793D02*
X829705Y-6309888D01*
X829705Y-6309888D02*
X820182Y-6328936D01*
X820182Y-6328936D02*
X810658Y-6338460D01*
X810658Y-6338460D02*
X791610Y-6347984D01*
X791610Y-6347984D02*
X772562Y-6347984D01*
X772562Y-6347984D02*
X753515Y-6338460D01*
X753515Y-6338460D02*
X743991Y-6328936D01*
X743991Y-6328936D02*
X734467Y-6309888D01*
X734467Y-6309888D02*
X724943Y-6271793D01*
X724943Y-6271793D02*
X724943Y-6224174D01*
X724943Y-6224174D02*
X734467Y-6186079D01*
X734467Y-6186079D02*
X743991Y-6167031D01*
X743991Y-6167031D02*
X753515Y-6157508D01*
X753515Y-6157508D02*
X772562Y-6147984D01*
X963039Y-6147984D02*
X982086Y-6147984D01*
X982086Y-6147984D02*
X1001134Y-6157508D01*
X1001134Y-6157508D02*
X1010658Y-6167031D01*
X1010658Y-6167031D02*
X1020182Y-6186079D01*
X1020182Y-6186079D02*
X1029705Y-6224174D01*
X1029705Y-6224174D02*
X1029705Y-6271793D01*
X1029705Y-6271793D02*
X1020182Y-6309888D01*
X1020182Y-6309888D02*
X1010658Y-6328936D01*
X1010658Y-6328936D02*
X1001134Y-6338460D01*
X1001134Y-6338460D02*
X982086Y-6347984D01*
X982086Y-6347984D02*
X963039Y-6347984D01*
X963039Y-6347984D02*
X943991Y-6338460D01*
X943991Y-6338460D02*
X934467Y-6328936D01*
X934467Y-6328936D02*
X924943Y-6309888D01*
X924943Y-6309888D02*
X915420Y-6271793D01*
X915420Y-6271793D02*
X915420Y-6224174D01*
X915420Y-6224174D02*
X924943Y-6186079D01*
X924943Y-6186079D02*
X934467Y-6167031D01*
X934467Y-6167031D02*
X943991Y-6157508D01*
X943991Y-6157508D02*
X963039Y-6147984D01*
X1115420Y-6347984D02*
X1115420Y-6214650D01*
X1115420Y-6233698D02*
X1124944Y-6224174D01*
X1124944Y-6224174D02*
X1143991Y-6214650D01*
X1143991Y-6214650D02*
X1172563Y-6214650D01*
X1172563Y-6214650D02*
X1191610Y-6224174D01*
X1191610Y-6224174D02*
X1201134Y-6243222D01*
X1201134Y-6243222D02*
X1201134Y-6347984D01*
X1201134Y-6243222D02*
X1210658Y-6224174D01*
X1210658Y-6224174D02*
X1229705Y-6214650D01*
X1229705Y-6214650D02*
X1258277Y-6214650D01*
X1258277Y-6214650D02*
X1277325Y-6224174D01*
X1277325Y-6224174D02*
X1286848Y-6243222D01*
X1286848Y-6243222D02*
X1286848Y-6347984D01*
X1382086Y-6347984D02*
X1382086Y-6214650D01*
X1382086Y-6233698D02*
X1391610Y-6224174D01*
X1391610Y-6224174D02*
X1410658Y-6214650D01*
X1410658Y-6214650D02*
X1439229Y-6214650D01*
X1439229Y-6214650D02*
X1458277Y-6224174D01*
X1458277Y-6224174D02*
X1467801Y-6243222D01*
X1467801Y-6243222D02*
X1467801Y-6347984D01*
X1467801Y-6243222D02*
X1477324Y-6224174D01*
X1477324Y-6224174D02*
X1496372Y-6214650D01*
X1496372Y-6214650D02*
X1524943Y-6214650D01*
X1524943Y-6214650D02*
X1543991Y-6224174D01*
X1543991Y-6224174D02*
X1553515Y-6243222D01*
X1553515Y-6243222D02*
X1553515Y-6347984D01*
X1943991Y-6138460D02*
X1772563Y-6395603D01*
X2201134Y-6147984D02*
X2220182Y-6147984D01*
X2220182Y-6147984D02*
X2239229Y-6157508D01*
X2239229Y-6157508D02*
X2248753Y-6167031D01*
X2248753Y-6167031D02*
X2258277Y-6186079D01*
X2258277Y-6186079D02*
X2267801Y-6224174D01*
X2267801Y-6224174D02*
X2267801Y-6271793D01*
X2267801Y-6271793D02*
X2258277Y-6309888D01*
X2258277Y-6309888D02*
X2248753Y-6328936D01*
X2248753Y-6328936D02*
X2239229Y-6338460D01*
X2239229Y-6338460D02*
X2220182Y-6347984D01*
X2220182Y-6347984D02*
X2201134Y-6347984D01*
X2201134Y-6347984D02*
X2182087Y-6338460D01*
X2182087Y-6338460D02*
X2172563Y-6328936D01*
X2172563Y-6328936D02*
X2163039Y-6309888D01*
X2163039Y-6309888D02*
X2153515Y-6271793D01*
X2153515Y-6271793D02*
X2153515Y-6224174D01*
X2153515Y-6224174D02*
X2163039Y-6186079D01*
X2163039Y-6186079D02*
X2172563Y-6167031D01*
X2172563Y-6167031D02*
X2182087Y-6157508D01*
X2182087Y-6157508D02*
X2201134Y-6147984D01*
X2353515Y-6328936D02*
X2363039Y-6338460D01*
X2363039Y-6338460D02*
X2353515Y-6347984D01*
X2353515Y-6347984D02*
X2343991Y-6338460D01*
X2343991Y-6338460D02*
X2353515Y-6328936D01*
X2353515Y-6328936D02*
X2353515Y-6347984D01*
X2486848Y-6147984D02*
X2505896Y-6147984D01*
X2505896Y-6147984D02*
X2524944Y-6157508D01*
X2524944Y-6157508D02*
X2534468Y-6167031D01*
X2534468Y-6167031D02*
X2543991Y-6186079D01*
X2543991Y-6186079D02*
X2553515Y-6224174D01*
X2553515Y-6224174D02*
X2553515Y-6271793D01*
X2553515Y-6271793D02*
X2543991Y-6309888D01*
X2543991Y-6309888D02*
X2534468Y-6328936D01*
X2534468Y-6328936D02*
X2524944Y-6338460D01*
X2524944Y-6338460D02*
X2505896Y-6347984D01*
X2505896Y-6347984D02*
X2486848Y-6347984D01*
X2486848Y-6347984D02*
X2467801Y-6338460D01*
X2467801Y-6338460D02*
X2458277Y-6328936D01*
X2458277Y-6328936D02*
X2448753Y-6309888D01*
X2448753Y-6309888D02*
X2439229Y-6271793D01*
X2439229Y-6271793D02*
X2439229Y-6224174D01*
X2439229Y-6224174D02*
X2448753Y-6186079D01*
X2448753Y-6186079D02*
X2458277Y-6167031D01*
X2458277Y-6167031D02*
X2467801Y-6157508D01*
X2467801Y-6157508D02*
X2486848Y-6147984D01*
X2743991Y-6347984D02*
X2629706Y-6347984D01*
X2686848Y-6347984D02*
X2686848Y-6147984D01*
X2686848Y-6147984D02*
X2667801Y-6176555D01*
X2667801Y-6176555D02*
X2648753Y-6195603D01*
X2648753Y-6195603D02*
X2629706Y-6205127D01*
X2924944Y-6147984D02*
X2829706Y-6147984D01*
X2829706Y-6147984D02*
X2820182Y-6243222D01*
X2820182Y-6243222D02*
X2829706Y-6233698D01*
X2829706Y-6233698D02*
X2848753Y-6224174D01*
X2848753Y-6224174D02*
X2896372Y-6224174D01*
X2896372Y-6224174D02*
X2915420Y-6233698D01*
X2915420Y-6233698D02*
X2924944Y-6243222D01*
X2924944Y-6243222D02*
X2934467Y-6262269D01*
X2934467Y-6262269D02*
X2934467Y-6309888D01*
X2934467Y-6309888D02*
X2924944Y-6328936D01*
X2924944Y-6328936D02*
X2915420Y-6338460D01*
X2915420Y-6338460D02*
X2896372Y-6347984D01*
X2896372Y-6347984D02*
X2848753Y-6347984D01*
X2848753Y-6347984D02*
X2829706Y-6338460D01*
X2829706Y-6338460D02*
X2820182Y-6328936D01*
X3001134Y-6147984D02*
X3134467Y-6147984D01*
X3134467Y-6147984D02*
X3048753Y-6347984D01*
X3201134Y-6147984D02*
X3201134Y-6186079D01*
X3277325Y-6147984D02*
X3277325Y-6186079D01*
X3572563Y-6424174D02*
X3563039Y-6414650D01*
X3563039Y-6414650D02*
X3543991Y-6386079D01*
X3543991Y-6386079D02*
X3534468Y-6367031D01*
X3534468Y-6367031D02*
X3524944Y-6338460D01*
X3524944Y-6338460D02*
X3515420Y-6290841D01*
X3515420Y-6290841D02*
X3515420Y-6252746D01*
X3515420Y-6252746D02*
X3524944Y-6205127D01*
X3524944Y-6205127D02*
X3534468Y-6176555D01*
X3534468Y-6176555D02*
X3543991Y-6157508D01*
X3543991Y-6157508D02*
X3563039Y-6128936D01*
X3563039Y-6128936D02*
X3572563Y-6119412D01*
X3639229Y-6167031D02*
X3648753Y-6157508D01*
X3648753Y-6157508D02*
X3667801Y-6147984D01*
X3667801Y-6147984D02*
X3715420Y-6147984D01*
X3715420Y-6147984D02*
X3734468Y-6157508D01*
X3734468Y-6157508D02*
X3743991Y-6167031D01*
X3743991Y-6167031D02*
X3753515Y-6186079D01*
X3753515Y-6186079D02*
X3753515Y-6205127D01*
X3753515Y-6205127D02*
X3743991Y-6233698D01*
X3743991Y-6233698D02*
X3629706Y-6347984D01*
X3629706Y-6347984D02*
X3753515Y-6347984D01*
X3991610Y-6347984D02*
X3991610Y-6147984D01*
X4077325Y-6347984D02*
X4077325Y-6243222D01*
X4077325Y-6243222D02*
X4067801Y-6224174D01*
X4067801Y-6224174D02*
X4048753Y-6214650D01*
X4048753Y-6214650D02*
X4020182Y-6214650D01*
X4020182Y-6214650D02*
X4001134Y-6224174D01*
X4001134Y-6224174D02*
X3991610Y-6233698D01*
X4201134Y-6347984D02*
X4182087Y-6338460D01*
X4182087Y-6338460D02*
X4172563Y-6328936D01*
X4172563Y-6328936D02*
X4163039Y-6309888D01*
X4163039Y-6309888D02*
X4163039Y-6252746D01*
X4163039Y-6252746D02*
X4172563Y-6233698D01*
X4172563Y-6233698D02*
X4182087Y-6224174D01*
X4182087Y-6224174D02*
X4201134Y-6214650D01*
X4201134Y-6214650D02*
X4229706Y-6214650D01*
X4229706Y-6214650D02*
X4248753Y-6224174D01*
X4248753Y-6224174D02*
X4258277Y-6233698D01*
X4258277Y-6233698D02*
X4267801Y-6252746D01*
X4267801Y-6252746D02*
X4267801Y-6309888D01*
X4267801Y-6309888D02*
X4258277Y-6328936D01*
X4258277Y-6328936D02*
X4248753Y-6338460D01*
X4248753Y-6338460D02*
X4229706Y-6347984D01*
X4229706Y-6347984D02*
X4201134Y-6347984D01*
X4382087Y-6347984D02*
X4363039Y-6338460D01*
X4363039Y-6338460D02*
X4353515Y-6319412D01*
X4353515Y-6319412D02*
X4353515Y-6147984D01*
X4534468Y-6338460D02*
X4515420Y-6347984D01*
X4515420Y-6347984D02*
X4477325Y-6347984D01*
X4477325Y-6347984D02*
X4458277Y-6338460D01*
X4458277Y-6338460D02*
X4448753Y-6319412D01*
X4448753Y-6319412D02*
X4448753Y-6243222D01*
X4448753Y-6243222D02*
X4458277Y-6224174D01*
X4458277Y-6224174D02*
X4477325Y-6214650D01*
X4477325Y-6214650D02*
X4515420Y-6214650D01*
X4515420Y-6214650D02*
X4534468Y-6224174D01*
X4534468Y-6224174D02*
X4543992Y-6243222D01*
X4543992Y-6243222D02*
X4543992Y-6262269D01*
X4543992Y-6262269D02*
X4448753Y-6281317D01*
X4620182Y-6338460D02*
X4639230Y-6347984D01*
X4639230Y-6347984D02*
X4677325Y-6347984D01*
X4677325Y-6347984D02*
X4696373Y-6338460D01*
X4696373Y-6338460D02*
X4705896Y-6319412D01*
X4705896Y-6319412D02*
X4705896Y-6309888D01*
X4705896Y-6309888D02*
X4696373Y-6290841D01*
X4696373Y-6290841D02*
X4677325Y-6281317D01*
X4677325Y-6281317D02*
X4648753Y-6281317D01*
X4648753Y-6281317D02*
X4629706Y-6271793D01*
X4629706Y-6271793D02*
X4620182Y-6252746D01*
X4620182Y-6252746D02*
X4620182Y-6243222D01*
X4620182Y-6243222D02*
X4629706Y-6224174D01*
X4629706Y-6224174D02*
X4648753Y-6214650D01*
X4648753Y-6214650D02*
X4677325Y-6214650D01*
X4677325Y-6214650D02*
X4696373Y-6224174D01*
X4772563Y-6424174D02*
X4782087Y-6414650D01*
X4782087Y-6414650D02*
X4801134Y-6386079D01*
X4801134Y-6386079D02*
X4810658Y-6367031D01*
X4810658Y-6367031D02*
X4820182Y-6338460D01*
X4820182Y-6338460D02*
X4829706Y-6290841D01*
X4829706Y-6290841D02*
X4829706Y-6252746D01*
X4829706Y-6252746D02*
X4820182Y-6205127D01*
X4820182Y-6205127D02*
X4810658Y-6176555D01*
X4810658Y-6176555D02*
X4801134Y-6157508D01*
X4801134Y-6157508D02*
X4782087Y-6128936D01*
X4782087Y-6128936D02*
X4772563Y-6119412D01*
D12*
X-32500Y-6490500D02*
X-32500Y-6550500D01*
X-62500Y-6520500D02*
X-2500Y-6520500D01*
D11*
X296372Y-6411984D02*
X315420Y-6411984D01*
X315420Y-6411984D02*
X334467Y-6421508D01*
X334467Y-6421508D02*
X343991Y-6431031D01*
X343991Y-6431031D02*
X353515Y-6450079D01*
X353515Y-6450079D02*
X363039Y-6488174D01*
X363039Y-6488174D02*
X363039Y-6535793D01*
X363039Y-6535793D02*
X353515Y-6573888D01*
X353515Y-6573888D02*
X343991Y-6592936D01*
X343991Y-6592936D02*
X334467Y-6602460D01*
X334467Y-6602460D02*
X315420Y-6611984D01*
X315420Y-6611984D02*
X296372Y-6611984D01*
X296372Y-6611984D02*
X277324Y-6602460D01*
X277324Y-6602460D02*
X267801Y-6592936D01*
X267801Y-6592936D02*
X258277Y-6573888D01*
X258277Y-6573888D02*
X248753Y-6535793D01*
X248753Y-6535793D02*
X248753Y-6488174D01*
X248753Y-6488174D02*
X258277Y-6450079D01*
X258277Y-6450079D02*
X267801Y-6431031D01*
X267801Y-6431031D02*
X277324Y-6421508D01*
X277324Y-6421508D02*
X296372Y-6411984D01*
X448753Y-6592936D02*
X458277Y-6602460D01*
X458277Y-6602460D02*
X448753Y-6611984D01*
X448753Y-6611984D02*
X439229Y-6602460D01*
X439229Y-6602460D02*
X448753Y-6592936D01*
X448753Y-6592936D02*
X448753Y-6611984D01*
X629705Y-6411984D02*
X591610Y-6411984D01*
X591610Y-6411984D02*
X572563Y-6421508D01*
X572563Y-6421508D02*
X563039Y-6431031D01*
X563039Y-6431031D02*
X543991Y-6459603D01*
X543991Y-6459603D02*
X534467Y-6497698D01*
X534467Y-6497698D02*
X534467Y-6573888D01*
X534467Y-6573888D02*
X543991Y-6592936D01*
X543991Y-6592936D02*
X553515Y-6602460D01*
X553515Y-6602460D02*
X572563Y-6611984D01*
X572563Y-6611984D02*
X610658Y-6611984D01*
X610658Y-6611984D02*
X629705Y-6602460D01*
X629705Y-6602460D02*
X639229Y-6592936D01*
X639229Y-6592936D02*
X648753Y-6573888D01*
X648753Y-6573888D02*
X648753Y-6526269D01*
X648753Y-6526269D02*
X639229Y-6507222D01*
X639229Y-6507222D02*
X629705Y-6497698D01*
X629705Y-6497698D02*
X610658Y-6488174D01*
X610658Y-6488174D02*
X572563Y-6488174D01*
X572563Y-6488174D02*
X553515Y-6497698D01*
X553515Y-6497698D02*
X543991Y-6507222D01*
X543991Y-6507222D02*
X534467Y-6526269D01*
X772562Y-6411984D02*
X791610Y-6411984D01*
X791610Y-6411984D02*
X810658Y-6421508D01*
X810658Y-6421508D02*
X820182Y-6431031D01*
X820182Y-6431031D02*
X829705Y-6450079D01*
X829705Y-6450079D02*
X839229Y-6488174D01*
X839229Y-6488174D02*
X839229Y-6535793D01*
X839229Y-6535793D02*
X829705Y-6573888D01*
X829705Y-6573888D02*
X820182Y-6592936D01*
X820182Y-6592936D02*
X810658Y-6602460D01*
X810658Y-6602460D02*
X791610Y-6611984D01*
X791610Y-6611984D02*
X772562Y-6611984D01*
X772562Y-6611984D02*
X753515Y-6602460D01*
X753515Y-6602460D02*
X743991Y-6592936D01*
X743991Y-6592936D02*
X734467Y-6573888D01*
X734467Y-6573888D02*
X724943Y-6535793D01*
X724943Y-6535793D02*
X724943Y-6488174D01*
X724943Y-6488174D02*
X734467Y-6450079D01*
X734467Y-6450079D02*
X743991Y-6431031D01*
X743991Y-6431031D02*
X753515Y-6421508D01*
X753515Y-6421508D02*
X772562Y-6411984D01*
X963039Y-6411984D02*
X982086Y-6411984D01*
X982086Y-6411984D02*
X1001134Y-6421508D01*
X1001134Y-6421508D02*
X1010658Y-6431031D01*
X1010658Y-6431031D02*
X1020182Y-6450079D01*
X1020182Y-6450079D02*
X1029705Y-6488174D01*
X1029705Y-6488174D02*
X1029705Y-6535793D01*
X1029705Y-6535793D02*
X1020182Y-6573888D01*
X1020182Y-6573888D02*
X1010658Y-6592936D01*
X1010658Y-6592936D02*
X1001134Y-6602460D01*
X1001134Y-6602460D02*
X982086Y-6611984D01*
X982086Y-6611984D02*
X963039Y-6611984D01*
X963039Y-6611984D02*
X943991Y-6602460D01*
X943991Y-6602460D02*
X934467Y-6592936D01*
X934467Y-6592936D02*
X924943Y-6573888D01*
X924943Y-6573888D02*
X915420Y-6535793D01*
X915420Y-6535793D02*
X915420Y-6488174D01*
X915420Y-6488174D02*
X924943Y-6450079D01*
X924943Y-6450079D02*
X934467Y-6431031D01*
X934467Y-6431031D02*
X943991Y-6421508D01*
X943991Y-6421508D02*
X963039Y-6411984D01*
X1115420Y-6611984D02*
X1115420Y-6478650D01*
X1115420Y-6497698D02*
X1124944Y-6488174D01*
X1124944Y-6488174D02*
X1143991Y-6478650D01*
X1143991Y-6478650D02*
X1172563Y-6478650D01*
X1172563Y-6478650D02*
X1191610Y-6488174D01*
X1191610Y-6488174D02*
X1201134Y-6507222D01*
X1201134Y-6507222D02*
X1201134Y-6611984D01*
X1201134Y-6507222D02*
X1210658Y-6488174D01*
X1210658Y-6488174D02*
X1229705Y-6478650D01*
X1229705Y-6478650D02*
X1258277Y-6478650D01*
X1258277Y-6478650D02*
X1277325Y-6488174D01*
X1277325Y-6488174D02*
X1286848Y-6507222D01*
X1286848Y-6507222D02*
X1286848Y-6611984D01*
X1382086Y-6611984D02*
X1382086Y-6478650D01*
X1382086Y-6497698D02*
X1391610Y-6488174D01*
X1391610Y-6488174D02*
X1410658Y-6478650D01*
X1410658Y-6478650D02*
X1439229Y-6478650D01*
X1439229Y-6478650D02*
X1458277Y-6488174D01*
X1458277Y-6488174D02*
X1467801Y-6507222D01*
X1467801Y-6507222D02*
X1467801Y-6611984D01*
X1467801Y-6507222D02*
X1477324Y-6488174D01*
X1477324Y-6488174D02*
X1496372Y-6478650D01*
X1496372Y-6478650D02*
X1524943Y-6478650D01*
X1524943Y-6478650D02*
X1543991Y-6488174D01*
X1543991Y-6488174D02*
X1553515Y-6507222D01*
X1553515Y-6507222D02*
X1553515Y-6611984D01*
X1943991Y-6402460D02*
X1772563Y-6659603D01*
X2201134Y-6411984D02*
X2220182Y-6411984D01*
X2220182Y-6411984D02*
X2239229Y-6421508D01*
X2239229Y-6421508D02*
X2248753Y-6431031D01*
X2248753Y-6431031D02*
X2258277Y-6450079D01*
X2258277Y-6450079D02*
X2267801Y-6488174D01*
X2267801Y-6488174D02*
X2267801Y-6535793D01*
X2267801Y-6535793D02*
X2258277Y-6573888D01*
X2258277Y-6573888D02*
X2248753Y-6592936D01*
X2248753Y-6592936D02*
X2239229Y-6602460D01*
X2239229Y-6602460D02*
X2220182Y-6611984D01*
X2220182Y-6611984D02*
X2201134Y-6611984D01*
X2201134Y-6611984D02*
X2182087Y-6602460D01*
X2182087Y-6602460D02*
X2172563Y-6592936D01*
X2172563Y-6592936D02*
X2163039Y-6573888D01*
X2163039Y-6573888D02*
X2153515Y-6535793D01*
X2153515Y-6535793D02*
X2153515Y-6488174D01*
X2153515Y-6488174D02*
X2163039Y-6450079D01*
X2163039Y-6450079D02*
X2172563Y-6431031D01*
X2172563Y-6431031D02*
X2182087Y-6421508D01*
X2182087Y-6421508D02*
X2201134Y-6411984D01*
X2353515Y-6592936D02*
X2363039Y-6602460D01*
X2363039Y-6602460D02*
X2353515Y-6611984D01*
X2353515Y-6611984D02*
X2343991Y-6602460D01*
X2343991Y-6602460D02*
X2353515Y-6592936D01*
X2353515Y-6592936D02*
X2353515Y-6611984D01*
X2486848Y-6411984D02*
X2505896Y-6411984D01*
X2505896Y-6411984D02*
X2524944Y-6421508D01*
X2524944Y-6421508D02*
X2534468Y-6431031D01*
X2534468Y-6431031D02*
X2543991Y-6450079D01*
X2543991Y-6450079D02*
X2553515Y-6488174D01*
X2553515Y-6488174D02*
X2553515Y-6535793D01*
X2553515Y-6535793D02*
X2543991Y-6573888D01*
X2543991Y-6573888D02*
X2534468Y-6592936D01*
X2534468Y-6592936D02*
X2524944Y-6602460D01*
X2524944Y-6602460D02*
X2505896Y-6611984D01*
X2505896Y-6611984D02*
X2486848Y-6611984D01*
X2486848Y-6611984D02*
X2467801Y-6602460D01*
X2467801Y-6602460D02*
X2458277Y-6592936D01*
X2458277Y-6592936D02*
X2448753Y-6573888D01*
X2448753Y-6573888D02*
X2439229Y-6535793D01*
X2439229Y-6535793D02*
X2439229Y-6488174D01*
X2439229Y-6488174D02*
X2448753Y-6450079D01*
X2448753Y-6450079D02*
X2458277Y-6431031D01*
X2458277Y-6431031D02*
X2467801Y-6421508D01*
X2467801Y-6421508D02*
X2486848Y-6411984D01*
X2629706Y-6431031D02*
X2639229Y-6421508D01*
X2639229Y-6421508D02*
X2658277Y-6411984D01*
X2658277Y-6411984D02*
X2705896Y-6411984D01*
X2705896Y-6411984D02*
X2724944Y-6421508D01*
X2724944Y-6421508D02*
X2734468Y-6431031D01*
X2734468Y-6431031D02*
X2743991Y-6450079D01*
X2743991Y-6450079D02*
X2743991Y-6469127D01*
X2743991Y-6469127D02*
X2734468Y-6497698D01*
X2734468Y-6497698D02*
X2620182Y-6611984D01*
X2620182Y-6611984D02*
X2743991Y-6611984D01*
X2810658Y-6411984D02*
X2934467Y-6411984D01*
X2934467Y-6411984D02*
X2867801Y-6488174D01*
X2867801Y-6488174D02*
X2896372Y-6488174D01*
X2896372Y-6488174D02*
X2915420Y-6497698D01*
X2915420Y-6497698D02*
X2924944Y-6507222D01*
X2924944Y-6507222D02*
X2934467Y-6526269D01*
X2934467Y-6526269D02*
X2934467Y-6573888D01*
X2934467Y-6573888D02*
X2924944Y-6592936D01*
X2924944Y-6592936D02*
X2915420Y-6602460D01*
X2915420Y-6602460D02*
X2896372Y-6611984D01*
X2896372Y-6611984D02*
X2839229Y-6611984D01*
X2839229Y-6611984D02*
X2820182Y-6602460D01*
X2820182Y-6602460D02*
X2810658Y-6592936D01*
X3105896Y-6411984D02*
X3067801Y-6411984D01*
X3067801Y-6411984D02*
X3048753Y-6421508D01*
X3048753Y-6421508D02*
X3039229Y-6431031D01*
X3039229Y-6431031D02*
X3020182Y-6459603D01*
X3020182Y-6459603D02*
X3010658Y-6497698D01*
X3010658Y-6497698D02*
X3010658Y-6573888D01*
X3010658Y-6573888D02*
X3020182Y-6592936D01*
X3020182Y-6592936D02*
X3029706Y-6602460D01*
X3029706Y-6602460D02*
X3048753Y-6611984D01*
X3048753Y-6611984D02*
X3086848Y-6611984D01*
X3086848Y-6611984D02*
X3105896Y-6602460D01*
X3105896Y-6602460D02*
X3115420Y-6592936D01*
X3115420Y-6592936D02*
X3124944Y-6573888D01*
X3124944Y-6573888D02*
X3124944Y-6526269D01*
X3124944Y-6526269D02*
X3115420Y-6507222D01*
X3115420Y-6507222D02*
X3105896Y-6497698D01*
X3105896Y-6497698D02*
X3086848Y-6488174D01*
X3086848Y-6488174D02*
X3048753Y-6488174D01*
X3048753Y-6488174D02*
X3029706Y-6497698D01*
X3029706Y-6497698D02*
X3020182Y-6507222D01*
X3020182Y-6507222D02*
X3010658Y-6526269D01*
X3201134Y-6411984D02*
X3201134Y-6450079D01*
X3277325Y-6411984D02*
X3277325Y-6450079D01*
X3572563Y-6688174D02*
X3563039Y-6678650D01*
X3563039Y-6678650D02*
X3543991Y-6650079D01*
X3543991Y-6650079D02*
X3534468Y-6631031D01*
X3534468Y-6631031D02*
X3524944Y-6602460D01*
X3524944Y-6602460D02*
X3515420Y-6554841D01*
X3515420Y-6554841D02*
X3515420Y-6516746D01*
X3515420Y-6516746D02*
X3524944Y-6469127D01*
X3524944Y-6469127D02*
X3534468Y-6440555D01*
X3534468Y-6440555D02*
X3543991Y-6421508D01*
X3543991Y-6421508D02*
X3563039Y-6392936D01*
X3563039Y-6392936D02*
X3572563Y-6383412D01*
X3686848Y-6411984D02*
X3705896Y-6411984D01*
X3705896Y-6411984D02*
X3724944Y-6421508D01*
X3724944Y-6421508D02*
X3734468Y-6431031D01*
X3734468Y-6431031D02*
X3743991Y-6450079D01*
X3743991Y-6450079D02*
X3753515Y-6488174D01*
X3753515Y-6488174D02*
X3753515Y-6535793D01*
X3753515Y-6535793D02*
X3743991Y-6573888D01*
X3743991Y-6573888D02*
X3734468Y-6592936D01*
X3734468Y-6592936D02*
X3724944Y-6602460D01*
X3724944Y-6602460D02*
X3705896Y-6611984D01*
X3705896Y-6611984D02*
X3686848Y-6611984D01*
X3686848Y-6611984D02*
X3667801Y-6602460D01*
X3667801Y-6602460D02*
X3658277Y-6592936D01*
X3658277Y-6592936D02*
X3648753Y-6573888D01*
X3648753Y-6573888D02*
X3639229Y-6535793D01*
X3639229Y-6535793D02*
X3639229Y-6488174D01*
X3639229Y-6488174D02*
X3648753Y-6450079D01*
X3648753Y-6450079D02*
X3658277Y-6431031D01*
X3658277Y-6431031D02*
X3667801Y-6421508D01*
X3667801Y-6421508D02*
X3686848Y-6411984D01*
X3991610Y-6611984D02*
X3991610Y-6411984D01*
X4077325Y-6611984D02*
X4077325Y-6507222D01*
X4077325Y-6507222D02*
X4067801Y-6488174D01*
X4067801Y-6488174D02*
X4048753Y-6478650D01*
X4048753Y-6478650D02*
X4020182Y-6478650D01*
X4020182Y-6478650D02*
X4001134Y-6488174D01*
X4001134Y-6488174D02*
X3991610Y-6497698D01*
X4201134Y-6611984D02*
X4182087Y-6602460D01*
X4182087Y-6602460D02*
X4172563Y-6592936D01*
X4172563Y-6592936D02*
X4163039Y-6573888D01*
X4163039Y-6573888D02*
X4163039Y-6516746D01*
X4163039Y-6516746D02*
X4172563Y-6497698D01*
X4172563Y-6497698D02*
X4182087Y-6488174D01*
X4182087Y-6488174D02*
X4201134Y-6478650D01*
X4201134Y-6478650D02*
X4229706Y-6478650D01*
X4229706Y-6478650D02*
X4248753Y-6488174D01*
X4248753Y-6488174D02*
X4258277Y-6497698D01*
X4258277Y-6497698D02*
X4267801Y-6516746D01*
X4267801Y-6516746D02*
X4267801Y-6573888D01*
X4267801Y-6573888D02*
X4258277Y-6592936D01*
X4258277Y-6592936D02*
X4248753Y-6602460D01*
X4248753Y-6602460D02*
X4229706Y-6611984D01*
X4229706Y-6611984D02*
X4201134Y-6611984D01*
X4382087Y-6611984D02*
X4363039Y-6602460D01*
X4363039Y-6602460D02*
X4353515Y-6583412D01*
X4353515Y-6583412D02*
X4353515Y-6411984D01*
X4534468Y-6602460D02*
X4515420Y-6611984D01*
X4515420Y-6611984D02*
X4477325Y-6611984D01*
X4477325Y-6611984D02*
X4458277Y-6602460D01*
X4458277Y-6602460D02*
X4448753Y-6583412D01*
X4448753Y-6583412D02*
X4448753Y-6507222D01*
X4448753Y-6507222D02*
X4458277Y-6488174D01*
X4458277Y-6488174D02*
X4477325Y-6478650D01*
X4477325Y-6478650D02*
X4515420Y-6478650D01*
X4515420Y-6478650D02*
X4534468Y-6488174D01*
X4534468Y-6488174D02*
X4543992Y-6507222D01*
X4543992Y-6507222D02*
X4543992Y-6526269D01*
X4543992Y-6526269D02*
X4448753Y-6545317D01*
X4620182Y-6602460D02*
X4639230Y-6611984D01*
X4639230Y-6611984D02*
X4677325Y-6611984D01*
X4677325Y-6611984D02*
X4696373Y-6602460D01*
X4696373Y-6602460D02*
X4705896Y-6583412D01*
X4705896Y-6583412D02*
X4705896Y-6573888D01*
X4705896Y-6573888D02*
X4696373Y-6554841D01*
X4696373Y-6554841D02*
X4677325Y-6545317D01*
X4677325Y-6545317D02*
X4648753Y-6545317D01*
X4648753Y-6545317D02*
X4629706Y-6535793D01*
X4629706Y-6535793D02*
X4620182Y-6516746D01*
X4620182Y-6516746D02*
X4620182Y-6507222D01*
X4620182Y-6507222D02*
X4629706Y-6488174D01*
X4629706Y-6488174D02*
X4648753Y-6478650D01*
X4648753Y-6478650D02*
X4677325Y-6478650D01*
X4677325Y-6478650D02*
X4696373Y-6488174D01*
X4943992Y-6535793D02*
X5096373Y-6535793D01*
X5020182Y-6611984D02*
X5020182Y-6459603D01*
X5429706Y-6478650D02*
X5429706Y-6611984D01*
X5382087Y-6402460D02*
X5334468Y-6545317D01*
X5334468Y-6545317D02*
X5458277Y-6545317D01*
X5677325Y-6602460D02*
X5696373Y-6611984D01*
X5696373Y-6611984D02*
X5734468Y-6611984D01*
X5734468Y-6611984D02*
X5753515Y-6602460D01*
X5753515Y-6602460D02*
X5763039Y-6583412D01*
X5763039Y-6583412D02*
X5763039Y-6573888D01*
X5763039Y-6573888D02*
X5753515Y-6554841D01*
X5753515Y-6554841D02*
X5734468Y-6545317D01*
X5734468Y-6545317D02*
X5705896Y-6545317D01*
X5705896Y-6545317D02*
X5686849Y-6535793D01*
X5686849Y-6535793D02*
X5677325Y-6516746D01*
X5677325Y-6516746D02*
X5677325Y-6507222D01*
X5677325Y-6507222D02*
X5686849Y-6488174D01*
X5686849Y-6488174D02*
X5705896Y-6478650D01*
X5705896Y-6478650D02*
X5734468Y-6478650D01*
X5734468Y-6478650D02*
X5753515Y-6488174D01*
X5877325Y-6611984D02*
X5858277Y-6602460D01*
X5858277Y-6602460D02*
X5848754Y-6583412D01*
X5848754Y-6583412D02*
X5848754Y-6411984D01*
X5982087Y-6611984D02*
X5963039Y-6602460D01*
X5963039Y-6602460D02*
X5953515Y-6592936D01*
X5953515Y-6592936D02*
X5943992Y-6573888D01*
X5943992Y-6573888D02*
X5943992Y-6516746D01*
X5943992Y-6516746D02*
X5953515Y-6497698D01*
X5953515Y-6497698D02*
X5963039Y-6488174D01*
X5963039Y-6488174D02*
X5982087Y-6478650D01*
X5982087Y-6478650D02*
X6010658Y-6478650D01*
X6010658Y-6478650D02*
X6029706Y-6488174D01*
X6029706Y-6488174D02*
X6039230Y-6497698D01*
X6039230Y-6497698D02*
X6048754Y-6516746D01*
X6048754Y-6516746D02*
X6048754Y-6573888D01*
X6048754Y-6573888D02*
X6039230Y-6592936D01*
X6039230Y-6592936D02*
X6029706Y-6602460D01*
X6029706Y-6602460D02*
X6010658Y-6611984D01*
X6010658Y-6611984D02*
X5982087Y-6611984D01*
X6105896Y-6478650D02*
X6182087Y-6478650D01*
X6134468Y-6411984D02*
X6134468Y-6583412D01*
X6134468Y-6583412D02*
X6143992Y-6602460D01*
X6143992Y-6602460D02*
X6163039Y-6611984D01*
X6163039Y-6611984D02*
X6182087Y-6611984D01*
X6239230Y-6602460D02*
X6258277Y-6611984D01*
X6258277Y-6611984D02*
X6296373Y-6611984D01*
X6296373Y-6611984D02*
X6315420Y-6602460D01*
X6315420Y-6602460D02*
X6324944Y-6583412D01*
X6324944Y-6583412D02*
X6324944Y-6573888D01*
X6324944Y-6573888D02*
X6315420Y-6554841D01*
X6315420Y-6554841D02*
X6296373Y-6545317D01*
X6296373Y-6545317D02*
X6267801Y-6545317D01*
X6267801Y-6545317D02*
X6248754Y-6535793D01*
X6248754Y-6535793D02*
X6239230Y-6516746D01*
X6239230Y-6516746D02*
X6239230Y-6507222D01*
X6239230Y-6507222D02*
X6248754Y-6488174D01*
X6248754Y-6488174D02*
X6267801Y-6478650D01*
X6267801Y-6478650D02*
X6296373Y-6478650D01*
X6296373Y-6478650D02*
X6315420Y-6488174D01*
X6391611Y-6688174D02*
X6401135Y-6678650D01*
X6401135Y-6678650D02*
X6420182Y-6650079D01*
X6420182Y-6650079D02*
X6429706Y-6631031D01*
X6429706Y-6631031D02*
X6439230Y-6602460D01*
X6439230Y-6602460D02*
X6448754Y-6554841D01*
X6448754Y-6554841D02*
X6448754Y-6516746D01*
X6448754Y-6516746D02*
X6439230Y-6469127D01*
X6439230Y-6469127D02*
X6429706Y-6440555D01*
X6429706Y-6440555D02*
X6420182Y-6421508D01*
X6420182Y-6421508D02*
X6401135Y-6392936D01*
X6401135Y-6392936D02*
X6391611Y-6383412D01*
D12*
X-13483Y-6811017D02*
X-13483Y-6757983D01*
X-66517Y-6757983D01*
X-66517Y-6811017D01*
X-13483Y-6811017D01*
D11*
X296372Y-6675984D02*
X315420Y-6675984D01*
X315420Y-6675984D02*
X334467Y-6685508D01*
X334467Y-6685508D02*
X343991Y-6695031D01*
X343991Y-6695031D02*
X353515Y-6714079D01*
X353515Y-6714079D02*
X363039Y-6752174D01*
X363039Y-6752174D02*
X363039Y-6799793D01*
X363039Y-6799793D02*
X353515Y-6837888D01*
X353515Y-6837888D02*
X343991Y-6856936D01*
X343991Y-6856936D02*
X334467Y-6866460D01*
X334467Y-6866460D02*
X315420Y-6875984D01*
X315420Y-6875984D02*
X296372Y-6875984D01*
X296372Y-6875984D02*
X277324Y-6866460D01*
X277324Y-6866460D02*
X267801Y-6856936D01*
X267801Y-6856936D02*
X258277Y-6837888D01*
X258277Y-6837888D02*
X248753Y-6799793D01*
X248753Y-6799793D02*
X248753Y-6752174D01*
X248753Y-6752174D02*
X258277Y-6714079D01*
X258277Y-6714079D02*
X267801Y-6695031D01*
X267801Y-6695031D02*
X277324Y-6685508D01*
X277324Y-6685508D02*
X296372Y-6675984D01*
X448753Y-6856936D02*
X458277Y-6866460D01*
X458277Y-6866460D02*
X448753Y-6875984D01*
X448753Y-6875984D02*
X439229Y-6866460D01*
X439229Y-6866460D02*
X448753Y-6856936D01*
X448753Y-6856936D02*
X448753Y-6875984D01*
X524944Y-6675984D02*
X658277Y-6675984D01*
X658277Y-6675984D02*
X572563Y-6875984D01*
X829705Y-6675984D02*
X734467Y-6675984D01*
X734467Y-6675984D02*
X724943Y-6771222D01*
X724943Y-6771222D02*
X734467Y-6761698D01*
X734467Y-6761698D02*
X753515Y-6752174D01*
X753515Y-6752174D02*
X801134Y-6752174D01*
X801134Y-6752174D02*
X820182Y-6761698D01*
X820182Y-6761698D02*
X829705Y-6771222D01*
X829705Y-6771222D02*
X839229Y-6790269D01*
X839229Y-6790269D02*
X839229Y-6837888D01*
X839229Y-6837888D02*
X829705Y-6856936D01*
X829705Y-6856936D02*
X820182Y-6866460D01*
X820182Y-6866460D02*
X801134Y-6875984D01*
X801134Y-6875984D02*
X753515Y-6875984D01*
X753515Y-6875984D02*
X734467Y-6866460D01*
X734467Y-6866460D02*
X724943Y-6856936D01*
X963039Y-6675984D02*
X982086Y-6675984D01*
X982086Y-6675984D02*
X1001134Y-6685508D01*
X1001134Y-6685508D02*
X1010658Y-6695031D01*
X1010658Y-6695031D02*
X1020182Y-6714079D01*
X1020182Y-6714079D02*
X1029705Y-6752174D01*
X1029705Y-6752174D02*
X1029705Y-6799793D01*
X1029705Y-6799793D02*
X1020182Y-6837888D01*
X1020182Y-6837888D02*
X1010658Y-6856936D01*
X1010658Y-6856936D02*
X1001134Y-6866460D01*
X1001134Y-6866460D02*
X982086Y-6875984D01*
X982086Y-6875984D02*
X963039Y-6875984D01*
X963039Y-6875984D02*
X943991Y-6866460D01*
X943991Y-6866460D02*
X934467Y-6856936D01*
X934467Y-6856936D02*
X924943Y-6837888D01*
X924943Y-6837888D02*
X915420Y-6799793D01*
X915420Y-6799793D02*
X915420Y-6752174D01*
X915420Y-6752174D02*
X924943Y-6714079D01*
X924943Y-6714079D02*
X934467Y-6695031D01*
X934467Y-6695031D02*
X943991Y-6685508D01*
X943991Y-6685508D02*
X963039Y-6675984D01*
X1115420Y-6875984D02*
X1115420Y-6742650D01*
X1115420Y-6761698D02*
X1124944Y-6752174D01*
X1124944Y-6752174D02*
X1143991Y-6742650D01*
X1143991Y-6742650D02*
X1172563Y-6742650D01*
X1172563Y-6742650D02*
X1191610Y-6752174D01*
X1191610Y-6752174D02*
X1201134Y-6771222D01*
X1201134Y-6771222D02*
X1201134Y-6875984D01*
X1201134Y-6771222D02*
X1210658Y-6752174D01*
X1210658Y-6752174D02*
X1229705Y-6742650D01*
X1229705Y-6742650D02*
X1258277Y-6742650D01*
X1258277Y-6742650D02*
X1277325Y-6752174D01*
X1277325Y-6752174D02*
X1286848Y-6771222D01*
X1286848Y-6771222D02*
X1286848Y-6875984D01*
X1382086Y-6875984D02*
X1382086Y-6742650D01*
X1382086Y-6761698D02*
X1391610Y-6752174D01*
X1391610Y-6752174D02*
X1410658Y-6742650D01*
X1410658Y-6742650D02*
X1439229Y-6742650D01*
X1439229Y-6742650D02*
X1458277Y-6752174D01*
X1458277Y-6752174D02*
X1467801Y-6771222D01*
X1467801Y-6771222D02*
X1467801Y-6875984D01*
X1467801Y-6771222D02*
X1477324Y-6752174D01*
X1477324Y-6752174D02*
X1496372Y-6742650D01*
X1496372Y-6742650D02*
X1524943Y-6742650D01*
X1524943Y-6742650D02*
X1543991Y-6752174D01*
X1543991Y-6752174D02*
X1553515Y-6771222D01*
X1553515Y-6771222D02*
X1553515Y-6875984D01*
X1943991Y-6666460D02*
X1772563Y-6923603D01*
X2201134Y-6675984D02*
X2220182Y-6675984D01*
X2220182Y-6675984D02*
X2239229Y-6685508D01*
X2239229Y-6685508D02*
X2248753Y-6695031D01*
X2248753Y-6695031D02*
X2258277Y-6714079D01*
X2258277Y-6714079D02*
X2267801Y-6752174D01*
X2267801Y-6752174D02*
X2267801Y-6799793D01*
X2267801Y-6799793D02*
X2258277Y-6837888D01*
X2258277Y-6837888D02*
X2248753Y-6856936D01*
X2248753Y-6856936D02*
X2239229Y-6866460D01*
X2239229Y-6866460D02*
X2220182Y-6875984D01*
X2220182Y-6875984D02*
X2201134Y-6875984D01*
X2201134Y-6875984D02*
X2182087Y-6866460D01*
X2182087Y-6866460D02*
X2172563Y-6856936D01*
X2172563Y-6856936D02*
X2163039Y-6837888D01*
X2163039Y-6837888D02*
X2153515Y-6799793D01*
X2153515Y-6799793D02*
X2153515Y-6752174D01*
X2153515Y-6752174D02*
X2163039Y-6714079D01*
X2163039Y-6714079D02*
X2172563Y-6695031D01*
X2172563Y-6695031D02*
X2182087Y-6685508D01*
X2182087Y-6685508D02*
X2201134Y-6675984D01*
X2353515Y-6856936D02*
X2363039Y-6866460D01*
X2363039Y-6866460D02*
X2353515Y-6875984D01*
X2353515Y-6875984D02*
X2343991Y-6866460D01*
X2343991Y-6866460D02*
X2353515Y-6856936D01*
X2353515Y-6856936D02*
X2353515Y-6875984D01*
X2486848Y-6675984D02*
X2505896Y-6675984D01*
X2505896Y-6675984D02*
X2524944Y-6685508D01*
X2524944Y-6685508D02*
X2534468Y-6695031D01*
X2534468Y-6695031D02*
X2543991Y-6714079D01*
X2543991Y-6714079D02*
X2553515Y-6752174D01*
X2553515Y-6752174D02*
X2553515Y-6799793D01*
X2553515Y-6799793D02*
X2543991Y-6837888D01*
X2543991Y-6837888D02*
X2534468Y-6856936D01*
X2534468Y-6856936D02*
X2524944Y-6866460D01*
X2524944Y-6866460D02*
X2505896Y-6875984D01*
X2505896Y-6875984D02*
X2486848Y-6875984D01*
X2486848Y-6875984D02*
X2467801Y-6866460D01*
X2467801Y-6866460D02*
X2458277Y-6856936D01*
X2458277Y-6856936D02*
X2448753Y-6837888D01*
X2448753Y-6837888D02*
X2439229Y-6799793D01*
X2439229Y-6799793D02*
X2439229Y-6752174D01*
X2439229Y-6752174D02*
X2448753Y-6714079D01*
X2448753Y-6714079D02*
X2458277Y-6695031D01*
X2458277Y-6695031D02*
X2467801Y-6685508D01*
X2467801Y-6685508D02*
X2486848Y-6675984D01*
X2629706Y-6695031D02*
X2639229Y-6685508D01*
X2639229Y-6685508D02*
X2658277Y-6675984D01*
X2658277Y-6675984D02*
X2705896Y-6675984D01*
X2705896Y-6675984D02*
X2724944Y-6685508D01*
X2724944Y-6685508D02*
X2734468Y-6695031D01*
X2734468Y-6695031D02*
X2743991Y-6714079D01*
X2743991Y-6714079D02*
X2743991Y-6733127D01*
X2743991Y-6733127D02*
X2734468Y-6761698D01*
X2734468Y-6761698D02*
X2620182Y-6875984D01*
X2620182Y-6875984D02*
X2743991Y-6875984D01*
X2839229Y-6875984D02*
X2877325Y-6875984D01*
X2877325Y-6875984D02*
X2896372Y-6866460D01*
X2896372Y-6866460D02*
X2905896Y-6856936D01*
X2905896Y-6856936D02*
X2924944Y-6828365D01*
X2924944Y-6828365D02*
X2934467Y-6790269D01*
X2934467Y-6790269D02*
X2934467Y-6714079D01*
X2934467Y-6714079D02*
X2924944Y-6695031D01*
X2924944Y-6695031D02*
X2915420Y-6685508D01*
X2915420Y-6685508D02*
X2896372Y-6675984D01*
X2896372Y-6675984D02*
X2858277Y-6675984D01*
X2858277Y-6675984D02*
X2839229Y-6685508D01*
X2839229Y-6685508D02*
X2829706Y-6695031D01*
X2829706Y-6695031D02*
X2820182Y-6714079D01*
X2820182Y-6714079D02*
X2820182Y-6761698D01*
X2820182Y-6761698D02*
X2829706Y-6780746D01*
X2829706Y-6780746D02*
X2839229Y-6790269D01*
X2839229Y-6790269D02*
X2858277Y-6799793D01*
X2858277Y-6799793D02*
X2896372Y-6799793D01*
X2896372Y-6799793D02*
X2915420Y-6790269D01*
X2915420Y-6790269D02*
X2924944Y-6780746D01*
X2924944Y-6780746D02*
X2934467Y-6761698D01*
X3115420Y-6675984D02*
X3020182Y-6675984D01*
X3020182Y-6675984D02*
X3010658Y-6771222D01*
X3010658Y-6771222D02*
X3020182Y-6761698D01*
X3020182Y-6761698D02*
X3039229Y-6752174D01*
X3039229Y-6752174D02*
X3086848Y-6752174D01*
X3086848Y-6752174D02*
X3105896Y-6761698D01*
X3105896Y-6761698D02*
X3115420Y-6771222D01*
X3115420Y-6771222D02*
X3124944Y-6790269D01*
X3124944Y-6790269D02*
X3124944Y-6837888D01*
X3124944Y-6837888D02*
X3115420Y-6856936D01*
X3115420Y-6856936D02*
X3105896Y-6866460D01*
X3105896Y-6866460D02*
X3086848Y-6875984D01*
X3086848Y-6875984D02*
X3039229Y-6875984D01*
X3039229Y-6875984D02*
X3020182Y-6866460D01*
X3020182Y-6866460D02*
X3010658Y-6856936D01*
X3201134Y-6675984D02*
X3201134Y-6714079D01*
X3277325Y-6675984D02*
X3277325Y-6714079D01*
X3572563Y-6952174D02*
X3563039Y-6942650D01*
X3563039Y-6942650D02*
X3543991Y-6914079D01*
X3543991Y-6914079D02*
X3534468Y-6895031D01*
X3534468Y-6895031D02*
X3524944Y-6866460D01*
X3524944Y-6866460D02*
X3515420Y-6818841D01*
X3515420Y-6818841D02*
X3515420Y-6780746D01*
X3515420Y-6780746D02*
X3524944Y-6733127D01*
X3524944Y-6733127D02*
X3534468Y-6704555D01*
X3534468Y-6704555D02*
X3543991Y-6685508D01*
X3543991Y-6685508D02*
X3563039Y-6656936D01*
X3563039Y-6656936D02*
X3572563Y-6647412D01*
X3639229Y-6695031D02*
X3648753Y-6685508D01*
X3648753Y-6685508D02*
X3667801Y-6675984D01*
X3667801Y-6675984D02*
X3715420Y-6675984D01*
X3715420Y-6675984D02*
X3734468Y-6685508D01*
X3734468Y-6685508D02*
X3743991Y-6695031D01*
X3743991Y-6695031D02*
X3753515Y-6714079D01*
X3753515Y-6714079D02*
X3753515Y-6733127D01*
X3753515Y-6733127D02*
X3743991Y-6761698D01*
X3743991Y-6761698D02*
X3629706Y-6875984D01*
X3629706Y-6875984D02*
X3753515Y-6875984D01*
X3924944Y-6675984D02*
X3886848Y-6675984D01*
X3886848Y-6675984D02*
X3867801Y-6685508D01*
X3867801Y-6685508D02*
X3858277Y-6695031D01*
X3858277Y-6695031D02*
X3839229Y-6723603D01*
X3839229Y-6723603D02*
X3829706Y-6761698D01*
X3829706Y-6761698D02*
X3829706Y-6837888D01*
X3829706Y-6837888D02*
X3839229Y-6856936D01*
X3839229Y-6856936D02*
X3848753Y-6866460D01*
X3848753Y-6866460D02*
X3867801Y-6875984D01*
X3867801Y-6875984D02*
X3905896Y-6875984D01*
X3905896Y-6875984D02*
X3924944Y-6866460D01*
X3924944Y-6866460D02*
X3934468Y-6856936D01*
X3934468Y-6856936D02*
X3943991Y-6837888D01*
X3943991Y-6837888D02*
X3943991Y-6790269D01*
X3943991Y-6790269D02*
X3934468Y-6771222D01*
X3934468Y-6771222D02*
X3924944Y-6761698D01*
X3924944Y-6761698D02*
X3905896Y-6752174D01*
X3905896Y-6752174D02*
X3867801Y-6752174D01*
X3867801Y-6752174D02*
X3848753Y-6761698D01*
X3848753Y-6761698D02*
X3839229Y-6771222D01*
X3839229Y-6771222D02*
X3829706Y-6790269D01*
X4182087Y-6875984D02*
X4182087Y-6675984D01*
X4267801Y-6875984D02*
X4267801Y-6771222D01*
X4267801Y-6771222D02*
X4258277Y-6752174D01*
X4258277Y-6752174D02*
X4239230Y-6742650D01*
X4239230Y-6742650D02*
X4210658Y-6742650D01*
X4210658Y-6742650D02*
X4191610Y-6752174D01*
X4191610Y-6752174D02*
X4182087Y-6761698D01*
X4391611Y-6875984D02*
X4372563Y-6866460D01*
X4372563Y-6866460D02*
X4363039Y-6856936D01*
X4363039Y-6856936D02*
X4353515Y-6837888D01*
X4353515Y-6837888D02*
X4353515Y-6780746D01*
X4353515Y-6780746D02*
X4363039Y-6761698D01*
X4363039Y-6761698D02*
X4372563Y-6752174D01*
X4372563Y-6752174D02*
X4391611Y-6742650D01*
X4391611Y-6742650D02*
X4420182Y-6742650D01*
X4420182Y-6742650D02*
X4439230Y-6752174D01*
X4439230Y-6752174D02*
X4448753Y-6761698D01*
X4448753Y-6761698D02*
X4458277Y-6780746D01*
X4458277Y-6780746D02*
X4458277Y-6837888D01*
X4458277Y-6837888D02*
X4448753Y-6856936D01*
X4448753Y-6856936D02*
X4439230Y-6866460D01*
X4439230Y-6866460D02*
X4420182Y-6875984D01*
X4420182Y-6875984D02*
X4391611Y-6875984D01*
X4572563Y-6875984D02*
X4553515Y-6866460D01*
X4553515Y-6866460D02*
X4543992Y-6847412D01*
X4543992Y-6847412D02*
X4543992Y-6675984D01*
X4724944Y-6866460D02*
X4705896Y-6875984D01*
X4705896Y-6875984D02*
X4667801Y-6875984D01*
X4667801Y-6875984D02*
X4648753Y-6866460D01*
X4648753Y-6866460D02*
X4639230Y-6847412D01*
X4639230Y-6847412D02*
X4639230Y-6771222D01*
X4639230Y-6771222D02*
X4648753Y-6752174D01*
X4648753Y-6752174D02*
X4667801Y-6742650D01*
X4667801Y-6742650D02*
X4705896Y-6742650D01*
X4705896Y-6742650D02*
X4724944Y-6752174D01*
X4724944Y-6752174D02*
X4734468Y-6771222D01*
X4734468Y-6771222D02*
X4734468Y-6790269D01*
X4734468Y-6790269D02*
X4639230Y-6809317D01*
X4810658Y-6866460D02*
X4829706Y-6875984D01*
X4829706Y-6875984D02*
X4867801Y-6875984D01*
X4867801Y-6875984D02*
X4886849Y-6866460D01*
X4886849Y-6866460D02*
X4896373Y-6847412D01*
X4896373Y-6847412D02*
X4896373Y-6837888D01*
X4896373Y-6837888D02*
X4886849Y-6818841D01*
X4886849Y-6818841D02*
X4867801Y-6809317D01*
X4867801Y-6809317D02*
X4839230Y-6809317D01*
X4839230Y-6809317D02*
X4820182Y-6799793D01*
X4820182Y-6799793D02*
X4810658Y-6780746D01*
X4810658Y-6780746D02*
X4810658Y-6771222D01*
X4810658Y-6771222D02*
X4820182Y-6752174D01*
X4820182Y-6752174D02*
X4839230Y-6742650D01*
X4839230Y-6742650D02*
X4867801Y-6742650D01*
X4867801Y-6742650D02*
X4886849Y-6752174D01*
X4963039Y-6952174D02*
X4972563Y-6942650D01*
X4972563Y-6942650D02*
X4991611Y-6914079D01*
X4991611Y-6914079D02*
X5001134Y-6895031D01*
X5001134Y-6895031D02*
X5010658Y-6866460D01*
X5010658Y-6866460D02*
X5020182Y-6818841D01*
X5020182Y-6818841D02*
X5020182Y-6780746D01*
X5020182Y-6780746D02*
X5010658Y-6733127D01*
X5010658Y-6733127D02*
X5001134Y-6704555D01*
X5001134Y-6704555D02*
X4991611Y-6685508D01*
X4991611Y-6685508D02*
X4972563Y-6656936D01*
X4972563Y-6656936D02*
X4963039Y-6647412D01*
D12*
X-52500Y-7098500D02*
X-2500Y-7048500D01*
X-52500Y-6998500D01*
X-102500Y-7048500D01*
X-52500Y-7098500D01*
D11*
X363039Y-7139984D02*
X248753Y-7139984D01*
X305896Y-7139984D02*
X305896Y-6939984D01*
X305896Y-6939984D02*
X286848Y-6968555D01*
X286848Y-6968555D02*
X267801Y-6987603D01*
X267801Y-6987603D02*
X248753Y-6997127D01*
X448753Y-7120936D02*
X458277Y-7130460D01*
X458277Y-7130460D02*
X448753Y-7139984D01*
X448753Y-7139984D02*
X439229Y-7130460D01*
X439229Y-7130460D02*
X448753Y-7120936D01*
X448753Y-7120936D02*
X448753Y-7139984D01*
X582086Y-6939984D02*
X601134Y-6939984D01*
X601134Y-6939984D02*
X620182Y-6949508D01*
X620182Y-6949508D02*
X629705Y-6959031D01*
X629705Y-6959031D02*
X639229Y-6978079D01*
X639229Y-6978079D02*
X648753Y-7016174D01*
X648753Y-7016174D02*
X648753Y-7063793D01*
X648753Y-7063793D02*
X639229Y-7101888D01*
X639229Y-7101888D02*
X629705Y-7120936D01*
X629705Y-7120936D02*
X620182Y-7130460D01*
X620182Y-7130460D02*
X601134Y-7139984D01*
X601134Y-7139984D02*
X582086Y-7139984D01*
X582086Y-7139984D02*
X563039Y-7130460D01*
X563039Y-7130460D02*
X553515Y-7120936D01*
X553515Y-7120936D02*
X543991Y-7101888D01*
X543991Y-7101888D02*
X534467Y-7063793D01*
X534467Y-7063793D02*
X534467Y-7016174D01*
X534467Y-7016174D02*
X543991Y-6978079D01*
X543991Y-6978079D02*
X553515Y-6959031D01*
X553515Y-6959031D02*
X563039Y-6949508D01*
X563039Y-6949508D02*
X582086Y-6939984D01*
X772562Y-6939984D02*
X791610Y-6939984D01*
X791610Y-6939984D02*
X810658Y-6949508D01*
X810658Y-6949508D02*
X820182Y-6959031D01*
X820182Y-6959031D02*
X829705Y-6978079D01*
X829705Y-6978079D02*
X839229Y-7016174D01*
X839229Y-7016174D02*
X839229Y-7063793D01*
X839229Y-7063793D02*
X829705Y-7101888D01*
X829705Y-7101888D02*
X820182Y-7120936D01*
X820182Y-7120936D02*
X810658Y-7130460D01*
X810658Y-7130460D02*
X791610Y-7139984D01*
X791610Y-7139984D02*
X772562Y-7139984D01*
X772562Y-7139984D02*
X753515Y-7130460D01*
X753515Y-7130460D02*
X743991Y-7120936D01*
X743991Y-7120936D02*
X734467Y-7101888D01*
X734467Y-7101888D02*
X724943Y-7063793D01*
X724943Y-7063793D02*
X724943Y-7016174D01*
X724943Y-7016174D02*
X734467Y-6978079D01*
X734467Y-6978079D02*
X743991Y-6959031D01*
X743991Y-6959031D02*
X753515Y-6949508D01*
X753515Y-6949508D02*
X772562Y-6939984D01*
X963039Y-6939984D02*
X982086Y-6939984D01*
X982086Y-6939984D02*
X1001134Y-6949508D01*
X1001134Y-6949508D02*
X1010658Y-6959031D01*
X1010658Y-6959031D02*
X1020182Y-6978079D01*
X1020182Y-6978079D02*
X1029705Y-7016174D01*
X1029705Y-7016174D02*
X1029705Y-7063793D01*
X1029705Y-7063793D02*
X1020182Y-7101888D01*
X1020182Y-7101888D02*
X1010658Y-7120936D01*
X1010658Y-7120936D02*
X1001134Y-7130460D01*
X1001134Y-7130460D02*
X982086Y-7139984D01*
X982086Y-7139984D02*
X963039Y-7139984D01*
X963039Y-7139984D02*
X943991Y-7130460D01*
X943991Y-7130460D02*
X934467Y-7120936D01*
X934467Y-7120936D02*
X924943Y-7101888D01*
X924943Y-7101888D02*
X915420Y-7063793D01*
X915420Y-7063793D02*
X915420Y-7016174D01*
X915420Y-7016174D02*
X924943Y-6978079D01*
X924943Y-6978079D02*
X934467Y-6959031D01*
X934467Y-6959031D02*
X943991Y-6949508D01*
X943991Y-6949508D02*
X963039Y-6939984D01*
X1115420Y-7139984D02*
X1115420Y-7006650D01*
X1115420Y-7025698D02*
X1124944Y-7016174D01*
X1124944Y-7016174D02*
X1143991Y-7006650D01*
X1143991Y-7006650D02*
X1172563Y-7006650D01*
X1172563Y-7006650D02*
X1191610Y-7016174D01*
X1191610Y-7016174D02*
X1201134Y-7035222D01*
X1201134Y-7035222D02*
X1201134Y-7139984D01*
X1201134Y-7035222D02*
X1210658Y-7016174D01*
X1210658Y-7016174D02*
X1229705Y-7006650D01*
X1229705Y-7006650D02*
X1258277Y-7006650D01*
X1258277Y-7006650D02*
X1277325Y-7016174D01*
X1277325Y-7016174D02*
X1286848Y-7035222D01*
X1286848Y-7035222D02*
X1286848Y-7139984D01*
X1382086Y-7139984D02*
X1382086Y-7006650D01*
X1382086Y-7025698D02*
X1391610Y-7016174D01*
X1391610Y-7016174D02*
X1410658Y-7006650D01*
X1410658Y-7006650D02*
X1439229Y-7006650D01*
X1439229Y-7006650D02*
X1458277Y-7016174D01*
X1458277Y-7016174D02*
X1467801Y-7035222D01*
X1467801Y-7035222D02*
X1467801Y-7139984D01*
X1467801Y-7035222D02*
X1477324Y-7016174D01*
X1477324Y-7016174D02*
X1496372Y-7006650D01*
X1496372Y-7006650D02*
X1524943Y-7006650D01*
X1524943Y-7006650D02*
X1543991Y-7016174D01*
X1543991Y-7016174D02*
X1553515Y-7035222D01*
X1553515Y-7035222D02*
X1553515Y-7139984D01*
X1943991Y-6930460D02*
X1772563Y-7187603D01*
X2201134Y-6939984D02*
X2220182Y-6939984D01*
X2220182Y-6939984D02*
X2239229Y-6949508D01*
X2239229Y-6949508D02*
X2248753Y-6959031D01*
X2248753Y-6959031D02*
X2258277Y-6978079D01*
X2258277Y-6978079D02*
X2267801Y-7016174D01*
X2267801Y-7016174D02*
X2267801Y-7063793D01*
X2267801Y-7063793D02*
X2258277Y-7101888D01*
X2258277Y-7101888D02*
X2248753Y-7120936D01*
X2248753Y-7120936D02*
X2239229Y-7130460D01*
X2239229Y-7130460D02*
X2220182Y-7139984D01*
X2220182Y-7139984D02*
X2201134Y-7139984D01*
X2201134Y-7139984D02*
X2182087Y-7130460D01*
X2182087Y-7130460D02*
X2172563Y-7120936D01*
X2172563Y-7120936D02*
X2163039Y-7101888D01*
X2163039Y-7101888D02*
X2153515Y-7063793D01*
X2153515Y-7063793D02*
X2153515Y-7016174D01*
X2153515Y-7016174D02*
X2163039Y-6978079D01*
X2163039Y-6978079D02*
X2172563Y-6959031D01*
X2172563Y-6959031D02*
X2182087Y-6949508D01*
X2182087Y-6949508D02*
X2201134Y-6939984D01*
X2353515Y-7120936D02*
X2363039Y-7130460D01*
X2363039Y-7130460D02*
X2353515Y-7139984D01*
X2353515Y-7139984D02*
X2343991Y-7130460D01*
X2343991Y-7130460D02*
X2353515Y-7120936D01*
X2353515Y-7120936D02*
X2353515Y-7139984D01*
X2486848Y-6939984D02*
X2505896Y-6939984D01*
X2505896Y-6939984D02*
X2524944Y-6949508D01*
X2524944Y-6949508D02*
X2534468Y-6959031D01*
X2534468Y-6959031D02*
X2543991Y-6978079D01*
X2543991Y-6978079D02*
X2553515Y-7016174D01*
X2553515Y-7016174D02*
X2553515Y-7063793D01*
X2553515Y-7063793D02*
X2543991Y-7101888D01*
X2543991Y-7101888D02*
X2534468Y-7120936D01*
X2534468Y-7120936D02*
X2524944Y-7130460D01*
X2524944Y-7130460D02*
X2505896Y-7139984D01*
X2505896Y-7139984D02*
X2486848Y-7139984D01*
X2486848Y-7139984D02*
X2467801Y-7130460D01*
X2467801Y-7130460D02*
X2458277Y-7120936D01*
X2458277Y-7120936D02*
X2448753Y-7101888D01*
X2448753Y-7101888D02*
X2439229Y-7063793D01*
X2439229Y-7063793D02*
X2439229Y-7016174D01*
X2439229Y-7016174D02*
X2448753Y-6978079D01*
X2448753Y-6978079D02*
X2458277Y-6959031D01*
X2458277Y-6959031D02*
X2467801Y-6949508D01*
X2467801Y-6949508D02*
X2486848Y-6939984D01*
X2620182Y-6939984D02*
X2743991Y-6939984D01*
X2743991Y-6939984D02*
X2677325Y-7016174D01*
X2677325Y-7016174D02*
X2705896Y-7016174D01*
X2705896Y-7016174D02*
X2724944Y-7025698D01*
X2724944Y-7025698D02*
X2734468Y-7035222D01*
X2734468Y-7035222D02*
X2743991Y-7054269D01*
X2743991Y-7054269D02*
X2743991Y-7101888D01*
X2743991Y-7101888D02*
X2734468Y-7120936D01*
X2734468Y-7120936D02*
X2724944Y-7130460D01*
X2724944Y-7130460D02*
X2705896Y-7139984D01*
X2705896Y-7139984D02*
X2648753Y-7139984D01*
X2648753Y-7139984D02*
X2629706Y-7130460D01*
X2629706Y-7130460D02*
X2620182Y-7120936D01*
X2839229Y-7139984D02*
X2877325Y-7139984D01*
X2877325Y-7139984D02*
X2896372Y-7130460D01*
X2896372Y-7130460D02*
X2905896Y-7120936D01*
X2905896Y-7120936D02*
X2924944Y-7092365D01*
X2924944Y-7092365D02*
X2934467Y-7054269D01*
X2934467Y-7054269D02*
X2934467Y-6978079D01*
X2934467Y-6978079D02*
X2924944Y-6959031D01*
X2924944Y-6959031D02*
X2915420Y-6949508D01*
X2915420Y-6949508D02*
X2896372Y-6939984D01*
X2896372Y-6939984D02*
X2858277Y-6939984D01*
X2858277Y-6939984D02*
X2839229Y-6949508D01*
X2839229Y-6949508D02*
X2829706Y-6959031D01*
X2829706Y-6959031D02*
X2820182Y-6978079D01*
X2820182Y-6978079D02*
X2820182Y-7025698D01*
X2820182Y-7025698D02*
X2829706Y-7044746D01*
X2829706Y-7044746D02*
X2839229Y-7054269D01*
X2839229Y-7054269D02*
X2858277Y-7063793D01*
X2858277Y-7063793D02*
X2896372Y-7063793D01*
X2896372Y-7063793D02*
X2915420Y-7054269D01*
X2915420Y-7054269D02*
X2924944Y-7044746D01*
X2924944Y-7044746D02*
X2934467Y-7025698D01*
X3105896Y-7006650D02*
X3105896Y-7139984D01*
X3058277Y-6930460D02*
X3010658Y-7073317D01*
X3010658Y-7073317D02*
X3134467Y-7073317D01*
X3201134Y-6939984D02*
X3201134Y-6978079D01*
X3277325Y-6939984D02*
X3277325Y-6978079D01*
X3572563Y-7216174D02*
X3563039Y-7206650D01*
X3563039Y-7206650D02*
X3543991Y-7178079D01*
X3543991Y-7178079D02*
X3534468Y-7159031D01*
X3534468Y-7159031D02*
X3524944Y-7130460D01*
X3524944Y-7130460D02*
X3515420Y-7082841D01*
X3515420Y-7082841D02*
X3515420Y-7044746D01*
X3515420Y-7044746D02*
X3524944Y-6997127D01*
X3524944Y-6997127D02*
X3534468Y-6968555D01*
X3534468Y-6968555D02*
X3543991Y-6949508D01*
X3543991Y-6949508D02*
X3563039Y-6920936D01*
X3563039Y-6920936D02*
X3572563Y-6911412D01*
X3734468Y-6939984D02*
X3696372Y-6939984D01*
X3696372Y-6939984D02*
X3677325Y-6949508D01*
X3677325Y-6949508D02*
X3667801Y-6959031D01*
X3667801Y-6959031D02*
X3648753Y-6987603D01*
X3648753Y-6987603D02*
X3639229Y-7025698D01*
X3639229Y-7025698D02*
X3639229Y-7101888D01*
X3639229Y-7101888D02*
X3648753Y-7120936D01*
X3648753Y-7120936D02*
X3658277Y-7130460D01*
X3658277Y-7130460D02*
X3677325Y-7139984D01*
X3677325Y-7139984D02*
X3715420Y-7139984D01*
X3715420Y-7139984D02*
X3734468Y-7130460D01*
X3734468Y-7130460D02*
X3743991Y-7120936D01*
X3743991Y-7120936D02*
X3753515Y-7101888D01*
X3753515Y-7101888D02*
X3753515Y-7054269D01*
X3753515Y-7054269D02*
X3743991Y-7035222D01*
X3743991Y-7035222D02*
X3734468Y-7025698D01*
X3734468Y-7025698D02*
X3715420Y-7016174D01*
X3715420Y-7016174D02*
X3677325Y-7016174D01*
X3677325Y-7016174D02*
X3658277Y-7025698D01*
X3658277Y-7025698D02*
X3648753Y-7035222D01*
X3648753Y-7035222D02*
X3639229Y-7054269D01*
X3991610Y-7139984D02*
X3991610Y-6939984D01*
X4077325Y-7139984D02*
X4077325Y-7035222D01*
X4077325Y-7035222D02*
X4067801Y-7016174D01*
X4067801Y-7016174D02*
X4048753Y-7006650D01*
X4048753Y-7006650D02*
X4020182Y-7006650D01*
X4020182Y-7006650D02*
X4001134Y-7016174D01*
X4001134Y-7016174D02*
X3991610Y-7025698D01*
X4201134Y-7139984D02*
X4182087Y-7130460D01*
X4182087Y-7130460D02*
X4172563Y-7120936D01*
X4172563Y-7120936D02*
X4163039Y-7101888D01*
X4163039Y-7101888D02*
X4163039Y-7044746D01*
X4163039Y-7044746D02*
X4172563Y-7025698D01*
X4172563Y-7025698D02*
X4182087Y-7016174D01*
X4182087Y-7016174D02*
X4201134Y-7006650D01*
X4201134Y-7006650D02*
X4229706Y-7006650D01*
X4229706Y-7006650D02*
X4248753Y-7016174D01*
X4248753Y-7016174D02*
X4258277Y-7025698D01*
X4258277Y-7025698D02*
X4267801Y-7044746D01*
X4267801Y-7044746D02*
X4267801Y-7101888D01*
X4267801Y-7101888D02*
X4258277Y-7120936D01*
X4258277Y-7120936D02*
X4248753Y-7130460D01*
X4248753Y-7130460D02*
X4229706Y-7139984D01*
X4229706Y-7139984D02*
X4201134Y-7139984D01*
X4382087Y-7139984D02*
X4363039Y-7130460D01*
X4363039Y-7130460D02*
X4353515Y-7111412D01*
X4353515Y-7111412D02*
X4353515Y-6939984D01*
X4534468Y-7130460D02*
X4515420Y-7139984D01*
X4515420Y-7139984D02*
X4477325Y-7139984D01*
X4477325Y-7139984D02*
X4458277Y-7130460D01*
X4458277Y-7130460D02*
X4448753Y-7111412D01*
X4448753Y-7111412D02*
X4448753Y-7035222D01*
X4448753Y-7035222D02*
X4458277Y-7016174D01*
X4458277Y-7016174D02*
X4477325Y-7006650D01*
X4477325Y-7006650D02*
X4515420Y-7006650D01*
X4515420Y-7006650D02*
X4534468Y-7016174D01*
X4534468Y-7016174D02*
X4543992Y-7035222D01*
X4543992Y-7035222D02*
X4543992Y-7054269D01*
X4543992Y-7054269D02*
X4448753Y-7073317D01*
X4620182Y-7130460D02*
X4639230Y-7139984D01*
X4639230Y-7139984D02*
X4677325Y-7139984D01*
X4677325Y-7139984D02*
X4696373Y-7130460D01*
X4696373Y-7130460D02*
X4705896Y-7111412D01*
X4705896Y-7111412D02*
X4705896Y-7101888D01*
X4705896Y-7101888D02*
X4696373Y-7082841D01*
X4696373Y-7082841D02*
X4677325Y-7073317D01*
X4677325Y-7073317D02*
X4648753Y-7073317D01*
X4648753Y-7073317D02*
X4629706Y-7063793D01*
X4629706Y-7063793D02*
X4620182Y-7044746D01*
X4620182Y-7044746D02*
X4620182Y-7035222D01*
X4620182Y-7035222D02*
X4629706Y-7016174D01*
X4629706Y-7016174D02*
X4648753Y-7006650D01*
X4648753Y-7006650D02*
X4677325Y-7006650D01*
X4677325Y-7006650D02*
X4696373Y-7016174D01*
X4772563Y-7216174D02*
X4782087Y-7206650D01*
X4782087Y-7206650D02*
X4801134Y-7178079D01*
X4801134Y-7178079D02*
X4810658Y-7159031D01*
X4810658Y-7159031D02*
X4820182Y-7130460D01*
X4820182Y-7130460D02*
X4829706Y-7082841D01*
X4829706Y-7082841D02*
X4829706Y-7044746D01*
X4829706Y-7044746D02*
X4820182Y-6997127D01*
X4820182Y-6997127D02*
X4810658Y-6968555D01*
X4810658Y-6968555D02*
X4801134Y-6949508D01*
X4801134Y-6949508D02*
X4782087Y-6920936D01*
X4782087Y-6920936D02*
X4772563Y-6911412D01*
M02*
